<?xml version="1.0" encoding="utf-8"?>
<svg xmlns="http://www.w3.org/2000/svg" xmlns:xlink="http://www.w3.org/1999/xlink" width="600" height="400" viewBox="0 0 2400 1600">
<defs>
  <clipPath id="clip830">
    <rect x="0" y="0" width="2400" height="1600"/>
  </clipPath>
</defs>
<path clip-path="url(#clip830)" d="
M0 1600 L2400 1600 L2400 0 L0 0  Z
  " fill="#ffffff" fill-rule="evenodd" fill-opacity="1"/>
<defs>
  <clipPath id="clip831">
    <rect x="480" y="0" width="1681" height="1600"/>
  </clipPath>
</defs>
<path clip-path="url(#clip830)" d="
M126.969 1486.45 L2352.76 1486.45 L2352.76 106.192 L126.969 106.192  Z
  " fill="#ffffff" fill-rule="evenodd" fill-opacity="1"/>
<defs>
  <clipPath id="clip832">
    <rect x="126" y="106" width="2227" height="1381"/>
  </clipPath>
</defs>
<polyline clip-path="url(#clip832)" style="stroke:#000000; stroke-width:2; stroke-opacity:0.1; fill:none" points="
  189.963,1486.45 189.963,106.192 
  "/>
<polyline clip-path="url(#clip832)" style="stroke:#000000; stroke-width:2; stroke-opacity:0.1; fill:none" points="
  501.044,1486.45 501.044,106.192 
  "/>
<polyline clip-path="url(#clip832)" style="stroke:#000000; stroke-width:2; stroke-opacity:0.1; fill:none" points="
  812.125,1486.45 812.125,106.192 
  "/>
<polyline clip-path="url(#clip832)" style="stroke:#000000; stroke-width:2; stroke-opacity:0.1; fill:none" points="
  1123.21,1486.45 1123.21,106.192 
  "/>
<polyline clip-path="url(#clip832)" style="stroke:#000000; stroke-width:2; stroke-opacity:0.1; fill:none" points="
  1434.29,1486.45 1434.29,106.192 
  "/>
<polyline clip-path="url(#clip832)" style="stroke:#000000; stroke-width:2; stroke-opacity:0.1; fill:none" points="
  1745.37,1486.45 1745.37,106.192 
  "/>
<polyline clip-path="url(#clip832)" style="stroke:#000000; stroke-width:2; stroke-opacity:0.1; fill:none" points="
  2056.45,1486.45 2056.45,106.192 
  "/>
<polyline clip-path="url(#clip832)" style="stroke:#000000; stroke-width:2; stroke-opacity:0.1; fill:none" points="
  126.969,1445.28 2352.76,1445.28 
  "/>
<polyline clip-path="url(#clip832)" style="stroke:#000000; stroke-width:2; stroke-opacity:0.1; fill:none" points="
  126.969,1245.51 2352.76,1245.51 
  "/>
<polyline clip-path="url(#clip832)" style="stroke:#000000; stroke-width:2; stroke-opacity:0.1; fill:none" points="
  126.969,1045.74 2352.76,1045.74 
  "/>
<polyline clip-path="url(#clip832)" style="stroke:#000000; stroke-width:2; stroke-opacity:0.1; fill:none" points="
  126.969,845.974 2352.76,845.974 
  "/>
<polyline clip-path="url(#clip832)" style="stroke:#000000; stroke-width:2; stroke-opacity:0.1; fill:none" points="
  126.969,646.207 2352.76,646.207 
  "/>
<polyline clip-path="url(#clip832)" style="stroke:#000000; stroke-width:2; stroke-opacity:0.1; fill:none" points="
  126.969,446.439 2352.76,446.439 
  "/>
<polyline clip-path="url(#clip832)" style="stroke:#000000; stroke-width:2; stroke-opacity:0.1; fill:none" points="
  126.969,246.672 2352.76,246.672 
  "/>
<polyline clip-path="url(#clip830)" style="stroke:#000000; stroke-width:4; stroke-opacity:1; fill:none" points="
  126.969,1486.45 2352.76,1486.45 
  "/>
<polyline clip-path="url(#clip830)" style="stroke:#000000; stroke-width:4; stroke-opacity:1; fill:none" points="
  126.969,1486.45 126.969,106.192 
  "/>
<polyline clip-path="url(#clip830)" style="stroke:#000000; stroke-width:4; stroke-opacity:1; fill:none" points="
  189.963,1486.45 189.963,1469.88 
  "/>
<polyline clip-path="url(#clip830)" style="stroke:#000000; stroke-width:4; stroke-opacity:1; fill:none" points="
  501.044,1486.45 501.044,1469.88 
  "/>
<polyline clip-path="url(#clip830)" style="stroke:#000000; stroke-width:4; stroke-opacity:1; fill:none" points="
  812.125,1486.45 812.125,1469.88 
  "/>
<polyline clip-path="url(#clip830)" style="stroke:#000000; stroke-width:4; stroke-opacity:1; fill:none" points="
  1123.21,1486.45 1123.21,1469.88 
  "/>
<polyline clip-path="url(#clip830)" style="stroke:#000000; stroke-width:4; stroke-opacity:1; fill:none" points="
  1434.29,1486.45 1434.29,1469.88 
  "/>
<polyline clip-path="url(#clip830)" style="stroke:#000000; stroke-width:4; stroke-opacity:1; fill:none" points="
  1745.37,1486.45 1745.37,1469.88 
  "/>
<polyline clip-path="url(#clip830)" style="stroke:#000000; stroke-width:4; stroke-opacity:1; fill:none" points="
  2056.45,1486.45 2056.45,1469.88 
  "/>
<polyline clip-path="url(#clip830)" style="stroke:#000000; stroke-width:4; stroke-opacity:1; fill:none" points="
  126.969,1445.28 153.678,1445.28 
  "/>
<polyline clip-path="url(#clip830)" style="stroke:#000000; stroke-width:4; stroke-opacity:1; fill:none" points="
  126.969,1245.51 153.678,1245.51 
  "/>
<polyline clip-path="url(#clip830)" style="stroke:#000000; stroke-width:4; stroke-opacity:1; fill:none" points="
  126.969,1045.74 153.678,1045.74 
  "/>
<polyline clip-path="url(#clip830)" style="stroke:#000000; stroke-width:4; stroke-opacity:1; fill:none" points="
  126.969,845.974 153.678,845.974 
  "/>
<polyline clip-path="url(#clip830)" style="stroke:#000000; stroke-width:4; stroke-opacity:1; fill:none" points="
  126.969,646.207 153.678,646.207 
  "/>
<polyline clip-path="url(#clip830)" style="stroke:#000000; stroke-width:4; stroke-opacity:1; fill:none" points="
  126.969,446.439 153.678,446.439 
  "/>
<polyline clip-path="url(#clip830)" style="stroke:#000000; stroke-width:4; stroke-opacity:1; fill:none" points="
  126.969,246.672 153.678,246.672 
  "/>
<path clip-path="url(#clip830)" d="M 0 0 M109.547 1535.98 L117.185 1535.98 L117.185 1509.62 L108.875 1511.29 L108.875 1507.03 L117.139 1505.36 L121.815 1505.36 L121.815 1535.98 L129.454 1535.98 L129.454 1539.92 L109.547 1539.92 L109.547 1535.98 Z" fill="#000000" fill-rule="evenodd" fill-opacity="1" /><path clip-path="url(#clip830)" d="M 0 0 M134.662 1539.2 L134.662 1534.94 Q136.421 1535.78 138.227 1536.22 Q140.032 1536.66 141.769 1536.66 Q146.398 1536.66 148.829 1533.55 Q151.282 1530.43 151.63 1524.09 Q150.287 1526.08 148.227 1527.14 Q146.167 1528.21 143.667 1528.21 Q138.482 1528.21 135.449 1525.08 Q132.44 1521.93 132.44 1516.49 Q132.44 1511.17 135.588 1507.95 Q138.736 1504.73 143.968 1504.73 Q149.963 1504.73 153.111 1509.34 Q156.282 1513.92 156.282 1522.67 Q156.282 1530.85 152.393 1535.73 Q148.528 1540.59 141.977 1540.59 Q140.218 1540.59 138.412 1540.24 Q136.607 1539.9 134.662 1539.2 M143.968 1524.55 Q147.116 1524.55 148.944 1522.4 Q150.796 1520.24 150.796 1516.49 Q150.796 1512.77 148.944 1510.61 Q147.116 1508.44 143.968 1508.44 Q140.819 1508.44 138.968 1510.61 Q137.139 1512.77 137.139 1516.49 Q137.139 1520.24 138.968 1522.4 Q140.819 1524.55 143.968 1524.55 Z" fill="#000000" fill-rule="evenodd" fill-opacity="1" /><path clip-path="url(#clip830)" d="M 0 0 M161.491 1539.2 L161.491 1534.94 Q163.25 1535.78 165.055 1536.22 Q166.861 1536.66 168.597 1536.66 Q173.227 1536.66 175.657 1533.55 Q178.111 1530.43 178.458 1524.09 Q177.116 1526.08 175.055 1527.14 Q172.995 1528.21 170.495 1528.21 Q165.31 1528.21 162.278 1525.08 Q159.268 1521.93 159.268 1516.49 Q159.268 1511.17 162.417 1507.95 Q165.565 1504.73 170.796 1504.73 Q176.792 1504.73 179.94 1509.34 Q183.111 1513.92 183.111 1522.67 Q183.111 1530.85 179.222 1535.73 Q175.356 1540.59 168.805 1540.59 Q167.046 1540.59 165.241 1540.24 Q163.435 1539.9 161.491 1539.2 M170.796 1524.55 Q173.944 1524.55 175.773 1522.4 Q177.625 1520.24 177.625 1516.49 Q177.625 1512.77 175.773 1510.61 Q173.944 1508.44 170.796 1508.44 Q167.648 1508.44 165.796 1510.61 Q163.968 1512.77 163.968 1516.49 Q163.968 1520.24 165.796 1522.4 Q167.648 1524.55 170.796 1524.55 Z" fill="#000000" fill-rule="evenodd" fill-opacity="1" /><path clip-path="url(#clip830)" d="M 0 0 M198.18 1523.51 Q194.847 1523.51 192.926 1525.29 Q191.028 1527.07 191.028 1530.2 Q191.028 1533.32 192.926 1535.11 Q194.847 1536.89 198.18 1536.89 Q201.514 1536.89 203.435 1535.11 Q205.356 1533.3 205.356 1530.2 Q205.356 1527.07 203.435 1525.29 Q201.537 1523.51 198.18 1523.51 M193.504 1521.52 Q190.495 1520.78 188.805 1518.72 Q187.139 1516.66 187.139 1513.69 Q187.139 1509.55 190.078 1507.14 Q193.041 1504.73 198.18 1504.73 Q203.342 1504.73 206.282 1507.14 Q209.222 1509.55 209.222 1513.69 Q209.222 1516.66 207.532 1518.72 Q205.865 1520.78 202.879 1521.52 Q206.259 1522.3 208.134 1524.6 Q210.032 1526.89 210.032 1530.2 Q210.032 1535.22 206.953 1537.91 Q203.898 1540.59 198.18 1540.59 Q192.463 1540.59 189.384 1537.91 Q186.328 1535.22 186.328 1530.2 Q186.328 1526.89 188.227 1524.6 Q190.125 1522.3 193.504 1521.52 M191.791 1514.13 Q191.791 1516.82 193.458 1518.32 Q195.148 1519.83 198.18 1519.83 Q201.19 1519.83 202.879 1518.32 Q204.592 1516.82 204.592 1514.13 Q204.592 1511.45 202.879 1509.94 Q201.19 1508.44 198.18 1508.44 Q195.148 1508.44 193.458 1509.94 Q191.791 1511.45 191.791 1514.13 Z" fill="#000000" fill-rule="evenodd" fill-opacity="1" /><path clip-path="url(#clip830)" d="M 0 0 M228.713 1508.53 Q223.62 1508.53 220.611 1512.33 Q217.625 1516.12 217.625 1522.67 Q217.625 1529.2 220.611 1533 Q223.62 1536.79 228.713 1536.79 Q233.805 1536.79 236.768 1533 Q239.754 1529.2 239.754 1522.67 Q239.754 1516.12 236.768 1512.33 Q233.805 1508.53 228.713 1508.53 M235.263 1539.29 L241.421 1546.03 L235.773 1546.03 L230.657 1540.5 Q229.893 1540.54 229.476 1540.57 Q229.083 1540.59 228.713 1540.59 Q221.421 1540.59 217.046 1535.73 Q212.694 1530.85 212.694 1522.67 Q212.694 1514.48 217.046 1509.62 Q221.421 1504.73 228.713 1504.73 Q235.981 1504.73 240.333 1509.62 Q244.685 1514.48 244.685 1522.67 Q244.685 1528.69 242.254 1532.98 Q239.847 1537.26 235.263 1539.29 Z" fill="#000000" fill-rule="evenodd" fill-opacity="1" /><path clip-path="url(#clip830)" d="M 0 0 M263.921 1521.29 Q267.277 1522 269.152 1524.27 Q271.05 1526.54 271.05 1529.87 Q271.05 1534.99 267.532 1537.79 Q264.013 1540.59 257.532 1540.59 Q255.356 1540.59 253.041 1540.15 Q250.749 1539.73 248.296 1538.88 L248.296 1534.36 Q250.24 1535.5 252.555 1536.08 Q254.87 1536.66 257.393 1536.66 Q261.791 1536.66 264.083 1534.92 Q266.398 1533.18 266.398 1529.87 Q266.398 1526.82 264.245 1525.11 Q262.115 1523.37 258.296 1523.37 L254.268 1523.37 L254.268 1519.53 L258.481 1519.53 Q261.93 1519.53 263.759 1518.16 Q265.587 1516.77 265.587 1514.18 Q265.587 1511.52 263.689 1510.11 Q261.814 1508.67 258.296 1508.67 Q256.374 1508.67 254.175 1509.09 Q251.976 1509.5 249.337 1510.38 L249.337 1506.22 Q251.999 1505.48 254.314 1505.11 Q256.652 1504.73 258.712 1504.73 Q264.036 1504.73 267.138 1507.17 Q270.24 1509.57 270.24 1513.69 Q270.24 1516.56 268.597 1518.55 Q266.953 1520.52 263.921 1521.29 Z" fill="#000000" fill-rule="evenodd" fill-opacity="1" /><path clip-path="url(#clip830)" d="M 0 0 M425.281 1535.98 L441.6 1535.98 L441.6 1539.92 L419.656 1539.92 L419.656 1535.98 Q422.318 1533.23 426.901 1528.6 Q431.507 1523.95 432.688 1522.61 Q434.933 1520.08 435.813 1518.35 Q436.716 1516.59 436.716 1514.9 Q436.716 1512.14 434.771 1510.41 Q432.85 1508.67 429.748 1508.67 Q427.549 1508.67 425.095 1509.43 Q422.665 1510.2 419.887 1511.75 L419.887 1507.03 Q422.711 1505.89 425.165 1505.31 Q427.619 1504.73 429.656 1504.73 Q435.026 1504.73 438.22 1507.42 Q441.415 1510.11 441.415 1514.6 Q441.415 1516.73 440.605 1518.65 Q439.818 1520.54 437.711 1523.14 Q437.132 1523.81 434.031 1527.03 Q430.929 1530.22 425.281 1535.98 Z" fill="#000000" fill-rule="evenodd" fill-opacity="1" /><path clip-path="url(#clip830)" d="M 0 0 M456.669 1508.44 Q453.058 1508.44 451.23 1512 Q449.424 1515.55 449.424 1522.67 Q449.424 1529.78 451.23 1533.35 Q453.058 1536.89 456.669 1536.89 Q460.304 1536.89 462.109 1533.35 Q463.938 1529.78 463.938 1522.67 Q463.938 1515.55 462.109 1512 Q460.304 1508.44 456.669 1508.44 M456.669 1504.73 Q462.479 1504.73 465.535 1509.34 Q468.614 1513.92 468.614 1522.67 Q468.614 1531.4 465.535 1536.01 Q462.479 1540.59 456.669 1540.59 Q450.859 1540.59 447.78 1536.01 Q444.725 1531.4 444.725 1522.67 Q444.725 1513.92 447.78 1509.34 Q450.859 1504.73 456.669 1504.73 Z" fill="#000000" fill-rule="evenodd" fill-opacity="1" /><path clip-path="url(#clip830)" d="M 0 0 M483.683 1508.44 Q480.072 1508.44 478.243 1512 Q476.438 1515.55 476.438 1522.67 Q476.438 1529.78 478.243 1533.35 Q480.072 1536.89 483.683 1536.89 Q487.317 1536.89 489.123 1533.35 Q490.952 1529.78 490.952 1522.67 Q490.952 1515.55 489.123 1512 Q487.317 1508.44 483.683 1508.44 M483.683 1504.73 Q489.493 1504.73 492.549 1509.34 Q495.627 1513.92 495.627 1522.67 Q495.627 1531.4 492.549 1536.01 Q489.493 1540.59 483.683 1540.59 Q477.873 1540.59 474.794 1536.01 Q471.739 1531.4 471.739 1522.67 Q471.739 1513.92 474.794 1509.34 Q477.873 1504.73 483.683 1504.73 Z" fill="#000000" fill-rule="evenodd" fill-opacity="1" /><path clip-path="url(#clip830)" d="M 0 0 M501.507 1535.98 L509.146 1535.98 L509.146 1509.62 L500.836 1511.29 L500.836 1507.03 L509.1 1505.36 L513.776 1505.36 L513.776 1535.98 L521.414 1535.98 L521.414 1539.92 L501.507 1539.92 L501.507 1535.98 Z" fill="#000000" fill-rule="evenodd" fill-opacity="1" /><path clip-path="url(#clip830)" d="M 0 0 M540.095 1508.53 Q535.002 1508.53 531.993 1512.33 Q529.007 1516.12 529.007 1522.67 Q529.007 1529.2 531.993 1533 Q535.002 1536.79 540.095 1536.79 Q545.187 1536.79 548.15 1533 Q551.136 1529.2 551.136 1522.67 Q551.136 1516.12 548.15 1512.33 Q545.187 1508.53 540.095 1508.53 M546.646 1539.29 L552.803 1546.03 L547.155 1546.03 L542.039 1540.5 Q541.275 1540.54 540.859 1540.57 Q540.465 1540.59 540.095 1540.59 Q532.803 1540.59 528.428 1535.73 Q524.076 1530.85 524.076 1522.67 Q524.076 1514.48 528.428 1509.62 Q532.803 1504.73 540.095 1504.73 Q547.363 1504.73 551.715 1509.62 Q556.067 1514.48 556.067 1522.67 Q556.067 1528.69 553.636 1532.98 Q551.229 1537.26 546.646 1539.29 Z" fill="#000000" fill-rule="evenodd" fill-opacity="1" /><path clip-path="url(#clip830)" d="M 0 0 M575.303 1521.29 Q578.659 1522 580.534 1524.27 Q582.433 1526.54 582.433 1529.87 Q582.433 1534.99 578.914 1537.79 Q575.396 1540.59 568.914 1540.59 Q566.738 1540.59 564.423 1540.15 Q562.132 1539.73 559.678 1538.88 L559.678 1534.36 Q561.622 1535.5 563.937 1536.08 Q566.252 1536.66 568.775 1536.66 Q573.173 1536.66 575.465 1534.92 Q577.78 1533.18 577.78 1529.87 Q577.78 1526.82 575.627 1525.11 Q573.497 1523.37 569.678 1523.37 L565.65 1523.37 L565.65 1519.53 L569.863 1519.53 Q573.312 1519.53 575.141 1518.16 Q576.97 1516.77 576.97 1514.18 Q576.97 1511.52 575.071 1510.11 Q573.196 1508.67 569.678 1508.67 Q567.757 1508.67 565.558 1509.09 Q563.359 1509.5 560.72 1510.38 L560.72 1506.22 Q563.382 1505.48 565.697 1505.11 Q568.034 1504.73 570.095 1504.73 Q575.419 1504.73 578.521 1507.17 Q581.622 1509.57 581.622 1513.69 Q581.622 1516.56 579.979 1518.55 Q578.335 1520.52 575.303 1521.29 Z" fill="#000000" fill-rule="evenodd" fill-opacity="1" /><path clip-path="url(#clip830)" d="M 0 0 M735.506 1535.98 L751.825 1535.98 L751.825 1539.92 L729.881 1539.92 L729.881 1535.98 Q732.543 1533.23 737.126 1528.6 Q741.732 1523.95 742.913 1522.61 Q745.158 1520.08 746.038 1518.35 Q746.941 1516.59 746.941 1514.9 Q746.941 1512.14 744.996 1510.41 Q743.075 1508.67 739.973 1508.67 Q737.774 1508.67 735.32 1509.43 Q732.89 1510.2 730.112 1511.75 L730.112 1507.03 Q732.936 1505.89 735.39 1505.31 Q737.843 1504.73 739.88 1504.73 Q745.251 1504.73 748.445 1507.42 Q751.64 1510.11 751.64 1514.6 Q751.64 1516.73 750.829 1518.65 Q750.042 1520.54 747.936 1523.14 Q747.357 1523.81 744.255 1527.03 Q741.154 1530.22 735.506 1535.98 Z" fill="#000000" fill-rule="evenodd" fill-opacity="1" /><path clip-path="url(#clip830)" d="M 0 0 M766.894 1508.44 Q763.283 1508.44 761.454 1512 Q759.649 1515.55 759.649 1522.67 Q759.649 1529.78 761.454 1533.35 Q763.283 1536.89 766.894 1536.89 Q770.528 1536.89 772.334 1533.35 Q774.163 1529.78 774.163 1522.67 Q774.163 1515.55 772.334 1512 Q770.528 1508.44 766.894 1508.44 M766.894 1504.73 Q772.704 1504.73 775.76 1509.34 Q778.839 1513.92 778.839 1522.67 Q778.839 1531.4 775.76 1536.01 Q772.704 1540.59 766.894 1540.59 Q761.084 1540.59 758.005 1536.01 Q754.95 1531.4 754.95 1522.67 Q754.95 1513.92 758.005 1509.34 Q761.084 1504.73 766.894 1504.73 Z" fill="#000000" fill-rule="evenodd" fill-opacity="1" /><path clip-path="url(#clip830)" d="M 0 0 M793.908 1508.44 Q790.297 1508.44 788.468 1512 Q786.663 1515.55 786.663 1522.67 Q786.663 1529.78 788.468 1533.35 Q790.297 1536.89 793.908 1536.89 Q797.542 1536.89 799.348 1533.35 Q801.176 1529.78 801.176 1522.67 Q801.176 1515.55 799.348 1512 Q797.542 1508.44 793.908 1508.44 M793.908 1504.73 Q799.718 1504.73 802.774 1509.34 Q805.852 1513.92 805.852 1522.67 Q805.852 1531.4 802.774 1536.01 Q799.718 1540.59 793.908 1540.59 Q788.098 1540.59 785.019 1536.01 Q781.964 1531.4 781.964 1522.67 Q781.964 1513.92 785.019 1509.34 Q788.098 1504.73 793.908 1504.73 Z" fill="#000000" fill-rule="evenodd" fill-opacity="1" /><path clip-path="url(#clip830)" d="M 0 0 M823.769 1509.43 L811.963 1527.88 L823.769 1527.88 L823.769 1509.43 M822.542 1505.36 L828.422 1505.36 L828.422 1527.88 L833.352 1527.88 L833.352 1531.77 L828.422 1531.77 L828.422 1539.92 L823.769 1539.92 L823.769 1531.77 L808.167 1531.77 L808.167 1527.26 L822.542 1505.36 Z" fill="#000000" fill-rule="evenodd" fill-opacity="1" /><path clip-path="url(#clip830)" d="M 0 0 M852.033 1508.53 Q846.94 1508.53 843.931 1512.33 Q840.945 1516.12 840.945 1522.67 Q840.945 1529.2 843.931 1533 Q846.94 1536.79 852.033 1536.79 Q857.125 1536.79 860.088 1533 Q863.074 1529.2 863.074 1522.67 Q863.074 1516.12 860.088 1512.33 Q857.125 1508.53 852.033 1508.53 M858.584 1539.29 L864.741 1546.03 L859.093 1546.03 L853.977 1540.5 Q853.213 1540.54 852.797 1540.57 Q852.403 1540.59 852.033 1540.59 Q844.741 1540.59 840.366 1535.73 Q836.014 1530.85 836.014 1522.67 Q836.014 1514.48 840.366 1509.62 Q844.741 1504.73 852.033 1504.73 Q859.301 1504.73 863.653 1509.62 Q868.005 1514.48 868.005 1522.67 Q868.005 1528.69 865.574 1532.98 Q863.167 1537.26 858.584 1539.29 Z" fill="#000000" fill-rule="evenodd" fill-opacity="1" /><path clip-path="url(#clip830)" d="M 0 0 M887.241 1521.29 Q890.597 1522 892.472 1524.27 Q894.37 1526.54 894.37 1529.87 Q894.37 1534.99 890.852 1537.79 Q887.333 1540.59 880.852 1540.59 Q878.676 1540.59 876.361 1540.15 Q874.07 1539.73 871.616 1538.88 L871.616 1534.36 Q873.56 1535.5 875.875 1536.08 Q878.19 1536.66 880.713 1536.66 Q885.111 1536.66 887.403 1534.92 Q889.718 1533.18 889.718 1529.87 Q889.718 1526.82 887.565 1525.11 Q885.435 1523.37 881.616 1523.37 L877.588 1523.37 L877.588 1519.53 L881.801 1519.53 Q885.25 1519.53 887.079 1518.16 Q888.907 1516.77 888.907 1514.18 Q888.907 1511.52 887.009 1510.11 Q885.134 1508.67 881.616 1508.67 Q879.695 1508.67 877.495 1509.09 Q875.296 1509.5 872.658 1510.38 L872.658 1506.22 Q875.32 1505.48 877.634 1505.11 Q879.972 1504.73 882.032 1504.73 Q887.357 1504.73 890.458 1507.17 Q893.56 1509.57 893.56 1513.69 Q893.56 1516.56 891.917 1518.55 Q890.273 1520.52 887.241 1521.29 Z" fill="#000000" fill-rule="evenodd" fill-opacity="1" /><path clip-path="url(#clip830)" d="M 0 0 M1047.28 1535.98 L1063.6 1535.98 L1063.6 1539.92 L1041.66 1539.92 L1041.66 1535.98 Q1044.32 1533.23 1048.9 1528.6 Q1053.51 1523.95 1054.69 1522.61 Q1056.93 1520.08 1057.81 1518.35 Q1058.72 1516.59 1058.72 1514.9 Q1058.72 1512.14 1056.77 1510.41 Q1054.85 1508.67 1051.75 1508.67 Q1049.55 1508.67 1047.1 1509.43 Q1044.67 1510.2 1041.89 1511.75 L1041.89 1507.03 Q1044.71 1505.89 1047.17 1505.31 Q1049.62 1504.73 1051.66 1504.73 Q1057.03 1504.73 1060.22 1507.42 Q1063.42 1510.11 1063.42 1514.6 Q1063.42 1516.73 1062.61 1518.65 Q1061.82 1520.54 1059.71 1523.14 Q1059.13 1523.81 1056.03 1527.03 Q1052.93 1530.22 1047.28 1535.98 Z" fill="#000000" fill-rule="evenodd" fill-opacity="1" /><path clip-path="url(#clip830)" d="M 0 0 M1078.67 1508.44 Q1075.06 1508.44 1073.23 1512 Q1071.42 1515.55 1071.42 1522.67 Q1071.42 1529.78 1073.23 1533.35 Q1075.06 1536.89 1078.67 1536.89 Q1082.3 1536.89 1084.11 1533.35 Q1085.94 1529.78 1085.94 1522.67 Q1085.94 1515.55 1084.11 1512 Q1082.3 1508.44 1078.67 1508.44 M1078.67 1504.73 Q1084.48 1504.73 1087.54 1509.34 Q1090.61 1513.92 1090.61 1522.67 Q1090.61 1531.4 1087.54 1536.01 Q1084.48 1540.59 1078.67 1540.59 Q1072.86 1540.59 1069.78 1536.01 Q1066.73 1531.4 1066.73 1522.67 Q1066.73 1513.92 1069.78 1509.34 Q1072.86 1504.73 1078.67 1504.73 Z" fill="#000000" fill-rule="evenodd" fill-opacity="1" /><path clip-path="url(#clip830)" d="M 0 0 M1105.68 1508.44 Q1102.07 1508.44 1100.24 1512 Q1098.44 1515.55 1098.44 1522.67 Q1098.44 1529.78 1100.24 1533.35 Q1102.07 1536.89 1105.68 1536.89 Q1109.32 1536.89 1111.12 1533.35 Q1112.95 1529.78 1112.95 1522.67 Q1112.95 1515.55 1111.12 1512 Q1109.32 1508.44 1105.68 1508.44 M1105.68 1504.73 Q1111.49 1504.73 1114.55 1509.34 Q1117.63 1513.92 1117.63 1522.67 Q1117.63 1531.4 1114.55 1536.01 Q1111.49 1540.59 1105.68 1540.59 Q1099.87 1540.59 1096.79 1536.01 Q1093.74 1531.4 1093.74 1522.67 Q1093.74 1513.92 1096.79 1509.34 Q1099.87 1504.73 1105.68 1504.73 Z" fill="#000000" fill-rule="evenodd" fill-opacity="1" /><path clip-path="url(#clip830)" d="M 0 0 M1121.52 1505.36 L1143.74 1505.36 L1143.74 1507.35 L1131.19 1539.92 L1126.31 1539.92 L1138.11 1509.3 L1121.52 1509.3 L1121.52 1505.36 Z" fill="#000000" fill-rule="evenodd" fill-opacity="1" /><path clip-path="url(#clip830)" d="M 0 0 M1162.42 1508.53 Q1157.33 1508.53 1154.32 1512.33 Q1151.33 1516.12 1151.33 1522.67 Q1151.33 1529.2 1154.32 1533 Q1157.33 1536.79 1162.42 1536.79 Q1167.51 1536.79 1170.48 1533 Q1173.46 1529.2 1173.46 1522.67 Q1173.46 1516.12 1170.48 1512.33 Q1167.51 1508.53 1162.42 1508.53 M1168.97 1539.29 L1175.13 1546.03 L1169.48 1546.03 L1164.36 1540.5 Q1163.6 1540.54 1163.18 1540.57 Q1162.79 1540.59 1162.42 1540.59 Q1155.13 1540.59 1150.75 1535.73 Q1146.4 1530.85 1146.4 1522.67 Q1146.4 1514.48 1150.75 1509.62 Q1155.13 1504.73 1162.42 1504.73 Q1169.69 1504.73 1174.04 1509.62 Q1178.39 1514.48 1178.39 1522.67 Q1178.39 1528.69 1175.96 1532.98 Q1173.55 1537.26 1168.97 1539.29 Z" fill="#000000" fill-rule="evenodd" fill-opacity="1" /><path clip-path="url(#clip830)" d="M 0 0 M1197.63 1521.29 Q1200.98 1522 1202.86 1524.27 Q1204.76 1526.54 1204.76 1529.87 Q1204.76 1534.99 1201.24 1537.79 Q1197.72 1540.59 1191.24 1540.59 Q1189.06 1540.59 1186.75 1540.15 Q1184.46 1539.73 1182 1538.88 L1182 1534.36 Q1183.95 1535.5 1186.26 1536.08 Q1188.58 1536.66 1191.1 1536.66 Q1195.5 1536.66 1197.79 1534.92 Q1200.1 1533.18 1200.1 1529.87 Q1200.1 1526.82 1197.95 1525.11 Q1195.82 1523.37 1192 1523.37 L1187.97 1523.37 L1187.97 1519.53 L1192.19 1519.53 Q1195.64 1519.53 1197.47 1518.16 Q1199.29 1516.77 1199.29 1514.18 Q1199.29 1511.52 1197.4 1510.11 Q1195.52 1508.67 1192 1508.67 Q1190.08 1508.67 1187.88 1509.09 Q1185.68 1509.5 1183.04 1510.38 L1183.04 1506.22 Q1185.71 1505.48 1188.02 1505.11 Q1190.36 1504.73 1192.42 1504.73 Q1197.74 1504.73 1200.85 1507.17 Q1203.95 1509.57 1203.95 1513.69 Q1203.95 1516.56 1202.3 1518.55 Q1200.66 1520.52 1197.63 1521.29 Z" fill="#000000" fill-rule="evenodd" fill-opacity="1" /><path clip-path="url(#clip830)" d="M 0 0 M1358.52 1535.98 L1374.84 1535.98 L1374.84 1539.92 L1352.9 1539.92 L1352.9 1535.98 Q1355.56 1533.23 1360.15 1528.6 Q1364.75 1523.95 1365.93 1522.61 Q1368.18 1520.08 1369.06 1518.35 Q1369.96 1516.59 1369.96 1514.9 Q1369.96 1512.14 1368.02 1510.41 Q1366.09 1508.67 1362.99 1508.67 Q1360.79 1508.67 1358.34 1509.43 Q1355.91 1510.2 1353.13 1511.75 L1353.13 1507.03 Q1355.96 1505.89 1358.41 1505.31 Q1360.86 1504.73 1362.9 1504.73 Q1368.27 1504.73 1371.46 1507.42 Q1374.66 1510.11 1374.66 1514.6 Q1374.66 1516.73 1373.85 1518.65 Q1373.06 1520.54 1370.96 1523.14 Q1370.38 1523.81 1367.27 1527.03 Q1364.17 1530.22 1358.52 1535.98 Z" fill="#000000" fill-rule="evenodd" fill-opacity="1" /><path clip-path="url(#clip830)" d="M 0 0 M1389.91 1508.44 Q1386.3 1508.44 1384.47 1512 Q1382.67 1515.55 1382.67 1522.67 Q1382.67 1529.78 1384.47 1533.35 Q1386.3 1536.89 1389.91 1536.89 Q1393.55 1536.89 1395.35 1533.35 Q1397.18 1529.78 1397.18 1522.67 Q1397.18 1515.55 1395.35 1512 Q1393.55 1508.44 1389.91 1508.44 M1389.91 1504.73 Q1395.72 1504.73 1398.78 1509.34 Q1401.86 1513.92 1401.86 1522.67 Q1401.86 1531.4 1398.78 1536.01 Q1395.72 1540.59 1389.91 1540.59 Q1384.1 1540.59 1381.02 1536.01 Q1377.97 1531.4 1377.97 1522.67 Q1377.97 1513.92 1381.02 1509.34 Q1384.1 1504.73 1389.91 1504.73 Z" fill="#000000" fill-rule="evenodd" fill-opacity="1" /><path clip-path="url(#clip830)" d="M 0 0 M1407.74 1535.98 L1415.38 1535.98 L1415.38 1509.62 L1407.07 1511.29 L1407.07 1507.03 L1415.33 1505.36 L1420.01 1505.36 L1420.01 1535.98 L1427.64 1535.98 L1427.64 1539.92 L1407.74 1539.92 L1407.74 1535.98 Z" fill="#000000" fill-rule="evenodd" fill-opacity="1" /><path clip-path="url(#clip830)" d="M 0 0 M1442.71 1508.44 Q1439.1 1508.44 1437.27 1512 Q1435.47 1515.55 1435.47 1522.67 Q1435.47 1529.78 1437.27 1533.35 Q1439.1 1536.89 1442.71 1536.89 Q1446.35 1536.89 1448.15 1533.35 Q1449.98 1529.78 1449.98 1522.67 Q1449.98 1515.55 1448.15 1512 Q1446.35 1508.44 1442.71 1508.44 M1442.71 1504.73 Q1448.52 1504.73 1451.58 1509.34 Q1454.66 1513.92 1454.66 1522.67 Q1454.66 1531.4 1451.58 1536.01 Q1448.52 1540.59 1442.71 1540.59 Q1436.9 1540.59 1433.83 1536.01 Q1430.77 1531.4 1430.77 1522.67 Q1430.77 1513.92 1433.83 1509.34 Q1436.9 1504.73 1442.71 1504.73 Z" fill="#000000" fill-rule="evenodd" fill-opacity="1" /><path clip-path="url(#clip830)" d="M 0 0 M1473.34 1508.53 Q1468.25 1508.53 1465.24 1512.33 Q1462.25 1516.12 1462.25 1522.67 Q1462.25 1529.2 1465.24 1533 Q1468.25 1536.79 1473.34 1536.79 Q1478.43 1536.79 1481.39 1533 Q1484.38 1529.2 1484.38 1522.67 Q1484.38 1516.12 1481.39 1512.33 Q1478.43 1508.53 1473.34 1508.53 M1479.89 1539.29 L1486.05 1546.03 L1480.4 1546.03 L1475.28 1540.5 Q1474.52 1540.54 1474.1 1540.57 Q1473.71 1540.59 1473.34 1540.59 Q1466.05 1540.59 1461.67 1535.73 Q1457.32 1530.85 1457.32 1522.67 Q1457.32 1514.48 1461.67 1509.62 Q1466.05 1504.73 1473.34 1504.73 Q1480.61 1504.73 1484.96 1509.62 Q1489.31 1514.48 1489.31 1522.67 Q1489.31 1528.69 1486.88 1532.98 Q1484.47 1537.26 1479.89 1539.29 Z" fill="#000000" fill-rule="evenodd" fill-opacity="1" /><path clip-path="url(#clip830)" d="M 0 0 M1508.55 1521.29 Q1511.9 1522 1513.78 1524.27 Q1515.68 1526.54 1515.68 1529.87 Q1515.68 1534.99 1512.16 1537.79 Q1508.64 1540.59 1502.16 1540.59 Q1499.98 1540.59 1497.67 1540.15 Q1495.38 1539.73 1492.92 1538.88 L1492.92 1534.36 Q1494.87 1535.5 1497.18 1536.08 Q1499.5 1536.66 1502.02 1536.66 Q1506.42 1536.66 1508.71 1534.92 Q1511.02 1533.18 1511.02 1529.87 Q1511.02 1526.82 1508.87 1525.11 Q1506.74 1523.37 1502.92 1523.37 L1498.89 1523.37 L1498.89 1519.53 L1503.11 1519.53 Q1506.56 1519.53 1508.39 1518.16 Q1510.21 1516.77 1510.21 1514.18 Q1510.21 1511.52 1508.32 1510.11 Q1506.44 1508.67 1502.92 1508.67 Q1501 1508.67 1498.8 1509.09 Q1496.6 1509.5 1493.96 1510.38 L1493.96 1506.22 Q1496.63 1505.48 1498.94 1505.11 Q1501.28 1504.73 1503.34 1504.73 Q1508.66 1504.73 1511.76 1507.17 Q1514.87 1509.57 1514.87 1513.69 Q1514.87 1516.56 1513.22 1518.55 Q1511.58 1520.52 1508.55 1521.29 Z" fill="#000000" fill-rule="evenodd" fill-opacity="1" /><path clip-path="url(#clip830)" d="M 0 0 M1669.93 1535.98 L1686.25 1535.98 L1686.25 1539.92 L1664.31 1539.92 L1664.31 1535.98 Q1666.97 1533.23 1671.55 1528.6 Q1676.16 1523.95 1677.34 1522.61 Q1679.58 1520.08 1680.46 1518.35 Q1681.37 1516.59 1681.37 1514.9 Q1681.37 1512.14 1679.42 1510.41 Q1677.5 1508.67 1674.4 1508.67 Q1672.2 1508.67 1669.74 1509.43 Q1667.31 1510.2 1664.54 1511.75 L1664.54 1507.03 Q1667.36 1505.89 1669.81 1505.31 Q1672.27 1504.73 1674.31 1504.73 Q1679.68 1504.73 1682.87 1507.42 Q1686.06 1510.11 1686.06 1514.6 Q1686.06 1516.73 1685.25 1518.65 Q1684.47 1520.54 1682.36 1523.14 Q1681.78 1523.81 1678.68 1527.03 Q1675.58 1530.22 1669.93 1535.98 Z" fill="#000000" fill-rule="evenodd" fill-opacity="1" /><path clip-path="url(#clip830)" d="M 0 0 M1701.32 1508.44 Q1697.71 1508.44 1695.88 1512 Q1694.07 1515.55 1694.07 1522.67 Q1694.07 1529.78 1695.88 1533.35 Q1697.71 1536.89 1701.32 1536.89 Q1704.95 1536.89 1706.76 1533.35 Q1708.59 1529.78 1708.59 1522.67 Q1708.59 1515.55 1706.76 1512 Q1704.95 1508.44 1701.32 1508.44 M1701.32 1504.73 Q1707.13 1504.73 1710.18 1509.34 Q1713.26 1513.92 1713.26 1522.67 Q1713.26 1531.4 1710.18 1536.01 Q1707.13 1540.59 1701.32 1540.59 Q1695.51 1540.59 1692.43 1536.01 Q1689.37 1531.4 1689.37 1522.67 Q1689.37 1513.92 1692.43 1509.34 Q1695.51 1504.73 1701.32 1504.73 Z" fill="#000000" fill-rule="evenodd" fill-opacity="1" /><path clip-path="url(#clip830)" d="M 0 0 M1719.14 1535.98 L1726.78 1535.98 L1726.78 1509.62 L1718.47 1511.29 L1718.47 1507.03 L1726.74 1505.36 L1731.41 1505.36 L1731.41 1535.98 L1739.05 1535.98 L1739.05 1539.92 L1719.14 1539.92 L1719.14 1535.98 Z" fill="#000000" fill-rule="evenodd" fill-opacity="1" /><path clip-path="url(#clip830)" d="M 0 0 M1758.29 1521.29 Q1761.64 1522 1763.52 1524.27 Q1765.42 1526.54 1765.42 1529.87 Q1765.42 1534.99 1761.9 1537.79 Q1758.38 1540.59 1751.9 1540.59 Q1749.72 1540.59 1747.41 1540.15 Q1745.11 1539.73 1742.66 1538.88 L1742.66 1534.36 Q1744.61 1535.5 1746.92 1536.08 Q1749.24 1536.66 1751.76 1536.66 Q1756.16 1536.66 1758.45 1534.92 Q1760.76 1533.18 1760.76 1529.87 Q1760.76 1526.82 1758.61 1525.11 Q1756.48 1523.37 1752.66 1523.37 L1748.63 1523.37 L1748.63 1519.53 L1752.85 1519.53 Q1756.3 1519.53 1758.12 1518.16 Q1759.95 1516.77 1759.95 1514.18 Q1759.95 1511.52 1758.05 1510.11 Q1756.18 1508.67 1752.66 1508.67 Q1750.74 1508.67 1748.54 1509.09 Q1746.34 1509.5 1743.7 1510.38 L1743.7 1506.22 Q1746.36 1505.48 1748.68 1505.11 Q1751.02 1504.73 1753.08 1504.73 Q1758.4 1504.73 1761.5 1507.17 Q1764.61 1509.57 1764.61 1513.69 Q1764.61 1516.56 1762.96 1518.55 Q1761.32 1520.52 1758.29 1521.29 Z" fill="#000000" fill-rule="evenodd" fill-opacity="1" /><path clip-path="url(#clip830)" d="M 0 0 M1784.1 1508.53 Q1779 1508.53 1775.99 1512.33 Q1773.01 1516.12 1773.01 1522.67 Q1773.01 1529.2 1775.99 1533 Q1779 1536.79 1784.1 1536.79 Q1789.19 1536.79 1792.15 1533 Q1795.14 1529.2 1795.14 1522.67 Q1795.14 1516.12 1792.15 1512.33 Q1789.19 1508.53 1784.1 1508.53 M1790.65 1539.29 L1796.8 1546.03 L1791.16 1546.03 L1786.04 1540.5 Q1785.28 1540.54 1784.86 1540.57 Q1784.47 1540.59 1784.1 1540.59 Q1776.8 1540.59 1772.43 1535.73 Q1768.08 1530.85 1768.08 1522.67 Q1768.08 1514.48 1772.43 1509.62 Q1776.8 1504.73 1784.1 1504.73 Q1791.36 1504.73 1795.72 1509.62 Q1800.07 1514.48 1800.07 1522.67 Q1800.07 1528.69 1797.64 1532.98 Q1795.23 1537.26 1790.65 1539.29 Z" fill="#000000" fill-rule="evenodd" fill-opacity="1" /><path clip-path="url(#clip830)" d="M 0 0 M1819.3 1521.29 Q1822.66 1522 1824.54 1524.27 Q1826.43 1526.54 1826.43 1529.87 Q1826.43 1534.99 1822.92 1537.79 Q1819.4 1540.59 1812.92 1540.59 Q1810.74 1540.59 1808.42 1540.15 Q1806.13 1539.73 1803.68 1538.88 L1803.68 1534.36 Q1805.62 1535.5 1807.94 1536.08 Q1810.25 1536.66 1812.78 1536.66 Q1817.17 1536.66 1819.47 1534.92 Q1821.78 1533.18 1821.78 1529.87 Q1821.78 1526.82 1819.63 1525.11 Q1817.5 1523.37 1813.68 1523.37 L1809.65 1523.37 L1809.65 1519.53 L1813.86 1519.53 Q1817.31 1519.53 1819.14 1518.16 Q1820.97 1516.77 1820.97 1514.18 Q1820.97 1511.52 1819.07 1510.11 Q1817.2 1508.67 1813.68 1508.67 Q1811.76 1508.67 1809.56 1509.09 Q1807.36 1509.5 1804.72 1510.38 L1804.72 1506.22 Q1807.38 1505.48 1809.7 1505.11 Q1812.04 1504.73 1814.1 1504.73 Q1819.42 1504.73 1822.52 1507.17 Q1825.62 1509.57 1825.62 1513.69 Q1825.62 1516.56 1823.98 1518.55 Q1822.34 1520.52 1819.3 1521.29 Z" fill="#000000" fill-rule="evenodd" fill-opacity="1" /><path clip-path="url(#clip830)" d="M 0 0 M1980.61 1535.98 L1996.93 1535.98 L1996.93 1539.92 L1974.98 1539.92 L1974.98 1535.98 Q1977.64 1533.23 1982.23 1528.6 Q1986.83 1523.95 1988.01 1522.61 Q1990.26 1520.08 1991.14 1518.35 Q1992.04 1516.59 1992.04 1514.9 Q1992.04 1512.14 1990.1 1510.41 Q1988.18 1508.67 1985.07 1508.67 Q1982.87 1508.67 1980.42 1509.43 Q1977.99 1510.2 1975.21 1511.75 L1975.21 1507.03 Q1978.04 1505.89 1980.49 1505.31 Q1982.94 1504.73 1984.98 1504.73 Q1990.35 1504.73 1993.55 1507.42 Q1996.74 1510.11 1996.74 1514.6 Q1996.74 1516.73 1995.93 1518.65 Q1995.14 1520.54 1993.04 1523.14 Q1992.46 1523.81 1989.36 1527.03 Q1986.25 1530.22 1980.61 1535.98 Z" fill="#000000" fill-rule="evenodd" fill-opacity="1" /><path clip-path="url(#clip830)" d="M 0 0 M2012 1508.44 Q2008.38 1508.44 2006.56 1512 Q2004.75 1515.55 2004.75 1522.67 Q2004.75 1529.78 2006.56 1533.35 Q2008.38 1536.89 2012 1536.89 Q2015.63 1536.89 2017.43 1533.35 Q2019.26 1529.78 2019.26 1522.67 Q2019.26 1515.55 2017.43 1512 Q2015.63 1508.44 2012 1508.44 M2012 1504.73 Q2017.81 1504.73 2020.86 1509.34 Q2023.94 1513.92 2023.94 1522.67 Q2023.94 1531.4 2020.86 1536.01 Q2017.81 1540.59 2012 1540.59 Q2006.18 1540.59 2003.11 1536.01 Q2000.05 1531.4 2000.05 1522.67 Q2000.05 1513.92 2003.11 1509.34 Q2006.18 1504.73 2012 1504.73 Z" fill="#000000" fill-rule="evenodd" fill-opacity="1" /><path clip-path="url(#clip830)" d="M 0 0 M2029.82 1535.98 L2037.46 1535.98 L2037.46 1509.62 L2029.15 1511.29 L2029.15 1507.03 L2037.41 1505.36 L2042.09 1505.36 L2042.09 1535.98 L2049.73 1535.98 L2049.73 1539.92 L2029.82 1539.92 L2029.82 1535.98 Z" fill="#000000" fill-rule="evenodd" fill-opacity="1" /><path clip-path="url(#clip830)" d="M 0 0 M2065.37 1520.78 Q2062.23 1520.78 2060.37 1522.93 Q2058.55 1525.08 2058.55 1528.83 Q2058.55 1532.56 2060.37 1534.73 Q2062.23 1536.89 2065.37 1536.89 Q2068.52 1536.89 2070.35 1534.73 Q2072.2 1532.56 2072.2 1528.83 Q2072.2 1525.08 2070.35 1522.93 Q2068.52 1520.78 2065.37 1520.78 M2074.66 1506.12 L2074.66 1510.38 Q2072.9 1509.55 2071.09 1509.11 Q2069.31 1508.67 2067.55 1508.67 Q2062.92 1508.67 2060.47 1511.8 Q2058.04 1514.92 2057.69 1521.24 Q2059.06 1519.23 2061.12 1518.16 Q2063.18 1517.07 2065.65 1517.07 Q2070.86 1517.07 2073.87 1520.24 Q2076.9 1523.39 2076.9 1528.83 Q2076.9 1534.16 2073.75 1537.37 Q2070.61 1540.59 2065.37 1540.59 Q2059.38 1540.59 2056.21 1536.01 Q2053.04 1531.4 2053.04 1522.67 Q2053.04 1514.48 2056.93 1509.62 Q2060.81 1504.73 2067.37 1504.73 Q2069.12 1504.73 2070.91 1505.08 Q2072.71 1505.43 2074.66 1506.12 Z" fill="#000000" fill-rule="evenodd" fill-opacity="1" /><path clip-path="url(#clip830)" d="M 0 0 M2095.58 1508.53 Q2090.49 1508.53 2087.48 1512.33 Q2084.49 1516.12 2084.49 1522.67 Q2084.49 1529.2 2087.48 1533 Q2090.49 1536.79 2095.58 1536.79 Q2100.68 1536.79 2103.64 1533 Q2106.62 1529.2 2106.62 1522.67 Q2106.62 1516.12 2103.64 1512.33 Q2100.68 1508.53 2095.58 1508.53 M2102.13 1539.29 L2108.29 1546.03 L2102.64 1546.03 L2097.53 1540.5 Q2096.76 1540.54 2096.35 1540.57 Q2095.95 1540.59 2095.58 1540.59 Q2088.29 1540.59 2083.92 1535.73 Q2079.56 1530.85 2079.56 1522.67 Q2079.56 1514.48 2083.92 1509.62 Q2088.29 1504.73 2095.58 1504.73 Q2102.85 1504.73 2107.2 1509.62 Q2111.55 1514.48 2111.55 1522.67 Q2111.55 1528.69 2109.12 1532.98 Q2106.72 1537.26 2102.13 1539.29 Z" fill="#000000" fill-rule="evenodd" fill-opacity="1" /><path clip-path="url(#clip830)" d="M 0 0 M2130.79 1521.29 Q2134.15 1522 2136.02 1524.27 Q2137.92 1526.54 2137.92 1529.87 Q2137.92 1534.99 2134.4 1537.79 Q2130.88 1540.59 2124.4 1540.59 Q2122.23 1540.59 2119.91 1540.15 Q2117.62 1539.73 2115.17 1538.88 L2115.17 1534.36 Q2117.11 1535.5 2119.43 1536.08 Q2121.74 1536.66 2124.26 1536.66 Q2128.66 1536.66 2130.95 1534.92 Q2133.27 1533.18 2133.27 1529.87 Q2133.27 1526.82 2131.11 1525.11 Q2128.99 1523.37 2125.17 1523.37 L2121.14 1523.37 L2121.14 1519.53 L2125.35 1519.53 Q2128.8 1519.53 2130.63 1518.16 Q2132.46 1516.77 2132.46 1514.18 Q2132.46 1511.52 2130.56 1510.11 Q2128.68 1508.67 2125.17 1508.67 Q2123.24 1508.67 2121.05 1509.09 Q2118.85 1509.5 2116.21 1510.38 L2116.21 1506.22 Q2118.87 1505.48 2121.18 1505.11 Q2123.52 1504.73 2125.58 1504.73 Q2130.91 1504.73 2134.01 1507.17 Q2137.11 1509.57 2137.11 1513.69 Q2137.11 1516.56 2135.47 1518.55 Q2133.82 1520.52 2130.79 1521.29 Z" fill="#000000" fill-rule="evenodd" fill-opacity="1" /><path clip-path="url(#clip830)" d="M 0 0 M62.9921 1447.67 L75.4689 1447.67 L75.4689 1451.47 L62.9921 1451.47 L62.9921 1447.67 Z" fill="#000000" fill-rule="evenodd" fill-opacity="1" /><path clip-path="url(#clip830)" d="M 0 0 M93.3855 1432.07 L81.58 1450.52 L93.3855 1450.52 L93.3855 1432.07 M92.1586 1428 L98.0382 1428 L98.0382 1450.52 L102.969 1450.52 L102.969 1454.41 L98.0382 1454.41 L98.0382 1462.56 L93.3855 1462.56 L93.3855 1454.41 L77.7837 1454.41 L77.7837 1449.89 L92.1586 1428 Z" fill="#000000" fill-rule="evenodd" fill-opacity="1" /><path clip-path="url(#clip830)" d="M 0 0 M64.1264 1247.9 L76.6032 1247.9 L76.6032 1251.7 L64.1264 1251.7 L64.1264 1247.9 Z" fill="#000000" fill-rule="evenodd" fill-opacity="1" /><path clip-path="url(#clip830)" d="M 0 0 M95.8392 1244.15 Q99.1956 1244.87 101.071 1247.14 Q102.969 1249.41 102.969 1252.74 Q102.969 1257.86 99.4503 1260.66 Q95.9318 1263.46 89.4503 1263.46 Q87.2744 1263.46 84.9596 1263.02 Q82.6679 1262.6 80.2143 1261.75 L80.2143 1257.23 Q82.1587 1258.37 84.4735 1258.95 Q86.7883 1259.52 89.3114 1259.52 Q93.7096 1259.52 96.0012 1257.79 Q98.316 1256.05 98.316 1252.74 Q98.316 1249.69 96.1632 1247.97 Q94.0336 1246.24 90.2142 1246.24 L86.1864 1246.24 L86.1864 1242.4 L90.3994 1242.4 Q93.8484 1242.4 95.6771 1241.03 Q97.5058 1239.64 97.5058 1237.05 Q97.5058 1234.39 95.6077 1232.97 Q93.7327 1231.54 90.2142 1231.54 Q88.2929 1231.54 86.0939 1231.96 Q83.8948 1232.37 81.2559 1233.25 L81.2559 1229.09 Q83.9179 1228.34 86.2327 1227.97 Q88.5707 1227.6 90.6309 1227.6 Q95.9549 1227.6 99.0567 1230.03 Q102.159 1232.44 102.159 1236.56 Q102.159 1239.43 100.515 1241.42 Q98.8716 1243.39 95.8392 1244.15 Z" fill="#000000" fill-rule="evenodd" fill-opacity="1" /><path clip-path="url(#clip830)" d="M 0 0 M65.0754 1048.14 L77.5522 1048.14 L77.5522 1051.93 L65.0754 1051.93 L65.0754 1048.14 Z" fill="#000000" fill-rule="evenodd" fill-opacity="1" /><path clip-path="url(#clip830)" d="M 0 0 M86.6494 1059.09 L102.969 1059.09 L102.969 1063.02 L81.0244 1063.02 L81.0244 1059.09 Q83.6865 1056.33 88.2698 1051.7 Q92.8762 1047.05 94.0568 1045.71 Q96.3021 1043.18 97.1818 1041.45 Q98.0845 1039.69 98.0845 1038 Q98.0845 1035.24 96.1401 1033.51 Q94.2188 1031.77 91.117 1031.77 Q88.9179 1031.77 86.4642 1032.54 Q84.0337 1033.3 81.2559 1034.85 L81.2559 1030.13 Q84.08 1028.99 86.5337 1028.42 Q88.9874 1027.84 91.0244 1027.84 Q96.3947 1027.84 99.5892 1030.52 Q102.784 1033.21 102.784 1037.7 Q102.784 1039.83 101.973 1041.75 Q101.186 1043.65 99.0799 1046.24 Q98.5012 1046.91 95.3994 1050.13 Q92.2975 1053.32 86.6494 1059.09 Z" fill="#000000" fill-rule="evenodd" fill-opacity="1" /><path clip-path="url(#clip830)" d="M 0 0 M64.7051 848.37 L77.1819 848.37 L77.1819 852.166 L64.7051 852.166 L64.7051 848.37 Z" fill="#000000" fill-rule="evenodd" fill-opacity="1" /><path clip-path="url(#clip830)" d="M 0 0 M83.0615 859.319 L90.7003 859.319 L90.7003 832.953 L82.3902 834.62 L82.3902 830.361 L90.654 828.694 L95.3299 828.694 L95.3299 859.319 L102.969 859.319 L102.969 863.254 L83.0615 863.254 L83.0615 859.319 Z" fill="#000000" fill-rule="evenodd" fill-opacity="1" /><path clip-path="url(#clip830)" d="M 0 0 M91.0244 632.005 Q87.4133 632.005 85.5846 635.57 Q83.7791 639.112 83.7791 646.241 Q83.7791 653.348 85.5846 656.913 Q87.4133 660.454 91.0244 660.454 Q94.6586 660.454 96.4642 656.913 Q98.2929 653.348 98.2929 646.241 Q98.2929 639.112 96.4642 635.57 Q94.6586 632.005 91.0244 632.005 M91.0244 628.302 Q96.8345 628.302 99.8901 632.908 Q102.969 637.491 102.969 646.241 Q102.969 654.968 99.8901 659.575 Q96.8345 664.158 91.0244 664.158 Q85.2142 664.158 82.1355 659.575 Q79.08 654.968 79.08 646.241 Q79.08 637.491 82.1355 632.908 Q85.2142 628.302 91.0244 628.302 Z" fill="#000000" fill-rule="evenodd" fill-opacity="1" /><path clip-path="url(#clip830)" d="M 0 0 M83.0615 459.784 L90.7003 459.784 L90.7003 433.418 L82.3902 435.085 L82.3902 430.826 L90.654 429.159 L95.3299 429.159 L95.3299 459.784 L102.969 459.784 L102.969 463.719 L83.0615 463.719 L83.0615 459.784 Z" fill="#000000" fill-rule="evenodd" fill-opacity="1" /><path clip-path="url(#clip830)" d="M 0 0 M86.6494 260.017 L102.969 260.017 L102.969 263.952 L81.0244 263.952 L81.0244 260.017 Q83.6865 257.262 88.2698 252.632 Q92.8762 247.98 94.0568 246.637 Q96.3021 244.114 97.1818 242.378 Q98.0845 240.619 98.0845 238.929 Q98.0845 236.174 96.1401 234.438 Q94.2188 232.702 91.117 232.702 Q88.9179 232.702 86.4642 233.466 Q84.0337 234.23 81.2559 235.781 L81.2559 231.059 Q84.08 229.924 86.5337 229.346 Q88.9874 228.767 91.0244 228.767 Q96.3947 228.767 99.5892 231.452 Q102.784 234.137 102.784 238.628 Q102.784 240.758 101.973 242.679 Q101.186 244.577 99.0799 247.17 Q98.5012 247.841 95.3994 251.058 Q92.2975 254.253 86.6494 260.017 Z" fill="#000000" fill-rule="evenodd" fill-opacity="1" /><path clip-path="url(#clip830)" d="M 0 0 M422.867 8.64 L447.694 8.64 L447.694 13.559 L428.712 13.559 L428.712 26.2904 L445.842 26.2904 L445.842 31.2093 L428.712 31.2093 L428.712 51.84 L422.867 51.84 L422.867 8.64 Z" fill="#000000" fill-rule="evenodd" fill-opacity="1" /><path clip-path="url(#clip830)" d="M 0 0 M448.967 19.4328 L454.291 19.4328 L454.291 51.84 L448.967 51.84 L448.967 19.4328 M448.967 6.81709 L454.291 6.81709 L454.291 13.559 L448.967 13.559 L448.967 6.81709 Z" fill="#000000" fill-rule="evenodd" fill-opacity="1" /><path clip-path="url(#clip830)" d="M 0 0 M481.2 35.2602 Q481.2 29.4732 478.799 26.2904 Q476.426 23.1075 472.115 23.1075 Q467.832 23.1075 465.431 26.2904 Q463.058 29.4732 463.058 35.2602 Q463.058 41.0183 465.431 44.2012 Q467.832 47.384 472.115 47.384 Q476.426 47.384 478.799 44.2012 Q481.2 41.0183 481.2 35.2602 M486.524 47.818 Q486.524 56.0934 482.85 60.1154 Q479.175 64.1663 471.594 64.1663 Q468.787 64.1663 466.299 63.7323 Q463.81 63.3272 461.467 62.4592 L461.467 57.2798 Q463.81 58.5529 466.096 59.1606 Q468.382 59.7682 470.755 59.7682 Q475.992 59.7682 478.596 57.0194 Q481.2 54.2995 481.2 48.7729 L481.2 46.1398 Q479.551 49.0044 476.976 50.4222 Q474.401 51.84 470.813 51.84 Q464.852 51.84 461.206 47.2972 Q457.56 42.7544 457.56 35.2602 Q457.56 27.7371 461.206 23.1943 Q464.852 18.6515 470.813 18.6515 Q474.401 18.6515 476.976 20.0693 Q479.551 21.4872 481.2 24.3517 L481.2 19.4328 L486.524 19.4328 L486.524 47.818 Z" fill="#000000" fill-rule="evenodd" fill-opacity="1" /><path clip-path="url(#clip830)" d="M 0 0 M491.559 39.0507 L491.559 19.4328 L496.883 19.4328 L496.883 38.8482 Q496.883 43.4488 498.677 45.7636 Q500.471 48.0495 504.059 48.0495 Q508.37 48.0495 510.859 45.3007 Q513.376 42.5519 513.376 37.8065 L513.376 19.4328 L518.7 19.4328 L518.7 51.84 L513.376 51.84 L513.376 46.8632 Q511.437 49.8145 508.862 51.2613 Q506.316 52.6791 502.931 52.6791 Q497.346 52.6791 494.453 49.2069 Q491.559 45.7347 491.559 39.0507 M504.956 18.6515 L504.956 18.6515 Z" fill="#000000" fill-rule="evenodd" fill-opacity="1" /><path clip-path="url(#clip830)" d="M 0 0 M543.063 24.4096 Q542.166 23.8888 541.096 23.6573 Q540.054 23.3969 538.781 23.3969 Q534.267 23.3969 531.837 26.3482 Q529.435 29.2707 529.435 34.7683 L529.435 51.84 L524.082 51.84 L524.082 19.4328 L529.435 19.4328 L529.435 24.4675 Q531.113 21.5161 533.804 20.0983 Q536.495 18.6515 540.344 18.6515 Q540.893 18.6515 541.559 18.7383 Q542.224 18.7962 543.034 18.9409 L543.063 24.4096 Z" fill="#000000" fill-rule="evenodd" fill-opacity="1" /><path clip-path="url(#clip830)" d="M 0 0 M575.066 34.3054 L575.066 36.9095 L550.587 36.9095 Q550.934 42.4072 553.885 45.3007 Q556.865 48.1653 562.161 48.1653 Q565.228 48.1653 568.092 47.4129 Q570.986 46.6606 573.821 45.156 L573.821 50.1907 Q570.957 51.406 567.948 52.0425 Q564.938 52.6791 561.842 52.6791 Q554.088 52.6791 549.545 48.1653 Q545.031 43.6514 545.031 35.9547 Q545.031 27.9975 549.313 23.339 Q553.625 18.6515 560.916 18.6515 Q567.456 18.6515 571.246 22.876 Q575.066 27.0716 575.066 34.3054 M569.742 32.7429 Q569.684 28.3737 567.282 25.7695 Q564.909 23.1654 560.974 23.1654 Q556.518 23.1654 553.827 25.6827 Q551.165 28.2001 550.76 32.7718 L569.742 32.7429 Z" fill="#000000" fill-rule="evenodd" fill-opacity="1" /><path clip-path="url(#clip830)" d="M 0 0 M605.274 46.921 L625.673 46.921 L625.673 51.84 L598.243 51.84 L598.243 46.921 Q601.57 43.4778 607.299 37.6908 Q613.057 31.8748 614.533 30.1966 Q617.34 27.0427 618.439 24.8726 Q619.568 22.6735 619.568 20.5612 Q619.568 17.118 617.137 14.9478 Q614.735 12.7777 610.858 12.7777 Q608.109 12.7777 605.042 13.7326 Q602.004 14.6874 598.532 16.6261 L598.532 10.7233 Q602.062 9.30551 605.129 8.58213 Q608.196 7.85875 610.742 7.85875 Q617.455 7.85875 621.448 11.2152 Q625.441 14.5717 625.441 20.1851 Q625.441 22.8471 624.429 25.2487 Q623.445 27.6214 620.812 30.8621 Q620.088 31.7012 616.211 35.7232 Q612.334 39.7162 605.274 46.921 Z" fill="#000000" fill-rule="evenodd" fill-opacity="1" /><path clip-path="url(#clip830)" d="M 0 0 M632.617 44.4905 L638.723 44.4905 L638.723 51.84 L632.617 51.84 L632.617 44.4905 M632.617 21.1978 L638.723 21.1978 L638.723 28.5473 L632.617 28.5473 L632.617 21.1978 Z" fill="#000000" fill-rule="evenodd" fill-opacity="1" /><path clip-path="url(#clip830)" d="M 0 0 M663.375 8.64 L671.246 8.64 L690.401 44.7799 L690.401 8.64 L696.072 8.64 L696.072 51.84 L688.202 51.84 L669.047 15.7001 L669.047 51.84 L663.375 51.84 L663.375 8.64 Z" fill="#000000" fill-rule="evenodd" fill-opacity="1" /><path clip-path="url(#clip830)" d="M 0 0 M729.376 34.3054 L729.376 36.9095 L704.897 36.9095 Q705.244 42.4072 708.196 45.3007 Q711.176 48.1653 716.471 48.1653 Q719.538 48.1653 722.403 47.4129 Q725.296 46.6606 728.132 45.156 L728.132 50.1907 Q725.267 51.406 722.258 52.0425 Q719.249 52.6791 716.153 52.6791 Q708.398 52.6791 703.855 48.1653 Q699.342 43.6514 699.342 35.9547 Q699.342 27.9975 703.624 23.339 Q707.935 18.6515 715.227 18.6515 Q721.766 18.6515 725.557 22.876 Q729.376 27.0716 729.376 34.3054 M724.052 32.7429 Q723.994 28.3737 721.593 25.7695 Q719.22 23.1654 715.285 23.1654 Q710.829 23.1654 708.138 25.6827 Q705.476 28.2001 705.071 32.7718 L724.052 32.7429 Z" fill="#000000" fill-rule="evenodd" fill-opacity="1" /><path clip-path="url(#clip830)" d="M 0 0 M731.864 19.4328 L737.189 19.4328 L743.844 44.722 L750.47 19.4328 L756.749 19.4328 L763.404 44.722 L770.03 19.4328 L775.354 19.4328 L766.876 51.84 L760.597 51.84 L753.624 25.2776 L746.621 51.84 L740.342 51.84 L731.864 19.4328 Z" fill="#000000" fill-rule="evenodd" fill-opacity="1" /><path clip-path="url(#clip830)" d="M 0 0 M801.598 20.3876 L801.598 25.4223 Q799.341 24.2649 796.91 23.6862 Q794.48 23.1075 791.876 23.1075 Q787.912 23.1075 785.915 24.3228 Q783.948 25.5381 783.948 27.9686 Q783.948 29.8204 785.365 30.891 Q786.783 31.9327 791.066 32.8876 L792.888 33.2926 Q798.56 34.5079 800.932 36.7359 Q803.334 38.935 803.334 42.8991 Q803.334 47.4129 799.746 50.046 Q796.187 52.6791 789.937 52.6791 Q787.333 52.6791 784.497 52.1583 Q781.691 51.6664 778.566 50.6537 L778.566 45.156 Q781.517 46.6896 784.382 47.4708 Q787.246 48.2231 790.053 48.2231 Q793.814 48.2231 795.84 46.95 Q797.865 45.6479 797.865 43.3042 Q797.865 41.134 796.39 39.9766 Q794.943 38.8192 789.995 37.7486 L788.143 37.3146 Q783.195 36.273 780.996 34.1318 Q778.797 31.9616 778.797 28.2001 Q778.797 23.6283 782.038 21.1399 Q785.279 18.6515 791.239 18.6515 Q794.191 18.6515 796.795 19.0855 Q799.399 19.5196 801.598 20.3876 Z" fill="#000000" fill-rule="evenodd" fill-opacity="1" /><path clip-path="url(#clip830)" d="M 0 0 M806.228 33.2348 L821.823 33.2348 L821.823 37.9801 L806.228 37.9801 L806.228 33.2348 Z" fill="#000000" fill-rule="evenodd" fill-opacity="1" /><path clip-path="url(#clip830)" d="M 0 0 M842.136 35.5496 Q835.683 35.5496 833.195 37.0253 Q830.707 38.501 830.707 42.06 Q830.707 44.8956 832.558 46.5738 Q834.439 48.2231 837.651 48.2231 Q842.078 48.2231 844.74 45.0981 Q847.431 41.9442 847.431 36.7359 L847.431 35.5496 L842.136 35.5496 M852.755 33.3505 L852.755 51.84 L847.431 51.84 L847.431 46.921 Q845.608 49.8724 842.888 51.2902 Q840.168 52.6791 836.233 52.6791 Q831.256 52.6791 828.305 49.9014 Q825.382 47.0947 825.382 42.4072 Q825.382 36.9385 829.028 34.1607 Q832.703 31.3829 839.966 31.3829 L847.431 31.3829 L847.431 30.8621 Q847.431 27.1874 845 25.1908 Q842.599 23.1654 838.23 23.1654 Q835.452 23.1654 832.819 23.8309 Q830.186 24.4964 827.755 25.8274 L827.755 20.9085 Q830.678 19.78 833.426 19.2302 Q836.175 18.6515 838.779 18.6515 Q845.811 18.6515 849.283 22.2973 Q852.755 25.9431 852.755 33.3505 Z" fill="#000000" fill-rule="evenodd" fill-opacity="1" /><path clip-path="url(#clip830)" d="M 0 0 M857.79 39.0507 L857.79 19.4328 L863.114 19.4328 L863.114 38.8482 Q863.114 43.4488 864.908 45.7636 Q866.702 48.0495 870.29 48.0495 Q874.601 48.0495 877.089 45.3007 Q879.607 42.5519 879.607 37.8065 L879.607 19.4328 L884.931 19.4328 L884.931 51.84 L879.607 51.84 L879.607 46.8632 Q877.668 49.8145 875.093 51.2613 Q872.547 52.6791 869.161 52.6791 Q863.577 52.6791 860.683 49.2069 Q857.79 45.7347 857.79 39.0507 M871.187 18.6515 L871.187 18.6515 Z" fill="#000000" fill-rule="evenodd" fill-opacity="1" /><path clip-path="url(#clip830)" d="M 0 0 M911.84 35.2602 Q911.84 29.4732 909.439 26.2904 Q907.066 23.1075 902.755 23.1075 Q898.472 23.1075 896.071 26.2904 Q893.698 29.4732 893.698 35.2602 Q893.698 41.0183 896.071 44.2012 Q898.472 47.384 902.755 47.384 Q907.066 47.384 909.439 44.2012 Q911.84 41.0183 911.84 35.2602 M917.164 47.818 Q917.164 56.0934 913.49 60.1154 Q909.815 64.1663 902.234 64.1663 Q899.427 64.1663 896.939 63.7323 Q894.45 63.3272 892.107 62.4592 L892.107 57.2798 Q894.45 58.5529 896.736 59.1606 Q899.022 59.7682 901.395 59.7682 Q906.632 59.7682 909.236 57.0194 Q911.84 54.2995 911.84 48.7729 L911.84 46.1398 Q910.191 49.0044 907.616 50.4222 Q905.041 51.84 901.453 51.84 Q895.492 51.84 891.846 47.2972 Q888.2 42.7544 888.2 35.2602 Q888.2 27.7371 891.846 23.1943 Q895.492 18.6515 901.453 18.6515 Q905.041 18.6515 907.616 20.0693 Q910.191 21.4872 911.84 24.3517 L911.84 19.4328 L917.164 19.4328 L917.164 47.818 Z" fill="#000000" fill-rule="evenodd" fill-opacity="1" /><path clip-path="url(#clip830)" d="M 0 0 M947.98 25.6538 Q949.977 22.0659 952.754 20.3587 Q955.532 18.6515 959.294 18.6515 Q964.357 18.6515 967.106 22.2105 Q969.855 25.7406 969.855 32.2799 L969.855 51.84 L964.502 51.84 L964.502 32.4535 Q964.502 27.795 962.853 25.5381 Q961.204 23.2811 957.818 23.2811 Q953.68 23.2811 951.279 26.03 Q948.877 28.7788 948.877 33.5241 L948.877 51.84 L943.524 51.84 L943.524 32.4535 Q943.524 27.7661 941.875 25.5381 Q940.226 23.2811 936.782 23.2811 Q932.703 23.2811 930.301 26.0589 Q927.899 28.8077 927.899 33.5241 L927.899 51.84 L922.546 51.84 L922.546 19.4328 L927.899 19.4328 L927.899 24.4675 Q929.722 21.4872 932.268 20.0693 Q934.815 18.6515 938.316 18.6515 Q941.846 18.6515 944.305 20.4455 Q946.794 22.2395 947.98 25.6538 Z" fill="#000000" fill-rule="evenodd" fill-opacity="1" /><path clip-path="url(#clip830)" d="M 0 0 M1003.16 34.3054 L1003.16 36.9095 L978.68 36.9095 Q979.028 42.4072 981.979 45.3007 Q984.959 48.1653 990.254 48.1653 Q993.321 48.1653 996.186 47.4129 Q999.079 46.6606 1001.92 45.156 L1001.92 50.1907 Q999.051 51.406 996.041 52.0425 Q993.032 52.6791 989.936 52.6791 Q982.181 52.6791 977.639 48.1653 Q973.125 43.6514 973.125 35.9547 Q973.125 27.9975 977.407 23.339 Q981.718 18.6515 989.01 18.6515 Q995.549 18.6515 999.34 22.876 Q1003.16 27.0716 1003.16 34.3054 M997.835 32.7429 Q997.777 28.3737 995.376 25.7695 Q993.003 23.1654 989.068 23.1654 Q984.612 23.1654 981.921 25.6827 Q979.259 28.2001 978.854 32.7718 L997.835 32.7429 Z" fill="#000000" fill-rule="evenodd" fill-opacity="1" /><path clip-path="url(#clip830)" d="M 0 0 M1035.68 32.2799 L1035.68 51.84 L1030.36 51.84 L1030.36 32.4535 Q1030.36 27.8529 1028.56 25.567 Q1026.77 23.2811 1023.18 23.2811 Q1018.87 23.2811 1016.38 26.03 Q1013.89 28.7788 1013.89 33.5241 L1013.89 51.84 L1008.54 51.84 L1008.54 19.4328 L1013.89 19.4328 L1013.89 24.4675 Q1015.8 21.545 1018.38 20.0983 Q1020.98 18.6515 1024.37 18.6515 Q1029.95 18.6515 1032.82 22.1237 Q1035.68 25.567 1035.68 32.2799 Z" fill="#000000" fill-rule="evenodd" fill-opacity="1" /><path clip-path="url(#clip830)" d="M 0 0 M1046.53 10.2314 L1046.53 19.4328 L1057.5 19.4328 L1057.5 23.5705 L1046.53 23.5705 L1046.53 41.163 Q1046.53 45.1271 1047.6 46.2555 Q1048.7 47.384 1052.03 47.384 L1057.5 47.384 L1057.5 51.84 L1052.03 51.84 Q1045.87 51.84 1043.52 49.5541 Q1041.18 47.2393 1041.18 41.163 L1041.18 23.5705 L1037.27 23.5705 L1037.27 19.4328 L1041.18 19.4328 L1041.18 10.2314 L1046.53 10.2314 Z" fill="#000000" fill-rule="evenodd" fill-opacity="1" /><path clip-path="url(#clip830)" d="M 0 0 M1090.8 34.3054 L1090.8 36.9095 L1066.32 36.9095 Q1066.67 42.4072 1069.62 45.3007 Q1072.6 48.1653 1077.9 48.1653 Q1080.97 48.1653 1083.83 47.4129 Q1086.72 46.6606 1089.56 45.156 L1089.56 50.1907 Q1086.69 51.406 1083.69 52.0425 Q1080.68 52.6791 1077.58 52.6791 Q1069.83 52.6791 1065.28 48.1653 Q1060.77 43.6514 1060.77 35.9547 Q1060.77 27.9975 1065.05 23.339 Q1069.36 18.6515 1076.65 18.6515 Q1083.19 18.6515 1086.98 22.876 Q1090.8 27.0716 1090.8 34.3054 M1085.48 32.7429 Q1085.42 28.3737 1083.02 25.7695 Q1080.65 23.1654 1076.71 23.1654 Q1072.26 23.1654 1069.57 25.6827 Q1066.9 28.2001 1066.5 32.7718 L1085.48 32.7429 Z" fill="#000000" fill-rule="evenodd" fill-opacity="1" /><path clip-path="url(#clip830)" d="M 0 0 M1117.71 24.3517 L1117.71 6.81709 L1123.04 6.81709 L1123.04 51.84 L1117.71 51.84 L1117.71 46.9789 Q1116.03 49.8724 1113.46 51.2902 Q1110.91 52.6791 1107.33 52.6791 Q1101.45 52.6791 1097.75 47.9916 Q1094.07 43.3042 1094.07 35.6653 Q1094.07 28.0265 1097.75 23.339 Q1101.45 18.6515 1107.33 18.6515 Q1110.91 18.6515 1113.46 20.0693 Q1116.03 21.4582 1117.71 24.3517 M1099.57 35.6653 Q1099.57 41.5391 1101.97 44.8956 Q1104.4 48.2231 1108.63 48.2231 Q1112.85 48.2231 1115.28 44.8956 Q1117.71 41.5391 1117.71 35.6653 Q1117.71 29.7915 1115.28 26.464 Q1112.85 23.1075 1108.63 23.1075 Q1104.4 23.1075 1101.97 26.464 Q1099.57 29.7915 1099.57 35.6653 Z" fill="#000000" fill-rule="evenodd" fill-opacity="1" /><path clip-path="url(#clip830)" d="M 0 0 M1170.78 20.677 L1170.78 25.6538 Q1168.52 24.4096 1166.24 23.802 Q1163.98 23.1654 1161.67 23.1654 Q1156.49 23.1654 1153.62 26.464 Q1150.76 29.7336 1150.76 35.6653 Q1150.76 41.597 1153.62 44.8956 Q1156.49 48.1653 1161.67 48.1653 Q1163.98 48.1653 1166.24 47.5576 Q1168.52 46.921 1170.78 45.6768 L1170.78 50.5958 Q1168.55 51.6375 1166.15 52.1583 Q1163.78 52.6791 1161.09 52.6791 Q1153.77 52.6791 1149.45 48.0784 Q1145.14 43.4778 1145.14 35.6653 Q1145.14 27.7371 1149.48 23.1943 Q1153.85 18.6515 1161.43 18.6515 Q1163.89 18.6515 1166.24 19.1724 Q1168.58 19.6642 1170.78 20.677 Z" fill="#000000" fill-rule="evenodd" fill-opacity="1" /><path clip-path="url(#clip830)" d="M 0 0 M1188.92 23.1654 Q1184.64 23.1654 1182.15 26.5218 Q1179.66 29.8494 1179.66 35.6653 Q1179.66 41.4813 1182.12 44.8377 Q1184.61 48.1653 1188.92 48.1653 Q1193.18 48.1653 1195.66 44.8088 Q1198.15 41.4523 1198.15 35.6653 Q1198.15 29.9072 1195.66 26.5508 Q1193.18 23.1654 1188.92 23.1654 M1188.92 18.6515 Q1195.87 18.6515 1199.83 23.1654 Q1203.79 27.6792 1203.79 35.6653 Q1203.79 43.6225 1199.83 48.1653 Q1195.87 52.6791 1188.92 52.6791 Q1181.95 52.6791 1177.98 48.1653 Q1174.05 43.6225 1174.05 35.6653 Q1174.05 27.6792 1177.98 23.1654 Q1181.95 18.6515 1188.92 18.6515 Z" fill="#000000" fill-rule="evenodd" fill-opacity="1" /><path clip-path="url(#clip830)" d="M 0 0 M1234.61 25.6538 Q1236.61 22.0659 1239.38 20.3587 Q1242.16 18.6515 1245.92 18.6515 Q1250.99 18.6515 1253.74 22.2105 Q1256.49 25.7406 1256.49 32.2799 L1256.49 51.84 L1251.13 51.84 L1251.13 32.4535 Q1251.13 27.795 1249.48 25.5381 Q1247.83 23.2811 1244.45 23.2811 Q1240.31 23.2811 1237.91 26.03 Q1235.51 28.7788 1235.51 33.5241 L1235.51 51.84 L1230.15 51.84 L1230.15 32.4535 Q1230.15 27.7661 1228.51 25.5381 Q1226.86 23.2811 1223.41 23.2811 Q1219.33 23.2811 1216.93 26.0589 Q1214.53 28.8077 1214.53 33.5241 L1214.53 51.84 L1209.18 51.84 L1209.18 19.4328 L1214.53 19.4328 L1214.53 24.4675 Q1216.35 21.4872 1218.9 20.0693 Q1221.45 18.6515 1224.95 18.6515 Q1228.48 18.6515 1230.94 20.4455 Q1233.42 22.2395 1234.61 25.6538 Z" fill="#000000" fill-rule="evenodd" fill-opacity="1" /><path clip-path="url(#clip830)" d="M 0 0 M1287.3 25.6538 Q1289.3 22.0659 1292.08 20.3587 Q1294.85 18.6515 1298.61 18.6515 Q1303.68 18.6515 1306.43 22.2105 Q1309.18 25.7406 1309.18 32.2799 L1309.18 51.84 L1303.82 51.84 L1303.82 32.4535 Q1303.82 27.795 1302.17 25.5381 Q1300.52 23.2811 1297.14 23.2811 Q1293 23.2811 1290.6 26.03 Q1288.2 28.7788 1288.2 33.5241 L1288.2 51.84 L1282.85 51.84 L1282.85 32.4535 Q1282.85 27.7661 1281.2 25.5381 Q1279.55 23.2811 1276.1 23.2811 Q1272.02 23.2811 1269.62 26.0589 Q1267.22 28.8077 1267.22 33.5241 L1267.22 51.84 L1261.87 51.84 L1261.87 19.4328 L1267.22 19.4328 L1267.22 24.4675 Q1269.04 21.4872 1271.59 20.0693 Q1274.14 18.6515 1277.64 18.6515 Q1281.17 18.6515 1283.63 20.4455 Q1286.11 22.2395 1287.3 25.6538 Z" fill="#000000" fill-rule="evenodd" fill-opacity="1" /><path clip-path="url(#clip830)" d="M 0 0 M1327.32 23.1654 Q1323.04 23.1654 1320.55 26.5218 Q1318.06 29.8494 1318.06 35.6653 Q1318.06 41.4813 1320.52 44.8377 Q1323.01 48.1653 1327.32 48.1653 Q1331.57 48.1653 1334.06 44.8088 Q1336.55 41.4523 1336.55 35.6653 Q1336.55 29.9072 1334.06 26.5508 Q1331.57 23.1654 1327.32 23.1654 M1327.32 18.6515 Q1334.26 18.6515 1338.23 23.1654 Q1342.19 27.6792 1342.19 35.6653 Q1342.19 43.6225 1338.23 48.1653 Q1334.26 52.6791 1327.32 52.6791 Q1320.35 52.6791 1316.38 48.1653 Q1312.45 43.6225 1312.45 35.6653 Q1312.45 27.6792 1316.38 23.1654 Q1320.35 18.6515 1327.32 18.6515 Z" fill="#000000" fill-rule="evenodd" fill-opacity="1" /><path clip-path="url(#clip830)" d="M 0 0 M1369.1 24.3517 L1369.1 6.81709 L1374.42 6.81709 L1374.42 51.84 L1369.1 51.84 L1369.1 46.9789 Q1367.42 49.8724 1364.85 51.2902 Q1362.3 52.6791 1358.71 52.6791 Q1352.84 52.6791 1349.14 47.9916 Q1345.46 43.3042 1345.46 35.6653 Q1345.46 28.0265 1349.14 23.339 Q1352.84 18.6515 1358.71 18.6515 Q1362.3 18.6515 1364.85 20.0693 Q1367.42 21.4582 1369.1 24.3517 M1350.96 35.6653 Q1350.96 41.5391 1353.36 44.8956 Q1355.79 48.2231 1360.02 48.2231 Q1364.24 48.2231 1366.67 44.8956 Q1369.1 41.5391 1369.1 35.6653 Q1369.1 29.7915 1366.67 26.464 Q1364.24 23.1075 1360.02 23.1075 Q1355.79 23.1075 1353.36 26.464 Q1350.96 29.7915 1350.96 35.6653 Z" fill="#000000" fill-rule="evenodd" fill-opacity="1" /><path clip-path="url(#clip830)" d="M 0 0 M1380.01 19.4328 L1385.33 19.4328 L1385.33 51.84 L1380.01 51.84 L1380.01 19.4328 M1380.01 6.81709 L1385.33 6.81709 L1385.33 13.559 L1380.01 13.559 L1380.01 6.81709 Z" fill="#000000" fill-rule="evenodd" fill-opacity="1" /><path clip-path="url(#clip830)" d="M 0 0 M1396.18 10.2314 L1396.18 19.4328 L1407.15 19.4328 L1407.15 23.5705 L1396.18 23.5705 L1396.18 41.163 Q1396.18 45.1271 1397.25 46.2555 Q1398.35 47.384 1401.68 47.384 L1407.15 47.384 L1407.15 51.84 L1401.68 51.84 Q1395.52 51.84 1393.17 49.5541 Q1390.83 47.2393 1390.83 41.163 L1390.83 23.5705 L1386.92 23.5705 L1386.92 19.4328 L1390.83 19.4328 L1390.83 10.2314 L1396.18 10.2314 Z" fill="#000000" fill-rule="evenodd" fill-opacity="1" /><path clip-path="url(#clip830)" d="M 0 0 M1426.22 54.8492 Q1423.96 60.6362 1421.82 62.4013 Q1419.68 64.1663 1416.09 64.1663 L1411.84 64.1663 L1411.84 59.7103 L1414.96 59.7103 Q1417.16 59.7103 1418.38 58.6687 Q1419.59 57.627 1421.07 53.7497 L1422.02 51.3192 L1408.92 19.4328 L1414.56 19.4328 L1424.68 44.7799 L1434.81 19.4328 L1440.45 19.4328 L1426.22 54.8492 Z" fill="#000000" fill-rule="evenodd" fill-opacity="1" /><path clip-path="url(#clip830)" d="M 0 0 M1485.54 20.3876 L1485.54 25.4223 Q1483.28 24.2649 1480.85 23.6862 Q1478.42 23.1075 1475.81 23.1075 Q1471.85 23.1075 1469.85 24.3228 Q1467.88 25.5381 1467.88 27.9686 Q1467.88 29.8204 1469.3 30.891 Q1470.72 31.9327 1475 32.8876 L1476.83 33.2926 Q1482.5 34.5079 1484.87 36.7359 Q1487.27 38.935 1487.27 42.8991 Q1487.27 47.4129 1483.68 50.046 Q1480.12 52.6791 1473.87 52.6791 Q1471.27 52.6791 1468.43 52.1583 Q1465.63 51.6664 1462.5 50.6537 L1462.5 45.156 Q1465.45 46.6896 1468.32 47.4708 Q1471.18 48.2231 1473.99 48.2231 Q1477.75 48.2231 1479.78 46.95 Q1481.8 45.6479 1481.8 43.3042 Q1481.8 41.134 1480.33 39.9766 Q1478.88 38.8192 1473.93 37.7486 L1472.08 37.3146 Q1467.13 36.273 1464.93 34.1318 Q1462.73 31.9616 1462.73 28.2001 Q1462.73 23.6283 1465.98 21.1399 Q1469.22 18.6515 1475.18 18.6515 Q1478.13 18.6515 1480.73 19.0855 Q1483.34 19.5196 1485.54 20.3876 Z" fill="#000000" fill-rule="evenodd" fill-opacity="1" /><path clip-path="url(#clip830)" d="M 0 0 M1519.79 32.2799 L1519.79 51.84 L1514.47 51.84 L1514.47 32.4535 Q1514.47 27.8529 1512.68 25.567 Q1510.88 23.2811 1507.29 23.2811 Q1502.98 23.2811 1500.49 26.03 Q1498.01 28.7788 1498.01 33.5241 L1498.01 51.84 L1492.65 51.84 L1492.65 6.81709 L1498.01 6.81709 L1498.01 24.4675 Q1499.92 21.545 1502.49 20.0983 Q1505.1 18.6515 1508.48 18.6515 Q1514.07 18.6515 1516.93 22.1237 Q1519.79 25.567 1519.79 32.2799 Z" fill="#000000" fill-rule="evenodd" fill-opacity="1" /><path clip-path="url(#clip830)" d="M 0 0 M1537.94 23.1654 Q1533.65 23.1654 1531.17 26.5218 Q1528.68 29.8494 1528.68 35.6653 Q1528.68 41.4813 1531.14 44.8377 Q1533.63 48.1653 1537.94 48.1653 Q1542.19 48.1653 1544.68 44.8088 Q1547.17 41.4523 1547.17 35.6653 Q1547.17 29.9072 1544.68 26.5508 Q1542.19 23.1654 1537.94 23.1654 M1537.94 18.6515 Q1544.88 18.6515 1548.85 23.1654 Q1552.81 27.6792 1552.81 35.6653 Q1552.81 43.6225 1548.85 48.1653 Q1544.88 52.6791 1537.94 52.6791 Q1530.96 52.6791 1527 48.1653 Q1523.06 43.6225 1523.06 35.6653 Q1523.06 27.6792 1527 23.1654 Q1530.96 18.6515 1537.94 18.6515 Z" fill="#000000" fill-rule="evenodd" fill-opacity="1" /><path clip-path="url(#clip830)" d="M 0 0 M1581.72 20.677 L1581.72 25.6538 Q1579.46 24.4096 1577.17 23.802 Q1574.92 23.1654 1572.6 23.1654 Q1567.42 23.1654 1564.56 26.464 Q1561.69 29.7336 1561.69 35.6653 Q1561.69 41.597 1564.56 44.8956 Q1567.42 48.1653 1572.6 48.1653 Q1574.92 48.1653 1577.17 47.5576 Q1579.46 46.921 1581.72 45.6768 L1581.72 50.5958 Q1579.49 51.6375 1577.09 52.1583 Q1574.71 52.6791 1572.02 52.6791 Q1564.7 52.6791 1560.39 48.0784 Q1556.08 43.4778 1556.08 35.6653 Q1556.08 27.7371 1560.42 23.1943 Q1564.79 18.6515 1572.37 18.6515 Q1574.83 18.6515 1577.17 19.1724 Q1579.52 19.6642 1581.72 20.677 Z" fill="#000000" fill-rule="evenodd" fill-opacity="1" /><path clip-path="url(#clip830)" d="M 0 0 M1587.1 6.81709 L1592.45 6.81709 L1592.45 33.4084 L1608.34 19.4328 L1615.14 19.4328 L1597.95 34.5947 L1615.86 51.84 L1608.91 51.84 L1592.45 36.0125 L1592.45 51.84 L1587.1 51.84 L1587.1 6.81709 Z" fill="#000000" fill-rule="evenodd" fill-opacity="1" /><path clip-path="url(#clip830)" d="M 0 0 M1642.1 20.3876 L1642.1 25.4223 Q1639.85 24.2649 1637.42 23.6862 Q1634.98 23.1075 1632.38 23.1075 Q1628.42 23.1075 1626.42 24.3228 Q1624.45 25.5381 1624.45 27.9686 Q1624.45 29.8204 1625.87 30.891 Q1627.29 31.9327 1631.57 32.8876 L1633.39 33.2926 Q1639.06 34.5079 1641.44 36.7359 Q1643.84 38.935 1643.84 42.8991 Q1643.84 47.4129 1640.25 50.046 Q1636.69 52.6791 1630.44 52.6791 Q1627.84 52.6791 1625 52.1583 Q1622.2 51.6664 1619.07 50.6537 L1619.07 45.156 Q1622.02 46.6896 1624.89 47.4708 Q1627.75 48.2231 1630.56 48.2231 Q1634.32 48.2231 1636.34 46.95 Q1638.37 45.6479 1638.37 43.3042 Q1638.37 41.134 1636.89 39.9766 Q1635.45 38.8192 1630.5 37.7486 L1628.65 37.3146 Q1623.7 36.273 1621.5 34.1318 Q1619.3 31.9616 1619.3 28.2001 Q1619.3 23.6283 1622.54 21.1399 Q1625.78 18.6515 1631.74 18.6515 Q1634.7 18.6515 1637.3 19.0855 Q1639.9 19.5196 1642.1 20.3876 Z" fill="#000000" fill-rule="evenodd" fill-opacity="1" /><path clip-path="url(#clip830)" d="M 0 0 M1664.44 19.4328 L1670.08 19.4328 L1680.21 46.6317 L1690.34 19.4328 L1695.98 19.4328 L1683.83 51.84 L1676.59 51.84 L1664.44 19.4328 Z" fill="#000000" fill-rule="evenodd" fill-opacity="1" /><path clip-path="url(#clip830)" d="M 0 0 M1722.22 20.3876 L1722.22 25.4223 Q1719.97 24.2649 1717.54 23.6862 Q1715.11 23.1075 1712.5 23.1075 Q1708.54 23.1075 1706.54 24.3228 Q1704.57 25.5381 1704.57 27.9686 Q1704.57 29.8204 1705.99 30.891 Q1707.41 31.9327 1711.69 32.8876 L1713.51 33.2926 Q1719.19 34.5079 1721.56 36.7359 Q1723.96 38.935 1723.96 42.8991 Q1723.96 47.4129 1720.37 50.046 Q1716.81 52.6791 1710.56 52.6791 Q1707.96 52.6791 1705.12 52.1583 Q1702.32 51.6664 1699.19 50.6537 L1699.19 45.156 Q1702.14 46.6896 1705.01 47.4708 Q1707.87 48.2231 1710.68 48.2231 Q1714.44 48.2231 1716.47 46.95 Q1718.49 45.6479 1718.49 43.3042 Q1718.49 41.134 1717.02 39.9766 Q1715.57 38.8192 1710.62 37.7486 L1708.77 37.3146 Q1703.82 36.273 1701.62 34.1318 Q1699.42 31.9616 1699.42 28.2001 Q1699.42 23.6283 1702.66 21.1399 Q1705.9 18.6515 1711.87 18.6515 Q1714.82 18.6515 1717.42 19.0855 Q1720.02 19.5196 1722.22 20.3876 Z" fill="#000000" fill-rule="evenodd" fill-opacity="1" /><path clip-path="url(#clip830)" d="M 0 0 M1778.07 45.6768 L1778.07 34.0739 L1768.52 34.0739 L1768.52 29.2707 L1783.86 29.2707 L1783.86 47.818 Q1780.47 50.2196 1776.39 51.4638 Q1772.31 52.6791 1767.68 52.6791 Q1757.55 52.6791 1751.82 46.7764 Q1746.12 40.8447 1746.12 30.2834 Q1746.12 19.6932 1751.82 13.7904 Q1757.55 7.85875 1767.68 7.85875 Q1771.91 7.85875 1775.7 8.90042 Q1779.52 9.94208 1782.73 11.9675 L1782.73 18.1886 Q1779.49 15.4397 1775.84 14.0509 Q1772.19 12.662 1768.17 12.662 Q1760.24 12.662 1756.25 17.089 Q1752.29 21.5161 1752.29 30.2834 Q1752.29 39.0218 1756.25 43.4488 Q1760.24 47.8759 1768.17 47.8759 Q1771.27 47.8759 1773.7 47.3551 Q1776.13 46.8053 1778.07 45.6768 Z" fill="#000000" fill-rule="evenodd" fill-opacity="1" /><path clip-path="url(#clip830)" d="M 0 0 M1795.23 46.921 L1815.63 46.921 L1815.63 51.84 L1788.2 51.84 L1788.2 46.921 Q1791.52 43.4778 1797.25 37.6908 Q1803.01 31.8748 1804.49 30.1966 Q1807.29 27.0427 1808.39 24.8726 Q1809.52 22.6735 1809.52 20.5612 Q1809.52 17.118 1807.09 14.9478 Q1804.69 12.7777 1800.81 12.7777 Q1798.06 12.7777 1795 13.7326 Q1791.96 14.6874 1788.48 16.6261 L1788.48 10.7233 Q1792.02 9.30551 1795.08 8.58213 Q1798.15 7.85875 1800.7 7.85875 Q1807.41 7.85875 1811.4 11.2152 Q1815.39 14.5717 1815.39 20.1851 Q1815.39 22.8471 1814.38 25.2487 Q1813.4 27.6214 1810.76 30.8621 Q1810.04 31.7012 1806.16 35.7232 Q1802.29 39.7162 1795.23 46.921 Z" fill="#000000" fill-rule="evenodd" fill-opacity="1" /><path clip-path="url(#clip830)" d="M 0 0 M1834.46 12.4884 Q1829.95 12.4884 1827.66 16.9444 Q1825.41 21.3714 1825.41 30.2834 Q1825.41 39.1665 1827.66 43.6225 Q1829.95 48.0495 1834.46 48.0495 Q1839.01 48.0495 1841.26 43.6225 Q1843.55 39.1665 1843.55 30.2834 Q1843.55 21.3714 1841.26 16.9444 Q1839.01 12.4884 1834.46 12.4884 M1834.46 7.85875 Q1841.73 7.85875 1845.54 13.6168 Q1849.39 19.346 1849.39 30.2834 Q1849.39 41.1919 1845.54 46.95 Q1841.73 52.6791 1834.46 52.6791 Q1827.2 52.6791 1823.35 46.95 Q1819.53 41.1919 1819.53 30.2834 Q1819.53 19.346 1823.35 13.6168 Q1827.2 7.85875 1834.46 7.85875 Z" fill="#000000" fill-rule="evenodd" fill-opacity="1" /><path clip-path="url(#clip830)" d="M 0 0 M1895.14 35.2602 Q1895.14 29.4732 1892.74 26.2904 Q1890.37 23.1075 1886.05 23.1075 Q1881.77 23.1075 1879.37 26.2904 Q1877 29.4732 1877 35.2602 Q1877 41.0183 1879.37 44.2012 Q1881.77 47.384 1886.05 47.384 Q1890.37 47.384 1892.74 44.2012 Q1895.14 41.0183 1895.14 35.2602 M1900.46 47.818 Q1900.46 56.0934 1896.79 60.1154 Q1893.11 64.1663 1885.53 64.1663 Q1882.73 64.1663 1880.24 63.7323 Q1877.75 63.3272 1875.41 62.4592 L1875.41 57.2798 Q1877.75 58.5529 1880.04 59.1606 Q1882.32 59.7682 1884.69 59.7682 Q1889.93 59.7682 1892.54 57.0194 Q1895.14 54.2995 1895.14 48.7729 L1895.14 46.1398 Q1893.49 49.0044 1890.91 50.4222 Q1888.34 51.84 1884.75 51.84 Q1878.79 51.84 1875.15 47.2972 Q1871.5 42.7544 1871.5 35.2602 Q1871.5 27.7371 1875.15 23.1943 Q1878.79 18.6515 1884.75 18.6515 Q1888.34 18.6515 1890.91 20.0693 Q1893.49 21.4872 1895.14 24.3517 L1895.14 19.4328 L1900.46 19.4328 L1900.46 47.818 Z" fill="#000000" fill-rule="evenodd" fill-opacity="1" /><path clip-path="url(#clip830)" d="M 0 0 M1924.83 24.4096 Q1923.93 23.8888 1922.86 23.6573 Q1921.82 23.3969 1920.54 23.3969 Q1916.03 23.3969 1913.6 26.3482 Q1911.2 29.2707 1911.2 34.7683 L1911.2 51.84 L1905.85 51.84 L1905.85 19.4328 L1911.2 19.4328 L1911.2 24.4675 Q1912.88 21.5161 1915.57 20.0983 Q1918.26 18.6515 1922.11 18.6515 Q1922.66 18.6515 1923.32 18.7383 Q1923.99 18.7962 1924.8 18.9409 L1924.83 24.4096 Z" fill="#000000" fill-rule="evenodd" fill-opacity="1" /><path clip-path="url(#clip830)" d="M 0 0 M1941.67 23.1654 Q1937.38 23.1654 1934.9 26.5218 Q1932.41 29.8494 1932.41 35.6653 Q1932.41 41.4813 1934.87 44.8377 Q1937.36 48.1653 1941.67 48.1653 Q1945.92 48.1653 1948.41 44.8088 Q1950.9 41.4523 1950.9 35.6653 Q1950.9 29.9072 1948.41 26.5508 Q1945.92 23.1654 1941.67 23.1654 M1941.67 18.6515 Q1948.61 18.6515 1952.58 23.1654 Q1956.54 27.6792 1956.54 35.6653 Q1956.54 43.6225 1952.58 48.1653 Q1948.61 52.6791 1941.67 52.6791 Q1934.69 52.6791 1930.73 48.1653 Q1926.79 43.6225 1926.79 35.6653 Q1926.79 27.6792 1930.73 23.1654 Q1934.69 18.6515 1941.67 18.6515 Z" fill="#000000" fill-rule="evenodd" fill-opacity="1" /><path clip-path="url(#clip830)" d="M 0 0 M1959.03 19.4328 L1964.35 19.4328 L1971.01 44.722 L1977.63 19.4328 L1983.91 19.4328 L1990.57 44.722 L1997.19 19.4328 L2002.52 19.4328 L1994.04 51.84 L1987.76 51.84 L1980.79 25.2776 L1973.78 51.84 L1967.51 51.84 L1959.03 19.4328 Z" fill="#000000" fill-rule="evenodd" fill-opacity="1" /><path clip-path="url(#clip830)" d="M 0 0 M2013.37 10.2314 L2013.37 19.4328 L2024.33 19.4328 L2024.33 23.5705 L2013.37 23.5705 L2013.37 41.163 Q2013.37 45.1271 2014.44 46.2555 Q2015.54 47.384 2018.87 47.384 L2024.33 47.384 L2024.33 51.84 L2018.87 51.84 Q2012.7 51.84 2010.36 49.5541 Q2008.02 47.2393 2008.02 41.163 L2008.02 23.5705 L2004.11 23.5705 L2004.11 19.4328 L2008.02 19.4328 L2008.02 10.2314 L2013.37 10.2314 Z" fill="#000000" fill-rule="evenodd" fill-opacity="1" /><path clip-path="url(#clip830)" d="M 0 0 M2056.86 32.2799 L2056.86 51.84 L2051.53 51.84 L2051.53 32.4535 Q2051.53 27.8529 2049.74 25.567 Q2047.95 23.2811 2044.36 23.2811 Q2040.05 23.2811 2037.56 26.03 Q2035.07 28.7788 2035.07 33.5241 L2035.07 51.84 L2029.72 51.84 L2029.72 6.81709 L2035.07 6.81709 L2035.07 24.4675 Q2036.98 21.545 2039.55 20.0983 Q2042.16 18.6515 2045.54 18.6515 Q2051.13 18.6515 2053.99 22.1237 Q2056.86 25.567 2056.86 32.2799 Z" fill="#000000" fill-rule="evenodd" fill-opacity="1" /><path clip-path="url(#clip832)" d="
M189.963 787.731 L215.886 991.397 L241.81 989.394 L267.733 812.47 L293.657 756.628 L319.58 729.556 L345.503 878.255 L371.427 1016.08 L397.35 741.699 L423.274 761.256 
  L449.197 774.2 L475.121 749.962 L501.044 763.288 L526.968 872.68 L552.891 713.052 L578.814 694.274 L604.738 920.679 L630.661 823.205 L656.585 902.318 L682.508 943.413 
  L708.432 826.256 L734.355 791.772 L760.279 801.212 L786.202 800.257 L812.125 858.716 L838.049 873.027 L863.972 854.062 L889.896 878.678 L915.819 716.571 L941.743 781.685 
  L967.666 631.46 L993.59 792.759 L1019.51 777.048 L1045.44 707.759 L1071.36 809.518 L1097.28 761.088 L1123.21 832.36 L1149.13 718.003 L1175.05 886.003 L1200.98 873.795 
  L1226.9 889.432 L1252.82 1447.38 L1278.75 655.852 L1304.67 517.159 L1330.59 783.881 L1356.52 1009.87 L1382.44 993.171 L1408.36 681.282 L1434.29 863.756 L1460.21 774.005 
  L1486.14 629.804 L1512.06 726.03 L1537.98 803.072 L1563.91 848.465 L1589.83 757.178 L1615.75 972.295 L1641.68 766.603 L1667.6 774.419 L1693.52 787.646 L1719.45 848.962 
  L1745.37 677.82 L1771.29 787.755 L1797.22 870.852 L1823.14 752.198 L1849.06 788.314 L1874.99 855.956 L1900.91 1002.58 L1926.83 829.586 L1952.76 1016.79 L1978.68 892.072 
  L2004.6 913.777 L2030.53 785.996 L2056.45 745.458 L2082.37 773.379 L2108.3 785.791 L2134.22 895.007 L2160.14 598.305 L2186.07 774.885 L2211.99 776.384 L2237.92 781.198 
  L2263.84 994.162 L2289.76 852.227 L2289.76 313.978 L2263.84 593.895 L2237.92 515.41 L2211.99 479.47 L2186.07 498.053 L2160.14 459.278 L2134.22 410.461 L2108.3 473.316 
  L2082.37 306.438 L2056.45 515.298 L2030.53 450.23 L2004.6 421.406 L1978.68 561.343 L1952.76 719.701 L1926.83 432.227 L1900.91 498.642 L1874.99 558.55 L1849.06 537.444 
  L1823.14 436.707 L1797.22 504.164 L1771.29 260.045 L1745.37 515.841 L1719.45 462.417 L1693.52 405.807 L1667.6 344.71 L1641.68 263.124 L1615.75 544.332 L1589.83 436.088 
  L1563.91 557.619 L1537.98 561.266 L1512.06 416.118 L1486.14 443.153 L1460.21 260.578 L1434.29 277.778 L1408.36 459.827 L1382.44 519.996 L1356.52 581.443 L1330.59 351.952 
  L1304.67 260.635 L1278.75 345.129 L1252.82 984.342 L1226.9 482.111 L1200.98 487.171 L1175.05 358.6 L1149.13 279.097 L1123.21 447.436 L1097.28 410.373 L1071.36 445.764 
  L1045.44 433.133 L1019.51 442.802 L993.59 365.715 L967.666 365.053 L941.743 438.6 L915.819 487.213 L889.896 442.884 L863.972 459.94 L838.049 500.035 L812.125 482.358 
  L786.202 501.056 L760.279 482.178 L734.355 440.968 L708.432 527.299 L682.508 546.204 L656.585 523.917 L630.661 581.652 L604.738 425.21 L578.814 504.88 L552.891 429.74 
  L526.968 590.952 L501.044 471.62 L475.121 465.258 L449.197 578.338 L423.274 504.84 L397.35 533.188 L371.427 590.613 L345.503 435.577 L319.58 432.089 L293.657 409.926 
  L267.733 366.086 L241.81 145.256 L215.886 562.42 L189.963 467.427  Z
  " fill="#008080" fill-rule="evenodd" fill-opacity="0.1"/>
<polyline clip-path="url(#clip832)" style="stroke:#008080; stroke-width:6; stroke-opacity:1; fill:none" points="
  189.963,667.51 215.886,752.743 241.81,624.933 267.733,653.219 293.657,615.155 319.58,617.906 345.503,620.323 371.427,744.975 397.35,647.365 423.274,646.694 
  449.197,695.002 475.121,610.924 501.044,632.119 526.968,737.073 552.891,601.513 578.814,601.847 604.738,761.098 630.661,725.835 656.585,633.528 682.508,725.7 
  708.432,664.957 734.355,566.417 760.279,603.494 786.202,686.525 812.125,646.427 838.049,698.254 863.972,610.747 889.896,627.312 915.819,615.566 941.743,657.091 
  967.666,497.401 993.59,580.177 1019.51,601.946 1045.44,581.395 1071.36,640.407 1097.28,621.525 1123.21,610.586 1149.13,502.157 1175.05,604.963 1200.98,675.384 
  1226.9,745.681 1252.82,1225.24 1278.75,519.206 1304.67,376.62 1330.59,555.725 1356.52,688.366 1382.44,701.965 1408.36,609.05 1434.29,614.316 1460.21,526.415 
  1486.14,536.391 1512.06,550.515 1537.98,678.121 1563.91,702.896 1589.83,548.624 1615.75,779.323 1641.68,607.65 1667.6,622.609 1693.52,584.425 1719.45,664.16 
  1745.37,614.282 1771.29,572.815 1797.22,664.455 1823.14,612.186 1849.06,655.569 1874.99,739.809 1900.91,775.848 1926.83,667.141 1952.76,828.586 1978.68,743.803 
  2004.6,724.624 2030.53,574.039 2056.45,648.502 2082.37,570.848 2108.3,651.354 2134.22,684.886 2160.14,557.982 2186.07,676.144 2211.99,570.404 2237.92,669.965 
  2263.84,715.015 2289.76,625.195 
  "/>
<polyline clip-path="url(#clip832)" style="stroke:#ff0000; stroke-width:5; stroke-opacity:0.85; fill:none" points="
  189.963,680.188 215.886,670.757 241.81,643.654 267.733,635.43 293.657,581.569 319.58,547.707 345.503,558.218 371.427,586.797 397.35,668.635 423.274,675.453 
  449.197,726.991 475.121,728.342 501.044,779.38 526.968,737.55 552.891,679.214 578.814,618.648 604.738,652.576 630.661,703.128 656.585,683.876 682.508,661.22 
  708.432,540.642 734.355,541.129 760.279,613.133 786.202,598.085 812.125,614.877 838.049,621.289 863.972,586.145 889.896,590.235 915.819,585.858 941.743,568.721 
  967.666,532.608 993.59,601.236 1019.51,611.409 1045.44,540.087 1071.36,540.763 1097.28,568.591 1123.21,615.437 1149.13,537.386 1175.05,661.514 1200.98,723.275 
  1226.9,825.439 1252.82,1081.76 1278.75,1131.27 1304.67,620.884 1330.59,572.9 1356.52,540.544 1382.44,578.588 1408.36,535.099 1434.29,570.624 1460.21,571.743 
  1486.14,648.434 1512.06,639.334 1537.98,646.548 1563.91,653.238 1589.83,653.311 1615.75,703.012 1641.68,676.502 1667.6,712.041 1693.52,637.82 1719.45,638.736 
  1745.37,616.932 1771.29,648.747 1797.22,675.324 1823.14,664.631 1849.06,625.425 1874.99,651.697 1900.91,630.875 1926.83,657.004 1952.76,672.838 1978.68,692.332 
  2004.6,650.412 2030.53,667.173 2056.45,675.743 2082.37,618.556 2108.3,634.205 2134.22,629.03 2160.14,616.334 2186.07,616.413 2211.99,650.709 2237.92,665.324 
  2263.84,681.796 2289.76,697.864 
  "/>
<path clip-path="url(#clip830)" d="
M198.969 1342.45 L1042.11 1342.45 L1042.11 1183.69 L198.969 1183.69  Z
  " fill="#ffffff" fill-rule="evenodd" fill-opacity="1"/>
<polyline clip-path="url(#clip830)" style="stroke:#000000; stroke-width:4; stroke-opacity:0; fill:none" points="
  198.969,1342.45 1042.11,1342.45 1042.11,1183.69 198.969,1183.69 198.969,1342.45 
  "/>
<polyline clip-path="url(#clip830)" style="stroke:#008080; stroke-width:3.5; stroke-opacity:1; fill:none" points="
  222.969,1236.61 366.969,1236.61 
  "/>
<path clip-path="url(#clip830)" d="M 0 0 M390.969 1221.49 L396.478 1221.49 L409.886 1246.79 L409.886 1221.49 L413.856 1221.49 L413.856 1251.73 L408.347 1251.73 L394.939 1226.43 L394.939 1251.73 L390.969 1251.73 L390.969 1221.49 Z" fill="#000000" fill-rule="evenodd" fill-opacity="1" /><path clip-path="url(#clip830)" d="M 0 0 M437.169 1239.45 L437.169 1241.28 L420.034 1241.28 Q420.277 1245.12 422.343 1247.15 Q424.429 1249.16 428.136 1249.16 Q430.283 1249.16 432.288 1248.63 Q434.313 1248.1 436.298 1247.05 L436.298 1250.57 Q434.293 1251.42 432.187 1251.87 Q430.08 1252.32 427.913 1252.32 Q422.485 1252.32 419.305 1249.16 Q416.145 1246 416.145 1240.61 Q416.145 1235.04 419.143 1231.78 Q422.161 1228.5 427.265 1228.5 Q431.842 1228.5 434.496 1231.45 Q437.169 1234.39 437.169 1239.45 M433.442 1238.36 Q433.402 1235.3 431.721 1233.48 Q430.06 1231.66 427.305 1231.66 Q424.186 1231.66 422.303 1233.42 Q420.439 1235.18 420.156 1238.38 L433.442 1238.36 Z" fill="#000000" fill-rule="evenodd" fill-opacity="1" /><path clip-path="url(#clip830)" d="M 0 0 M438.911 1229.04 L442.638 1229.04 L447.297 1246.75 L451.935 1229.04 L456.33 1229.04 L460.989 1246.75 L465.627 1229.04 L469.354 1229.04 L463.419 1251.73 L459.024 1251.73 L454.143 1233.13 L449.241 1251.73 L444.846 1251.73 L438.911 1229.04 Z" fill="#000000" fill-rule="evenodd" fill-opacity="1" /><path clip-path="url(#clip830)" d="M 0 0 M487.725 1229.71 L487.725 1233.24 Q486.145 1232.43 484.443 1232.02 Q482.742 1231.62 480.919 1231.62 Q478.144 1231.62 476.747 1232.47 Q475.369 1233.32 475.369 1235.02 Q475.369 1236.31 476.362 1237.06 Q477.354 1237.79 480.352 1238.46 L481.628 1238.74 Q485.598 1239.6 487.259 1241.16 Q488.94 1242.69 488.94 1245.47 Q488.94 1248.63 486.428 1250.47 Q483.937 1252.32 479.562 1252.32 Q477.739 1252.32 475.754 1251.95 Q473.79 1251.61 471.602 1250.9 L471.602 1247.05 Q473.668 1248.12 475.673 1248.67 Q477.678 1249.2 479.643 1249.2 Q482.276 1249.2 483.694 1248.3 Q485.112 1247.39 485.112 1245.75 Q485.112 1244.23 484.079 1243.42 Q483.066 1242.61 479.603 1241.86 L478.306 1241.56 Q474.843 1240.83 473.303 1239.33 Q471.764 1237.81 471.764 1235.18 Q471.764 1231.98 474.033 1230.24 Q476.301 1228.5 480.473 1228.5 Q482.539 1228.5 484.362 1228.8 Q486.185 1229.1 487.725 1229.71 Z" fill="#000000" fill-rule="evenodd" fill-opacity="1" /><path clip-path="url(#clip830)" d="M 0 0 M490.965 1238.7 L501.883 1238.7 L501.883 1242.03 L490.965 1242.03 L490.965 1238.7 Z" fill="#000000" fill-rule="evenodd" fill-opacity="1" /><path clip-path="url(#clip830)" d="M 0 0 M516.101 1240.32 Q511.584 1240.32 509.843 1241.36 Q508.101 1242.39 508.101 1244.88 Q508.101 1246.87 509.397 1248.04 Q510.713 1249.2 512.962 1249.2 Q516.061 1249.2 517.924 1247.01 Q519.808 1244.8 519.808 1241.16 L519.808 1240.32 L516.101 1240.32 M523.535 1238.79 L523.535 1251.73 L519.808 1251.73 L519.808 1248.28 Q518.532 1250.35 516.628 1251.34 Q514.724 1252.32 511.969 1252.32 Q508.485 1252.32 506.42 1250.37 Q504.374 1248.41 504.374 1245.12 Q504.374 1241.3 506.926 1239.35 Q509.498 1237.41 514.582 1237.41 L519.808 1237.41 L519.808 1237.04 Q519.808 1234.47 518.106 1233.07 Q516.425 1231.66 513.367 1231.66 Q511.422 1231.66 509.579 1232.12 Q507.736 1232.59 506.035 1233.52 L506.035 1230.08 Q508.08 1229.29 510.005 1228.9 Q511.929 1228.5 513.752 1228.5 Q518.674 1228.5 521.104 1231.05 Q523.535 1233.6 523.535 1238.79 Z" fill="#000000" fill-rule="evenodd" fill-opacity="1" /><path clip-path="url(#clip830)" d="M 0 0 M527.059 1242.78 L527.059 1229.04 L530.786 1229.04 L530.786 1242.63 Q530.786 1245.85 532.042 1247.47 Q533.297 1249.07 535.809 1249.07 Q538.827 1249.07 540.569 1247.15 Q542.331 1245.23 542.331 1241.9 L542.331 1229.04 L546.058 1229.04 L546.058 1251.73 L542.331 1251.73 L542.331 1248.24 Q540.974 1250.31 539.171 1251.32 Q537.389 1252.32 535.019 1252.32 Q531.11 1252.32 529.084 1249.88 Q527.059 1247.45 527.059 1242.78 M536.437 1228.5 L536.437 1228.5 Z" fill="#000000" fill-rule="evenodd" fill-opacity="1" /><path clip-path="url(#clip830)" d="M 0 0 M564.894 1240.12 Q564.894 1236.07 563.213 1233.84 Q561.552 1231.62 558.534 1231.62 Q555.537 1231.62 553.856 1233.84 Q552.195 1236.07 552.195 1240.12 Q552.195 1244.15 553.856 1246.38 Q555.537 1248.61 558.534 1248.61 Q561.552 1248.61 563.213 1246.38 Q564.894 1244.15 564.894 1240.12 M568.621 1248.91 Q568.621 1254.71 566.049 1257.52 Q563.477 1260.36 558.17 1260.36 Q556.205 1260.36 554.463 1260.05 Q552.721 1259.77 551.081 1259.16 L551.081 1255.54 Q552.721 1256.43 554.321 1256.85 Q555.922 1257.28 557.582 1257.28 Q561.249 1257.28 563.071 1255.35 Q564.894 1253.45 564.894 1249.58 L564.894 1247.74 Q563.74 1249.74 561.937 1250.74 Q560.135 1251.73 557.623 1251.73 Q553.451 1251.73 550.898 1248.55 Q548.346 1245.37 548.346 1240.12 Q548.346 1234.86 550.898 1231.68 Q553.451 1228.5 557.623 1228.5 Q560.135 1228.5 561.937 1229.49 Q563.74 1230.48 564.894 1232.49 L564.894 1229.04 L568.621 1229.04 L568.621 1248.91 Z" fill="#000000" fill-rule="evenodd" fill-opacity="1" /><path clip-path="url(#clip830)" d="M 0 0 M590.192 1233.4 Q591.59 1230.89 593.534 1229.69 Q595.479 1228.5 598.112 1228.5 Q601.656 1228.5 603.58 1230.99 Q605.505 1233.46 605.505 1238.04 L605.505 1251.73 L601.758 1251.73 L601.758 1238.16 Q601.758 1234.9 600.603 1233.32 Q599.449 1231.74 597.079 1231.74 Q594.182 1231.74 592.501 1233.66 Q590.82 1235.59 590.82 1238.91 L590.82 1251.73 L587.073 1251.73 L587.073 1238.16 Q587.073 1234.88 585.919 1233.32 Q584.764 1231.74 582.354 1231.74 Q579.498 1231.74 577.817 1233.68 Q576.136 1235.61 576.136 1238.91 L576.136 1251.73 L572.389 1251.73 L572.389 1229.04 L576.136 1229.04 L576.136 1232.57 Q577.412 1230.48 579.194 1229.49 Q580.976 1228.5 583.427 1228.5 Q585.898 1228.5 587.62 1229.75 Q589.362 1231.01 590.192 1233.4 Z" fill="#000000" fill-rule="evenodd" fill-opacity="1" /><path clip-path="url(#clip830)" d="M 0 0 M628.818 1239.45 L628.818 1241.28 L611.682 1241.28 Q611.925 1245.12 613.991 1247.15 Q616.078 1249.16 619.784 1249.16 Q621.931 1249.16 623.936 1248.63 Q625.962 1248.1 627.947 1247.05 L627.947 1250.57 Q625.941 1251.42 623.835 1251.87 Q621.729 1252.32 619.561 1252.32 Q614.133 1252.32 610.953 1249.16 Q607.793 1246 607.793 1240.61 Q607.793 1235.04 610.791 1231.78 Q613.809 1228.5 618.913 1228.5 Q623.491 1228.5 626.144 1231.45 Q628.818 1234.39 628.818 1239.45 M625.091 1238.36 Q625.05 1235.3 623.369 1233.48 Q621.708 1231.66 618.954 1231.66 Q615.834 1231.66 613.951 1233.42 Q612.087 1235.18 611.804 1238.38 L625.091 1238.36 Z" fill="#000000" fill-rule="evenodd" fill-opacity="1" /><path clip-path="url(#clip830)" d="M 0 0 M651.584 1238.04 L651.584 1251.73 L647.857 1251.73 L647.857 1238.16 Q647.857 1234.94 646.601 1233.34 Q645.345 1231.74 642.834 1231.74 Q639.816 1231.74 638.074 1233.66 Q636.332 1235.59 636.332 1238.91 L636.332 1251.73 L632.585 1251.73 L632.585 1229.04 L636.332 1229.04 L636.332 1232.57 Q637.669 1230.52 639.471 1229.51 Q641.294 1228.5 643.664 1228.5 Q647.573 1228.5 649.578 1230.93 Q651.584 1233.34 651.584 1238.04 Z" fill="#000000" fill-rule="evenodd" fill-opacity="1" /><path clip-path="url(#clip830)" d="M 0 0 M659.179 1222.6 L659.179 1229.04 L666.856 1229.04 L666.856 1231.94 L659.179 1231.94 L659.179 1244.25 Q659.179 1247.03 659.929 1247.82 Q660.698 1248.61 663.027 1248.61 L666.856 1248.61 L666.856 1251.73 L663.027 1251.73 Q658.713 1251.73 657.073 1250.13 Q655.432 1248.51 655.432 1244.25 L655.432 1231.94 L652.698 1231.94 L652.698 1229.04 L655.432 1229.04 L655.432 1222.6 L659.179 1222.6 Z" fill="#000000" fill-rule="evenodd" fill-opacity="1" /><path clip-path="url(#clip830)" d="M 0 0 M690.169 1239.45 L690.169 1241.28 L673.033 1241.28 Q673.276 1245.12 675.342 1247.15 Q677.428 1249.16 681.135 1249.16 Q683.282 1249.16 685.287 1248.63 Q687.313 1248.1 689.298 1247.05 L689.298 1250.57 Q687.292 1251.42 685.186 1251.87 Q683.079 1252.32 680.912 1252.32 Q675.484 1252.32 672.304 1249.16 Q669.144 1246 669.144 1240.61 Q669.144 1235.04 672.142 1231.78 Q675.16 1228.5 680.264 1228.5 Q684.842 1228.5 687.495 1231.45 Q690.169 1234.39 690.169 1239.45 M686.442 1238.36 Q686.401 1235.3 684.72 1233.48 Q683.059 1231.66 680.305 1231.66 Q677.185 1231.66 675.302 1233.42 Q673.438 1235.18 673.155 1238.38 L686.442 1238.36 Z" fill="#000000" fill-rule="evenodd" fill-opacity="1" /><path clip-path="url(#clip830)" d="M 0 0 M709.005 1232.49 L709.005 1220.21 L712.732 1220.21 L712.732 1251.73 L709.005 1251.73 L709.005 1248.33 Q707.83 1250.35 706.028 1251.34 Q704.245 1252.32 701.734 1252.32 Q697.622 1252.32 695.03 1249.03 Q692.457 1245.75 692.457 1240.41 Q692.457 1235.06 695.03 1231.78 Q697.622 1228.5 701.734 1228.5 Q704.245 1228.5 706.028 1229.49 Q707.83 1230.46 709.005 1232.49 M696.306 1240.41 Q696.306 1244.52 697.987 1246.87 Q699.688 1249.2 702.645 1249.2 Q705.602 1249.2 707.304 1246.87 Q709.005 1244.52 709.005 1240.41 Q709.005 1236.29 707.304 1233.96 Q705.602 1231.62 702.645 1231.62 Q699.688 1231.62 697.987 1233.96 Q696.306 1236.29 696.306 1240.41 Z" fill="#000000" fill-rule="evenodd" fill-opacity="1" /><path clip-path="url(#clip830)" d="M 0 0 M746.152 1229.91 L746.152 1233.4 Q744.572 1232.53 742.972 1232.1 Q741.392 1231.66 739.772 1231.66 Q736.146 1231.66 734.141 1233.96 Q732.136 1236.25 732.136 1240.41 Q732.136 1244.56 734.141 1246.87 Q736.146 1249.16 739.772 1249.16 Q741.392 1249.16 742.972 1248.73 Q744.572 1248.28 746.152 1247.41 L746.152 1250.86 Q744.592 1251.59 742.911 1251.95 Q741.25 1252.32 739.367 1252.32 Q734.242 1252.32 731.224 1249.09 Q728.207 1245.87 728.207 1240.41 Q728.207 1234.86 731.245 1231.68 Q734.303 1228.5 739.61 1228.5 Q741.331 1228.5 742.972 1228.86 Q744.613 1229.2 746.152 1229.91 Z" fill="#000000" fill-rule="evenodd" fill-opacity="1" /><path clip-path="url(#clip830)" d="M 0 0 M758.852 1231.66 Q755.854 1231.66 754.112 1234.01 Q752.37 1236.33 752.37 1240.41 Q752.37 1244.48 754.092 1246.83 Q755.834 1249.16 758.852 1249.16 Q761.829 1249.16 763.571 1246.81 Q765.313 1244.46 765.313 1240.41 Q765.313 1236.37 763.571 1234.03 Q761.829 1231.66 758.852 1231.66 M758.852 1228.5 Q763.713 1228.5 766.488 1231.66 Q769.262 1234.82 769.262 1240.41 Q769.262 1245.98 766.488 1249.16 Q763.713 1252.32 758.852 1252.32 Q753.97 1252.32 751.195 1249.16 Q748.441 1245.98 748.441 1240.41 Q748.441 1234.82 751.195 1231.66 Q753.97 1228.5 758.852 1228.5 Z" fill="#000000" fill-rule="evenodd" fill-opacity="1" /><path clip-path="url(#clip830)" d="M 0 0 M790.834 1233.4 Q792.231 1230.89 794.176 1229.69 Q796.12 1228.5 798.753 1228.5 Q802.298 1228.5 804.222 1230.99 Q806.146 1233.46 806.146 1238.04 L806.146 1251.73 L802.399 1251.73 L802.399 1238.16 Q802.399 1234.9 801.244 1233.32 Q800.09 1231.74 797.72 1231.74 Q794.824 1231.74 793.143 1233.66 Q791.461 1235.59 791.461 1238.91 L791.461 1251.73 L787.714 1251.73 L787.714 1238.16 Q787.714 1234.88 786.56 1233.32 Q785.405 1231.74 782.995 1231.74 Q780.139 1231.74 778.458 1233.68 Q776.777 1235.61 776.777 1238.91 L776.777 1251.73 L773.03 1251.73 L773.03 1229.04 L776.777 1229.04 L776.777 1232.57 Q778.053 1230.48 779.835 1229.49 Q781.618 1228.5 784.069 1228.5 Q786.54 1228.5 788.261 1229.75 Q790.003 1231.01 790.834 1233.4 Z" fill="#000000" fill-rule="evenodd" fill-opacity="1" /><path clip-path="url(#clip830)" d="M 0 0 M827.717 1233.4 Q829.115 1230.89 831.059 1229.69 Q833.003 1228.5 835.637 1228.5 Q839.181 1228.5 841.105 1230.99 Q843.029 1233.46 843.029 1238.04 L843.029 1251.73 L839.282 1251.73 L839.282 1238.16 Q839.282 1234.9 838.128 1233.32 Q836.973 1231.74 834.604 1231.74 Q831.707 1231.74 830.026 1233.66 Q828.345 1235.59 828.345 1238.91 L828.345 1251.73 L824.598 1251.73 L824.598 1238.16 Q824.598 1234.88 823.443 1233.32 Q822.289 1231.74 819.879 1231.74 Q817.023 1231.74 815.341 1233.68 Q813.66 1235.61 813.66 1238.91 L813.66 1251.73 L809.913 1251.73 L809.913 1229.04 L813.66 1229.04 L813.66 1232.57 Q814.936 1230.48 816.719 1229.49 Q818.501 1228.5 820.952 1228.5 Q823.423 1228.5 825.145 1229.75 Q826.887 1231.01 827.717 1233.4 Z" fill="#000000" fill-rule="evenodd" fill-opacity="1" /><path clip-path="url(#clip830)" d="M 0 0 M847.465 1246.58 L851.739 1246.58 L851.739 1251.73 L847.465 1251.73 L847.465 1246.58 Z" fill="#000000" fill-rule="evenodd" fill-opacity="1" /><path clip-path="url(#clip830)" d="M 0 0 M883.295 1229.71 L883.295 1233.24 Q881.716 1232.43 880.014 1232.02 Q878.313 1231.62 876.49 1231.62 Q873.715 1231.62 872.317 1232.47 Q870.94 1233.32 870.94 1235.02 Q870.94 1236.31 871.933 1237.06 Q872.925 1237.79 875.923 1238.46 L877.199 1238.74 Q881.169 1239.6 882.83 1241.16 Q884.511 1242.69 884.511 1245.47 Q884.511 1248.63 881.999 1250.47 Q879.508 1252.32 875.133 1252.32 Q873.31 1252.32 871.325 1251.95 Q869.36 1251.61 867.173 1250.9 L867.173 1247.05 Q869.239 1248.12 871.244 1248.67 Q873.249 1249.2 875.214 1249.2 Q877.847 1249.2 879.265 1248.3 Q880.683 1247.39 880.683 1245.75 Q880.683 1244.23 879.65 1243.42 Q878.637 1242.61 875.173 1241.86 L873.877 1241.56 Q870.414 1240.83 868.874 1239.33 Q867.335 1237.81 867.335 1235.18 Q867.335 1231.98 869.603 1230.24 Q871.872 1228.5 876.044 1228.5 Q878.11 1228.5 879.933 1228.8 Q881.756 1229.1 883.295 1229.71 Z" fill="#000000" fill-rule="evenodd" fill-opacity="1" /><path clip-path="url(#clip830)" d="M 0 0 M907.277 1238.04 L907.277 1251.73 L903.55 1251.73 L903.55 1238.16 Q903.55 1234.94 902.294 1233.34 Q901.038 1231.74 898.527 1231.74 Q895.509 1231.74 893.767 1233.66 Q892.025 1235.59 892.025 1238.91 L892.025 1251.73 L888.278 1251.73 L888.278 1220.21 L892.025 1220.21 L892.025 1232.57 Q893.362 1230.52 895.165 1229.51 Q896.987 1228.5 899.357 1228.5 Q903.266 1228.5 905.272 1230.93 Q907.277 1233.34 907.277 1238.04 Z" fill="#000000" fill-rule="evenodd" fill-opacity="1" /><path clip-path="url(#clip830)" d="M 0 0 M919.976 1231.66 Q916.979 1231.66 915.237 1234.01 Q913.495 1236.33 913.495 1240.41 Q913.495 1244.48 915.217 1246.83 Q916.958 1249.16 919.976 1249.16 Q922.954 1249.16 924.696 1246.81 Q926.438 1244.46 926.438 1240.41 Q926.438 1236.37 924.696 1234.03 Q922.954 1231.66 919.976 1231.66 M919.976 1228.5 Q924.837 1228.5 927.612 1231.66 Q930.387 1234.82 930.387 1240.41 Q930.387 1245.98 927.612 1249.16 Q924.837 1252.32 919.976 1252.32 Q915.095 1252.32 912.32 1249.16 Q909.566 1245.98 909.566 1240.41 Q909.566 1234.82 912.32 1231.66 Q915.095 1228.5 919.976 1228.5 Z" fill="#000000" fill-rule="evenodd" fill-opacity="1" /><path clip-path="url(#clip830)" d="M 0 0 M950.621 1229.91 L950.621 1233.4 Q949.042 1232.53 947.441 1232.1 Q945.862 1231.66 944.241 1231.66 Q940.616 1231.66 938.611 1233.96 Q936.605 1236.25 936.605 1240.41 Q936.605 1244.56 938.611 1246.87 Q940.616 1249.16 944.241 1249.16 Q945.862 1249.16 947.441 1248.73 Q949.042 1248.28 950.621 1247.41 L950.621 1250.86 Q949.062 1251.59 947.381 1251.95 Q945.72 1252.32 943.836 1252.32 Q938.712 1252.32 935.694 1249.09 Q932.676 1245.87 932.676 1240.41 Q932.676 1234.86 935.714 1231.68 Q938.773 1228.5 944.079 1228.5 Q945.801 1228.5 947.441 1228.86 Q949.082 1229.2 950.621 1229.91 Z" fill="#000000" fill-rule="evenodd" fill-opacity="1" /><path clip-path="url(#clip830)" d="M 0 0 M954.389 1220.21 L958.136 1220.21 L958.136 1238.83 L969.256 1229.04 L974.015 1229.04 L961.984 1239.66 L974.522 1251.73 L969.661 1251.73 L958.136 1240.65 L958.136 1251.73 L954.389 1251.73 L954.389 1220.21 Z" fill="#000000" fill-rule="evenodd" fill-opacity="1" /><path clip-path="url(#clip830)" d="M 0 0 M992.893 1229.71 L992.893 1233.24 Q991.313 1232.43 989.611 1232.02 Q987.91 1231.62 986.087 1231.62 Q983.312 1231.62 981.915 1232.47 Q980.537 1233.32 980.537 1235.02 Q980.537 1236.31 981.53 1237.06 Q982.522 1237.79 985.52 1238.46 L986.796 1238.74 Q990.766 1239.6 992.427 1241.16 Q994.108 1242.69 994.108 1245.47 Q994.108 1248.63 991.596 1250.47 Q989.105 1252.32 984.73 1252.32 Q982.907 1252.32 980.922 1251.95 Q978.958 1251.61 976.77 1250.9 L976.77 1247.05 Q978.836 1248.12 980.841 1248.67 Q982.846 1249.2 984.811 1249.2 Q987.444 1249.2 988.862 1248.3 Q990.28 1247.39 990.28 1245.75 Q990.28 1244.23 989.247 1243.42 Q988.234 1242.61 984.771 1241.86 L983.474 1241.56 Q980.011 1240.83 978.471 1239.33 Q976.932 1237.81 976.932 1235.18 Q976.932 1231.98 979.201 1230.24 Q981.469 1228.5 985.642 1228.5 Q987.707 1228.5 989.53 1228.8 Q991.353 1229.1 992.893 1229.71 Z" fill="#000000" fill-rule="evenodd" fill-opacity="1" /><polyline clip-path="url(#clip830)" style="stroke:#ff0000; stroke-width:3.5; stroke-opacity:0.85; fill:none" points="
  222.969,1289.53 366.969,1289.53 
  "/>
<path clip-path="url(#clip830)" d="M 0 0 M413.33 1300.33 L413.33 1292.21 L406.646 1292.21 L406.646 1288.85 L417.381 1288.85 L417.381 1301.83 Q415.011 1303.51 412.155 1304.38 Q409.299 1305.24 406.058 1305.24 Q398.969 1305.24 394.959 1301.1 Q390.969 1296.95 390.969 1289.56 Q390.969 1282.15 394.959 1278.01 Q398.969 1273.86 406.058 1273.86 Q409.016 1273.86 411.669 1274.59 Q414.342 1275.32 416.591 1276.74 L416.591 1281.09 Q414.322 1279.17 411.77 1278.2 Q409.218 1277.22 406.403 1277.22 Q400.853 1277.22 398.058 1280.32 Q395.283 1283.42 395.283 1289.56 Q395.283 1295.68 398.058 1298.77 Q400.853 1301.87 406.403 1301.87 Q408.57 1301.87 410.271 1301.51 Q411.973 1301.12 413.33 1300.33 Z" fill="#000000" fill-rule="evenodd" fill-opacity="1" /><path clip-path="url(#clip830)" d="M 0 0 M425.341 1301.2 L439.62 1301.2 L439.62 1304.65 L420.419 1304.65 L420.419 1301.2 Q422.748 1298.79 426.759 1294.74 Q430.789 1290.67 431.822 1289.5 Q433.787 1287.29 434.556 1285.77 Q435.346 1284.23 435.346 1282.75 Q435.346 1280.34 433.645 1278.82 Q431.964 1277.3 429.25 1277.3 Q427.326 1277.3 425.179 1277.97 Q423.052 1278.64 420.621 1280 L420.621 1275.87 Q423.092 1274.87 425.239 1274.37 Q427.386 1273.86 429.169 1273.86 Q433.868 1273.86 436.663 1276.21 Q439.458 1278.56 439.458 1282.49 Q439.458 1284.35 438.749 1286.03 Q438.061 1287.69 436.217 1289.96 Q435.711 1290.55 432.997 1293.37 Q430.283 1296.16 425.341 1301.2 Z" fill="#000000" fill-rule="evenodd" fill-opacity="1" /><path clip-path="url(#clip830)" d="M 0 0 M452.806 1277.1 Q449.646 1277.1 448.046 1280.22 Q446.466 1283.32 446.466 1289.56 Q446.466 1295.78 448.046 1298.9 Q449.646 1301.99 452.806 1301.99 Q455.986 1301.99 457.566 1298.9 Q459.166 1295.78 459.166 1289.56 Q459.166 1283.32 457.566 1280.22 Q455.986 1277.1 452.806 1277.1 M452.806 1273.86 Q457.89 1273.86 460.563 1277.89 Q463.257 1281.9 463.257 1289.56 Q463.257 1297.19 460.563 1301.22 Q457.89 1305.24 452.806 1305.24 Q447.722 1305.24 445.028 1301.22 Q442.354 1297.19 442.354 1289.56 Q442.354 1281.9 445.028 1277.89 Q447.722 1273.86 452.806 1273.86 Z" fill="#000000" fill-rule="evenodd" fill-opacity="1" /><path clip-path="url(#clip830)" d="M 0 0 M489.142 1284.58 Q486.145 1284.58 484.403 1286.93 Q482.661 1289.25 482.661 1293.33 Q482.661 1297.4 484.383 1299.75 Q486.125 1302.08 489.142 1302.08 Q492.12 1302.08 493.862 1299.73 Q495.604 1297.38 495.604 1293.33 Q495.604 1289.29 493.862 1286.95 Q492.12 1284.58 489.142 1284.58 M489.142 1281.42 Q494.004 1281.42 496.778 1284.58 Q499.553 1287.74 499.553 1293.33 Q499.553 1298.9 496.778 1302.08 Q494.004 1305.24 489.142 1305.24 Q484.261 1305.24 481.486 1302.08 Q478.732 1298.9 478.732 1293.33 Q478.732 1287.74 481.486 1284.58 Q484.261 1281.42 489.142 1281.42 Z" fill="#000000" fill-rule="evenodd" fill-opacity="1" /><path clip-path="url(#clip830)" d="M 0 0 M503.078 1295.7 L503.078 1281.96 L506.804 1281.96 L506.804 1295.55 Q506.804 1298.77 508.06 1300.39 Q509.316 1301.99 511.827 1301.99 Q514.845 1301.99 516.587 1300.07 Q518.349 1298.15 518.349 1294.82 L518.349 1281.96 L522.076 1281.96 L522.076 1304.65 L518.349 1304.65 L518.349 1301.16 Q516.992 1303.23 515.19 1304.24 Q513.407 1305.24 511.038 1305.24 Q507.128 1305.24 505.103 1302.8 Q503.078 1300.37 503.078 1295.7 M512.455 1281.42 L512.455 1281.42 Z" fill="#000000" fill-rule="evenodd" fill-opacity="1" /><path clip-path="url(#clip830)" d="M 0 0 M529.672 1275.52 L529.672 1281.96 L537.348 1281.96 L537.348 1284.86 L529.672 1284.86 L529.672 1297.17 Q529.672 1299.95 530.421 1300.74 Q531.191 1301.53 533.52 1301.53 L537.348 1301.53 L537.348 1304.65 L533.52 1304.65 Q529.206 1304.65 527.565 1303.05 Q525.925 1301.43 525.925 1297.17 L525.925 1284.86 L523.19 1284.86 L523.19 1281.96 L525.925 1281.96 L525.925 1275.52 L529.672 1275.52 Z" fill="#000000" fill-rule="evenodd" fill-opacity="1" /><path clip-path="url(#clip830)" d="M 0 0 M544.863 1301.25 L544.863 1313.28 L541.116 1313.28 L541.116 1281.96 L544.863 1281.96 L544.863 1285.41 Q546.037 1283.38 547.82 1282.41 Q549.622 1281.42 552.114 1281.42 Q556.246 1281.42 558.818 1284.7 Q561.411 1287.98 561.411 1293.33 Q561.411 1298.67 558.818 1301.95 Q556.246 1305.24 552.114 1305.24 Q549.622 1305.24 547.82 1304.26 Q546.037 1303.27 544.863 1301.25 M557.542 1293.33 Q557.542 1289.21 555.841 1286.88 Q554.159 1284.54 551.202 1284.54 Q548.245 1284.54 546.544 1286.88 Q544.863 1289.21 544.863 1293.33 Q544.863 1297.44 546.544 1299.79 Q548.245 1302.12 551.202 1302.12 Q554.159 1302.12 555.841 1299.79 Q557.542 1297.44 557.542 1293.33 Z" fill="#000000" fill-rule="evenodd" fill-opacity="1" /><path clip-path="url(#clip830)" d="M 0 0 M564.935 1295.7 L564.935 1281.96 L568.662 1281.96 L568.662 1295.55 Q568.662 1298.77 569.917 1300.39 Q571.173 1301.99 573.685 1301.99 Q576.703 1301.99 578.445 1300.07 Q580.207 1298.15 580.207 1294.82 L580.207 1281.96 L583.934 1281.96 L583.934 1304.65 L580.207 1304.65 L580.207 1301.16 Q578.85 1303.23 577.047 1304.24 Q575.265 1305.24 572.895 1305.24 Q568.986 1305.24 566.96 1302.8 Q564.935 1300.37 564.935 1295.7 M574.313 1281.42 L574.313 1281.42 Z" fill="#000000" fill-rule="evenodd" fill-opacity="1" /><path clip-path="url(#clip830)" d="M 0 0 M591.529 1275.52 L591.529 1281.96 L599.205 1281.96 L599.205 1284.86 L591.529 1284.86 L591.529 1297.17 Q591.529 1299.95 592.278 1300.74 Q593.048 1301.53 595.377 1301.53 L599.205 1301.53 L599.205 1304.65 L595.377 1304.65 Q591.063 1304.65 589.423 1303.05 Q587.782 1301.43 587.782 1297.17 L587.782 1284.86 L585.048 1284.86 L585.048 1281.96 L587.782 1281.96 L587.782 1275.52 L591.529 1275.52 Z" fill="#000000" fill-rule="evenodd" fill-opacity="1" /></svg>
