<?xml version="1.0" encoding="utf-8"?>
<svg xmlns="http://www.w3.org/2000/svg" xmlns:xlink="http://www.w3.org/1999/xlink" width="600" height="400" viewBox="0 0 2400 1600">
<defs>
  <clipPath id="clip390">
    <rect x="0" y="0" width="2400" height="1600"/>
  </clipPath>
</defs>
<path clip-path="url(#clip390)" d="
M0 1600 L2400 1600 L2400 0 L0 0  Z
  " fill="#ffffff" fill-rule="evenodd" fill-opacity="1"/>
<defs>
  <clipPath id="clip391">
    <rect x="480" y="0" width="1681" height="1600"/>
  </clipPath>
</defs>
<path clip-path="url(#clip390)" d="
M125.835 1486.45 L2352.76 1486.45 L2352.76 106.192 L125.835 106.192  Z
  " fill="#ffffff" fill-rule="evenodd" fill-opacity="1"/>
<defs>
  <clipPath id="clip392">
    <rect x="125" y="106" width="2228" height="1381"/>
  </clipPath>
</defs>
<polyline clip-path="url(#clip392)" style="stroke:#000000; stroke-width:2; stroke-opacity:0.1; fill:none" points="
  188.861,1486.45 188.861,106.192 
  "/>
<polyline clip-path="url(#clip392)" style="stroke:#000000; stroke-width:2; stroke-opacity:0.1; fill:none" points="
  503.991,1486.45 503.991,106.192 
  "/>
<polyline clip-path="url(#clip392)" style="stroke:#000000; stroke-width:2; stroke-opacity:0.1; fill:none" points="
  819.121,1486.45 819.121,106.192 
  "/>
<polyline clip-path="url(#clip392)" style="stroke:#000000; stroke-width:2; stroke-opacity:0.1; fill:none" points="
  1134.25,1486.45 1134.25,106.192 
  "/>
<polyline clip-path="url(#clip392)" style="stroke:#000000; stroke-width:2; stroke-opacity:0.1; fill:none" points="
  1449.38,1486.45 1449.38,106.192 
  "/>
<polyline clip-path="url(#clip392)" style="stroke:#000000; stroke-width:2; stroke-opacity:0.1; fill:none" points="
  1764.51,1486.45 1764.51,106.192 
  "/>
<polyline clip-path="url(#clip392)" style="stroke:#000000; stroke-width:2; stroke-opacity:0.1; fill:none" points="
  2079.64,1486.45 2079.64,106.192 
  "/>
<polyline clip-path="url(#clip392)" style="stroke:#000000; stroke-width:2; stroke-opacity:0.1; fill:none" points="
  125.835,1340.18 2352.76,1340.18 
  "/>
<polyline clip-path="url(#clip392)" style="stroke:#000000; stroke-width:2; stroke-opacity:0.1; fill:none" points="
  125.835,1128.83 2352.76,1128.83 
  "/>
<polyline clip-path="url(#clip392)" style="stroke:#000000; stroke-width:2; stroke-opacity:0.1; fill:none" points="
  125.835,917.474 2352.76,917.474 
  "/>
<polyline clip-path="url(#clip392)" style="stroke:#000000; stroke-width:2; stroke-opacity:0.1; fill:none" points="
  125.835,706.121 2352.76,706.121 
  "/>
<polyline clip-path="url(#clip392)" style="stroke:#000000; stroke-width:2; stroke-opacity:0.1; fill:none" points="
  125.835,494.768 2352.76,494.768 
  "/>
<polyline clip-path="url(#clip392)" style="stroke:#000000; stroke-width:2; stroke-opacity:0.1; fill:none" points="
  125.835,283.415 2352.76,283.415 
  "/>
<polyline clip-path="url(#clip390)" style="stroke:#000000; stroke-width:4; stroke-opacity:1; fill:none" points="
  125.835,1486.45 2352.76,1486.45 
  "/>
<polyline clip-path="url(#clip390)" style="stroke:#000000; stroke-width:4; stroke-opacity:1; fill:none" points="
  125.835,1486.45 125.835,106.192 
  "/>
<polyline clip-path="url(#clip390)" style="stroke:#000000; stroke-width:4; stroke-opacity:1; fill:none" points="
  188.861,1486.45 188.861,1469.88 
  "/>
<polyline clip-path="url(#clip390)" style="stroke:#000000; stroke-width:4; stroke-opacity:1; fill:none" points="
  503.991,1486.45 503.991,1469.88 
  "/>
<polyline clip-path="url(#clip390)" style="stroke:#000000; stroke-width:4; stroke-opacity:1; fill:none" points="
  819.121,1486.45 819.121,1469.88 
  "/>
<polyline clip-path="url(#clip390)" style="stroke:#000000; stroke-width:4; stroke-opacity:1; fill:none" points="
  1134.25,1486.45 1134.25,1469.88 
  "/>
<polyline clip-path="url(#clip390)" style="stroke:#000000; stroke-width:4; stroke-opacity:1; fill:none" points="
  1449.38,1486.45 1449.38,1469.88 
  "/>
<polyline clip-path="url(#clip390)" style="stroke:#000000; stroke-width:4; stroke-opacity:1; fill:none" points="
  1764.51,1486.45 1764.51,1469.88 
  "/>
<polyline clip-path="url(#clip390)" style="stroke:#000000; stroke-width:4; stroke-opacity:1; fill:none" points="
  2079.64,1486.45 2079.64,1469.88 
  "/>
<polyline clip-path="url(#clip390)" style="stroke:#000000; stroke-width:4; stroke-opacity:1; fill:none" points="
  125.835,1340.18 152.558,1340.18 
  "/>
<polyline clip-path="url(#clip390)" style="stroke:#000000; stroke-width:4; stroke-opacity:1; fill:none" points="
  125.835,1128.83 152.558,1128.83 
  "/>
<polyline clip-path="url(#clip390)" style="stroke:#000000; stroke-width:4; stroke-opacity:1; fill:none" points="
  125.835,917.474 152.558,917.474 
  "/>
<polyline clip-path="url(#clip390)" style="stroke:#000000; stroke-width:4; stroke-opacity:1; fill:none" points="
  125.835,706.121 152.558,706.121 
  "/>
<polyline clip-path="url(#clip390)" style="stroke:#000000; stroke-width:4; stroke-opacity:1; fill:none" points="
  125.835,494.768 152.558,494.768 
  "/>
<polyline clip-path="url(#clip390)" style="stroke:#000000; stroke-width:4; stroke-opacity:1; fill:none" points="
  125.835,283.415 152.558,283.415 
  "/>
<path clip-path="url(#clip390)" d="M 0 0 M107.877 1535.98 L115.516 1535.98 L115.516 1509.62 L107.206 1511.29 L107.206 1507.03 L115.47 1505.36 L120.146 1505.36 L120.146 1535.98 L127.785 1535.98 L127.785 1539.92 L107.877 1539.92 L107.877 1535.98 Z" fill="#000000" fill-rule="evenodd" fill-opacity="1" /><path clip-path="url(#clip390)" d="M 0 0 M132.993 1539.2 L132.993 1534.94 Q134.752 1535.78 136.558 1536.22 Q138.363 1536.66 140.099 1536.66 Q144.729 1536.66 147.159 1533.55 Q149.613 1530.43 149.96 1524.09 Q148.618 1526.08 146.558 1527.14 Q144.497 1528.21 141.997 1528.21 Q136.812 1528.21 133.78 1525.08 Q130.771 1521.93 130.771 1516.49 Q130.771 1511.17 133.919 1507.95 Q137.067 1504.73 142.298 1504.73 Q148.294 1504.73 151.442 1509.34 Q154.613 1513.92 154.613 1522.67 Q154.613 1530.85 150.724 1535.73 Q146.858 1540.59 140.308 1540.59 Q138.548 1540.59 136.743 1540.24 Q134.937 1539.9 132.993 1539.2 M142.298 1524.55 Q145.446 1524.55 147.275 1522.4 Q149.127 1520.24 149.127 1516.49 Q149.127 1512.77 147.275 1510.61 Q145.446 1508.44 142.298 1508.44 Q139.15 1508.44 137.298 1510.61 Q135.47 1512.77 135.47 1516.49 Q135.47 1520.24 137.298 1522.4 Q139.15 1524.55 142.298 1524.55 Z" fill="#000000" fill-rule="evenodd" fill-opacity="1" /><path clip-path="url(#clip390)" d="M 0 0 M159.821 1539.2 L159.821 1534.94 Q161.581 1535.78 163.386 1536.22 Q165.192 1536.66 166.928 1536.66 Q171.557 1536.66 173.988 1533.55 Q176.442 1530.43 176.789 1524.09 Q175.446 1526.08 173.386 1527.14 Q171.326 1528.21 168.826 1528.21 Q163.641 1528.21 160.608 1525.08 Q157.599 1521.93 157.599 1516.49 Q157.599 1511.17 160.747 1507.95 Q163.895 1504.73 169.127 1504.73 Q175.122 1504.73 178.27 1509.34 Q181.442 1513.92 181.442 1522.67 Q181.442 1530.85 177.553 1535.73 Q173.687 1540.59 167.136 1540.59 Q165.377 1540.59 163.571 1540.24 Q161.766 1539.9 159.821 1539.2 M169.127 1524.55 Q172.275 1524.55 174.104 1522.4 Q175.956 1520.24 175.956 1516.49 Q175.956 1512.77 174.104 1510.61 Q172.275 1508.44 169.127 1508.44 Q165.979 1508.44 164.127 1510.61 Q162.298 1512.77 162.298 1516.49 Q162.298 1520.24 164.127 1522.4 Q165.979 1524.55 169.127 1524.55 Z" fill="#000000" fill-rule="evenodd" fill-opacity="1" /><path clip-path="url(#clip390)" d="M 0 0 M196.511 1523.51 Q193.178 1523.51 191.256 1525.29 Q189.358 1527.07 189.358 1530.2 Q189.358 1533.32 191.256 1535.11 Q193.178 1536.89 196.511 1536.89 Q199.844 1536.89 201.766 1535.11 Q203.687 1533.3 203.687 1530.2 Q203.687 1527.07 201.766 1525.29 Q199.867 1523.51 196.511 1523.51 M191.835 1521.52 Q188.826 1520.78 187.136 1518.72 Q185.469 1516.66 185.469 1513.69 Q185.469 1509.55 188.409 1507.14 Q191.372 1504.73 196.511 1504.73 Q201.673 1504.73 204.613 1507.14 Q207.553 1509.55 207.553 1513.69 Q207.553 1516.66 205.863 1518.72 Q204.196 1520.78 201.21 1521.52 Q204.59 1522.3 206.465 1524.6 Q208.363 1526.89 208.363 1530.2 Q208.363 1535.22 205.284 1537.91 Q202.229 1540.59 196.511 1540.59 Q190.793 1540.59 187.715 1537.91 Q184.659 1535.22 184.659 1530.2 Q184.659 1526.89 186.557 1524.6 Q188.455 1522.3 191.835 1521.52 M190.122 1514.13 Q190.122 1516.82 191.789 1518.32 Q193.479 1519.83 196.511 1519.83 Q199.52 1519.83 201.21 1518.32 Q202.923 1516.82 202.923 1514.13 Q202.923 1511.45 201.21 1509.94 Q199.52 1508.44 196.511 1508.44 Q193.479 1508.44 191.789 1509.94 Q190.122 1511.45 190.122 1514.13 Z" fill="#000000" fill-rule="evenodd" fill-opacity="1" /><path clip-path="url(#clip390)" d="M 0 0 M227.043 1508.53 Q221.951 1508.53 218.941 1512.33 Q215.955 1516.12 215.955 1522.67 Q215.955 1529.2 218.941 1533 Q221.951 1536.79 227.043 1536.79 Q232.136 1536.79 235.099 1533 Q238.085 1529.2 238.085 1522.67 Q238.085 1516.12 235.099 1512.33 Q232.136 1508.53 227.043 1508.53 M233.594 1539.29 L239.752 1546.03 L234.103 1546.03 L228.988 1540.5 Q228.224 1540.54 227.807 1540.57 Q227.414 1540.59 227.043 1540.59 Q219.752 1540.59 215.377 1535.73 Q211.025 1530.85 211.025 1522.67 Q211.025 1514.48 215.377 1509.62 Q219.752 1504.73 227.043 1504.73 Q234.312 1504.73 238.664 1509.62 Q243.015 1514.48 243.015 1522.67 Q243.015 1528.69 240.585 1532.98 Q238.177 1537.26 233.594 1539.29 Z" fill="#000000" fill-rule="evenodd" fill-opacity="1" /><path clip-path="url(#clip390)" d="M 0 0 M260.932 1509.43 L249.126 1527.88 L260.932 1527.88 L260.932 1509.43 M259.705 1505.36 L265.585 1505.36 L265.585 1527.88 L270.515 1527.88 L270.515 1531.77 L265.585 1531.77 L265.585 1539.92 L260.932 1539.92 L260.932 1531.77 L245.33 1531.77 L245.33 1527.26 L259.705 1505.36 Z" fill="#000000" fill-rule="evenodd" fill-opacity="1" /><path clip-path="url(#clip390)" d="M 0 0 M427.66 1535.98 L443.98 1535.98 L443.98 1539.92 L422.035 1539.92 L422.035 1535.98 Q424.697 1533.23 429.281 1528.6 Q433.887 1523.95 435.068 1522.61 Q437.313 1520.08 438.193 1518.35 Q439.095 1516.59 439.095 1514.9 Q439.095 1512.14 437.151 1510.41 Q435.23 1508.67 432.128 1508.67 Q429.929 1508.67 427.475 1509.43 Q425.045 1510.2 422.267 1511.75 L422.267 1507.03 Q425.091 1505.89 427.545 1505.31 Q429.998 1504.73 432.035 1504.73 Q437.406 1504.73 440.6 1507.42 Q443.795 1510.11 443.795 1514.6 Q443.795 1516.73 442.984 1518.65 Q442.197 1520.54 440.091 1523.14 Q439.512 1523.81 436.41 1527.03 Q433.308 1530.22 427.66 1535.98 Z" fill="#000000" fill-rule="evenodd" fill-opacity="1" /><path clip-path="url(#clip390)" d="M 0 0 M459.049 1508.44 Q455.438 1508.44 453.609 1512 Q451.804 1515.55 451.804 1522.67 Q451.804 1529.78 453.609 1533.35 Q455.438 1536.89 459.049 1536.89 Q462.683 1536.89 464.489 1533.35 Q466.318 1529.78 466.318 1522.67 Q466.318 1515.55 464.489 1512 Q462.683 1508.44 459.049 1508.44 M459.049 1504.73 Q464.859 1504.73 467.915 1509.34 Q470.993 1513.92 470.993 1522.67 Q470.993 1531.4 467.915 1536.01 Q464.859 1540.59 459.049 1540.59 Q453.239 1540.59 450.16 1536.01 Q447.105 1531.4 447.105 1522.67 Q447.105 1513.92 450.16 1509.34 Q453.239 1504.73 459.049 1504.73 Z" fill="#000000" fill-rule="evenodd" fill-opacity="1" /><path clip-path="url(#clip390)" d="M 0 0 M486.063 1508.44 Q482.452 1508.44 480.623 1512 Q478.817 1515.55 478.817 1522.67 Q478.817 1529.78 480.623 1533.35 Q482.452 1536.89 486.063 1536.89 Q489.697 1536.89 491.503 1533.35 Q493.331 1529.78 493.331 1522.67 Q493.331 1515.55 491.503 1512 Q489.697 1508.44 486.063 1508.44 M486.063 1504.73 Q491.873 1504.73 494.929 1509.34 Q498.007 1513.92 498.007 1522.67 Q498.007 1531.4 494.929 1536.01 Q491.873 1540.59 486.063 1540.59 Q480.253 1540.59 477.174 1536.01 Q474.118 1531.4 474.118 1522.67 Q474.118 1513.92 477.174 1509.34 Q480.253 1504.73 486.063 1504.73 Z" fill="#000000" fill-rule="evenodd" fill-opacity="1" /><path clip-path="url(#clip390)" d="M 0 0 M503.887 1535.98 L511.526 1535.98 L511.526 1509.62 L503.216 1511.29 L503.216 1507.03 L511.479 1505.36 L516.155 1505.36 L516.155 1535.98 L523.794 1535.98 L523.794 1539.92 L503.887 1539.92 L503.887 1535.98 Z" fill="#000000" fill-rule="evenodd" fill-opacity="1" /><path clip-path="url(#clip390)" d="M 0 0 M542.475 1508.53 Q537.382 1508.53 534.373 1512.33 Q531.387 1516.12 531.387 1522.67 Q531.387 1529.2 534.373 1533 Q537.382 1536.79 542.475 1536.79 Q547.567 1536.79 550.53 1533 Q553.516 1529.2 553.516 1522.67 Q553.516 1516.12 550.53 1512.33 Q547.567 1508.53 542.475 1508.53 M549.025 1539.29 L555.183 1546.03 L549.535 1546.03 L544.419 1540.5 Q543.655 1540.54 543.238 1540.57 Q542.845 1540.59 542.475 1540.59 Q535.183 1540.59 530.808 1535.73 Q526.456 1530.85 526.456 1522.67 Q526.456 1514.48 530.808 1509.62 Q535.183 1504.73 542.475 1504.73 Q549.743 1504.73 554.095 1509.62 Q558.447 1514.48 558.447 1522.67 Q558.447 1528.69 556.016 1532.98 Q553.609 1537.26 549.025 1539.29 Z" fill="#000000" fill-rule="evenodd" fill-opacity="1" /><path clip-path="url(#clip390)" d="M 0 0 M576.363 1509.43 L564.558 1527.88 L576.363 1527.88 L576.363 1509.43 M575.136 1505.36 L581.016 1505.36 L581.016 1527.88 L585.947 1527.88 L585.947 1531.77 L581.016 1531.77 L581.016 1539.92 L576.363 1539.92 L576.363 1531.77 L560.762 1531.77 L560.762 1527.26 L575.136 1505.36 Z" fill="#000000" fill-rule="evenodd" fill-opacity="1" /><path clip-path="url(#clip390)" d="M 0 0 M741.934 1535.98 L758.254 1535.98 L758.254 1539.92 L736.309 1539.92 L736.309 1535.98 Q738.971 1533.23 743.555 1528.6 Q748.161 1523.95 749.342 1522.61 Q751.587 1520.08 752.467 1518.35 Q753.369 1516.59 753.369 1514.9 Q753.369 1512.14 751.425 1510.41 Q749.504 1508.67 746.402 1508.67 Q744.203 1508.67 741.749 1509.43 Q739.319 1510.2 736.541 1511.75 L736.541 1507.03 Q739.365 1505.89 741.819 1505.31 Q744.272 1504.73 746.309 1504.73 Q751.68 1504.73 754.874 1507.42 Q758.068 1510.11 758.068 1514.6 Q758.068 1516.73 757.258 1518.65 Q756.471 1520.54 754.365 1523.14 Q753.786 1523.81 750.684 1527.03 Q747.582 1530.22 741.934 1535.98 Z" fill="#000000" fill-rule="evenodd" fill-opacity="1" /><path clip-path="url(#clip390)" d="M 0 0 M773.323 1508.44 Q769.712 1508.44 767.883 1512 Q766.078 1515.55 766.078 1522.67 Q766.078 1529.78 767.883 1533.35 Q769.712 1536.89 773.323 1536.89 Q776.957 1536.89 778.763 1533.35 Q780.591 1529.78 780.591 1522.67 Q780.591 1515.55 778.763 1512 Q776.957 1508.44 773.323 1508.44 M773.323 1504.73 Q779.133 1504.73 782.189 1509.34 Q785.267 1513.92 785.267 1522.67 Q785.267 1531.4 782.189 1536.01 Q779.133 1540.59 773.323 1540.59 Q767.513 1540.59 764.434 1536.01 Q761.379 1531.4 761.379 1522.67 Q761.379 1513.92 764.434 1509.34 Q767.513 1504.73 773.323 1504.73 Z" fill="#000000" fill-rule="evenodd" fill-opacity="1" /><path clip-path="url(#clip390)" d="M 0 0 M800.337 1508.44 Q796.726 1508.44 794.897 1512 Q793.091 1515.55 793.091 1522.67 Q793.091 1529.78 794.897 1533.35 Q796.726 1536.89 800.337 1536.89 Q803.971 1536.89 805.777 1533.35 Q807.605 1529.78 807.605 1522.67 Q807.605 1515.55 805.777 1512 Q803.971 1508.44 800.337 1508.44 M800.337 1504.73 Q806.147 1504.73 809.202 1509.34 Q812.281 1513.92 812.281 1522.67 Q812.281 1531.4 809.202 1536.01 Q806.147 1540.59 800.337 1540.59 Q794.527 1540.59 791.448 1536.01 Q788.392 1531.4 788.392 1522.67 Q788.392 1513.92 791.448 1509.34 Q794.527 1504.73 800.337 1504.73 Z" fill="#000000" fill-rule="evenodd" fill-opacity="1" /><path clip-path="url(#clip390)" d="M 0 0 M830.198 1509.43 L818.392 1527.88 L830.198 1527.88 L830.198 1509.43 M828.971 1505.36 L834.85 1505.36 L834.85 1527.88 L839.781 1527.88 L839.781 1531.77 L834.85 1531.77 L834.85 1539.92 L830.198 1539.92 L830.198 1531.77 L814.596 1531.77 L814.596 1527.26 L828.971 1505.36 Z" fill="#000000" fill-rule="evenodd" fill-opacity="1" /><path clip-path="url(#clip390)" d="M 0 0 M858.461 1508.53 Q853.369 1508.53 850.36 1512.33 Q847.374 1516.12 847.374 1522.67 Q847.374 1529.2 850.36 1533 Q853.369 1536.79 858.461 1536.79 Q863.554 1536.79 866.517 1533 Q869.503 1529.2 869.503 1522.67 Q869.503 1516.12 866.517 1512.33 Q863.554 1508.53 858.461 1508.53 M865.012 1539.29 L871.17 1546.03 L865.522 1546.03 L860.406 1540.5 Q859.642 1540.54 859.225 1540.57 Q858.832 1540.59 858.461 1540.59 Q851.17 1540.59 846.795 1535.73 Q842.443 1530.85 842.443 1522.67 Q842.443 1514.48 846.795 1509.62 Q851.17 1504.73 858.461 1504.73 Q865.73 1504.73 870.082 1509.62 Q874.434 1514.48 874.434 1522.67 Q874.434 1528.69 872.003 1532.98 Q869.596 1537.26 865.012 1539.29 Z" fill="#000000" fill-rule="evenodd" fill-opacity="1" /><path clip-path="url(#clip390)" d="M 0 0 M892.35 1509.43 L880.545 1527.88 L892.35 1527.88 L892.35 1509.43 M891.123 1505.36 L897.003 1505.36 L897.003 1527.88 L901.933 1527.88 L901.933 1531.77 L897.003 1531.77 L897.003 1539.92 L892.35 1539.92 L892.35 1531.77 L876.748 1531.77 L876.748 1527.26 L891.123 1505.36 Z" fill="#000000" fill-rule="evenodd" fill-opacity="1" /><path clip-path="url(#clip390)" d="M 0 0 M1057.76 1535.98 L1074.08 1535.98 L1074.08 1539.92 L1052.13 1539.92 L1052.13 1535.98 Q1054.8 1533.23 1059.38 1528.6 Q1063.99 1523.95 1065.17 1522.61 Q1067.41 1520.08 1068.29 1518.35 Q1069.19 1516.59 1069.19 1514.9 Q1069.19 1512.14 1067.25 1510.41 Q1065.33 1508.67 1062.23 1508.67 Q1060.03 1508.67 1057.57 1509.43 Q1055.14 1510.2 1052.37 1511.75 L1052.37 1507.03 Q1055.19 1505.89 1057.64 1505.31 Q1060.1 1504.73 1062.13 1504.73 Q1067.5 1504.73 1070.7 1507.42 Q1073.89 1510.11 1073.89 1514.6 Q1073.89 1516.73 1073.08 1518.65 Q1072.3 1520.54 1070.19 1523.14 Q1069.61 1523.81 1066.51 1527.03 Q1063.41 1530.22 1057.76 1535.98 Z" fill="#000000" fill-rule="evenodd" fill-opacity="1" /><path clip-path="url(#clip390)" d="M 0 0 M1089.15 1508.44 Q1085.54 1508.44 1083.71 1512 Q1081.9 1515.55 1081.9 1522.67 Q1081.9 1529.78 1083.71 1533.35 Q1085.54 1536.89 1089.15 1536.89 Q1092.78 1536.89 1094.59 1533.35 Q1096.42 1529.78 1096.42 1522.67 Q1096.42 1515.55 1094.59 1512 Q1092.78 1508.44 1089.15 1508.44 M1089.15 1504.73 Q1094.96 1504.73 1098.01 1509.34 Q1101.09 1513.92 1101.09 1522.67 Q1101.09 1531.4 1098.01 1536.01 Q1094.96 1540.59 1089.15 1540.59 Q1083.34 1540.59 1080.26 1536.01 Q1077.2 1531.4 1077.2 1522.67 Q1077.2 1513.92 1080.26 1509.34 Q1083.34 1504.73 1089.15 1504.73 Z" fill="#000000" fill-rule="evenodd" fill-opacity="1" /><path clip-path="url(#clip390)" d="M 0 0 M1116.16 1508.44 Q1112.55 1508.44 1110.72 1512 Q1108.92 1515.55 1108.92 1522.67 Q1108.92 1529.78 1110.72 1533.35 Q1112.55 1536.89 1116.16 1536.89 Q1119.8 1536.89 1121.6 1533.35 Q1123.43 1529.78 1123.43 1522.67 Q1123.43 1515.55 1121.6 1512 Q1119.8 1508.44 1116.16 1508.44 M1116.16 1504.73 Q1121.97 1504.73 1125.03 1509.34 Q1128.11 1513.92 1128.11 1522.67 Q1128.11 1531.4 1125.03 1536.01 Q1121.97 1540.59 1116.16 1540.59 Q1110.35 1540.59 1107.27 1536.01 Q1104.22 1531.4 1104.22 1522.67 Q1104.22 1513.92 1107.27 1509.34 Q1110.35 1504.73 1116.16 1504.73 Z" fill="#000000" fill-rule="evenodd" fill-opacity="1" /><path clip-path="url(#clip390)" d="M 0 0 M1131.99 1505.36 L1154.22 1505.36 L1154.22 1507.35 L1141.67 1539.92 L1136.79 1539.92 L1148.59 1509.3 L1131.99 1509.3 L1131.99 1505.36 Z" fill="#000000" fill-rule="evenodd" fill-opacity="1" /><path clip-path="url(#clip390)" d="M 0 0 M1172.9 1508.53 Q1167.8 1508.53 1164.8 1512.33 Q1161.81 1516.12 1161.81 1522.67 Q1161.81 1529.2 1164.8 1533 Q1167.8 1536.79 1172.9 1536.79 Q1177.99 1536.79 1180.95 1533 Q1183.94 1529.2 1183.94 1522.67 Q1183.94 1516.12 1180.95 1512.33 Q1177.99 1508.53 1172.9 1508.53 M1179.45 1539.29 L1185.61 1546.03 L1179.96 1546.03 L1174.84 1540.5 Q1174.08 1540.54 1173.66 1540.57 Q1173.27 1540.59 1172.9 1540.59 Q1165.61 1540.59 1161.23 1535.73 Q1156.88 1530.85 1156.88 1522.67 Q1156.88 1514.48 1161.23 1509.62 Q1165.61 1504.73 1172.9 1504.73 Q1180.17 1504.73 1184.52 1509.62 Q1188.87 1514.48 1188.87 1522.67 Q1188.87 1528.69 1186.44 1532.98 Q1184.03 1537.26 1179.45 1539.29 Z" fill="#000000" fill-rule="evenodd" fill-opacity="1" /><path clip-path="url(#clip390)" d="M 0 0 M1206.79 1509.43 L1194.98 1527.88 L1206.79 1527.88 L1206.79 1509.43 M1205.56 1505.36 L1211.44 1505.36 L1211.44 1527.88 L1216.37 1527.88 L1216.37 1531.77 L1211.44 1531.77 L1211.44 1539.92 L1206.79 1539.92 L1206.79 1531.77 L1191.18 1531.77 L1191.18 1527.26 L1205.56 1505.36 Z" fill="#000000" fill-rule="evenodd" fill-opacity="1" /><path clip-path="url(#clip390)" d="M 0 0 M1373.05 1535.98 L1389.37 1535.98 L1389.37 1539.92 L1367.43 1539.92 L1367.43 1535.98 Q1370.09 1533.23 1374.67 1528.6 Q1379.28 1523.95 1380.46 1522.61 Q1382.7 1520.08 1383.58 1518.35 Q1384.49 1516.59 1384.49 1514.9 Q1384.49 1512.14 1382.54 1510.41 Q1380.62 1508.67 1377.52 1508.67 Q1375.32 1508.67 1372.87 1509.43 Q1370.44 1510.2 1367.66 1511.75 L1367.66 1507.03 Q1370.48 1505.89 1372.94 1505.31 Q1375.39 1504.73 1377.43 1504.73 Q1382.8 1504.73 1385.99 1507.42 Q1389.19 1510.11 1389.19 1514.6 Q1389.19 1516.73 1388.38 1518.65 Q1387.59 1520.54 1385.48 1523.14 Q1384.9 1523.81 1381.8 1527.03 Q1378.7 1530.22 1373.05 1535.98 Z" fill="#000000" fill-rule="evenodd" fill-opacity="1" /><path clip-path="url(#clip390)" d="M 0 0 M1404.44 1508.44 Q1400.83 1508.44 1399 1512 Q1397.19 1515.55 1397.19 1522.67 Q1397.19 1529.78 1399 1533.35 Q1400.83 1536.89 1404.44 1536.89 Q1408.07 1536.89 1409.88 1533.35 Q1411.71 1529.78 1411.71 1522.67 Q1411.71 1515.55 1409.88 1512 Q1408.07 1508.44 1404.44 1508.44 M1404.44 1504.73 Q1410.25 1504.73 1413.31 1509.34 Q1416.38 1513.92 1416.38 1522.67 Q1416.38 1531.4 1413.31 1536.01 Q1410.25 1540.59 1404.44 1540.59 Q1398.63 1540.59 1395.55 1536.01 Q1392.5 1531.4 1392.5 1522.67 Q1392.5 1513.92 1395.55 1509.34 Q1398.63 1504.73 1404.44 1504.73 Z" fill="#000000" fill-rule="evenodd" fill-opacity="1" /><path clip-path="url(#clip390)" d="M 0 0 M1422.26 1535.98 L1429.9 1535.98 L1429.9 1509.62 L1421.59 1511.29 L1421.59 1507.03 L1429.86 1505.36 L1434.53 1505.36 L1434.53 1535.98 L1442.17 1535.98 L1442.17 1539.92 L1422.26 1539.92 L1422.26 1535.98 Z" fill="#000000" fill-rule="evenodd" fill-opacity="1" /><path clip-path="url(#clip390)" d="M 0 0 M1457.24 1508.44 Q1453.63 1508.44 1451.8 1512 Q1450 1515.55 1450 1522.67 Q1450 1529.78 1451.8 1533.35 Q1453.63 1536.89 1457.24 1536.89 Q1460.88 1536.89 1462.68 1533.35 Q1464.51 1529.78 1464.51 1522.67 Q1464.51 1515.55 1462.68 1512 Q1460.88 1508.44 1457.24 1508.44 M1457.24 1504.73 Q1463.05 1504.73 1466.11 1509.34 Q1469.19 1513.92 1469.19 1522.67 Q1469.19 1531.4 1466.11 1536.01 Q1463.05 1540.59 1457.24 1540.59 Q1451.43 1540.59 1448.35 1536.01 Q1445.3 1531.4 1445.3 1522.67 Q1445.3 1513.92 1448.35 1509.34 Q1451.43 1504.73 1457.24 1504.73 Z" fill="#000000" fill-rule="evenodd" fill-opacity="1" /><path clip-path="url(#clip390)" d="M 0 0 M1487.87 1508.53 Q1482.77 1508.53 1479.76 1512.33 Q1476.78 1516.12 1476.78 1522.67 Q1476.78 1529.2 1479.76 1533 Q1482.77 1536.79 1487.87 1536.79 Q1492.96 1536.79 1495.92 1533 Q1498.91 1529.2 1498.91 1522.67 Q1498.91 1516.12 1495.92 1512.33 Q1492.96 1508.53 1487.87 1508.53 M1494.42 1539.29 L1500.57 1546.03 L1494.93 1546.03 L1489.81 1540.5 Q1489.05 1540.54 1488.63 1540.57 Q1488.24 1540.59 1487.87 1540.59 Q1480.57 1540.59 1476.2 1535.73 Q1471.85 1530.85 1471.85 1522.67 Q1471.85 1514.48 1476.2 1509.62 Q1480.57 1504.73 1487.87 1504.73 Q1495.13 1504.73 1499.49 1509.62 Q1503.84 1514.48 1503.84 1522.67 Q1503.84 1528.69 1501.41 1532.98 Q1499 1537.26 1494.42 1539.29 Z" fill="#000000" fill-rule="evenodd" fill-opacity="1" /><path clip-path="url(#clip390)" d="M 0 0 M1521.75 1509.43 L1509.95 1527.88 L1521.75 1527.88 L1521.75 1509.43 M1520.53 1505.36 L1526.41 1505.36 L1526.41 1527.88 L1531.34 1527.88 L1531.34 1531.77 L1526.41 1531.77 L1526.41 1539.92 L1521.75 1539.92 L1521.75 1531.77 L1506.15 1531.77 L1506.15 1527.26 L1520.53 1505.36 Z" fill="#000000" fill-rule="evenodd" fill-opacity="1" /><path clip-path="url(#clip390)" d="M 0 0 M1688.51 1535.98 L1704.83 1535.98 L1704.83 1539.92 L1682.88 1539.92 L1682.88 1535.98 Q1685.54 1533.23 1690.13 1528.6 Q1694.73 1523.95 1695.91 1522.61 Q1698.16 1520.08 1699.04 1518.35 Q1699.94 1516.59 1699.94 1514.9 Q1699.94 1512.14 1698 1510.41 Q1696.08 1508.67 1692.97 1508.67 Q1690.77 1508.67 1688.32 1509.43 Q1685.89 1510.2 1683.11 1511.75 L1683.11 1507.03 Q1685.94 1505.89 1688.39 1505.31 Q1690.84 1504.73 1692.88 1504.73 Q1698.25 1504.73 1701.45 1507.42 Q1704.64 1510.11 1704.64 1514.6 Q1704.64 1516.73 1703.83 1518.65 Q1703.04 1520.54 1700.94 1523.14 Q1700.36 1523.81 1697.26 1527.03 Q1694.15 1530.22 1688.51 1535.98 Z" fill="#000000" fill-rule="evenodd" fill-opacity="1" /><path clip-path="url(#clip390)" d="M 0 0 M1719.89 1508.44 Q1716.28 1508.44 1714.45 1512 Q1712.65 1515.55 1712.65 1522.67 Q1712.65 1529.78 1714.45 1533.35 Q1716.28 1536.89 1719.89 1536.89 Q1723.53 1536.89 1725.33 1533.35 Q1727.16 1529.78 1727.16 1522.67 Q1727.16 1515.55 1725.33 1512 Q1723.53 1508.44 1719.89 1508.44 M1719.89 1504.73 Q1725.7 1504.73 1728.76 1509.34 Q1731.84 1513.92 1731.84 1522.67 Q1731.84 1531.4 1728.76 1536.01 Q1725.7 1540.59 1719.89 1540.59 Q1714.08 1540.59 1711.01 1536.01 Q1707.95 1531.4 1707.95 1522.67 Q1707.95 1513.92 1711.01 1509.34 Q1714.08 1504.73 1719.89 1504.73 Z" fill="#000000" fill-rule="evenodd" fill-opacity="1" /><path clip-path="url(#clip390)" d="M 0 0 M1737.72 1535.98 L1745.36 1535.98 L1745.36 1509.62 L1737.05 1511.29 L1737.05 1507.03 L1745.31 1505.36 L1749.99 1505.36 L1749.99 1535.98 L1757.63 1535.98 L1757.63 1539.92 L1737.72 1539.92 L1737.72 1535.98 Z" fill="#000000" fill-rule="evenodd" fill-opacity="1" /><path clip-path="url(#clip390)" d="M 0 0 M1776.86 1521.29 Q1780.22 1522 1782.09 1524.27 Q1783.99 1526.54 1783.99 1529.87 Q1783.99 1534.99 1780.47 1537.79 Q1776.95 1540.59 1770.47 1540.59 Q1768.3 1540.59 1765.98 1540.15 Q1763.69 1539.73 1761.24 1538.88 L1761.24 1534.36 Q1763.18 1535.5 1765.5 1536.08 Q1767.81 1536.66 1770.33 1536.66 Q1774.73 1536.66 1777.02 1534.92 Q1779.34 1533.18 1779.34 1529.87 Q1779.34 1526.82 1777.19 1525.11 Q1775.06 1523.37 1771.24 1523.37 L1767.21 1523.37 L1767.21 1519.53 L1771.42 1519.53 Q1774.87 1519.53 1776.7 1518.16 Q1778.53 1516.77 1778.53 1514.18 Q1778.53 1511.52 1776.63 1510.11 Q1774.76 1508.67 1771.24 1508.67 Q1769.32 1508.67 1767.12 1509.09 Q1764.92 1509.5 1762.28 1510.38 L1762.28 1506.22 Q1764.94 1505.48 1767.26 1505.11 Q1769.59 1504.73 1771.65 1504.73 Q1776.98 1504.73 1780.08 1507.17 Q1783.18 1509.57 1783.18 1513.69 Q1783.18 1516.56 1781.54 1518.55 Q1779.89 1520.52 1776.86 1521.29 Z" fill="#000000" fill-rule="evenodd" fill-opacity="1" /><path clip-path="url(#clip390)" d="M 0 0 M1802.67 1508.53 Q1797.58 1508.53 1794.57 1512.33 Q1791.58 1516.12 1791.58 1522.67 Q1791.58 1529.2 1794.57 1533 Q1797.58 1536.79 1802.67 1536.79 Q1807.76 1536.79 1810.73 1533 Q1813.71 1529.2 1813.71 1522.67 Q1813.71 1516.12 1810.73 1512.33 Q1807.76 1508.53 1802.67 1508.53 M1809.22 1539.29 L1815.38 1546.03 L1809.73 1546.03 L1804.62 1540.5 Q1803.85 1540.54 1803.44 1540.57 Q1803.04 1540.59 1802.67 1540.59 Q1795.38 1540.59 1791.01 1535.73 Q1786.65 1530.85 1786.65 1522.67 Q1786.65 1514.48 1791.01 1509.62 Q1795.38 1504.73 1802.67 1504.73 Q1809.94 1504.73 1814.29 1509.62 Q1818.64 1514.48 1818.64 1522.67 Q1818.64 1528.69 1816.21 1532.98 Q1813.81 1537.26 1809.22 1539.29 Z" fill="#000000" fill-rule="evenodd" fill-opacity="1" /><path clip-path="url(#clip390)" d="M 0 0 M1836.56 1509.43 L1824.76 1527.88 L1836.56 1527.88 L1836.56 1509.43 M1835.33 1505.36 L1841.21 1505.36 L1841.21 1527.88 L1846.14 1527.88 L1846.14 1531.77 L1841.21 1531.77 L1841.21 1539.92 L1836.56 1539.92 L1836.56 1531.77 L1820.96 1531.77 L1820.96 1527.26 L1835.33 1505.36 Z" fill="#000000" fill-rule="evenodd" fill-opacity="1" /><path clip-path="url(#clip390)" d="M 0 0 M2003.23 1535.98 L2019.55 1535.98 L2019.55 1539.92 L1997.61 1539.92 L1997.61 1535.98 Q2000.27 1533.23 2004.85 1528.6 Q2009.46 1523.95 2010.64 1522.61 Q2012.88 1520.08 2013.76 1518.35 Q2014.67 1516.59 2014.67 1514.9 Q2014.67 1512.14 2012.72 1510.41 Q2010.8 1508.67 2007.7 1508.67 Q2005.5 1508.67 2003.05 1509.43 Q2000.62 1510.2 1997.84 1511.75 L1997.84 1507.03 Q2000.66 1505.89 2003.12 1505.31 Q2005.57 1504.73 2007.61 1504.73 Q2012.98 1504.73 2016.17 1507.42 Q2019.37 1510.11 2019.37 1514.6 Q2019.37 1516.73 2018.56 1518.65 Q2017.77 1520.54 2015.66 1523.14 Q2015.08 1523.81 2011.98 1527.03 Q2008.88 1530.22 2003.23 1535.98 Z" fill="#000000" fill-rule="evenodd" fill-opacity="1" /><path clip-path="url(#clip390)" d="M 0 0 M2034.62 1508.44 Q2031.01 1508.44 2029.18 1512 Q2027.37 1515.55 2027.37 1522.67 Q2027.37 1529.78 2029.18 1533.35 Q2031.01 1536.89 2034.62 1536.89 Q2038.25 1536.89 2040.06 1533.35 Q2041.89 1529.78 2041.89 1522.67 Q2041.89 1515.55 2040.06 1512 Q2038.25 1508.44 2034.62 1508.44 M2034.62 1504.73 Q2040.43 1504.73 2043.49 1509.34 Q2046.56 1513.92 2046.56 1522.67 Q2046.56 1531.4 2043.49 1536.01 Q2040.43 1540.59 2034.62 1540.59 Q2028.81 1540.59 2025.73 1536.01 Q2022.68 1531.4 2022.68 1522.67 Q2022.68 1513.92 2025.73 1509.34 Q2028.81 1504.73 2034.62 1504.73 Z" fill="#000000" fill-rule="evenodd" fill-opacity="1" /><path clip-path="url(#clip390)" d="M 0 0 M2052.44 1535.98 L2060.08 1535.98 L2060.08 1509.62 L2051.77 1511.29 L2051.77 1507.03 L2060.04 1505.36 L2064.71 1505.36 L2064.71 1535.98 L2072.35 1535.98 L2072.35 1539.92 L2052.44 1539.92 L2052.44 1535.98 Z" fill="#000000" fill-rule="evenodd" fill-opacity="1" /><path clip-path="url(#clip390)" d="M 0 0 M2088 1520.78 Q2084.85 1520.78 2083 1522.93 Q2081.17 1525.08 2081.17 1528.83 Q2081.17 1532.56 2083 1534.73 Q2084.85 1536.89 2088 1536.89 Q2091.15 1536.89 2092.98 1534.73 Q2094.83 1532.56 2094.83 1528.83 Q2094.83 1525.08 2092.98 1522.93 Q2091.15 1520.78 2088 1520.78 M2097.28 1506.12 L2097.28 1510.38 Q2095.52 1509.55 2093.72 1509.11 Q2091.93 1508.67 2090.18 1508.67 Q2085.55 1508.67 2083.09 1511.8 Q2080.66 1514.92 2080.31 1521.24 Q2081.68 1519.23 2083.74 1518.16 Q2085.8 1517.07 2088.28 1517.07 Q2093.49 1517.07 2096.49 1520.24 Q2099.53 1523.39 2099.53 1528.83 Q2099.53 1534.16 2096.38 1537.37 Q2093.23 1540.59 2088 1540.59 Q2082 1540.59 2078.83 1536.01 Q2075.66 1531.4 2075.66 1522.67 Q2075.66 1514.48 2079.55 1509.62 Q2083.44 1504.73 2089.99 1504.73 Q2091.75 1504.73 2093.53 1505.08 Q2095.34 1505.43 2097.28 1506.12 Z" fill="#000000" fill-rule="evenodd" fill-opacity="1" /><path clip-path="url(#clip390)" d="M 0 0 M2118.21 1508.53 Q2113.11 1508.53 2110.11 1512.33 Q2107.12 1516.12 2107.12 1522.67 Q2107.12 1529.2 2110.11 1533 Q2113.11 1536.79 2118.21 1536.79 Q2123.3 1536.79 2126.26 1533 Q2129.25 1529.2 2129.25 1522.67 Q2129.25 1516.12 2126.26 1512.33 Q2123.3 1508.53 2118.21 1508.53 M2124.76 1539.29 L2130.92 1546.03 L2125.27 1546.03 L2120.15 1540.5 Q2119.39 1540.54 2118.97 1540.57 Q2118.58 1540.59 2118.21 1540.59 Q2110.92 1540.59 2106.54 1535.73 Q2102.19 1530.85 2102.19 1522.67 Q2102.19 1514.48 2106.54 1509.62 Q2110.92 1504.73 2118.21 1504.73 Q2125.48 1504.73 2129.83 1509.62 Q2134.18 1514.48 2134.18 1522.67 Q2134.18 1528.69 2131.75 1532.98 Q2129.34 1537.26 2124.76 1539.29 Z" fill="#000000" fill-rule="evenodd" fill-opacity="1" /><path clip-path="url(#clip390)" d="M 0 0 M2152.1 1509.43 L2140.29 1527.88 L2152.1 1527.88 L2152.1 1509.43 M2150.87 1505.36 L2156.75 1505.36 L2156.75 1527.88 L2161.68 1527.88 L2161.68 1531.77 L2156.75 1531.77 L2156.75 1539.92 L2152.1 1539.92 L2152.1 1531.77 L2136.49 1531.77 L2136.49 1527.26 L2150.87 1505.36 Z" fill="#000000" fill-rule="evenodd" fill-opacity="1" /><path clip-path="url(#clip390)" d="M 0 0 M62.9921 1342.58 L75.4689 1342.58 L75.4689 1346.37 L62.9921 1346.37 L62.9921 1342.58 Z" fill="#000000" fill-rule="evenodd" fill-opacity="1" /><path clip-path="url(#clip390)" d="M 0 0 M94.7049 1338.83 Q98.0614 1339.54 99.9364 1341.81 Q101.835 1344.08 101.835 1347.41 Q101.835 1352.53 98.316 1355.33 Q94.7975 1358.13 88.3161 1358.13 Q86.1402 1358.13 83.8253 1357.69 Q81.5337 1357.27 79.08 1356.42 L79.08 1351.9 Q81.0244 1353.04 83.3392 1353.62 Q85.654 1354.2 88.1772 1354.2 Q92.5753 1354.2 94.867 1352.46 Q97.1818 1350.72 97.1818 1347.41 Q97.1818 1344.36 95.029 1342.64 Q92.8994 1340.91 89.0799 1340.91 L85.0522 1340.91 L85.0522 1337.07 L89.2651 1337.07 Q92.7142 1337.07 94.5429 1335.7 Q96.3716 1334.31 96.3716 1331.72 Q96.3716 1329.06 94.4734 1327.64 Q92.5984 1326.21 89.0799 1326.21 Q87.1587 1326.21 84.9596 1326.63 Q82.7605 1327.04 80.1217 1327.92 L80.1217 1323.76 Q82.7837 1323.02 85.0985 1322.64 Q87.4364 1322.27 89.4966 1322.27 Q94.8207 1322.27 97.9225 1324.7 Q101.024 1327.11 101.024 1331.23 Q101.024 1334.1 99.3808 1336.09 Q97.7373 1338.06 94.7049 1338.83 Z" fill="#000000" fill-rule="evenodd" fill-opacity="1" /><path clip-path="url(#clip390)" d="M 0 0 M63.9412 1131.22 L76.418 1131.22 L76.418 1135.02 L63.9412 1135.02 L63.9412 1131.22 Z" fill="#000000" fill-rule="evenodd" fill-opacity="1" /><path clip-path="url(#clip390)" d="M 0 0 M85.5152 1142.17 L101.835 1142.17 L101.835 1146.11 L79.8902 1146.11 L79.8902 1142.17 Q82.5522 1139.42 87.1355 1134.79 Q91.742 1130.13 92.9225 1128.79 Q95.1679 1126.27 96.0475 1124.53 Q96.9503 1122.77 96.9503 1121.08 Q96.9503 1118.33 95.0058 1116.59 Q93.0846 1114.86 89.9827 1114.86 Q87.7837 1114.86 85.33 1115.62 Q82.8994 1116.38 80.1217 1117.94 L80.1217 1113.21 Q82.9457 1112.08 85.3994 1111.5 Q87.8531 1110.92 89.8901 1110.92 Q95.2605 1110.92 98.4549 1113.61 Q101.649 1116.29 101.649 1120.78 Q101.649 1122.91 100.839 1124.83 Q100.052 1126.73 97.9456 1129.32 Q97.3669 1130 94.2651 1133.21 Q91.1633 1136.41 85.5152 1142.17 Z" fill="#000000" fill-rule="evenodd" fill-opacity="1" /><path clip-path="url(#clip390)" d="M 0 0 M63.5708 919.87 L76.0476 919.87 L76.0476 923.666 L63.5708 923.666 L63.5708 919.87 Z" fill="#000000" fill-rule="evenodd" fill-opacity="1" /><path clip-path="url(#clip390)" d="M 0 0 M81.9272 930.819 L89.5661 930.819 L89.5661 904.453 L81.2559 906.12 L81.2559 901.86 L89.5198 900.194 L94.1957 900.194 L94.1957 930.819 L101.835 930.819 L101.835 934.754 L81.9272 934.754 L81.9272 930.819 Z" fill="#000000" fill-rule="evenodd" fill-opacity="1" /><path clip-path="url(#clip390)" d="M 0 0 M89.8901 691.92 Q86.279 691.92 84.4503 695.484 Q82.6448 699.026 82.6448 706.156 Q82.6448 713.262 84.4503 716.827 Q86.279 720.369 89.8901 720.369 Q93.5244 720.369 95.3299 716.827 Q97.1586 713.262 97.1586 706.156 Q97.1586 699.026 95.3299 695.484 Q93.5244 691.92 89.8901 691.92 M89.8901 688.216 Q95.7003 688.216 98.7558 692.822 Q101.835 697.406 101.835 706.156 Q101.835 714.882 98.7558 719.489 Q95.7003 724.072 89.8901 724.072 Q84.08 724.072 81.0013 719.489 Q77.9457 714.882 77.9457 706.156 Q77.9457 697.406 81.0013 692.822 Q84.08 688.216 89.8901 688.216 Z" fill="#000000" fill-rule="evenodd" fill-opacity="1" /><path clip-path="url(#clip390)" d="M 0 0 M81.9272 508.113 L89.5661 508.113 L89.5661 481.747 L81.2559 483.414 L81.2559 479.155 L89.5198 477.488 L94.1957 477.488 L94.1957 508.113 L101.835 508.113 L101.835 512.048 L81.9272 512.048 L81.9272 508.113 Z" fill="#000000" fill-rule="evenodd" fill-opacity="1" /><path clip-path="url(#clip390)" d="M 0 0 M85.5152 296.76 L101.835 296.76 L101.835 300.695 L79.8902 300.695 L79.8902 296.76 Q82.5522 294.005 87.1355 289.376 Q91.742 284.723 92.9225 283.381 Q95.1679 280.857 96.0475 279.121 Q96.9503 277.362 96.9503 275.672 Q96.9503 272.918 95.0058 271.182 Q93.0846 269.445 89.9827 269.445 Q87.7837 269.445 85.33 270.209 Q82.8994 270.973 80.1217 272.524 L80.1217 267.802 Q82.9457 266.668 85.3994 266.089 Q87.8531 265.51 89.8901 265.51 Q95.2605 265.51 98.4549 268.195 Q101.649 270.881 101.649 275.371 Q101.649 277.501 100.839 279.422 Q100.052 281.32 97.9456 283.913 Q97.3669 284.584 94.2651 287.802 Q91.1633 290.996 85.5152 296.76 Z" fill="#000000" fill-rule="evenodd" fill-opacity="1" /><path clip-path="url(#clip390)" d="M 0 0 M422.3 8.64 L447.126 8.64 L447.126 13.559 L428.145 13.559 L428.145 26.2904 L445.275 26.2904 L445.275 31.2093 L428.145 31.2093 L428.145 51.84 L422.3 51.84 L422.3 8.64 Z" fill="#000000" fill-rule="evenodd" fill-opacity="1" /><path clip-path="url(#clip390)" d="M 0 0 M448.4 19.4328 L453.724 19.4328 L453.724 51.84 L448.4 51.84 L448.4 19.4328 M448.4 6.81709 L453.724 6.81709 L453.724 13.559 L448.4 13.559 L448.4 6.81709 Z" fill="#000000" fill-rule="evenodd" fill-opacity="1" /><path clip-path="url(#clip390)" d="M 0 0 M480.633 35.2602 Q480.633 29.4732 478.232 26.2904 Q475.859 23.1075 471.548 23.1075 Q467.265 23.1075 464.864 26.2904 Q462.491 29.4732 462.491 35.2602 Q462.491 41.0183 464.864 44.2012 Q467.265 47.384 471.548 47.384 Q475.859 47.384 478.232 44.2012 Q480.633 41.0183 480.633 35.2602 M485.957 47.818 Q485.957 56.0934 482.282 60.1154 Q478.608 64.1663 471.027 64.1663 Q468.22 64.1663 465.732 63.7323 Q463.243 63.3272 460.899 62.4592 L460.899 57.2798 Q463.243 58.5529 465.529 59.1606 Q467.815 59.7682 470.188 59.7682 Q475.425 59.7682 478.029 57.0194 Q480.633 54.2995 480.633 48.7729 L480.633 46.1398 Q478.984 49.0044 476.409 50.4222 Q473.833 51.84 470.246 51.84 Q464.285 51.84 460.639 47.2972 Q456.993 42.7544 456.993 35.2602 Q456.993 27.7371 460.639 23.1943 Q464.285 18.6515 470.246 18.6515 Q473.833 18.6515 476.409 20.0693 Q478.984 21.4872 480.633 24.3517 L480.633 19.4328 L485.957 19.4328 L485.957 47.818 Z" fill="#000000" fill-rule="evenodd" fill-opacity="1" /><path clip-path="url(#clip390)" d="M 0 0 M490.992 39.0507 L490.992 19.4328 L496.316 19.4328 L496.316 38.8482 Q496.316 43.4488 498.11 45.7636 Q499.904 48.0495 503.492 48.0495 Q507.803 48.0495 510.292 45.3007 Q512.809 42.5519 512.809 37.8065 L512.809 19.4328 L518.133 19.4328 L518.133 51.84 L512.809 51.84 L512.809 46.8632 Q510.87 49.8145 508.295 51.2613 Q505.749 52.6791 502.363 52.6791 Q496.779 52.6791 493.885 49.2069 Q490.992 45.7347 490.992 39.0507 M504.389 18.6515 L504.389 18.6515 Z" fill="#000000" fill-rule="evenodd" fill-opacity="1" /><path clip-path="url(#clip390)" d="M 0 0 M542.496 24.4096 Q541.599 23.8888 540.529 23.6573 Q539.487 23.3969 538.214 23.3969 Q533.7 23.3969 531.269 26.3482 Q528.868 29.2707 528.868 34.7683 L528.868 51.84 L523.515 51.84 L523.515 19.4328 L528.868 19.4328 L528.868 24.4675 Q530.546 21.5161 533.237 20.0983 Q535.928 18.6515 539.776 18.6515 Q540.326 18.6515 540.992 18.7383 Q541.657 18.7962 542.467 18.9409 L542.496 24.4096 Z" fill="#000000" fill-rule="evenodd" fill-opacity="1" /><path clip-path="url(#clip390)" d="M 0 0 M574.498 34.3054 L574.498 36.9095 L550.019 36.9095 Q550.367 42.4072 553.318 45.3007 Q556.298 48.1653 561.593 48.1653 Q564.661 48.1653 567.525 47.4129 Q570.419 46.6606 573.254 45.156 L573.254 50.1907 Q570.39 51.406 567.38 52.0425 Q564.371 52.6791 561.275 52.6791 Q553.521 52.6791 548.978 48.1653 Q544.464 43.6514 544.464 35.9547 Q544.464 27.9975 548.746 23.339 Q553.058 18.6515 560.349 18.6515 Q566.889 18.6515 570.679 22.876 Q574.498 27.0716 574.498 34.3054 M569.174 32.7429 Q569.117 28.3737 566.715 25.7695 Q564.342 23.1654 560.407 23.1654 Q555.951 23.1654 553.26 25.6827 Q550.598 28.2001 550.193 32.7718 L569.174 32.7429 Z" fill="#000000" fill-rule="evenodd" fill-opacity="1" /><path clip-path="url(#clip390)" d="M 0 0 M604.707 46.921 L625.106 46.921 L625.106 51.84 L597.675 51.84 L597.675 46.921 Q601.003 43.4778 606.732 37.6908 Q612.49 31.8748 613.966 30.1966 Q616.773 27.0427 617.872 24.8726 Q619 22.6735 619 20.5612 Q619 17.118 616.57 14.9478 Q614.168 12.7777 610.291 12.7777 Q607.542 12.7777 604.475 13.7326 Q601.437 14.6874 597.965 16.6261 L597.965 10.7233 Q601.495 9.30551 604.562 8.58213 Q607.629 7.85875 610.175 7.85875 Q616.888 7.85875 620.881 11.2152 Q624.874 14.5717 624.874 20.1851 Q624.874 22.8471 623.862 25.2487 Q622.878 27.6214 620.245 30.8621 Q619.521 31.7012 615.644 35.7232 Q611.767 39.7162 604.707 46.921 Z" fill="#000000" fill-rule="evenodd" fill-opacity="1" /><path clip-path="url(#clip390)" d="M 0 0 M632.05 44.4905 L638.155 44.4905 L638.155 51.84 L632.05 51.84 L632.05 44.4905 M632.05 21.1978 L638.155 21.1978 L638.155 28.5473 L632.05 28.5473 L632.05 21.1978 Z" fill="#000000" fill-rule="evenodd" fill-opacity="1" /><path clip-path="url(#clip390)" d="M 0 0 M662.808 8.64 L670.678 8.64 L689.833 44.7799 L689.833 8.64 L695.505 8.64 L695.505 51.84 L687.634 51.84 L668.479 15.7001 L668.479 51.84 L662.808 51.84 L662.808 8.64 Z" fill="#000000" fill-rule="evenodd" fill-opacity="1" /><path clip-path="url(#clip390)" d="M 0 0 M728.809 34.3054 L728.809 36.9095 L704.33 36.9095 Q704.677 42.4072 707.628 45.3007 Q710.609 48.1653 715.904 48.1653 Q718.971 48.1653 721.836 47.4129 Q724.729 46.6606 727.565 45.156 L727.565 50.1907 Q724.7 51.406 721.691 52.0425 Q718.682 52.6791 715.586 52.6791 Q707.831 52.6791 703.288 48.1653 Q698.774 43.6514 698.774 35.9547 Q698.774 27.9975 703.057 23.339 Q707.368 18.6515 714.66 18.6515 Q721.199 18.6515 724.99 22.876 Q728.809 27.0716 728.809 34.3054 M723.485 32.7429 Q723.427 28.3737 721.025 25.7695 Q718.653 23.1654 714.718 23.1654 Q710.262 23.1654 707.571 25.6827 Q704.909 28.2001 704.504 32.7718 L723.485 32.7429 Z" fill="#000000" fill-rule="evenodd" fill-opacity="1" /><path clip-path="url(#clip390)" d="M 0 0 M731.297 19.4328 L736.621 19.4328 L743.276 44.722 L749.903 19.4328 L756.181 19.4328 L762.837 44.722 L769.463 19.4328 L774.787 19.4328 L766.309 51.84 L760.03 51.84 L753.056 25.2776 L746.054 51.84 L739.775 51.84 L731.297 19.4328 Z" fill="#000000" fill-rule="evenodd" fill-opacity="1" /><path clip-path="url(#clip390)" d="M 0 0 M801.031 20.3876 L801.031 25.4223 Q798.774 24.2649 796.343 23.6862 Q793.913 23.1075 791.309 23.1075 Q787.345 23.1075 785.348 24.3228 Q783.38 25.5381 783.38 27.9686 Q783.38 29.8204 784.798 30.891 Q786.216 31.9327 790.498 32.8876 L792.321 33.2926 Q797.993 34.5079 800.365 36.7359 Q802.767 38.935 802.767 42.8991 Q802.767 47.4129 799.179 50.046 Q795.62 52.6791 789.37 52.6791 Q786.766 52.6791 783.93 52.1583 Q781.123 51.6664 777.998 50.6537 L777.998 45.156 Q780.95 46.6896 783.814 47.4708 Q786.679 48.2231 789.486 48.2231 Q793.247 48.2231 795.273 46.95 Q797.298 45.6479 797.298 43.3042 Q797.298 41.134 795.822 39.9766 Q794.376 38.8192 789.428 37.7486 L787.576 37.3146 Q782.628 36.273 780.429 34.1318 Q778.23 31.9616 778.23 28.2001 Q778.23 23.6283 781.471 21.1399 Q784.711 18.6515 790.672 18.6515 Q793.623 18.6515 796.228 19.0855 Q798.832 19.5196 801.031 20.3876 Z" fill="#000000" fill-rule="evenodd" fill-opacity="1" /><path clip-path="url(#clip390)" d="M 0 0 M805.66 33.2348 L821.256 33.2348 L821.256 37.9801 L805.66 37.9801 L805.66 33.2348 Z" fill="#000000" fill-rule="evenodd" fill-opacity="1" /><path clip-path="url(#clip390)" d="M 0 0 M841.569 35.5496 Q835.116 35.5496 832.628 37.0253 Q830.139 38.501 830.139 42.06 Q830.139 44.8956 831.991 46.5738 Q833.872 48.2231 837.084 48.2231 Q841.511 48.2231 844.173 45.0981 Q846.864 41.9442 846.864 36.7359 L846.864 35.5496 L841.569 35.5496 M852.188 33.3505 L852.188 51.84 L846.864 51.84 L846.864 46.921 Q845.041 49.8724 842.321 51.2902 Q839.601 52.6791 835.666 52.6791 Q830.689 52.6791 827.738 49.9014 Q824.815 47.0947 824.815 42.4072 Q824.815 36.9385 828.461 34.1607 Q832.136 31.3829 839.399 31.3829 L846.864 31.3829 L846.864 30.8621 Q846.864 27.1874 844.433 25.1908 Q842.032 23.1654 837.663 23.1654 Q834.885 23.1654 832.252 23.8309 Q829.619 24.4964 827.188 25.8274 L827.188 20.9085 Q830.11 19.78 832.859 19.2302 Q835.608 18.6515 838.212 18.6515 Q845.244 18.6515 848.716 22.2973 Q852.188 25.9431 852.188 33.3505 Z" fill="#000000" fill-rule="evenodd" fill-opacity="1" /><path clip-path="url(#clip390)" d="M 0 0 M857.223 39.0507 L857.223 19.4328 L862.547 19.4328 L862.547 38.8482 Q862.547 43.4488 864.341 45.7636 Q866.135 48.0495 869.723 48.0495 Q874.034 48.0495 876.522 45.3007 Q879.04 42.5519 879.04 37.8065 L879.04 19.4328 L884.364 19.4328 L884.364 51.84 L879.04 51.84 L879.04 46.8632 Q877.101 49.8145 874.526 51.2613 Q871.979 52.6791 868.594 52.6791 Q863.01 52.6791 860.116 49.2069 Q857.223 45.7347 857.223 39.0507 M870.62 18.6515 L870.62 18.6515 Z" fill="#000000" fill-rule="evenodd" fill-opacity="1" /><path clip-path="url(#clip390)" d="M 0 0 M911.273 35.2602 Q911.273 29.4732 908.872 26.2904 Q906.499 23.1075 902.188 23.1075 Q897.905 23.1075 895.504 26.2904 Q893.131 29.4732 893.131 35.2602 Q893.131 41.0183 895.504 44.2012 Q897.905 47.384 902.188 47.384 Q906.499 47.384 908.872 44.2012 Q911.273 41.0183 911.273 35.2602 M916.597 47.818 Q916.597 56.0934 912.923 60.1154 Q909.248 64.1663 901.667 64.1663 Q898.86 64.1663 896.372 63.7323 Q893.883 63.3272 891.54 62.4592 L891.54 57.2798 Q893.883 58.5529 896.169 59.1606 Q898.455 59.7682 900.828 59.7682 Q906.065 59.7682 908.669 57.0194 Q911.273 54.2995 911.273 48.7729 L911.273 46.1398 Q909.624 49.0044 907.049 50.4222 Q904.474 51.84 900.886 51.84 Q894.925 51.84 891.279 47.2972 Q887.633 42.7544 887.633 35.2602 Q887.633 27.7371 891.279 23.1943 Q894.925 18.6515 900.886 18.6515 Q904.474 18.6515 907.049 20.0693 Q909.624 21.4872 911.273 24.3517 L911.273 19.4328 L916.597 19.4328 L916.597 47.818 Z" fill="#000000" fill-rule="evenodd" fill-opacity="1" /><path clip-path="url(#clip390)" d="M 0 0 M947.413 25.6538 Q949.41 22.0659 952.187 20.3587 Q954.965 18.6515 958.727 18.6515 Q963.79 18.6515 966.539 22.2105 Q969.288 25.7406 969.288 32.2799 L969.288 51.84 L963.935 51.84 L963.935 32.4535 Q963.935 27.795 962.286 25.5381 Q960.636 23.2811 957.251 23.2811 Q953.113 23.2811 950.712 26.03 Q948.31 28.7788 948.31 33.5241 L948.31 51.84 L942.957 51.84 L942.957 32.4535 Q942.957 27.7661 941.308 25.5381 Q939.659 23.2811 936.215 23.2811 Q932.135 23.2811 929.734 26.0589 Q927.332 28.8077 927.332 33.5241 L927.332 51.84 L921.979 51.84 L921.979 19.4328 L927.332 19.4328 L927.332 24.4675 Q929.155 21.4872 931.701 20.0693 Q934.248 18.6515 937.749 18.6515 Q941.279 18.6515 943.738 20.4455 Q946.227 22.2395 947.413 25.6538 Z" fill="#000000" fill-rule="evenodd" fill-opacity="1" /><path clip-path="url(#clip390)" d="M 0 0 M1002.59 34.3054 L1002.59 36.9095 L978.113 36.9095 Q978.46 42.4072 981.412 45.3007 Q984.392 48.1653 989.687 48.1653 Q992.754 48.1653 995.619 47.4129 Q998.512 46.6606 1001.35 45.156 L1001.35 50.1907 Q998.483 51.406 995.474 52.0425 Q992.465 52.6791 989.369 52.6791 Q981.614 52.6791 977.071 48.1653 Q972.558 43.6514 972.558 35.9547 Q972.558 27.9975 976.84 23.339 Q981.151 18.6515 988.443 18.6515 Q994.982 18.6515 998.773 22.876 Q1002.59 27.0716 1002.59 34.3054 M997.268 32.7429 Q997.21 28.3737 994.809 25.7695 Q992.436 23.1654 988.501 23.1654 Q984.045 23.1654 981.354 25.6827 Q978.692 28.2001 978.287 32.7718 L997.268 32.7429 Z" fill="#000000" fill-rule="evenodd" fill-opacity="1" /><path clip-path="url(#clip390)" d="M 0 0 M1035.12 32.2799 L1035.12 51.84 L1029.79 51.84 L1029.79 32.4535 Q1029.79 27.8529 1028 25.567 Q1026.2 23.2811 1022.62 23.2811 Q1018.3 23.2811 1015.82 26.03 Q1013.33 28.7788 1013.33 33.5241 L1013.33 51.84 L1007.97 51.84 L1007.97 19.4328 L1013.33 19.4328 L1013.33 24.4675 Q1015.24 21.545 1017.81 20.0983 Q1020.42 18.6515 1023.8 18.6515 Q1029.39 18.6515 1032.25 22.1237 Q1035.12 25.567 1035.12 32.2799 Z" fill="#000000" fill-rule="evenodd" fill-opacity="1" /><path clip-path="url(#clip390)" d="M 0 0 M1045.97 10.2314 L1045.97 19.4328 L1056.93 19.4328 L1056.93 23.5705 L1045.97 23.5705 L1045.97 41.163 Q1045.97 45.1271 1047.04 46.2555 Q1048.14 47.384 1051.46 47.384 L1056.93 47.384 L1056.93 51.84 L1051.46 51.84 Q1045.3 51.84 1042.96 49.5541 Q1040.61 47.2393 1040.61 41.163 L1040.61 23.5705 L1036.71 23.5705 L1036.71 19.4328 L1040.61 19.4328 L1040.61 10.2314 L1045.97 10.2314 Z" fill="#000000" fill-rule="evenodd" fill-opacity="1" /><path clip-path="url(#clip390)" d="M 0 0 M1090.24 34.3054 L1090.24 36.9095 L1065.76 36.9095 Q1066.1 42.4072 1069.06 45.3007 Q1072.04 48.1653 1077.33 48.1653 Q1080.4 48.1653 1083.26 47.4129 Q1086.16 46.6606 1088.99 45.156 L1088.99 50.1907 Q1086.13 51.406 1083.12 52.0425 Q1080.11 52.6791 1077.01 52.6791 Q1069.26 52.6791 1064.72 48.1653 Q1060.2 43.6514 1060.2 35.9547 Q1060.2 27.9975 1064.48 23.339 Q1068.8 18.6515 1076.09 18.6515 Q1082.63 18.6515 1086.42 22.876 Q1090.24 27.0716 1090.24 34.3054 M1084.91 32.7429 Q1084.85 28.3737 1082.45 25.7695 Q1080.08 23.1654 1076.15 23.1654 Q1071.69 23.1654 1069 25.6827 Q1066.34 28.2001 1065.93 32.7718 L1084.91 32.7429 Z" fill="#000000" fill-rule="evenodd" fill-opacity="1" /><path clip-path="url(#clip390)" d="M 0 0 M1117.15 24.3517 L1117.15 6.81709 L1122.47 6.81709 L1122.47 51.84 L1117.15 51.84 L1117.15 46.9789 Q1115.47 49.8724 1112.89 51.2902 Q1110.35 52.6791 1106.76 52.6791 Q1100.88 52.6791 1097.18 47.9916 Q1093.51 43.3042 1093.51 35.6653 Q1093.51 28.0265 1097.18 23.339 Q1100.88 18.6515 1106.76 18.6515 Q1110.35 18.6515 1112.89 20.0693 Q1115.47 21.4582 1117.15 24.3517 M1099 35.6653 Q1099 41.5391 1101.41 44.8956 Q1103.84 48.2231 1108.06 48.2231 Q1112.28 48.2231 1114.72 44.8956 Q1117.15 41.5391 1117.15 35.6653 Q1117.15 29.7915 1114.72 26.464 Q1112.28 23.1075 1108.06 23.1075 Q1103.84 23.1075 1101.41 26.464 Q1099 29.7915 1099 35.6653 Z" fill="#000000" fill-rule="evenodd" fill-opacity="1" /><path clip-path="url(#clip390)" d="M 0 0 M1170.21 20.677 L1170.21 25.6538 Q1167.96 24.4096 1165.67 23.802 Q1163.41 23.1654 1161.1 23.1654 Q1155.92 23.1654 1153.05 26.464 Q1150.19 29.7336 1150.19 35.6653 Q1150.19 41.597 1153.05 44.8956 Q1155.92 48.1653 1161.1 48.1653 Q1163.41 48.1653 1165.67 47.5576 Q1167.96 46.921 1170.21 45.6768 L1170.21 50.5958 Q1167.98 51.6375 1165.58 52.1583 Q1163.21 52.6791 1160.52 52.6791 Q1153.2 52.6791 1148.89 48.0784 Q1144.58 43.4778 1144.58 35.6653 Q1144.58 27.7371 1148.92 23.1943 Q1153.29 18.6515 1160.87 18.6515 Q1163.33 18.6515 1165.67 19.1724 Q1168.01 19.6642 1170.21 20.677 Z" fill="#000000" fill-rule="evenodd" fill-opacity="1" /><path clip-path="url(#clip390)" d="M 0 0 M1188.36 23.1654 Q1184.07 23.1654 1181.58 26.5218 Q1179.1 29.8494 1179.1 35.6653 Q1179.1 41.4813 1181.56 44.8377 Q1184.04 48.1653 1188.36 48.1653 Q1192.61 48.1653 1195.1 44.8088 Q1197.59 41.4523 1197.59 35.6653 Q1197.59 29.9072 1195.1 26.5508 Q1192.61 23.1654 1188.36 23.1654 M1188.36 18.6515 Q1195.3 18.6515 1199.26 23.1654 Q1203.23 27.6792 1203.23 35.6653 Q1203.23 43.6225 1199.26 48.1653 Q1195.3 52.6791 1188.36 52.6791 Q1181.38 52.6791 1177.42 48.1653 Q1173.48 43.6225 1173.48 35.6653 Q1173.48 27.6792 1177.42 23.1654 Q1181.38 18.6515 1188.36 18.6515 Z" fill="#000000" fill-rule="evenodd" fill-opacity="1" /><path clip-path="url(#clip390)" d="M 0 0 M1234.04 25.6538 Q1236.04 22.0659 1238.82 20.3587 Q1241.6 18.6515 1245.36 18.6515 Q1250.42 18.6515 1253.17 22.2105 Q1255.92 25.7406 1255.92 32.2799 L1255.92 51.84 L1250.57 51.84 L1250.57 32.4535 Q1250.57 27.795 1248.92 25.5381 Q1247.27 23.2811 1243.88 23.2811 Q1239.74 23.2811 1237.34 26.03 Q1234.94 28.7788 1234.94 33.5241 L1234.94 51.84 L1229.59 51.84 L1229.59 32.4535 Q1229.59 27.7661 1227.94 25.5381 Q1226.29 23.2811 1222.85 23.2811 Q1218.77 23.2811 1216.36 26.0589 Q1213.96 28.8077 1213.96 33.5241 L1213.96 51.84 L1208.61 51.84 L1208.61 19.4328 L1213.96 19.4328 L1213.96 24.4675 Q1215.79 21.4872 1218.33 20.0693 Q1220.88 18.6515 1224.38 18.6515 Q1227.91 18.6515 1230.37 20.4455 Q1232.86 22.2395 1234.04 25.6538 Z" fill="#000000" fill-rule="evenodd" fill-opacity="1" /><path clip-path="url(#clip390)" d="M 0 0 M1286.73 25.6538 Q1288.73 22.0659 1291.51 20.3587 Q1294.29 18.6515 1298.05 18.6515 Q1303.11 18.6515 1305.86 22.2105 Q1308.61 25.7406 1308.61 32.2799 L1308.61 51.84 L1303.26 51.84 L1303.26 32.4535 Q1303.26 27.795 1301.61 25.5381 Q1299.96 23.2811 1296.57 23.2811 Q1292.43 23.2811 1290.03 26.03 Q1287.63 28.7788 1287.63 33.5241 L1287.63 51.84 L1282.28 51.84 L1282.28 32.4535 Q1282.28 27.7661 1280.63 25.5381 Q1278.98 23.2811 1275.54 23.2811 Q1271.46 23.2811 1269.05 26.0589 Q1266.65 28.8077 1266.65 33.5241 L1266.65 51.84 L1261.3 51.84 L1261.3 19.4328 L1266.65 19.4328 L1266.65 24.4675 Q1268.48 21.4872 1271.02 20.0693 Q1273.57 18.6515 1277.07 18.6515 Q1280.6 18.6515 1283.06 20.4455 Q1285.55 22.2395 1286.73 25.6538 Z" fill="#000000" fill-rule="evenodd" fill-opacity="1" /><path clip-path="url(#clip390)" d="M 0 0 M1326.75 23.1654 Q1322.47 23.1654 1319.98 26.5218 Q1317.49 29.8494 1317.49 35.6653 Q1317.49 41.4813 1319.95 44.8377 Q1322.44 48.1653 1326.75 48.1653 Q1331 48.1653 1333.49 44.8088 Q1335.98 41.4523 1335.98 35.6653 Q1335.98 29.9072 1333.49 26.5508 Q1331 23.1654 1326.75 23.1654 M1326.75 18.6515 Q1333.7 18.6515 1337.66 23.1654 Q1341.62 27.6792 1341.62 35.6653 Q1341.62 43.6225 1337.66 48.1653 Q1333.7 52.6791 1326.75 52.6791 Q1319.78 52.6791 1315.81 48.1653 Q1311.88 43.6225 1311.88 35.6653 Q1311.88 27.6792 1315.81 23.1654 Q1319.78 18.6515 1326.75 18.6515 Z" fill="#000000" fill-rule="evenodd" fill-opacity="1" /><path clip-path="url(#clip390)" d="M 0 0 M1368.53 24.3517 L1368.53 6.81709 L1373.86 6.81709 L1373.86 51.84 L1368.53 51.84 L1368.53 46.9789 Q1366.86 49.8724 1364.28 51.2902 Q1361.73 52.6791 1358.15 52.6791 Q1352.27 52.6791 1348.57 47.9916 Q1344.89 43.3042 1344.89 35.6653 Q1344.89 28.0265 1348.57 23.339 Q1352.27 18.6515 1358.15 18.6515 Q1361.73 18.6515 1364.28 20.0693 Q1366.86 21.4582 1368.53 24.3517 M1350.39 35.6653 Q1350.39 41.5391 1352.79 44.8956 Q1355.22 48.2231 1359.45 48.2231 Q1363.67 48.2231 1366.1 44.8956 Q1368.53 41.5391 1368.53 35.6653 Q1368.53 29.7915 1366.1 26.464 Q1363.67 23.1075 1359.45 23.1075 Q1355.22 23.1075 1352.79 26.464 Q1350.39 29.7915 1350.39 35.6653 Z" fill="#000000" fill-rule="evenodd" fill-opacity="1" /><path clip-path="url(#clip390)" d="M 0 0 M1379.44 19.4328 L1384.77 19.4328 L1384.77 51.84 L1379.44 51.84 L1379.44 19.4328 M1379.44 6.81709 L1384.77 6.81709 L1384.77 13.559 L1379.44 13.559 L1379.44 6.81709 Z" fill="#000000" fill-rule="evenodd" fill-opacity="1" /><path clip-path="url(#clip390)" d="M 0 0 M1395.62 10.2314 L1395.62 19.4328 L1406.58 19.4328 L1406.58 23.5705 L1395.62 23.5705 L1395.62 41.163 Q1395.62 45.1271 1396.69 46.2555 Q1397.79 47.384 1401.11 47.384 L1406.58 47.384 L1406.58 51.84 L1401.11 51.84 Q1394.95 51.84 1392.61 49.5541 Q1390.26 47.2393 1390.26 41.163 L1390.26 23.5705 L1386.36 23.5705 L1386.36 19.4328 L1390.26 19.4328 L1390.26 10.2314 L1395.62 10.2314 Z" fill="#000000" fill-rule="evenodd" fill-opacity="1" /><path clip-path="url(#clip390)" d="M 0 0 M1425.65 54.8492 Q1423.39 60.6362 1421.25 62.4013 Q1419.11 64.1663 1415.52 64.1663 L1411.27 64.1663 L1411.27 59.7103 L1414.4 59.7103 Q1416.59 59.7103 1417.81 58.6687 Q1419.03 57.627 1420.5 53.7497 L1421.46 51.3192 L1408.35 19.4328 L1413.99 19.4328 L1424.12 44.7799 L1434.24 19.4328 L1439.89 19.4328 L1425.65 54.8492 Z" fill="#000000" fill-rule="evenodd" fill-opacity="1" /><path clip-path="url(#clip390)" d="M 0 0 M1484.97 20.3876 L1484.97 25.4223 Q1482.71 24.2649 1480.28 23.6862 Q1477.85 23.1075 1475.25 23.1075 Q1471.28 23.1075 1469.29 24.3228 Q1467.32 25.5381 1467.32 27.9686 Q1467.32 29.8204 1468.74 30.891 Q1470.15 31.9327 1474.44 32.8876 L1476.26 33.2926 Q1481.93 34.5079 1484.3 36.7359 Q1486.7 38.935 1486.7 42.8991 Q1486.7 47.4129 1483.12 50.046 Q1479.56 52.6791 1473.31 52.6791 Q1470.7 52.6791 1467.87 52.1583 Q1465.06 51.6664 1461.94 50.6537 L1461.94 45.156 Q1464.89 46.6896 1467.75 47.4708 Q1470.62 48.2231 1473.42 48.2231 Q1477.18 48.2231 1479.21 46.95 Q1481.24 45.6479 1481.24 43.3042 Q1481.24 41.134 1479.76 39.9766 Q1478.31 38.8192 1473.37 37.7486 L1471.51 37.3146 Q1466.57 36.273 1464.37 34.1318 Q1462.17 31.9616 1462.17 28.2001 Q1462.17 23.6283 1465.41 21.1399 Q1468.65 18.6515 1474.61 18.6515 Q1477.56 18.6515 1480.16 19.0855 Q1482.77 19.5196 1484.97 20.3876 Z" fill="#000000" fill-rule="evenodd" fill-opacity="1" /><path clip-path="url(#clip390)" d="M 0 0 M1519.23 32.2799 L1519.23 51.84 L1513.9 51.84 L1513.9 32.4535 Q1513.9 27.8529 1512.11 25.567 Q1510.32 23.2811 1506.73 23.2811 Q1502.42 23.2811 1499.93 26.03 Q1497.44 28.7788 1497.44 33.5241 L1497.44 51.84 L1492.09 51.84 L1492.09 6.81709 L1497.44 6.81709 L1497.44 24.4675 Q1499.35 21.545 1501.92 20.0983 Q1504.53 18.6515 1507.91 18.6515 Q1513.5 18.6515 1516.36 22.1237 Q1519.23 25.567 1519.23 32.2799 Z" fill="#000000" fill-rule="evenodd" fill-opacity="1" /><path clip-path="url(#clip390)" d="M 0 0 M1537.37 23.1654 Q1533.09 23.1654 1530.6 26.5218 Q1528.11 29.8494 1528.11 35.6653 Q1528.11 41.4813 1530.57 44.8377 Q1533.06 48.1653 1537.37 48.1653 Q1541.62 48.1653 1544.11 44.8088 Q1546.6 41.4523 1546.6 35.6653 Q1546.6 29.9072 1544.11 26.5508 Q1541.62 23.1654 1537.37 23.1654 M1537.37 18.6515 Q1544.31 18.6515 1548.28 23.1654 Q1552.24 27.6792 1552.24 35.6653 Q1552.24 43.6225 1548.28 48.1653 Q1544.31 52.6791 1537.37 52.6791 Q1530.4 52.6791 1526.43 48.1653 Q1522.5 43.6225 1522.5 35.6653 Q1522.5 27.6792 1526.43 23.1654 Q1530.4 18.6515 1537.37 18.6515 Z" fill="#000000" fill-rule="evenodd" fill-opacity="1" /><path clip-path="url(#clip390)" d="M 0 0 M1581.15 20.677 L1581.15 25.6538 Q1578.89 24.4096 1576.61 23.802 Q1574.35 23.1654 1572.03 23.1654 Q1566.85 23.1654 1563.99 26.464 Q1561.13 29.7336 1561.13 35.6653 Q1561.13 41.597 1563.99 44.8956 Q1566.85 48.1653 1572.03 48.1653 Q1574.35 48.1653 1576.61 47.5576 Q1578.89 46.921 1581.15 45.6768 L1581.15 50.5958 Q1578.92 51.6375 1576.52 52.1583 Q1574.15 52.6791 1571.45 52.6791 Q1564.13 52.6791 1559.82 48.0784 Q1555.51 43.4778 1555.51 35.6653 Q1555.51 27.7371 1559.85 23.1943 Q1564.22 18.6515 1571.8 18.6515 Q1574.26 18.6515 1576.61 19.1724 Q1578.95 19.6642 1581.15 20.677 Z" fill="#000000" fill-rule="evenodd" fill-opacity="1" /><path clip-path="url(#clip390)" d="M 0 0 M1586.53 6.81709 L1591.88 6.81709 L1591.88 33.4084 L1607.77 19.4328 L1614.57 19.4328 L1597.38 34.5947 L1615.29 51.84 L1608.35 51.84 L1591.88 36.0125 L1591.88 51.84 L1586.53 51.84 L1586.53 6.81709 Z" fill="#000000" fill-rule="evenodd" fill-opacity="1" /><path clip-path="url(#clip390)" d="M 0 0 M1641.54 20.3876 L1641.54 25.4223 Q1639.28 24.2649 1636.85 23.6862 Q1634.42 23.1075 1631.81 23.1075 Q1627.85 23.1075 1625.85 24.3228 Q1623.89 25.5381 1623.89 27.9686 Q1623.89 29.8204 1625.3 30.891 Q1626.72 31.9327 1631 32.8876 L1632.83 33.2926 Q1638.5 34.5079 1640.87 36.7359 Q1643.27 38.935 1643.27 42.8991 Q1643.27 47.4129 1639.68 50.046 Q1636.12 52.6791 1629.87 52.6791 Q1627.27 52.6791 1624.43 52.1583 Q1621.63 51.6664 1618.5 50.6537 L1618.5 45.156 Q1621.45 46.6896 1624.32 47.4708 Q1627.18 48.2231 1629.99 48.2231 Q1633.75 48.2231 1635.78 46.95 Q1637.8 45.6479 1637.8 43.3042 Q1637.8 41.134 1636.33 39.9766 Q1634.88 38.8192 1629.93 37.7486 L1628.08 37.3146 Q1623.13 36.273 1620.93 34.1318 Q1618.73 31.9616 1618.73 28.2001 Q1618.73 23.6283 1621.98 21.1399 Q1625.22 18.6515 1631.18 18.6515 Q1634.13 18.6515 1636.73 19.0855 Q1639.34 19.5196 1641.54 20.3876 Z" fill="#000000" fill-rule="evenodd" fill-opacity="1" /><path clip-path="url(#clip390)" d="M 0 0 M1663.87 19.4328 L1669.52 19.4328 L1679.64 46.6317 L1689.77 19.4328 L1695.41 19.4328 L1683.26 51.84 L1676.03 51.84 L1663.87 19.4328 Z" fill="#000000" fill-rule="evenodd" fill-opacity="1" /><path clip-path="url(#clip390)" d="M 0 0 M1721.66 20.3876 L1721.66 25.4223 Q1719.4 24.2649 1716.97 23.6862 Q1714.54 23.1075 1711.93 23.1075 Q1707.97 23.1075 1705.97 24.3228 Q1704.01 25.5381 1704.01 27.9686 Q1704.01 29.8204 1705.42 30.891 Q1706.84 31.9327 1711.12 32.8876 L1712.95 33.2926 Q1718.62 34.5079 1720.99 36.7359 Q1723.39 38.935 1723.39 42.8991 Q1723.39 47.4129 1719.8 50.046 Q1716.25 52.6791 1710 52.6791 Q1707.39 52.6791 1704.56 52.1583 Q1701.75 51.6664 1698.62 50.6537 L1698.62 45.156 Q1701.58 46.6896 1704.44 47.4708 Q1707.3 48.2231 1710.11 48.2231 Q1713.87 48.2231 1715.9 46.95 Q1717.92 45.6479 1717.92 43.3042 Q1717.92 41.134 1716.45 39.9766 Q1715 38.8192 1710.05 37.7486 L1708.2 37.3146 Q1703.25 36.273 1701.05 34.1318 Q1698.86 31.9616 1698.86 28.2001 Q1698.86 23.6283 1702.1 21.1399 Q1705.34 18.6515 1711.3 18.6515 Q1714.25 18.6515 1716.85 19.0855 Q1719.46 19.5196 1721.66 20.3876 Z" fill="#000000" fill-rule="evenodd" fill-opacity="1" /><path clip-path="url(#clip390)" d="M 0 0 M1777.5 45.6768 L1777.5 34.0739 L1767.95 34.0739 L1767.95 29.2707 L1783.29 29.2707 L1783.29 47.818 Q1779.9 50.2196 1775.82 51.4638 Q1771.74 52.6791 1767.11 52.6791 Q1756.99 52.6791 1751.26 46.7764 Q1745.56 40.8447 1745.56 30.2834 Q1745.56 19.6932 1751.26 13.7904 Q1756.99 7.85875 1767.11 7.85875 Q1771.34 7.85875 1775.13 8.90042 Q1778.95 9.94208 1782.16 11.9675 L1782.16 18.1886 Q1778.92 15.4397 1775.27 14.0509 Q1771.63 12.662 1767.61 12.662 Q1759.68 12.662 1755.68 17.089 Q1751.72 21.5161 1751.72 30.2834 Q1751.72 39.0218 1755.68 43.4488 Q1759.68 47.8759 1767.61 47.8759 Q1770.7 47.8759 1773.13 47.3551 Q1775.56 46.8053 1777.5 45.6768 Z" fill="#000000" fill-rule="evenodd" fill-opacity="1" /><path clip-path="url(#clip390)" d="M 0 0 M1794.66 46.921 L1815.06 46.921 L1815.06 51.84 L1787.63 51.84 L1787.63 46.921 Q1790.96 43.4778 1796.69 37.6908 Q1802.44 31.8748 1803.92 30.1966 Q1806.73 27.0427 1807.83 24.8726 Q1808.95 22.6735 1808.95 20.5612 Q1808.95 17.118 1806.52 14.9478 Q1804.12 12.7777 1800.24 12.7777 Q1797.5 12.7777 1794.43 13.7326 Q1791.39 14.6874 1787.92 16.6261 L1787.92 10.7233 Q1791.45 9.30551 1794.52 8.58213 Q1797.58 7.85875 1800.13 7.85875 Q1806.84 7.85875 1810.83 11.2152 Q1814.83 14.5717 1814.83 20.1851 Q1814.83 22.8471 1813.81 25.2487 Q1812.83 27.6214 1810.2 30.8621 Q1809.47 31.7012 1805.6 35.7232 Q1801.72 39.7162 1794.66 46.921 Z" fill="#000000" fill-rule="evenodd" fill-opacity="1" /><path clip-path="url(#clip390)" d="M 0 0 M1833.9 12.4884 Q1829.38 12.4884 1827.1 16.9444 Q1824.84 21.3714 1824.84 30.2834 Q1824.84 39.1665 1827.1 43.6225 Q1829.38 48.0495 1833.9 48.0495 Q1838.44 48.0495 1840.7 43.6225 Q1842.98 39.1665 1842.98 30.2834 Q1842.98 21.3714 1840.7 16.9444 Q1838.44 12.4884 1833.9 12.4884 M1833.9 7.85875 Q1841.16 7.85875 1844.98 13.6168 Q1848.83 19.346 1848.83 30.2834 Q1848.83 41.1919 1844.98 46.95 Q1841.16 52.6791 1833.9 52.6791 Q1826.63 52.6791 1822.78 46.95 Q1818.97 41.1919 1818.97 30.2834 Q1818.97 19.346 1822.78 13.6168 Q1826.63 7.85875 1833.9 7.85875 Z" fill="#000000" fill-rule="evenodd" fill-opacity="1" /><path clip-path="url(#clip390)" d="M 0 0 M1894.57 35.2602 Q1894.57 29.4732 1892.17 26.2904 Q1889.8 23.1075 1885.49 23.1075 Q1881.2 23.1075 1878.8 26.2904 Q1876.43 29.4732 1876.43 35.2602 Q1876.43 41.0183 1878.8 44.2012 Q1881.2 47.384 1885.49 47.384 Q1889.8 47.384 1892.17 44.2012 Q1894.57 41.0183 1894.57 35.2602 M1899.9 47.818 Q1899.9 56.0934 1896.22 60.1154 Q1892.55 64.1663 1884.97 64.1663 Q1882.16 64.1663 1879.67 63.7323 Q1877.18 63.3272 1874.84 62.4592 L1874.84 57.2798 Q1877.18 58.5529 1879.47 59.1606 Q1881.75 59.7682 1884.13 59.7682 Q1889.36 59.7682 1891.97 57.0194 Q1894.57 54.2995 1894.57 48.7729 L1894.57 46.1398 Q1892.92 49.0044 1890.35 50.4222 Q1887.77 51.84 1884.18 51.84 Q1878.22 51.84 1874.58 47.2972 Q1870.93 42.7544 1870.93 35.2602 Q1870.93 27.7371 1874.58 23.1943 Q1878.22 18.6515 1884.18 18.6515 Q1887.77 18.6515 1890.35 20.0693 Q1892.92 21.4872 1894.57 24.3517 L1894.57 19.4328 L1899.9 19.4328 L1899.9 47.818 Z" fill="#000000" fill-rule="evenodd" fill-opacity="1" /><path clip-path="url(#clip390)" d="M 0 0 M1924.26 24.4096 Q1923.36 23.8888 1922.29 23.6573 Q1921.25 23.3969 1919.98 23.3969 Q1915.46 23.3969 1913.03 26.3482 Q1910.63 29.2707 1910.63 34.7683 L1910.63 51.84 L1905.28 51.84 L1905.28 19.4328 L1910.63 19.4328 L1910.63 24.4675 Q1912.31 21.5161 1915 20.0983 Q1917.69 18.6515 1921.54 18.6515 Q1922.09 18.6515 1922.76 18.7383 Q1923.42 18.7962 1924.23 18.9409 L1924.26 24.4096 Z" fill="#000000" fill-rule="evenodd" fill-opacity="1" /><path clip-path="url(#clip390)" d="M 0 0 M1941.1 23.1654 Q1936.82 23.1654 1934.33 26.5218 Q1931.84 29.8494 1931.84 35.6653 Q1931.84 41.4813 1934.3 44.8377 Q1936.79 48.1653 1941.1 48.1653 Q1945.35 48.1653 1947.84 44.8088 Q1950.33 41.4523 1950.33 35.6653 Q1950.33 29.9072 1947.84 26.5508 Q1945.35 23.1654 1941.1 23.1654 M1941.1 18.6515 Q1948.04 18.6515 1952.01 23.1654 Q1955.97 27.6792 1955.97 35.6653 Q1955.97 43.6225 1952.01 48.1653 Q1948.04 52.6791 1941.1 52.6791 Q1934.13 52.6791 1930.16 48.1653 Q1926.23 43.6225 1926.23 35.6653 Q1926.23 27.6792 1930.16 23.1654 Q1934.13 18.6515 1941.1 18.6515 Z" fill="#000000" fill-rule="evenodd" fill-opacity="1" /><path clip-path="url(#clip390)" d="M 0 0 M1958.46 19.4328 L1963.78 19.4328 L1970.44 44.722 L1977.07 19.4328 L1983.35 19.4328 L1990 44.722 L1996.63 19.4328 L2001.95 19.4328 L1993.47 51.84 L1987.19 51.84 L1980.22 25.2776 L1973.22 51.84 L1966.94 51.84 L1958.46 19.4328 Z" fill="#000000" fill-rule="evenodd" fill-opacity="1" /><path clip-path="url(#clip390)" d="M 0 0 M2012.8 10.2314 L2012.8 19.4328 L2023.77 19.4328 L2023.77 23.5705 L2012.8 23.5705 L2012.8 41.163 Q2012.8 45.1271 2013.87 46.2555 Q2014.97 47.384 2018.3 47.384 L2023.77 47.384 L2023.77 51.84 L2018.3 51.84 Q2012.14 51.84 2009.79 49.5541 Q2007.45 47.2393 2007.45 41.163 L2007.45 23.5705 L2003.54 23.5705 L2003.54 19.4328 L2007.45 19.4328 L2007.45 10.2314 L2012.8 10.2314 Z" fill="#000000" fill-rule="evenodd" fill-opacity="1" /><path clip-path="url(#clip390)" d="M 0 0 M2056.29 32.2799 L2056.29 51.84 L2050.97 51.84 L2050.97 32.4535 Q2050.97 27.8529 2049.17 25.567 Q2047.38 23.2811 2043.79 23.2811 Q2039.48 23.2811 2036.99 26.03 Q2034.5 28.7788 2034.5 33.5241 L2034.5 51.84 L2029.15 51.84 L2029.15 6.81709 L2034.5 6.81709 L2034.5 24.4675 Q2036.41 21.545 2038.99 20.0983 Q2041.59 18.6515 2044.98 18.6515 Q2050.56 18.6515 2053.43 22.1237 Q2056.29 25.567 2056.29 32.2799 Z" fill="#000000" fill-rule="evenodd" fill-opacity="1" /><path clip-path="url(#clip392)" d="
M188.861 878.651 L215.121 1084.32 L241.382 873.166 L267.643 988.877 L293.904 860.678 L320.165 907.694 L346.426 1132.57 L372.687 827.276 L398.948 826.661 L425.208 838.876 
  L451.469 858.313 L477.73 1080.67 L503.991 997.232 L530.252 942.272 L556.513 784.905 L582.774 1032.35 L609.034 939.853 L635.295 969.073 L661.556 1106.15 L687.817 867.207 
  L714.078 838.923 L740.339 863.767 L766.6 858.805 L792.86 972.341 L819.121 972.401 L845.382 931.172 L871.643 929.566 L897.904 758.059 L924.165 965.539 L950.426 692.923 
  L976.687 808.281 L1002.95 851.674 L1029.21 785.825 L1055.47 837.691 L1081.73 851.427 L1107.99 795.052 L1134.25 757.104 L1160.51 957.326 L1186.77 954.804 L1213.03 1040.8 
  L1239.3 1447.38 L1265.56 677.317 L1291.82 611.426 L1318.08 823.778 L1344.34 1085.47 L1370.6 1003.25 L1396.86 845.246 L1423.12 921.527 L1449.38 925.347 L1475.64 682.823 
  L1501.9 774.711 L1528.16 895.339 L1554.43 879.561 L1580.69 776.025 L1606.95 1052 L1633.21 843.628 L1659.47 799.319 L1685.73 789.891 L1711.99 893.867 L1738.25 799.521 
  L1764.51 786.468 L1790.77 931.308 L1817.03 794.966 L1843.3 864.956 L1869.56 972.084 L1895.82 1036.71 L1922.08 868.114 L1948.34 1100.75 L1974.6 956.56 L2000.86 903.832 
  L2027.12 852.7 L2053.38 792.031 L2079.64 912.286 L2105.9 818.638 L2132.16 944.106 L2158.43 687.706 L2184.69 822.16 L2210.95 824.656 L2237.21 850.559 L2263.47 1050.36 
  L2289.73 917.856 L2289.73 367.248 L2263.47 618.573 L2237.21 592.889 L2210.95 548.702 L2184.69 551.587 L2158.43 558.977 L2132.16 428.941 L2105.9 502.095 L2079.64 336.786 
  L2053.38 567.574 L2027.12 497.142 L2000.86 490.831 L1974.6 622.519 L1948.34 809.395 L1922.08 497.17 L1895.82 674.824 L1869.56 601.685 L1843.3 572.989 L1817.03 491.612 
  L1790.77 584.541 L1764.51 277.428 L1738.25 564.703 L1711.99 548.686 L1685.73 497.558 L1659.47 387.151 L1633.21 292.712 L1606.95 616.305 L1580.69 470.006 L1554.43 650.018 
  L1528.16 607.074 L1501.9 496.322 L1475.64 457.929 L1449.38 289.447 L1423.12 351.559 L1396.86 575.304 L1370.6 522.781 L1344.34 613.76 L1318.08 387.048 L1291.82 335.143 
  L1265.56 241.342 L1239.3 1104.26 L1213.03 534.744 L1186.77 580.967 L1160.51 364.115 L1134.25 319.108 L1107.99 523.851 L1081.73 435.257 L1055.47 560.356 L1029.21 481.852 
  L1002.95 471.672 L976.687 459.322 L950.426 417.609 L924.165 471.282 L897.904 562.557 L871.643 484.369 L845.382 504.596 L819.121 536.856 L792.86 566.238 L766.6 603.768 
  L740.339 550.138 L714.078 561.479 L687.817 611.414 L661.556 656.891 L635.295 429.76 L609.034 669.698 L582.774 470.536 L556.513 512.199 L530.252 494.325 L503.991 679.427 
  L477.73 481.108 L451.469 529.793 L425.208 613.749 L398.948 484.399 L372.687 580.07 L346.426 647.194 L320.165 516.77 L293.904 472.471 L267.643 612.986 L241.382 360.3 
  L215.121 145.256 L188.861 604.13  Z
  " fill="#008080" fill-rule="evenodd" fill-opacity="0.1"/>
<polyline clip-path="url(#clip392)" style="stroke:#008080; stroke-width:6; stroke-opacity:1; fill:none" points="
  188.861,737.355 215.121,657.597 241.382,689.408 267.643,712.856 293.904,689.647 320.165,671.921 346.426,823.966 372.687,704.119 398.948,695.524 425.208,731.361 
  451.469,680.583 477.73,756.684 503.991,788.432 530.252,660.047 556.513,652.628 582.774,804.091 609.034,765.342 635.295,666.724 661.556,807.86 687.817,738.429 
  714.078,653.982 740.339,673.587 766.6,737.402 792.86,723.502 819.121,749.129 845.382,670.562 871.643,696.054 897.904,664.84 924.165,734.832 950.426,575.001 
  976.687,636.205 1002.95,670.67 1029.21,652.066 1055.47,714.62 1081.73,672.229 1107.99,680.133 1134.25,530.33 1160.51,652.571 1186.77,738.497 1213.03,787.396 
  1239.3,1302.56 1265.56,565.136 1291.82,441.131 1318.08,635.81 1344.34,755.285 1370.6,746.52 1396.86,663.642 1423.12,673.188 1449.38,613.231 1475.64,555.531 
  1501.9,619.059 1528.16,734.725 1554.43,756.723 1580.69,612.159 1606.95,859.992 1633.21,662.107 1659.47,666.194 1685.73,640.723 1711.99,741.835 1738.25,691.051 
  1764.51,617.306 1790.77,725.272 1817.03,654.388 1843.3,720.043 1869.56,825.141 1895.82,846.155 1922.08,743.027 1948.34,921.758 1974.6,812.764 2000.86,776.835 
  2027.12,625.805 2053.38,692.097 2079.64,642.255 2105.9,683.834 2132.16,736.366 2158.43,614.727 2184.69,728.48 2210.95,616.73 2237.21,738.716 2263.47,786.235 
  2289.73,703.075 
  "/>
<polyline clip-path="url(#clip392)" style="stroke:#ff0000; stroke-width:5; stroke-opacity:0.85; fill:none" points="
  188.861,732.539 215.121,703.864 241.382,695.163 267.643,638.178 293.904,602.353 320.165,613.473 346.426,643.71 372.687,730.294 398.948,737.507 425.208,792.034 
  451.469,793.464 477.73,847.461 503.991,803.206 530.252,741.486 556.513,677.408 582.774,713.304 609.034,766.788 635.295,746.419 661.556,722.449 687.817,594.878 
  714.078,595.393 740.339,671.573 766.6,655.653 792.86,673.419 819.121,680.202 845.382,643.02 871.643,647.347 897.904,642.717 924.165,624.586 950.426,586.378 
  976.687,658.986 1002.95,669.749 1029.21,594.291 1055.47,595.006 1081.73,624.448 1107.99,674.01 1134.25,591.433 1160.51,722.76 1186.77,788.103 1213.03,896.192 
  1239.3,1167.37 1265.56,1219.75 1291.82,679.774 1318.08,629.007 1344.34,594.774 1370.6,635.025 1396.86,589.014 1423.12,626.599 1449.38,627.783 1475.64,708.922 
  1501.9,699.294 1528.16,706.926 1554.43,714.004 1580.69,714.081 1606.95,766.664 1633.21,738.617 1659.47,776.217 1685.73,697.692 1711.99,698.661 1738.25,675.592 
  1764.51,709.252 1790.77,737.371 1817.03,726.058 1843.3,684.578 1869.56,712.373 1895.82,690.344 1922.08,717.988 1948.34,734.741 1974.6,755.366 2000.86,711.014 
  2027.12,728.747 2053.38,737.814 2079.64,677.311 2105.9,693.867 2132.16,688.392 2158.43,674.96 2184.69,675.043 2210.95,711.329 2237.21,726.791 2263.47,744.219 
  2289.73,761.218 
  "/>
<path clip-path="url(#clip390)" d="
M197.835 1342.45 L1040.97 1342.45 L1040.97 1183.69 L197.835 1183.69  Z
  " fill="#ffffff" fill-rule="evenodd" fill-opacity="1"/>
<polyline clip-path="url(#clip390)" style="stroke:#000000; stroke-width:4; stroke-opacity:0; fill:none" points="
  197.835,1342.45 1040.97,1342.45 1040.97,1183.69 197.835,1183.69 197.835,1342.45 
  "/>
<polyline clip-path="url(#clip390)" style="stroke:#008080; stroke-width:3.5; stroke-opacity:1; fill:none" points="
  221.835,1236.61 365.835,1236.61 
  "/>
<path clip-path="url(#clip390)" d="M 0 0 M389.835 1221.49 L395.344 1221.49 L408.752 1246.79 L408.752 1221.49 L412.722 1221.49 L412.722 1251.73 L407.213 1251.73 L393.804 1226.43 L393.804 1251.73 L389.835 1251.73 L389.835 1221.49 Z" fill="#000000" fill-rule="evenodd" fill-opacity="1" /><path clip-path="url(#clip390)" d="M 0 0 M436.035 1239.45 L436.035 1241.28 L418.9 1241.28 Q419.143 1245.12 421.209 1247.15 Q423.295 1249.16 427.002 1249.16 Q429.149 1249.16 431.154 1248.63 Q433.179 1248.1 435.164 1247.05 L435.164 1250.57 Q433.159 1251.42 431.052 1251.87 Q428.946 1252.32 426.779 1252.32 Q421.351 1252.32 418.171 1249.16 Q415.011 1246 415.011 1240.61 Q415.011 1235.04 418.009 1231.78 Q421.026 1228.5 426.131 1228.5 Q430.708 1228.5 433.361 1231.45 Q436.035 1234.39 436.035 1239.45 M432.308 1238.36 Q432.268 1235.3 430.587 1233.48 Q428.926 1231.66 426.171 1231.66 Q423.052 1231.66 421.168 1233.42 Q419.305 1235.18 419.021 1238.38 L432.308 1238.36 Z" fill="#000000" fill-rule="evenodd" fill-opacity="1" /><path clip-path="url(#clip390)" d="M 0 0 M437.777 1229.04 L441.504 1229.04 L446.162 1246.75 L450.801 1229.04 L455.196 1229.04 L459.854 1246.75 L464.493 1229.04 L468.22 1229.04 L462.285 1251.73 L457.89 1251.73 L453.008 1233.13 L448.107 1251.73 L443.712 1251.73 L437.777 1229.04 Z" fill="#000000" fill-rule="evenodd" fill-opacity="1" /><path clip-path="url(#clip390)" d="M 0 0 M486.59 1229.71 L486.59 1233.24 Q485.011 1232.43 483.309 1232.02 Q481.608 1231.62 479.785 1231.62 Q477.01 1231.62 475.612 1232.47 Q474.235 1233.32 474.235 1235.02 Q474.235 1236.31 475.228 1237.06 Q476.22 1237.79 479.218 1238.46 L480.494 1238.74 Q484.464 1239.6 486.125 1241.16 Q487.806 1242.69 487.806 1245.47 Q487.806 1248.63 485.294 1250.47 Q482.803 1252.32 478.428 1252.32 Q476.605 1252.32 474.62 1251.95 Q472.655 1251.61 470.468 1250.9 L470.468 1247.05 Q472.534 1248.12 474.539 1248.67 Q476.544 1249.2 478.509 1249.2 Q481.142 1249.2 482.56 1248.3 Q483.978 1247.39 483.978 1245.75 Q483.978 1244.23 482.945 1243.42 Q481.932 1242.61 478.468 1241.86 L477.172 1241.56 Q473.708 1240.83 472.169 1239.33 Q470.63 1237.81 470.63 1235.18 Q470.63 1231.98 472.898 1230.24 Q475.167 1228.5 479.339 1228.5 Q481.405 1228.5 483.228 1228.8 Q485.051 1229.1 486.59 1229.71 Z" fill="#000000" fill-rule="evenodd" fill-opacity="1" /><path clip-path="url(#clip390)" d="M 0 0 M489.831 1238.7 L500.748 1238.7 L500.748 1242.03 L489.831 1242.03 L489.831 1238.7 Z" fill="#000000" fill-rule="evenodd" fill-opacity="1" /><path clip-path="url(#clip390)" d="M 0 0 M514.967 1240.32 Q510.45 1240.32 508.708 1241.36 Q506.966 1242.39 506.966 1244.88 Q506.966 1246.87 508.263 1248.04 Q509.579 1249.2 511.827 1249.2 Q514.926 1249.2 516.79 1247.01 Q518.674 1244.8 518.674 1241.16 L518.674 1240.32 L514.967 1240.32 M522.4 1238.79 L522.4 1251.73 L518.674 1251.73 L518.674 1248.28 Q517.397 1250.35 515.494 1251.34 Q513.59 1252.32 510.835 1252.32 Q507.351 1252.32 505.285 1250.37 Q503.24 1248.41 503.24 1245.12 Q503.24 1241.3 505.792 1239.35 Q508.364 1237.41 513.448 1237.41 L518.674 1237.41 L518.674 1237.04 Q518.674 1234.47 516.972 1233.07 Q515.291 1231.66 512.233 1231.66 Q510.288 1231.66 508.445 1232.12 Q506.602 1232.59 504.9 1233.52 L504.9 1230.08 Q506.946 1229.29 508.87 1228.9 Q510.795 1228.5 512.617 1228.5 Q517.539 1228.5 519.97 1231.05 Q522.4 1233.6 522.4 1238.79 Z" fill="#000000" fill-rule="evenodd" fill-opacity="1" /><path clip-path="url(#clip390)" d="M 0 0 M525.925 1242.78 L525.925 1229.04 L529.651 1229.04 L529.651 1242.63 Q529.651 1245.85 530.907 1247.47 Q532.163 1249.07 534.675 1249.07 Q537.693 1249.07 539.434 1247.15 Q541.197 1245.23 541.197 1241.9 L541.197 1229.04 L544.923 1229.04 L544.923 1251.73 L541.197 1251.73 L541.197 1248.24 Q539.839 1250.31 538.037 1251.32 Q536.254 1252.32 533.885 1252.32 Q529.976 1252.32 527.95 1249.88 Q525.925 1247.45 525.925 1242.78 M535.302 1228.5 L535.302 1228.5 Z" fill="#000000" fill-rule="evenodd" fill-opacity="1" /><path clip-path="url(#clip390)" d="M 0 0 M563.76 1240.12 Q563.76 1236.07 562.079 1233.84 Q560.418 1231.62 557.4 1231.62 Q554.402 1231.62 552.721 1233.84 Q551.06 1236.07 551.06 1240.12 Q551.06 1244.15 552.721 1246.38 Q554.402 1248.61 557.4 1248.61 Q560.418 1248.61 562.079 1246.38 Q563.76 1244.15 563.76 1240.12 M567.487 1248.91 Q567.487 1254.71 564.915 1257.52 Q562.342 1260.36 557.036 1260.36 Q555.071 1260.36 553.329 1260.05 Q551.587 1259.77 549.946 1259.16 L549.946 1255.54 Q551.587 1256.43 553.187 1256.85 Q554.787 1257.28 556.448 1257.28 Q560.114 1257.28 561.937 1255.35 Q563.76 1253.45 563.76 1249.58 L563.76 1247.74 Q562.606 1249.74 560.803 1250.74 Q559 1251.73 556.489 1251.73 Q552.316 1251.73 549.764 1248.55 Q547.212 1245.37 547.212 1240.12 Q547.212 1234.86 549.764 1231.68 Q552.316 1228.5 556.489 1228.5 Q559 1228.5 560.803 1229.49 Q562.606 1230.48 563.76 1232.49 L563.76 1229.04 L567.487 1229.04 L567.487 1248.91 Z" fill="#000000" fill-rule="evenodd" fill-opacity="1" /><path clip-path="url(#clip390)" d="M 0 0 M589.058 1233.4 Q590.456 1230.89 592.4 1229.69 Q594.344 1228.5 596.977 1228.5 Q600.522 1228.5 602.446 1230.99 Q604.37 1233.46 604.37 1238.04 L604.37 1251.73 L600.623 1251.73 L600.623 1238.16 Q600.623 1234.9 599.469 1233.32 Q598.314 1231.74 595.945 1231.74 Q593.048 1231.74 591.367 1233.66 Q589.686 1235.59 589.686 1238.91 L589.686 1251.73 L585.939 1251.73 L585.939 1238.16 Q585.939 1234.88 584.784 1233.32 Q583.63 1231.74 581.219 1231.74 Q578.364 1231.74 576.682 1233.68 Q575.001 1235.61 575.001 1238.91 L575.001 1251.73 L571.254 1251.73 L571.254 1229.04 L575.001 1229.04 L575.001 1232.57 Q576.277 1230.48 578.06 1229.49 Q579.842 1228.5 582.293 1228.5 Q584.764 1228.5 586.486 1229.75 Q588.228 1231.01 589.058 1233.4 Z" fill="#000000" fill-rule="evenodd" fill-opacity="1" /><path clip-path="url(#clip390)" d="M 0 0 M627.683 1239.45 L627.683 1241.28 L610.548 1241.28 Q610.791 1245.12 612.857 1247.15 Q614.943 1249.16 618.65 1249.16 Q620.797 1249.16 622.802 1248.63 Q624.827 1248.1 626.812 1247.05 L626.812 1250.57 Q624.807 1251.42 622.701 1251.87 Q620.594 1252.32 618.427 1252.32 Q612.999 1252.32 609.819 1249.16 Q606.659 1246 606.659 1240.61 Q606.659 1235.04 609.657 1231.78 Q612.675 1228.5 617.779 1228.5 Q622.356 1228.5 625.01 1231.45 Q627.683 1234.39 627.683 1239.45 M623.957 1238.36 Q623.916 1235.3 622.235 1233.48 Q620.574 1231.66 617.819 1231.66 Q614.7 1231.66 612.817 1233.42 Q610.953 1235.18 610.67 1238.38 L623.957 1238.36 Z" fill="#000000" fill-rule="evenodd" fill-opacity="1" /><path clip-path="url(#clip390)" d="M 0 0 M650.449 1238.04 L650.449 1251.73 L646.723 1251.73 L646.723 1238.16 Q646.723 1234.94 645.467 1233.34 Q644.211 1231.74 641.699 1231.74 Q638.682 1231.74 636.94 1233.66 Q635.198 1235.59 635.198 1238.91 L635.198 1251.73 L631.451 1251.73 L631.451 1229.04 L635.198 1229.04 L635.198 1232.57 Q636.535 1230.52 638.337 1229.51 Q640.16 1228.5 642.53 1228.5 Q646.439 1228.5 648.444 1230.93 Q650.449 1233.34 650.449 1238.04 Z" fill="#000000" fill-rule="evenodd" fill-opacity="1" /><path clip-path="url(#clip390)" d="M 0 0 M658.045 1222.6 L658.045 1229.04 L665.721 1229.04 L665.721 1231.94 L658.045 1231.94 L658.045 1244.25 Q658.045 1247.03 658.794 1247.82 Q659.564 1248.61 661.893 1248.61 L665.721 1248.61 L665.721 1251.73 L661.893 1251.73 Q657.579 1251.73 655.938 1250.13 Q654.298 1248.51 654.298 1244.25 L654.298 1231.94 L651.563 1231.94 L651.563 1229.04 L654.298 1229.04 L654.298 1222.6 L658.045 1222.6 Z" fill="#000000" fill-rule="evenodd" fill-opacity="1" /><path clip-path="url(#clip390)" d="M 0 0 M689.034 1239.45 L689.034 1241.28 L671.899 1241.28 Q672.142 1245.12 674.208 1247.15 Q676.294 1249.16 680.001 1249.16 Q682.148 1249.16 684.153 1248.63 Q686.178 1248.1 688.163 1247.05 L688.163 1250.57 Q686.158 1251.42 684.052 1251.87 Q681.945 1252.32 679.778 1252.32 Q674.35 1252.32 671.17 1249.16 Q668.01 1246 668.01 1240.61 Q668.01 1235.04 671.008 1231.78 Q674.026 1228.5 679.13 1228.5 Q683.707 1228.5 686.361 1231.45 Q689.034 1234.39 689.034 1239.45 M685.307 1238.36 Q685.267 1235.3 683.586 1233.48 Q681.925 1231.66 679.17 1231.66 Q676.051 1231.66 674.167 1233.42 Q672.304 1235.18 672.02 1238.38 L685.307 1238.36 Z" fill="#000000" fill-rule="evenodd" fill-opacity="1" /><path clip-path="url(#clip390)" d="M 0 0 M707.871 1232.49 L707.871 1220.21 L711.598 1220.21 L711.598 1251.73 L707.871 1251.73 L707.871 1248.33 Q706.696 1250.35 704.894 1251.34 Q703.111 1252.32 700.6 1252.32 Q696.488 1252.32 693.895 1249.03 Q691.323 1245.75 691.323 1240.41 Q691.323 1235.06 693.895 1231.78 Q696.488 1228.5 700.6 1228.5 Q703.111 1228.5 704.894 1229.49 Q706.696 1230.46 707.871 1232.49 M695.171 1240.41 Q695.171 1244.52 696.853 1246.87 Q698.554 1249.2 701.511 1249.2 Q704.468 1249.2 706.17 1246.87 Q707.871 1244.52 707.871 1240.41 Q707.871 1236.29 706.17 1233.96 Q704.468 1231.62 701.511 1231.62 Q698.554 1231.62 696.853 1233.96 Q695.171 1236.29 695.171 1240.41 Z" fill="#000000" fill-rule="evenodd" fill-opacity="1" /><path clip-path="url(#clip390)" d="M 0 0 M745.018 1229.91 L745.018 1233.4 Q743.438 1232.53 741.838 1232.1 Q740.258 1231.66 738.638 1231.66 Q735.012 1231.66 733.007 1233.96 Q731.002 1236.25 731.002 1240.41 Q731.002 1244.56 733.007 1246.87 Q735.012 1249.16 738.638 1249.16 Q740.258 1249.16 741.838 1248.73 Q743.438 1248.28 745.018 1247.41 L745.018 1250.86 Q743.458 1251.59 741.777 1251.95 Q740.116 1252.32 738.233 1252.32 Q733.108 1252.32 730.09 1249.09 Q727.072 1245.87 727.072 1240.41 Q727.072 1234.86 730.11 1231.68 Q733.169 1228.5 738.476 1228.5 Q740.197 1228.5 741.838 1228.86 Q743.478 1229.2 745.018 1229.91 Z" fill="#000000" fill-rule="evenodd" fill-opacity="1" /><path clip-path="url(#clip390)" d="M 0 0 M757.717 1231.66 Q754.72 1231.66 752.978 1234.01 Q751.236 1236.33 751.236 1240.41 Q751.236 1244.48 752.958 1246.83 Q754.699 1249.16 757.717 1249.16 Q760.695 1249.16 762.437 1246.81 Q764.179 1244.46 764.179 1240.41 Q764.179 1236.37 762.437 1234.03 Q760.695 1231.66 757.717 1231.66 M757.717 1228.5 Q762.578 1228.5 765.353 1231.66 Q768.128 1234.82 768.128 1240.41 Q768.128 1245.98 765.353 1249.16 Q762.578 1252.32 757.717 1252.32 Q752.836 1252.32 750.061 1249.16 Q747.307 1245.98 747.307 1240.41 Q747.307 1234.82 750.061 1231.66 Q752.836 1228.5 757.717 1228.5 Z" fill="#000000" fill-rule="evenodd" fill-opacity="1" /><path clip-path="url(#clip390)" d="M 0 0 M789.699 1233.4 Q791.097 1230.89 793.041 1229.69 Q794.986 1228.5 797.619 1228.5 Q801.163 1228.5 803.088 1230.99 Q805.012 1233.46 805.012 1238.04 L805.012 1251.73 L801.265 1251.73 L801.265 1238.16 Q801.265 1234.9 800.11 1233.32 Q798.956 1231.74 796.586 1231.74 Q793.689 1231.74 792.008 1233.66 Q790.327 1235.59 790.327 1238.91 L790.327 1251.73 L786.58 1251.73 L786.58 1238.16 Q786.58 1234.88 785.426 1233.32 Q784.271 1231.74 781.861 1231.74 Q779.005 1231.74 777.324 1233.68 Q775.643 1235.61 775.643 1238.91 L775.643 1251.73 L771.896 1251.73 L771.896 1229.04 L775.643 1229.04 L775.643 1232.57 Q776.919 1230.48 778.701 1229.49 Q780.483 1228.5 782.934 1228.5 Q785.405 1228.5 787.127 1229.75 Q788.869 1231.01 789.699 1233.4 Z" fill="#000000" fill-rule="evenodd" fill-opacity="1" /><path clip-path="url(#clip390)" d="M 0 0 M826.583 1233.4 Q827.98 1230.89 829.925 1229.69 Q831.869 1228.5 834.502 1228.5 Q838.047 1228.5 839.971 1230.99 Q841.895 1233.46 841.895 1238.04 L841.895 1251.73 L838.148 1251.73 L838.148 1238.16 Q838.148 1234.9 836.994 1233.32 Q835.839 1231.74 833.469 1231.74 Q830.573 1231.74 828.892 1233.66 Q827.211 1235.59 827.211 1238.91 L827.211 1251.73 L823.464 1251.73 L823.464 1238.16 Q823.464 1234.88 822.309 1233.32 Q821.155 1231.74 818.744 1231.74 Q815.888 1231.74 814.207 1233.68 Q812.526 1235.61 812.526 1238.91 L812.526 1251.73 L808.779 1251.73 L808.779 1229.04 L812.526 1229.04 L812.526 1232.57 Q813.802 1230.48 815.585 1229.49 Q817.367 1228.5 819.818 1228.5 Q822.289 1228.5 824.01 1229.75 Q825.752 1231.01 826.583 1233.4 Z" fill="#000000" fill-rule="evenodd" fill-opacity="1" /><path clip-path="url(#clip390)" d="M 0 0 M846.331 1246.58 L850.605 1246.58 L850.605 1251.73 L846.331 1251.73 L846.331 1246.58 Z" fill="#000000" fill-rule="evenodd" fill-opacity="1" /><path clip-path="url(#clip390)" d="M 0 0 M882.161 1229.71 L882.161 1233.24 Q880.581 1232.43 878.88 1232.02 Q877.179 1231.62 875.356 1231.62 Q872.581 1231.62 871.183 1232.47 Q869.806 1233.32 869.806 1235.02 Q869.806 1236.31 870.798 1237.06 Q871.791 1237.79 874.789 1238.46 L876.065 1238.74 Q880.034 1239.6 881.695 1241.16 Q883.376 1242.69 883.376 1245.47 Q883.376 1248.63 880.865 1250.47 Q878.374 1252.32 873.999 1252.32 Q872.176 1252.32 870.191 1251.95 Q868.226 1251.61 866.039 1250.9 L866.039 1247.05 Q868.105 1248.12 870.11 1248.67 Q872.115 1249.2 874.08 1249.2 Q876.713 1249.2 878.131 1248.3 Q879.548 1247.39 879.548 1245.75 Q879.548 1244.23 878.515 1243.42 Q877.503 1242.61 874.039 1241.86 L872.743 1241.56 Q869.279 1240.83 867.74 1239.33 Q866.201 1237.81 866.201 1235.18 Q866.201 1231.98 868.469 1230.24 Q870.738 1228.5 874.91 1228.5 Q876.976 1228.5 878.799 1228.8 Q880.622 1229.1 882.161 1229.71 Z" fill="#000000" fill-rule="evenodd" fill-opacity="1" /><path clip-path="url(#clip390)" d="M 0 0 M906.143 1238.04 L906.143 1251.73 L902.416 1251.73 L902.416 1238.16 Q902.416 1234.94 901.16 1233.34 Q899.904 1231.74 897.393 1231.74 Q894.375 1231.74 892.633 1233.66 Q890.891 1235.59 890.891 1238.91 L890.891 1251.73 L887.144 1251.73 L887.144 1220.21 L890.891 1220.21 L890.891 1232.57 Q892.228 1230.52 894.03 1229.51 Q895.853 1228.5 898.223 1228.5 Q902.132 1228.5 904.137 1230.93 Q906.143 1233.34 906.143 1238.04 Z" fill="#000000" fill-rule="evenodd" fill-opacity="1" /><path clip-path="url(#clip390)" d="M 0 0 M918.842 1231.66 Q915.844 1231.66 914.103 1234.01 Q912.361 1236.33 912.361 1240.41 Q912.361 1244.48 914.082 1246.83 Q915.824 1249.16 918.842 1249.16 Q921.82 1249.16 923.561 1246.81 Q925.303 1244.46 925.303 1240.41 Q925.303 1236.37 923.561 1234.03 Q921.82 1231.66 918.842 1231.66 M918.842 1228.5 Q923.703 1228.5 926.478 1231.66 Q929.253 1234.82 929.253 1240.41 Q929.253 1245.98 926.478 1249.16 Q923.703 1252.32 918.842 1252.32 Q913.961 1252.32 911.186 1249.16 Q908.431 1245.98 908.431 1240.41 Q908.431 1234.82 911.186 1231.66 Q913.961 1228.5 918.842 1228.5 Z" fill="#000000" fill-rule="evenodd" fill-opacity="1" /><path clip-path="url(#clip390)" d="M 0 0 M949.487 1229.91 L949.487 1233.4 Q947.907 1232.53 946.307 1232.1 Q944.727 1231.66 943.107 1231.66 Q939.481 1231.66 937.476 1233.96 Q935.471 1236.25 935.471 1240.41 Q935.471 1244.56 937.476 1246.87 Q939.481 1249.16 943.107 1249.16 Q944.727 1249.16 946.307 1248.73 Q947.907 1248.28 949.487 1247.41 L949.487 1250.86 Q947.928 1251.59 946.246 1251.95 Q944.586 1252.32 942.702 1252.32 Q937.578 1252.32 934.56 1249.09 Q931.542 1245.87 931.542 1240.41 Q931.542 1234.86 934.58 1231.68 Q937.638 1228.5 942.945 1228.5 Q944.667 1228.5 946.307 1228.86 Q947.948 1229.2 949.487 1229.91 Z" fill="#000000" fill-rule="evenodd" fill-opacity="1" /><path clip-path="url(#clip390)" d="M 0 0 M953.255 1220.21 L957.002 1220.21 L957.002 1238.83 L968.121 1229.04 L972.881 1229.04 L960.85 1239.66 L973.388 1251.73 L968.526 1251.73 L957.002 1240.65 L957.002 1251.73 L953.255 1251.73 L953.255 1220.21 Z" fill="#000000" fill-rule="evenodd" fill-opacity="1" /><path clip-path="url(#clip390)" d="M 0 0 M991.758 1229.71 L991.758 1233.24 Q990.179 1232.43 988.477 1232.02 Q986.776 1231.62 984.953 1231.62 Q982.178 1231.62 980.78 1232.47 Q979.403 1233.32 979.403 1235.02 Q979.403 1236.31 980.396 1237.06 Q981.388 1237.79 984.386 1238.46 L985.662 1238.74 Q989.632 1239.6 991.293 1241.16 Q992.974 1242.69 992.974 1245.47 Q992.974 1248.63 990.462 1250.47 Q987.971 1252.32 983.596 1252.32 Q981.773 1252.32 979.788 1251.95 Q977.823 1251.61 975.636 1250.9 L975.636 1247.05 Q977.702 1248.12 979.707 1248.67 Q981.712 1249.2 983.677 1249.2 Q986.31 1249.2 987.728 1248.3 Q989.146 1247.39 989.146 1245.75 Q989.146 1244.23 988.113 1243.42 Q987.1 1242.61 983.636 1241.86 L982.34 1241.56 Q978.876 1240.83 977.337 1239.33 Q975.798 1237.81 975.798 1235.18 Q975.798 1231.98 978.066 1230.24 Q980.335 1228.5 984.507 1228.5 Q986.573 1228.5 988.396 1228.8 Q990.219 1229.1 991.758 1229.71 Z" fill="#000000" fill-rule="evenodd" fill-opacity="1" /><polyline clip-path="url(#clip390)" style="stroke:#ff0000; stroke-width:3.5; stroke-opacity:0.85; fill:none" points="
  221.835,1289.53 365.835,1289.53 
  "/>
<path clip-path="url(#clip390)" d="M 0 0 M412.196 1300.33 L412.196 1292.21 L405.512 1292.21 L405.512 1288.85 L416.246 1288.85 L416.246 1301.83 Q413.877 1303.51 411.021 1304.38 Q408.165 1305.24 404.924 1305.24 Q397.835 1305.24 393.825 1301.1 Q389.835 1296.95 389.835 1289.56 Q389.835 1282.15 393.825 1278.01 Q397.835 1273.86 404.924 1273.86 Q407.881 1273.86 410.535 1274.59 Q413.208 1275.32 415.456 1276.74 L415.456 1281.09 Q413.188 1279.17 410.636 1278.2 Q408.084 1277.22 405.268 1277.22 Q399.719 1277.22 396.924 1280.32 Q394.149 1283.42 394.149 1289.56 Q394.149 1295.68 396.924 1298.77 Q399.719 1301.87 405.268 1301.87 Q407.436 1301.87 409.137 1301.51 Q410.838 1301.12 412.196 1300.33 Z" fill="#000000" fill-rule="evenodd" fill-opacity="1" /><path clip-path="url(#clip390)" d="M 0 0 M424.206 1301.2 L438.486 1301.2 L438.486 1304.65 L419.285 1304.65 L419.285 1301.2 Q421.614 1298.79 425.624 1294.74 Q429.655 1290.67 430.688 1289.5 Q432.653 1287.29 433.422 1285.77 Q434.212 1284.23 434.212 1282.75 Q434.212 1280.34 432.511 1278.82 Q430.83 1277.3 428.116 1277.3 Q426.191 1277.3 424.044 1277.97 Q421.918 1278.64 419.487 1280 L419.487 1275.87 Q421.958 1274.87 424.105 1274.37 Q426.252 1273.86 428.035 1273.86 Q432.734 1273.86 435.529 1276.21 Q438.324 1278.56 438.324 1282.49 Q438.324 1284.35 437.615 1286.03 Q436.926 1287.69 435.083 1289.96 Q434.577 1290.55 431.863 1293.37 Q429.149 1296.16 424.206 1301.2 Z" fill="#000000" fill-rule="evenodd" fill-opacity="1" /><path clip-path="url(#clip390)" d="M 0 0 M451.672 1277.1 Q448.512 1277.1 446.912 1280.22 Q445.332 1283.32 445.332 1289.56 Q445.332 1295.78 446.912 1298.9 Q448.512 1301.99 451.672 1301.99 Q454.852 1301.99 456.431 1298.9 Q458.031 1295.78 458.031 1289.56 Q458.031 1283.32 456.431 1280.22 Q454.852 1277.1 451.672 1277.1 M451.672 1273.86 Q456.755 1273.86 459.429 1277.89 Q462.123 1281.9 462.123 1289.56 Q462.123 1297.19 459.429 1301.22 Q456.755 1305.24 451.672 1305.24 Q446.588 1305.24 443.894 1301.22 Q441.22 1297.19 441.22 1289.56 Q441.22 1281.9 443.894 1277.89 Q446.588 1273.86 451.672 1273.86 Z" fill="#000000" fill-rule="evenodd" fill-opacity="1" /><path clip-path="url(#clip390)" d="M 0 0 M488.008 1284.58 Q485.011 1284.58 483.269 1286.93 Q481.527 1289.25 481.527 1293.33 Q481.527 1297.4 483.248 1299.75 Q484.99 1302.08 488.008 1302.08 Q490.986 1302.08 492.727 1299.73 Q494.469 1297.38 494.469 1293.33 Q494.469 1289.29 492.727 1286.95 Q490.986 1284.58 488.008 1284.58 M488.008 1281.42 Q492.869 1281.42 495.644 1284.58 Q498.419 1287.74 498.419 1293.33 Q498.419 1298.9 495.644 1302.08 Q492.869 1305.24 488.008 1305.24 Q483.127 1305.24 480.352 1302.08 Q477.597 1298.9 477.597 1293.33 Q477.597 1287.74 480.352 1284.58 Q483.127 1281.42 488.008 1281.42 Z" fill="#000000" fill-rule="evenodd" fill-opacity="1" /><path clip-path="url(#clip390)" d="M 0 0 M501.943 1295.7 L501.943 1281.96 L505.67 1281.96 L505.67 1295.55 Q505.67 1298.77 506.926 1300.39 Q508.182 1301.99 510.693 1301.99 Q513.711 1301.99 515.453 1300.07 Q517.215 1298.15 517.215 1294.82 L517.215 1281.96 L520.942 1281.96 L520.942 1304.65 L517.215 1304.65 L517.215 1301.16 Q515.858 1303.23 514.055 1304.24 Q512.273 1305.24 509.903 1305.24 Q505.994 1305.24 503.969 1302.8 Q501.943 1300.37 501.943 1295.7 M511.321 1281.42 L511.321 1281.42 Z" fill="#000000" fill-rule="evenodd" fill-opacity="1" /><path clip-path="url(#clip390)" d="M 0 0 M528.537 1275.52 L528.537 1281.96 L536.214 1281.96 L536.214 1284.86 L528.537 1284.86 L528.537 1297.17 Q528.537 1299.95 529.287 1300.74 Q530.057 1301.53 532.386 1301.53 L536.214 1301.53 L536.214 1304.65 L532.386 1304.65 Q528.072 1304.65 526.431 1303.05 Q524.79 1301.43 524.79 1297.17 L524.79 1284.86 L522.056 1284.86 L522.056 1281.96 L524.79 1281.96 L524.79 1275.52 L528.537 1275.52 Z" fill="#000000" fill-rule="evenodd" fill-opacity="1" /><path clip-path="url(#clip390)" d="M 0 0 M543.728 1301.25 L543.728 1313.28 L539.981 1313.28 L539.981 1281.96 L543.728 1281.96 L543.728 1285.41 Q544.903 1283.38 546.686 1282.41 Q548.488 1281.42 550.979 1281.42 Q555.111 1281.42 557.684 1284.7 Q560.276 1287.98 560.276 1293.33 Q560.276 1298.67 557.684 1301.95 Q555.111 1305.24 550.979 1305.24 Q548.488 1305.24 546.686 1304.26 Q544.903 1303.27 543.728 1301.25 M556.408 1293.33 Q556.408 1289.21 554.706 1286.88 Q553.025 1284.54 550.068 1284.54 Q547.111 1284.54 545.409 1286.88 Q543.728 1289.21 543.728 1293.33 Q543.728 1297.44 545.409 1299.79 Q547.111 1302.12 550.068 1302.12 Q553.025 1302.12 554.706 1299.79 Q556.408 1297.44 556.408 1293.33 Z" fill="#000000" fill-rule="evenodd" fill-opacity="1" /><path clip-path="url(#clip390)" d="M 0 0 M563.801 1295.7 L563.801 1281.96 L567.527 1281.96 L567.527 1295.55 Q567.527 1298.77 568.783 1300.39 Q570.039 1301.99 572.551 1301.99 Q575.568 1301.99 577.31 1300.07 Q579.073 1298.15 579.073 1294.82 L579.073 1281.96 L582.799 1281.96 L582.799 1304.65 L579.073 1304.65 L579.073 1301.16 Q577.715 1303.23 575.913 1304.24 Q574.13 1305.24 571.761 1305.24 Q567.851 1305.24 565.826 1302.8 Q563.801 1300.37 563.801 1295.7 M573.178 1281.42 L573.178 1281.42 Z" fill="#000000" fill-rule="evenodd" fill-opacity="1" /><path clip-path="url(#clip390)" d="M 0 0 M590.395 1275.52 L590.395 1281.96 L598.071 1281.96 L598.071 1284.86 L590.395 1284.86 L590.395 1297.17 Q590.395 1299.95 591.144 1300.74 Q591.914 1301.53 594.243 1301.53 L598.071 1301.53 L598.071 1304.65 L594.243 1304.65 Q589.929 1304.65 588.288 1303.05 Q586.648 1301.43 586.648 1297.17 L586.648 1284.86 L583.913 1284.86 L583.913 1281.96 L586.648 1281.96 L586.648 1275.52 L590.395 1275.52 Z" fill="#000000" fill-rule="evenodd" fill-opacity="1" /></svg>
