<?xml version="1.0" encoding="utf-8"?>
<svg xmlns="http://www.w3.org/2000/svg" xmlns:xlink="http://www.w3.org/1999/xlink" width="600" height="400" viewBox="0 0 2400 1600">
<defs>
  <clipPath id="clip170">
    <rect x="0" y="0" width="2400" height="1600"/>
  </clipPath>
</defs>
<path clip-path="url(#clip170)" d="
M0 1600 L2400 1600 L2400 0 L0 0  Z
  " fill="#ffffff" fill-rule="evenodd" fill-opacity="1"/>
<defs>
  <clipPath id="clip171">
    <rect x="480" y="0" width="1681" height="1600"/>
  </clipPath>
</defs>
<path clip-path="url(#clip170)" d="
M136.76 1423.18 L2352.76 1423.18 L2352.76 47.2441 L136.76 47.2441  Z
  " fill="#ffffff" fill-rule="evenodd" fill-opacity="1"/>
<defs>
  <clipPath id="clip172">
    <rect x="136" y="47" width="2217" height="1377"/>
  </clipPath>
</defs>
<polyline clip-path="url(#clip172)" style="stroke:#000000; stroke-width:2; stroke-opacity:0.1; fill:none" points="
  477.781,1423.18 477.781,47.2441 
  "/>
<polyline clip-path="url(#clip172)" style="stroke:#000000; stroke-width:2; stroke-opacity:0.1; fill:none" points="
  916.053,1423.18 916.053,47.2441 
  "/>
<polyline clip-path="url(#clip172)" style="stroke:#000000; stroke-width:2; stroke-opacity:0.1; fill:none" points="
  1354.33,1423.18 1354.33,47.2441 
  "/>
<polyline clip-path="url(#clip172)" style="stroke:#000000; stroke-width:2; stroke-opacity:0.1; fill:none" points="
  1792.6,1423.18 1792.6,47.2441 
  "/>
<polyline clip-path="url(#clip172)" style="stroke:#000000; stroke-width:2; stroke-opacity:0.1; fill:none" points="
  2230.87,1423.18 2230.87,47.2441 
  "/>
<polyline clip-path="url(#clip172)" style="stroke:#000000; stroke-width:2; stroke-opacity:0.1; fill:none" points="
  136.76,1384.24 2352.76,1384.24 
  "/>
<polyline clip-path="url(#clip172)" style="stroke:#000000; stroke-width:2; stroke-opacity:0.1; fill:none" points="
  136.76,1042.65 2352.76,1042.65 
  "/>
<polyline clip-path="url(#clip172)" style="stroke:#000000; stroke-width:2; stroke-opacity:0.1; fill:none" points="
  136.76,701.053 2352.76,701.053 
  "/>
<polyline clip-path="url(#clip172)" style="stroke:#000000; stroke-width:2; stroke-opacity:0.1; fill:none" points="
  136.76,359.46 2352.76,359.46 
  "/>
<polyline clip-path="url(#clip170)" style="stroke:#000000; stroke-width:4; stroke-opacity:1; fill:none" points="
  136.76,1423.18 2352.76,1423.18 
  "/>
<polyline clip-path="url(#clip170)" style="stroke:#000000; stroke-width:4; stroke-opacity:1; fill:none" points="
  136.76,1423.18 136.76,47.2441 
  "/>
<polyline clip-path="url(#clip170)" style="stroke:#000000; stroke-width:4; stroke-opacity:1; fill:none" points="
  477.781,1423.18 477.781,1406.67 
  "/>
<polyline clip-path="url(#clip170)" style="stroke:#000000; stroke-width:4; stroke-opacity:1; fill:none" points="
  916.053,1423.18 916.053,1406.67 
  "/>
<polyline clip-path="url(#clip170)" style="stroke:#000000; stroke-width:4; stroke-opacity:1; fill:none" points="
  1354.33,1423.18 1354.33,1406.67 
  "/>
<polyline clip-path="url(#clip170)" style="stroke:#000000; stroke-width:4; stroke-opacity:1; fill:none" points="
  1792.6,1423.18 1792.6,1406.67 
  "/>
<polyline clip-path="url(#clip170)" style="stroke:#000000; stroke-width:4; stroke-opacity:1; fill:none" points="
  2230.87,1423.18 2230.87,1406.67 
  "/>
<polyline clip-path="url(#clip170)" style="stroke:#000000; stroke-width:4; stroke-opacity:1; fill:none" points="
  136.76,1384.24 163.352,1384.24 
  "/>
<polyline clip-path="url(#clip170)" style="stroke:#000000; stroke-width:4; stroke-opacity:1; fill:none" points="
  136.76,1042.65 163.352,1042.65 
  "/>
<polyline clip-path="url(#clip170)" style="stroke:#000000; stroke-width:4; stroke-opacity:1; fill:none" points="
  136.76,701.053 163.352,701.053 
  "/>
<polyline clip-path="url(#clip170)" style="stroke:#000000; stroke-width:4; stroke-opacity:1; fill:none" points="
  136.76,359.46 163.352,359.46 
  "/>
<path clip-path="url(#clip170)" d="M 0 0 M460.095 1445.17 Q456.484 1445.17 454.656 1448.74 Q452.85 1452.28 452.85 1459.41 Q452.85 1466.51 454.656 1470.08 Q456.484 1473.62 460.095 1473.62 Q463.73 1473.62 465.535 1470.08 Q467.364 1466.51 467.364 1459.41 Q467.364 1452.28 465.535 1448.74 Q463.73 1445.17 460.095 1445.17 M460.095 1441.47 Q465.906 1441.47 468.961 1446.07 Q472.04 1450.66 472.04 1459.41 Q472.04 1468.13 468.961 1472.74 Q465.906 1477.32 460.095 1477.32 Q454.285 1477.32 451.207 1472.74 Q448.151 1468.13 448.151 1459.41 Q448.151 1450.66 451.207 1446.07 Q454.285 1441.47 460.095 1441.47 Z" fill="#000000" fill-rule="evenodd" fill-opacity="1" /><path clip-path="url(#clip170)" d="M 0 0 M477.109 1470.77 L481.993 1470.77 L481.993 1476.65 L477.109 1476.65 L477.109 1470.77 Z" fill="#000000" fill-rule="evenodd" fill-opacity="1" /><path clip-path="url(#clip170)" d="M 0 0 M491.091 1472.72 L507.41 1472.72 L507.41 1476.65 L485.466 1476.65 L485.466 1472.72 Q488.128 1469.96 492.711 1465.33 Q497.317 1460.68 498.498 1459.34 Q500.743 1456.81 501.623 1455.08 Q502.526 1453.32 502.526 1451.63 Q502.526 1448.87 500.581 1447.14 Q498.66 1445.4 495.558 1445.4 Q493.359 1445.4 490.905 1446.17 Q488.475 1446.93 485.697 1448.48 L485.697 1443.76 Q488.521 1442.62 490.975 1442.05 Q493.429 1441.47 495.466 1441.47 Q500.836 1441.47 504.03 1444.15 Q507.225 1446.84 507.225 1451.33 Q507.225 1453.46 506.415 1455.38 Q505.628 1457.28 503.521 1459.87 Q502.942 1460.54 499.841 1463.76 Q496.739 1466.95 491.091 1472.72 Z" fill="#000000" fill-rule="evenodd" fill-opacity="1" /><path clip-path="url(#clip170)" d="M 0 0 M897.327 1445.17 Q893.716 1445.17 891.887 1448.74 Q890.081 1452.28 890.081 1459.41 Q890.081 1466.51 891.887 1470.08 Q893.716 1473.62 897.327 1473.62 Q900.961 1473.62 902.766 1470.08 Q904.595 1466.51 904.595 1459.41 Q904.595 1452.28 902.766 1448.74 Q900.961 1445.17 897.327 1445.17 M897.327 1441.47 Q903.137 1441.47 906.192 1446.07 Q909.271 1450.66 909.271 1459.41 Q909.271 1468.13 906.192 1472.74 Q903.137 1477.32 897.327 1477.32 Q891.517 1477.32 888.438 1472.74 Q885.382 1468.13 885.382 1459.41 Q885.382 1450.66 888.438 1446.07 Q891.517 1441.47 897.327 1441.47 Z" fill="#000000" fill-rule="evenodd" fill-opacity="1" /><path clip-path="url(#clip170)" d="M 0 0 M914.34 1470.77 L919.225 1470.77 L919.225 1476.65 L914.34 1476.65 L914.34 1470.77 Z" fill="#000000" fill-rule="evenodd" fill-opacity="1" /><path clip-path="url(#clip170)" d="M 0 0 M937.141 1446.17 L925.336 1464.61 L937.141 1464.61 L937.141 1446.17 M935.914 1442.09 L941.794 1442.09 L941.794 1464.61 L946.725 1464.61 L946.725 1468.5 L941.794 1468.5 L941.794 1476.65 L937.141 1476.65 L937.141 1468.5 L921.54 1468.5 L921.54 1463.99 L935.914 1442.09 Z" fill="#000000" fill-rule="evenodd" fill-opacity="1" /><path clip-path="url(#clip170)" d="M 0 0 M1335.76 1445.17 Q1332.15 1445.17 1330.32 1448.74 Q1328.52 1452.28 1328.52 1459.41 Q1328.52 1466.51 1330.32 1470.08 Q1332.15 1473.62 1335.76 1473.62 Q1339.4 1473.62 1341.2 1470.08 Q1343.03 1466.51 1343.03 1459.41 Q1343.03 1452.28 1341.2 1448.74 Q1339.4 1445.17 1335.76 1445.17 M1335.76 1441.47 Q1341.57 1441.47 1344.63 1446.07 Q1347.71 1450.66 1347.71 1459.41 Q1347.71 1468.13 1344.63 1472.74 Q1341.57 1477.32 1335.76 1477.32 Q1329.95 1477.32 1326.87 1472.74 Q1323.82 1468.13 1323.82 1459.41 Q1323.82 1450.66 1326.87 1446.07 Q1329.95 1441.47 1335.76 1441.47 Z" fill="#000000" fill-rule="evenodd" fill-opacity="1" /><path clip-path="url(#clip170)" d="M 0 0 M1352.78 1470.77 L1357.66 1470.77 L1357.66 1476.65 L1352.78 1476.65 L1352.78 1470.77 Z" fill="#000000" fill-rule="evenodd" fill-opacity="1" /><path clip-path="url(#clip170)" d="M 0 0 M1373.31 1457.51 Q1370.16 1457.51 1368.31 1459.66 Q1366.48 1461.81 1366.48 1465.56 Q1366.48 1469.29 1368.31 1471.47 Q1370.16 1473.62 1373.31 1473.62 Q1376.46 1473.62 1378.28 1471.47 Q1380.14 1469.29 1380.14 1465.56 Q1380.14 1461.81 1378.28 1459.66 Q1376.46 1457.51 1373.31 1457.51 M1382.59 1442.86 L1382.59 1447.11 Q1380.83 1446.28 1379.03 1445.84 Q1377.24 1445.4 1375.48 1445.4 Q1370.85 1445.4 1368.4 1448.53 Q1365.97 1451.65 1365.62 1457.97 Q1366.99 1455.96 1369.05 1454.89 Q1371.11 1453.8 1373.59 1453.8 Q1378.79 1453.8 1381.8 1456.98 Q1384.84 1460.12 1384.84 1465.56 Q1384.84 1470.89 1381.69 1474.11 Q1378.54 1477.32 1373.31 1477.32 Q1367.31 1477.32 1364.14 1472.74 Q1360.97 1468.13 1360.97 1459.41 Q1360.97 1451.21 1364.86 1446.35 Q1368.75 1441.47 1375.3 1441.47 Q1377.06 1441.47 1378.84 1441.81 Q1380.65 1442.16 1382.59 1442.86 Z" fill="#000000" fill-rule="evenodd" fill-opacity="1" /><path clip-path="url(#clip170)" d="M 0 0 M1774.16 1445.17 Q1770.55 1445.17 1768.72 1448.74 Q1766.92 1452.28 1766.92 1459.41 Q1766.92 1466.51 1768.72 1470.08 Q1770.55 1473.62 1774.16 1473.62 Q1777.8 1473.62 1779.6 1470.08 Q1781.43 1466.51 1781.43 1459.41 Q1781.43 1452.28 1779.6 1448.74 Q1777.8 1445.17 1774.16 1445.17 M1774.16 1441.47 Q1779.97 1441.47 1783.03 1446.07 Q1786.11 1450.66 1786.11 1459.41 Q1786.11 1468.13 1783.03 1472.74 Q1779.97 1477.32 1774.16 1477.32 Q1768.35 1477.32 1765.27 1472.74 Q1762.22 1468.13 1762.22 1459.41 Q1762.22 1450.66 1765.27 1446.07 Q1768.35 1441.47 1774.16 1441.47 Z" fill="#000000" fill-rule="evenodd" fill-opacity="1" /><path clip-path="url(#clip170)" d="M 0 0 M1791.18 1470.77 L1796.06 1470.77 L1796.06 1476.65 L1791.18 1476.65 L1791.18 1470.77 Z" fill="#000000" fill-rule="evenodd" fill-opacity="1" /><path clip-path="url(#clip170)" d="M 0 0 M1811.13 1460.24 Q1807.8 1460.24 1805.87 1462.02 Q1803.98 1463.8 1803.98 1466.93 Q1803.98 1470.05 1805.87 1471.84 Q1807.8 1473.62 1811.13 1473.62 Q1814.46 1473.62 1816.38 1471.84 Q1818.31 1470.03 1818.31 1466.93 Q1818.31 1463.8 1816.38 1462.02 Q1814.49 1460.24 1811.13 1460.24 M1806.45 1458.25 Q1803.44 1457.51 1801.75 1455.45 Q1800.09 1453.39 1800.09 1450.43 Q1800.09 1446.28 1803.03 1443.87 Q1805.99 1441.47 1811.13 1441.47 Q1816.29 1441.47 1819.23 1443.87 Q1822.17 1446.28 1822.17 1450.43 Q1822.17 1453.39 1820.48 1455.45 Q1818.81 1457.51 1815.83 1458.25 Q1819.21 1459.04 1821.08 1461.33 Q1822.98 1463.62 1822.98 1466.93 Q1822.98 1471.95 1819.9 1474.64 Q1816.85 1477.32 1811.13 1477.32 Q1805.41 1477.32 1802.33 1474.64 Q1799.28 1471.95 1799.28 1466.93 Q1799.28 1463.62 1801.18 1461.33 Q1803.07 1459.04 1806.45 1458.25 M1804.74 1450.86 Q1804.74 1453.55 1806.41 1455.05 Q1808.1 1456.56 1811.13 1456.56 Q1814.14 1456.56 1815.83 1455.05 Q1817.54 1453.55 1817.54 1450.86 Q1817.54 1448.18 1815.83 1446.68 Q1814.14 1445.17 1811.13 1445.17 Q1808.1 1445.17 1806.41 1446.68 Q1804.74 1448.18 1804.74 1450.86 Z" fill="#000000" fill-rule="evenodd" fill-opacity="1" /><path clip-path="url(#clip170)" d="M 0 0 M2202.77 1472.72 L2210.41 1472.72 L2210.41 1446.35 L2202.1 1448.02 L2202.1 1443.76 L2210.36 1442.09 L2215.04 1442.09 L2215.04 1472.72 L2222.68 1472.72 L2222.68 1476.65 L2202.77 1476.65 L2202.77 1472.72 Z" fill="#000000" fill-rule="evenodd" fill-opacity="1" /><path clip-path="url(#clip170)" d="M 0 0 M2227.75 1470.77 L2232.63 1470.77 L2232.63 1476.65 L2227.75 1476.65 L2227.75 1470.77 Z" fill="#000000" fill-rule="evenodd" fill-opacity="1" /><path clip-path="url(#clip170)" d="M 0 0 M2247.7 1445.17 Q2244.09 1445.17 2242.26 1448.74 Q2240.46 1452.28 2240.46 1459.41 Q2240.46 1466.51 2242.26 1470.08 Q2244.09 1473.62 2247.7 1473.62 Q2251.34 1473.62 2253.14 1470.08 Q2254.97 1466.51 2254.97 1459.41 Q2254.97 1452.28 2253.14 1448.74 Q2251.34 1445.17 2247.7 1445.17 M2247.7 1441.47 Q2253.51 1441.47 2256.57 1446.07 Q2259.65 1450.66 2259.65 1459.41 Q2259.65 1468.13 2256.57 1472.74 Q2253.51 1477.32 2247.7 1477.32 Q2241.89 1477.32 2238.81 1472.74 Q2235.76 1468.13 2235.76 1459.41 Q2235.76 1450.66 2238.81 1446.07 Q2241.89 1441.47 2247.7 1441.47 Z" fill="#000000" fill-rule="evenodd" fill-opacity="1" /><path clip-path="url(#clip170)" d="M 0 0 M100.816 1370.04 Q97.2049 1370.04 95.3762 1373.6 Q93.5707 1377.14 93.5707 1384.27 Q93.5707 1391.38 95.3762 1394.94 Q97.2049 1398.49 100.816 1398.49 Q104.45 1398.49 106.256 1394.94 Q108.084 1391.38 108.084 1384.27 Q108.084 1377.14 106.256 1373.6 Q104.45 1370.04 100.816 1370.04 M100.816 1366.33 Q106.626 1366.33 109.682 1370.94 Q112.76 1375.52 112.76 1384.27 Q112.76 1393 109.682 1397.61 Q106.626 1402.19 100.816 1402.19 Q95.0058 1402.19 91.9272 1397.61 Q88.8716 1393 88.8716 1384.27 Q88.8716 1375.52 91.9272 1370.94 Q95.0058 1366.33 100.816 1366.33 Z" fill="#000000" fill-rule="evenodd" fill-opacity="1" /><path clip-path="url(#clip170)" d="M 0 0 M65.8393 1055.99 L73.4782 1055.99 L73.4782 1029.62 L65.168 1031.29 L65.168 1027.03 L73.4319 1025.37 L78.1078 1025.37 L78.1078 1055.99 L85.7466 1055.99 L85.7466 1059.93 L65.8393 1059.93 L65.8393 1055.99 Z" fill="#000000" fill-rule="evenodd" fill-opacity="1" /><path clip-path="url(#clip170)" d="M 0 0 M100.816 1028.44 Q97.2049 1028.44 95.3762 1032.01 Q93.5707 1035.55 93.5707 1042.68 Q93.5707 1049.79 95.3762 1053.35 Q97.2049 1056.89 100.816 1056.89 Q104.45 1056.89 106.256 1053.35 Q108.084 1049.79 108.084 1042.68 Q108.084 1035.55 106.256 1032.01 Q104.45 1028.44 100.816 1028.44 M100.816 1024.74 Q106.626 1024.74 109.682 1029.35 Q112.76 1033.93 112.76 1042.68 Q112.76 1051.41 109.682 1056.01 Q106.626 1060.6 100.816 1060.6 Q95.0058 1060.6 91.9272 1056.01 Q88.8716 1051.41 88.8716 1042.68 Q88.8716 1033.93 91.9272 1029.35 Q95.0058 1024.74 100.816 1024.74 Z" fill="#000000" fill-rule="evenodd" fill-opacity="1" /><path clip-path="url(#clip170)" d="M 0 0 M69.4273 714.398 L85.7466 714.398 L85.7466 718.333 L63.8023 718.333 L63.8023 714.398 Q66.4643 711.643 71.0476 707.013 Q75.6541 702.361 76.8346 701.018 Q79.08 698.495 79.9596 696.759 Q80.8624 694.999 80.8624 693.31 Q80.8624 690.555 78.918 688.819 Q76.9967 687.083 73.8948 687.083 Q71.6958 687.083 69.2421 687.847 Q66.8115 688.611 64.0338 690.162 L64.0338 685.439 Q66.8578 684.305 69.3115 683.726 Q71.7652 683.148 73.8023 683.148 Q79.1726 683.148 82.367 685.833 Q85.5614 688.518 85.5614 693.009 Q85.5614 695.138 84.7513 697.06 Q83.9642 698.958 81.8578 701.55 Q81.2791 702.222 78.1772 705.439 Q75.0754 708.634 69.4273 714.398 Z" fill="#000000" fill-rule="evenodd" fill-opacity="1" /><path clip-path="url(#clip170)" d="M 0 0 M100.816 686.851 Q97.2049 686.851 95.3762 690.416 Q93.5707 693.958 93.5707 701.087 Q93.5707 708.194 95.3762 711.759 Q97.2049 715.3 100.816 715.3 Q104.45 715.3 106.256 711.759 Q108.084 708.194 108.084 701.087 Q108.084 693.958 106.256 690.416 Q104.45 686.851 100.816 686.851 M100.816 683.148 Q106.626 683.148 109.682 687.754 Q112.76 692.337 112.76 701.087 Q112.76 709.814 109.682 714.421 Q106.626 719.004 100.816 719.004 Q95.0058 719.004 91.9272 714.421 Q88.8716 709.814 88.8716 701.087 Q88.8716 692.337 91.9272 687.754 Q95.0058 683.148 100.816 683.148 Z" fill="#000000" fill-rule="evenodd" fill-opacity="1" /><path clip-path="url(#clip170)" d="M 0 0 M78.617 358.106 Q81.9735 358.823 83.8485 361.092 Q85.7466 363.36 85.7466 366.694 Q85.7466 371.809 82.2281 374.61 Q78.7096 377.411 72.2282 377.411 Q70.0523 377.411 67.7375 376.971 Q65.4458 376.555 62.9921 375.698 L62.9921 371.184 Q64.9366 372.319 67.2514 372.897 Q69.5662 373.476 72.0893 373.476 Q76.4874 373.476 78.7791 371.74 Q81.0939 370.004 81.0939 366.694 Q81.0939 363.638 78.9411 361.925 Q76.8115 360.189 72.9921 360.189 L68.9643 360.189 L68.9643 356.346 L73.1773 356.346 Q76.6263 356.346 78.455 354.981 Q80.2837 353.592 80.2837 350.999 Q80.2837 348.337 78.3856 346.925 Q76.5106 345.49 72.9921 345.49 Q71.0708 345.49 68.8717 345.907 Q66.6727 346.323 64.0338 347.203 L64.0338 343.036 Q66.6958 342.296 69.0106 341.925 Q71.3486 341.555 73.4087 341.555 Q78.7328 341.555 81.8346 343.985 Q84.9365 346.393 84.9365 350.513 Q84.9365 353.384 83.2929 355.374 Q81.6494 357.342 78.617 358.106 Z" fill="#000000" fill-rule="evenodd" fill-opacity="1" /><path clip-path="url(#clip170)" d="M 0 0 M100.816 345.259 Q97.2049 345.259 95.3762 348.823 Q93.5707 352.365 93.5707 359.495 Q93.5707 366.601 95.3762 370.166 Q97.2049 373.708 100.816 373.708 Q104.45 373.708 106.256 370.166 Q108.084 366.601 108.084 359.495 Q108.084 352.365 106.256 348.823 Q104.45 345.259 100.816 345.259 M100.816 341.555 Q106.626 341.555 109.682 346.161 Q112.76 350.745 112.76 359.495 Q112.76 368.221 109.682 372.828 Q106.626 377.411 100.816 377.411 Q95.0058 377.411 91.9272 372.828 Q88.8716 368.221 88.8716 359.495 Q88.8716 350.745 91.9272 346.161 Q95.0058 341.555 100.816 341.555 Z" fill="#000000" fill-rule="evenodd" fill-opacity="1" /><path clip-path="url(#clip170)" d="M 0 0 M1124.88 1512.18 L1124.88 1518.96 Q1121.63 1515.94 1117.94 1514.44 Q1114.28 1512.95 1110.14 1512.95 Q1101.99 1512.95 1097.66 1517.95 Q1093.33 1522.91 1093.33 1532.33 Q1093.33 1541.72 1097.66 1546.72 Q1101.99 1551.68 1110.14 1551.68 Q1114.28 1551.68 1117.94 1550.19 Q1121.63 1548.69 1124.88 1545.67 L1124.88 1552.38 Q1121.5 1554.68 1117.71 1555.82 Q1113.96 1556.97 1109.76 1556.97 Q1098.97 1556.97 1092.76 1550.38 Q1086.55 1543.76 1086.55 1532.33 Q1086.55 1520.87 1092.76 1514.28 Q1098.97 1507.66 1109.76 1507.66 Q1114.02 1507.66 1117.78 1508.81 Q1121.57 1509.92 1124.88 1512.18 Z" fill="#000000" fill-rule="evenodd" fill-opacity="1" /><path clip-path="url(#clip170)" d="M 0 0 M1144.83 1524.5 Q1140.12 1524.5 1137.38 1528.19 Q1134.65 1531.85 1134.65 1538.25 Q1134.65 1544.65 1137.35 1548.34 Q1140.09 1552 1144.83 1552 Q1149.51 1552 1152.25 1548.31 Q1154.99 1544.62 1154.99 1538.25 Q1154.99 1531.92 1152.25 1528.23 Q1149.51 1524.5 1144.83 1524.5 M1144.83 1519.54 Q1152.47 1519.54 1156.83 1524.5 Q1161.19 1529.47 1161.19 1538.25 Q1161.19 1547 1156.83 1552 Q1152.47 1556.97 1144.83 1556.97 Q1137.16 1556.97 1132.8 1552 Q1128.47 1547 1128.47 1538.25 Q1128.47 1529.47 1132.8 1524.5 Q1137.16 1519.54 1144.83 1519.54 Z" fill="#000000" fill-rule="evenodd" fill-opacity="1" /><path clip-path="url(#clip170)" d="M 0 0 M1187.99 1525.87 Q1187.01 1525.3 1185.83 1525.04 Q1184.68 1524.76 1183.28 1524.76 Q1178.32 1524.76 1175.64 1528 Q1173 1531.22 1173 1537.27 L1173 1556.04 L1167.11 1556.04 L1167.11 1520.4 L1173 1520.4 L1173 1525.93 Q1174.85 1522.69 1177.81 1521.13 Q1180.77 1519.54 1185 1519.54 Q1185.6 1519.54 1186.34 1519.63 Q1187.07 1519.7 1187.96 1519.85 L1187.99 1525.87 Z" fill="#000000" fill-rule="evenodd" fill-opacity="1" /><path clip-path="url(#clip170)" d="M 0 0 M1213.65 1525.87 Q1212.66 1525.3 1211.48 1525.04 Q1210.34 1524.76 1208.94 1524.76 Q1203.97 1524.76 1201.3 1528 Q1198.65 1531.22 1198.65 1537.27 L1198.65 1556.04 L1192.77 1556.04 L1192.77 1520.4 L1198.65 1520.4 L1198.65 1525.93 Q1200.5 1522.69 1203.46 1521.13 Q1206.42 1519.54 1210.65 1519.54 Q1211.26 1519.54 1211.99 1519.63 Q1212.72 1519.7 1213.61 1519.85 L1213.65 1525.87 Z" fill="#000000" fill-rule="evenodd" fill-opacity="1" /><path clip-path="url(#clip170)" d="M 0 0 M1248.85 1536.76 L1248.85 1539.62 L1221.92 1539.62 Q1222.3 1545.67 1225.55 1548.85 Q1228.83 1552 1234.65 1552 Q1238.03 1552 1241.18 1551.17 Q1244.36 1550.35 1247.48 1548.69 L1247.48 1554.23 Q1244.33 1555.57 1241.02 1556.27 Q1237.71 1556.97 1234.3 1556.97 Q1225.77 1556.97 1220.78 1552 Q1215.81 1547.04 1215.81 1538.57 Q1215.81 1529.82 1220.52 1524.69 Q1225.26 1519.54 1233.28 1519.54 Q1240.48 1519.54 1244.65 1524.18 Q1248.85 1528.8 1248.85 1536.76 M1242.99 1535.04 Q1242.93 1530.23 1240.29 1527.37 Q1237.68 1524.5 1233.35 1524.5 Q1228.45 1524.5 1225.49 1527.27 Q1222.56 1530.04 1222.11 1535.07 L1242.99 1535.04 Z" fill="#000000" fill-rule="evenodd" fill-opacity="1" /><path clip-path="url(#clip170)" d="M 0 0 M1254.99 1506.52 L1260.85 1506.52 L1260.85 1556.04 L1254.99 1556.04 L1254.99 1506.52 Z" fill="#000000" fill-rule="evenodd" fill-opacity="1" /><path clip-path="url(#clip170)" d="M 0 0 M1283.19 1538.12 Q1276.09 1538.12 1273.36 1539.75 Q1270.62 1541.37 1270.62 1545.29 Q1270.62 1548.4 1272.66 1550.25 Q1274.72 1552.07 1278.26 1552.07 Q1283.13 1552.07 1286.06 1548.63 Q1289.02 1545.16 1289.02 1539.43 L1289.02 1538.12 L1283.19 1538.12 M1294.87 1535.71 L1294.87 1556.04 L1289.02 1556.04 L1289.02 1550.63 Q1287.01 1553.88 1284.02 1555.44 Q1281.03 1556.97 1276.7 1556.97 Q1271.22 1556.97 1267.98 1553.91 Q1264.76 1550.82 1264.76 1545.67 Q1264.76 1539.65 1268.77 1536.6 Q1272.81 1533.54 1280.8 1533.54 L1289.02 1533.54 L1289.02 1532.97 Q1289.02 1528.93 1286.34 1526.73 Q1283.7 1524.5 1278.89 1524.5 Q1275.84 1524.5 1272.94 1525.23 Q1270.05 1525.97 1267.37 1527.43 L1267.37 1522.02 Q1270.59 1520.78 1273.61 1520.17 Q1276.63 1519.54 1279.5 1519.54 Q1287.23 1519.54 1291.05 1523.55 Q1294.87 1527.56 1294.87 1535.71 Z" fill="#000000" fill-rule="evenodd" fill-opacity="1" /><path clip-path="url(#clip170)" d="M 0 0 M1306.81 1510.27 L1306.81 1520.4 L1318.87 1520.4 L1318.87 1524.95 L1306.81 1524.95 L1306.81 1544.3 Q1306.81 1548.66 1307.99 1549.9 Q1309.2 1551.14 1312.86 1551.14 L1318.87 1551.14 L1318.87 1556.04 L1312.86 1556.04 Q1306.08 1556.04 1303.5 1553.53 Q1300.92 1550.98 1300.92 1544.3 L1300.92 1524.95 L1296.62 1524.95 L1296.62 1520.4 L1300.92 1520.4 L1300.92 1510.27 L1306.81 1510.27 Z" fill="#000000" fill-rule="evenodd" fill-opacity="1" /><path clip-path="url(#clip170)" d="M 0 0 M1325.01 1520.4 L1330.87 1520.4 L1330.87 1556.04 L1325.01 1556.04 L1325.01 1520.4 M1325.01 1506.52 L1330.87 1506.52 L1330.87 1513.93 L1325.01 1513.93 L1325.01 1506.52 Z" fill="#000000" fill-rule="evenodd" fill-opacity="1" /><path clip-path="url(#clip170)" d="M 0 0 M1350.83 1524.5 Q1346.12 1524.5 1343.38 1528.19 Q1340.64 1531.85 1340.64 1538.25 Q1340.64 1544.65 1343.35 1548.34 Q1346.08 1552 1350.83 1552 Q1355.51 1552 1358.24 1548.31 Q1360.98 1544.62 1360.98 1538.25 Q1360.98 1531.92 1358.24 1528.23 Q1355.51 1524.5 1350.83 1524.5 M1350.83 1519.54 Q1358.47 1519.54 1362.83 1524.5 Q1367.19 1529.47 1367.19 1538.25 Q1367.19 1547 1362.83 1552 Q1358.47 1556.97 1350.83 1556.97 Q1343.16 1556.97 1338.8 1552 Q1334.47 1547 1334.47 1538.25 Q1334.47 1529.47 1338.8 1524.5 Q1343.16 1519.54 1350.83 1519.54 Z" fill="#000000" fill-rule="evenodd" fill-opacity="1" /><path clip-path="url(#clip170)" d="M 0 0 M1402.96 1534.53 L1402.96 1556.04 L1397.11 1556.04 L1397.11 1534.72 Q1397.11 1529.66 1395.13 1527.14 Q1393.16 1524.63 1389.21 1524.63 Q1384.47 1524.63 1381.73 1527.65 Q1378.99 1530.68 1378.99 1535.9 L1378.99 1556.04 L1373.11 1556.04 L1373.11 1520.4 L1378.99 1520.4 L1378.99 1525.93 Q1381.1 1522.72 1383.93 1521.13 Q1386.79 1519.54 1390.52 1519.54 Q1396.66 1519.54 1399.81 1523.36 Q1402.96 1527.14 1402.96 1534.53 Z" fill="#000000" fill-rule="evenodd" fill-opacity="1" /><path clip-path="url(#clip172)" d="
M258.644 1315.92 L258.644 1384.24 L477.781 1384.24 L477.781 1315.92 L258.644 1315.92 L258.644 1315.92  Z
  " fill="#009af9" fill-rule="evenodd" fill-opacity="0.4"/>
<polyline clip-path="url(#clip172)" style="stroke:#000000; stroke-width:4; stroke-opacity:1; fill:none" points="
  258.644,1315.92 258.644,1384.24 477.781,1384.24 477.781,1315.92 258.644,1315.92 
  "/>
<path clip-path="url(#clip172)" d="
M477.781 1042.65 L477.781 1384.24 L696.917 1384.24 L696.917 1042.65 L477.781 1042.65 L477.781 1042.65  Z
  " fill="#009af9" fill-rule="evenodd" fill-opacity="0.4"/>
<polyline clip-path="url(#clip172)" style="stroke:#000000; stroke-width:4; stroke-opacity:1; fill:none" points="
  477.781,1042.65 477.781,1384.24 696.917,1384.24 696.917,1042.65 477.781,1042.65 
  "/>
<path clip-path="url(#clip172)" d="
M696.917 1315.92 L696.917 1384.24 L916.053 1384.24 L916.053 1315.92 L696.917 1315.92 L696.917 1315.92  Z
  " fill="#009af9" fill-rule="evenodd" fill-opacity="0.4"/>
<polyline clip-path="url(#clip172)" style="stroke:#000000; stroke-width:4; stroke-opacity:1; fill:none" points="
  696.917,1315.92 696.917,1384.24 916.053,1384.24 916.053,1315.92 696.917,1315.92 
  "/>
<path clip-path="url(#clip172)" d="
M916.053 1247.6 L916.053 1384.24 L1135.19 1384.24 L1135.19 1247.6 L916.053 1247.6 L916.053 1247.6  Z
  " fill="#009af9" fill-rule="evenodd" fill-opacity="0.4"/>
<polyline clip-path="url(#clip172)" style="stroke:#000000; stroke-width:4; stroke-opacity:1; fill:none" points="
  916.053,1247.6 916.053,1384.24 1135.19,1384.24 1135.19,1247.6 916.053,1247.6 
  "/>
<path clip-path="url(#clip172)" d="
M1135.19 1384.24 L1135.19 1384.24 L1354.33 1384.24 L1354.33 1384.24 L1135.19 1384.24 L1135.19 1384.24  Z
  " fill="#009af9" fill-rule="evenodd" fill-opacity="0.4"/>
<polyline clip-path="url(#clip172)" style="stroke:#000000; stroke-width:4; stroke-opacity:1; fill:none" points="
  1135.19,1384.24 1135.19,1384.24 1354.33,1384.24 1135.19,1384.24 
  "/>
<path clip-path="url(#clip172)" d="
M1354.33 1384.24 L1354.33 1384.24 L1573.46 1384.24 L1573.46 1384.24 L1354.33 1384.24 L1354.33 1384.24  Z
  " fill="#009af9" fill-rule="evenodd" fill-opacity="0.4"/>
<polyline clip-path="url(#clip172)" style="stroke:#000000; stroke-width:4; stroke-opacity:1; fill:none" points="
  1354.33,1384.24 1354.33,1384.24 1573.46,1384.24 1354.33,1384.24 
  "/>
<path clip-path="url(#clip172)" d="
M1573.46 1315.92 L1573.46 1384.24 L1792.6 1384.24 L1792.6 1315.92 L1573.46 1315.92 L1573.46 1315.92  Z
  " fill="#009af9" fill-rule="evenodd" fill-opacity="0.4"/>
<polyline clip-path="url(#clip172)" style="stroke:#000000; stroke-width:4; stroke-opacity:1; fill:none" points="
  1573.46,1315.92 1573.46,1384.24 1792.6,1384.24 1792.6,1315.92 1573.46,1315.92 
  "/>
<path clip-path="url(#clip172)" d="
M1792.6 291.141 L1792.6 1384.24 L2011.74 1384.24 L2011.74 291.141 L1792.6 291.141 L1792.6 291.141  Z
  " fill="#009af9" fill-rule="evenodd" fill-opacity="0.4"/>
<polyline clip-path="url(#clip172)" style="stroke:#000000; stroke-width:4; stroke-opacity:1; fill:none" points="
  1792.6,291.141 1792.6,1384.24 2011.74,1384.24 2011.74,291.141 1792.6,291.141 
  "/>
<path clip-path="url(#clip172)" d="
M2011.74 86.1857 L2011.74 1384.24 L2230.87 1384.24 L2230.87 86.1857 L2011.74 86.1857 L2011.74 86.1857  Z
  " fill="#009af9" fill-rule="evenodd" fill-opacity="0.4"/>
<polyline clip-path="url(#clip172)" style="stroke:#000000; stroke-width:4; stroke-opacity:1; fill:none" points="
  2011.74,86.1857 2011.74,1384.24 2230.87,1384.24 2230.87,86.1857 2011.74,86.1857 
  "/>
</svg>
