<?xml version="1.0" encoding="utf-8"?>
<svg xmlns="http://www.w3.org/2000/svg" xmlns:xlink="http://www.w3.org/1999/xlink" width="600" height="400" viewBox="0 0 2400 1600">
<defs>
  <clipPath id="clip980">
    <rect x="0" y="0" width="2400" height="1600"/>
  </clipPath>
</defs>
<path clip-path="url(#clip980)" d="
M0 1600 L2400 1600 L2400 0 L0 0  Z
  " fill="#ffffff" fill-rule="evenodd" fill-opacity="1"/>
<defs>
  <clipPath id="clip981">
    <rect x="480" y="0" width="1681" height="1600"/>
  </clipPath>
</defs>
<path clip-path="url(#clip980)" d="
M125.835 1486.45 L2352.76 1486.45 L2352.76 106.192 L125.835 106.192  Z
  " fill="#ffffff" fill-rule="evenodd" fill-opacity="1"/>
<defs>
  <clipPath id="clip982">
    <rect x="125" y="106" width="2228" height="1381"/>
  </clipPath>
</defs>
<polyline clip-path="url(#clip982)" style="stroke:#000000; stroke-width:2; stroke-opacity:0.1; fill:none" points="
  188.861,1486.45 188.861,106.192 
  "/>
<polyline clip-path="url(#clip982)" style="stroke:#000000; stroke-width:2; stroke-opacity:0.1; fill:none" points="
  500.1,1486.45 500.1,106.192 
  "/>
<polyline clip-path="url(#clip982)" style="stroke:#000000; stroke-width:2; stroke-opacity:0.1; fill:none" points="
  811.34,1486.45 811.34,106.192 
  "/>
<polyline clip-path="url(#clip982)" style="stroke:#000000; stroke-width:2; stroke-opacity:0.1; fill:none" points="
  1122.58,1486.45 1122.58,106.192 
  "/>
<polyline clip-path="url(#clip982)" style="stroke:#000000; stroke-width:2; stroke-opacity:0.1; fill:none" points="
  1433.82,1486.45 1433.82,106.192 
  "/>
<polyline clip-path="url(#clip982)" style="stroke:#000000; stroke-width:2; stroke-opacity:0.1; fill:none" points="
  1745.06,1486.45 1745.06,106.192 
  "/>
<polyline clip-path="url(#clip982)" style="stroke:#000000; stroke-width:2; stroke-opacity:0.1; fill:none" points="
  2056.3,1486.45 2056.3,106.192 
  "/>
<polyline clip-path="url(#clip982)" style="stroke:#000000; stroke-width:2; stroke-opacity:0.1; fill:none" points="
  125.835,1344.09 2352.76,1344.09 
  "/>
<polyline clip-path="url(#clip982)" style="stroke:#000000; stroke-width:2; stroke-opacity:0.1; fill:none" points="
  125.835,1133.67 2352.76,1133.67 
  "/>
<polyline clip-path="url(#clip982)" style="stroke:#000000; stroke-width:2; stroke-opacity:0.1; fill:none" points="
  125.835,923.24 2352.76,923.24 
  "/>
<polyline clip-path="url(#clip982)" style="stroke:#000000; stroke-width:2; stroke-opacity:0.1; fill:none" points="
  125.835,712.814 2352.76,712.814 
  "/>
<polyline clip-path="url(#clip982)" style="stroke:#000000; stroke-width:2; stroke-opacity:0.1; fill:none" points="
  125.835,502.388 2352.76,502.388 
  "/>
<polyline clip-path="url(#clip982)" style="stroke:#000000; stroke-width:2; stroke-opacity:0.1; fill:none" points="
  125.835,291.963 2352.76,291.963 
  "/>
<polyline clip-path="url(#clip980)" style="stroke:#000000; stroke-width:4; stroke-opacity:1; fill:none" points="
  125.835,1486.45 2352.76,1486.45 
  "/>
<polyline clip-path="url(#clip980)" style="stroke:#000000; stroke-width:4; stroke-opacity:1; fill:none" points="
  125.835,1486.45 125.835,106.192 
  "/>
<polyline clip-path="url(#clip980)" style="stroke:#000000; stroke-width:4; stroke-opacity:1; fill:none" points="
  188.861,1486.45 188.861,1469.88 
  "/>
<polyline clip-path="url(#clip980)" style="stroke:#000000; stroke-width:4; stroke-opacity:1; fill:none" points="
  500.1,1486.45 500.1,1469.88 
  "/>
<polyline clip-path="url(#clip980)" style="stroke:#000000; stroke-width:4; stroke-opacity:1; fill:none" points="
  811.34,1486.45 811.34,1469.88 
  "/>
<polyline clip-path="url(#clip980)" style="stroke:#000000; stroke-width:4; stroke-opacity:1; fill:none" points="
  1122.58,1486.45 1122.58,1469.88 
  "/>
<polyline clip-path="url(#clip980)" style="stroke:#000000; stroke-width:4; stroke-opacity:1; fill:none" points="
  1433.82,1486.45 1433.82,1469.88 
  "/>
<polyline clip-path="url(#clip980)" style="stroke:#000000; stroke-width:4; stroke-opacity:1; fill:none" points="
  1745.06,1486.45 1745.06,1469.88 
  "/>
<polyline clip-path="url(#clip980)" style="stroke:#000000; stroke-width:4; stroke-opacity:1; fill:none" points="
  2056.3,1486.45 2056.3,1469.88 
  "/>
<polyline clip-path="url(#clip980)" style="stroke:#000000; stroke-width:4; stroke-opacity:1; fill:none" points="
  125.835,1344.09 152.558,1344.09 
  "/>
<polyline clip-path="url(#clip980)" style="stroke:#000000; stroke-width:4; stroke-opacity:1; fill:none" points="
  125.835,1133.67 152.558,1133.67 
  "/>
<polyline clip-path="url(#clip980)" style="stroke:#000000; stroke-width:4; stroke-opacity:1; fill:none" points="
  125.835,923.24 152.558,923.24 
  "/>
<polyline clip-path="url(#clip980)" style="stroke:#000000; stroke-width:4; stroke-opacity:1; fill:none" points="
  125.835,712.814 152.558,712.814 
  "/>
<polyline clip-path="url(#clip980)" style="stroke:#000000; stroke-width:4; stroke-opacity:1; fill:none" points="
  125.835,502.388 152.558,502.388 
  "/>
<polyline clip-path="url(#clip980)" style="stroke:#000000; stroke-width:4; stroke-opacity:1; fill:none" points="
  125.835,291.963 152.558,291.963 
  "/>
<path clip-path="url(#clip980)" d="M 0 0 M108.444 1535.98 L116.083 1535.98 L116.083 1509.62 L107.773 1511.29 L107.773 1507.03 L116.037 1505.36 L120.713 1505.36 L120.713 1535.98 L128.352 1535.98 L128.352 1539.92 L108.444 1539.92 L108.444 1535.98 Z" fill="#000000" fill-rule="evenodd" fill-opacity="1" /><path clip-path="url(#clip980)" d="M 0 0 M133.56 1539.2 L133.56 1534.94 Q135.319 1535.78 137.125 1536.22 Q138.93 1536.66 140.666 1536.66 Q145.296 1536.66 147.727 1533.55 Q150.18 1530.43 150.527 1524.09 Q149.185 1526.08 147.125 1527.14 Q145.065 1528.21 142.565 1528.21 Q137.379 1528.21 134.347 1525.08 Q131.338 1521.93 131.338 1516.49 Q131.338 1511.17 134.486 1507.95 Q137.634 1504.73 142.865 1504.73 Q148.861 1504.73 152.009 1509.34 Q155.18 1513.92 155.18 1522.67 Q155.18 1530.85 151.291 1535.73 Q147.426 1540.59 140.875 1540.59 Q139.115 1540.59 137.31 1540.24 Q135.504 1539.9 133.56 1539.2 M142.865 1524.55 Q146.014 1524.55 147.842 1522.4 Q149.694 1520.24 149.694 1516.49 Q149.694 1512.77 147.842 1510.61 Q146.014 1508.44 142.865 1508.44 Q139.717 1508.44 137.865 1510.61 Q136.037 1512.77 136.037 1516.49 Q136.037 1520.24 137.865 1522.4 Q139.717 1524.55 142.865 1524.55 Z" fill="#000000" fill-rule="evenodd" fill-opacity="1" /><path clip-path="url(#clip980)" d="M 0 0 M160.389 1539.2 L160.389 1534.94 Q162.148 1535.78 163.953 1536.22 Q165.759 1536.66 167.495 1536.66 Q172.125 1536.66 174.555 1533.55 Q177.009 1530.43 177.356 1524.09 Q176.013 1526.08 173.953 1527.14 Q171.893 1528.21 169.393 1528.21 Q164.208 1528.21 161.176 1525.08 Q158.166 1521.93 158.166 1516.49 Q158.166 1511.17 161.314 1507.95 Q164.463 1504.73 169.694 1504.73 Q175.689 1504.73 178.837 1509.34 Q182.009 1513.92 182.009 1522.67 Q182.009 1530.85 178.12 1535.73 Q174.254 1540.59 167.703 1540.59 Q165.944 1540.59 164.138 1540.24 Q162.333 1539.9 160.389 1539.2 M169.694 1524.55 Q172.842 1524.55 174.671 1522.4 Q176.523 1520.24 176.523 1516.49 Q176.523 1512.77 174.671 1510.61 Q172.842 1508.44 169.694 1508.44 Q166.546 1508.44 164.694 1510.61 Q162.865 1512.77 162.865 1516.49 Q162.865 1520.24 164.694 1522.4 Q166.546 1524.55 169.694 1524.55 Z" fill="#000000" fill-rule="evenodd" fill-opacity="1" /><path clip-path="url(#clip980)" d="M 0 0 M197.078 1523.51 Q193.745 1523.51 191.824 1525.29 Q189.925 1527.07 189.925 1530.2 Q189.925 1533.32 191.824 1535.11 Q193.745 1536.89 197.078 1536.89 Q200.411 1536.89 202.333 1535.11 Q204.254 1533.3 204.254 1530.2 Q204.254 1527.07 202.333 1525.29 Q200.435 1523.51 197.078 1523.51 M192.402 1521.52 Q189.393 1520.78 187.703 1518.72 Q186.037 1516.66 186.037 1513.69 Q186.037 1509.55 188.976 1507.14 Q191.939 1504.73 197.078 1504.73 Q202.24 1504.73 205.18 1507.14 Q208.12 1509.55 208.12 1513.69 Q208.12 1516.66 206.43 1518.72 Q204.763 1520.78 201.777 1521.52 Q205.157 1522.3 207.032 1524.6 Q208.93 1526.89 208.93 1530.2 Q208.93 1535.22 205.851 1537.91 Q202.796 1540.59 197.078 1540.59 Q191.361 1540.59 188.282 1537.91 Q185.226 1535.22 185.226 1530.2 Q185.226 1526.89 187.124 1524.6 Q189.023 1522.3 192.402 1521.52 M190.689 1514.13 Q190.689 1516.82 192.356 1518.32 Q194.046 1519.83 197.078 1519.83 Q200.087 1519.83 201.777 1518.32 Q203.49 1516.82 203.49 1514.13 Q203.49 1511.45 201.777 1509.94 Q200.087 1508.44 197.078 1508.44 Q194.046 1508.44 192.356 1509.94 Q190.689 1511.45 190.689 1514.13 Z" fill="#000000" fill-rule="evenodd" fill-opacity="1" /><path clip-path="url(#clip980)" d="M 0 0 M227.61 1508.53 Q222.518 1508.53 219.509 1512.33 Q216.522 1516.12 216.522 1522.67 Q216.522 1529.2 219.509 1533 Q222.518 1536.79 227.61 1536.79 Q232.703 1536.79 235.666 1533 Q238.652 1529.2 238.652 1522.67 Q238.652 1516.12 235.666 1512.33 Q232.703 1508.53 227.61 1508.53 M234.161 1539.29 L240.319 1546.03 L234.671 1546.03 L229.555 1540.5 Q228.791 1540.54 228.374 1540.57 Q227.981 1540.59 227.61 1540.59 Q220.319 1540.59 215.944 1535.73 Q211.592 1530.85 211.592 1522.67 Q211.592 1514.48 215.944 1509.62 Q220.319 1504.73 227.61 1504.73 Q234.879 1504.73 239.231 1509.62 Q243.583 1514.48 243.583 1522.67 Q243.583 1528.69 241.152 1532.98 Q238.745 1537.26 234.161 1539.29 Z" fill="#000000" fill-rule="evenodd" fill-opacity="1" /><path clip-path="url(#clip980)" d="M 0 0 M262.819 1521.29 Q266.175 1522 268.05 1524.27 Q269.948 1526.54 269.948 1529.87 Q269.948 1534.99 266.43 1537.79 Q262.911 1540.59 256.43 1540.59 Q254.254 1540.59 251.939 1540.15 Q249.647 1539.73 247.194 1538.88 L247.194 1534.36 Q249.138 1535.5 251.453 1536.08 Q253.768 1536.66 256.291 1536.66 Q260.689 1536.66 262.981 1534.92 Q265.295 1533.18 265.295 1529.87 Q265.295 1526.82 263.143 1525.11 Q261.013 1523.37 257.194 1523.37 L253.166 1523.37 L253.166 1519.53 L257.379 1519.53 Q260.828 1519.53 262.656 1518.16 Q264.485 1516.77 264.485 1514.18 Q264.485 1511.52 262.587 1510.11 Q260.712 1508.67 257.194 1508.67 Q255.272 1508.67 253.073 1509.09 Q250.874 1509.5 248.235 1510.38 L248.235 1506.22 Q250.897 1505.48 253.212 1505.11 Q255.55 1504.73 257.61 1504.73 Q262.934 1504.73 266.036 1507.17 Q269.138 1509.57 269.138 1513.69 Q269.138 1516.56 267.494 1518.55 Q265.851 1520.52 262.819 1521.29 Z" fill="#000000" fill-rule="evenodd" fill-opacity="1" /><path clip-path="url(#clip980)" d="M 0 0 M424.337 1535.98 L440.656 1535.98 L440.656 1539.92 L418.712 1539.92 L418.712 1535.98 Q421.374 1533.23 425.957 1528.6 Q430.564 1523.95 431.744 1522.61 Q433.99 1520.08 434.869 1518.35 Q435.772 1516.59 435.772 1514.9 Q435.772 1512.14 433.828 1510.41 Q431.906 1508.67 428.805 1508.67 Q426.605 1508.67 424.152 1509.43 Q421.721 1510.2 418.944 1511.75 L418.944 1507.03 Q421.768 1505.89 424.221 1505.31 Q426.675 1504.73 428.712 1504.73 Q434.082 1504.73 437.277 1507.42 Q440.471 1510.11 440.471 1514.6 Q440.471 1516.73 439.661 1518.65 Q438.874 1520.54 436.767 1523.14 Q436.189 1523.81 433.087 1527.03 Q429.985 1530.22 424.337 1535.98 Z" fill="#000000" fill-rule="evenodd" fill-opacity="1" /><path clip-path="url(#clip980)" d="M 0 0 M455.726 1508.44 Q452.115 1508.44 450.286 1512 Q448.48 1515.55 448.48 1522.67 Q448.48 1529.78 450.286 1533.35 Q452.115 1536.89 455.726 1536.89 Q459.36 1536.89 461.165 1533.35 Q462.994 1529.78 462.994 1522.67 Q462.994 1515.55 461.165 1512 Q459.36 1508.44 455.726 1508.44 M455.726 1504.73 Q461.536 1504.73 464.591 1509.34 Q467.67 1513.92 467.67 1522.67 Q467.67 1531.4 464.591 1536.01 Q461.536 1540.59 455.726 1540.59 Q449.916 1540.59 446.837 1536.01 Q443.781 1531.4 443.781 1522.67 Q443.781 1513.92 446.837 1509.34 Q449.916 1504.73 455.726 1504.73 Z" fill="#000000" fill-rule="evenodd" fill-opacity="1" /><path clip-path="url(#clip980)" d="M 0 0 M482.739 1508.44 Q479.128 1508.44 477.3 1512 Q475.494 1515.55 475.494 1522.67 Q475.494 1529.78 477.3 1533.35 Q479.128 1536.89 482.739 1536.89 Q486.374 1536.89 488.179 1533.35 Q490.008 1529.78 490.008 1522.67 Q490.008 1515.55 488.179 1512 Q486.374 1508.44 482.739 1508.44 M482.739 1504.73 Q488.55 1504.73 491.605 1509.34 Q494.684 1513.92 494.684 1522.67 Q494.684 1531.4 491.605 1536.01 Q488.55 1540.59 482.739 1540.59 Q476.929 1540.59 473.851 1536.01 Q470.795 1531.4 470.795 1522.67 Q470.795 1513.92 473.851 1509.34 Q476.929 1504.73 482.739 1504.73 Z" fill="#000000" fill-rule="evenodd" fill-opacity="1" /><path clip-path="url(#clip980)" d="M 0 0 M500.563 1535.98 L508.202 1535.98 L508.202 1509.62 L499.892 1511.29 L499.892 1507.03 L508.156 1505.36 L512.832 1505.36 L512.832 1535.98 L520.471 1535.98 L520.471 1539.92 L500.563 1539.92 L500.563 1535.98 Z" fill="#000000" fill-rule="evenodd" fill-opacity="1" /><path clip-path="url(#clip980)" d="M 0 0 M539.151 1508.53 Q534.059 1508.53 531.049 1512.33 Q528.063 1516.12 528.063 1522.67 Q528.063 1529.2 531.049 1533 Q534.059 1536.79 539.151 1536.79 Q544.244 1536.79 547.207 1533 Q550.193 1529.2 550.193 1522.67 Q550.193 1516.12 547.207 1512.33 Q544.244 1508.53 539.151 1508.53 M545.702 1539.29 L551.859 1546.03 L546.211 1546.03 L541.096 1540.5 Q540.332 1540.54 539.915 1540.57 Q539.522 1540.59 539.151 1540.59 Q531.86 1540.59 527.485 1535.73 Q523.133 1530.85 523.133 1522.67 Q523.133 1514.48 527.485 1509.62 Q531.86 1504.73 539.151 1504.73 Q546.42 1504.73 550.771 1509.62 Q555.123 1514.48 555.123 1522.67 Q555.123 1528.69 552.693 1532.98 Q550.285 1537.26 545.702 1539.29 Z" fill="#000000" fill-rule="evenodd" fill-opacity="1" /><path clip-path="url(#clip980)" d="M 0 0 M574.359 1521.29 Q577.716 1522 579.591 1524.27 Q581.489 1526.54 581.489 1529.87 Q581.489 1534.99 577.97 1537.79 Q574.452 1540.59 567.97 1540.59 Q565.795 1540.59 563.48 1540.15 Q561.188 1539.73 558.734 1538.88 L558.734 1534.36 Q560.679 1535.5 562.994 1536.08 Q565.308 1536.66 567.832 1536.66 Q572.23 1536.66 574.521 1534.92 Q576.836 1533.18 576.836 1529.87 Q576.836 1526.82 574.683 1525.11 Q572.554 1523.37 568.734 1523.37 L564.707 1523.37 L564.707 1519.53 L568.92 1519.53 Q572.369 1519.53 574.197 1518.16 Q576.026 1516.77 576.026 1514.18 Q576.026 1511.52 574.128 1510.11 Q572.253 1508.67 568.734 1508.67 Q566.813 1508.67 564.614 1509.09 Q562.415 1509.5 559.776 1510.38 L559.776 1506.22 Q562.438 1505.48 564.753 1505.11 Q567.091 1504.73 569.151 1504.73 Q574.475 1504.73 577.577 1507.17 Q580.679 1509.57 580.679 1513.69 Q580.679 1516.56 579.035 1518.55 Q577.392 1520.52 574.359 1521.29 Z" fill="#000000" fill-rule="evenodd" fill-opacity="1" /><path clip-path="url(#clip980)" d="M 0 0 M734.72 1535.98 L751.04 1535.98 L751.04 1539.92 L729.095 1539.92 L729.095 1535.98 Q731.757 1533.23 736.341 1528.6 Q740.947 1523.95 742.128 1522.61 Q744.373 1520.08 745.253 1518.35 Q746.156 1516.59 746.156 1514.9 Q746.156 1512.14 744.211 1510.41 Q742.29 1508.67 739.188 1508.67 Q736.989 1508.67 734.535 1509.43 Q732.105 1510.2 729.327 1511.75 L729.327 1507.03 Q732.151 1505.89 734.605 1505.31 Q737.058 1504.73 739.095 1504.73 Q744.466 1504.73 747.66 1507.42 Q750.855 1510.11 750.855 1514.6 Q750.855 1516.73 750.044 1518.65 Q749.257 1520.54 747.151 1523.14 Q746.572 1523.81 743.47 1527.03 Q740.369 1530.22 734.72 1535.98 Z" fill="#000000" fill-rule="evenodd" fill-opacity="1" /><path clip-path="url(#clip980)" d="M 0 0 M766.109 1508.44 Q762.498 1508.44 760.669 1512 Q758.864 1515.55 758.864 1522.67 Q758.864 1529.78 760.669 1533.35 Q762.498 1536.89 766.109 1536.89 Q769.743 1536.89 771.549 1533.35 Q773.378 1529.78 773.378 1522.67 Q773.378 1515.55 771.549 1512 Q769.743 1508.44 766.109 1508.44 M766.109 1504.73 Q771.919 1504.73 774.975 1509.34 Q778.054 1513.92 778.054 1522.67 Q778.054 1531.4 774.975 1536.01 Q771.919 1540.59 766.109 1540.59 Q760.299 1540.59 757.22 1536.01 Q754.165 1531.4 754.165 1522.67 Q754.165 1513.92 757.22 1509.34 Q760.299 1504.73 766.109 1504.73 Z" fill="#000000" fill-rule="evenodd" fill-opacity="1" /><path clip-path="url(#clip980)" d="M 0 0 M793.123 1508.44 Q789.512 1508.44 787.683 1512 Q785.878 1515.55 785.878 1522.67 Q785.878 1529.78 787.683 1533.35 Q789.512 1536.89 793.123 1536.89 Q796.757 1536.89 798.563 1533.35 Q800.391 1529.78 800.391 1522.67 Q800.391 1515.55 798.563 1512 Q796.757 1508.44 793.123 1508.44 M793.123 1504.73 Q798.933 1504.73 801.989 1509.34 Q805.067 1513.92 805.067 1522.67 Q805.067 1531.4 801.989 1536.01 Q798.933 1540.59 793.123 1540.59 Q787.313 1540.59 784.234 1536.01 Q781.178 1531.4 781.178 1522.67 Q781.178 1513.92 784.234 1509.34 Q787.313 1504.73 793.123 1504.73 Z" fill="#000000" fill-rule="evenodd" fill-opacity="1" /><path clip-path="url(#clip980)" d="M 0 0 M822.984 1509.43 L811.178 1527.88 L822.984 1527.88 L822.984 1509.43 M821.757 1505.36 L827.637 1505.36 L827.637 1527.88 L832.567 1527.88 L832.567 1531.77 L827.637 1531.77 L827.637 1539.92 L822.984 1539.92 L822.984 1531.77 L807.382 1531.77 L807.382 1527.26 L821.757 1505.36 Z" fill="#000000" fill-rule="evenodd" fill-opacity="1" /><path clip-path="url(#clip980)" d="M 0 0 M851.248 1508.53 Q846.155 1508.53 843.146 1512.33 Q840.16 1516.12 840.16 1522.67 Q840.16 1529.2 843.146 1533 Q846.155 1536.79 851.248 1536.79 Q856.34 1536.79 859.303 1533 Q862.289 1529.2 862.289 1522.67 Q862.289 1516.12 859.303 1512.33 Q856.34 1508.53 851.248 1508.53 M857.798 1539.29 L863.956 1546.03 L858.308 1546.03 L853.192 1540.5 Q852.428 1540.54 852.011 1540.57 Q851.618 1540.59 851.248 1540.59 Q843.956 1540.59 839.581 1535.73 Q835.229 1530.85 835.229 1522.67 Q835.229 1514.48 839.581 1509.62 Q843.956 1504.73 851.248 1504.73 Q858.516 1504.73 862.868 1509.62 Q867.22 1514.48 867.22 1522.67 Q867.22 1528.69 864.789 1532.98 Q862.382 1537.26 857.798 1539.29 Z" fill="#000000" fill-rule="evenodd" fill-opacity="1" /><path clip-path="url(#clip980)" d="M 0 0 M886.456 1521.29 Q889.812 1522 891.687 1524.27 Q893.585 1526.54 893.585 1529.87 Q893.585 1534.99 890.067 1537.79 Q886.548 1540.59 880.067 1540.59 Q877.891 1540.59 875.576 1540.15 Q873.284 1539.73 870.831 1538.88 L870.831 1534.36 Q872.775 1535.5 875.09 1536.08 Q877.405 1536.66 879.928 1536.66 Q884.326 1536.66 886.618 1534.92 Q888.933 1533.18 888.933 1529.87 Q888.933 1526.82 886.78 1525.11 Q884.65 1523.37 880.831 1523.37 L876.803 1523.37 L876.803 1519.53 L881.016 1519.53 Q884.465 1519.53 886.294 1518.16 Q888.122 1516.77 888.122 1514.18 Q888.122 1511.52 886.224 1510.11 Q884.349 1508.67 880.831 1508.67 Q878.909 1508.67 876.71 1509.09 Q874.511 1509.5 871.872 1510.38 L871.872 1506.22 Q874.534 1505.48 876.849 1505.11 Q879.187 1504.73 881.247 1504.73 Q886.571 1504.73 889.673 1507.17 Q892.775 1509.57 892.775 1513.69 Q892.775 1516.56 891.132 1518.55 Q889.488 1520.52 886.456 1521.29 Z" fill="#000000" fill-rule="evenodd" fill-opacity="1" /><path clip-path="url(#clip980)" d="M 0 0 M1046.65 1535.98 L1062.97 1535.98 L1062.97 1539.92 L1041.03 1539.92 L1041.03 1535.98 Q1043.69 1533.23 1048.28 1528.6 Q1052.88 1523.95 1054.06 1522.61 Q1056.31 1520.08 1057.19 1518.35 Q1058.09 1516.59 1058.09 1514.9 Q1058.09 1512.14 1056.15 1510.41 Q1054.22 1508.67 1051.12 1508.67 Q1048.92 1508.67 1046.47 1509.43 Q1044.04 1510.2 1041.26 1511.75 L1041.26 1507.03 Q1044.09 1505.89 1046.54 1505.31 Q1048.99 1504.73 1051.03 1504.73 Q1056.4 1504.73 1059.59 1507.42 Q1062.79 1510.11 1062.79 1514.6 Q1062.79 1516.73 1061.98 1518.65 Q1061.19 1520.54 1059.09 1523.14 Q1058.51 1523.81 1055.4 1527.03 Q1052.3 1530.22 1046.65 1535.98 Z" fill="#000000" fill-rule="evenodd" fill-opacity="1" /><path clip-path="url(#clip980)" d="M 0 0 M1078.04 1508.44 Q1074.43 1508.44 1072.6 1512 Q1070.8 1515.55 1070.8 1522.67 Q1070.8 1529.78 1072.6 1533.35 Q1074.43 1536.89 1078.04 1536.89 Q1081.68 1536.89 1083.48 1533.35 Q1085.31 1529.78 1085.31 1522.67 Q1085.31 1515.55 1083.48 1512 Q1081.68 1508.44 1078.04 1508.44 M1078.04 1504.73 Q1083.85 1504.73 1086.91 1509.34 Q1089.99 1513.92 1089.99 1522.67 Q1089.99 1531.4 1086.91 1536.01 Q1083.85 1540.59 1078.04 1540.59 Q1072.23 1540.59 1069.15 1536.01 Q1066.1 1531.4 1066.1 1522.67 Q1066.1 1513.92 1069.15 1509.34 Q1072.23 1504.73 1078.04 1504.73 Z" fill="#000000" fill-rule="evenodd" fill-opacity="1" /><path clip-path="url(#clip980)" d="M 0 0 M1105.06 1508.44 Q1101.45 1508.44 1099.62 1512 Q1097.81 1515.55 1097.81 1522.67 Q1097.81 1529.78 1099.62 1533.35 Q1101.45 1536.89 1105.06 1536.89 Q1108.69 1536.89 1110.5 1533.35 Q1112.33 1529.78 1112.33 1522.67 Q1112.33 1515.55 1110.5 1512 Q1108.69 1508.44 1105.06 1508.44 M1105.06 1504.73 Q1110.87 1504.73 1113.92 1509.34 Q1117 1513.92 1117 1522.67 Q1117 1531.4 1113.92 1536.01 Q1110.87 1540.59 1105.06 1540.59 Q1099.25 1540.59 1096.17 1536.01 Q1093.11 1531.4 1093.11 1522.67 Q1093.11 1513.92 1096.17 1509.34 Q1099.25 1504.73 1105.06 1504.73 Z" fill="#000000" fill-rule="evenodd" fill-opacity="1" /><path clip-path="url(#clip980)" d="M 0 0 M1120.89 1505.36 L1143.11 1505.36 L1143.11 1507.35 L1130.57 1539.92 L1125.68 1539.92 L1137.49 1509.3 L1120.89 1509.3 L1120.89 1505.36 Z" fill="#000000" fill-rule="evenodd" fill-opacity="1" /><path clip-path="url(#clip980)" d="M 0 0 M1161.79 1508.53 Q1156.7 1508.53 1153.69 1512.33 Q1150.71 1516.12 1150.71 1522.67 Q1150.71 1529.2 1153.69 1533 Q1156.7 1536.79 1161.79 1536.79 Q1166.89 1536.79 1169.85 1533 Q1172.83 1529.2 1172.83 1522.67 Q1172.83 1516.12 1169.85 1512.33 Q1166.89 1508.53 1161.79 1508.53 M1168.34 1539.29 L1174.5 1546.03 L1168.85 1546.03 L1163.74 1540.5 Q1162.97 1540.54 1162.56 1540.57 Q1162.16 1540.59 1161.79 1540.59 Q1154.5 1540.59 1150.13 1535.73 Q1145.77 1530.85 1145.77 1522.67 Q1145.77 1514.48 1150.13 1509.62 Q1154.5 1504.73 1161.79 1504.73 Q1169.06 1504.73 1173.41 1509.62 Q1177.77 1514.48 1177.77 1522.67 Q1177.77 1528.69 1175.33 1532.98 Q1172.93 1537.26 1168.34 1539.29 Z" fill="#000000" fill-rule="evenodd" fill-opacity="1" /><path clip-path="url(#clip980)" d="M 0 0 M1197 1521.29 Q1200.36 1522 1202.23 1524.27 Q1204.13 1526.54 1204.13 1529.87 Q1204.13 1534.99 1200.61 1537.79 Q1197.09 1540.59 1190.61 1540.59 Q1188.44 1540.59 1186.12 1540.15 Q1183.83 1539.73 1181.38 1538.88 L1181.38 1534.36 Q1183.32 1535.5 1185.64 1536.08 Q1187.95 1536.66 1190.47 1536.66 Q1194.87 1536.66 1197.16 1534.92 Q1199.48 1533.18 1199.48 1529.87 Q1199.48 1526.82 1197.33 1525.11 Q1195.2 1523.37 1191.38 1523.37 L1187.35 1523.37 L1187.35 1519.53 L1191.56 1519.53 Q1195.01 1519.53 1196.84 1518.16 Q1198.67 1516.77 1198.67 1514.18 Q1198.67 1511.52 1196.77 1510.11 Q1194.89 1508.67 1191.38 1508.67 Q1189.45 1508.67 1187.26 1509.09 Q1185.06 1509.5 1182.42 1510.38 L1182.42 1506.22 Q1185.08 1505.48 1187.39 1505.11 Q1189.73 1504.73 1191.79 1504.73 Q1197.12 1504.73 1200.22 1507.17 Q1203.32 1509.57 1203.32 1513.69 Q1203.32 1516.56 1201.68 1518.55 Q1200.03 1520.52 1197 1521.29 Z" fill="#000000" fill-rule="evenodd" fill-opacity="1" /><path clip-path="url(#clip980)" d="M 0 0 M1358.06 1535.98 L1374.38 1535.98 L1374.38 1539.92 L1352.43 1539.92 L1352.43 1535.98 Q1355.09 1533.23 1359.68 1528.6 Q1364.28 1523.95 1365.46 1522.61 Q1367.71 1520.08 1368.59 1518.35 Q1369.49 1516.59 1369.49 1514.9 Q1369.49 1512.14 1367.55 1510.41 Q1365.63 1508.67 1362.52 1508.67 Q1360.33 1508.67 1357.87 1509.43 Q1355.44 1510.2 1352.66 1511.75 L1352.66 1507.03 Q1355.49 1505.89 1357.94 1505.31 Q1360.39 1504.73 1362.43 1504.73 Q1367.8 1504.73 1371 1507.42 Q1374.19 1510.11 1374.19 1514.6 Q1374.19 1516.73 1373.38 1518.65 Q1372.59 1520.54 1370.49 1523.14 Q1369.91 1523.81 1366.81 1527.03 Q1363.7 1530.22 1358.06 1535.98 Z" fill="#000000" fill-rule="evenodd" fill-opacity="1" /><path clip-path="url(#clip980)" d="M 0 0 M1389.45 1508.44 Q1385.83 1508.44 1384.01 1512 Q1382.2 1515.55 1382.2 1522.67 Q1382.2 1529.78 1384.01 1533.35 Q1385.83 1536.89 1389.45 1536.89 Q1393.08 1536.89 1394.89 1533.35 Q1396.71 1529.78 1396.71 1522.67 Q1396.71 1515.55 1394.89 1512 Q1393.08 1508.44 1389.45 1508.44 M1389.45 1504.73 Q1395.26 1504.73 1398.31 1509.34 Q1401.39 1513.92 1401.39 1522.67 Q1401.39 1531.4 1398.31 1536.01 Q1395.26 1540.59 1389.45 1540.59 Q1383.64 1540.59 1380.56 1536.01 Q1377.5 1531.4 1377.5 1522.67 Q1377.5 1513.92 1380.56 1509.34 Q1383.64 1504.73 1389.45 1504.73 Z" fill="#000000" fill-rule="evenodd" fill-opacity="1" /><path clip-path="url(#clip980)" d="M 0 0 M1407.27 1535.98 L1414.91 1535.98 L1414.91 1509.62 L1406.6 1511.29 L1406.6 1507.03 L1414.86 1505.36 L1419.54 1505.36 L1419.54 1535.98 L1427.18 1535.98 L1427.18 1539.92 L1407.27 1539.92 L1407.27 1535.98 Z" fill="#000000" fill-rule="evenodd" fill-opacity="1" /><path clip-path="url(#clip980)" d="M 0 0 M1442.25 1508.44 Q1438.63 1508.44 1436.81 1512 Q1435 1515.55 1435 1522.67 Q1435 1529.78 1436.81 1533.35 Q1438.63 1536.89 1442.25 1536.89 Q1445.88 1536.89 1447.69 1533.35 Q1449.51 1529.78 1449.51 1522.67 Q1449.51 1515.55 1447.69 1512 Q1445.88 1508.44 1442.25 1508.44 M1442.25 1504.73 Q1448.06 1504.73 1451.11 1509.34 Q1454.19 1513.92 1454.19 1522.67 Q1454.19 1531.4 1451.11 1536.01 Q1448.06 1540.59 1442.25 1540.59 Q1436.44 1540.59 1433.36 1536.01 Q1430.3 1531.4 1430.3 1522.67 Q1430.3 1513.92 1433.36 1509.34 Q1436.44 1504.73 1442.25 1504.73 Z" fill="#000000" fill-rule="evenodd" fill-opacity="1" /><path clip-path="url(#clip980)" d="M 0 0 M1472.87 1508.53 Q1467.78 1508.53 1464.77 1512.33 Q1461.78 1516.12 1461.78 1522.67 Q1461.78 1529.2 1464.77 1533 Q1467.78 1536.79 1472.87 1536.79 Q1477.96 1536.79 1480.93 1533 Q1483.91 1529.2 1483.91 1522.67 Q1483.91 1516.12 1480.93 1512.33 Q1477.96 1508.53 1472.87 1508.53 M1479.42 1539.29 L1485.58 1546.03 L1479.93 1546.03 L1474.82 1540.5 Q1474.05 1540.54 1473.63 1540.57 Q1473.24 1540.59 1472.87 1540.59 Q1465.58 1540.59 1461.2 1535.73 Q1456.85 1530.85 1456.85 1522.67 Q1456.85 1514.48 1461.2 1509.62 Q1465.58 1504.73 1472.87 1504.73 Q1480.14 1504.73 1484.49 1509.62 Q1488.84 1514.48 1488.84 1522.67 Q1488.84 1528.69 1486.41 1532.98 Q1484.01 1537.26 1479.42 1539.29 Z" fill="#000000" fill-rule="evenodd" fill-opacity="1" /><path clip-path="url(#clip980)" d="M 0 0 M1508.08 1521.29 Q1511.44 1522 1513.31 1524.27 Q1515.21 1526.54 1515.21 1529.87 Q1515.21 1534.99 1511.69 1537.79 Q1508.17 1540.59 1501.69 1540.59 Q1499.51 1540.59 1497.2 1540.15 Q1494.91 1539.73 1492.45 1538.88 L1492.45 1534.36 Q1494.4 1535.5 1496.71 1536.08 Q1499.03 1536.66 1501.55 1536.66 Q1505.95 1536.66 1508.24 1534.92 Q1510.56 1533.18 1510.56 1529.87 Q1510.56 1526.82 1508.4 1525.11 Q1506.27 1523.37 1502.45 1523.37 L1498.43 1523.37 L1498.43 1519.53 L1502.64 1519.53 Q1506.09 1519.53 1507.92 1518.16 Q1509.75 1516.77 1509.75 1514.18 Q1509.75 1511.52 1507.85 1510.11 Q1505.97 1508.67 1502.45 1508.67 Q1500.53 1508.67 1498.33 1509.09 Q1496.13 1509.5 1493.5 1510.38 L1493.5 1506.22 Q1496.16 1505.48 1498.47 1505.11 Q1500.81 1504.73 1502.87 1504.73 Q1508.19 1504.73 1511.3 1507.17 Q1514.4 1509.57 1514.4 1513.69 Q1514.4 1516.56 1512.75 1518.55 Q1511.11 1520.52 1508.08 1521.29 Z" fill="#000000" fill-rule="evenodd" fill-opacity="1" /><path clip-path="url(#clip980)" d="M 0 0 M1669.62 1535.98 L1685.94 1535.98 L1685.94 1539.92 L1664 1539.92 L1664 1535.98 Q1666.66 1533.23 1671.24 1528.6 Q1675.85 1523.95 1677.03 1522.61 Q1679.27 1520.08 1680.15 1518.35 Q1681.06 1516.59 1681.06 1514.9 Q1681.06 1512.14 1679.11 1510.41 Q1677.19 1508.67 1674.09 1508.67 Q1671.89 1508.67 1669.44 1509.43 Q1667 1510.2 1664.23 1511.75 L1664.23 1507.03 Q1667.05 1505.89 1669.5 1505.31 Q1671.96 1504.73 1674 1504.73 Q1679.37 1504.73 1682.56 1507.42 Q1685.75 1510.11 1685.75 1514.6 Q1685.75 1516.73 1684.94 1518.65 Q1684.16 1520.54 1682.05 1523.14 Q1681.47 1523.81 1678.37 1527.03 Q1675.27 1530.22 1669.62 1535.98 Z" fill="#000000" fill-rule="evenodd" fill-opacity="1" /><path clip-path="url(#clip980)" d="M 0 0 M1701.01 1508.44 Q1697.4 1508.44 1695.57 1512 Q1693.76 1515.55 1693.76 1522.67 Q1693.76 1529.78 1695.57 1533.35 Q1697.4 1536.89 1701.01 1536.89 Q1704.64 1536.89 1706.45 1533.35 Q1708.28 1529.78 1708.28 1522.67 Q1708.28 1515.55 1706.45 1512 Q1704.64 1508.44 1701.01 1508.44 M1701.01 1504.73 Q1706.82 1504.73 1709.88 1509.34 Q1712.95 1513.92 1712.95 1522.67 Q1712.95 1531.4 1709.88 1536.01 Q1706.82 1540.59 1701.01 1540.59 Q1695.2 1540.59 1692.12 1536.01 Q1689.06 1531.4 1689.06 1522.67 Q1689.06 1513.92 1692.12 1509.34 Q1695.2 1504.73 1701.01 1504.73 Z" fill="#000000" fill-rule="evenodd" fill-opacity="1" /><path clip-path="url(#clip980)" d="M 0 0 M1718.83 1535.98 L1726.47 1535.98 L1726.47 1509.62 L1718.16 1511.29 L1718.16 1507.03 L1726.43 1505.36 L1731.1 1505.36 L1731.1 1535.98 L1738.74 1535.98 L1738.74 1539.92 L1718.83 1539.92 L1718.83 1535.98 Z" fill="#000000" fill-rule="evenodd" fill-opacity="1" /><path clip-path="url(#clip980)" d="M 0 0 M1757.98 1521.29 Q1761.33 1522 1763.21 1524.27 Q1765.11 1526.54 1765.11 1529.87 Q1765.11 1534.99 1761.59 1537.79 Q1758.07 1540.59 1751.59 1540.59 Q1749.41 1540.59 1747.1 1540.15 Q1744.81 1539.73 1742.35 1538.88 L1742.35 1534.36 Q1744.3 1535.5 1746.61 1536.08 Q1748.93 1536.66 1751.45 1536.66 Q1755.85 1536.66 1758.14 1534.92 Q1760.45 1533.18 1760.45 1529.87 Q1760.45 1526.82 1758.3 1525.11 Q1756.17 1523.37 1752.35 1523.37 L1748.32 1523.37 L1748.32 1519.53 L1752.54 1519.53 Q1755.99 1519.53 1757.81 1518.16 Q1759.64 1516.77 1759.64 1514.18 Q1759.64 1511.52 1757.75 1510.11 Q1755.87 1508.67 1752.35 1508.67 Q1750.43 1508.67 1748.23 1509.09 Q1746.03 1509.5 1743.39 1510.38 L1743.39 1506.22 Q1746.06 1505.48 1748.37 1505.11 Q1750.71 1504.73 1752.77 1504.73 Q1758.09 1504.73 1761.19 1507.17 Q1764.3 1509.57 1764.3 1513.69 Q1764.3 1516.56 1762.65 1518.55 Q1761.01 1520.52 1757.98 1521.29 Z" fill="#000000" fill-rule="evenodd" fill-opacity="1" /><path clip-path="url(#clip980)" d="M 0 0 M1783.79 1508.53 Q1778.69 1508.53 1775.68 1512.33 Q1772.7 1516.12 1772.7 1522.67 Q1772.7 1529.2 1775.68 1533 Q1778.69 1536.79 1783.79 1536.79 Q1788.88 1536.79 1791.84 1533 Q1794.83 1529.2 1794.83 1522.67 Q1794.83 1516.12 1791.84 1512.33 Q1788.88 1508.53 1783.79 1508.53 M1790.34 1539.29 L1796.49 1546.03 L1790.85 1546.03 L1785.73 1540.5 Q1784.97 1540.54 1784.55 1540.57 Q1784.16 1540.59 1783.79 1540.59 Q1776.5 1540.59 1772.12 1535.73 Q1767.77 1530.85 1767.77 1522.67 Q1767.77 1514.48 1772.12 1509.62 Q1776.5 1504.73 1783.79 1504.73 Q1791.06 1504.73 1795.41 1509.62 Q1799.76 1514.48 1799.76 1522.67 Q1799.76 1528.69 1797.33 1532.98 Q1794.92 1537.26 1790.34 1539.29 Z" fill="#000000" fill-rule="evenodd" fill-opacity="1" /><path clip-path="url(#clip980)" d="M 0 0 M1818.99 1521.29 Q1822.35 1522 1824.23 1524.27 Q1826.12 1526.54 1826.12 1529.87 Q1826.12 1534.99 1822.61 1537.79 Q1819.09 1540.59 1812.61 1540.59 Q1810.43 1540.59 1808.12 1540.15 Q1805.82 1539.73 1803.37 1538.88 L1803.37 1534.36 Q1805.31 1535.5 1807.63 1536.08 Q1809.94 1536.66 1812.47 1536.66 Q1816.87 1536.66 1819.16 1534.92 Q1821.47 1533.18 1821.47 1529.87 Q1821.47 1526.82 1819.32 1525.11 Q1817.19 1523.37 1813.37 1523.37 L1809.34 1523.37 L1809.34 1519.53 L1813.56 1519.53 Q1817 1519.53 1818.83 1518.16 Q1820.66 1516.77 1820.66 1514.18 Q1820.66 1511.52 1818.76 1510.11 Q1816.89 1508.67 1813.37 1508.67 Q1811.45 1508.67 1809.25 1509.09 Q1807.05 1509.5 1804.41 1510.38 L1804.41 1506.22 Q1807.07 1505.48 1809.39 1505.11 Q1811.73 1504.73 1813.79 1504.73 Q1819.11 1504.73 1822.21 1507.17 Q1825.31 1509.57 1825.31 1513.69 Q1825.31 1516.56 1823.67 1518.55 Q1822.03 1520.52 1818.99 1521.29 Z" fill="#000000" fill-rule="evenodd" fill-opacity="1" /><path clip-path="url(#clip980)" d="M 0 0 M1980.46 1535.98 L1996.77 1535.98 L1996.77 1539.92 L1974.83 1539.92 L1974.83 1535.98 Q1977.49 1533.23 1982.08 1528.6 Q1986.68 1523.95 1987.86 1522.61 Q1990.11 1520.08 1990.99 1518.35 Q1991.89 1516.59 1991.89 1514.9 Q1991.89 1512.14 1989.95 1510.41 Q1988.02 1508.67 1984.92 1508.67 Q1982.72 1508.67 1980.27 1509.43 Q1977.84 1510.2 1975.06 1511.75 L1975.06 1507.03 Q1977.89 1505.89 1980.34 1505.31 Q1982.79 1504.73 1984.83 1504.73 Q1990.2 1504.73 1993.4 1507.42 Q1996.59 1510.11 1996.59 1514.6 Q1996.59 1516.73 1995.78 1518.65 Q1994.99 1520.54 1992.89 1523.14 Q1992.31 1523.81 1989.21 1527.03 Q1986.1 1530.22 1980.46 1535.98 Z" fill="#000000" fill-rule="evenodd" fill-opacity="1" /><path clip-path="url(#clip980)" d="M 0 0 M2011.84 1508.44 Q2008.23 1508.44 2006.4 1512 Q2004.6 1515.55 2004.6 1522.67 Q2004.6 1529.78 2006.4 1533.35 Q2008.23 1536.89 2011.84 1536.89 Q2015.48 1536.89 2017.28 1533.35 Q2019.11 1529.78 2019.11 1522.67 Q2019.11 1515.55 2017.28 1512 Q2015.48 1508.44 2011.84 1508.44 M2011.84 1504.73 Q2017.65 1504.73 2020.71 1509.34 Q2023.79 1513.92 2023.79 1522.67 Q2023.79 1531.4 2020.71 1536.01 Q2017.65 1540.59 2011.84 1540.59 Q2006.03 1540.59 2002.96 1536.01 Q1999.9 1531.4 1999.9 1522.67 Q1999.9 1513.92 2002.96 1509.34 Q2006.03 1504.73 2011.84 1504.73 Z" fill="#000000" fill-rule="evenodd" fill-opacity="1" /><path clip-path="url(#clip980)" d="M 0 0 M2029.67 1535.98 L2037.31 1535.98 L2037.31 1509.62 L2029 1511.29 L2029 1507.03 L2037.26 1505.36 L2041.94 1505.36 L2041.94 1535.98 L2049.58 1535.98 L2049.58 1539.92 L2029.67 1539.92 L2029.67 1535.98 Z" fill="#000000" fill-rule="evenodd" fill-opacity="1" /><path clip-path="url(#clip980)" d="M 0 0 M2065.22 1520.78 Q2062.08 1520.78 2060.22 1522.93 Q2058.39 1525.08 2058.39 1528.83 Q2058.39 1532.56 2060.22 1534.73 Q2062.08 1536.89 2065.22 1536.89 Q2068.37 1536.89 2070.2 1534.73 Q2072.05 1532.56 2072.05 1528.83 Q2072.05 1525.08 2070.2 1522.93 Q2068.37 1520.78 2065.22 1520.78 M2074.51 1506.12 L2074.51 1510.38 Q2072.75 1509.55 2070.94 1509.11 Q2069.16 1508.67 2067.4 1508.67 Q2062.77 1508.67 2060.32 1511.8 Q2057.89 1514.92 2057.54 1521.24 Q2058.9 1519.23 2060.96 1518.16 Q2063.02 1517.07 2065.5 1517.07 Q2070.71 1517.07 2073.72 1520.24 Q2076.75 1523.39 2076.75 1528.83 Q2076.75 1534.16 2073.6 1537.37 Q2070.45 1540.59 2065.22 1540.59 Q2059.23 1540.59 2056.06 1536.01 Q2052.89 1531.4 2052.89 1522.67 Q2052.89 1514.48 2056.77 1509.62 Q2060.66 1504.73 2067.21 1504.73 Q2068.97 1504.73 2070.76 1505.08 Q2072.56 1505.43 2074.51 1506.12 Z" fill="#000000" fill-rule="evenodd" fill-opacity="1" /><path clip-path="url(#clip980)" d="M 0 0 M2095.43 1508.53 Q2090.34 1508.53 2087.33 1512.33 Q2084.34 1516.12 2084.34 1522.67 Q2084.34 1529.2 2087.33 1533 Q2090.34 1536.79 2095.43 1536.79 Q2100.52 1536.79 2103.49 1533 Q2106.47 1529.2 2106.47 1522.67 Q2106.47 1516.12 2103.49 1512.33 Q2100.52 1508.53 2095.43 1508.53 M2101.98 1539.29 L2108.14 1546.03 L2102.49 1546.03 L2097.38 1540.5 Q2096.61 1540.54 2096.2 1540.57 Q2095.8 1540.59 2095.43 1540.59 Q2088.14 1540.59 2083.77 1535.73 Q2079.41 1530.85 2079.41 1522.67 Q2079.41 1514.48 2083.77 1509.62 Q2088.14 1504.73 2095.43 1504.73 Q2102.7 1504.73 2107.05 1509.62 Q2111.4 1514.48 2111.4 1522.67 Q2111.4 1528.69 2108.97 1532.98 Q2106.57 1537.26 2101.98 1539.29 Z" fill="#000000" fill-rule="evenodd" fill-opacity="1" /><path clip-path="url(#clip980)" d="M 0 0 M2130.64 1521.29 Q2134 1522 2135.87 1524.27 Q2137.77 1526.54 2137.77 1529.87 Q2137.77 1534.99 2134.25 1537.79 Q2130.73 1540.59 2124.25 1540.59 Q2122.08 1540.59 2119.76 1540.15 Q2117.47 1539.73 2115.01 1538.88 L2115.01 1534.36 Q2116.96 1535.5 2119.27 1536.08 Q2121.59 1536.66 2124.11 1536.66 Q2128.51 1536.66 2130.8 1534.92 Q2133.12 1533.18 2133.12 1529.87 Q2133.12 1526.82 2130.96 1525.11 Q2128.83 1523.37 2125.01 1523.37 L2120.99 1523.37 L2120.99 1519.53 L2125.2 1519.53 Q2128.65 1519.53 2130.48 1518.16 Q2132.31 1516.77 2132.31 1514.18 Q2132.31 1511.52 2130.41 1510.11 Q2128.53 1508.67 2125.01 1508.67 Q2123.09 1508.67 2120.89 1509.09 Q2118.7 1509.5 2116.06 1510.38 L2116.06 1506.22 Q2118.72 1505.48 2121.03 1505.11 Q2123.37 1504.73 2125.43 1504.73 Q2130.76 1504.73 2133.86 1507.17 Q2136.96 1509.57 2136.96 1513.69 Q2136.96 1516.56 2135.32 1518.55 Q2133.67 1520.52 2130.64 1521.29 Z" fill="#000000" fill-rule="evenodd" fill-opacity="1" /><path clip-path="url(#clip980)" d="M 0 0 M62.9921 1346.49 L75.4689 1346.49 L75.4689 1350.28 L62.9921 1350.28 L62.9921 1346.49 Z" fill="#000000" fill-rule="evenodd" fill-opacity="1" /><path clip-path="url(#clip980)" d="M 0 0 M94.7049 1342.74 Q98.0614 1343.46 99.9364 1345.72 Q101.835 1347.99 101.835 1351.33 Q101.835 1356.44 98.316 1359.24 Q94.7975 1362.04 88.3161 1362.04 Q86.1402 1362.04 83.8253 1361.6 Q81.5337 1361.19 79.08 1360.33 L79.08 1355.82 Q81.0244 1356.95 83.3392 1357.53 Q85.654 1358.11 88.1772 1358.11 Q92.5753 1358.11 94.867 1356.37 Q97.1818 1354.64 97.1818 1351.33 Q97.1818 1348.27 95.029 1346.56 Q92.8994 1344.82 89.0799 1344.82 L85.0522 1344.82 L85.0522 1340.98 L89.2651 1340.98 Q92.7142 1340.98 94.5429 1339.61 Q96.3716 1338.22 96.3716 1335.63 Q96.3716 1332.97 94.4734 1331.56 Q92.5984 1330.12 89.0799 1330.12 Q87.1587 1330.12 84.9596 1330.54 Q82.7605 1330.96 80.1217 1331.83 L80.1217 1327.67 Q82.7837 1326.93 85.0985 1326.56 Q87.4364 1326.19 89.4966 1326.19 Q94.8207 1326.19 97.9225 1328.62 Q101.024 1331.02 101.024 1335.14 Q101.024 1338.02 99.3808 1340.01 Q97.7373 1341.97 94.7049 1342.74 Z" fill="#000000" fill-rule="evenodd" fill-opacity="1" /><path clip-path="url(#clip980)" d="M 0 0 M63.9412 1136.06 L76.418 1136.06 L76.418 1139.86 L63.9412 1139.86 L63.9412 1136.06 Z" fill="#000000" fill-rule="evenodd" fill-opacity="1" /><path clip-path="url(#clip980)" d="M 0 0 M85.5152 1147.01 L101.835 1147.01 L101.835 1150.95 L79.8902 1150.95 L79.8902 1147.01 Q82.5522 1144.26 87.1355 1139.63 Q91.742 1134.97 92.9225 1133.63 Q95.1679 1131.11 96.0475 1129.37 Q96.9503 1127.61 96.9503 1125.92 Q96.9503 1123.17 95.0058 1121.43 Q93.0846 1119.7 89.9827 1119.7 Q87.7837 1119.7 85.33 1120.46 Q82.8994 1121.22 80.1217 1122.77 L80.1217 1118.05 Q82.9457 1116.92 85.3994 1116.34 Q87.8531 1115.76 89.8901 1115.76 Q95.2605 1115.76 98.4549 1118.45 Q101.649 1121.13 101.649 1125.62 Q101.649 1127.75 100.839 1129.67 Q100.052 1131.57 97.9456 1134.16 Q97.3669 1134.83 94.2651 1138.05 Q91.1633 1141.25 85.5152 1147.01 Z" fill="#000000" fill-rule="evenodd" fill-opacity="1" /><path clip-path="url(#clip980)" d="M 0 0 M63.5708 925.636 L76.0476 925.636 L76.0476 929.432 L63.5708 929.432 L63.5708 925.636 Z" fill="#000000" fill-rule="evenodd" fill-opacity="1" /><path clip-path="url(#clip980)" d="M 0 0 M81.9272 936.585 L89.5661 936.585 L89.5661 910.219 L81.2559 911.886 L81.2559 907.627 L89.5198 905.96 L94.1957 905.96 L94.1957 936.585 L101.835 936.585 L101.835 940.52 L81.9272 940.52 L81.9272 936.585 Z" fill="#000000" fill-rule="evenodd" fill-opacity="1" /><path clip-path="url(#clip980)" d="M 0 0 M89.8901 698.613 Q86.279 698.613 84.4503 702.178 Q82.6448 705.719 82.6448 712.849 Q82.6448 719.955 84.4503 723.52 Q86.279 727.062 89.8901 727.062 Q93.5244 727.062 95.3299 723.52 Q97.1586 719.955 97.1586 712.849 Q97.1586 705.719 95.3299 702.178 Q93.5244 698.613 89.8901 698.613 M89.8901 694.909 Q95.7003 694.909 98.7558 699.516 Q101.835 704.099 101.835 712.849 Q101.835 721.576 98.7558 726.182 Q95.7003 730.766 89.8901 730.766 Q84.08 730.766 81.0013 726.182 Q77.9457 721.576 77.9457 712.849 Q77.9457 704.099 81.0013 699.516 Q84.08 694.909 89.8901 694.909 Z" fill="#000000" fill-rule="evenodd" fill-opacity="1" /><path clip-path="url(#clip980)" d="M 0 0 M81.9272 515.733 L89.5661 515.733 L89.5661 489.368 L81.2559 491.034 L81.2559 486.775 L89.5198 485.108 L94.1957 485.108 L94.1957 515.733 L101.835 515.733 L101.835 519.668 L81.9272 519.668 L81.9272 515.733 Z" fill="#000000" fill-rule="evenodd" fill-opacity="1" /><path clip-path="url(#clip980)" d="M 0 0 M85.5152 305.307 L101.835 305.307 L101.835 309.243 L79.8902 309.243 L79.8902 305.307 Q82.5522 302.553 87.1355 297.923 Q91.742 293.271 92.9225 291.928 Q95.1679 289.405 96.0475 287.669 Q96.9503 285.909 96.9503 284.22 Q96.9503 281.465 95.0058 279.729 Q93.0846 277.993 89.9827 277.993 Q87.7837 277.993 85.33 278.757 Q82.8994 279.521 80.1217 281.072 L80.1217 276.349 Q82.9457 275.215 85.3994 274.636 Q87.8531 274.058 89.8901 274.058 Q95.2605 274.058 98.4549 276.743 Q101.649 279.428 101.649 283.919 Q101.649 286.048 100.839 287.97 Q100.052 289.868 97.9456 292.46 Q97.3669 293.132 94.2651 296.349 Q91.1633 299.544 85.5152 305.307 Z" fill="#000000" fill-rule="evenodd" fill-opacity="1" /><path clip-path="url(#clip980)" d="M 0 0 M422.3 8.64 L447.126 8.64 L447.126 13.559 L428.145 13.559 L428.145 26.2904 L445.275 26.2904 L445.275 31.2093 L428.145 31.2093 L428.145 51.84 L422.3 51.84 L422.3 8.64 Z" fill="#000000" fill-rule="evenodd" fill-opacity="1" /><path clip-path="url(#clip980)" d="M 0 0 M448.4 19.4328 L453.724 19.4328 L453.724 51.84 L448.4 51.84 L448.4 19.4328 M448.4 6.81709 L453.724 6.81709 L453.724 13.559 L448.4 13.559 L448.4 6.81709 Z" fill="#000000" fill-rule="evenodd" fill-opacity="1" /><path clip-path="url(#clip980)" d="M 0 0 M480.633 35.2602 Q480.633 29.4732 478.232 26.2904 Q475.859 23.1075 471.548 23.1075 Q467.265 23.1075 464.864 26.2904 Q462.491 29.4732 462.491 35.2602 Q462.491 41.0183 464.864 44.2012 Q467.265 47.384 471.548 47.384 Q475.859 47.384 478.232 44.2012 Q480.633 41.0183 480.633 35.2602 M485.957 47.818 Q485.957 56.0934 482.282 60.1154 Q478.608 64.1663 471.027 64.1663 Q468.22 64.1663 465.732 63.7323 Q463.243 63.3272 460.899 62.4592 L460.899 57.2798 Q463.243 58.5529 465.529 59.1606 Q467.815 59.7682 470.188 59.7682 Q475.425 59.7682 478.029 57.0194 Q480.633 54.2995 480.633 48.7729 L480.633 46.1398 Q478.984 49.0044 476.409 50.4222 Q473.833 51.84 470.246 51.84 Q464.285 51.84 460.639 47.2972 Q456.993 42.7544 456.993 35.2602 Q456.993 27.7371 460.639 23.1943 Q464.285 18.6515 470.246 18.6515 Q473.833 18.6515 476.409 20.0693 Q478.984 21.4872 480.633 24.3517 L480.633 19.4328 L485.957 19.4328 L485.957 47.818 Z" fill="#000000" fill-rule="evenodd" fill-opacity="1" /><path clip-path="url(#clip980)" d="M 0 0 M490.992 39.0507 L490.992 19.4328 L496.316 19.4328 L496.316 38.8482 Q496.316 43.4488 498.11 45.7636 Q499.904 48.0495 503.492 48.0495 Q507.803 48.0495 510.292 45.3007 Q512.809 42.5519 512.809 37.8065 L512.809 19.4328 L518.133 19.4328 L518.133 51.84 L512.809 51.84 L512.809 46.8632 Q510.87 49.8145 508.295 51.2613 Q505.749 52.6791 502.363 52.6791 Q496.779 52.6791 493.885 49.2069 Q490.992 45.7347 490.992 39.0507 M504.389 18.6515 L504.389 18.6515 Z" fill="#000000" fill-rule="evenodd" fill-opacity="1" /><path clip-path="url(#clip980)" d="M 0 0 M542.496 24.4096 Q541.599 23.8888 540.529 23.6573 Q539.487 23.3969 538.214 23.3969 Q533.7 23.3969 531.269 26.3482 Q528.868 29.2707 528.868 34.7683 L528.868 51.84 L523.515 51.84 L523.515 19.4328 L528.868 19.4328 L528.868 24.4675 Q530.546 21.5161 533.237 20.0983 Q535.928 18.6515 539.776 18.6515 Q540.326 18.6515 540.992 18.7383 Q541.657 18.7962 542.467 18.9409 L542.496 24.4096 Z" fill="#000000" fill-rule="evenodd" fill-opacity="1" /><path clip-path="url(#clip980)" d="M 0 0 M574.498 34.3054 L574.498 36.9095 L550.019 36.9095 Q550.367 42.4072 553.318 45.3007 Q556.298 48.1653 561.593 48.1653 Q564.661 48.1653 567.525 47.4129 Q570.419 46.6606 573.254 45.156 L573.254 50.1907 Q570.39 51.406 567.38 52.0425 Q564.371 52.6791 561.275 52.6791 Q553.521 52.6791 548.978 48.1653 Q544.464 43.6514 544.464 35.9547 Q544.464 27.9975 548.746 23.339 Q553.058 18.6515 560.349 18.6515 Q566.889 18.6515 570.679 22.876 Q574.498 27.0716 574.498 34.3054 M569.174 32.7429 Q569.117 28.3737 566.715 25.7695 Q564.342 23.1654 560.407 23.1654 Q555.951 23.1654 553.26 25.6827 Q550.598 28.2001 550.193 32.7718 L569.174 32.7429 Z" fill="#000000" fill-rule="evenodd" fill-opacity="1" /><path clip-path="url(#clip980)" d="M 0 0 M604.707 46.921 L625.106 46.921 L625.106 51.84 L597.675 51.84 L597.675 46.921 Q601.003 43.4778 606.732 37.6908 Q612.49 31.8748 613.966 30.1966 Q616.773 27.0427 617.872 24.8726 Q619 22.6735 619 20.5612 Q619 17.118 616.57 14.9478 Q614.168 12.7777 610.291 12.7777 Q607.542 12.7777 604.475 13.7326 Q601.437 14.6874 597.965 16.6261 L597.965 10.7233 Q601.495 9.30551 604.562 8.58213 Q607.629 7.85875 610.175 7.85875 Q616.888 7.85875 620.881 11.2152 Q624.874 14.5717 624.874 20.1851 Q624.874 22.8471 623.862 25.2487 Q622.878 27.6214 620.245 30.8621 Q619.521 31.7012 615.644 35.7232 Q611.767 39.7162 604.707 46.921 Z" fill="#000000" fill-rule="evenodd" fill-opacity="1" /><path clip-path="url(#clip980)" d="M 0 0 M632.05 44.4905 L638.155 44.4905 L638.155 51.84 L632.05 51.84 L632.05 44.4905 M632.05 21.1978 L638.155 21.1978 L638.155 28.5473 L632.05 28.5473 L632.05 21.1978 Z" fill="#000000" fill-rule="evenodd" fill-opacity="1" /><path clip-path="url(#clip980)" d="M 0 0 M662.808 8.64 L670.678 8.64 L689.833 44.7799 L689.833 8.64 L695.505 8.64 L695.505 51.84 L687.634 51.84 L668.479 15.7001 L668.479 51.84 L662.808 51.84 L662.808 8.64 Z" fill="#000000" fill-rule="evenodd" fill-opacity="1" /><path clip-path="url(#clip980)" d="M 0 0 M728.809 34.3054 L728.809 36.9095 L704.33 36.9095 Q704.677 42.4072 707.628 45.3007 Q710.609 48.1653 715.904 48.1653 Q718.971 48.1653 721.836 47.4129 Q724.729 46.6606 727.565 45.156 L727.565 50.1907 Q724.7 51.406 721.691 52.0425 Q718.682 52.6791 715.586 52.6791 Q707.831 52.6791 703.288 48.1653 Q698.774 43.6514 698.774 35.9547 Q698.774 27.9975 703.057 23.339 Q707.368 18.6515 714.66 18.6515 Q721.199 18.6515 724.99 22.876 Q728.809 27.0716 728.809 34.3054 M723.485 32.7429 Q723.427 28.3737 721.025 25.7695 Q718.653 23.1654 714.718 23.1654 Q710.262 23.1654 707.571 25.6827 Q704.909 28.2001 704.504 32.7718 L723.485 32.7429 Z" fill="#000000" fill-rule="evenodd" fill-opacity="1" /><path clip-path="url(#clip980)" d="M 0 0 M731.297 19.4328 L736.621 19.4328 L743.276 44.722 L749.903 19.4328 L756.181 19.4328 L762.837 44.722 L769.463 19.4328 L774.787 19.4328 L766.309 51.84 L760.03 51.84 L753.056 25.2776 L746.054 51.84 L739.775 51.84 L731.297 19.4328 Z" fill="#000000" fill-rule="evenodd" fill-opacity="1" /><path clip-path="url(#clip980)" d="M 0 0 M801.031 20.3876 L801.031 25.4223 Q798.774 24.2649 796.343 23.6862 Q793.913 23.1075 791.309 23.1075 Q787.345 23.1075 785.348 24.3228 Q783.38 25.5381 783.38 27.9686 Q783.38 29.8204 784.798 30.891 Q786.216 31.9327 790.498 32.8876 L792.321 33.2926 Q797.993 34.5079 800.365 36.7359 Q802.767 38.935 802.767 42.8991 Q802.767 47.4129 799.179 50.046 Q795.62 52.6791 789.37 52.6791 Q786.766 52.6791 783.93 52.1583 Q781.123 51.6664 777.998 50.6537 L777.998 45.156 Q780.95 46.6896 783.814 47.4708 Q786.679 48.2231 789.486 48.2231 Q793.247 48.2231 795.273 46.95 Q797.298 45.6479 797.298 43.3042 Q797.298 41.134 795.822 39.9766 Q794.376 38.8192 789.428 37.7486 L787.576 37.3146 Q782.628 36.273 780.429 34.1318 Q778.23 31.9616 778.23 28.2001 Q778.23 23.6283 781.471 21.1399 Q784.711 18.6515 790.672 18.6515 Q793.623 18.6515 796.228 19.0855 Q798.832 19.5196 801.031 20.3876 Z" fill="#000000" fill-rule="evenodd" fill-opacity="1" /><path clip-path="url(#clip980)" d="M 0 0 M805.66 33.2348 L821.256 33.2348 L821.256 37.9801 L805.66 37.9801 L805.66 33.2348 Z" fill="#000000" fill-rule="evenodd" fill-opacity="1" /><path clip-path="url(#clip980)" d="M 0 0 M841.569 35.5496 Q835.116 35.5496 832.628 37.0253 Q830.139 38.501 830.139 42.06 Q830.139 44.8956 831.991 46.5738 Q833.872 48.2231 837.084 48.2231 Q841.511 48.2231 844.173 45.0981 Q846.864 41.9442 846.864 36.7359 L846.864 35.5496 L841.569 35.5496 M852.188 33.3505 L852.188 51.84 L846.864 51.84 L846.864 46.921 Q845.041 49.8724 842.321 51.2902 Q839.601 52.6791 835.666 52.6791 Q830.689 52.6791 827.738 49.9014 Q824.815 47.0947 824.815 42.4072 Q824.815 36.9385 828.461 34.1607 Q832.136 31.3829 839.399 31.3829 L846.864 31.3829 L846.864 30.8621 Q846.864 27.1874 844.433 25.1908 Q842.032 23.1654 837.663 23.1654 Q834.885 23.1654 832.252 23.8309 Q829.619 24.4964 827.188 25.8274 L827.188 20.9085 Q830.11 19.78 832.859 19.2302 Q835.608 18.6515 838.212 18.6515 Q845.244 18.6515 848.716 22.2973 Q852.188 25.9431 852.188 33.3505 Z" fill="#000000" fill-rule="evenodd" fill-opacity="1" /><path clip-path="url(#clip980)" d="M 0 0 M857.223 39.0507 L857.223 19.4328 L862.547 19.4328 L862.547 38.8482 Q862.547 43.4488 864.341 45.7636 Q866.135 48.0495 869.723 48.0495 Q874.034 48.0495 876.522 45.3007 Q879.04 42.5519 879.04 37.8065 L879.04 19.4328 L884.364 19.4328 L884.364 51.84 L879.04 51.84 L879.04 46.8632 Q877.101 49.8145 874.526 51.2613 Q871.979 52.6791 868.594 52.6791 Q863.01 52.6791 860.116 49.2069 Q857.223 45.7347 857.223 39.0507 M870.62 18.6515 L870.62 18.6515 Z" fill="#000000" fill-rule="evenodd" fill-opacity="1" /><path clip-path="url(#clip980)" d="M 0 0 M911.273 35.2602 Q911.273 29.4732 908.872 26.2904 Q906.499 23.1075 902.188 23.1075 Q897.905 23.1075 895.504 26.2904 Q893.131 29.4732 893.131 35.2602 Q893.131 41.0183 895.504 44.2012 Q897.905 47.384 902.188 47.384 Q906.499 47.384 908.872 44.2012 Q911.273 41.0183 911.273 35.2602 M916.597 47.818 Q916.597 56.0934 912.923 60.1154 Q909.248 64.1663 901.667 64.1663 Q898.86 64.1663 896.372 63.7323 Q893.883 63.3272 891.54 62.4592 L891.54 57.2798 Q893.883 58.5529 896.169 59.1606 Q898.455 59.7682 900.828 59.7682 Q906.065 59.7682 908.669 57.0194 Q911.273 54.2995 911.273 48.7729 L911.273 46.1398 Q909.624 49.0044 907.049 50.4222 Q904.474 51.84 900.886 51.84 Q894.925 51.84 891.279 47.2972 Q887.633 42.7544 887.633 35.2602 Q887.633 27.7371 891.279 23.1943 Q894.925 18.6515 900.886 18.6515 Q904.474 18.6515 907.049 20.0693 Q909.624 21.4872 911.273 24.3517 L911.273 19.4328 L916.597 19.4328 L916.597 47.818 Z" fill="#000000" fill-rule="evenodd" fill-opacity="1" /><path clip-path="url(#clip980)" d="M 0 0 M947.413 25.6538 Q949.41 22.0659 952.187 20.3587 Q954.965 18.6515 958.727 18.6515 Q963.79 18.6515 966.539 22.2105 Q969.288 25.7406 969.288 32.2799 L969.288 51.84 L963.935 51.84 L963.935 32.4535 Q963.935 27.795 962.286 25.5381 Q960.636 23.2811 957.251 23.2811 Q953.113 23.2811 950.712 26.03 Q948.31 28.7788 948.31 33.5241 L948.31 51.84 L942.957 51.84 L942.957 32.4535 Q942.957 27.7661 941.308 25.5381 Q939.659 23.2811 936.215 23.2811 Q932.135 23.2811 929.734 26.0589 Q927.332 28.8077 927.332 33.5241 L927.332 51.84 L921.979 51.84 L921.979 19.4328 L927.332 19.4328 L927.332 24.4675 Q929.155 21.4872 931.701 20.0693 Q934.248 18.6515 937.749 18.6515 Q941.279 18.6515 943.738 20.4455 Q946.227 22.2395 947.413 25.6538 Z" fill="#000000" fill-rule="evenodd" fill-opacity="1" /><path clip-path="url(#clip980)" d="M 0 0 M1002.59 34.3054 L1002.59 36.9095 L978.113 36.9095 Q978.46 42.4072 981.412 45.3007 Q984.392 48.1653 989.687 48.1653 Q992.754 48.1653 995.619 47.4129 Q998.512 46.6606 1001.35 45.156 L1001.35 50.1907 Q998.483 51.406 995.474 52.0425 Q992.465 52.6791 989.369 52.6791 Q981.614 52.6791 977.071 48.1653 Q972.558 43.6514 972.558 35.9547 Q972.558 27.9975 976.84 23.339 Q981.151 18.6515 988.443 18.6515 Q994.982 18.6515 998.773 22.876 Q1002.59 27.0716 1002.59 34.3054 M997.268 32.7429 Q997.21 28.3737 994.809 25.7695 Q992.436 23.1654 988.501 23.1654 Q984.045 23.1654 981.354 25.6827 Q978.692 28.2001 978.287 32.7718 L997.268 32.7429 Z" fill="#000000" fill-rule="evenodd" fill-opacity="1" /><path clip-path="url(#clip980)" d="M 0 0 M1035.12 32.2799 L1035.12 51.84 L1029.79 51.84 L1029.79 32.4535 Q1029.79 27.8529 1028 25.567 Q1026.2 23.2811 1022.62 23.2811 Q1018.3 23.2811 1015.82 26.03 Q1013.33 28.7788 1013.33 33.5241 L1013.33 51.84 L1007.97 51.84 L1007.97 19.4328 L1013.33 19.4328 L1013.33 24.4675 Q1015.24 21.545 1017.81 20.0983 Q1020.42 18.6515 1023.8 18.6515 Q1029.39 18.6515 1032.25 22.1237 Q1035.12 25.567 1035.12 32.2799 Z" fill="#000000" fill-rule="evenodd" fill-opacity="1" /><path clip-path="url(#clip980)" d="M 0 0 M1045.97 10.2314 L1045.97 19.4328 L1056.93 19.4328 L1056.93 23.5705 L1045.97 23.5705 L1045.97 41.163 Q1045.97 45.1271 1047.04 46.2555 Q1048.14 47.384 1051.46 47.384 L1056.93 47.384 L1056.93 51.84 L1051.46 51.84 Q1045.3 51.84 1042.96 49.5541 Q1040.61 47.2393 1040.61 41.163 L1040.61 23.5705 L1036.71 23.5705 L1036.71 19.4328 L1040.61 19.4328 L1040.61 10.2314 L1045.97 10.2314 Z" fill="#000000" fill-rule="evenodd" fill-opacity="1" /><path clip-path="url(#clip980)" d="M 0 0 M1090.24 34.3054 L1090.24 36.9095 L1065.76 36.9095 Q1066.1 42.4072 1069.06 45.3007 Q1072.04 48.1653 1077.33 48.1653 Q1080.4 48.1653 1083.26 47.4129 Q1086.16 46.6606 1088.99 45.156 L1088.99 50.1907 Q1086.13 51.406 1083.12 52.0425 Q1080.11 52.6791 1077.01 52.6791 Q1069.26 52.6791 1064.72 48.1653 Q1060.2 43.6514 1060.2 35.9547 Q1060.2 27.9975 1064.48 23.339 Q1068.8 18.6515 1076.09 18.6515 Q1082.63 18.6515 1086.42 22.876 Q1090.24 27.0716 1090.24 34.3054 M1084.91 32.7429 Q1084.85 28.3737 1082.45 25.7695 Q1080.08 23.1654 1076.15 23.1654 Q1071.69 23.1654 1069 25.6827 Q1066.34 28.2001 1065.93 32.7718 L1084.91 32.7429 Z" fill="#000000" fill-rule="evenodd" fill-opacity="1" /><path clip-path="url(#clip980)" d="M 0 0 M1117.15 24.3517 L1117.15 6.81709 L1122.47 6.81709 L1122.47 51.84 L1117.15 51.84 L1117.15 46.9789 Q1115.47 49.8724 1112.89 51.2902 Q1110.35 52.6791 1106.76 52.6791 Q1100.88 52.6791 1097.18 47.9916 Q1093.51 43.3042 1093.51 35.6653 Q1093.51 28.0265 1097.18 23.339 Q1100.88 18.6515 1106.76 18.6515 Q1110.35 18.6515 1112.89 20.0693 Q1115.47 21.4582 1117.15 24.3517 M1099 35.6653 Q1099 41.5391 1101.41 44.8956 Q1103.84 48.2231 1108.06 48.2231 Q1112.28 48.2231 1114.72 44.8956 Q1117.15 41.5391 1117.15 35.6653 Q1117.15 29.7915 1114.72 26.464 Q1112.28 23.1075 1108.06 23.1075 Q1103.84 23.1075 1101.41 26.464 Q1099 29.7915 1099 35.6653 Z" fill="#000000" fill-rule="evenodd" fill-opacity="1" /><path clip-path="url(#clip980)" d="M 0 0 M1170.21 20.677 L1170.21 25.6538 Q1167.96 24.4096 1165.67 23.802 Q1163.41 23.1654 1161.1 23.1654 Q1155.92 23.1654 1153.05 26.464 Q1150.19 29.7336 1150.19 35.6653 Q1150.19 41.597 1153.05 44.8956 Q1155.92 48.1653 1161.1 48.1653 Q1163.41 48.1653 1165.67 47.5576 Q1167.96 46.921 1170.21 45.6768 L1170.21 50.5958 Q1167.98 51.6375 1165.58 52.1583 Q1163.21 52.6791 1160.52 52.6791 Q1153.2 52.6791 1148.89 48.0784 Q1144.58 43.4778 1144.58 35.6653 Q1144.58 27.7371 1148.92 23.1943 Q1153.29 18.6515 1160.87 18.6515 Q1163.33 18.6515 1165.67 19.1724 Q1168.01 19.6642 1170.21 20.677 Z" fill="#000000" fill-rule="evenodd" fill-opacity="1" /><path clip-path="url(#clip980)" d="M 0 0 M1188.36 23.1654 Q1184.07 23.1654 1181.58 26.5218 Q1179.1 29.8494 1179.1 35.6653 Q1179.1 41.4813 1181.56 44.8377 Q1184.04 48.1653 1188.36 48.1653 Q1192.61 48.1653 1195.1 44.8088 Q1197.59 41.4523 1197.59 35.6653 Q1197.59 29.9072 1195.1 26.5508 Q1192.61 23.1654 1188.36 23.1654 M1188.36 18.6515 Q1195.3 18.6515 1199.26 23.1654 Q1203.23 27.6792 1203.23 35.6653 Q1203.23 43.6225 1199.26 48.1653 Q1195.3 52.6791 1188.36 52.6791 Q1181.38 52.6791 1177.42 48.1653 Q1173.48 43.6225 1173.48 35.6653 Q1173.48 27.6792 1177.42 23.1654 Q1181.38 18.6515 1188.36 18.6515 Z" fill="#000000" fill-rule="evenodd" fill-opacity="1" /><path clip-path="url(#clip980)" d="M 0 0 M1234.04 25.6538 Q1236.04 22.0659 1238.82 20.3587 Q1241.6 18.6515 1245.36 18.6515 Q1250.42 18.6515 1253.17 22.2105 Q1255.92 25.7406 1255.92 32.2799 L1255.92 51.84 L1250.57 51.84 L1250.57 32.4535 Q1250.57 27.795 1248.92 25.5381 Q1247.27 23.2811 1243.88 23.2811 Q1239.74 23.2811 1237.34 26.03 Q1234.94 28.7788 1234.94 33.5241 L1234.94 51.84 L1229.59 51.84 L1229.59 32.4535 Q1229.59 27.7661 1227.94 25.5381 Q1226.29 23.2811 1222.85 23.2811 Q1218.77 23.2811 1216.36 26.0589 Q1213.96 28.8077 1213.96 33.5241 L1213.96 51.84 L1208.61 51.84 L1208.61 19.4328 L1213.96 19.4328 L1213.96 24.4675 Q1215.79 21.4872 1218.33 20.0693 Q1220.88 18.6515 1224.38 18.6515 Q1227.91 18.6515 1230.37 20.4455 Q1232.86 22.2395 1234.04 25.6538 Z" fill="#000000" fill-rule="evenodd" fill-opacity="1" /><path clip-path="url(#clip980)" d="M 0 0 M1286.73 25.6538 Q1288.73 22.0659 1291.51 20.3587 Q1294.29 18.6515 1298.05 18.6515 Q1303.11 18.6515 1305.86 22.2105 Q1308.61 25.7406 1308.61 32.2799 L1308.61 51.84 L1303.26 51.84 L1303.26 32.4535 Q1303.26 27.795 1301.61 25.5381 Q1299.96 23.2811 1296.57 23.2811 Q1292.43 23.2811 1290.03 26.03 Q1287.63 28.7788 1287.63 33.5241 L1287.63 51.84 L1282.28 51.84 L1282.28 32.4535 Q1282.28 27.7661 1280.63 25.5381 Q1278.98 23.2811 1275.54 23.2811 Q1271.46 23.2811 1269.05 26.0589 Q1266.65 28.8077 1266.65 33.5241 L1266.65 51.84 L1261.3 51.84 L1261.3 19.4328 L1266.65 19.4328 L1266.65 24.4675 Q1268.48 21.4872 1271.02 20.0693 Q1273.57 18.6515 1277.07 18.6515 Q1280.6 18.6515 1283.06 20.4455 Q1285.55 22.2395 1286.73 25.6538 Z" fill="#000000" fill-rule="evenodd" fill-opacity="1" /><path clip-path="url(#clip980)" d="M 0 0 M1326.75 23.1654 Q1322.47 23.1654 1319.98 26.5218 Q1317.49 29.8494 1317.49 35.6653 Q1317.49 41.4813 1319.95 44.8377 Q1322.44 48.1653 1326.75 48.1653 Q1331 48.1653 1333.49 44.8088 Q1335.98 41.4523 1335.98 35.6653 Q1335.98 29.9072 1333.49 26.5508 Q1331 23.1654 1326.75 23.1654 M1326.75 18.6515 Q1333.7 18.6515 1337.66 23.1654 Q1341.62 27.6792 1341.62 35.6653 Q1341.62 43.6225 1337.66 48.1653 Q1333.7 52.6791 1326.75 52.6791 Q1319.78 52.6791 1315.81 48.1653 Q1311.88 43.6225 1311.88 35.6653 Q1311.88 27.6792 1315.81 23.1654 Q1319.78 18.6515 1326.75 18.6515 Z" fill="#000000" fill-rule="evenodd" fill-opacity="1" /><path clip-path="url(#clip980)" d="M 0 0 M1368.53 24.3517 L1368.53 6.81709 L1373.86 6.81709 L1373.86 51.84 L1368.53 51.84 L1368.53 46.9789 Q1366.86 49.8724 1364.28 51.2902 Q1361.73 52.6791 1358.15 52.6791 Q1352.27 52.6791 1348.57 47.9916 Q1344.89 43.3042 1344.89 35.6653 Q1344.89 28.0265 1348.57 23.339 Q1352.27 18.6515 1358.15 18.6515 Q1361.73 18.6515 1364.28 20.0693 Q1366.86 21.4582 1368.53 24.3517 M1350.39 35.6653 Q1350.39 41.5391 1352.79 44.8956 Q1355.22 48.2231 1359.45 48.2231 Q1363.67 48.2231 1366.1 44.8956 Q1368.53 41.5391 1368.53 35.6653 Q1368.53 29.7915 1366.1 26.464 Q1363.67 23.1075 1359.45 23.1075 Q1355.22 23.1075 1352.79 26.464 Q1350.39 29.7915 1350.39 35.6653 Z" fill="#000000" fill-rule="evenodd" fill-opacity="1" /><path clip-path="url(#clip980)" d="M 0 0 M1379.44 19.4328 L1384.77 19.4328 L1384.77 51.84 L1379.44 51.84 L1379.44 19.4328 M1379.44 6.81709 L1384.77 6.81709 L1384.77 13.559 L1379.44 13.559 L1379.44 6.81709 Z" fill="#000000" fill-rule="evenodd" fill-opacity="1" /><path clip-path="url(#clip980)" d="M 0 0 M1395.62 10.2314 L1395.62 19.4328 L1406.58 19.4328 L1406.58 23.5705 L1395.62 23.5705 L1395.62 41.163 Q1395.62 45.1271 1396.69 46.2555 Q1397.79 47.384 1401.11 47.384 L1406.58 47.384 L1406.58 51.84 L1401.11 51.84 Q1394.95 51.84 1392.61 49.5541 Q1390.26 47.2393 1390.26 41.163 L1390.26 23.5705 L1386.36 23.5705 L1386.36 19.4328 L1390.26 19.4328 L1390.26 10.2314 L1395.62 10.2314 Z" fill="#000000" fill-rule="evenodd" fill-opacity="1" /><path clip-path="url(#clip980)" d="M 0 0 M1425.65 54.8492 Q1423.39 60.6362 1421.25 62.4013 Q1419.11 64.1663 1415.52 64.1663 L1411.27 64.1663 L1411.27 59.7103 L1414.4 59.7103 Q1416.59 59.7103 1417.81 58.6687 Q1419.03 57.627 1420.5 53.7497 L1421.46 51.3192 L1408.35 19.4328 L1413.99 19.4328 L1424.12 44.7799 L1434.24 19.4328 L1439.89 19.4328 L1425.65 54.8492 Z" fill="#000000" fill-rule="evenodd" fill-opacity="1" /><path clip-path="url(#clip980)" d="M 0 0 M1484.97 20.3876 L1484.97 25.4223 Q1482.71 24.2649 1480.28 23.6862 Q1477.85 23.1075 1475.25 23.1075 Q1471.28 23.1075 1469.29 24.3228 Q1467.32 25.5381 1467.32 27.9686 Q1467.32 29.8204 1468.74 30.891 Q1470.15 31.9327 1474.44 32.8876 L1476.26 33.2926 Q1481.93 34.5079 1484.3 36.7359 Q1486.7 38.935 1486.7 42.8991 Q1486.7 47.4129 1483.12 50.046 Q1479.56 52.6791 1473.31 52.6791 Q1470.7 52.6791 1467.87 52.1583 Q1465.06 51.6664 1461.94 50.6537 L1461.94 45.156 Q1464.89 46.6896 1467.75 47.4708 Q1470.62 48.2231 1473.42 48.2231 Q1477.18 48.2231 1479.21 46.95 Q1481.24 45.6479 1481.24 43.3042 Q1481.24 41.134 1479.76 39.9766 Q1478.31 38.8192 1473.37 37.7486 L1471.51 37.3146 Q1466.57 36.273 1464.37 34.1318 Q1462.17 31.9616 1462.17 28.2001 Q1462.17 23.6283 1465.41 21.1399 Q1468.65 18.6515 1474.61 18.6515 Q1477.56 18.6515 1480.16 19.0855 Q1482.77 19.5196 1484.97 20.3876 Z" fill="#000000" fill-rule="evenodd" fill-opacity="1" /><path clip-path="url(#clip980)" d="M 0 0 M1519.23 32.2799 L1519.23 51.84 L1513.9 51.84 L1513.9 32.4535 Q1513.9 27.8529 1512.11 25.567 Q1510.32 23.2811 1506.73 23.2811 Q1502.42 23.2811 1499.93 26.03 Q1497.44 28.7788 1497.44 33.5241 L1497.44 51.84 L1492.09 51.84 L1492.09 6.81709 L1497.44 6.81709 L1497.44 24.4675 Q1499.35 21.545 1501.92 20.0983 Q1504.53 18.6515 1507.91 18.6515 Q1513.5 18.6515 1516.36 22.1237 Q1519.23 25.567 1519.23 32.2799 Z" fill="#000000" fill-rule="evenodd" fill-opacity="1" /><path clip-path="url(#clip980)" d="M 0 0 M1537.37 23.1654 Q1533.09 23.1654 1530.6 26.5218 Q1528.11 29.8494 1528.11 35.6653 Q1528.11 41.4813 1530.57 44.8377 Q1533.06 48.1653 1537.37 48.1653 Q1541.62 48.1653 1544.11 44.8088 Q1546.6 41.4523 1546.6 35.6653 Q1546.6 29.9072 1544.11 26.5508 Q1541.62 23.1654 1537.37 23.1654 M1537.37 18.6515 Q1544.31 18.6515 1548.28 23.1654 Q1552.24 27.6792 1552.24 35.6653 Q1552.24 43.6225 1548.28 48.1653 Q1544.31 52.6791 1537.37 52.6791 Q1530.4 52.6791 1526.43 48.1653 Q1522.5 43.6225 1522.5 35.6653 Q1522.5 27.6792 1526.43 23.1654 Q1530.4 18.6515 1537.37 18.6515 Z" fill="#000000" fill-rule="evenodd" fill-opacity="1" /><path clip-path="url(#clip980)" d="M 0 0 M1581.15 20.677 L1581.15 25.6538 Q1578.89 24.4096 1576.61 23.802 Q1574.35 23.1654 1572.03 23.1654 Q1566.85 23.1654 1563.99 26.464 Q1561.13 29.7336 1561.13 35.6653 Q1561.13 41.597 1563.99 44.8956 Q1566.85 48.1653 1572.03 48.1653 Q1574.35 48.1653 1576.61 47.5576 Q1578.89 46.921 1581.15 45.6768 L1581.15 50.5958 Q1578.92 51.6375 1576.52 52.1583 Q1574.15 52.6791 1571.45 52.6791 Q1564.13 52.6791 1559.82 48.0784 Q1555.51 43.4778 1555.51 35.6653 Q1555.51 27.7371 1559.85 23.1943 Q1564.22 18.6515 1571.8 18.6515 Q1574.26 18.6515 1576.61 19.1724 Q1578.95 19.6642 1581.15 20.677 Z" fill="#000000" fill-rule="evenodd" fill-opacity="1" /><path clip-path="url(#clip980)" d="M 0 0 M1586.53 6.81709 L1591.88 6.81709 L1591.88 33.4084 L1607.77 19.4328 L1614.57 19.4328 L1597.38 34.5947 L1615.29 51.84 L1608.35 51.84 L1591.88 36.0125 L1591.88 51.84 L1586.53 51.84 L1586.53 6.81709 Z" fill="#000000" fill-rule="evenodd" fill-opacity="1" /><path clip-path="url(#clip980)" d="M 0 0 M1641.54 20.3876 L1641.54 25.4223 Q1639.28 24.2649 1636.85 23.6862 Q1634.42 23.1075 1631.81 23.1075 Q1627.85 23.1075 1625.85 24.3228 Q1623.89 25.5381 1623.89 27.9686 Q1623.89 29.8204 1625.3 30.891 Q1626.72 31.9327 1631 32.8876 L1632.83 33.2926 Q1638.5 34.5079 1640.87 36.7359 Q1643.27 38.935 1643.27 42.8991 Q1643.27 47.4129 1639.68 50.046 Q1636.12 52.6791 1629.87 52.6791 Q1627.27 52.6791 1624.43 52.1583 Q1621.63 51.6664 1618.5 50.6537 L1618.5 45.156 Q1621.45 46.6896 1624.32 47.4708 Q1627.18 48.2231 1629.99 48.2231 Q1633.75 48.2231 1635.78 46.95 Q1637.8 45.6479 1637.8 43.3042 Q1637.8 41.134 1636.33 39.9766 Q1634.88 38.8192 1629.93 37.7486 L1628.08 37.3146 Q1623.13 36.273 1620.93 34.1318 Q1618.73 31.9616 1618.73 28.2001 Q1618.73 23.6283 1621.98 21.1399 Q1625.22 18.6515 1631.18 18.6515 Q1634.13 18.6515 1636.73 19.0855 Q1639.34 19.5196 1641.54 20.3876 Z" fill="#000000" fill-rule="evenodd" fill-opacity="1" /><path clip-path="url(#clip980)" d="M 0 0 M1663.87 19.4328 L1669.52 19.4328 L1679.64 46.6317 L1689.77 19.4328 L1695.41 19.4328 L1683.26 51.84 L1676.03 51.84 L1663.87 19.4328 Z" fill="#000000" fill-rule="evenodd" fill-opacity="1" /><path clip-path="url(#clip980)" d="M 0 0 M1721.66 20.3876 L1721.66 25.4223 Q1719.4 24.2649 1716.97 23.6862 Q1714.54 23.1075 1711.93 23.1075 Q1707.97 23.1075 1705.97 24.3228 Q1704.01 25.5381 1704.01 27.9686 Q1704.01 29.8204 1705.42 30.891 Q1706.84 31.9327 1711.12 32.8876 L1712.95 33.2926 Q1718.62 34.5079 1720.99 36.7359 Q1723.39 38.935 1723.39 42.8991 Q1723.39 47.4129 1719.8 50.046 Q1716.25 52.6791 1710 52.6791 Q1707.39 52.6791 1704.56 52.1583 Q1701.75 51.6664 1698.62 50.6537 L1698.62 45.156 Q1701.58 46.6896 1704.44 47.4708 Q1707.3 48.2231 1710.11 48.2231 Q1713.87 48.2231 1715.9 46.95 Q1717.92 45.6479 1717.92 43.3042 Q1717.92 41.134 1716.45 39.9766 Q1715 38.8192 1710.05 37.7486 L1708.2 37.3146 Q1703.25 36.273 1701.05 34.1318 Q1698.86 31.9616 1698.86 28.2001 Q1698.86 23.6283 1702.1 21.1399 Q1705.34 18.6515 1711.3 18.6515 Q1714.25 18.6515 1716.85 19.0855 Q1719.46 19.5196 1721.66 20.3876 Z" fill="#000000" fill-rule="evenodd" fill-opacity="1" /><path clip-path="url(#clip980)" d="M 0 0 M1777.5 45.6768 L1777.5 34.0739 L1767.95 34.0739 L1767.95 29.2707 L1783.29 29.2707 L1783.29 47.818 Q1779.9 50.2196 1775.82 51.4638 Q1771.74 52.6791 1767.11 52.6791 Q1756.99 52.6791 1751.26 46.7764 Q1745.56 40.8447 1745.56 30.2834 Q1745.56 19.6932 1751.26 13.7904 Q1756.99 7.85875 1767.11 7.85875 Q1771.34 7.85875 1775.13 8.90042 Q1778.95 9.94208 1782.16 11.9675 L1782.16 18.1886 Q1778.92 15.4397 1775.27 14.0509 Q1771.63 12.662 1767.61 12.662 Q1759.68 12.662 1755.68 17.089 Q1751.72 21.5161 1751.72 30.2834 Q1751.72 39.0218 1755.68 43.4488 Q1759.68 47.8759 1767.61 47.8759 Q1770.7 47.8759 1773.13 47.3551 Q1775.56 46.8053 1777.5 45.6768 Z" fill="#000000" fill-rule="evenodd" fill-opacity="1" /><path clip-path="url(#clip980)" d="M 0 0 M1794.66 46.921 L1815.06 46.921 L1815.06 51.84 L1787.63 51.84 L1787.63 46.921 Q1790.96 43.4778 1796.69 37.6908 Q1802.44 31.8748 1803.92 30.1966 Q1806.73 27.0427 1807.83 24.8726 Q1808.95 22.6735 1808.95 20.5612 Q1808.95 17.118 1806.52 14.9478 Q1804.12 12.7777 1800.24 12.7777 Q1797.5 12.7777 1794.43 13.7326 Q1791.39 14.6874 1787.92 16.6261 L1787.92 10.7233 Q1791.45 9.30551 1794.52 8.58213 Q1797.58 7.85875 1800.13 7.85875 Q1806.84 7.85875 1810.83 11.2152 Q1814.83 14.5717 1814.83 20.1851 Q1814.83 22.8471 1813.81 25.2487 Q1812.83 27.6214 1810.2 30.8621 Q1809.47 31.7012 1805.6 35.7232 Q1801.72 39.7162 1794.66 46.921 Z" fill="#000000" fill-rule="evenodd" fill-opacity="1" /><path clip-path="url(#clip980)" d="M 0 0 M1833.9 12.4884 Q1829.38 12.4884 1827.1 16.9444 Q1824.84 21.3714 1824.84 30.2834 Q1824.84 39.1665 1827.1 43.6225 Q1829.38 48.0495 1833.9 48.0495 Q1838.44 48.0495 1840.7 43.6225 Q1842.98 39.1665 1842.98 30.2834 Q1842.98 21.3714 1840.7 16.9444 Q1838.44 12.4884 1833.9 12.4884 M1833.9 7.85875 Q1841.16 7.85875 1844.98 13.6168 Q1848.83 19.346 1848.83 30.2834 Q1848.83 41.1919 1844.98 46.95 Q1841.16 52.6791 1833.9 52.6791 Q1826.63 52.6791 1822.78 46.95 Q1818.97 41.1919 1818.97 30.2834 Q1818.97 19.346 1822.78 13.6168 Q1826.63 7.85875 1833.9 7.85875 Z" fill="#000000" fill-rule="evenodd" fill-opacity="1" /><path clip-path="url(#clip980)" d="M 0 0 M1894.57 35.2602 Q1894.57 29.4732 1892.17 26.2904 Q1889.8 23.1075 1885.49 23.1075 Q1881.2 23.1075 1878.8 26.2904 Q1876.43 29.4732 1876.43 35.2602 Q1876.43 41.0183 1878.8 44.2012 Q1881.2 47.384 1885.49 47.384 Q1889.8 47.384 1892.17 44.2012 Q1894.57 41.0183 1894.57 35.2602 M1899.9 47.818 Q1899.9 56.0934 1896.22 60.1154 Q1892.55 64.1663 1884.97 64.1663 Q1882.16 64.1663 1879.67 63.7323 Q1877.18 63.3272 1874.84 62.4592 L1874.84 57.2798 Q1877.18 58.5529 1879.47 59.1606 Q1881.75 59.7682 1884.13 59.7682 Q1889.36 59.7682 1891.97 57.0194 Q1894.57 54.2995 1894.57 48.7729 L1894.57 46.1398 Q1892.92 49.0044 1890.35 50.4222 Q1887.77 51.84 1884.18 51.84 Q1878.22 51.84 1874.58 47.2972 Q1870.93 42.7544 1870.93 35.2602 Q1870.93 27.7371 1874.58 23.1943 Q1878.22 18.6515 1884.18 18.6515 Q1887.77 18.6515 1890.35 20.0693 Q1892.92 21.4872 1894.57 24.3517 L1894.57 19.4328 L1899.9 19.4328 L1899.9 47.818 Z" fill="#000000" fill-rule="evenodd" fill-opacity="1" /><path clip-path="url(#clip980)" d="M 0 0 M1924.26 24.4096 Q1923.36 23.8888 1922.29 23.6573 Q1921.25 23.3969 1919.98 23.3969 Q1915.46 23.3969 1913.03 26.3482 Q1910.63 29.2707 1910.63 34.7683 L1910.63 51.84 L1905.28 51.84 L1905.28 19.4328 L1910.63 19.4328 L1910.63 24.4675 Q1912.31 21.5161 1915 20.0983 Q1917.69 18.6515 1921.54 18.6515 Q1922.09 18.6515 1922.76 18.7383 Q1923.42 18.7962 1924.23 18.9409 L1924.26 24.4096 Z" fill="#000000" fill-rule="evenodd" fill-opacity="1" /><path clip-path="url(#clip980)" d="M 0 0 M1941.1 23.1654 Q1936.82 23.1654 1934.33 26.5218 Q1931.84 29.8494 1931.84 35.6653 Q1931.84 41.4813 1934.3 44.8377 Q1936.79 48.1653 1941.1 48.1653 Q1945.35 48.1653 1947.84 44.8088 Q1950.33 41.4523 1950.33 35.6653 Q1950.33 29.9072 1947.84 26.5508 Q1945.35 23.1654 1941.1 23.1654 M1941.1 18.6515 Q1948.04 18.6515 1952.01 23.1654 Q1955.97 27.6792 1955.97 35.6653 Q1955.97 43.6225 1952.01 48.1653 Q1948.04 52.6791 1941.1 52.6791 Q1934.13 52.6791 1930.16 48.1653 Q1926.23 43.6225 1926.23 35.6653 Q1926.23 27.6792 1930.16 23.1654 Q1934.13 18.6515 1941.1 18.6515 Z" fill="#000000" fill-rule="evenodd" fill-opacity="1" /><path clip-path="url(#clip980)" d="M 0 0 M1958.46 19.4328 L1963.78 19.4328 L1970.44 44.722 L1977.07 19.4328 L1983.35 19.4328 L1990 44.722 L1996.63 19.4328 L2001.95 19.4328 L1993.47 51.84 L1987.19 51.84 L1980.22 25.2776 L1973.22 51.84 L1966.94 51.84 L1958.46 19.4328 Z" fill="#000000" fill-rule="evenodd" fill-opacity="1" /><path clip-path="url(#clip980)" d="M 0 0 M2012.8 10.2314 L2012.8 19.4328 L2023.77 19.4328 L2023.77 23.5705 L2012.8 23.5705 L2012.8 41.163 Q2012.8 45.1271 2013.87 46.2555 Q2014.97 47.384 2018.3 47.384 L2023.77 47.384 L2023.77 51.84 L2018.3 51.84 Q2012.14 51.84 2009.79 49.5541 Q2007.45 47.2393 2007.45 41.163 L2007.45 23.5705 L2003.54 23.5705 L2003.54 19.4328 L2007.45 19.4328 L2007.45 10.2314 L2012.8 10.2314 Z" fill="#000000" fill-rule="evenodd" fill-opacity="1" /><path clip-path="url(#clip980)" d="M 0 0 M2056.29 32.2799 L2056.29 51.84 L2050.97 51.84 L2050.97 32.4535 Q2050.97 27.8529 2049.17 25.567 Q2047.38 23.2811 2043.79 23.2811 Q2039.48 23.2811 2036.99 26.03 Q2034.5 28.7788 2034.5 33.5241 L2034.5 51.84 L2029.15 51.84 L2029.15 6.81709 L2034.5 6.81709 L2034.5 24.4675 Q2036.41 21.545 2038.99 20.0983 Q2041.59 18.6515 2044.98 18.6515 Q2050.56 18.6515 2053.43 22.1237 Q2056.29 25.567 2056.29 32.2799 Z" fill="#000000" fill-rule="evenodd" fill-opacity="1" /><path clip-path="url(#clip982)" d="
M188.861 1227.79 L214.797 882.767 L240.734 1082.1 L266.671 881.077 L292.607 995.96 L318.544 865.506 L344.481 911.192 L370.417 1135.24 L396.354 832.134 L422.291 834.651 
  L448.227 842.208 L474.164 863.148 L500.1 1080.51 L526.037 998.943 L551.974 955.046 L577.91 790.763 L603.847 1036.9 L629.784 943.732 L655.72 973.193 L681.657 1111.07 
  L707.594 877.594 L733.53 845.616 L759.467 868.027 L785.404 863.146 L811.34 975.606 L837.277 977.704 L863.214 935.538 L889.15 934.858 L915.087 763.777 L941.024 972.732 
  L966.96 696.045 L992.897 813.927 L1018.83 856.048 L1044.77 796.484 L1070.71 850.666 L1096.64 855.399 L1122.58 798.859 L1148.52 764.511 L1174.45 962.766 L1200.39 955.635 
  L1226.33 1046.03 L1252.26 1447.38 L1278.2 685.007 L1304.14 618.246 L1330.07 829.969 L1356.01 1087.18 L1381.95 1005.46 L1407.88 854.604 L1433.82 923.899 L1459.76 927.843 
  L1485.69 689.395 L1511.63 778.494 L1537.57 899.038 L1563.5 885.862 L1589.44 782.303 L1615.38 1054.02 L1641.31 848.948 L1667.25 804.698 L1693.19 795.677 L1719.12 899.656 
  L1745.06 805.471 L1771 791.209 L1796.93 935.417 L1822.87 799.087 L1848.81 870.276 L1874.74 972.085 L1900.68 1042.94 L1926.62 879.25 L1952.55 1104.06 L1978.49 959.171 
  L2004.43 908.05 L2030.36 857.172 L2056.3 798.182 L2082.24 916.765 L2108.17 822.394 L2134.11 947.063 L2160.05 694.263 L2185.98 825.199 L2211.92 828.46 L2237.86 854.264 
  L2263.79 1054.32 L2289.73 921.535 L2289.73 375.756 L2263.79 625.053 L2237.86 598.24 L2211.92 554.414 L2185.98 558.995 L2160.05 564.692 L2134.11 438.974 L2108.17 503.686 
  L2082.24 347.501 L2056.3 573.886 L2030.36 492.979 L2004.43 495.7 L1978.49 629.874 L1952.55 815.096 L1926.62 504.591 L1900.68 681.28 L1874.74 607.488 L1848.81 580.326 
  L1822.87 498.101 L1796.93 589.126 L1771 287.17 L1745.06 572.059 L1719.12 553.097 L1693.19 505.153 L1667.25 395.154 L1641.31 303.403 L1615.38 621.842 L1589.44 480.082 
  L1563.5 655.845 L1537.57 613.09 L1511.63 503.3 L1485.69 462.713 L1459.76 299.79 L1433.82 361.819 L1407.88 579.255 L1381.95 534.244 L1356.01 618.686 L1330.07 382.432 
  L1304.14 338.658 L1278.2 254.461 L1252.26 1107.88 L1226.33 542.351 L1200.39 587.571 L1174.45 372.173 L1148.52 326.178 L1122.58 524.442 L1096.64 443.98 L1070.71 566.104 
  L1044.77 486.946 L1018.83 479.282 L992.897 466.68 L966.96 427.048 L941.024 476.77 L915.087 569.509 L889.15 493.265 L863.214 510.797 L837.277 541.497 L811.34 571.152 
  L785.404 609.348 L759.467 555.995 L733.53 566.137 L707.594 618.267 L681.657 662.673 L655.72 434.536 L629.784 673.524 L603.847 478.977 L577.91 517.61 L551.974 502.682 
  L526.037 688.2 L500.1 487.639 L474.164 536.606 L448.227 620.498 L422.291 493.105 L396.354 580.682 L370.417 654.225 L344.481 523.656 L318.544 479.165 L292.607 617.702 
  L266.671 368.801 L240.734 145.256 L214.797 609.954 L188.861 603.585  Z
  " fill="#008080" fill-rule="evenodd" fill-opacity="0.1"/>
<polyline clip-path="url(#clip982)" style="stroke:#008080; stroke-width:6; stroke-opacity:1; fill:none" points="
  188.861,803.449 214.797,742.897 240.734,662.67 266.671,695.252 292.607,718.479 318.544,694.621 344.481,679.218 370.417,829.855 396.354,709.813 422.291,701.569 
  448.227,737.313 474.164,685.928 500.1,761.031 526.037,792.404 551.974,666.359 577.91,658.822 603.847,809.36 629.784,770.461 655.72,672.297 681.657,813.615 
  707.594,744.298 733.53,659.642 759.467,679.592 785.404,742.329 811.34,728.61 837.277,753.509 863.214,675.947 889.15,701.46 915.087,669.484 941.024,739.632 
  966.96,581.43 992.897,642.504 1018.83,675.86 1044.77,658.478 1070.71,720.206 1096.64,676.949 1122.58,684.963 1148.52,536.459 1174.45,659.212 1200.39,743.864 
  1226.33,793.755 1252.26,1306.06 1278.2,571.466 1304.14,447.822 1330.07,640.849 1356.01,760.175 1381.95,752.201 1407.88,669.635 1433.82,679.472 1459.76,619.764 
  1485.69,561.594 1511.63,625.658 1537.57,739.715 1563.5,762.601 1589.44,619.137 1615.38,863.521 1641.31,667.933 1667.25,672.29 1693.19,646.955 1719.12,746.479 
  1745.06,696.606 1771,624.375 1796.93,730.441 1822.87,659.261 1848.81,725.136 1874.74,830.322 1900.68,851.25 1926.62,749.404 1952.55,925.94 1978.49,818.33 
  2004.43,781.858 2030.36,631.437 2056.3,697.812 2082.24,648.374 2108.17,688.862 2134.11,742.461 2160.05,620.989 2185.98,735.186 2211.92,622.42 2237.86,743.368 
  2263.79,791.467 2289.73,708.548 
  "/>
<polyline clip-path="url(#clip982)" style="stroke:#ff0000; stroke-width:5; stroke-opacity:0.85; fill:none" points="
  188.861,748.609 214.797,738.675 240.734,710.125 266.671,701.463 292.607,644.728 318.544,609.06 344.481,620.131 370.417,650.235 396.354,736.44 422.291,743.621 
  448.227,797.909 474.164,799.332 500.1,853.093 526.037,809.031 551.974,747.582 577.91,683.785 603.847,719.524 629.784,772.773 655.72,752.493 681.657,728.628 
  707.594,601.617 733.53,602.13 759.467,677.976 785.404,662.125 811.34,679.814 837.277,686.567 863.214,649.548 889.15,653.856 915.087,649.246 941.024,631.195 
  966.96,593.155 992.897,665.444 1018.83,676.16 1044.77,601.033 1070.71,601.745 1096.64,631.058 1122.58,680.403 1148.52,598.187 1174.45,728.939 1200.39,793.995 
  1226.33,901.61 1252.26,1171.6 1278.2,1223.75 1304.14,686.141 1330.07,635.597 1356.01,601.514 1381.95,641.588 1407.88,595.779 1433.82,633.199 1459.76,634.378 
  1485.69,715.161 1511.63,705.575 1537.57,713.174 1563.5,720.221 1589.44,720.298 1615.38,772.65 1641.31,744.726 1667.25,782.161 1693.19,703.98 1719.12,704.945 
  1745.06,681.978 1771,715.49 1796.93,743.485 1822.87,732.222 1848.81,690.924 1874.74,718.597 1900.68,696.664 1926.62,724.188 1952.55,740.867 1978.49,761.401 
  2004.43,717.244 2030.36,734.9 2056.3,743.927 2082.24,683.689 2108.17,700.172 2134.11,694.721 2160.05,681.348 2185.98,681.431 2211.92,717.557 2237.86,732.952 
  2263.79,750.303 2289.73,767.228 
  "/>
<path clip-path="url(#clip980)" d="
M197.835 1342.45 L1040.97 1342.45 L1040.97 1183.69 L197.835 1183.69  Z
  " fill="#ffffff" fill-rule="evenodd" fill-opacity="1"/>
<polyline clip-path="url(#clip980)" style="stroke:#000000; stroke-width:4; stroke-opacity:0; fill:none" points="
  197.835,1342.45 1040.97,1342.45 1040.97,1183.69 197.835,1183.69 197.835,1342.45 
  "/>
<polyline clip-path="url(#clip980)" style="stroke:#008080; stroke-width:3.5; stroke-opacity:1; fill:none" points="
  221.835,1236.61 365.835,1236.61 
  "/>
<path clip-path="url(#clip980)" d="M 0 0 M389.835 1221.49 L395.344 1221.49 L408.752 1246.79 L408.752 1221.49 L412.722 1221.49 L412.722 1251.73 L407.213 1251.73 L393.804 1226.43 L393.804 1251.73 L389.835 1251.73 L389.835 1221.49 Z" fill="#000000" fill-rule="evenodd" fill-opacity="1" /><path clip-path="url(#clip980)" d="M 0 0 M436.035 1239.45 L436.035 1241.28 L418.9 1241.28 Q419.143 1245.12 421.209 1247.15 Q423.295 1249.16 427.002 1249.16 Q429.149 1249.16 431.154 1248.63 Q433.179 1248.1 435.164 1247.05 L435.164 1250.57 Q433.159 1251.42 431.052 1251.87 Q428.946 1252.32 426.779 1252.32 Q421.351 1252.32 418.171 1249.16 Q415.011 1246 415.011 1240.61 Q415.011 1235.04 418.009 1231.78 Q421.026 1228.5 426.131 1228.5 Q430.708 1228.5 433.361 1231.45 Q436.035 1234.39 436.035 1239.45 M432.308 1238.36 Q432.268 1235.3 430.587 1233.48 Q428.926 1231.66 426.171 1231.66 Q423.052 1231.66 421.168 1233.42 Q419.305 1235.18 419.021 1238.38 L432.308 1238.36 Z" fill="#000000" fill-rule="evenodd" fill-opacity="1" /><path clip-path="url(#clip980)" d="M 0 0 M437.777 1229.04 L441.504 1229.04 L446.162 1246.75 L450.801 1229.04 L455.196 1229.04 L459.854 1246.75 L464.493 1229.04 L468.22 1229.04 L462.285 1251.73 L457.89 1251.73 L453.008 1233.13 L448.107 1251.73 L443.712 1251.73 L437.777 1229.04 Z" fill="#000000" fill-rule="evenodd" fill-opacity="1" /><path clip-path="url(#clip980)" d="M 0 0 M486.59 1229.71 L486.59 1233.24 Q485.011 1232.43 483.309 1232.02 Q481.608 1231.62 479.785 1231.62 Q477.01 1231.62 475.612 1232.47 Q474.235 1233.32 474.235 1235.02 Q474.235 1236.31 475.228 1237.06 Q476.22 1237.79 479.218 1238.46 L480.494 1238.74 Q484.464 1239.6 486.125 1241.16 Q487.806 1242.69 487.806 1245.47 Q487.806 1248.63 485.294 1250.47 Q482.803 1252.32 478.428 1252.32 Q476.605 1252.32 474.62 1251.95 Q472.655 1251.61 470.468 1250.9 L470.468 1247.05 Q472.534 1248.12 474.539 1248.67 Q476.544 1249.2 478.509 1249.2 Q481.142 1249.2 482.56 1248.3 Q483.978 1247.39 483.978 1245.75 Q483.978 1244.23 482.945 1243.42 Q481.932 1242.61 478.468 1241.86 L477.172 1241.56 Q473.708 1240.83 472.169 1239.33 Q470.63 1237.81 470.63 1235.18 Q470.63 1231.98 472.898 1230.24 Q475.167 1228.5 479.339 1228.5 Q481.405 1228.5 483.228 1228.8 Q485.051 1229.1 486.59 1229.71 Z" fill="#000000" fill-rule="evenodd" fill-opacity="1" /><path clip-path="url(#clip980)" d="M 0 0 M489.831 1238.7 L500.748 1238.7 L500.748 1242.03 L489.831 1242.03 L489.831 1238.7 Z" fill="#000000" fill-rule="evenodd" fill-opacity="1" /><path clip-path="url(#clip980)" d="M 0 0 M514.967 1240.32 Q510.45 1240.32 508.708 1241.36 Q506.966 1242.39 506.966 1244.88 Q506.966 1246.87 508.263 1248.04 Q509.579 1249.2 511.827 1249.2 Q514.926 1249.2 516.79 1247.01 Q518.674 1244.8 518.674 1241.16 L518.674 1240.32 L514.967 1240.32 M522.4 1238.79 L522.4 1251.73 L518.674 1251.73 L518.674 1248.28 Q517.397 1250.35 515.494 1251.34 Q513.59 1252.32 510.835 1252.32 Q507.351 1252.32 505.285 1250.37 Q503.24 1248.41 503.24 1245.12 Q503.24 1241.3 505.792 1239.35 Q508.364 1237.41 513.448 1237.41 L518.674 1237.41 L518.674 1237.04 Q518.674 1234.47 516.972 1233.07 Q515.291 1231.66 512.233 1231.66 Q510.288 1231.66 508.445 1232.12 Q506.602 1232.59 504.9 1233.52 L504.9 1230.08 Q506.946 1229.29 508.87 1228.9 Q510.795 1228.5 512.617 1228.5 Q517.539 1228.5 519.97 1231.05 Q522.4 1233.6 522.4 1238.79 Z" fill="#000000" fill-rule="evenodd" fill-opacity="1" /><path clip-path="url(#clip980)" d="M 0 0 M525.925 1242.78 L525.925 1229.04 L529.651 1229.04 L529.651 1242.63 Q529.651 1245.85 530.907 1247.47 Q532.163 1249.07 534.675 1249.07 Q537.693 1249.07 539.434 1247.15 Q541.197 1245.23 541.197 1241.9 L541.197 1229.04 L544.923 1229.04 L544.923 1251.73 L541.197 1251.73 L541.197 1248.24 Q539.839 1250.31 538.037 1251.32 Q536.254 1252.32 533.885 1252.32 Q529.976 1252.32 527.95 1249.88 Q525.925 1247.45 525.925 1242.78 M535.302 1228.5 L535.302 1228.5 Z" fill="#000000" fill-rule="evenodd" fill-opacity="1" /><path clip-path="url(#clip980)" d="M 0 0 M563.76 1240.12 Q563.76 1236.07 562.079 1233.84 Q560.418 1231.62 557.4 1231.62 Q554.402 1231.62 552.721 1233.84 Q551.06 1236.07 551.06 1240.12 Q551.06 1244.15 552.721 1246.38 Q554.402 1248.61 557.4 1248.61 Q560.418 1248.61 562.079 1246.38 Q563.76 1244.15 563.76 1240.12 M567.487 1248.91 Q567.487 1254.71 564.915 1257.52 Q562.342 1260.36 557.036 1260.36 Q555.071 1260.36 553.329 1260.05 Q551.587 1259.77 549.946 1259.16 L549.946 1255.54 Q551.587 1256.43 553.187 1256.85 Q554.787 1257.28 556.448 1257.28 Q560.114 1257.28 561.937 1255.35 Q563.76 1253.45 563.76 1249.58 L563.76 1247.74 Q562.606 1249.74 560.803 1250.74 Q559 1251.73 556.489 1251.73 Q552.316 1251.73 549.764 1248.55 Q547.212 1245.37 547.212 1240.12 Q547.212 1234.86 549.764 1231.68 Q552.316 1228.5 556.489 1228.5 Q559 1228.5 560.803 1229.49 Q562.606 1230.48 563.76 1232.49 L563.76 1229.04 L567.487 1229.04 L567.487 1248.91 Z" fill="#000000" fill-rule="evenodd" fill-opacity="1" /><path clip-path="url(#clip980)" d="M 0 0 M589.058 1233.4 Q590.456 1230.89 592.4 1229.69 Q594.344 1228.5 596.977 1228.5 Q600.522 1228.5 602.446 1230.99 Q604.37 1233.46 604.37 1238.04 L604.37 1251.73 L600.623 1251.73 L600.623 1238.16 Q600.623 1234.9 599.469 1233.32 Q598.314 1231.74 595.945 1231.74 Q593.048 1231.74 591.367 1233.66 Q589.686 1235.59 589.686 1238.91 L589.686 1251.73 L585.939 1251.73 L585.939 1238.16 Q585.939 1234.88 584.784 1233.32 Q583.63 1231.74 581.219 1231.74 Q578.364 1231.74 576.682 1233.68 Q575.001 1235.61 575.001 1238.91 L575.001 1251.73 L571.254 1251.73 L571.254 1229.04 L575.001 1229.04 L575.001 1232.57 Q576.277 1230.48 578.06 1229.49 Q579.842 1228.5 582.293 1228.5 Q584.764 1228.5 586.486 1229.75 Q588.228 1231.01 589.058 1233.4 Z" fill="#000000" fill-rule="evenodd" fill-opacity="1" /><path clip-path="url(#clip980)" d="M 0 0 M627.683 1239.45 L627.683 1241.28 L610.548 1241.28 Q610.791 1245.12 612.857 1247.15 Q614.943 1249.16 618.65 1249.16 Q620.797 1249.16 622.802 1248.63 Q624.827 1248.1 626.812 1247.05 L626.812 1250.57 Q624.807 1251.42 622.701 1251.87 Q620.594 1252.32 618.427 1252.32 Q612.999 1252.32 609.819 1249.16 Q606.659 1246 606.659 1240.61 Q606.659 1235.04 609.657 1231.78 Q612.675 1228.5 617.779 1228.5 Q622.356 1228.5 625.01 1231.45 Q627.683 1234.39 627.683 1239.45 M623.957 1238.36 Q623.916 1235.3 622.235 1233.48 Q620.574 1231.66 617.819 1231.66 Q614.7 1231.66 612.817 1233.42 Q610.953 1235.18 610.67 1238.38 L623.957 1238.36 Z" fill="#000000" fill-rule="evenodd" fill-opacity="1" /><path clip-path="url(#clip980)" d="M 0 0 M650.449 1238.04 L650.449 1251.73 L646.723 1251.73 L646.723 1238.16 Q646.723 1234.94 645.467 1233.34 Q644.211 1231.74 641.699 1231.74 Q638.682 1231.74 636.94 1233.66 Q635.198 1235.59 635.198 1238.91 L635.198 1251.73 L631.451 1251.73 L631.451 1229.04 L635.198 1229.04 L635.198 1232.57 Q636.535 1230.52 638.337 1229.51 Q640.16 1228.5 642.53 1228.5 Q646.439 1228.5 648.444 1230.93 Q650.449 1233.34 650.449 1238.04 Z" fill="#000000" fill-rule="evenodd" fill-opacity="1" /><path clip-path="url(#clip980)" d="M 0 0 M658.045 1222.6 L658.045 1229.04 L665.721 1229.04 L665.721 1231.94 L658.045 1231.94 L658.045 1244.25 Q658.045 1247.03 658.794 1247.82 Q659.564 1248.61 661.893 1248.61 L665.721 1248.61 L665.721 1251.73 L661.893 1251.73 Q657.579 1251.73 655.938 1250.13 Q654.298 1248.51 654.298 1244.25 L654.298 1231.94 L651.563 1231.94 L651.563 1229.04 L654.298 1229.04 L654.298 1222.6 L658.045 1222.6 Z" fill="#000000" fill-rule="evenodd" fill-opacity="1" /><path clip-path="url(#clip980)" d="M 0 0 M689.034 1239.45 L689.034 1241.28 L671.899 1241.28 Q672.142 1245.12 674.208 1247.15 Q676.294 1249.16 680.001 1249.16 Q682.148 1249.16 684.153 1248.63 Q686.178 1248.1 688.163 1247.05 L688.163 1250.57 Q686.158 1251.42 684.052 1251.87 Q681.945 1252.32 679.778 1252.32 Q674.35 1252.32 671.17 1249.16 Q668.01 1246 668.01 1240.61 Q668.01 1235.04 671.008 1231.78 Q674.026 1228.5 679.13 1228.5 Q683.707 1228.5 686.361 1231.45 Q689.034 1234.39 689.034 1239.45 M685.307 1238.36 Q685.267 1235.3 683.586 1233.48 Q681.925 1231.66 679.17 1231.66 Q676.051 1231.66 674.167 1233.42 Q672.304 1235.18 672.02 1238.38 L685.307 1238.36 Z" fill="#000000" fill-rule="evenodd" fill-opacity="1" /><path clip-path="url(#clip980)" d="M 0 0 M707.871 1232.49 L707.871 1220.21 L711.598 1220.21 L711.598 1251.73 L707.871 1251.73 L707.871 1248.33 Q706.696 1250.35 704.894 1251.34 Q703.111 1252.32 700.6 1252.32 Q696.488 1252.32 693.895 1249.03 Q691.323 1245.75 691.323 1240.41 Q691.323 1235.06 693.895 1231.78 Q696.488 1228.5 700.6 1228.5 Q703.111 1228.5 704.894 1229.49 Q706.696 1230.46 707.871 1232.49 M695.171 1240.41 Q695.171 1244.52 696.853 1246.87 Q698.554 1249.2 701.511 1249.2 Q704.468 1249.2 706.17 1246.87 Q707.871 1244.52 707.871 1240.41 Q707.871 1236.29 706.17 1233.96 Q704.468 1231.62 701.511 1231.62 Q698.554 1231.62 696.853 1233.96 Q695.171 1236.29 695.171 1240.41 Z" fill="#000000" fill-rule="evenodd" fill-opacity="1" /><path clip-path="url(#clip980)" d="M 0 0 M745.018 1229.91 L745.018 1233.4 Q743.438 1232.53 741.838 1232.1 Q740.258 1231.66 738.638 1231.66 Q735.012 1231.66 733.007 1233.96 Q731.002 1236.25 731.002 1240.41 Q731.002 1244.56 733.007 1246.87 Q735.012 1249.16 738.638 1249.16 Q740.258 1249.16 741.838 1248.73 Q743.438 1248.28 745.018 1247.41 L745.018 1250.86 Q743.458 1251.59 741.777 1251.95 Q740.116 1252.32 738.233 1252.32 Q733.108 1252.32 730.09 1249.09 Q727.072 1245.87 727.072 1240.41 Q727.072 1234.86 730.11 1231.68 Q733.169 1228.5 738.476 1228.5 Q740.197 1228.5 741.838 1228.86 Q743.478 1229.2 745.018 1229.91 Z" fill="#000000" fill-rule="evenodd" fill-opacity="1" /><path clip-path="url(#clip980)" d="M 0 0 M757.717 1231.66 Q754.72 1231.66 752.978 1234.01 Q751.236 1236.33 751.236 1240.41 Q751.236 1244.48 752.958 1246.83 Q754.699 1249.16 757.717 1249.16 Q760.695 1249.16 762.437 1246.81 Q764.179 1244.46 764.179 1240.41 Q764.179 1236.37 762.437 1234.03 Q760.695 1231.66 757.717 1231.66 M757.717 1228.5 Q762.578 1228.5 765.353 1231.66 Q768.128 1234.82 768.128 1240.41 Q768.128 1245.98 765.353 1249.16 Q762.578 1252.32 757.717 1252.32 Q752.836 1252.32 750.061 1249.16 Q747.307 1245.98 747.307 1240.41 Q747.307 1234.82 750.061 1231.66 Q752.836 1228.5 757.717 1228.5 Z" fill="#000000" fill-rule="evenodd" fill-opacity="1" /><path clip-path="url(#clip980)" d="M 0 0 M789.699 1233.4 Q791.097 1230.89 793.041 1229.69 Q794.986 1228.5 797.619 1228.5 Q801.163 1228.5 803.088 1230.99 Q805.012 1233.46 805.012 1238.04 L805.012 1251.73 L801.265 1251.73 L801.265 1238.16 Q801.265 1234.9 800.11 1233.32 Q798.956 1231.74 796.586 1231.74 Q793.689 1231.74 792.008 1233.66 Q790.327 1235.59 790.327 1238.91 L790.327 1251.73 L786.58 1251.73 L786.58 1238.16 Q786.58 1234.88 785.426 1233.32 Q784.271 1231.74 781.861 1231.74 Q779.005 1231.74 777.324 1233.68 Q775.643 1235.61 775.643 1238.91 L775.643 1251.73 L771.896 1251.73 L771.896 1229.04 L775.643 1229.04 L775.643 1232.57 Q776.919 1230.48 778.701 1229.49 Q780.483 1228.5 782.934 1228.5 Q785.405 1228.5 787.127 1229.75 Q788.869 1231.01 789.699 1233.4 Z" fill="#000000" fill-rule="evenodd" fill-opacity="1" /><path clip-path="url(#clip980)" d="M 0 0 M826.583 1233.4 Q827.98 1230.89 829.925 1229.69 Q831.869 1228.5 834.502 1228.5 Q838.047 1228.5 839.971 1230.99 Q841.895 1233.46 841.895 1238.04 L841.895 1251.73 L838.148 1251.73 L838.148 1238.16 Q838.148 1234.9 836.994 1233.32 Q835.839 1231.74 833.469 1231.74 Q830.573 1231.74 828.892 1233.66 Q827.211 1235.59 827.211 1238.91 L827.211 1251.73 L823.464 1251.73 L823.464 1238.16 Q823.464 1234.88 822.309 1233.32 Q821.155 1231.74 818.744 1231.74 Q815.888 1231.74 814.207 1233.68 Q812.526 1235.61 812.526 1238.91 L812.526 1251.73 L808.779 1251.73 L808.779 1229.04 L812.526 1229.04 L812.526 1232.57 Q813.802 1230.48 815.585 1229.49 Q817.367 1228.5 819.818 1228.5 Q822.289 1228.5 824.01 1229.75 Q825.752 1231.01 826.583 1233.4 Z" fill="#000000" fill-rule="evenodd" fill-opacity="1" /><path clip-path="url(#clip980)" d="M 0 0 M846.331 1246.58 L850.605 1246.58 L850.605 1251.73 L846.331 1251.73 L846.331 1246.58 Z" fill="#000000" fill-rule="evenodd" fill-opacity="1" /><path clip-path="url(#clip980)" d="M 0 0 M882.161 1229.71 L882.161 1233.24 Q880.581 1232.43 878.88 1232.02 Q877.179 1231.62 875.356 1231.62 Q872.581 1231.62 871.183 1232.47 Q869.806 1233.32 869.806 1235.02 Q869.806 1236.31 870.798 1237.06 Q871.791 1237.79 874.789 1238.46 L876.065 1238.74 Q880.034 1239.6 881.695 1241.16 Q883.376 1242.69 883.376 1245.47 Q883.376 1248.63 880.865 1250.47 Q878.374 1252.32 873.999 1252.32 Q872.176 1252.32 870.191 1251.95 Q868.226 1251.61 866.039 1250.9 L866.039 1247.05 Q868.105 1248.12 870.11 1248.67 Q872.115 1249.2 874.08 1249.2 Q876.713 1249.2 878.131 1248.3 Q879.548 1247.39 879.548 1245.75 Q879.548 1244.23 878.515 1243.42 Q877.503 1242.61 874.039 1241.86 L872.743 1241.56 Q869.279 1240.83 867.74 1239.33 Q866.201 1237.81 866.201 1235.18 Q866.201 1231.98 868.469 1230.24 Q870.738 1228.5 874.91 1228.5 Q876.976 1228.5 878.799 1228.8 Q880.622 1229.1 882.161 1229.71 Z" fill="#000000" fill-rule="evenodd" fill-opacity="1" /><path clip-path="url(#clip980)" d="M 0 0 M906.143 1238.04 L906.143 1251.73 L902.416 1251.73 L902.416 1238.16 Q902.416 1234.94 901.16 1233.34 Q899.904 1231.74 897.393 1231.74 Q894.375 1231.74 892.633 1233.66 Q890.891 1235.59 890.891 1238.91 L890.891 1251.73 L887.144 1251.73 L887.144 1220.21 L890.891 1220.21 L890.891 1232.57 Q892.228 1230.52 894.03 1229.51 Q895.853 1228.5 898.223 1228.5 Q902.132 1228.5 904.137 1230.93 Q906.143 1233.34 906.143 1238.04 Z" fill="#000000" fill-rule="evenodd" fill-opacity="1" /><path clip-path="url(#clip980)" d="M 0 0 M918.842 1231.66 Q915.844 1231.66 914.103 1234.01 Q912.361 1236.33 912.361 1240.41 Q912.361 1244.48 914.082 1246.83 Q915.824 1249.16 918.842 1249.16 Q921.82 1249.16 923.561 1246.81 Q925.303 1244.46 925.303 1240.41 Q925.303 1236.37 923.561 1234.03 Q921.82 1231.66 918.842 1231.66 M918.842 1228.5 Q923.703 1228.5 926.478 1231.66 Q929.253 1234.82 929.253 1240.41 Q929.253 1245.98 926.478 1249.16 Q923.703 1252.32 918.842 1252.32 Q913.961 1252.32 911.186 1249.16 Q908.431 1245.98 908.431 1240.41 Q908.431 1234.82 911.186 1231.66 Q913.961 1228.5 918.842 1228.5 Z" fill="#000000" fill-rule="evenodd" fill-opacity="1" /><path clip-path="url(#clip980)" d="M 0 0 M949.487 1229.91 L949.487 1233.4 Q947.907 1232.53 946.307 1232.1 Q944.727 1231.66 943.107 1231.66 Q939.481 1231.66 937.476 1233.96 Q935.471 1236.25 935.471 1240.41 Q935.471 1244.56 937.476 1246.87 Q939.481 1249.16 943.107 1249.16 Q944.727 1249.16 946.307 1248.73 Q947.907 1248.28 949.487 1247.41 L949.487 1250.86 Q947.928 1251.59 946.246 1251.95 Q944.586 1252.32 942.702 1252.32 Q937.578 1252.32 934.56 1249.09 Q931.542 1245.87 931.542 1240.41 Q931.542 1234.86 934.58 1231.68 Q937.638 1228.5 942.945 1228.5 Q944.667 1228.5 946.307 1228.86 Q947.948 1229.2 949.487 1229.91 Z" fill="#000000" fill-rule="evenodd" fill-opacity="1" /><path clip-path="url(#clip980)" d="M 0 0 M953.255 1220.21 L957.002 1220.21 L957.002 1238.83 L968.121 1229.04 L972.881 1229.04 L960.85 1239.66 L973.388 1251.73 L968.526 1251.73 L957.002 1240.65 L957.002 1251.73 L953.255 1251.73 L953.255 1220.21 Z" fill="#000000" fill-rule="evenodd" fill-opacity="1" /><path clip-path="url(#clip980)" d="M 0 0 M991.758 1229.71 L991.758 1233.24 Q990.179 1232.43 988.477 1232.02 Q986.776 1231.62 984.953 1231.62 Q982.178 1231.62 980.78 1232.47 Q979.403 1233.32 979.403 1235.02 Q979.403 1236.31 980.396 1237.06 Q981.388 1237.79 984.386 1238.46 L985.662 1238.74 Q989.632 1239.6 991.293 1241.16 Q992.974 1242.69 992.974 1245.47 Q992.974 1248.63 990.462 1250.47 Q987.971 1252.32 983.596 1252.32 Q981.773 1252.32 979.788 1251.95 Q977.823 1251.61 975.636 1250.9 L975.636 1247.05 Q977.702 1248.12 979.707 1248.67 Q981.712 1249.2 983.677 1249.2 Q986.31 1249.2 987.728 1248.3 Q989.146 1247.39 989.146 1245.75 Q989.146 1244.23 988.113 1243.42 Q987.1 1242.61 983.636 1241.86 L982.34 1241.56 Q978.876 1240.83 977.337 1239.33 Q975.798 1237.81 975.798 1235.18 Q975.798 1231.98 978.066 1230.24 Q980.335 1228.5 984.507 1228.5 Q986.573 1228.5 988.396 1228.8 Q990.219 1229.1 991.758 1229.71 Z" fill="#000000" fill-rule="evenodd" fill-opacity="1" /><polyline clip-path="url(#clip980)" style="stroke:#ff0000; stroke-width:3.5; stroke-opacity:0.85; fill:none" points="
  221.835,1289.53 365.835,1289.53 
  "/>
<path clip-path="url(#clip980)" d="M 0 0 M412.196 1300.33 L412.196 1292.21 L405.512 1292.21 L405.512 1288.85 L416.246 1288.85 L416.246 1301.83 Q413.877 1303.51 411.021 1304.38 Q408.165 1305.24 404.924 1305.24 Q397.835 1305.24 393.825 1301.1 Q389.835 1296.95 389.835 1289.56 Q389.835 1282.15 393.825 1278.01 Q397.835 1273.86 404.924 1273.86 Q407.881 1273.86 410.535 1274.59 Q413.208 1275.32 415.456 1276.74 L415.456 1281.09 Q413.188 1279.17 410.636 1278.2 Q408.084 1277.22 405.268 1277.22 Q399.719 1277.22 396.924 1280.32 Q394.149 1283.42 394.149 1289.56 Q394.149 1295.68 396.924 1298.77 Q399.719 1301.87 405.268 1301.87 Q407.436 1301.87 409.137 1301.51 Q410.838 1301.12 412.196 1300.33 Z" fill="#000000" fill-rule="evenodd" fill-opacity="1" /><path clip-path="url(#clip980)" d="M 0 0 M424.206 1301.2 L438.486 1301.2 L438.486 1304.65 L419.285 1304.65 L419.285 1301.2 Q421.614 1298.79 425.624 1294.74 Q429.655 1290.67 430.688 1289.5 Q432.653 1287.29 433.422 1285.77 Q434.212 1284.23 434.212 1282.75 Q434.212 1280.34 432.511 1278.82 Q430.83 1277.3 428.116 1277.3 Q426.191 1277.3 424.044 1277.97 Q421.918 1278.64 419.487 1280 L419.487 1275.87 Q421.958 1274.87 424.105 1274.37 Q426.252 1273.86 428.035 1273.86 Q432.734 1273.86 435.529 1276.21 Q438.324 1278.56 438.324 1282.49 Q438.324 1284.35 437.615 1286.03 Q436.926 1287.69 435.083 1289.96 Q434.577 1290.55 431.863 1293.37 Q429.149 1296.16 424.206 1301.2 Z" fill="#000000" fill-rule="evenodd" fill-opacity="1" /><path clip-path="url(#clip980)" d="M 0 0 M451.672 1277.1 Q448.512 1277.1 446.912 1280.22 Q445.332 1283.32 445.332 1289.56 Q445.332 1295.78 446.912 1298.9 Q448.512 1301.99 451.672 1301.99 Q454.852 1301.99 456.431 1298.9 Q458.031 1295.78 458.031 1289.56 Q458.031 1283.32 456.431 1280.22 Q454.852 1277.1 451.672 1277.1 M451.672 1273.86 Q456.755 1273.86 459.429 1277.89 Q462.123 1281.9 462.123 1289.56 Q462.123 1297.19 459.429 1301.22 Q456.755 1305.24 451.672 1305.24 Q446.588 1305.24 443.894 1301.22 Q441.22 1297.19 441.22 1289.56 Q441.22 1281.9 443.894 1277.89 Q446.588 1273.86 451.672 1273.86 Z" fill="#000000" fill-rule="evenodd" fill-opacity="1" /><path clip-path="url(#clip980)" d="M 0 0 M488.008 1284.58 Q485.011 1284.58 483.269 1286.93 Q481.527 1289.25 481.527 1293.33 Q481.527 1297.4 483.248 1299.75 Q484.99 1302.08 488.008 1302.08 Q490.986 1302.08 492.727 1299.73 Q494.469 1297.38 494.469 1293.33 Q494.469 1289.29 492.727 1286.95 Q490.986 1284.58 488.008 1284.58 M488.008 1281.42 Q492.869 1281.42 495.644 1284.58 Q498.419 1287.74 498.419 1293.33 Q498.419 1298.9 495.644 1302.08 Q492.869 1305.24 488.008 1305.24 Q483.127 1305.24 480.352 1302.08 Q477.597 1298.9 477.597 1293.33 Q477.597 1287.74 480.352 1284.58 Q483.127 1281.42 488.008 1281.42 Z" fill="#000000" fill-rule="evenodd" fill-opacity="1" /><path clip-path="url(#clip980)" d="M 0 0 M501.943 1295.7 L501.943 1281.96 L505.67 1281.96 L505.67 1295.55 Q505.67 1298.77 506.926 1300.39 Q508.182 1301.99 510.693 1301.99 Q513.711 1301.99 515.453 1300.07 Q517.215 1298.15 517.215 1294.82 L517.215 1281.96 L520.942 1281.96 L520.942 1304.65 L517.215 1304.65 L517.215 1301.16 Q515.858 1303.23 514.055 1304.24 Q512.273 1305.24 509.903 1305.24 Q505.994 1305.24 503.969 1302.8 Q501.943 1300.37 501.943 1295.7 M511.321 1281.42 L511.321 1281.42 Z" fill="#000000" fill-rule="evenodd" fill-opacity="1" /><path clip-path="url(#clip980)" d="M 0 0 M528.537 1275.52 L528.537 1281.96 L536.214 1281.96 L536.214 1284.86 L528.537 1284.86 L528.537 1297.17 Q528.537 1299.95 529.287 1300.74 Q530.057 1301.53 532.386 1301.53 L536.214 1301.53 L536.214 1304.65 L532.386 1304.65 Q528.072 1304.65 526.431 1303.05 Q524.79 1301.43 524.79 1297.17 L524.79 1284.86 L522.056 1284.86 L522.056 1281.96 L524.79 1281.96 L524.79 1275.52 L528.537 1275.52 Z" fill="#000000" fill-rule="evenodd" fill-opacity="1" /><path clip-path="url(#clip980)" d="M 0 0 M543.728 1301.25 L543.728 1313.28 L539.981 1313.28 L539.981 1281.96 L543.728 1281.96 L543.728 1285.41 Q544.903 1283.38 546.686 1282.41 Q548.488 1281.42 550.979 1281.42 Q555.111 1281.42 557.684 1284.7 Q560.276 1287.98 560.276 1293.33 Q560.276 1298.67 557.684 1301.95 Q555.111 1305.24 550.979 1305.24 Q548.488 1305.24 546.686 1304.26 Q544.903 1303.27 543.728 1301.25 M556.408 1293.33 Q556.408 1289.21 554.706 1286.88 Q553.025 1284.54 550.068 1284.54 Q547.111 1284.54 545.409 1286.88 Q543.728 1289.21 543.728 1293.33 Q543.728 1297.44 545.409 1299.79 Q547.111 1302.12 550.068 1302.12 Q553.025 1302.12 554.706 1299.79 Q556.408 1297.44 556.408 1293.33 Z" fill="#000000" fill-rule="evenodd" fill-opacity="1" /><path clip-path="url(#clip980)" d="M 0 0 M563.801 1295.7 L563.801 1281.96 L567.527 1281.96 L567.527 1295.55 Q567.527 1298.77 568.783 1300.39 Q570.039 1301.99 572.551 1301.99 Q575.568 1301.99 577.31 1300.07 Q579.073 1298.15 579.073 1294.82 L579.073 1281.96 L582.799 1281.96 L582.799 1304.65 L579.073 1304.65 L579.073 1301.16 Q577.715 1303.23 575.913 1304.24 Q574.13 1305.24 571.761 1305.24 Q567.851 1305.24 565.826 1302.8 Q563.801 1300.37 563.801 1295.7 M573.178 1281.42 L573.178 1281.42 Z" fill="#000000" fill-rule="evenodd" fill-opacity="1" /><path clip-path="url(#clip980)" d="M 0 0 M590.395 1275.52 L590.395 1281.96 L598.071 1281.96 L598.071 1284.86 L590.395 1284.86 L590.395 1297.17 Q590.395 1299.95 591.144 1300.74 Q591.914 1301.53 594.243 1301.53 L598.071 1301.53 L598.071 1304.65 L594.243 1304.65 Q589.929 1304.65 588.288 1303.05 Q586.648 1301.43 586.648 1297.17 L586.648 1284.86 L583.913 1284.86 L583.913 1281.96 L586.648 1281.96 L586.648 1275.52 L590.395 1275.52 Z" fill="#000000" fill-rule="evenodd" fill-opacity="1" /></svg>
