<?xml version="1.0" encoding="utf-8"?>
<svg xmlns="http://www.w3.org/2000/svg" xmlns:xlink="http://www.w3.org/1999/xlink" width="600" height="400" viewBox="0 0 2400 1600">
<defs>
  <clipPath id="clip020">
    <rect x="0" y="0" width="2400" height="1600"/>
  </clipPath>
</defs>
<path clip-path="url(#clip020)" d="
M0 1600 L2400 1600 L2400 0 L0 0  Z
  " fill="#ffffff" fill-rule="evenodd" fill-opacity="1"/>
<defs>
  <clipPath id="clip021">
    <rect x="480" y="0" width="1681" height="1600"/>
  </clipPath>
</defs>
<path clip-path="url(#clip020)" d="
M125.835 1486.45 L2352.76 1486.45 L2352.76 106.192 L125.835 106.192  Z
  " fill="#ffffff" fill-rule="evenodd" fill-opacity="1"/>
<defs>
  <clipPath id="clip022">
    <rect x="125" y="106" width="2228" height="1381"/>
  </clipPath>
</defs>
<polyline clip-path="url(#clip022)" style="stroke:#000000; stroke-width:2; stroke-opacity:0.1; fill:none" points="
  188.861,1486.45 188.861,106.192 
  "/>
<polyline clip-path="url(#clip022)" style="stroke:#000000; stroke-width:2; stroke-opacity:0.1; fill:none" points="
  468.976,1486.45 468.976,106.192 
  "/>
<polyline clip-path="url(#clip022)" style="stroke:#000000; stroke-width:2; stroke-opacity:0.1; fill:none" points="
  749.092,1486.45 749.092,106.192 
  "/>
<polyline clip-path="url(#clip022)" style="stroke:#000000; stroke-width:2; stroke-opacity:0.1; fill:none" points="
  1029.21,1486.45 1029.21,106.192 
  "/>
<polyline clip-path="url(#clip022)" style="stroke:#000000; stroke-width:2; stroke-opacity:0.1; fill:none" points="
  1309.32,1486.45 1309.32,106.192 
  "/>
<polyline clip-path="url(#clip022)" style="stroke:#000000; stroke-width:2; stroke-opacity:0.1; fill:none" points="
  1589.44,1486.45 1589.44,106.192 
  "/>
<polyline clip-path="url(#clip022)" style="stroke:#000000; stroke-width:2; stroke-opacity:0.1; fill:none" points="
  1869.56,1486.45 1869.56,106.192 
  "/>
<polyline clip-path="url(#clip022)" style="stroke:#000000; stroke-width:2; stroke-opacity:0.1; fill:none" points="
  2149.67,1486.45 2149.67,106.192 
  "/>
<polyline clip-path="url(#clip022)" style="stroke:#000000; stroke-width:2; stroke-opacity:0.1; fill:none" points="
  125.835,1407.77 2352.76,1407.77 
  "/>
<polyline clip-path="url(#clip022)" style="stroke:#000000; stroke-width:2; stroke-opacity:0.1; fill:none" points="
  125.835,1179.23 2352.76,1179.23 
  "/>
<polyline clip-path="url(#clip022)" style="stroke:#000000; stroke-width:2; stroke-opacity:0.1; fill:none" points="
  125.835,950.69 2352.76,950.69 
  "/>
<polyline clip-path="url(#clip022)" style="stroke:#000000; stroke-width:2; stroke-opacity:0.1; fill:none" points="
  125.835,722.151 2352.76,722.151 
  "/>
<polyline clip-path="url(#clip022)" style="stroke:#000000; stroke-width:2; stroke-opacity:0.1; fill:none" points="
  125.835,493.611 2352.76,493.611 
  "/>
<polyline clip-path="url(#clip022)" style="stroke:#000000; stroke-width:2; stroke-opacity:0.1; fill:none" points="
  125.835,265.071 2352.76,265.071 
  "/>
<polyline clip-path="url(#clip020)" style="stroke:#000000; stroke-width:4; stroke-opacity:1; fill:none" points="
  125.835,1486.45 2352.76,1486.45 
  "/>
<polyline clip-path="url(#clip020)" style="stroke:#000000; stroke-width:4; stroke-opacity:1; fill:none" points="
  125.835,1486.45 125.835,106.192 
  "/>
<polyline clip-path="url(#clip020)" style="stroke:#000000; stroke-width:4; stroke-opacity:1; fill:none" points="
  188.861,1486.45 188.861,1469.88 
  "/>
<polyline clip-path="url(#clip020)" style="stroke:#000000; stroke-width:4; stroke-opacity:1; fill:none" points="
  468.976,1486.45 468.976,1469.88 
  "/>
<polyline clip-path="url(#clip020)" style="stroke:#000000; stroke-width:4; stroke-opacity:1; fill:none" points="
  749.092,1486.45 749.092,1469.88 
  "/>
<polyline clip-path="url(#clip020)" style="stroke:#000000; stroke-width:4; stroke-opacity:1; fill:none" points="
  1029.21,1486.45 1029.21,1469.88 
  "/>
<polyline clip-path="url(#clip020)" style="stroke:#000000; stroke-width:4; stroke-opacity:1; fill:none" points="
  1309.32,1486.45 1309.32,1469.88 
  "/>
<polyline clip-path="url(#clip020)" style="stroke:#000000; stroke-width:4; stroke-opacity:1; fill:none" points="
  1589.44,1486.45 1589.44,1469.88 
  "/>
<polyline clip-path="url(#clip020)" style="stroke:#000000; stroke-width:4; stroke-opacity:1; fill:none" points="
  1869.56,1486.45 1869.56,1469.88 
  "/>
<polyline clip-path="url(#clip020)" style="stroke:#000000; stroke-width:4; stroke-opacity:1; fill:none" points="
  2149.67,1486.45 2149.67,1469.88 
  "/>
<polyline clip-path="url(#clip020)" style="stroke:#000000; stroke-width:4; stroke-opacity:1; fill:none" points="
  125.835,1407.77 152.558,1407.77 
  "/>
<polyline clip-path="url(#clip020)" style="stroke:#000000; stroke-width:4; stroke-opacity:1; fill:none" points="
  125.835,1179.23 152.558,1179.23 
  "/>
<polyline clip-path="url(#clip020)" style="stroke:#000000; stroke-width:4; stroke-opacity:1; fill:none" points="
  125.835,950.69 152.558,950.69 
  "/>
<polyline clip-path="url(#clip020)" style="stroke:#000000; stroke-width:4; stroke-opacity:1; fill:none" points="
  125.835,722.151 152.558,722.151 
  "/>
<polyline clip-path="url(#clip020)" style="stroke:#000000; stroke-width:4; stroke-opacity:1; fill:none" points="
  125.835,493.611 152.558,493.611 
  "/>
<polyline clip-path="url(#clip020)" style="stroke:#000000; stroke-width:4; stroke-opacity:1; fill:none" points="
  125.835,265.071 152.558,265.071 
  "/>
<path clip-path="url(#clip020)" d="M 0 0 M112.021 1535.98 L119.66 1535.98 L119.66 1509.62 L111.349 1511.29 L111.349 1507.03 L119.613 1505.36 L124.289 1505.36 L124.289 1535.98 L131.928 1535.98 L131.928 1539.92 L112.021 1539.92 L112.021 1535.98 Z" fill="#000000" fill-rule="evenodd" fill-opacity="1" /><path clip-path="url(#clip020)" d="M 0 0 M137.136 1539.2 L137.136 1534.94 Q138.896 1535.78 140.701 1536.22 Q142.507 1536.66 144.243 1536.66 Q148.872 1536.66 151.303 1533.55 Q153.757 1530.43 154.104 1524.09 Q152.761 1526.08 150.701 1527.14 Q148.641 1528.21 146.141 1528.21 Q140.956 1528.21 137.923 1525.08 Q134.914 1521.93 134.914 1516.49 Q134.914 1511.17 138.062 1507.95 Q141.21 1504.73 146.442 1504.73 Q152.437 1504.73 155.585 1509.34 Q158.757 1513.92 158.757 1522.67 Q158.757 1530.85 154.868 1535.73 Q151.002 1540.59 144.451 1540.59 Q142.692 1540.59 140.886 1540.24 Q139.081 1539.9 137.136 1539.2 M146.442 1524.55 Q149.59 1524.55 151.419 1522.4 Q153.271 1520.24 153.271 1516.49 Q153.271 1512.77 151.419 1510.61 Q149.59 1508.44 146.442 1508.44 Q143.294 1508.44 141.442 1510.61 Q139.613 1512.77 139.613 1516.49 Q139.613 1520.24 141.442 1522.4 Q143.294 1524.55 146.442 1524.55 Z" fill="#000000" fill-rule="evenodd" fill-opacity="1" /><path clip-path="url(#clip020)" d="M 0 0 M163.965 1539.2 L163.965 1534.94 Q165.724 1535.78 167.53 1536.22 Q169.335 1536.66 171.071 1536.66 Q175.701 1536.66 178.131 1533.55 Q180.585 1530.43 180.932 1524.09 Q179.59 1526.08 177.53 1527.14 Q175.469 1528.21 172.969 1528.21 Q167.784 1528.21 164.752 1525.08 Q161.743 1521.93 161.743 1516.49 Q161.743 1511.17 164.891 1507.95 Q168.039 1504.73 173.27 1504.73 Q179.266 1504.73 182.414 1509.34 Q185.585 1513.92 185.585 1522.67 Q185.585 1530.85 181.696 1535.73 Q177.831 1540.59 171.28 1540.59 Q169.52 1540.59 167.715 1540.24 Q165.909 1539.9 163.965 1539.2 M173.27 1524.55 Q176.419 1524.55 178.247 1522.4 Q180.099 1520.24 180.099 1516.49 Q180.099 1512.77 178.247 1510.61 Q176.419 1508.44 173.27 1508.44 Q170.122 1508.44 168.27 1510.61 Q166.442 1512.77 166.442 1516.49 Q166.442 1520.24 168.27 1522.4 Q170.122 1524.55 173.27 1524.55 Z" fill="#000000" fill-rule="evenodd" fill-opacity="1" /><path clip-path="url(#clip020)" d="M 0 0 M203.502 1509.43 L191.696 1527.88 L203.502 1527.88 L203.502 1509.43 M202.275 1505.36 L208.154 1505.36 L208.154 1527.88 L213.085 1527.88 L213.085 1531.77 L208.154 1531.77 L208.154 1539.92 L203.502 1539.92 L203.502 1531.77 L187.9 1531.77 L187.9 1527.26 L202.275 1505.36 Z" fill="#000000" fill-rule="evenodd" fill-opacity="1" /><path clip-path="url(#clip020)" d="M 0 0 M220.099 1526.98 Q220.099 1531.68 222.02 1534.36 Q223.965 1537.03 227.344 1537.03 Q230.724 1537.03 232.668 1534.36 Q234.613 1531.68 234.613 1526.98 Q234.613 1522.28 232.668 1519.62 Q230.724 1516.93 227.344 1516.93 Q223.965 1516.93 222.02 1519.62 Q220.099 1522.28 220.099 1526.98 M234.613 1536.03 Q233.27 1538.35 231.21 1539.48 Q229.173 1540.59 226.303 1540.59 Q221.603 1540.59 218.641 1536.84 Q215.701 1533.09 215.701 1526.98 Q215.701 1520.87 218.641 1517.12 Q221.603 1513.37 226.303 1513.37 Q229.173 1513.37 231.21 1514.5 Q233.27 1515.61 234.613 1517.93 L234.613 1513.99 L238.872 1513.99 L238.872 1549.78 L234.613 1549.78 L234.613 1536.03 Z" fill="#000000" fill-rule="evenodd" fill-opacity="1" /><path clip-path="url(#clip020)" d="M 0 0 M256.788 1509.43 L244.983 1527.88 L256.788 1527.88 L256.788 1509.43 M255.562 1505.36 L261.441 1505.36 L261.441 1527.88 L266.372 1527.88 L266.372 1531.77 L261.441 1531.77 L261.441 1539.92 L256.788 1539.92 L256.788 1531.77 L241.187 1531.77 L241.187 1527.26 L255.562 1505.36 Z" fill="#000000" fill-rule="evenodd" fill-opacity="1" /><path clip-path="url(#clip020)" d="M 0 0 M392.831 1535.98 L400.47 1535.98 L400.47 1509.62 L392.16 1511.29 L392.16 1507.03 L400.424 1505.36 L405.1 1505.36 L405.1 1535.98 L412.738 1535.98 L412.738 1539.92 L392.831 1539.92 L392.831 1535.98 Z" fill="#000000" fill-rule="evenodd" fill-opacity="1" /><path clip-path="url(#clip020)" d="M 0 0 M417.947 1539.2 L417.947 1534.94 Q419.706 1535.78 421.511 1536.22 Q423.317 1536.66 425.053 1536.66 Q429.683 1536.66 432.113 1533.55 Q434.567 1530.43 434.914 1524.09 Q433.572 1526.08 431.511 1527.14 Q429.451 1528.21 426.951 1528.21 Q421.766 1528.21 418.734 1525.08 Q415.724 1521.93 415.724 1516.49 Q415.724 1511.17 418.873 1507.95 Q422.021 1504.73 427.252 1504.73 Q433.248 1504.73 436.396 1509.34 Q439.567 1513.92 439.567 1522.67 Q439.567 1530.85 435.678 1535.73 Q431.812 1540.59 425.261 1540.59 Q423.502 1540.59 421.697 1540.24 Q419.891 1539.9 417.947 1539.2 M427.252 1524.55 Q430.4 1524.55 432.229 1522.4 Q434.081 1520.24 434.081 1516.49 Q434.081 1512.77 432.229 1510.61 Q430.4 1508.44 427.252 1508.44 Q424.104 1508.44 422.252 1510.61 Q420.424 1512.77 420.424 1516.49 Q420.424 1520.24 422.252 1522.4 Q424.104 1524.55 427.252 1524.55 Z" fill="#000000" fill-rule="evenodd" fill-opacity="1" /><path clip-path="url(#clip020)" d="M 0 0 M444.775 1539.2 L444.775 1534.94 Q446.534 1535.78 448.34 1536.22 Q450.146 1536.66 451.882 1536.66 Q456.511 1536.66 458.942 1533.55 Q461.396 1530.43 461.743 1524.09 Q460.4 1526.08 458.34 1527.14 Q456.28 1528.21 453.78 1528.21 Q448.595 1528.21 445.562 1525.08 Q442.553 1521.93 442.553 1516.49 Q442.553 1511.17 445.701 1507.95 Q448.849 1504.73 454.081 1504.73 Q460.076 1504.73 463.224 1509.34 Q466.395 1513.92 466.395 1522.67 Q466.395 1530.85 462.507 1535.73 Q458.641 1540.59 452.09 1540.59 Q450.331 1540.59 448.525 1540.24 Q446.72 1539.9 444.775 1539.2 M454.081 1524.55 Q457.229 1524.55 459.058 1522.4 Q460.909 1520.24 460.909 1516.49 Q460.909 1512.77 459.058 1510.61 Q457.229 1508.44 454.081 1508.44 Q450.933 1508.44 449.081 1510.61 Q447.252 1512.77 447.252 1516.49 Q447.252 1520.24 449.081 1522.4 Q450.933 1524.55 454.081 1524.55 Z" fill="#000000" fill-rule="evenodd" fill-opacity="1" /><path clip-path="url(#clip020)" d="M 0 0 M470.284 1505.36 L492.506 1505.36 L492.506 1507.35 L479.96 1539.92 L475.076 1539.92 L486.881 1509.3 L470.284 1509.3 L470.284 1505.36 Z" fill="#000000" fill-rule="evenodd" fill-opacity="1" /><path clip-path="url(#clip020)" d="M 0 0 M499.52 1526.98 Q499.52 1531.68 501.442 1534.36 Q503.386 1537.03 506.766 1537.03 Q510.145 1537.03 512.09 1534.36 Q514.034 1531.68 514.034 1526.98 Q514.034 1522.28 512.09 1519.62 Q510.145 1516.93 506.766 1516.93 Q503.386 1516.93 501.442 1519.62 Q499.52 1522.28 499.52 1526.98 M514.034 1536.03 Q512.692 1538.35 510.631 1539.48 Q508.594 1540.59 505.724 1540.59 Q501.025 1540.59 498.062 1536.84 Q495.122 1533.09 495.122 1526.98 Q495.122 1520.87 498.062 1517.12 Q501.025 1513.37 505.724 1513.37 Q508.594 1513.37 510.631 1514.5 Q512.692 1515.61 514.034 1517.93 L514.034 1513.99 L518.293 1513.99 L518.293 1549.78 L514.034 1549.78 L514.034 1536.03 Z" fill="#000000" fill-rule="evenodd" fill-opacity="1" /><path clip-path="url(#clip020)" d="M 0 0 M536.21 1509.43 L524.404 1527.88 L536.21 1527.88 L536.21 1509.43 M534.983 1505.36 L540.863 1505.36 L540.863 1527.88 L545.793 1527.88 L545.793 1531.77 L540.863 1531.77 L540.863 1539.92 L536.21 1539.92 L536.21 1531.77 L520.608 1531.77 L520.608 1527.26 L534.983 1505.36 Z" fill="#000000" fill-rule="evenodd" fill-opacity="1" /><path clip-path="url(#clip020)" d="M 0 0 M676.581 1535.98 L692.901 1535.98 L692.901 1539.92 L670.956 1539.92 L670.956 1535.98 Q673.618 1533.23 678.202 1528.6 Q682.808 1523.95 683.989 1522.61 Q686.234 1520.08 687.114 1518.35 Q688.016 1516.59 688.016 1514.9 Q688.016 1512.14 686.072 1510.41 Q684.151 1508.67 681.049 1508.67 Q678.85 1508.67 676.396 1509.43 Q673.965 1510.2 671.188 1511.75 L671.188 1507.03 Q674.012 1505.89 676.465 1505.31 Q678.919 1504.73 680.956 1504.73 Q686.327 1504.73 689.521 1507.42 Q692.715 1510.11 692.715 1514.6 Q692.715 1516.73 691.905 1518.65 Q691.118 1520.54 689.012 1523.14 Q688.433 1523.81 685.331 1527.03 Q682.229 1530.22 676.581 1535.98 Z" fill="#000000" fill-rule="evenodd" fill-opacity="1" /><path clip-path="url(#clip020)" d="M 0 0 M707.97 1508.44 Q704.359 1508.44 702.53 1512 Q700.725 1515.55 700.725 1522.67 Q700.725 1529.78 702.53 1533.35 Q704.359 1536.89 707.97 1536.89 Q711.604 1536.89 713.41 1533.35 Q715.238 1529.78 715.238 1522.67 Q715.238 1515.55 713.41 1512 Q711.604 1508.44 707.97 1508.44 M707.97 1504.73 Q713.78 1504.73 716.836 1509.34 Q719.914 1513.92 719.914 1522.67 Q719.914 1531.4 716.836 1536.01 Q713.78 1540.59 707.97 1540.59 Q702.16 1540.59 699.081 1536.01 Q696.026 1531.4 696.026 1522.67 Q696.026 1513.92 699.081 1509.34 Q702.16 1504.73 707.97 1504.73 Z" fill="#000000" fill-rule="evenodd" fill-opacity="1" /><path clip-path="url(#clip020)" d="M 0 0 M734.984 1508.44 Q731.373 1508.44 729.544 1512 Q727.738 1515.55 727.738 1522.67 Q727.738 1529.78 729.544 1533.35 Q731.373 1536.89 734.984 1536.89 Q738.618 1536.89 740.423 1533.35 Q742.252 1529.78 742.252 1522.67 Q742.252 1515.55 740.423 1512 Q738.618 1508.44 734.984 1508.44 M734.984 1504.73 Q740.794 1504.73 743.849 1509.34 Q746.928 1513.92 746.928 1522.67 Q746.928 1531.4 743.849 1536.01 Q740.794 1540.59 734.984 1540.59 Q729.174 1540.59 726.095 1536.01 Q723.039 1531.4 723.039 1522.67 Q723.039 1513.92 726.095 1509.34 Q729.174 1504.73 734.984 1504.73 Z" fill="#000000" fill-rule="evenodd" fill-opacity="1" /><path clip-path="url(#clip020)" d="M 0 0 M761.997 1508.44 Q758.386 1508.44 756.558 1512 Q754.752 1515.55 754.752 1522.67 Q754.752 1529.78 756.558 1533.35 Q758.386 1536.89 761.997 1536.89 Q765.632 1536.89 767.437 1533.35 Q769.266 1529.78 769.266 1522.67 Q769.266 1515.55 767.437 1512 Q765.632 1508.44 761.997 1508.44 M761.997 1504.73 Q767.808 1504.73 770.863 1509.34 Q773.942 1513.92 773.942 1522.67 Q773.942 1531.4 770.863 1536.01 Q767.808 1540.59 761.997 1540.59 Q756.187 1540.59 753.109 1536.01 Q750.053 1531.4 750.053 1522.67 Q750.053 1513.92 753.109 1509.34 Q756.187 1504.73 761.997 1504.73 Z" fill="#000000" fill-rule="evenodd" fill-opacity="1" /><path clip-path="url(#clip020)" d="M 0 0 M780.956 1526.98 Q780.956 1531.68 782.877 1534.36 Q784.821 1537.03 788.201 1537.03 Q791.581 1537.03 793.525 1534.36 Q795.469 1531.68 795.469 1526.98 Q795.469 1522.28 793.525 1519.62 Q791.581 1516.93 788.201 1516.93 Q784.821 1516.93 782.877 1519.62 Q780.956 1522.28 780.956 1526.98 M795.469 1536.03 Q794.127 1538.35 792.067 1539.48 Q790.03 1540.59 787.159 1540.59 Q782.46 1540.59 779.497 1536.84 Q776.558 1533.09 776.558 1526.98 Q776.558 1520.87 779.497 1517.12 Q782.46 1513.37 787.159 1513.37 Q790.03 1513.37 792.067 1514.5 Q794.127 1515.61 795.469 1517.93 L795.469 1513.99 L799.729 1513.99 L799.729 1549.78 L795.469 1549.78 L795.469 1536.03 Z" fill="#000000" fill-rule="evenodd" fill-opacity="1" /><path clip-path="url(#clip020)" d="M 0 0 M817.645 1509.43 L805.84 1527.88 L817.645 1527.88 L817.645 1509.43 M816.418 1505.36 L822.298 1505.36 L822.298 1527.88 L827.229 1527.88 L827.229 1531.77 L822.298 1531.77 L822.298 1539.92 L817.645 1539.92 L817.645 1531.77 L802.043 1531.77 L802.043 1527.26 L816.418 1505.36 Z" fill="#000000" fill-rule="evenodd" fill-opacity="1" /><path clip-path="url(#clip020)" d="M 0 0 M957.021 1535.98 L973.341 1535.98 L973.341 1539.92 L951.396 1539.92 L951.396 1535.98 Q954.058 1533.23 958.642 1528.6 Q963.248 1523.95 964.429 1522.61 Q966.674 1520.08 967.554 1518.35 Q968.456 1516.59 968.456 1514.9 Q968.456 1512.14 966.512 1510.41 Q964.591 1508.67 961.489 1508.67 Q959.29 1508.67 956.836 1509.43 Q954.405 1510.2 951.628 1511.75 L951.628 1507.03 Q954.452 1505.89 956.905 1505.31 Q959.359 1504.73 961.396 1504.73 Q966.766 1504.73 969.961 1507.42 Q973.155 1510.11 973.155 1514.6 Q973.155 1516.73 972.345 1518.65 Q971.558 1520.54 969.452 1523.14 Q968.873 1523.81 965.771 1527.03 Q962.669 1530.22 957.021 1535.98 Z" fill="#000000" fill-rule="evenodd" fill-opacity="1" /><path clip-path="url(#clip020)" d="M 0 0 M988.41 1508.44 Q984.799 1508.44 982.97 1512 Q981.165 1515.55 981.165 1522.67 Q981.165 1529.78 982.97 1533.35 Q984.799 1536.89 988.41 1536.89 Q992.044 1536.89 993.85 1533.35 Q995.678 1529.78 995.678 1522.67 Q995.678 1515.55 993.85 1512 Q992.044 1508.44 988.41 1508.44 M988.41 1504.73 Q994.22 1504.73 997.276 1509.34 Q1000.35 1513.92 1000.35 1522.67 Q1000.35 1531.4 997.276 1536.01 Q994.22 1540.59 988.41 1540.59 Q982.6 1540.59 979.521 1536.01 Q976.466 1531.4 976.466 1522.67 Q976.466 1513.92 979.521 1509.34 Q982.6 1504.73 988.41 1504.73 Z" fill="#000000" fill-rule="evenodd" fill-opacity="1" /><path clip-path="url(#clip020)" d="M 0 0 M1015.42 1508.44 Q1011.81 1508.44 1009.98 1512 Q1008.18 1515.55 1008.18 1522.67 Q1008.18 1529.78 1009.98 1533.35 Q1011.81 1536.89 1015.42 1536.89 Q1019.06 1536.89 1020.86 1533.35 Q1022.69 1529.78 1022.69 1522.67 Q1022.69 1515.55 1020.86 1512 Q1019.06 1508.44 1015.42 1508.44 M1015.42 1504.73 Q1021.23 1504.73 1024.29 1509.34 Q1027.37 1513.92 1027.37 1522.67 Q1027.37 1531.4 1024.29 1536.01 Q1021.23 1540.59 1015.42 1540.59 Q1009.61 1540.59 1006.53 1536.01 Q1003.48 1531.4 1003.48 1522.67 Q1003.48 1513.92 1006.53 1509.34 Q1009.61 1504.73 1015.42 1504.73 Z" fill="#000000" fill-rule="evenodd" fill-opacity="1" /><path clip-path="url(#clip020)" d="M 0 0 M1046.6 1521.29 Q1049.96 1522 1051.84 1524.27 Q1053.73 1526.54 1053.73 1529.87 Q1053.73 1534.99 1050.22 1537.79 Q1046.7 1540.59 1040.22 1540.59 Q1038.04 1540.59 1035.72 1540.15 Q1033.43 1539.73 1030.98 1538.88 L1030.98 1534.36 Q1032.92 1535.5 1035.24 1536.08 Q1037.55 1536.66 1040.08 1536.66 Q1044.47 1536.66 1046.77 1534.92 Q1049.08 1533.18 1049.08 1529.87 Q1049.08 1526.82 1046.93 1525.11 Q1044.8 1523.37 1040.98 1523.37 L1036.95 1523.37 L1036.95 1519.53 L1041.16 1519.53 Q1044.61 1519.53 1046.44 1518.16 Q1048.27 1516.77 1048.27 1514.18 Q1048.27 1511.52 1046.37 1510.11 Q1044.5 1508.67 1040.98 1508.67 Q1039.06 1508.67 1036.86 1509.09 Q1034.66 1509.5 1032.02 1510.38 L1032.02 1506.22 Q1034.68 1505.48 1037 1505.11 Q1039.34 1504.73 1041.4 1504.73 Q1046.72 1504.73 1049.82 1507.17 Q1052.92 1509.57 1052.92 1513.69 Q1052.92 1516.56 1051.28 1518.55 Q1049.64 1520.52 1046.6 1521.29 Z" fill="#000000" fill-rule="evenodd" fill-opacity="1" /><path clip-path="url(#clip020)" d="M 0 0 M1060.75 1526.98 Q1060.75 1531.68 1062.67 1534.36 Q1064.61 1537.03 1067.99 1537.03 Q1071.37 1537.03 1073.32 1534.36 Q1075.26 1531.68 1075.26 1526.98 Q1075.26 1522.28 1073.32 1519.62 Q1071.37 1516.93 1067.99 1516.93 Q1064.61 1516.93 1062.67 1519.62 Q1060.75 1522.28 1060.75 1526.98 M1075.26 1536.03 Q1073.92 1538.35 1071.86 1539.48 Q1069.82 1540.59 1066.95 1540.59 Q1062.25 1540.59 1059.29 1536.84 Q1056.35 1533.09 1056.35 1526.98 Q1056.35 1520.87 1059.29 1517.12 Q1062.25 1513.37 1066.95 1513.37 Q1069.82 1513.37 1071.86 1514.5 Q1073.92 1515.61 1075.26 1517.93 L1075.26 1513.99 L1079.52 1513.99 L1079.52 1549.78 L1075.26 1549.78 L1075.26 1536.03 Z" fill="#000000" fill-rule="evenodd" fill-opacity="1" /><path clip-path="url(#clip020)" d="M 0 0 M1097.44 1509.43 L1085.63 1527.88 L1097.44 1527.88 L1097.44 1509.43 M1096.21 1505.36 L1102.09 1505.36 L1102.09 1527.88 L1107.02 1527.88 L1107.02 1531.77 L1102.09 1531.77 L1102.09 1539.92 L1097.44 1539.92 L1097.44 1531.77 L1081.84 1531.77 L1081.84 1527.26 L1096.21 1505.36 Z" fill="#000000" fill-rule="evenodd" fill-opacity="1" /><path clip-path="url(#clip020)" d="M 0 0 M1236.73 1535.98 L1253.05 1535.98 L1253.05 1539.92 L1231.11 1539.92 L1231.11 1535.98 Q1233.77 1533.23 1238.35 1528.6 Q1242.96 1523.95 1244.14 1522.61 Q1246.38 1520.08 1247.26 1518.35 Q1248.17 1516.59 1248.17 1514.9 Q1248.17 1512.14 1246.22 1510.41 Q1244.3 1508.67 1241.2 1508.67 Q1239 1508.67 1236.55 1509.43 Q1234.12 1510.2 1231.34 1511.75 L1231.34 1507.03 Q1234.16 1505.89 1236.62 1505.31 Q1239.07 1504.73 1241.11 1504.73 Q1246.48 1504.73 1249.67 1507.42 Q1252.87 1510.11 1252.87 1514.6 Q1252.87 1516.73 1252.06 1518.65 Q1251.27 1520.54 1249.16 1523.14 Q1248.58 1523.81 1245.48 1527.03 Q1242.38 1530.22 1236.73 1535.98 Z" fill="#000000" fill-rule="evenodd" fill-opacity="1" /><path clip-path="url(#clip020)" d="M 0 0 M1268.12 1508.44 Q1264.51 1508.44 1262.68 1512 Q1260.88 1515.55 1260.88 1522.67 Q1260.88 1529.78 1262.68 1533.35 Q1264.51 1536.89 1268.12 1536.89 Q1271.75 1536.89 1273.56 1533.35 Q1275.39 1529.78 1275.39 1522.67 Q1275.39 1515.55 1273.56 1512 Q1271.75 1508.44 1268.12 1508.44 M1268.12 1504.73 Q1273.93 1504.73 1276.99 1509.34 Q1280.07 1513.92 1280.07 1522.67 Q1280.07 1531.4 1276.99 1536.01 Q1273.93 1540.59 1268.12 1540.59 Q1262.31 1540.59 1259.23 1536.01 Q1256.18 1531.4 1256.18 1522.67 Q1256.18 1513.92 1259.23 1509.34 Q1262.31 1504.73 1268.12 1504.73 Z" fill="#000000" fill-rule="evenodd" fill-opacity="1" /><path clip-path="url(#clip020)" d="M 0 0 M1295.13 1508.44 Q1291.52 1508.44 1289.69 1512 Q1287.89 1515.55 1287.89 1522.67 Q1287.89 1529.78 1289.69 1533.35 Q1291.52 1536.89 1295.13 1536.89 Q1298.77 1536.89 1300.57 1533.35 Q1302.4 1529.78 1302.4 1522.67 Q1302.4 1515.55 1300.57 1512 Q1298.77 1508.44 1295.13 1508.44 M1295.13 1504.73 Q1300.94 1504.73 1304 1509.34 Q1307.08 1513.92 1307.08 1522.67 Q1307.08 1531.4 1304 1536.01 Q1300.94 1540.59 1295.13 1540.59 Q1289.32 1540.59 1286.25 1536.01 Q1283.19 1531.4 1283.19 1522.67 Q1283.19 1513.92 1286.25 1509.34 Q1289.32 1504.73 1295.13 1504.73 Z" fill="#000000" fill-rule="evenodd" fill-opacity="1" /><path clip-path="url(#clip020)" d="M 0 0 M1322.73 1520.78 Q1319.58 1520.78 1317.73 1522.93 Q1315.9 1525.08 1315.9 1528.83 Q1315.9 1532.56 1317.73 1534.73 Q1319.58 1536.89 1322.73 1536.89 Q1325.88 1536.89 1327.7 1534.73 Q1329.56 1532.56 1329.56 1528.83 Q1329.56 1525.08 1327.7 1522.93 Q1325.88 1520.78 1322.73 1520.78 M1332.01 1506.12 L1332.01 1510.38 Q1330.25 1509.55 1328.44 1509.11 Q1326.66 1508.67 1324.9 1508.67 Q1320.27 1508.67 1317.82 1511.8 Q1315.39 1514.92 1315.04 1521.24 Q1316.41 1519.23 1318.47 1518.16 Q1320.53 1517.07 1323 1517.07 Q1328.21 1517.07 1331.22 1520.24 Q1334.25 1523.39 1334.25 1528.83 Q1334.25 1534.16 1331.11 1537.37 Q1327.96 1540.59 1322.73 1540.59 Q1316.73 1540.59 1313.56 1536.01 Q1310.39 1531.4 1310.39 1522.67 Q1310.39 1514.48 1314.28 1509.62 Q1318.17 1504.73 1324.72 1504.73 Q1326.48 1504.73 1328.26 1505.08 Q1330.06 1505.43 1332.01 1506.12 Z" fill="#000000" fill-rule="evenodd" fill-opacity="1" /><path clip-path="url(#clip020)" d="M 0 0 M1341.27 1526.98 Q1341.27 1531.68 1343.19 1534.36 Q1345.13 1537.03 1348.51 1537.03 Q1351.89 1537.03 1353.84 1534.36 Q1355.78 1531.68 1355.78 1526.98 Q1355.78 1522.28 1353.84 1519.62 Q1351.89 1516.93 1348.51 1516.93 Q1345.13 1516.93 1343.19 1519.62 Q1341.27 1522.28 1341.27 1526.98 M1355.78 1536.03 Q1354.44 1538.35 1352.38 1539.48 Q1350.34 1540.59 1347.47 1540.59 Q1342.77 1540.59 1339.81 1536.84 Q1336.87 1533.09 1336.87 1526.98 Q1336.87 1520.87 1339.81 1517.12 Q1342.77 1513.37 1347.47 1513.37 Q1350.34 1513.37 1352.38 1514.5 Q1354.44 1515.61 1355.78 1517.93 L1355.78 1513.99 L1360.04 1513.99 L1360.04 1549.78 L1355.78 1549.78 L1355.78 1536.03 Z" fill="#000000" fill-rule="evenodd" fill-opacity="1" /><path clip-path="url(#clip020)" d="M 0 0 M1377.96 1509.43 L1366.15 1527.88 L1377.96 1527.88 L1377.96 1509.43 M1376.73 1505.36 L1382.61 1505.36 L1382.61 1527.88 L1387.54 1527.88 L1387.54 1531.77 L1382.61 1531.77 L1382.61 1539.92 L1377.96 1539.92 L1377.96 1531.77 L1362.36 1531.77 L1362.36 1527.26 L1376.73 1505.36 Z" fill="#000000" fill-rule="evenodd" fill-opacity="1" /><path clip-path="url(#clip020)" d="M 0 0 M1517.02 1535.98 L1533.34 1535.98 L1533.34 1539.92 L1511.4 1539.92 L1511.4 1535.98 Q1514.06 1533.23 1518.64 1528.6 Q1523.25 1523.95 1524.43 1522.61 Q1526.67 1520.08 1527.55 1518.35 Q1528.46 1516.59 1528.46 1514.9 Q1528.46 1512.14 1526.51 1510.41 Q1524.59 1508.67 1521.49 1508.67 Q1519.29 1508.67 1516.84 1509.43 Q1514.41 1510.2 1511.63 1511.75 L1511.63 1507.03 Q1514.45 1505.89 1516.91 1505.31 Q1519.36 1504.73 1521.4 1504.73 Q1526.77 1504.73 1529.96 1507.42 Q1533.16 1510.11 1533.16 1514.6 Q1533.16 1516.73 1532.35 1518.65 Q1531.56 1520.54 1529.45 1523.14 Q1528.87 1523.81 1525.77 1527.03 Q1522.67 1530.22 1517.02 1535.98 Z" fill="#000000" fill-rule="evenodd" fill-opacity="1" /><path clip-path="url(#clip020)" d="M 0 0 M1548.41 1508.44 Q1544.8 1508.44 1542.97 1512 Q1541.16 1515.55 1541.16 1522.67 Q1541.16 1529.78 1542.97 1533.35 Q1544.8 1536.89 1548.41 1536.89 Q1552.04 1536.89 1553.85 1533.35 Q1555.68 1529.78 1555.68 1522.67 Q1555.68 1515.55 1553.85 1512 Q1552.04 1508.44 1548.41 1508.44 M1548.41 1504.73 Q1554.22 1504.73 1557.28 1509.34 Q1560.35 1513.92 1560.35 1522.67 Q1560.35 1531.4 1557.28 1536.01 Q1554.22 1540.59 1548.41 1540.59 Q1542.6 1540.59 1539.52 1536.01 Q1536.47 1531.4 1536.47 1522.67 Q1536.47 1513.92 1539.52 1509.34 Q1542.6 1504.73 1548.41 1504.73 Z" fill="#000000" fill-rule="evenodd" fill-opacity="1" /><path clip-path="url(#clip020)" d="M 0 0 M1575.42 1508.44 Q1571.81 1508.44 1569.98 1512 Q1568.18 1515.55 1568.18 1522.67 Q1568.18 1529.78 1569.98 1533.35 Q1571.81 1536.89 1575.42 1536.89 Q1579.06 1536.89 1580.86 1533.35 Q1582.69 1529.78 1582.69 1522.67 Q1582.69 1515.55 1580.86 1512 Q1579.06 1508.44 1575.42 1508.44 M1575.42 1504.73 Q1581.23 1504.73 1584.29 1509.34 Q1587.37 1513.92 1587.37 1522.67 Q1587.37 1531.4 1584.29 1536.01 Q1581.23 1540.59 1575.42 1540.59 Q1569.61 1540.59 1566.54 1536.01 Q1563.48 1531.4 1563.48 1522.67 Q1563.48 1513.92 1566.54 1509.34 Q1569.61 1504.73 1575.42 1504.73 Z" fill="#000000" fill-rule="evenodd" fill-opacity="1" /><path clip-path="url(#clip020)" d="M 0 0 M1592.58 1539.2 L1592.58 1534.94 Q1594.34 1535.78 1596.14 1536.22 Q1597.95 1536.66 1599.68 1536.66 Q1604.31 1536.66 1606.74 1533.55 Q1609.2 1530.43 1609.54 1524.09 Q1608.2 1526.08 1606.14 1527.14 Q1604.08 1528.21 1601.58 1528.21 Q1596.4 1528.21 1593.36 1525.08 Q1590.35 1521.93 1590.35 1516.49 Q1590.35 1511.17 1593.5 1507.95 Q1596.65 1504.73 1601.88 1504.73 Q1607.88 1504.73 1611.03 1509.34 Q1614.2 1513.92 1614.2 1522.67 Q1614.2 1530.85 1610.31 1535.73 Q1606.44 1540.59 1599.89 1540.59 Q1598.13 1540.59 1596.33 1540.24 Q1594.52 1539.9 1592.58 1539.2 M1601.88 1524.55 Q1605.03 1524.55 1606.86 1522.4 Q1608.71 1520.24 1608.71 1516.49 Q1608.71 1512.77 1606.86 1510.61 Q1605.03 1508.44 1601.88 1508.44 Q1598.73 1508.44 1596.88 1510.61 Q1595.05 1512.77 1595.05 1516.49 Q1595.05 1520.24 1596.88 1522.4 Q1598.73 1524.55 1601.88 1524.55 Z" fill="#000000" fill-rule="evenodd" fill-opacity="1" /><path clip-path="url(#clip020)" d="M 0 0 M1621.21 1526.98 Q1621.21 1531.68 1623.13 1534.36 Q1625.08 1537.03 1628.46 1537.03 Q1631.84 1537.03 1633.78 1534.36 Q1635.72 1531.68 1635.72 1526.98 Q1635.72 1522.28 1633.78 1519.62 Q1631.84 1516.93 1628.46 1516.93 Q1625.08 1516.93 1623.13 1519.62 Q1621.21 1522.28 1621.21 1526.98 M1635.72 1536.03 Q1634.38 1538.35 1632.32 1539.48 Q1630.28 1540.59 1627.41 1540.59 Q1622.72 1540.59 1619.75 1536.84 Q1616.81 1533.09 1616.81 1526.98 Q1616.81 1520.87 1619.75 1517.12 Q1622.72 1513.37 1627.41 1513.37 Q1630.28 1513.37 1632.32 1514.5 Q1634.38 1515.61 1635.72 1517.93 L1635.72 1513.99 L1639.98 1513.99 L1639.98 1549.78 L1635.72 1549.78 L1635.72 1536.03 Z" fill="#000000" fill-rule="evenodd" fill-opacity="1" /><path clip-path="url(#clip020)" d="M 0 0 M1657.9 1509.43 L1646.09 1527.88 L1657.9 1527.88 L1657.9 1509.43 M1656.67 1505.36 L1662.55 1505.36 L1662.55 1527.88 L1667.48 1527.88 L1667.48 1531.77 L1662.55 1531.77 L1662.55 1539.92 L1657.9 1539.92 L1657.9 1531.77 L1642.3 1531.77 L1642.3 1527.26 L1656.67 1505.36 Z" fill="#000000" fill-rule="evenodd" fill-opacity="1" /><path clip-path="url(#clip020)" d="M 0 0 M1798.46 1535.98 L1814.78 1535.98 L1814.78 1539.92 L1792.83 1539.92 L1792.83 1535.98 Q1795.49 1533.23 1800.08 1528.6 Q1804.68 1523.95 1805.86 1522.61 Q1808.11 1520.08 1808.99 1518.35 Q1809.89 1516.59 1809.89 1514.9 Q1809.89 1512.14 1807.95 1510.41 Q1806.03 1508.67 1802.92 1508.67 Q1800.73 1508.67 1798.27 1509.43 Q1795.84 1510.2 1793.06 1511.75 L1793.06 1507.03 Q1795.89 1505.89 1798.34 1505.31 Q1800.79 1504.73 1802.83 1504.73 Q1808.2 1504.73 1811.4 1507.42 Q1814.59 1510.11 1814.59 1514.6 Q1814.59 1516.73 1813.78 1518.65 Q1812.99 1520.54 1810.89 1523.14 Q1810.31 1523.81 1807.21 1527.03 Q1804.1 1530.22 1798.46 1535.98 Z" fill="#000000" fill-rule="evenodd" fill-opacity="1" /><path clip-path="url(#clip020)" d="M 0 0 M1829.85 1508.44 Q1826.23 1508.44 1824.41 1512 Q1822.6 1515.55 1822.6 1522.67 Q1822.6 1529.78 1824.41 1533.35 Q1826.23 1536.89 1829.85 1536.89 Q1833.48 1536.89 1835.29 1533.35 Q1837.11 1529.78 1837.11 1522.67 Q1837.11 1515.55 1835.29 1512 Q1833.48 1508.44 1829.85 1508.44 M1829.85 1504.73 Q1835.66 1504.73 1838.71 1509.34 Q1841.79 1513.92 1841.79 1522.67 Q1841.79 1531.4 1838.71 1536.01 Q1835.66 1540.59 1829.85 1540.59 Q1824.04 1540.59 1820.96 1536.01 Q1817.9 1531.4 1817.9 1522.67 Q1817.9 1513.92 1820.96 1509.34 Q1824.04 1504.73 1829.85 1504.73 Z" fill="#000000" fill-rule="evenodd" fill-opacity="1" /><path clip-path="url(#clip020)" d="M 0 0 M1847.67 1535.98 L1855.31 1535.98 L1855.31 1509.62 L1847 1511.29 L1847 1507.03 L1855.26 1505.36 L1859.94 1505.36 L1859.94 1535.98 L1867.58 1535.98 L1867.58 1539.92 L1847.67 1539.92 L1847.67 1535.98 Z" fill="#000000" fill-rule="evenodd" fill-opacity="1" /><path clip-path="url(#clip020)" d="M 0 0 M1876.67 1535.98 L1892.99 1535.98 L1892.99 1539.92 L1871.05 1539.92 L1871.05 1535.98 Q1873.71 1533.23 1878.29 1528.6 Q1882.9 1523.95 1884.08 1522.61 Q1886.33 1520.08 1887.21 1518.35 Q1888.11 1516.59 1888.11 1514.9 Q1888.11 1512.14 1886.16 1510.41 Q1884.24 1508.67 1881.14 1508.67 Q1878.94 1508.67 1876.49 1509.43 Q1874.06 1510.2 1871.28 1511.75 L1871.28 1507.03 Q1874.1 1505.89 1876.56 1505.31 Q1879.01 1504.73 1881.05 1504.73 Q1886.42 1504.73 1889.61 1507.42 Q1892.81 1510.11 1892.81 1514.6 Q1892.81 1516.73 1892 1518.65 Q1891.21 1520.54 1889.1 1523.14 Q1888.53 1523.81 1885.42 1527.03 Q1882.32 1530.22 1876.67 1535.98 Z" fill="#000000" fill-rule="evenodd" fill-opacity="1" /><path clip-path="url(#clip020)" d="M 0 0 M1900.01 1526.98 Q1900.01 1531.68 1901.93 1534.36 Q1903.87 1537.03 1907.25 1537.03 Q1910.63 1537.03 1912.58 1534.36 Q1914.52 1531.68 1914.52 1526.98 Q1914.52 1522.28 1912.58 1519.62 Q1910.63 1516.93 1907.25 1516.93 Q1903.87 1516.93 1901.93 1519.62 Q1900.01 1522.28 1900.01 1526.98 M1914.52 1536.03 Q1913.18 1538.35 1911.12 1539.48 Q1909.08 1540.59 1906.21 1540.59 Q1901.51 1540.59 1898.55 1536.84 Q1895.61 1533.09 1895.61 1526.98 Q1895.61 1520.87 1898.55 1517.12 Q1901.51 1513.37 1906.21 1513.37 Q1909.08 1513.37 1911.12 1514.5 Q1913.18 1515.61 1914.52 1517.93 L1914.52 1513.99 L1918.78 1513.99 L1918.78 1549.78 L1914.52 1549.78 L1914.52 1536.03 Z" fill="#000000" fill-rule="evenodd" fill-opacity="1" /><path clip-path="url(#clip020)" d="M 0 0 M1936.7 1509.43 L1924.89 1527.88 L1936.7 1527.88 L1936.7 1509.43 M1935.47 1505.36 L1941.35 1505.36 L1941.35 1527.88 L1946.28 1527.88 L1946.28 1531.77 L1941.35 1531.77 L1941.35 1539.92 L1936.7 1539.92 L1936.7 1531.77 L1921.1 1531.77 L1921.1 1527.26 L1935.47 1505.36 Z" fill="#000000" fill-rule="evenodd" fill-opacity="1" /><path clip-path="url(#clip020)" d="M 0 0 M2078.27 1535.98 L2094.59 1535.98 L2094.59 1539.92 L2072.65 1539.92 L2072.65 1535.98 Q2075.31 1533.23 2079.89 1528.6 Q2084.5 1523.95 2085.68 1522.61 Q2087.92 1520.08 2088.8 1518.35 Q2089.71 1516.59 2089.71 1514.9 Q2089.71 1512.14 2087.76 1510.41 Q2085.84 1508.67 2082.74 1508.67 Q2080.54 1508.67 2078.09 1509.43 Q2075.66 1510.2 2072.88 1511.75 L2072.88 1507.03 Q2075.7 1505.89 2078.16 1505.31 Q2080.61 1504.73 2082.65 1504.73 Q2088.02 1504.73 2091.21 1507.42 Q2094.41 1510.11 2094.41 1514.6 Q2094.41 1516.73 2093.6 1518.65 Q2092.81 1520.54 2090.7 1523.14 Q2090.12 1523.81 2087.02 1527.03 Q2083.92 1530.22 2078.27 1535.98 Z" fill="#000000" fill-rule="evenodd" fill-opacity="1" /><path clip-path="url(#clip020)" d="M 0 0 M2109.66 1508.44 Q2106.05 1508.44 2104.22 1512 Q2102.42 1515.55 2102.42 1522.67 Q2102.42 1529.78 2104.22 1533.35 Q2106.05 1536.89 2109.66 1536.89 Q2113.29 1536.89 2115.1 1533.35 Q2116.93 1529.78 2116.93 1522.67 Q2116.93 1515.55 2115.1 1512 Q2113.29 1508.44 2109.66 1508.44 M2109.66 1504.73 Q2115.47 1504.73 2118.53 1509.34 Q2121.6 1513.92 2121.6 1522.67 Q2121.6 1531.4 2118.53 1536.01 Q2115.47 1540.59 2109.66 1540.59 Q2103.85 1540.59 2100.77 1536.01 Q2097.72 1531.4 2097.72 1522.67 Q2097.72 1513.92 2100.77 1509.34 Q2103.85 1504.73 2109.66 1504.73 Z" fill="#000000" fill-rule="evenodd" fill-opacity="1" /><path clip-path="url(#clip020)" d="M 0 0 M2127.48 1535.98 L2135.12 1535.98 L2135.12 1509.62 L2126.81 1511.29 L2126.81 1507.03 L2135.08 1505.36 L2139.75 1505.36 L2139.75 1535.98 L2147.39 1535.98 L2147.39 1539.92 L2127.48 1539.92 L2127.48 1535.98 Z" fill="#000000" fill-rule="evenodd" fill-opacity="1" /><path clip-path="url(#clip020)" d="M 0 0 M2152.51 1505.36 L2170.86 1505.36 L2170.86 1509.3 L2156.79 1509.3 L2156.79 1517.77 Q2157.81 1517.42 2158.83 1517.26 Q2159.85 1517.07 2160.86 1517.07 Q2166.65 1517.07 2170.03 1520.24 Q2173.41 1523.42 2173.41 1528.83 Q2173.41 1534.41 2169.94 1537.51 Q2166.47 1540.59 2160.15 1540.59 Q2157.97 1540.59 2155.7 1540.22 Q2153.46 1539.85 2151.05 1539.11 L2151.05 1534.41 Q2153.13 1535.54 2155.35 1536.1 Q2157.58 1536.66 2160.05 1536.66 Q2164.06 1536.66 2166.4 1534.55 Q2168.73 1532.44 2168.73 1528.83 Q2168.73 1525.22 2166.4 1523.11 Q2164.06 1521.01 2160.05 1521.01 Q2158.18 1521.01 2156.3 1521.42 Q2154.45 1521.84 2152.51 1522.72 L2152.51 1505.36 Z" fill="#000000" fill-rule="evenodd" fill-opacity="1" /><path clip-path="url(#clip020)" d="M 0 0 M2180.42 1526.98 Q2180.42 1531.68 2182.35 1534.36 Q2184.29 1537.03 2187.67 1537.03 Q2191.05 1537.03 2192.99 1534.36 Q2194.94 1531.68 2194.94 1526.98 Q2194.94 1522.28 2192.99 1519.62 Q2191.05 1516.93 2187.67 1516.93 Q2184.29 1516.93 2182.35 1519.62 Q2180.42 1522.28 2180.42 1526.98 M2194.94 1536.03 Q2193.6 1538.35 2191.54 1539.48 Q2189.5 1540.59 2186.63 1540.59 Q2181.93 1540.59 2178.97 1536.84 Q2176.03 1533.09 2176.03 1526.98 Q2176.03 1520.87 2178.97 1517.12 Q2181.93 1513.37 2186.63 1513.37 Q2189.5 1513.37 2191.54 1514.5 Q2193.6 1515.61 2194.94 1517.93 L2194.94 1513.99 L2199.2 1513.99 L2199.2 1549.78 L2194.94 1549.78 L2194.94 1536.03 Z" fill="#000000" fill-rule="evenodd" fill-opacity="1" /><path clip-path="url(#clip020)" d="M 0 0 M2217.11 1509.43 L2205.31 1527.88 L2217.11 1527.88 L2217.11 1509.43 M2215.89 1505.36 L2221.77 1505.36 L2221.77 1527.88 L2226.7 1527.88 L2226.7 1531.77 L2221.77 1531.77 L2221.77 1539.92 L2217.11 1539.92 L2217.11 1531.77 L2201.51 1531.77 L2201.51 1527.26 L2215.89 1505.36 Z" fill="#000000" fill-rule="evenodd" fill-opacity="1" /><path clip-path="url(#clip020)" d="M 0 0 M62.9921 1410.17 L75.4689 1410.17 L75.4689 1413.96 L62.9921 1413.96 L62.9921 1410.17 Z" fill="#000000" fill-rule="evenodd" fill-opacity="1" /><path clip-path="url(#clip020)" d="M 0 0 M94.7049 1406.42 Q98.0614 1407.13 99.9364 1409.4 Q101.835 1411.67 101.835 1415 Q101.835 1420.12 98.316 1422.92 Q94.7975 1425.72 88.3161 1425.72 Q86.1402 1425.72 83.8253 1425.28 Q81.5337 1424.86 79.08 1424.01 L79.08 1419.49 Q81.0244 1420.63 83.3392 1421.21 Q85.654 1421.79 88.1772 1421.79 Q92.5753 1421.79 94.867 1420.05 Q97.1818 1418.31 97.1818 1415 Q97.1818 1411.95 95.029 1410.24 Q92.8994 1408.5 89.0799 1408.5 L85.0522 1408.5 L85.0522 1404.66 L89.2651 1404.66 Q92.7142 1404.66 94.5429 1403.29 Q96.3716 1401.9 96.3716 1399.31 Q96.3716 1396.65 94.4734 1395.24 Q92.5984 1393.8 89.0799 1393.8 Q87.1587 1393.8 84.9596 1394.22 Q82.7605 1394.63 80.1217 1395.51 L80.1217 1391.35 Q82.7837 1390.61 85.0985 1390.24 Q87.4364 1389.86 89.4966 1389.86 Q94.8207 1389.86 97.9225 1392.3 Q101.024 1394.7 101.024 1398.82 Q101.024 1401.69 99.3808 1403.68 Q97.7373 1405.65 94.7049 1406.42 Z" fill="#000000" fill-rule="evenodd" fill-opacity="1" /><path clip-path="url(#clip020)" d="M 0 0 M63.9412 1181.63 L76.418 1181.63 L76.418 1185.42 L63.9412 1185.42 L63.9412 1181.63 Z" fill="#000000" fill-rule="evenodd" fill-opacity="1" /><path clip-path="url(#clip020)" d="M 0 0 M85.5152 1192.57 L101.835 1192.57 L101.835 1196.51 L79.8902 1196.51 L79.8902 1192.57 Q82.5522 1189.82 87.1355 1185.19 Q91.742 1180.54 92.9225 1179.2 Q95.1679 1176.67 96.0475 1174.94 Q96.9503 1173.18 96.9503 1171.49 Q96.9503 1168.73 95.0058 1167 Q93.0846 1165.26 89.9827 1165.26 Q87.7837 1165.26 85.33 1166.02 Q82.8994 1166.79 80.1217 1168.34 L80.1217 1163.62 Q82.9457 1162.48 85.3994 1161.9 Q87.8531 1161.33 89.8901 1161.33 Q95.2605 1161.33 98.4549 1164.01 Q101.649 1166.7 101.649 1171.19 Q101.649 1173.32 100.839 1175.24 Q100.052 1177.14 97.9456 1179.73 Q97.3669 1180.4 94.2651 1183.62 Q91.1633 1186.81 85.5152 1192.57 Z" fill="#000000" fill-rule="evenodd" fill-opacity="1" /><path clip-path="url(#clip020)" d="M 0 0 M63.5708 953.086 L76.0476 953.086 L76.0476 956.882 L63.5708 956.882 L63.5708 953.086 Z" fill="#000000" fill-rule="evenodd" fill-opacity="1" /><path clip-path="url(#clip020)" d="M 0 0 M81.9272 964.035 L89.5661 964.035 L89.5661 937.67 L81.2559 939.336 L81.2559 935.077 L89.5198 933.41 L94.1957 933.41 L94.1957 964.035 L101.835 964.035 L101.835 967.97 L81.9272 967.97 L81.9272 964.035 Z" fill="#000000" fill-rule="evenodd" fill-opacity="1" /><path clip-path="url(#clip020)" d="M 0 0 M89.8901 707.949 Q86.279 707.949 84.4503 711.514 Q82.6448 715.056 82.6448 722.185 Q82.6448 729.292 84.4503 732.856 Q86.279 736.398 89.8901 736.398 Q93.5244 736.398 95.3299 732.856 Q97.1586 729.292 97.1586 722.185 Q97.1586 715.056 95.3299 711.514 Q93.5244 707.949 89.8901 707.949 M89.8901 704.246 Q95.7003 704.246 98.7558 708.852 Q101.835 713.435 101.835 722.185 Q101.835 730.912 98.7558 735.519 Q95.7003 740.102 89.8901 740.102 Q84.08 740.102 81.0013 735.519 Q77.9457 730.912 77.9457 722.185 Q77.9457 713.435 81.0013 708.852 Q84.08 704.246 89.8901 704.246 Z" fill="#000000" fill-rule="evenodd" fill-opacity="1" /><path clip-path="url(#clip020)" d="M 0 0 M81.9272 506.956 L89.5661 506.956 L89.5661 480.59 L81.2559 482.257 L81.2559 477.997 L89.5198 476.331 L94.1957 476.331 L94.1957 506.956 L101.835 506.956 L101.835 510.891 L81.9272 510.891 L81.9272 506.956 Z" fill="#000000" fill-rule="evenodd" fill-opacity="1" /><path clip-path="url(#clip020)" d="M 0 0 M85.5152 278.416 L101.835 278.416 L101.835 282.351 L79.8902 282.351 L79.8902 278.416 Q82.5522 275.661 87.1355 271.032 Q91.742 266.379 92.9225 265.036 Q95.1679 262.513 96.0475 260.777 Q96.9503 259.018 96.9503 257.328 Q96.9503 254.573 95.0058 252.837 Q93.0846 251.101 89.9827 251.101 Q87.7837 251.101 85.33 251.865 Q82.8994 252.629 80.1217 254.18 L80.1217 249.458 Q82.9457 248.323 85.3994 247.745 Q87.8531 247.166 89.8901 247.166 Q95.2605 247.166 98.4549 249.851 Q101.649 252.536 101.649 257.027 Q101.649 259.157 100.839 261.078 Q100.052 262.976 97.9456 265.569 Q97.3669 266.24 94.2651 269.458 Q91.1633 272.652 85.5152 278.416 Z" fill="#000000" fill-rule="evenodd" fill-opacity="1" /><path clip-path="url(#clip020)" d="M 0 0 M422.3 8.64 L447.126 8.64 L447.126 13.559 L428.145 13.559 L428.145 26.2904 L445.275 26.2904 L445.275 31.2093 L428.145 31.2093 L428.145 51.84 L422.3 51.84 L422.3 8.64 Z" fill="#000000" fill-rule="evenodd" fill-opacity="1" /><path clip-path="url(#clip020)" d="M 0 0 M448.4 19.4328 L453.724 19.4328 L453.724 51.84 L448.4 51.84 L448.4 19.4328 M448.4 6.81709 L453.724 6.81709 L453.724 13.559 L448.4 13.559 L448.4 6.81709 Z" fill="#000000" fill-rule="evenodd" fill-opacity="1" /><path clip-path="url(#clip020)" d="M 0 0 M480.633 35.2602 Q480.633 29.4732 478.232 26.2904 Q475.859 23.1075 471.548 23.1075 Q467.265 23.1075 464.864 26.2904 Q462.491 29.4732 462.491 35.2602 Q462.491 41.0183 464.864 44.2012 Q467.265 47.384 471.548 47.384 Q475.859 47.384 478.232 44.2012 Q480.633 41.0183 480.633 35.2602 M485.957 47.818 Q485.957 56.0934 482.282 60.1154 Q478.608 64.1663 471.027 64.1663 Q468.22 64.1663 465.732 63.7323 Q463.243 63.3272 460.899 62.4592 L460.899 57.2798 Q463.243 58.5529 465.529 59.1606 Q467.815 59.7682 470.188 59.7682 Q475.425 59.7682 478.029 57.0194 Q480.633 54.2995 480.633 48.7729 L480.633 46.1398 Q478.984 49.0044 476.409 50.4222 Q473.833 51.84 470.246 51.84 Q464.285 51.84 460.639 47.2972 Q456.993 42.7544 456.993 35.2602 Q456.993 27.7371 460.639 23.1943 Q464.285 18.6515 470.246 18.6515 Q473.833 18.6515 476.409 20.0693 Q478.984 21.4872 480.633 24.3517 L480.633 19.4328 L485.957 19.4328 L485.957 47.818 Z" fill="#000000" fill-rule="evenodd" fill-opacity="1" /><path clip-path="url(#clip020)" d="M 0 0 M490.992 39.0507 L490.992 19.4328 L496.316 19.4328 L496.316 38.8482 Q496.316 43.4488 498.11 45.7636 Q499.904 48.0495 503.492 48.0495 Q507.803 48.0495 510.292 45.3007 Q512.809 42.5519 512.809 37.8065 L512.809 19.4328 L518.133 19.4328 L518.133 51.84 L512.809 51.84 L512.809 46.8632 Q510.87 49.8145 508.295 51.2613 Q505.749 52.6791 502.363 52.6791 Q496.779 52.6791 493.885 49.2069 Q490.992 45.7347 490.992 39.0507 M504.389 18.6515 L504.389 18.6515 Z" fill="#000000" fill-rule="evenodd" fill-opacity="1" /><path clip-path="url(#clip020)" d="M 0 0 M542.496 24.4096 Q541.599 23.8888 540.529 23.6573 Q539.487 23.3969 538.214 23.3969 Q533.7 23.3969 531.269 26.3482 Q528.868 29.2707 528.868 34.7683 L528.868 51.84 L523.515 51.84 L523.515 19.4328 L528.868 19.4328 L528.868 24.4675 Q530.546 21.5161 533.237 20.0983 Q535.928 18.6515 539.776 18.6515 Q540.326 18.6515 540.992 18.7383 Q541.657 18.7962 542.467 18.9409 L542.496 24.4096 Z" fill="#000000" fill-rule="evenodd" fill-opacity="1" /><path clip-path="url(#clip020)" d="M 0 0 M574.498 34.3054 L574.498 36.9095 L550.019 36.9095 Q550.367 42.4072 553.318 45.3007 Q556.298 48.1653 561.593 48.1653 Q564.661 48.1653 567.525 47.4129 Q570.419 46.6606 573.254 45.156 L573.254 50.1907 Q570.39 51.406 567.38 52.0425 Q564.371 52.6791 561.275 52.6791 Q553.521 52.6791 548.978 48.1653 Q544.464 43.6514 544.464 35.9547 Q544.464 27.9975 548.746 23.339 Q553.058 18.6515 560.349 18.6515 Q566.889 18.6515 570.679 22.876 Q574.498 27.0716 574.498 34.3054 M569.174 32.7429 Q569.117 28.3737 566.715 25.7695 Q564.342 23.1654 560.407 23.1654 Q555.951 23.1654 553.26 25.6827 Q550.598 28.2001 550.193 32.7718 L569.174 32.7429 Z" fill="#000000" fill-rule="evenodd" fill-opacity="1" /><path clip-path="url(#clip020)" d="M 0 0 M604.707 46.921 L625.106 46.921 L625.106 51.84 L597.675 51.84 L597.675 46.921 Q601.003 43.4778 606.732 37.6908 Q612.49 31.8748 613.966 30.1966 Q616.773 27.0427 617.872 24.8726 Q619 22.6735 619 20.5612 Q619 17.118 616.57 14.9478 Q614.168 12.7777 610.291 12.7777 Q607.542 12.7777 604.475 13.7326 Q601.437 14.6874 597.965 16.6261 L597.965 10.7233 Q601.495 9.30551 604.562 8.58213 Q607.629 7.85875 610.175 7.85875 Q616.888 7.85875 620.881 11.2152 Q624.874 14.5717 624.874 20.1851 Q624.874 22.8471 623.862 25.2487 Q622.878 27.6214 620.245 30.8621 Q619.521 31.7012 615.644 35.7232 Q611.767 39.7162 604.707 46.921 Z" fill="#000000" fill-rule="evenodd" fill-opacity="1" /><path clip-path="url(#clip020)" d="M 0 0 M632.05 44.4905 L638.155 44.4905 L638.155 51.84 L632.05 51.84 L632.05 44.4905 M632.05 21.1978 L638.155 21.1978 L638.155 28.5473 L632.05 28.5473 L632.05 21.1978 Z" fill="#000000" fill-rule="evenodd" fill-opacity="1" /><path clip-path="url(#clip020)" d="M 0 0 M662.808 8.64 L670.678 8.64 L689.833 44.7799 L689.833 8.64 L695.505 8.64 L695.505 51.84 L687.634 51.84 L668.479 15.7001 L668.479 51.84 L662.808 51.84 L662.808 8.64 Z" fill="#000000" fill-rule="evenodd" fill-opacity="1" /><path clip-path="url(#clip020)" d="M 0 0 M728.809 34.3054 L728.809 36.9095 L704.33 36.9095 Q704.677 42.4072 707.628 45.3007 Q710.609 48.1653 715.904 48.1653 Q718.971 48.1653 721.836 47.4129 Q724.729 46.6606 727.565 45.156 L727.565 50.1907 Q724.7 51.406 721.691 52.0425 Q718.682 52.6791 715.586 52.6791 Q707.831 52.6791 703.288 48.1653 Q698.774 43.6514 698.774 35.9547 Q698.774 27.9975 703.057 23.339 Q707.368 18.6515 714.66 18.6515 Q721.199 18.6515 724.99 22.876 Q728.809 27.0716 728.809 34.3054 M723.485 32.7429 Q723.427 28.3737 721.025 25.7695 Q718.653 23.1654 714.718 23.1654 Q710.262 23.1654 707.571 25.6827 Q704.909 28.2001 704.504 32.7718 L723.485 32.7429 Z" fill="#000000" fill-rule="evenodd" fill-opacity="1" /><path clip-path="url(#clip020)" d="M 0 0 M731.297 19.4328 L736.621 19.4328 L743.276 44.722 L749.903 19.4328 L756.181 19.4328 L762.837 44.722 L769.463 19.4328 L774.787 19.4328 L766.309 51.84 L760.03 51.84 L753.056 25.2776 L746.054 51.84 L739.775 51.84 L731.297 19.4328 Z" fill="#000000" fill-rule="evenodd" fill-opacity="1" /><path clip-path="url(#clip020)" d="M 0 0 M801.031 20.3876 L801.031 25.4223 Q798.774 24.2649 796.343 23.6862 Q793.913 23.1075 791.309 23.1075 Q787.345 23.1075 785.348 24.3228 Q783.38 25.5381 783.38 27.9686 Q783.38 29.8204 784.798 30.891 Q786.216 31.9327 790.498 32.8876 L792.321 33.2926 Q797.993 34.5079 800.365 36.7359 Q802.767 38.935 802.767 42.8991 Q802.767 47.4129 799.179 50.046 Q795.62 52.6791 789.37 52.6791 Q786.766 52.6791 783.93 52.1583 Q781.123 51.6664 777.998 50.6537 L777.998 45.156 Q780.95 46.6896 783.814 47.4708 Q786.679 48.2231 789.486 48.2231 Q793.247 48.2231 795.273 46.95 Q797.298 45.6479 797.298 43.3042 Q797.298 41.134 795.822 39.9766 Q794.376 38.8192 789.428 37.7486 L787.576 37.3146 Q782.628 36.273 780.429 34.1318 Q778.23 31.9616 778.23 28.2001 Q778.23 23.6283 781.471 21.1399 Q784.711 18.6515 790.672 18.6515 Q793.623 18.6515 796.228 19.0855 Q798.832 19.5196 801.031 20.3876 Z" fill="#000000" fill-rule="evenodd" fill-opacity="1" /><path clip-path="url(#clip020)" d="M 0 0 M805.66 33.2348 L821.256 33.2348 L821.256 37.9801 L805.66 37.9801 L805.66 33.2348 Z" fill="#000000" fill-rule="evenodd" fill-opacity="1" /><path clip-path="url(#clip020)" d="M 0 0 M841.569 35.5496 Q835.116 35.5496 832.628 37.0253 Q830.139 38.501 830.139 42.06 Q830.139 44.8956 831.991 46.5738 Q833.872 48.2231 837.084 48.2231 Q841.511 48.2231 844.173 45.0981 Q846.864 41.9442 846.864 36.7359 L846.864 35.5496 L841.569 35.5496 M852.188 33.3505 L852.188 51.84 L846.864 51.84 L846.864 46.921 Q845.041 49.8724 842.321 51.2902 Q839.601 52.6791 835.666 52.6791 Q830.689 52.6791 827.738 49.9014 Q824.815 47.0947 824.815 42.4072 Q824.815 36.9385 828.461 34.1607 Q832.136 31.3829 839.399 31.3829 L846.864 31.3829 L846.864 30.8621 Q846.864 27.1874 844.433 25.1908 Q842.032 23.1654 837.663 23.1654 Q834.885 23.1654 832.252 23.8309 Q829.619 24.4964 827.188 25.8274 L827.188 20.9085 Q830.11 19.78 832.859 19.2302 Q835.608 18.6515 838.212 18.6515 Q845.244 18.6515 848.716 22.2973 Q852.188 25.9431 852.188 33.3505 Z" fill="#000000" fill-rule="evenodd" fill-opacity="1" /><path clip-path="url(#clip020)" d="M 0 0 M857.223 39.0507 L857.223 19.4328 L862.547 19.4328 L862.547 38.8482 Q862.547 43.4488 864.341 45.7636 Q866.135 48.0495 869.723 48.0495 Q874.034 48.0495 876.522 45.3007 Q879.04 42.5519 879.04 37.8065 L879.04 19.4328 L884.364 19.4328 L884.364 51.84 L879.04 51.84 L879.04 46.8632 Q877.101 49.8145 874.526 51.2613 Q871.979 52.6791 868.594 52.6791 Q863.01 52.6791 860.116 49.2069 Q857.223 45.7347 857.223 39.0507 M870.62 18.6515 L870.62 18.6515 Z" fill="#000000" fill-rule="evenodd" fill-opacity="1" /><path clip-path="url(#clip020)" d="M 0 0 M911.273 35.2602 Q911.273 29.4732 908.872 26.2904 Q906.499 23.1075 902.188 23.1075 Q897.905 23.1075 895.504 26.2904 Q893.131 29.4732 893.131 35.2602 Q893.131 41.0183 895.504 44.2012 Q897.905 47.384 902.188 47.384 Q906.499 47.384 908.872 44.2012 Q911.273 41.0183 911.273 35.2602 M916.597 47.818 Q916.597 56.0934 912.923 60.1154 Q909.248 64.1663 901.667 64.1663 Q898.86 64.1663 896.372 63.7323 Q893.883 63.3272 891.54 62.4592 L891.54 57.2798 Q893.883 58.5529 896.169 59.1606 Q898.455 59.7682 900.828 59.7682 Q906.065 59.7682 908.669 57.0194 Q911.273 54.2995 911.273 48.7729 L911.273 46.1398 Q909.624 49.0044 907.049 50.4222 Q904.474 51.84 900.886 51.84 Q894.925 51.84 891.279 47.2972 Q887.633 42.7544 887.633 35.2602 Q887.633 27.7371 891.279 23.1943 Q894.925 18.6515 900.886 18.6515 Q904.474 18.6515 907.049 20.0693 Q909.624 21.4872 911.273 24.3517 L911.273 19.4328 L916.597 19.4328 L916.597 47.818 Z" fill="#000000" fill-rule="evenodd" fill-opacity="1" /><path clip-path="url(#clip020)" d="M 0 0 M947.413 25.6538 Q949.41 22.0659 952.187 20.3587 Q954.965 18.6515 958.727 18.6515 Q963.79 18.6515 966.539 22.2105 Q969.288 25.7406 969.288 32.2799 L969.288 51.84 L963.935 51.84 L963.935 32.4535 Q963.935 27.795 962.286 25.5381 Q960.636 23.2811 957.251 23.2811 Q953.113 23.2811 950.712 26.03 Q948.31 28.7788 948.31 33.5241 L948.31 51.84 L942.957 51.84 L942.957 32.4535 Q942.957 27.7661 941.308 25.5381 Q939.659 23.2811 936.215 23.2811 Q932.135 23.2811 929.734 26.0589 Q927.332 28.8077 927.332 33.5241 L927.332 51.84 L921.979 51.84 L921.979 19.4328 L927.332 19.4328 L927.332 24.4675 Q929.155 21.4872 931.701 20.0693 Q934.248 18.6515 937.749 18.6515 Q941.279 18.6515 943.738 20.4455 Q946.227 22.2395 947.413 25.6538 Z" fill="#000000" fill-rule="evenodd" fill-opacity="1" /><path clip-path="url(#clip020)" d="M 0 0 M1002.59 34.3054 L1002.59 36.9095 L978.113 36.9095 Q978.46 42.4072 981.412 45.3007 Q984.392 48.1653 989.687 48.1653 Q992.754 48.1653 995.619 47.4129 Q998.512 46.6606 1001.35 45.156 L1001.35 50.1907 Q998.483 51.406 995.474 52.0425 Q992.465 52.6791 989.369 52.6791 Q981.614 52.6791 977.071 48.1653 Q972.558 43.6514 972.558 35.9547 Q972.558 27.9975 976.84 23.339 Q981.151 18.6515 988.443 18.6515 Q994.982 18.6515 998.773 22.876 Q1002.59 27.0716 1002.59 34.3054 M997.268 32.7429 Q997.21 28.3737 994.809 25.7695 Q992.436 23.1654 988.501 23.1654 Q984.045 23.1654 981.354 25.6827 Q978.692 28.2001 978.287 32.7718 L997.268 32.7429 Z" fill="#000000" fill-rule="evenodd" fill-opacity="1" /><path clip-path="url(#clip020)" d="M 0 0 M1035.12 32.2799 L1035.12 51.84 L1029.79 51.84 L1029.79 32.4535 Q1029.79 27.8529 1028 25.567 Q1026.2 23.2811 1022.62 23.2811 Q1018.3 23.2811 1015.82 26.03 Q1013.33 28.7788 1013.33 33.5241 L1013.33 51.84 L1007.97 51.84 L1007.97 19.4328 L1013.33 19.4328 L1013.33 24.4675 Q1015.24 21.545 1017.81 20.0983 Q1020.42 18.6515 1023.8 18.6515 Q1029.39 18.6515 1032.25 22.1237 Q1035.12 25.567 1035.12 32.2799 Z" fill="#000000" fill-rule="evenodd" fill-opacity="1" /><path clip-path="url(#clip020)" d="M 0 0 M1045.97 10.2314 L1045.97 19.4328 L1056.93 19.4328 L1056.93 23.5705 L1045.97 23.5705 L1045.97 41.163 Q1045.97 45.1271 1047.04 46.2555 Q1048.14 47.384 1051.46 47.384 L1056.93 47.384 L1056.93 51.84 L1051.46 51.84 Q1045.3 51.84 1042.96 49.5541 Q1040.61 47.2393 1040.61 41.163 L1040.61 23.5705 L1036.71 23.5705 L1036.71 19.4328 L1040.61 19.4328 L1040.61 10.2314 L1045.97 10.2314 Z" fill="#000000" fill-rule="evenodd" fill-opacity="1" /><path clip-path="url(#clip020)" d="M 0 0 M1090.24 34.3054 L1090.24 36.9095 L1065.76 36.9095 Q1066.1 42.4072 1069.06 45.3007 Q1072.04 48.1653 1077.33 48.1653 Q1080.4 48.1653 1083.26 47.4129 Q1086.16 46.6606 1088.99 45.156 L1088.99 50.1907 Q1086.13 51.406 1083.12 52.0425 Q1080.11 52.6791 1077.01 52.6791 Q1069.26 52.6791 1064.72 48.1653 Q1060.2 43.6514 1060.2 35.9547 Q1060.2 27.9975 1064.48 23.339 Q1068.8 18.6515 1076.09 18.6515 Q1082.63 18.6515 1086.42 22.876 Q1090.24 27.0716 1090.24 34.3054 M1084.91 32.7429 Q1084.85 28.3737 1082.45 25.7695 Q1080.08 23.1654 1076.15 23.1654 Q1071.69 23.1654 1069 25.6827 Q1066.34 28.2001 1065.93 32.7718 L1084.91 32.7429 Z" fill="#000000" fill-rule="evenodd" fill-opacity="1" /><path clip-path="url(#clip020)" d="M 0 0 M1117.15 24.3517 L1117.15 6.81709 L1122.47 6.81709 L1122.47 51.84 L1117.15 51.84 L1117.15 46.9789 Q1115.47 49.8724 1112.89 51.2902 Q1110.35 52.6791 1106.76 52.6791 Q1100.88 52.6791 1097.18 47.9916 Q1093.51 43.3042 1093.51 35.6653 Q1093.51 28.0265 1097.18 23.339 Q1100.88 18.6515 1106.76 18.6515 Q1110.35 18.6515 1112.89 20.0693 Q1115.47 21.4582 1117.15 24.3517 M1099 35.6653 Q1099 41.5391 1101.41 44.8956 Q1103.84 48.2231 1108.06 48.2231 Q1112.28 48.2231 1114.72 44.8956 Q1117.15 41.5391 1117.15 35.6653 Q1117.15 29.7915 1114.72 26.464 Q1112.28 23.1075 1108.06 23.1075 Q1103.84 23.1075 1101.41 26.464 Q1099 29.7915 1099 35.6653 Z" fill="#000000" fill-rule="evenodd" fill-opacity="1" /><path clip-path="url(#clip020)" d="M 0 0 M1170.21 20.677 L1170.21 25.6538 Q1167.96 24.4096 1165.67 23.802 Q1163.41 23.1654 1161.1 23.1654 Q1155.92 23.1654 1153.05 26.464 Q1150.19 29.7336 1150.19 35.6653 Q1150.19 41.597 1153.05 44.8956 Q1155.92 48.1653 1161.1 48.1653 Q1163.41 48.1653 1165.67 47.5576 Q1167.96 46.921 1170.21 45.6768 L1170.21 50.5958 Q1167.98 51.6375 1165.58 52.1583 Q1163.21 52.6791 1160.52 52.6791 Q1153.2 52.6791 1148.89 48.0784 Q1144.58 43.4778 1144.58 35.6653 Q1144.58 27.7371 1148.92 23.1943 Q1153.29 18.6515 1160.87 18.6515 Q1163.33 18.6515 1165.67 19.1724 Q1168.01 19.6642 1170.21 20.677 Z" fill="#000000" fill-rule="evenodd" fill-opacity="1" /><path clip-path="url(#clip020)" d="M 0 0 M1188.36 23.1654 Q1184.07 23.1654 1181.58 26.5218 Q1179.1 29.8494 1179.1 35.6653 Q1179.1 41.4813 1181.56 44.8377 Q1184.04 48.1653 1188.36 48.1653 Q1192.61 48.1653 1195.1 44.8088 Q1197.59 41.4523 1197.59 35.6653 Q1197.59 29.9072 1195.1 26.5508 Q1192.61 23.1654 1188.36 23.1654 M1188.36 18.6515 Q1195.3 18.6515 1199.26 23.1654 Q1203.23 27.6792 1203.23 35.6653 Q1203.23 43.6225 1199.26 48.1653 Q1195.3 52.6791 1188.36 52.6791 Q1181.38 52.6791 1177.42 48.1653 Q1173.48 43.6225 1173.48 35.6653 Q1173.48 27.6792 1177.42 23.1654 Q1181.38 18.6515 1188.36 18.6515 Z" fill="#000000" fill-rule="evenodd" fill-opacity="1" /><path clip-path="url(#clip020)" d="M 0 0 M1234.04 25.6538 Q1236.04 22.0659 1238.82 20.3587 Q1241.6 18.6515 1245.36 18.6515 Q1250.42 18.6515 1253.17 22.2105 Q1255.92 25.7406 1255.92 32.2799 L1255.92 51.84 L1250.57 51.84 L1250.57 32.4535 Q1250.57 27.795 1248.92 25.5381 Q1247.27 23.2811 1243.88 23.2811 Q1239.74 23.2811 1237.34 26.03 Q1234.94 28.7788 1234.94 33.5241 L1234.94 51.84 L1229.59 51.84 L1229.59 32.4535 Q1229.59 27.7661 1227.94 25.5381 Q1226.29 23.2811 1222.85 23.2811 Q1218.77 23.2811 1216.36 26.0589 Q1213.96 28.8077 1213.96 33.5241 L1213.96 51.84 L1208.61 51.84 L1208.61 19.4328 L1213.96 19.4328 L1213.96 24.4675 Q1215.79 21.4872 1218.33 20.0693 Q1220.88 18.6515 1224.38 18.6515 Q1227.91 18.6515 1230.37 20.4455 Q1232.86 22.2395 1234.04 25.6538 Z" fill="#000000" fill-rule="evenodd" fill-opacity="1" /><path clip-path="url(#clip020)" d="M 0 0 M1286.73 25.6538 Q1288.73 22.0659 1291.51 20.3587 Q1294.29 18.6515 1298.05 18.6515 Q1303.11 18.6515 1305.86 22.2105 Q1308.61 25.7406 1308.61 32.2799 L1308.61 51.84 L1303.26 51.84 L1303.26 32.4535 Q1303.26 27.795 1301.61 25.5381 Q1299.96 23.2811 1296.57 23.2811 Q1292.43 23.2811 1290.03 26.03 Q1287.63 28.7788 1287.63 33.5241 L1287.63 51.84 L1282.28 51.84 L1282.28 32.4535 Q1282.28 27.7661 1280.63 25.5381 Q1278.98 23.2811 1275.54 23.2811 Q1271.46 23.2811 1269.05 26.0589 Q1266.65 28.8077 1266.65 33.5241 L1266.65 51.84 L1261.3 51.84 L1261.3 19.4328 L1266.65 19.4328 L1266.65 24.4675 Q1268.48 21.4872 1271.02 20.0693 Q1273.57 18.6515 1277.07 18.6515 Q1280.6 18.6515 1283.06 20.4455 Q1285.55 22.2395 1286.73 25.6538 Z" fill="#000000" fill-rule="evenodd" fill-opacity="1" /><path clip-path="url(#clip020)" d="M 0 0 M1326.75 23.1654 Q1322.47 23.1654 1319.98 26.5218 Q1317.49 29.8494 1317.49 35.6653 Q1317.49 41.4813 1319.95 44.8377 Q1322.44 48.1653 1326.75 48.1653 Q1331 48.1653 1333.49 44.8088 Q1335.98 41.4523 1335.98 35.6653 Q1335.98 29.9072 1333.49 26.5508 Q1331 23.1654 1326.75 23.1654 M1326.75 18.6515 Q1333.7 18.6515 1337.66 23.1654 Q1341.62 27.6792 1341.62 35.6653 Q1341.62 43.6225 1337.66 48.1653 Q1333.7 52.6791 1326.75 52.6791 Q1319.78 52.6791 1315.81 48.1653 Q1311.88 43.6225 1311.88 35.6653 Q1311.88 27.6792 1315.81 23.1654 Q1319.78 18.6515 1326.75 18.6515 Z" fill="#000000" fill-rule="evenodd" fill-opacity="1" /><path clip-path="url(#clip020)" d="M 0 0 M1368.53 24.3517 L1368.53 6.81709 L1373.86 6.81709 L1373.86 51.84 L1368.53 51.84 L1368.53 46.9789 Q1366.86 49.8724 1364.28 51.2902 Q1361.73 52.6791 1358.15 52.6791 Q1352.27 52.6791 1348.57 47.9916 Q1344.89 43.3042 1344.89 35.6653 Q1344.89 28.0265 1348.57 23.339 Q1352.27 18.6515 1358.15 18.6515 Q1361.73 18.6515 1364.28 20.0693 Q1366.86 21.4582 1368.53 24.3517 M1350.39 35.6653 Q1350.39 41.5391 1352.79 44.8956 Q1355.22 48.2231 1359.45 48.2231 Q1363.67 48.2231 1366.1 44.8956 Q1368.53 41.5391 1368.53 35.6653 Q1368.53 29.7915 1366.1 26.464 Q1363.67 23.1075 1359.45 23.1075 Q1355.22 23.1075 1352.79 26.464 Q1350.39 29.7915 1350.39 35.6653 Z" fill="#000000" fill-rule="evenodd" fill-opacity="1" /><path clip-path="url(#clip020)" d="M 0 0 M1379.44 19.4328 L1384.77 19.4328 L1384.77 51.84 L1379.44 51.84 L1379.44 19.4328 M1379.44 6.81709 L1384.77 6.81709 L1384.77 13.559 L1379.44 13.559 L1379.44 6.81709 Z" fill="#000000" fill-rule="evenodd" fill-opacity="1" /><path clip-path="url(#clip020)" d="M 0 0 M1395.62 10.2314 L1395.62 19.4328 L1406.58 19.4328 L1406.58 23.5705 L1395.62 23.5705 L1395.62 41.163 Q1395.62 45.1271 1396.69 46.2555 Q1397.79 47.384 1401.11 47.384 L1406.58 47.384 L1406.58 51.84 L1401.11 51.84 Q1394.95 51.84 1392.61 49.5541 Q1390.26 47.2393 1390.26 41.163 L1390.26 23.5705 L1386.36 23.5705 L1386.36 19.4328 L1390.26 19.4328 L1390.26 10.2314 L1395.62 10.2314 Z" fill="#000000" fill-rule="evenodd" fill-opacity="1" /><path clip-path="url(#clip020)" d="M 0 0 M1425.65 54.8492 Q1423.39 60.6362 1421.25 62.4013 Q1419.11 64.1663 1415.52 64.1663 L1411.27 64.1663 L1411.27 59.7103 L1414.4 59.7103 Q1416.59 59.7103 1417.81 58.6687 Q1419.03 57.627 1420.5 53.7497 L1421.46 51.3192 L1408.35 19.4328 L1413.99 19.4328 L1424.12 44.7799 L1434.24 19.4328 L1439.89 19.4328 L1425.65 54.8492 Z" fill="#000000" fill-rule="evenodd" fill-opacity="1" /><path clip-path="url(#clip020)" d="M 0 0 M1484.97 20.3876 L1484.97 25.4223 Q1482.71 24.2649 1480.28 23.6862 Q1477.85 23.1075 1475.25 23.1075 Q1471.28 23.1075 1469.29 24.3228 Q1467.32 25.5381 1467.32 27.9686 Q1467.32 29.8204 1468.74 30.891 Q1470.15 31.9327 1474.44 32.8876 L1476.26 33.2926 Q1481.93 34.5079 1484.3 36.7359 Q1486.7 38.935 1486.7 42.8991 Q1486.7 47.4129 1483.12 50.046 Q1479.56 52.6791 1473.31 52.6791 Q1470.7 52.6791 1467.87 52.1583 Q1465.06 51.6664 1461.94 50.6537 L1461.94 45.156 Q1464.89 46.6896 1467.75 47.4708 Q1470.62 48.2231 1473.42 48.2231 Q1477.18 48.2231 1479.21 46.95 Q1481.24 45.6479 1481.24 43.3042 Q1481.24 41.134 1479.76 39.9766 Q1478.31 38.8192 1473.37 37.7486 L1471.51 37.3146 Q1466.57 36.273 1464.37 34.1318 Q1462.17 31.9616 1462.17 28.2001 Q1462.17 23.6283 1465.41 21.1399 Q1468.65 18.6515 1474.61 18.6515 Q1477.56 18.6515 1480.16 19.0855 Q1482.77 19.5196 1484.97 20.3876 Z" fill="#000000" fill-rule="evenodd" fill-opacity="1" /><path clip-path="url(#clip020)" d="M 0 0 M1519.23 32.2799 L1519.23 51.84 L1513.9 51.84 L1513.9 32.4535 Q1513.9 27.8529 1512.11 25.567 Q1510.32 23.2811 1506.73 23.2811 Q1502.42 23.2811 1499.93 26.03 Q1497.44 28.7788 1497.44 33.5241 L1497.44 51.84 L1492.09 51.84 L1492.09 6.81709 L1497.44 6.81709 L1497.44 24.4675 Q1499.35 21.545 1501.92 20.0983 Q1504.53 18.6515 1507.91 18.6515 Q1513.5 18.6515 1516.36 22.1237 Q1519.23 25.567 1519.23 32.2799 Z" fill="#000000" fill-rule="evenodd" fill-opacity="1" /><path clip-path="url(#clip020)" d="M 0 0 M1537.37 23.1654 Q1533.09 23.1654 1530.6 26.5218 Q1528.11 29.8494 1528.11 35.6653 Q1528.11 41.4813 1530.57 44.8377 Q1533.06 48.1653 1537.37 48.1653 Q1541.62 48.1653 1544.11 44.8088 Q1546.6 41.4523 1546.6 35.6653 Q1546.6 29.9072 1544.11 26.5508 Q1541.62 23.1654 1537.37 23.1654 M1537.37 18.6515 Q1544.31 18.6515 1548.28 23.1654 Q1552.24 27.6792 1552.24 35.6653 Q1552.24 43.6225 1548.28 48.1653 Q1544.31 52.6791 1537.37 52.6791 Q1530.4 52.6791 1526.43 48.1653 Q1522.5 43.6225 1522.5 35.6653 Q1522.5 27.6792 1526.43 23.1654 Q1530.4 18.6515 1537.37 18.6515 Z" fill="#000000" fill-rule="evenodd" fill-opacity="1" /><path clip-path="url(#clip020)" d="M 0 0 M1581.15 20.677 L1581.15 25.6538 Q1578.89 24.4096 1576.61 23.802 Q1574.35 23.1654 1572.03 23.1654 Q1566.85 23.1654 1563.99 26.464 Q1561.13 29.7336 1561.13 35.6653 Q1561.13 41.597 1563.99 44.8956 Q1566.85 48.1653 1572.03 48.1653 Q1574.35 48.1653 1576.61 47.5576 Q1578.89 46.921 1581.15 45.6768 L1581.15 50.5958 Q1578.92 51.6375 1576.52 52.1583 Q1574.15 52.6791 1571.45 52.6791 Q1564.13 52.6791 1559.82 48.0784 Q1555.51 43.4778 1555.51 35.6653 Q1555.51 27.7371 1559.85 23.1943 Q1564.22 18.6515 1571.8 18.6515 Q1574.26 18.6515 1576.61 19.1724 Q1578.95 19.6642 1581.15 20.677 Z" fill="#000000" fill-rule="evenodd" fill-opacity="1" /><path clip-path="url(#clip020)" d="M 0 0 M1586.53 6.81709 L1591.88 6.81709 L1591.88 33.4084 L1607.77 19.4328 L1614.57 19.4328 L1597.38 34.5947 L1615.29 51.84 L1608.35 51.84 L1591.88 36.0125 L1591.88 51.84 L1586.53 51.84 L1586.53 6.81709 Z" fill="#000000" fill-rule="evenodd" fill-opacity="1" /><path clip-path="url(#clip020)" d="M 0 0 M1641.54 20.3876 L1641.54 25.4223 Q1639.28 24.2649 1636.85 23.6862 Q1634.42 23.1075 1631.81 23.1075 Q1627.85 23.1075 1625.85 24.3228 Q1623.89 25.5381 1623.89 27.9686 Q1623.89 29.8204 1625.3 30.891 Q1626.72 31.9327 1631 32.8876 L1632.83 33.2926 Q1638.5 34.5079 1640.87 36.7359 Q1643.27 38.935 1643.27 42.8991 Q1643.27 47.4129 1639.68 50.046 Q1636.12 52.6791 1629.87 52.6791 Q1627.27 52.6791 1624.43 52.1583 Q1621.63 51.6664 1618.5 50.6537 L1618.5 45.156 Q1621.45 46.6896 1624.32 47.4708 Q1627.18 48.2231 1629.99 48.2231 Q1633.75 48.2231 1635.78 46.95 Q1637.8 45.6479 1637.8 43.3042 Q1637.8 41.134 1636.33 39.9766 Q1634.88 38.8192 1629.93 37.7486 L1628.08 37.3146 Q1623.13 36.273 1620.93 34.1318 Q1618.73 31.9616 1618.73 28.2001 Q1618.73 23.6283 1621.98 21.1399 Q1625.22 18.6515 1631.18 18.6515 Q1634.13 18.6515 1636.73 19.0855 Q1639.34 19.5196 1641.54 20.3876 Z" fill="#000000" fill-rule="evenodd" fill-opacity="1" /><path clip-path="url(#clip020)" d="M 0 0 M1663.87 19.4328 L1669.52 19.4328 L1679.64 46.6317 L1689.77 19.4328 L1695.41 19.4328 L1683.26 51.84 L1676.03 51.84 L1663.87 19.4328 Z" fill="#000000" fill-rule="evenodd" fill-opacity="1" /><path clip-path="url(#clip020)" d="M 0 0 M1721.66 20.3876 L1721.66 25.4223 Q1719.4 24.2649 1716.97 23.6862 Q1714.54 23.1075 1711.93 23.1075 Q1707.97 23.1075 1705.97 24.3228 Q1704.01 25.5381 1704.01 27.9686 Q1704.01 29.8204 1705.42 30.891 Q1706.84 31.9327 1711.12 32.8876 L1712.95 33.2926 Q1718.62 34.5079 1720.99 36.7359 Q1723.39 38.935 1723.39 42.8991 Q1723.39 47.4129 1719.8 50.046 Q1716.25 52.6791 1710 52.6791 Q1707.39 52.6791 1704.56 52.1583 Q1701.75 51.6664 1698.62 50.6537 L1698.62 45.156 Q1701.58 46.6896 1704.44 47.4708 Q1707.3 48.2231 1710.11 48.2231 Q1713.87 48.2231 1715.9 46.95 Q1717.92 45.6479 1717.92 43.3042 Q1717.92 41.134 1716.45 39.9766 Q1715 38.8192 1710.05 37.7486 L1708.2 37.3146 Q1703.25 36.273 1701.05 34.1318 Q1698.86 31.9616 1698.86 28.2001 Q1698.86 23.6283 1702.1 21.1399 Q1705.34 18.6515 1711.3 18.6515 Q1714.25 18.6515 1716.85 19.0855 Q1719.46 19.5196 1721.66 20.3876 Z" fill="#000000" fill-rule="evenodd" fill-opacity="1" /><path clip-path="url(#clip020)" d="M 0 0 M1777.5 45.6768 L1777.5 34.0739 L1767.95 34.0739 L1767.95 29.2707 L1783.29 29.2707 L1783.29 47.818 Q1779.9 50.2196 1775.82 51.4638 Q1771.74 52.6791 1767.11 52.6791 Q1756.99 52.6791 1751.26 46.7764 Q1745.56 40.8447 1745.56 30.2834 Q1745.56 19.6932 1751.26 13.7904 Q1756.99 7.85875 1767.11 7.85875 Q1771.34 7.85875 1775.13 8.90042 Q1778.95 9.94208 1782.16 11.9675 L1782.16 18.1886 Q1778.92 15.4397 1775.27 14.0509 Q1771.63 12.662 1767.61 12.662 Q1759.68 12.662 1755.68 17.089 Q1751.72 21.5161 1751.72 30.2834 Q1751.72 39.0218 1755.68 43.4488 Q1759.68 47.8759 1767.61 47.8759 Q1770.7 47.8759 1773.13 47.3551 Q1775.56 46.8053 1777.5 45.6768 Z" fill="#000000" fill-rule="evenodd" fill-opacity="1" /><path clip-path="url(#clip020)" d="M 0 0 M1794.66 46.921 L1815.06 46.921 L1815.06 51.84 L1787.63 51.84 L1787.63 46.921 Q1790.96 43.4778 1796.69 37.6908 Q1802.44 31.8748 1803.92 30.1966 Q1806.73 27.0427 1807.83 24.8726 Q1808.95 22.6735 1808.95 20.5612 Q1808.95 17.118 1806.52 14.9478 Q1804.12 12.7777 1800.24 12.7777 Q1797.5 12.7777 1794.43 13.7326 Q1791.39 14.6874 1787.92 16.6261 L1787.92 10.7233 Q1791.45 9.30551 1794.52 8.58213 Q1797.58 7.85875 1800.13 7.85875 Q1806.84 7.85875 1810.83 11.2152 Q1814.83 14.5717 1814.83 20.1851 Q1814.83 22.8471 1813.81 25.2487 Q1812.83 27.6214 1810.2 30.8621 Q1809.47 31.7012 1805.6 35.7232 Q1801.72 39.7162 1794.66 46.921 Z" fill="#000000" fill-rule="evenodd" fill-opacity="1" /><path clip-path="url(#clip020)" d="M 0 0 M1833.9 12.4884 Q1829.38 12.4884 1827.1 16.9444 Q1824.84 21.3714 1824.84 30.2834 Q1824.84 39.1665 1827.1 43.6225 Q1829.38 48.0495 1833.9 48.0495 Q1838.44 48.0495 1840.7 43.6225 Q1842.98 39.1665 1842.98 30.2834 Q1842.98 21.3714 1840.7 16.9444 Q1838.44 12.4884 1833.9 12.4884 M1833.9 7.85875 Q1841.16 7.85875 1844.98 13.6168 Q1848.83 19.346 1848.83 30.2834 Q1848.83 41.1919 1844.98 46.95 Q1841.16 52.6791 1833.9 52.6791 Q1826.63 52.6791 1822.78 46.95 Q1818.97 41.1919 1818.97 30.2834 Q1818.97 19.346 1822.78 13.6168 Q1826.63 7.85875 1833.9 7.85875 Z" fill="#000000" fill-rule="evenodd" fill-opacity="1" /><path clip-path="url(#clip020)" d="M 0 0 M1894.57 35.2602 Q1894.57 29.4732 1892.17 26.2904 Q1889.8 23.1075 1885.49 23.1075 Q1881.2 23.1075 1878.8 26.2904 Q1876.43 29.4732 1876.43 35.2602 Q1876.43 41.0183 1878.8 44.2012 Q1881.2 47.384 1885.49 47.384 Q1889.8 47.384 1892.17 44.2012 Q1894.57 41.0183 1894.57 35.2602 M1899.9 47.818 Q1899.9 56.0934 1896.22 60.1154 Q1892.55 64.1663 1884.97 64.1663 Q1882.16 64.1663 1879.67 63.7323 Q1877.18 63.3272 1874.84 62.4592 L1874.84 57.2798 Q1877.18 58.5529 1879.47 59.1606 Q1881.75 59.7682 1884.13 59.7682 Q1889.36 59.7682 1891.97 57.0194 Q1894.57 54.2995 1894.57 48.7729 L1894.57 46.1398 Q1892.92 49.0044 1890.35 50.4222 Q1887.77 51.84 1884.18 51.84 Q1878.22 51.84 1874.58 47.2972 Q1870.93 42.7544 1870.93 35.2602 Q1870.93 27.7371 1874.58 23.1943 Q1878.22 18.6515 1884.18 18.6515 Q1887.77 18.6515 1890.35 20.0693 Q1892.92 21.4872 1894.57 24.3517 L1894.57 19.4328 L1899.9 19.4328 L1899.9 47.818 Z" fill="#000000" fill-rule="evenodd" fill-opacity="1" /><path clip-path="url(#clip020)" d="M 0 0 M1924.26 24.4096 Q1923.36 23.8888 1922.29 23.6573 Q1921.25 23.3969 1919.98 23.3969 Q1915.46 23.3969 1913.03 26.3482 Q1910.63 29.2707 1910.63 34.7683 L1910.63 51.84 L1905.28 51.84 L1905.28 19.4328 L1910.63 19.4328 L1910.63 24.4675 Q1912.31 21.5161 1915 20.0983 Q1917.69 18.6515 1921.54 18.6515 Q1922.09 18.6515 1922.76 18.7383 Q1923.42 18.7962 1924.23 18.9409 L1924.26 24.4096 Z" fill="#000000" fill-rule="evenodd" fill-opacity="1" /><path clip-path="url(#clip020)" d="M 0 0 M1941.1 23.1654 Q1936.82 23.1654 1934.33 26.5218 Q1931.84 29.8494 1931.84 35.6653 Q1931.84 41.4813 1934.3 44.8377 Q1936.79 48.1653 1941.1 48.1653 Q1945.35 48.1653 1947.84 44.8088 Q1950.33 41.4523 1950.33 35.6653 Q1950.33 29.9072 1947.84 26.5508 Q1945.35 23.1654 1941.1 23.1654 M1941.1 18.6515 Q1948.04 18.6515 1952.01 23.1654 Q1955.97 27.6792 1955.97 35.6653 Q1955.97 43.6225 1952.01 48.1653 Q1948.04 52.6791 1941.1 52.6791 Q1934.13 52.6791 1930.16 48.1653 Q1926.23 43.6225 1926.23 35.6653 Q1926.23 27.6792 1930.16 23.1654 Q1934.13 18.6515 1941.1 18.6515 Z" fill="#000000" fill-rule="evenodd" fill-opacity="1" /><path clip-path="url(#clip020)" d="M 0 0 M1958.46 19.4328 L1963.78 19.4328 L1970.44 44.722 L1977.07 19.4328 L1983.35 19.4328 L1990 44.722 L1996.63 19.4328 L2001.95 19.4328 L1993.47 51.84 L1987.19 51.84 L1980.22 25.2776 L1973.22 51.84 L1966.94 51.84 L1958.46 19.4328 Z" fill="#000000" fill-rule="evenodd" fill-opacity="1" /><path clip-path="url(#clip020)" d="M 0 0 M2012.8 10.2314 L2012.8 19.4328 L2023.77 19.4328 L2023.77 23.5705 L2012.8 23.5705 L2012.8 41.163 Q2012.8 45.1271 2013.87 46.2555 Q2014.97 47.384 2018.3 47.384 L2023.77 47.384 L2023.77 51.84 L2018.3 51.84 Q2012.14 51.84 2009.79 49.5541 Q2007.45 47.2393 2007.45 41.163 L2007.45 23.5705 L2003.54 23.5705 L2003.54 19.4328 L2007.45 19.4328 L2007.45 10.2314 L2012.8 10.2314 Z" fill="#000000" fill-rule="evenodd" fill-opacity="1" /><path clip-path="url(#clip020)" d="M 0 0 M2056.29 32.2799 L2056.29 51.84 L2050.97 51.84 L2050.97 32.4535 Q2050.97 27.8529 2049.17 25.567 Q2047.38 23.2811 2043.79 23.2811 Q2039.48 23.2811 2036.99 26.03 Q2034.5 28.7788 2034.5 33.5241 L2034.5 51.84 L2029.15 51.84 L2029.15 6.81709 L2034.5 6.81709 L2034.5 24.4675 Q2036.41 21.545 2038.99 20.0983 Q2041.59 18.6515 2044.98 18.6515 Q2050.56 18.6515 2053.43 22.1237 Q2056.29 25.567 2056.29 32.2799 Z" fill="#000000" fill-rule="evenodd" fill-opacity="1" /><path clip-path="url(#clip022)" d="
M188.861 961.597 L212.204 696.806 L235.547 898.388 L258.89 889.849 L282.233 909.279 L305.576 859.324 L328.919 852.756 L352.262 788.659 L375.605 857.72 L398.948 899.78 
  L422.291 985.425 L445.633 940.518 L468.976 919.883 L492.319 1133.76 L515.662 978.886 L539.005 1193.82 L562.348 890.113 L585.691 986.155 L609.034 933.953 L632.377 870.096 
  L655.72 893.884 L679.063 955.52 L702.406 992.718 L725.749 933.322 L749.092 1022.44 L772.435 1052 L795.778 859.676 L819.121 976.035 L842.464 1051.89 L865.807 809.535 
  L889.15 1042.54 L912.493 957.374 L935.836 903.339 L959.179 746.517 L982.522 1021.87 L1005.87 863.549 L1029.21 815.075 L1052.55 967.11 L1075.89 971.229 L1099.24 1187.36 
  L1122.58 950.746 L1145.92 920.77 L1169.27 847.317 L1192.61 947.991 L1215.95 1065.67 L1239.3 896.266 L1262.64 934.717 L1285.98 977.363 L1309.32 913.809 L1332.67 1156.57 
  L1356.01 769.554 L1379.35 957.414 L1402.7 782.446 L1426.04 982.492 L1449.38 1022.92 L1472.73 1085.7 L1496.07 1447.38 L1519.41 876.244 L1542.75 694.916 L1566.1 947.037 
  L1589.44 933.361 L1612.78 921.822 L1636.13 896.37 L1659.47 838.984 L1682.81 739.088 L1706.16 789.32 L1729.5 808.388 L1752.84 998.821 L1776.18 1039.42 L1799.53 902.506 
  L1822.87 1079.23 L1846.21 864.901 L1869.56 884.402 L1892.9 853.327 L1916.24 990.9 L1939.58 834.709 L1962.93 799.432 L1986.27 975.804 L2009.61 890.593 L2032.96 989.836 
  L2056.3 1011.36 L2079.64 1080.81 L2102.99 1032.43 L2126.33 1167.23 L2149.67 949.875 L2173.01 847.086 L2196.36 1072.01 L2219.7 813.488 L2243.04 843.968 L2266.39 847.117 
  L2289.73 1072.31 L2289.73 554.905 L2266.39 549.831 L2243.04 327.775 L2219.7 498.515 L2196.36 353.152 L2173.01 501.914 L2149.67 532.354 L2126.33 718.797 L2102.99 465.228 
  L2079.64 677.496 L2056.3 716.24 L2032.96 270.111 L2009.61 485.809 L1986.27 573.668 L1962.93 554.318 L1939.58 487.658 L1916.24 611.013 L1892.9 402.655 L1869.56 429.764 
  L1846.21 544.266 L1822.87 536.467 L1799.53 446.163 L1776.18 571.926 L1752.84 420.521 L1729.5 564.255 L1706.16 478.193 L1682.81 298.363 L1659.47 725.707 L1636.13 569.575 
  L1612.78 216.246 L1589.44 516.942 L1566.1 434.258 L1542.75 301.258 L1519.41 474.349 L1496.07 897.692 L1472.73 702.676 L1449.38 447.305 L1426.04 145.256 L1402.7 411.971 
  L1379.35 465.184 L1356.01 415.944 L1332.67 551.24 L1309.32 665.191 L1285.98 358.342 L1262.64 210.249 L1239.3 352.508 L1215.95 493.841 L1192.61 366.014 L1169.27 600.766 
  L1145.92 509.846 L1122.58 488.483 L1099.24 543.64 L1075.89 542.439 L1052.55 347.064 L1029.21 542.559 L1005.87 537.438 L982.522 366.835 L959.179 454.792 L935.836 579.253 
  L912.493 611.45 L889.15 591.72 L865.807 529.568 L842.464 441.989 L819.121 536.701 L795.778 580.347 L772.435 478.018 L749.092 584.828 L725.749 487.193 L702.406 574.966 
  L679.063 619.376 L655.72 491.479 L632.377 562.405 L609.034 454.677 L585.691 430.226 L562.348 522.114 L539.005 693.892 L515.662 572.212 L492.319 634.943 L468.976 555.707 
  L445.633 634.482 L422.291 515.098 L398.948 524.427 L375.605 398.21 L352.262 521.371 L328.919 166.807 L305.576 179.555 L282.233 476.939 L258.89 721.69 L235.547 453.437 
  L212.204 337.899 L188.861 517.648  Z
  " fill="#008080" fill-rule="evenodd" fill-opacity="0.1"/>
<polyline clip-path="url(#clip022)" style="stroke:#008080; stroke-width:6; stroke-opacity:1; fill:none" points="
  188.861,793.414 212.204,544.469 235.547,686.729 258.89,775.575 282.233,689.737 305.576,653.48 328.919,577.234 352.262,683.441 375.605,614.38 398.948,704.253 
  422.291,729.276 445.633,782.168 468.976,763.802 492.319,835.835 515.662,716.504 539.005,902.809 562.348,731.425 585.691,692.772 609.034,671.093 632.377,714.166 
  655.72,711.146 679.063,760.133 702.406,778.538 725.749,768.912 749.092,710.855 772.435,755.613 795.778,731.728 819.121,747.329 842.464,751.126 865.807,656.757 
  889.15,781.172 912.493,816.345 935.836,753.268 959.179,647.183 982.522,825.451 1005.87,704.024 1029.21,660.856 1052.55,707.592 1075.89,771.796 1099.24,791.128 
  1122.58,757.085 1145.92,705.273 1169.27,740.528 1192.61,699.401 1215.95,729.401 1239.3,647.528 1262.64,682.035 1285.98,727.957 1309.32,781.062 1332.67,758.21 
  1356.01,587.215 1379.35,677.59 1402.7,539.984 1426.04,620.093 1449.38,714.2 1472.73,857.033 1496.07,1158.5 1519.41,633.361 1542.75,527.936 1566.1,665.808 
  1589.44,764.302 1612.78,629.38 1636.13,687.183 1659.47,773.97 1682.81,504.669 1706.16,623.198 1729.5,680.961 1752.84,764.541 1776.18,807.898 1799.53,612.567 
  1822.87,828.522 1846.21,719.523 1869.56,697.241 1892.9,611.917 1916.24,830.289 1939.58,673.265 1962.93,677.68 1986.27,754.239 2009.61,710.82 2032.96,680.151 
  2056.3,866.267 2079.64,872.046 2102.99,741.085 2126.33,888.873 2149.67,822.55 2173.01,739.675 2196.36,652.277 2219.7,695.525 2243.04,596.936 2266.39,703.108 
  2289.73,801.329 
  "/>
<polyline clip-path="url(#clip022)" style="stroke:#ff0000; stroke-width:5; stroke-opacity:0.85; fill:none" points="
  188.861,717.934 212.204,715.871 235.547,712.755 258.89,708.303 282.233,702.262 305.576,694.483 328.919,685.055 352.262,674.535 375.605,664.415 398.948,658.296 
  422.291,665.673 445.633,715.776 468.976,733.141 492.319,972.498 515.662,843.743 539.005,785.458 562.348,770.742 585.691,745.483 609.034,703.427 632.377,669.873 
  655.72,624.189 679.063,635.117 702.406,633.891 725.749,777.457 749.092,747.045 772.435,817.31 795.778,812.812 819.121,859.826 842.464,783.783 865.807,730.213 
  889.15,681.638 912.493,739.447 935.836,797.759 959.179,778.66 982.522,786.466 1005.87,640.391 1029.21,602.915 1052.55,661.707 1075.89,688.655 1099.24,699.616 
  1122.58,761.308 1145.92,706.361 1169.27,659.952 1192.61,657.8 1215.95,579.192 1239.3,494.674 1262.64,606.361 1285.98,660.501 1309.32,622.857 1332.67,667.273 
  1356.01,636.634 1379.35,679.595 1402.7,532.498 1426.04,635.31 1449.38,731.48 1472.73,886.012 1496.07,1185.95 1519.41,1273.36 1542.75,714.325 1566.1,665.674 
  1589.44,637.416 1612.78,640.895 1636.13,603.493 1659.47,645.407 1682.81,609.877 1706.16,707.936 1729.5,672.051 1752.84,715.134 1776.18,744.417 1799.53,762.965 
  1822.87,800.684 1846.21,737.769 1869.56,798.814 1892.9,672.03 1916.24,697.972 1939.58,683.849 1962.93,728.358 1986.27,815.543 2009.61,779.351 2032.96,720.259 
  2056.3,726.292 2079.64,715.818 2102.99,759.127 2126.33,793.3 2149.67,825.506 2173.01,813.865 2196.36,806.897 2219.7,746.561 2243.04,668.769 2266.39,665.962 
  2289.73,623.643 
  "/>
<path clip-path="url(#clip020)" d="
M197.835 1342.45 L1040.97 1342.45 L1040.97 1183.69 L197.835 1183.69  Z
  " fill="#ffffff" fill-rule="evenodd" fill-opacity="1"/>
<polyline clip-path="url(#clip020)" style="stroke:#000000; stroke-width:4; stroke-opacity:0; fill:none" points="
  197.835,1342.45 1040.97,1342.45 1040.97,1183.69 197.835,1183.69 197.835,1342.45 
  "/>
<polyline clip-path="url(#clip020)" style="stroke:#008080; stroke-width:3.5; stroke-opacity:1; fill:none" points="
  221.835,1236.61 365.835,1236.61 
  "/>
<path clip-path="url(#clip020)" d="M 0 0 M389.835 1221.49 L395.344 1221.49 L408.752 1246.79 L408.752 1221.49 L412.722 1221.49 L412.722 1251.73 L407.213 1251.73 L393.804 1226.43 L393.804 1251.73 L389.835 1251.73 L389.835 1221.49 Z" fill="#000000" fill-rule="evenodd" fill-opacity="1" /><path clip-path="url(#clip020)" d="M 0 0 M436.035 1239.45 L436.035 1241.28 L418.9 1241.28 Q419.143 1245.12 421.209 1247.15 Q423.295 1249.16 427.002 1249.16 Q429.149 1249.16 431.154 1248.63 Q433.179 1248.1 435.164 1247.05 L435.164 1250.57 Q433.159 1251.42 431.052 1251.87 Q428.946 1252.32 426.779 1252.32 Q421.351 1252.32 418.171 1249.16 Q415.011 1246 415.011 1240.61 Q415.011 1235.04 418.009 1231.78 Q421.026 1228.5 426.131 1228.5 Q430.708 1228.5 433.361 1231.45 Q436.035 1234.39 436.035 1239.45 M432.308 1238.36 Q432.268 1235.3 430.587 1233.48 Q428.926 1231.66 426.171 1231.66 Q423.052 1231.66 421.168 1233.42 Q419.305 1235.18 419.021 1238.38 L432.308 1238.36 Z" fill="#000000" fill-rule="evenodd" fill-opacity="1" /><path clip-path="url(#clip020)" d="M 0 0 M437.777 1229.04 L441.504 1229.04 L446.162 1246.75 L450.801 1229.04 L455.196 1229.04 L459.854 1246.75 L464.493 1229.04 L468.22 1229.04 L462.285 1251.73 L457.89 1251.73 L453.008 1233.13 L448.107 1251.73 L443.712 1251.73 L437.777 1229.04 Z" fill="#000000" fill-rule="evenodd" fill-opacity="1" /><path clip-path="url(#clip020)" d="M 0 0 M486.59 1229.71 L486.59 1233.24 Q485.011 1232.43 483.309 1232.02 Q481.608 1231.62 479.785 1231.62 Q477.01 1231.62 475.612 1232.47 Q474.235 1233.32 474.235 1235.02 Q474.235 1236.31 475.228 1237.06 Q476.22 1237.79 479.218 1238.46 L480.494 1238.74 Q484.464 1239.6 486.125 1241.16 Q487.806 1242.69 487.806 1245.47 Q487.806 1248.63 485.294 1250.47 Q482.803 1252.32 478.428 1252.32 Q476.605 1252.32 474.62 1251.95 Q472.655 1251.61 470.468 1250.9 L470.468 1247.05 Q472.534 1248.12 474.539 1248.67 Q476.544 1249.2 478.509 1249.2 Q481.142 1249.2 482.56 1248.3 Q483.978 1247.39 483.978 1245.75 Q483.978 1244.23 482.945 1243.42 Q481.932 1242.61 478.468 1241.86 L477.172 1241.56 Q473.708 1240.83 472.169 1239.33 Q470.63 1237.81 470.63 1235.18 Q470.63 1231.98 472.898 1230.24 Q475.167 1228.5 479.339 1228.5 Q481.405 1228.5 483.228 1228.8 Q485.051 1229.1 486.59 1229.71 Z" fill="#000000" fill-rule="evenodd" fill-opacity="1" /><path clip-path="url(#clip020)" d="M 0 0 M489.831 1238.7 L500.748 1238.7 L500.748 1242.03 L489.831 1242.03 L489.831 1238.7 Z" fill="#000000" fill-rule="evenodd" fill-opacity="1" /><path clip-path="url(#clip020)" d="M 0 0 M514.967 1240.32 Q510.45 1240.32 508.708 1241.36 Q506.966 1242.39 506.966 1244.88 Q506.966 1246.87 508.263 1248.04 Q509.579 1249.2 511.827 1249.2 Q514.926 1249.2 516.79 1247.01 Q518.674 1244.8 518.674 1241.16 L518.674 1240.32 L514.967 1240.32 M522.4 1238.79 L522.4 1251.73 L518.674 1251.73 L518.674 1248.28 Q517.397 1250.35 515.494 1251.34 Q513.59 1252.32 510.835 1252.32 Q507.351 1252.32 505.285 1250.37 Q503.24 1248.41 503.24 1245.12 Q503.24 1241.3 505.792 1239.35 Q508.364 1237.41 513.448 1237.41 L518.674 1237.41 L518.674 1237.04 Q518.674 1234.47 516.972 1233.07 Q515.291 1231.66 512.233 1231.66 Q510.288 1231.66 508.445 1232.12 Q506.602 1232.59 504.9 1233.52 L504.9 1230.08 Q506.946 1229.29 508.87 1228.9 Q510.795 1228.5 512.617 1228.5 Q517.539 1228.5 519.97 1231.05 Q522.4 1233.6 522.4 1238.79 Z" fill="#000000" fill-rule="evenodd" fill-opacity="1" /><path clip-path="url(#clip020)" d="M 0 0 M525.925 1242.78 L525.925 1229.04 L529.651 1229.04 L529.651 1242.63 Q529.651 1245.85 530.907 1247.47 Q532.163 1249.07 534.675 1249.07 Q537.693 1249.07 539.434 1247.15 Q541.197 1245.23 541.197 1241.9 L541.197 1229.04 L544.923 1229.04 L544.923 1251.73 L541.197 1251.73 L541.197 1248.24 Q539.839 1250.31 538.037 1251.32 Q536.254 1252.32 533.885 1252.32 Q529.976 1252.32 527.95 1249.88 Q525.925 1247.45 525.925 1242.78 M535.302 1228.5 L535.302 1228.5 Z" fill="#000000" fill-rule="evenodd" fill-opacity="1" /><path clip-path="url(#clip020)" d="M 0 0 M563.76 1240.12 Q563.76 1236.07 562.079 1233.84 Q560.418 1231.62 557.4 1231.62 Q554.402 1231.62 552.721 1233.84 Q551.06 1236.07 551.06 1240.12 Q551.06 1244.15 552.721 1246.38 Q554.402 1248.61 557.4 1248.61 Q560.418 1248.61 562.079 1246.38 Q563.76 1244.15 563.76 1240.12 M567.487 1248.91 Q567.487 1254.71 564.915 1257.52 Q562.342 1260.36 557.036 1260.36 Q555.071 1260.36 553.329 1260.05 Q551.587 1259.77 549.946 1259.16 L549.946 1255.54 Q551.587 1256.43 553.187 1256.85 Q554.787 1257.28 556.448 1257.28 Q560.114 1257.28 561.937 1255.35 Q563.76 1253.45 563.76 1249.58 L563.76 1247.74 Q562.606 1249.74 560.803 1250.74 Q559 1251.73 556.489 1251.73 Q552.316 1251.73 549.764 1248.55 Q547.212 1245.37 547.212 1240.12 Q547.212 1234.86 549.764 1231.68 Q552.316 1228.5 556.489 1228.5 Q559 1228.5 560.803 1229.49 Q562.606 1230.48 563.76 1232.49 L563.76 1229.04 L567.487 1229.04 L567.487 1248.91 Z" fill="#000000" fill-rule="evenodd" fill-opacity="1" /><path clip-path="url(#clip020)" d="M 0 0 M589.058 1233.4 Q590.456 1230.89 592.4 1229.69 Q594.344 1228.5 596.977 1228.5 Q600.522 1228.5 602.446 1230.99 Q604.37 1233.46 604.37 1238.04 L604.37 1251.73 L600.623 1251.73 L600.623 1238.16 Q600.623 1234.9 599.469 1233.32 Q598.314 1231.74 595.945 1231.74 Q593.048 1231.74 591.367 1233.66 Q589.686 1235.59 589.686 1238.91 L589.686 1251.73 L585.939 1251.73 L585.939 1238.16 Q585.939 1234.88 584.784 1233.32 Q583.63 1231.74 581.219 1231.74 Q578.364 1231.74 576.682 1233.68 Q575.001 1235.61 575.001 1238.91 L575.001 1251.73 L571.254 1251.73 L571.254 1229.04 L575.001 1229.04 L575.001 1232.57 Q576.277 1230.48 578.06 1229.49 Q579.842 1228.5 582.293 1228.5 Q584.764 1228.5 586.486 1229.75 Q588.228 1231.01 589.058 1233.4 Z" fill="#000000" fill-rule="evenodd" fill-opacity="1" /><path clip-path="url(#clip020)" d="M 0 0 M627.683 1239.45 L627.683 1241.28 L610.548 1241.28 Q610.791 1245.12 612.857 1247.15 Q614.943 1249.16 618.65 1249.16 Q620.797 1249.16 622.802 1248.63 Q624.827 1248.1 626.812 1247.05 L626.812 1250.57 Q624.807 1251.42 622.701 1251.87 Q620.594 1252.32 618.427 1252.32 Q612.999 1252.32 609.819 1249.16 Q606.659 1246 606.659 1240.61 Q606.659 1235.04 609.657 1231.78 Q612.675 1228.5 617.779 1228.5 Q622.356 1228.5 625.01 1231.45 Q627.683 1234.39 627.683 1239.45 M623.957 1238.36 Q623.916 1235.3 622.235 1233.48 Q620.574 1231.66 617.819 1231.66 Q614.7 1231.66 612.817 1233.42 Q610.953 1235.18 610.67 1238.38 L623.957 1238.36 Z" fill="#000000" fill-rule="evenodd" fill-opacity="1" /><path clip-path="url(#clip020)" d="M 0 0 M650.449 1238.04 L650.449 1251.73 L646.723 1251.73 L646.723 1238.16 Q646.723 1234.94 645.467 1233.34 Q644.211 1231.74 641.699 1231.74 Q638.682 1231.74 636.94 1233.66 Q635.198 1235.59 635.198 1238.91 L635.198 1251.73 L631.451 1251.73 L631.451 1229.04 L635.198 1229.04 L635.198 1232.57 Q636.535 1230.52 638.337 1229.51 Q640.16 1228.5 642.53 1228.5 Q646.439 1228.5 648.444 1230.93 Q650.449 1233.34 650.449 1238.04 Z" fill="#000000" fill-rule="evenodd" fill-opacity="1" /><path clip-path="url(#clip020)" d="M 0 0 M658.045 1222.6 L658.045 1229.04 L665.721 1229.04 L665.721 1231.94 L658.045 1231.94 L658.045 1244.25 Q658.045 1247.03 658.794 1247.82 Q659.564 1248.61 661.893 1248.61 L665.721 1248.61 L665.721 1251.73 L661.893 1251.73 Q657.579 1251.73 655.938 1250.13 Q654.298 1248.51 654.298 1244.25 L654.298 1231.94 L651.563 1231.94 L651.563 1229.04 L654.298 1229.04 L654.298 1222.6 L658.045 1222.6 Z" fill="#000000" fill-rule="evenodd" fill-opacity="1" /><path clip-path="url(#clip020)" d="M 0 0 M689.034 1239.45 L689.034 1241.28 L671.899 1241.28 Q672.142 1245.12 674.208 1247.15 Q676.294 1249.16 680.001 1249.16 Q682.148 1249.16 684.153 1248.63 Q686.178 1248.1 688.163 1247.05 L688.163 1250.57 Q686.158 1251.42 684.052 1251.87 Q681.945 1252.32 679.778 1252.32 Q674.35 1252.32 671.17 1249.16 Q668.01 1246 668.01 1240.61 Q668.01 1235.04 671.008 1231.78 Q674.026 1228.5 679.13 1228.5 Q683.707 1228.5 686.361 1231.45 Q689.034 1234.39 689.034 1239.45 M685.307 1238.36 Q685.267 1235.3 683.586 1233.48 Q681.925 1231.66 679.17 1231.66 Q676.051 1231.66 674.167 1233.42 Q672.304 1235.18 672.02 1238.38 L685.307 1238.36 Z" fill="#000000" fill-rule="evenodd" fill-opacity="1" /><path clip-path="url(#clip020)" d="M 0 0 M707.871 1232.49 L707.871 1220.21 L711.598 1220.21 L711.598 1251.73 L707.871 1251.73 L707.871 1248.33 Q706.696 1250.35 704.894 1251.34 Q703.111 1252.32 700.6 1252.32 Q696.488 1252.32 693.895 1249.03 Q691.323 1245.75 691.323 1240.41 Q691.323 1235.06 693.895 1231.78 Q696.488 1228.5 700.6 1228.5 Q703.111 1228.5 704.894 1229.49 Q706.696 1230.46 707.871 1232.49 M695.171 1240.41 Q695.171 1244.52 696.853 1246.87 Q698.554 1249.2 701.511 1249.2 Q704.468 1249.2 706.17 1246.87 Q707.871 1244.52 707.871 1240.41 Q707.871 1236.29 706.17 1233.96 Q704.468 1231.62 701.511 1231.62 Q698.554 1231.62 696.853 1233.96 Q695.171 1236.29 695.171 1240.41 Z" fill="#000000" fill-rule="evenodd" fill-opacity="1" /><path clip-path="url(#clip020)" d="M 0 0 M745.018 1229.91 L745.018 1233.4 Q743.438 1232.53 741.838 1232.1 Q740.258 1231.66 738.638 1231.66 Q735.012 1231.66 733.007 1233.96 Q731.002 1236.25 731.002 1240.41 Q731.002 1244.56 733.007 1246.87 Q735.012 1249.16 738.638 1249.16 Q740.258 1249.16 741.838 1248.73 Q743.438 1248.28 745.018 1247.41 L745.018 1250.86 Q743.458 1251.59 741.777 1251.95 Q740.116 1252.32 738.233 1252.32 Q733.108 1252.32 730.09 1249.09 Q727.072 1245.87 727.072 1240.41 Q727.072 1234.86 730.11 1231.68 Q733.169 1228.5 738.476 1228.5 Q740.197 1228.5 741.838 1228.86 Q743.478 1229.2 745.018 1229.91 Z" fill="#000000" fill-rule="evenodd" fill-opacity="1" /><path clip-path="url(#clip020)" d="M 0 0 M757.717 1231.66 Q754.72 1231.66 752.978 1234.01 Q751.236 1236.33 751.236 1240.41 Q751.236 1244.48 752.958 1246.83 Q754.699 1249.16 757.717 1249.16 Q760.695 1249.16 762.437 1246.81 Q764.179 1244.46 764.179 1240.41 Q764.179 1236.37 762.437 1234.03 Q760.695 1231.66 757.717 1231.66 M757.717 1228.5 Q762.578 1228.5 765.353 1231.66 Q768.128 1234.82 768.128 1240.41 Q768.128 1245.98 765.353 1249.16 Q762.578 1252.32 757.717 1252.32 Q752.836 1252.32 750.061 1249.16 Q747.307 1245.98 747.307 1240.41 Q747.307 1234.82 750.061 1231.66 Q752.836 1228.5 757.717 1228.5 Z" fill="#000000" fill-rule="evenodd" fill-opacity="1" /><path clip-path="url(#clip020)" d="M 0 0 M789.699 1233.4 Q791.097 1230.89 793.041 1229.69 Q794.986 1228.5 797.619 1228.5 Q801.163 1228.5 803.088 1230.99 Q805.012 1233.46 805.012 1238.04 L805.012 1251.73 L801.265 1251.73 L801.265 1238.16 Q801.265 1234.9 800.11 1233.32 Q798.956 1231.74 796.586 1231.74 Q793.689 1231.74 792.008 1233.66 Q790.327 1235.59 790.327 1238.91 L790.327 1251.73 L786.58 1251.73 L786.58 1238.16 Q786.58 1234.88 785.426 1233.32 Q784.271 1231.74 781.861 1231.74 Q779.005 1231.74 777.324 1233.68 Q775.643 1235.61 775.643 1238.91 L775.643 1251.73 L771.896 1251.73 L771.896 1229.04 L775.643 1229.04 L775.643 1232.57 Q776.919 1230.48 778.701 1229.49 Q780.483 1228.5 782.934 1228.5 Q785.405 1228.5 787.127 1229.75 Q788.869 1231.01 789.699 1233.4 Z" fill="#000000" fill-rule="evenodd" fill-opacity="1" /><path clip-path="url(#clip020)" d="M 0 0 M826.583 1233.4 Q827.98 1230.89 829.925 1229.69 Q831.869 1228.5 834.502 1228.5 Q838.047 1228.5 839.971 1230.99 Q841.895 1233.46 841.895 1238.04 L841.895 1251.73 L838.148 1251.73 L838.148 1238.16 Q838.148 1234.9 836.994 1233.32 Q835.839 1231.74 833.469 1231.74 Q830.573 1231.74 828.892 1233.66 Q827.211 1235.59 827.211 1238.91 L827.211 1251.73 L823.464 1251.73 L823.464 1238.16 Q823.464 1234.88 822.309 1233.32 Q821.155 1231.74 818.744 1231.74 Q815.888 1231.74 814.207 1233.68 Q812.526 1235.61 812.526 1238.91 L812.526 1251.73 L808.779 1251.73 L808.779 1229.04 L812.526 1229.04 L812.526 1232.57 Q813.802 1230.48 815.585 1229.49 Q817.367 1228.5 819.818 1228.5 Q822.289 1228.5 824.01 1229.75 Q825.752 1231.01 826.583 1233.4 Z" fill="#000000" fill-rule="evenodd" fill-opacity="1" /><path clip-path="url(#clip020)" d="M 0 0 M846.331 1246.58 L850.605 1246.58 L850.605 1251.73 L846.331 1251.73 L846.331 1246.58 Z" fill="#000000" fill-rule="evenodd" fill-opacity="1" /><path clip-path="url(#clip020)" d="M 0 0 M882.161 1229.71 L882.161 1233.24 Q880.581 1232.43 878.88 1232.02 Q877.179 1231.62 875.356 1231.62 Q872.581 1231.62 871.183 1232.47 Q869.806 1233.32 869.806 1235.02 Q869.806 1236.31 870.798 1237.06 Q871.791 1237.79 874.789 1238.46 L876.065 1238.74 Q880.034 1239.6 881.695 1241.16 Q883.376 1242.69 883.376 1245.47 Q883.376 1248.63 880.865 1250.47 Q878.374 1252.32 873.999 1252.32 Q872.176 1252.32 870.191 1251.95 Q868.226 1251.61 866.039 1250.9 L866.039 1247.05 Q868.105 1248.12 870.11 1248.67 Q872.115 1249.2 874.08 1249.2 Q876.713 1249.2 878.131 1248.3 Q879.548 1247.39 879.548 1245.75 Q879.548 1244.23 878.515 1243.42 Q877.503 1242.61 874.039 1241.86 L872.743 1241.56 Q869.279 1240.83 867.74 1239.33 Q866.201 1237.81 866.201 1235.18 Q866.201 1231.98 868.469 1230.24 Q870.738 1228.5 874.91 1228.5 Q876.976 1228.5 878.799 1228.8 Q880.622 1229.1 882.161 1229.71 Z" fill="#000000" fill-rule="evenodd" fill-opacity="1" /><path clip-path="url(#clip020)" d="M 0 0 M906.143 1238.04 L906.143 1251.73 L902.416 1251.73 L902.416 1238.16 Q902.416 1234.94 901.16 1233.34 Q899.904 1231.74 897.393 1231.74 Q894.375 1231.74 892.633 1233.66 Q890.891 1235.59 890.891 1238.91 L890.891 1251.73 L887.144 1251.73 L887.144 1220.21 L890.891 1220.21 L890.891 1232.57 Q892.228 1230.52 894.03 1229.51 Q895.853 1228.5 898.223 1228.5 Q902.132 1228.5 904.137 1230.93 Q906.143 1233.34 906.143 1238.04 Z" fill="#000000" fill-rule="evenodd" fill-opacity="1" /><path clip-path="url(#clip020)" d="M 0 0 M918.842 1231.66 Q915.844 1231.66 914.103 1234.01 Q912.361 1236.33 912.361 1240.41 Q912.361 1244.48 914.082 1246.83 Q915.824 1249.16 918.842 1249.16 Q921.82 1249.16 923.561 1246.81 Q925.303 1244.46 925.303 1240.41 Q925.303 1236.37 923.561 1234.03 Q921.82 1231.66 918.842 1231.66 M918.842 1228.5 Q923.703 1228.5 926.478 1231.66 Q929.253 1234.82 929.253 1240.41 Q929.253 1245.98 926.478 1249.16 Q923.703 1252.32 918.842 1252.32 Q913.961 1252.32 911.186 1249.16 Q908.431 1245.98 908.431 1240.41 Q908.431 1234.82 911.186 1231.66 Q913.961 1228.5 918.842 1228.5 Z" fill="#000000" fill-rule="evenodd" fill-opacity="1" /><path clip-path="url(#clip020)" d="M 0 0 M949.487 1229.91 L949.487 1233.4 Q947.907 1232.53 946.307 1232.1 Q944.727 1231.66 943.107 1231.66 Q939.481 1231.66 937.476 1233.96 Q935.471 1236.25 935.471 1240.41 Q935.471 1244.56 937.476 1246.87 Q939.481 1249.16 943.107 1249.16 Q944.727 1249.16 946.307 1248.73 Q947.907 1248.28 949.487 1247.41 L949.487 1250.86 Q947.928 1251.59 946.246 1251.95 Q944.586 1252.32 942.702 1252.32 Q937.578 1252.32 934.56 1249.09 Q931.542 1245.87 931.542 1240.41 Q931.542 1234.86 934.58 1231.68 Q937.638 1228.5 942.945 1228.5 Q944.667 1228.5 946.307 1228.86 Q947.948 1229.2 949.487 1229.91 Z" fill="#000000" fill-rule="evenodd" fill-opacity="1" /><path clip-path="url(#clip020)" d="M 0 0 M953.255 1220.21 L957.002 1220.21 L957.002 1238.83 L968.121 1229.04 L972.881 1229.04 L960.85 1239.66 L973.388 1251.73 L968.526 1251.73 L957.002 1240.65 L957.002 1251.73 L953.255 1251.73 L953.255 1220.21 Z" fill="#000000" fill-rule="evenodd" fill-opacity="1" /><path clip-path="url(#clip020)" d="M 0 0 M991.758 1229.71 L991.758 1233.24 Q990.179 1232.43 988.477 1232.02 Q986.776 1231.62 984.953 1231.62 Q982.178 1231.62 980.78 1232.47 Q979.403 1233.32 979.403 1235.02 Q979.403 1236.31 980.396 1237.06 Q981.388 1237.79 984.386 1238.46 L985.662 1238.74 Q989.632 1239.6 991.293 1241.16 Q992.974 1242.69 992.974 1245.47 Q992.974 1248.63 990.462 1250.47 Q987.971 1252.32 983.596 1252.32 Q981.773 1252.32 979.788 1251.95 Q977.823 1251.61 975.636 1250.9 L975.636 1247.05 Q977.702 1248.12 979.707 1248.67 Q981.712 1249.2 983.677 1249.2 Q986.31 1249.2 987.728 1248.3 Q989.146 1247.39 989.146 1245.75 Q989.146 1244.23 988.113 1243.42 Q987.1 1242.61 983.636 1241.86 L982.34 1241.56 Q978.876 1240.83 977.337 1239.33 Q975.798 1237.81 975.798 1235.18 Q975.798 1231.98 978.066 1230.24 Q980.335 1228.5 984.507 1228.5 Q986.573 1228.5 988.396 1228.8 Q990.219 1229.1 991.758 1229.71 Z" fill="#000000" fill-rule="evenodd" fill-opacity="1" /><polyline clip-path="url(#clip020)" style="stroke:#ff0000; stroke-width:3.5; stroke-opacity:0.85; fill:none" points="
  221.835,1289.53 365.835,1289.53 
  "/>
<path clip-path="url(#clip020)" d="M 0 0 M412.196 1300.33 L412.196 1292.21 L405.512 1292.21 L405.512 1288.85 L416.246 1288.85 L416.246 1301.83 Q413.877 1303.51 411.021 1304.38 Q408.165 1305.24 404.924 1305.24 Q397.835 1305.24 393.825 1301.1 Q389.835 1296.95 389.835 1289.56 Q389.835 1282.15 393.825 1278.01 Q397.835 1273.86 404.924 1273.86 Q407.881 1273.86 410.535 1274.59 Q413.208 1275.32 415.456 1276.74 L415.456 1281.09 Q413.188 1279.17 410.636 1278.2 Q408.084 1277.22 405.268 1277.22 Q399.719 1277.22 396.924 1280.32 Q394.149 1283.42 394.149 1289.56 Q394.149 1295.68 396.924 1298.77 Q399.719 1301.87 405.268 1301.87 Q407.436 1301.87 409.137 1301.51 Q410.838 1301.12 412.196 1300.33 Z" fill="#000000" fill-rule="evenodd" fill-opacity="1" /><path clip-path="url(#clip020)" d="M 0 0 M424.206 1301.2 L438.486 1301.2 L438.486 1304.65 L419.285 1304.65 L419.285 1301.2 Q421.614 1298.79 425.624 1294.74 Q429.655 1290.67 430.688 1289.5 Q432.653 1287.29 433.422 1285.77 Q434.212 1284.23 434.212 1282.75 Q434.212 1280.34 432.511 1278.82 Q430.83 1277.3 428.116 1277.3 Q426.191 1277.3 424.044 1277.97 Q421.918 1278.64 419.487 1280 L419.487 1275.87 Q421.958 1274.87 424.105 1274.37 Q426.252 1273.86 428.035 1273.86 Q432.734 1273.86 435.529 1276.21 Q438.324 1278.56 438.324 1282.49 Q438.324 1284.35 437.615 1286.03 Q436.926 1287.69 435.083 1289.96 Q434.577 1290.55 431.863 1293.37 Q429.149 1296.16 424.206 1301.2 Z" fill="#000000" fill-rule="evenodd" fill-opacity="1" /><path clip-path="url(#clip020)" d="M 0 0 M451.672 1277.1 Q448.512 1277.1 446.912 1280.22 Q445.332 1283.32 445.332 1289.56 Q445.332 1295.78 446.912 1298.9 Q448.512 1301.99 451.672 1301.99 Q454.852 1301.99 456.431 1298.9 Q458.031 1295.78 458.031 1289.56 Q458.031 1283.32 456.431 1280.22 Q454.852 1277.1 451.672 1277.1 M451.672 1273.86 Q456.755 1273.86 459.429 1277.89 Q462.123 1281.9 462.123 1289.56 Q462.123 1297.19 459.429 1301.22 Q456.755 1305.24 451.672 1305.24 Q446.588 1305.24 443.894 1301.22 Q441.22 1297.19 441.22 1289.56 Q441.22 1281.9 443.894 1277.89 Q446.588 1273.86 451.672 1273.86 Z" fill="#000000" fill-rule="evenodd" fill-opacity="1" /><path clip-path="url(#clip020)" d="M 0 0 M488.008 1284.58 Q485.011 1284.58 483.269 1286.93 Q481.527 1289.25 481.527 1293.33 Q481.527 1297.4 483.248 1299.75 Q484.99 1302.08 488.008 1302.08 Q490.986 1302.08 492.727 1299.73 Q494.469 1297.38 494.469 1293.33 Q494.469 1289.29 492.727 1286.95 Q490.986 1284.58 488.008 1284.58 M488.008 1281.42 Q492.869 1281.42 495.644 1284.58 Q498.419 1287.74 498.419 1293.33 Q498.419 1298.9 495.644 1302.08 Q492.869 1305.24 488.008 1305.24 Q483.127 1305.24 480.352 1302.08 Q477.597 1298.9 477.597 1293.33 Q477.597 1287.74 480.352 1284.58 Q483.127 1281.42 488.008 1281.42 Z" fill="#000000" fill-rule="evenodd" fill-opacity="1" /><path clip-path="url(#clip020)" d="M 0 0 M501.943 1295.7 L501.943 1281.96 L505.67 1281.96 L505.67 1295.55 Q505.67 1298.77 506.926 1300.39 Q508.182 1301.99 510.693 1301.99 Q513.711 1301.99 515.453 1300.07 Q517.215 1298.15 517.215 1294.82 L517.215 1281.96 L520.942 1281.96 L520.942 1304.65 L517.215 1304.65 L517.215 1301.16 Q515.858 1303.23 514.055 1304.24 Q512.273 1305.24 509.903 1305.24 Q505.994 1305.24 503.969 1302.8 Q501.943 1300.37 501.943 1295.7 M511.321 1281.42 L511.321 1281.42 Z" fill="#000000" fill-rule="evenodd" fill-opacity="1" /><path clip-path="url(#clip020)" d="M 0 0 M528.537 1275.52 L528.537 1281.96 L536.214 1281.96 L536.214 1284.86 L528.537 1284.86 L528.537 1297.17 Q528.537 1299.95 529.287 1300.74 Q530.057 1301.53 532.386 1301.53 L536.214 1301.53 L536.214 1304.65 L532.386 1304.65 Q528.072 1304.65 526.431 1303.05 Q524.79 1301.43 524.79 1297.17 L524.79 1284.86 L522.056 1284.86 L522.056 1281.96 L524.79 1281.96 L524.79 1275.52 L528.537 1275.52 Z" fill="#000000" fill-rule="evenodd" fill-opacity="1" /><path clip-path="url(#clip020)" d="M 0 0 M543.728 1301.25 L543.728 1313.28 L539.981 1313.28 L539.981 1281.96 L543.728 1281.96 L543.728 1285.41 Q544.903 1283.38 546.686 1282.41 Q548.488 1281.42 550.979 1281.42 Q555.111 1281.42 557.684 1284.7 Q560.276 1287.98 560.276 1293.33 Q560.276 1298.67 557.684 1301.95 Q555.111 1305.24 550.979 1305.24 Q548.488 1305.24 546.686 1304.26 Q544.903 1303.27 543.728 1301.25 M556.408 1293.33 Q556.408 1289.21 554.706 1286.88 Q553.025 1284.54 550.068 1284.54 Q547.111 1284.54 545.409 1286.88 Q543.728 1289.21 543.728 1293.33 Q543.728 1297.44 545.409 1299.79 Q547.111 1302.12 550.068 1302.12 Q553.025 1302.12 554.706 1299.79 Q556.408 1297.44 556.408 1293.33 Z" fill="#000000" fill-rule="evenodd" fill-opacity="1" /><path clip-path="url(#clip020)" d="M 0 0 M563.801 1295.7 L563.801 1281.96 L567.527 1281.96 L567.527 1295.55 Q567.527 1298.77 568.783 1300.39 Q570.039 1301.99 572.551 1301.99 Q575.568 1301.99 577.31 1300.07 Q579.073 1298.15 579.073 1294.82 L579.073 1281.96 L582.799 1281.96 L582.799 1304.65 L579.073 1304.65 L579.073 1301.16 Q577.715 1303.23 575.913 1304.24 Q574.13 1305.24 571.761 1305.24 Q567.851 1305.24 565.826 1302.8 Q563.801 1300.37 563.801 1295.7 M573.178 1281.42 L573.178 1281.42 Z" fill="#000000" fill-rule="evenodd" fill-opacity="1" /><path clip-path="url(#clip020)" d="M 0 0 M590.395 1275.52 L590.395 1281.96 L598.071 1281.96 L598.071 1284.86 L590.395 1284.86 L590.395 1297.17 Q590.395 1299.95 591.144 1300.74 Q591.914 1301.53 594.243 1301.53 L598.071 1301.53 L598.071 1304.65 L594.243 1304.65 Q589.929 1304.65 588.288 1303.05 Q586.648 1301.43 586.648 1297.17 L586.648 1284.86 L583.913 1284.86 L583.913 1281.96 L586.648 1281.96 L586.648 1275.52 L590.395 1275.52 Z" fill="#000000" fill-rule="evenodd" fill-opacity="1" /></svg>
