<?xml version="1.0" encoding="utf-8"?>
<svg xmlns="http://www.w3.org/2000/svg" xmlns:xlink="http://www.w3.org/1999/xlink" width="600" height="400" viewBox="0 0 2400 1600">
<defs>
  <clipPath id="clip320">
    <rect x="0" y="0" width="2400" height="1600"/>
  </clipPath>
</defs>
<path clip-path="url(#clip320)" d="
M0 1600 L2400 1600 L2400 0 L0 0  Z
  " fill="#ffffff" fill-rule="evenodd" fill-opacity="1"/>
<defs>
  <clipPath id="clip321">
    <rect x="480" y="0" width="1681" height="1600"/>
  </clipPath>
</defs>
<path clip-path="url(#clip320)" d="
M125.835 1486.45 L2352.76 1486.45 L2352.76 47.2441 L125.835 47.2441  Z
  " fill="#ffffff" fill-rule="evenodd" fill-opacity="1"/>
<defs>
  <clipPath id="clip322">
    <rect x="125" y="47" width="2228" height="1440"/>
  </clipPath>
</defs>
<polyline clip-path="url(#clip322)" style="stroke:#000000; stroke-width:2; stroke-opacity:0.1; fill:none" points="
  165.518,1486.45 165.518,47.2441 
  "/>
<polyline clip-path="url(#clip322)" style="stroke:#000000; stroke-width:2; stroke-opacity:0.1; fill:none" points="
  632.377,1486.45 632.377,47.2441 
  "/>
<polyline clip-path="url(#clip322)" style="stroke:#000000; stroke-width:2; stroke-opacity:0.1; fill:none" points="
  1099.24,1486.45 1099.24,47.2441 
  "/>
<polyline clip-path="url(#clip322)" style="stroke:#000000; stroke-width:2; stroke-opacity:0.1; fill:none" points="
  1566.1,1486.45 1566.1,47.2441 
  "/>
<polyline clip-path="url(#clip322)" style="stroke:#000000; stroke-width:2; stroke-opacity:0.1; fill:none" points="
  2032.96,1486.45 2032.96,47.2441 
  "/>
<polyline clip-path="url(#clip322)" style="stroke:#000000; stroke-width:2; stroke-opacity:0.1; fill:none" points="
  125.835,1405.12 2352.76,1405.12 
  "/>
<polyline clip-path="url(#clip322)" style="stroke:#000000; stroke-width:2; stroke-opacity:0.1; fill:none" points="
  125.835,1165.63 2352.76,1165.63 
  "/>
<polyline clip-path="url(#clip322)" style="stroke:#000000; stroke-width:2; stroke-opacity:0.1; fill:none" points="
  125.835,926.146 2352.76,926.146 
  "/>
<polyline clip-path="url(#clip322)" style="stroke:#000000; stroke-width:2; stroke-opacity:0.1; fill:none" points="
  125.835,686.66 2352.76,686.66 
  "/>
<polyline clip-path="url(#clip322)" style="stroke:#000000; stroke-width:2; stroke-opacity:0.1; fill:none" points="
  125.835,447.175 2352.76,447.175 
  "/>
<polyline clip-path="url(#clip322)" style="stroke:#000000; stroke-width:2; stroke-opacity:0.1; fill:none" points="
  125.835,207.69 2352.76,207.69 
  "/>
<polyline clip-path="url(#clip320)" style="stroke:#000000; stroke-width:4; stroke-opacity:1; fill:none" points="
  125.835,1486.45 2352.76,1486.45 
  "/>
<polyline clip-path="url(#clip320)" style="stroke:#000000; stroke-width:4; stroke-opacity:1; fill:none" points="
  125.835,1486.45 125.835,47.2441 
  "/>
<polyline clip-path="url(#clip320)" style="stroke:#000000; stroke-width:4; stroke-opacity:1; fill:none" points="
  165.518,1486.45 165.518,1469.18 
  "/>
<polyline clip-path="url(#clip320)" style="stroke:#000000; stroke-width:4; stroke-opacity:1; fill:none" points="
  632.377,1486.45 632.377,1469.18 
  "/>
<polyline clip-path="url(#clip320)" style="stroke:#000000; stroke-width:4; stroke-opacity:1; fill:none" points="
  1099.24,1486.45 1099.24,1469.18 
  "/>
<polyline clip-path="url(#clip320)" style="stroke:#000000; stroke-width:4; stroke-opacity:1; fill:none" points="
  1566.1,1486.45 1566.1,1469.18 
  "/>
<polyline clip-path="url(#clip320)" style="stroke:#000000; stroke-width:4; stroke-opacity:1; fill:none" points="
  2032.96,1486.45 2032.96,1469.18 
  "/>
<polyline clip-path="url(#clip320)" style="stroke:#000000; stroke-width:4; stroke-opacity:1; fill:none" points="
  125.835,1405.12 152.558,1405.12 
  "/>
<polyline clip-path="url(#clip320)" style="stroke:#000000; stroke-width:4; stroke-opacity:1; fill:none" points="
  125.835,1165.63 152.558,1165.63 
  "/>
<polyline clip-path="url(#clip320)" style="stroke:#000000; stroke-width:4; stroke-opacity:1; fill:none" points="
  125.835,926.146 152.558,926.146 
  "/>
<polyline clip-path="url(#clip320)" style="stroke:#000000; stroke-width:4; stroke-opacity:1; fill:none" points="
  125.835,686.66 152.558,686.66 
  "/>
<polyline clip-path="url(#clip320)" style="stroke:#000000; stroke-width:4; stroke-opacity:1; fill:none" points="
  125.835,447.175 152.558,447.175 
  "/>
<polyline clip-path="url(#clip320)" style="stroke:#000000; stroke-width:4; stroke-opacity:1; fill:none" points="
  125.835,207.69 152.558,207.69 
  "/>
<path clip-path="url(#clip320)" d="M 0 0 M165.518 1508.44 Q161.907 1508.44 160.078 1512 Q158.272 1515.55 158.272 1522.67 Q158.272 1529.78 160.078 1533.35 Q161.907 1536.89 165.518 1536.89 Q169.152 1536.89 170.957 1533.35 Q172.786 1529.78 172.786 1522.67 Q172.786 1515.55 170.957 1512 Q169.152 1508.44 165.518 1508.44 M165.518 1504.73 Q171.328 1504.73 174.383 1509.34 Q177.462 1513.92 177.462 1522.67 Q177.462 1531.4 174.383 1536.01 Q171.328 1540.59 165.518 1540.59 Q159.707 1540.59 156.629 1536.01 Q153.573 1531.4 153.573 1522.67 Q153.573 1513.92 156.629 1509.34 Q159.707 1504.73 165.518 1504.73 Z" fill="#000000" fill-rule="evenodd" fill-opacity="1" /><path clip-path="url(#clip320)" d="M 0 0 M613.523 1535.98 L629.843 1535.98 L629.843 1539.92 L607.898 1539.92 L607.898 1535.98 Q610.56 1533.23 615.144 1528.6 Q619.75 1523.95 620.931 1522.61 Q623.176 1520.08 624.056 1518.35 Q624.958 1516.59 624.958 1514.9 Q624.958 1512.14 623.014 1510.41 Q621.093 1508.67 617.991 1508.67 Q615.792 1508.67 613.338 1509.43 Q610.908 1510.2 608.13 1511.75 L608.13 1507.03 Q610.954 1505.89 613.408 1505.31 Q615.861 1504.73 617.898 1504.73 Q623.269 1504.73 626.463 1507.42 Q629.658 1510.11 629.658 1514.6 Q629.658 1516.73 628.847 1518.65 Q628.06 1520.54 625.954 1523.14 Q625.375 1523.81 622.273 1527.03 Q619.171 1530.22 613.523 1535.98 Z" fill="#000000" fill-rule="evenodd" fill-opacity="1" /><path clip-path="url(#clip320)" d="M 0 0 M644.912 1508.44 Q641.301 1508.44 639.472 1512 Q637.667 1515.55 637.667 1522.67 Q637.667 1529.78 639.472 1533.35 Q641.301 1536.89 644.912 1536.89 Q648.546 1536.89 650.352 1533.35 Q652.181 1529.78 652.181 1522.67 Q652.181 1515.55 650.352 1512 Q648.546 1508.44 644.912 1508.44 M644.912 1504.73 Q650.722 1504.73 653.778 1509.34 Q656.856 1513.92 656.856 1522.67 Q656.856 1531.4 653.778 1536.01 Q650.722 1540.59 644.912 1540.59 Q639.102 1540.59 636.023 1536.01 Q632.968 1531.4 632.968 1522.67 Q632.968 1513.92 636.023 1509.34 Q639.102 1504.73 644.912 1504.73 Z" fill="#000000" fill-rule="evenodd" fill-opacity="1" /><path clip-path="url(#clip320)" d="M 0 0 M1088.74 1509.43 L1076.93 1527.88 L1088.74 1527.88 L1088.74 1509.43 M1087.51 1505.36 L1093.39 1505.36 L1093.39 1527.88 L1098.32 1527.88 L1098.32 1531.77 L1093.39 1531.77 L1093.39 1539.92 L1088.74 1539.92 L1088.74 1531.77 L1073.14 1531.77 L1073.14 1527.26 L1087.51 1505.36 Z" fill="#000000" fill-rule="evenodd" fill-opacity="1" /><path clip-path="url(#clip320)" d="M 0 0 M1113.39 1508.44 Q1109.78 1508.44 1107.95 1512 Q1106.15 1515.55 1106.15 1522.67 Q1106.15 1529.78 1107.95 1533.35 Q1109.78 1536.89 1113.39 1536.89 Q1117.03 1536.89 1118.83 1533.35 Q1120.66 1529.78 1120.66 1522.67 Q1120.66 1515.55 1118.83 1512 Q1117.03 1508.44 1113.39 1508.44 M1113.39 1504.73 Q1119.2 1504.73 1122.26 1509.34 Q1125.34 1513.92 1125.34 1522.67 Q1125.34 1531.4 1122.26 1536.01 Q1119.2 1540.59 1113.39 1540.59 Q1107.58 1540.59 1104.5 1536.01 Q1101.45 1531.4 1101.45 1522.67 Q1101.45 1513.92 1104.5 1509.34 Q1107.58 1504.73 1113.39 1504.73 Z" fill="#000000" fill-rule="evenodd" fill-opacity="1" /><path clip-path="url(#clip320)" d="M 0 0 M1553 1520.78 Q1549.85 1520.78 1548 1522.93 Q1546.17 1525.08 1546.17 1528.83 Q1546.17 1532.56 1548 1534.73 Q1549.85 1536.89 1553 1536.89 Q1556.14 1536.89 1557.97 1534.73 Q1559.82 1532.56 1559.82 1528.83 Q1559.82 1525.08 1557.97 1522.93 Q1556.14 1520.78 1553 1520.78 M1562.28 1506.12 L1562.28 1510.38 Q1560.52 1509.55 1558.71 1509.11 Q1556.93 1508.67 1555.17 1508.67 Q1550.54 1508.67 1548.09 1511.8 Q1545.66 1514.92 1545.31 1521.24 Q1546.68 1519.23 1548.74 1518.16 Q1550.8 1517.07 1553.27 1517.07 Q1558.48 1517.07 1561.49 1520.24 Q1564.52 1523.39 1564.52 1528.83 Q1564.52 1534.16 1561.37 1537.37 Q1558.23 1540.59 1553 1540.59 Q1547 1540.59 1543.83 1536.01 Q1540.66 1531.4 1540.66 1522.67 Q1540.66 1514.48 1544.55 1509.62 Q1548.44 1504.73 1554.99 1504.73 Q1556.75 1504.73 1558.53 1505.08 Q1560.33 1505.43 1562.28 1506.12 Z" fill="#000000" fill-rule="evenodd" fill-opacity="1" /><path clip-path="url(#clip320)" d="M 0 0 M1579.59 1508.44 Q1575.98 1508.44 1574.15 1512 Q1572.35 1515.55 1572.35 1522.67 Q1572.35 1529.78 1574.15 1533.35 Q1575.98 1536.89 1579.59 1536.89 Q1583.23 1536.89 1585.03 1533.35 Q1586.86 1529.78 1586.86 1522.67 Q1586.86 1515.55 1585.03 1512 Q1583.23 1508.44 1579.59 1508.44 M1579.59 1504.73 Q1585.4 1504.73 1588.46 1509.34 Q1591.54 1513.92 1591.54 1522.67 Q1591.54 1531.4 1588.46 1536.01 Q1585.4 1540.59 1579.59 1540.59 Q1573.78 1540.59 1570.7 1536.01 Q1567.65 1531.4 1567.65 1522.67 Q1567.65 1513.92 1570.7 1509.34 Q1573.78 1504.73 1579.59 1504.73 Z" fill="#000000" fill-rule="evenodd" fill-opacity="1" /><path clip-path="url(#clip320)" d="M 0 0 M2019.45 1523.51 Q2016.12 1523.51 2014.2 1525.29 Q2012.3 1527.07 2012.3 1530.2 Q2012.3 1533.32 2014.2 1535.11 Q2016.12 1536.89 2019.45 1536.89 Q2022.78 1536.89 2024.7 1535.11 Q2026.63 1533.3 2026.63 1530.2 Q2026.63 1527.07 2024.7 1525.29 Q2022.81 1523.51 2019.45 1523.51 M2014.77 1521.52 Q2011.76 1520.78 2010.08 1518.72 Q2008.41 1516.66 2008.41 1513.69 Q2008.41 1509.55 2011.35 1507.14 Q2014.31 1504.73 2019.45 1504.73 Q2024.61 1504.73 2027.55 1507.14 Q2030.49 1509.55 2030.49 1513.69 Q2030.49 1516.66 2028.8 1518.72 Q2027.14 1520.78 2024.15 1521.52 Q2027.53 1522.3 2029.4 1524.6 Q2031.3 1526.89 2031.3 1530.2 Q2031.3 1535.22 2028.22 1537.91 Q2025.17 1540.59 2019.45 1540.59 Q2013.73 1540.59 2010.65 1537.91 Q2007.6 1535.22 2007.6 1530.2 Q2007.6 1526.89 2009.5 1524.6 Q2011.39 1522.3 2014.77 1521.52 M2013.06 1514.13 Q2013.06 1516.82 2014.73 1518.32 Q2016.42 1519.83 2019.45 1519.83 Q2022.46 1519.83 2024.15 1518.32 Q2025.86 1516.82 2025.86 1514.13 Q2025.86 1511.45 2024.15 1509.94 Q2022.46 1508.44 2019.45 1508.44 Q2016.42 1508.44 2014.73 1509.94 Q2013.06 1511.45 2013.06 1514.13 Z" fill="#000000" fill-rule="evenodd" fill-opacity="1" /><path clip-path="url(#clip320)" d="M 0 0 M2046.37 1508.44 Q2042.76 1508.44 2040.93 1512 Q2039.13 1515.55 2039.13 1522.67 Q2039.13 1529.78 2040.93 1533.35 Q2042.76 1536.89 2046.37 1536.89 Q2050.01 1536.89 2051.81 1533.35 Q2053.64 1529.78 2053.64 1522.67 Q2053.64 1515.55 2051.81 1512 Q2050.01 1508.44 2046.37 1508.44 M2046.37 1504.73 Q2052.18 1504.73 2055.24 1509.34 Q2058.32 1513.92 2058.32 1522.67 Q2058.32 1531.4 2055.24 1536.01 Q2052.18 1540.59 2046.37 1540.59 Q2040.56 1540.59 2037.48 1536.01 Q2034.43 1531.4 2034.43 1522.67 Q2034.43 1513.92 2037.48 1509.34 Q2040.56 1504.73 2046.37 1504.73 Z" fill="#000000" fill-rule="evenodd" fill-opacity="1" /><path clip-path="url(#clip320)" d="M 0 0 M62.9921 1407.51 L75.4689 1407.51 L75.4689 1411.31 L62.9921 1411.31 L62.9921 1407.51 Z" fill="#000000" fill-rule="evenodd" fill-opacity="1" /><path clip-path="url(#clip320)" d="M 0 0 M94.7049 1403.76 Q98.0614 1404.48 99.9364 1406.75 Q101.835 1409.02 101.835 1412.35 Q101.835 1417.47 98.316 1420.27 Q94.7975 1423.07 88.3161 1423.07 Q86.1402 1423.07 83.8253 1422.63 Q81.5337 1422.21 79.08 1421.36 L79.08 1416.84 Q81.0244 1417.98 83.3392 1418.55 Q85.654 1419.13 88.1772 1419.13 Q92.5753 1419.13 94.867 1417.4 Q97.1818 1415.66 97.1818 1412.35 Q97.1818 1409.29 95.029 1407.58 Q92.8994 1405.85 89.0799 1405.85 L85.0522 1405.85 L85.0522 1402 L89.2651 1402 Q92.7142 1402 94.5429 1400.64 Q96.3716 1399.25 96.3716 1396.66 Q96.3716 1393.99 94.4734 1392.58 Q92.5984 1391.15 89.0799 1391.15 Q87.1587 1391.15 84.9596 1391.56 Q82.7605 1391.98 80.1217 1392.86 L80.1217 1388.69 Q82.7837 1387.95 85.0985 1387.58 Q87.4364 1387.21 89.4966 1387.21 Q94.8207 1387.21 97.9225 1389.64 Q101.024 1392.05 101.024 1396.17 Q101.024 1399.04 99.3808 1401.03 Q97.7373 1403 94.7049 1403.76 Z" fill="#000000" fill-rule="evenodd" fill-opacity="1" /><path clip-path="url(#clip320)" d="M 0 0 M63.9412 1168.03 L76.418 1168.03 L76.418 1171.82 L63.9412 1171.82 L63.9412 1168.03 Z" fill="#000000" fill-rule="evenodd" fill-opacity="1" /><path clip-path="url(#clip320)" d="M 0 0 M85.5152 1178.98 L101.835 1178.98 L101.835 1182.91 L79.8902 1182.91 L79.8902 1178.98 Q82.5522 1176.22 87.1355 1171.59 Q91.742 1166.94 92.9225 1165.6 Q95.1679 1163.07 96.0475 1161.34 Q96.9503 1159.58 96.9503 1157.89 Q96.9503 1155.13 95.0058 1153.4 Q93.0846 1151.66 89.9827 1151.66 Q87.7837 1151.66 85.33 1152.43 Q82.8994 1153.19 80.1217 1154.74 L80.1217 1150.02 Q82.9457 1148.88 85.3994 1148.3 Q87.8531 1147.73 89.8901 1147.73 Q95.2605 1147.73 98.4549 1150.41 Q101.649 1153.1 101.649 1157.59 Q101.649 1159.72 100.839 1161.64 Q100.052 1163.54 97.9456 1166.13 Q97.3669 1166.8 94.2651 1170.02 Q91.1633 1173.21 85.5152 1178.98 Z" fill="#000000" fill-rule="evenodd" fill-opacity="1" /><path clip-path="url(#clip320)" d="M 0 0 M63.5708 928.542 L76.0476 928.542 L76.0476 932.338 L63.5708 932.338 L63.5708 928.542 Z" fill="#000000" fill-rule="evenodd" fill-opacity="1" /><path clip-path="url(#clip320)" d="M 0 0 M81.9272 939.491 L89.5661 939.491 L89.5661 913.125 L81.2559 914.792 L81.2559 910.533 L89.5198 908.866 L94.1957 908.866 L94.1957 939.491 L101.835 939.491 L101.835 943.426 L81.9272 943.426 L81.9272 939.491 Z" fill="#000000" fill-rule="evenodd" fill-opacity="1" /><path clip-path="url(#clip320)" d="M 0 0 M89.8901 672.459 Q86.279 672.459 84.4503 676.024 Q82.6448 679.566 82.6448 686.695 Q82.6448 693.802 84.4503 697.366 Q86.279 700.908 89.8901 700.908 Q93.5244 700.908 95.3299 697.366 Q97.1586 693.802 97.1586 686.695 Q97.1586 679.566 95.3299 676.024 Q93.5244 672.459 89.8901 672.459 M89.8901 668.755 Q95.7003 668.755 98.7558 673.362 Q101.835 677.945 101.835 686.695 Q101.835 695.422 98.7558 700.028 Q95.7003 704.612 89.8901 704.612 Q84.08 704.612 81.0013 700.028 Q77.9457 695.422 77.9457 686.695 Q77.9457 677.945 81.0013 673.362 Q84.08 668.755 89.8901 668.755 Z" fill="#000000" fill-rule="evenodd" fill-opacity="1" /><path clip-path="url(#clip320)" d="M 0 0 M81.9272 460.52 L89.5661 460.52 L89.5661 434.154 L81.2559 435.821 L81.2559 431.562 L89.5198 429.895 L94.1957 429.895 L94.1957 460.52 L101.835 460.52 L101.835 464.455 L81.9272 464.455 L81.9272 460.52 Z" fill="#000000" fill-rule="evenodd" fill-opacity="1" /><path clip-path="url(#clip320)" d="M 0 0 M85.5152 221.034 L101.835 221.034 L101.835 224.97 L79.8902 224.97 L79.8902 221.034 Q82.5522 218.28 87.1355 213.65 Q91.742 208.997 92.9225 207.655 Q95.1679 205.132 96.0475 203.396 Q96.9503 201.636 96.9503 199.947 Q96.9503 197.192 95.0058 195.456 Q93.0846 193.72 89.9827 193.72 Q87.7837 193.72 85.33 194.484 Q82.8994 195.248 80.1217 196.798 L80.1217 192.076 Q82.9457 190.942 85.3994 190.363 Q87.8531 189.785 89.8901 189.785 Q95.2605 189.785 98.4549 192.47 Q101.649 195.155 101.649 199.646 Q101.649 201.775 100.839 203.697 Q100.052 205.595 97.9456 208.187 Q97.3669 208.859 94.2651 212.076 Q91.1633 215.271 85.5152 221.034 Z" fill="#000000" fill-rule="evenodd" fill-opacity="1" /><path clip-path="url(#clip322)" d="
M188.861 939.341 L212.204 655.473 L235.547 872.05 L258.89 859.198 L282.233 884.664 L305.576 824.679 L328.919 820.569 L352.262 755.043 L375.605 825.543 L398.948 867.654 
  L422.291 955.036 L445.633 914.247 L468.976 890.679 L492.319 1120.67 L515.662 955.279 L539.005 1178.16 L562.348 856.131 L585.691 960.954 L609.034 908.005 L632.377 840.143 
  L655.72 862.943 L679.063 934.076 L702.406 971.217 L725.749 908.006 L749.092 997.684 L772.435 1029.24 L795.778 828.378 L819.121 950.776 L842.464 1032.73 L865.807 775.415 
  L889.15 1021.61 L912.493 930.598 L935.836 878.841 L959.179 711.758 L982.522 999.742 L1005.87 827.25 L1029.21 779.686 L1052.55 941.71 L1075.89 945.78 L1099.24 1191.28 
  L1122.58 927.499 L1145.92 897.969 L1169.27 817.075 L1192.61 919.032 L1215.95 1044.51 L1239.3 869.063 L1262.64 906.719 L1285.98 954.653 L1309.32 883.084 L1332.67 1143.58 
  L1356.01 736.406 L1379.35 932.606 L1402.7 749.916 L1426.04 957.715 L1449.38 995.973 L1472.73 1068.26 L1496.07 1445.72 L1519.41 849.387 L1542.75 651.093 L1566.1 921.496 
  L1589.44 910.374 L1612.78 892.796 L1636.13 868.164 L1659.47 808.885 L1682.81 701.867 L1706.16 754.566 L1729.5 776.484 L1752.84 974.7 L1776.18 1016.15 L1799.53 879.768 
  L1822.87 1059.58 L1846.21 834.5 L1869.56 857.01 L1892.9 821.544 L1916.24 964.965 L1939.58 801.171 L1962.93 763.851 L1986.27 946.531 L2009.61 860.577 L2032.96 976.527 
  L2056.3 988.627 L2079.64 1060.52 L2102.99 1011.85 L2126.33 1154.42 L2149.67 926.242 L2173.01 816.098 L2196.36 1050.24 L2219.7 780.29 L2243.04 813.713 L2266.39 820.059 
  L2289.73 1050.12 L2289.73 511.532 L2266.39 509.17 L2243.04 279.403 L2219.7 459.565 L2196.36 298.635 L2173.01 461.576 L2149.67 492.44 L2126.33 684.733 L2102.99 411.447 
  L2079.64 637.904 L2056.3 681.063 L2032.96 216.122 L2009.61 437.314 L1986.27 526.931 L1962.93 511.365 L1939.58 441.452 L1916.24 568.327 L1892.9 356.605 L1869.56 381.055 
  L1846.21 495.545 L1822.87 490.381 L1799.53 397.24 L1776.18 528.19 L1752.84 371.802 L1729.5 517.947 L1706.16 436.925 L1682.81 243.522 L1659.47 688.854 L1636.13 535.982 
  L1612.78 153.142 L1589.44 472.355 L1566.1 384.066 L1542.75 241.667 L1519.41 424.58 L1496.07 867.583 L1472.73 668.899 L1449.38 394.548 L1426.04 87.9763 L1402.7 366.286 
  L1379.35 422.313 L1356.01 366.096 L1332.67 506.848 L1309.32 627.282 L1285.98 305.25 L1262.64 155.035 L1239.3 310.469 L1215.95 446.472 L1192.61 313.616 L1169.27 558.485 
  L1145.92 465.213 L1122.58 445.866 L1099.24 500.981 L1075.89 495.631 L1052.55 293.542 L1029.21 498.731 L1005.87 493.589 L982.522 305.244 L959.179 408.061 L935.836 540.567 
  L912.493 568.953 L889.15 549.16 L865.807 485.188 L842.464 398.341 L819.121 494.209 L795.778 540.337 L772.435 430.813 L749.092 544.628 L725.749 440.929 L702.406 533.038 
  L679.063 575.628 L655.72 447.679 L632.377 519.419 L609.034 404.534 L585.691 384.229 L562.348 478.196 L539.005 659.426 L515.662 529.661 L492.319 595.77 L468.976 512.656 
  L445.633 599.256 L422.291 470.088 L398.948 484.983 L375.605 349.091 L352.262 478.795 L328.919 102.584 L305.576 117.935 L282.233 432.412 L258.89 691.222 L235.547 407.019 
  L212.204 291.767 L188.861 470.688  Z
  " fill="#008080" fill-rule="evenodd" fill-opacity="0.1"/>
<polyline clip-path="url(#clip322)" style="stroke:#008080; stroke-width:6; stroke-opacity:1; fill:none" points="
  188.861,761.138 212.204,502.068 235.547,652.235 258.89,744.282 282.233,654.312 305.576,612.228 328.919,533.187 352.262,646.695 375.605,574.368 398.948,668.015 
  422.291,691.623 445.633,750.25 468.976,729.264 492.319,807.341 515.662,679.058 539.005,875.217 562.348,695.127 585.691,657.582 609.034,633.102 632.377,677.659 
  655.72,676.339 679.063,725.727 702.406,744.679 725.749,737.005 749.092,674.354 772.435,721.876 795.778,697.242 819.121,712.442 842.464,718.302 865.807,618.597 
  889.15,746.721 912.493,785.371 935.836,718.723 959.179,608.443 982.522,795.142 1005.87,667.068 1029.21,620.364 1052.55,671.287 1075.89,738.342 1099.24,760.979 
  1122.58,723.769 1145.92,670.678 1169.27,706.033 1192.61,662.741 1215.95,692.661 1239.3,609.837 1262.64,644.83 1285.98,693.221 1309.32,748.576 1332.67,723.694 
  1356.01,546.555 1379.35,639.933 1402.7,495.526 1426.04,578.081 1449.38,676.833 1472.73,827.661 1496.07,1143.74 1519.41,594.356 1542.75,481.858 1566.1,629.321 
  1589.44,729.95 1612.78,589.799 1636.13,650.559 1659.47,740.565 1682.81,457.525 1706.16,583.987 1729.5,642.559 1752.84,730.596 1776.18,775.934 1799.53,571.057 
  1822.87,798.692 1846.21,683.745 1869.56,662.352 1892.9,572.089 1916.24,799.054 1939.58,635.562 1962.93,640.965 1986.27,718.822 2009.61,673.446 2032.96,642.998 
  2056.3,837.564 2079.64,842.951 2102.99,705.281 2126.33,861.429 2149.67,791.996 2173.01,705.355 2196.36,613.865 2219.7,660.337 2243.04,555.032 2266.39,668.845 
  2289.73,769.525 
  "/>
<polyline clip-path="url(#clip322)" style="stroke:#ff0000; stroke-width:5; stroke-opacity:0.85; fill:none" points="
  188.861,682.242 212.204,680.08 235.547,676.814 258.89,672.15 282.233,665.82 305.576,657.668 328.919,647.788 352.262,636.765 375.605,626.159 398.948,619.747 
  422.291,627.478 445.633,679.98 468.976,698.177 492.319,948.998 515.662,814.077 539.005,753 562.348,737.58 585.691,711.11 609.034,667.04 632.377,631.879 
  655.72,584.007 679.063,595.459 702.406,594.173 725.749,744.616 749.092,712.747 772.435,786.377 795.778,781.664 819.121,830.93 842.464,751.245 865.807,695.109 
  889.15,644.208 912.493,704.786 935.836,765.89 959.179,745.876 982.522,754.057 1005.87,600.985 1029.21,561.714 1052.55,623.322 1075.89,651.561 1099.24,663.046 
  1122.58,727.693 1145.92,670.115 1169.27,621.483 1192.61,619.228 1215.95,536.855 1239.3,448.289 1262.64,565.326 1285.98,622.058 1309.32,582.611 1332.67,629.154 
  1356.01,597.048 1379.35,642.066 1402.7,487.925 1426.04,595.66 1449.38,696.437 1472.73,858.369 1496.07,1172.67 1519.41,1264.27 1542.75,678.46 1566.1,627.479 
  1589.44,597.868 1612.78,601.513 1636.13,562.32 1659.47,606.242 1682.81,569.01 1706.16,671.766 1729.5,634.161 1752.84,679.308 1776.18,709.993 1799.53,729.43 
  1822.87,768.955 1846.21,703.027 1869.56,766.996 1892.9,634.14 1916.24,661.324 1939.58,646.524 1962.93,693.165 1986.27,784.526 2009.61,746.601 2032.96,684.678 
  2056.3,691 2079.64,680.025 2102.99,725.407 2126.33,761.218 2149.67,794.966 2173.01,782.767 2196.36,775.466 2219.7,712.24 2243.04,630.722 2266.39,627.781 
  2289.73,583.435 
  "/>
<path clip-path="url(#clip320)" d="
M197.835 1342.45 L1040.97 1342.45 L1040.97 1183.69 L197.835 1183.69  Z
  " fill="#ffffff" fill-rule="evenodd" fill-opacity="1"/>
<polyline clip-path="url(#clip320)" style="stroke:#000000; stroke-width:4; stroke-opacity:0; fill:none" points="
  197.835,1342.45 1040.97,1342.45 1040.97,1183.69 197.835,1183.69 197.835,1342.45 
  "/>
<polyline clip-path="url(#clip320)" style="stroke:#008080; stroke-width:3.5; stroke-opacity:1; fill:none" points="
  221.835,1236.61 365.835,1236.61 
  "/>
<path clip-path="url(#clip320)" d="M 0 0 M389.835 1221.49 L395.344 1221.49 L408.752 1246.79 L408.752 1221.49 L412.722 1221.49 L412.722 1251.73 L407.213 1251.73 L393.804 1226.43 L393.804 1251.73 L389.835 1251.73 L389.835 1221.49 Z" fill="#000000" fill-rule="evenodd" fill-opacity="1" /><path clip-path="url(#clip320)" d="M 0 0 M436.035 1239.45 L436.035 1241.28 L418.9 1241.28 Q419.143 1245.12 421.209 1247.15 Q423.295 1249.16 427.002 1249.16 Q429.149 1249.16 431.154 1248.63 Q433.179 1248.1 435.164 1247.05 L435.164 1250.57 Q433.159 1251.42 431.052 1251.87 Q428.946 1252.32 426.779 1252.32 Q421.351 1252.32 418.171 1249.16 Q415.011 1246 415.011 1240.61 Q415.011 1235.04 418.009 1231.78 Q421.026 1228.5 426.131 1228.5 Q430.708 1228.5 433.361 1231.45 Q436.035 1234.39 436.035 1239.45 M432.308 1238.36 Q432.268 1235.3 430.587 1233.48 Q428.926 1231.66 426.171 1231.66 Q423.052 1231.66 421.168 1233.42 Q419.305 1235.18 419.021 1238.38 L432.308 1238.36 Z" fill="#000000" fill-rule="evenodd" fill-opacity="1" /><path clip-path="url(#clip320)" d="M 0 0 M437.777 1229.04 L441.504 1229.04 L446.162 1246.75 L450.801 1229.04 L455.196 1229.04 L459.854 1246.75 L464.493 1229.04 L468.22 1229.04 L462.285 1251.73 L457.89 1251.73 L453.008 1233.13 L448.107 1251.73 L443.712 1251.73 L437.777 1229.04 Z" fill="#000000" fill-rule="evenodd" fill-opacity="1" /><path clip-path="url(#clip320)" d="M 0 0 M486.59 1229.71 L486.59 1233.24 Q485.011 1232.43 483.309 1232.02 Q481.608 1231.62 479.785 1231.62 Q477.01 1231.62 475.612 1232.47 Q474.235 1233.32 474.235 1235.02 Q474.235 1236.31 475.228 1237.06 Q476.22 1237.79 479.218 1238.46 L480.494 1238.74 Q484.464 1239.6 486.125 1241.16 Q487.806 1242.69 487.806 1245.47 Q487.806 1248.63 485.294 1250.47 Q482.803 1252.32 478.428 1252.32 Q476.605 1252.32 474.62 1251.95 Q472.655 1251.61 470.468 1250.9 L470.468 1247.05 Q472.534 1248.12 474.539 1248.67 Q476.544 1249.2 478.509 1249.2 Q481.142 1249.2 482.56 1248.3 Q483.978 1247.39 483.978 1245.75 Q483.978 1244.23 482.945 1243.42 Q481.932 1242.61 478.468 1241.86 L477.172 1241.56 Q473.708 1240.83 472.169 1239.33 Q470.63 1237.81 470.63 1235.18 Q470.63 1231.98 472.898 1230.24 Q475.167 1228.5 479.339 1228.5 Q481.405 1228.5 483.228 1228.8 Q485.051 1229.1 486.59 1229.71 Z" fill="#000000" fill-rule="evenodd" fill-opacity="1" /><path clip-path="url(#clip320)" d="M 0 0 M489.831 1238.7 L500.748 1238.7 L500.748 1242.03 L489.831 1242.03 L489.831 1238.7 Z" fill="#000000" fill-rule="evenodd" fill-opacity="1" /><path clip-path="url(#clip320)" d="M 0 0 M514.967 1240.32 Q510.45 1240.32 508.708 1241.36 Q506.966 1242.39 506.966 1244.88 Q506.966 1246.87 508.263 1248.04 Q509.579 1249.2 511.827 1249.2 Q514.926 1249.2 516.79 1247.01 Q518.674 1244.8 518.674 1241.16 L518.674 1240.32 L514.967 1240.32 M522.4 1238.79 L522.4 1251.73 L518.674 1251.73 L518.674 1248.28 Q517.397 1250.35 515.494 1251.34 Q513.59 1252.32 510.835 1252.32 Q507.351 1252.32 505.285 1250.37 Q503.24 1248.41 503.24 1245.12 Q503.24 1241.3 505.792 1239.35 Q508.364 1237.41 513.448 1237.41 L518.674 1237.41 L518.674 1237.04 Q518.674 1234.47 516.972 1233.07 Q515.291 1231.66 512.233 1231.66 Q510.288 1231.66 508.445 1232.12 Q506.602 1232.59 504.9 1233.52 L504.9 1230.08 Q506.946 1229.29 508.87 1228.9 Q510.795 1228.5 512.617 1228.5 Q517.539 1228.5 519.97 1231.05 Q522.4 1233.6 522.4 1238.79 Z" fill="#000000" fill-rule="evenodd" fill-opacity="1" /><path clip-path="url(#clip320)" d="M 0 0 M525.925 1242.78 L525.925 1229.04 L529.651 1229.04 L529.651 1242.63 Q529.651 1245.85 530.907 1247.47 Q532.163 1249.07 534.675 1249.07 Q537.693 1249.07 539.434 1247.15 Q541.197 1245.23 541.197 1241.9 L541.197 1229.04 L544.923 1229.04 L544.923 1251.73 L541.197 1251.73 L541.197 1248.24 Q539.839 1250.31 538.037 1251.32 Q536.254 1252.32 533.885 1252.32 Q529.976 1252.32 527.95 1249.88 Q525.925 1247.45 525.925 1242.78 M535.302 1228.5 L535.302 1228.5 Z" fill="#000000" fill-rule="evenodd" fill-opacity="1" /><path clip-path="url(#clip320)" d="M 0 0 M563.76 1240.12 Q563.76 1236.07 562.079 1233.84 Q560.418 1231.62 557.4 1231.62 Q554.402 1231.62 552.721 1233.84 Q551.06 1236.07 551.06 1240.12 Q551.06 1244.15 552.721 1246.38 Q554.402 1248.61 557.4 1248.61 Q560.418 1248.61 562.079 1246.38 Q563.76 1244.15 563.76 1240.12 M567.487 1248.91 Q567.487 1254.71 564.915 1257.52 Q562.342 1260.36 557.036 1260.36 Q555.071 1260.36 553.329 1260.05 Q551.587 1259.77 549.946 1259.16 L549.946 1255.54 Q551.587 1256.43 553.187 1256.85 Q554.787 1257.28 556.448 1257.28 Q560.114 1257.28 561.937 1255.35 Q563.76 1253.45 563.76 1249.58 L563.76 1247.74 Q562.606 1249.74 560.803 1250.74 Q559 1251.73 556.489 1251.73 Q552.316 1251.73 549.764 1248.55 Q547.212 1245.37 547.212 1240.12 Q547.212 1234.86 549.764 1231.68 Q552.316 1228.5 556.489 1228.5 Q559 1228.5 560.803 1229.49 Q562.606 1230.48 563.76 1232.49 L563.76 1229.04 L567.487 1229.04 L567.487 1248.91 Z" fill="#000000" fill-rule="evenodd" fill-opacity="1" /><path clip-path="url(#clip320)" d="M 0 0 M589.058 1233.4 Q590.456 1230.89 592.4 1229.69 Q594.344 1228.5 596.977 1228.5 Q600.522 1228.5 602.446 1230.99 Q604.37 1233.46 604.37 1238.04 L604.37 1251.73 L600.623 1251.73 L600.623 1238.16 Q600.623 1234.9 599.469 1233.32 Q598.314 1231.74 595.945 1231.74 Q593.048 1231.74 591.367 1233.66 Q589.686 1235.59 589.686 1238.91 L589.686 1251.73 L585.939 1251.73 L585.939 1238.16 Q585.939 1234.88 584.784 1233.32 Q583.63 1231.74 581.219 1231.74 Q578.364 1231.74 576.682 1233.68 Q575.001 1235.61 575.001 1238.91 L575.001 1251.73 L571.254 1251.73 L571.254 1229.04 L575.001 1229.04 L575.001 1232.57 Q576.277 1230.48 578.06 1229.49 Q579.842 1228.5 582.293 1228.5 Q584.764 1228.5 586.486 1229.75 Q588.228 1231.01 589.058 1233.4 Z" fill="#000000" fill-rule="evenodd" fill-opacity="1" /><path clip-path="url(#clip320)" d="M 0 0 M627.683 1239.45 L627.683 1241.28 L610.548 1241.28 Q610.791 1245.12 612.857 1247.15 Q614.943 1249.16 618.65 1249.16 Q620.797 1249.16 622.802 1248.63 Q624.827 1248.1 626.812 1247.05 L626.812 1250.57 Q624.807 1251.42 622.701 1251.87 Q620.594 1252.32 618.427 1252.32 Q612.999 1252.32 609.819 1249.16 Q606.659 1246 606.659 1240.61 Q606.659 1235.04 609.657 1231.78 Q612.675 1228.5 617.779 1228.5 Q622.356 1228.5 625.01 1231.45 Q627.683 1234.39 627.683 1239.45 M623.957 1238.36 Q623.916 1235.3 622.235 1233.48 Q620.574 1231.66 617.819 1231.66 Q614.7 1231.66 612.817 1233.42 Q610.953 1235.18 610.67 1238.38 L623.957 1238.36 Z" fill="#000000" fill-rule="evenodd" fill-opacity="1" /><path clip-path="url(#clip320)" d="M 0 0 M650.449 1238.04 L650.449 1251.73 L646.723 1251.73 L646.723 1238.16 Q646.723 1234.94 645.467 1233.34 Q644.211 1231.74 641.699 1231.74 Q638.682 1231.74 636.94 1233.66 Q635.198 1235.59 635.198 1238.91 L635.198 1251.73 L631.451 1251.73 L631.451 1229.04 L635.198 1229.04 L635.198 1232.57 Q636.535 1230.52 638.337 1229.51 Q640.16 1228.5 642.53 1228.5 Q646.439 1228.5 648.444 1230.93 Q650.449 1233.34 650.449 1238.04 Z" fill="#000000" fill-rule="evenodd" fill-opacity="1" /><path clip-path="url(#clip320)" d="M 0 0 M658.045 1222.6 L658.045 1229.04 L665.721 1229.04 L665.721 1231.94 L658.045 1231.94 L658.045 1244.25 Q658.045 1247.03 658.794 1247.82 Q659.564 1248.61 661.893 1248.61 L665.721 1248.61 L665.721 1251.73 L661.893 1251.73 Q657.579 1251.73 655.938 1250.13 Q654.298 1248.51 654.298 1244.25 L654.298 1231.94 L651.563 1231.94 L651.563 1229.04 L654.298 1229.04 L654.298 1222.6 L658.045 1222.6 Z" fill="#000000" fill-rule="evenodd" fill-opacity="1" /><path clip-path="url(#clip320)" d="M 0 0 M689.034 1239.45 L689.034 1241.28 L671.899 1241.28 Q672.142 1245.12 674.208 1247.15 Q676.294 1249.16 680.001 1249.16 Q682.148 1249.16 684.153 1248.63 Q686.178 1248.1 688.163 1247.05 L688.163 1250.57 Q686.158 1251.42 684.052 1251.87 Q681.945 1252.32 679.778 1252.32 Q674.35 1252.32 671.17 1249.16 Q668.01 1246 668.01 1240.61 Q668.01 1235.04 671.008 1231.78 Q674.026 1228.5 679.13 1228.5 Q683.707 1228.5 686.361 1231.45 Q689.034 1234.39 689.034 1239.45 M685.307 1238.36 Q685.267 1235.3 683.586 1233.48 Q681.925 1231.66 679.17 1231.66 Q676.051 1231.66 674.167 1233.42 Q672.304 1235.18 672.02 1238.38 L685.307 1238.36 Z" fill="#000000" fill-rule="evenodd" fill-opacity="1" /><path clip-path="url(#clip320)" d="M 0 0 M707.871 1232.49 L707.871 1220.21 L711.598 1220.21 L711.598 1251.73 L707.871 1251.73 L707.871 1248.33 Q706.696 1250.35 704.894 1251.34 Q703.111 1252.32 700.6 1252.32 Q696.488 1252.32 693.895 1249.03 Q691.323 1245.75 691.323 1240.41 Q691.323 1235.06 693.895 1231.78 Q696.488 1228.5 700.6 1228.5 Q703.111 1228.5 704.894 1229.49 Q706.696 1230.46 707.871 1232.49 M695.171 1240.41 Q695.171 1244.52 696.853 1246.87 Q698.554 1249.2 701.511 1249.2 Q704.468 1249.2 706.17 1246.87 Q707.871 1244.52 707.871 1240.41 Q707.871 1236.29 706.17 1233.96 Q704.468 1231.62 701.511 1231.62 Q698.554 1231.62 696.853 1233.96 Q695.171 1236.29 695.171 1240.41 Z" fill="#000000" fill-rule="evenodd" fill-opacity="1" /><path clip-path="url(#clip320)" d="M 0 0 M745.018 1229.91 L745.018 1233.4 Q743.438 1232.53 741.838 1232.1 Q740.258 1231.66 738.638 1231.66 Q735.012 1231.66 733.007 1233.96 Q731.002 1236.25 731.002 1240.41 Q731.002 1244.56 733.007 1246.87 Q735.012 1249.16 738.638 1249.16 Q740.258 1249.16 741.838 1248.73 Q743.438 1248.28 745.018 1247.41 L745.018 1250.86 Q743.458 1251.59 741.777 1251.95 Q740.116 1252.32 738.233 1252.32 Q733.108 1252.32 730.09 1249.09 Q727.072 1245.87 727.072 1240.41 Q727.072 1234.86 730.11 1231.68 Q733.169 1228.5 738.476 1228.5 Q740.197 1228.5 741.838 1228.86 Q743.478 1229.2 745.018 1229.91 Z" fill="#000000" fill-rule="evenodd" fill-opacity="1" /><path clip-path="url(#clip320)" d="M 0 0 M757.717 1231.66 Q754.72 1231.66 752.978 1234.01 Q751.236 1236.33 751.236 1240.41 Q751.236 1244.48 752.958 1246.83 Q754.699 1249.16 757.717 1249.16 Q760.695 1249.16 762.437 1246.81 Q764.179 1244.46 764.179 1240.41 Q764.179 1236.37 762.437 1234.03 Q760.695 1231.66 757.717 1231.66 M757.717 1228.5 Q762.578 1228.5 765.353 1231.66 Q768.128 1234.82 768.128 1240.41 Q768.128 1245.98 765.353 1249.16 Q762.578 1252.32 757.717 1252.32 Q752.836 1252.32 750.061 1249.16 Q747.307 1245.98 747.307 1240.41 Q747.307 1234.82 750.061 1231.66 Q752.836 1228.5 757.717 1228.5 Z" fill="#000000" fill-rule="evenodd" fill-opacity="1" /><path clip-path="url(#clip320)" d="M 0 0 M789.699 1233.4 Q791.097 1230.89 793.041 1229.69 Q794.986 1228.5 797.619 1228.5 Q801.163 1228.5 803.088 1230.99 Q805.012 1233.46 805.012 1238.04 L805.012 1251.73 L801.265 1251.73 L801.265 1238.16 Q801.265 1234.9 800.11 1233.32 Q798.956 1231.74 796.586 1231.74 Q793.689 1231.74 792.008 1233.66 Q790.327 1235.59 790.327 1238.91 L790.327 1251.73 L786.58 1251.73 L786.58 1238.16 Q786.58 1234.88 785.426 1233.32 Q784.271 1231.74 781.861 1231.74 Q779.005 1231.74 777.324 1233.68 Q775.643 1235.61 775.643 1238.91 L775.643 1251.73 L771.896 1251.73 L771.896 1229.04 L775.643 1229.04 L775.643 1232.57 Q776.919 1230.48 778.701 1229.49 Q780.483 1228.5 782.934 1228.5 Q785.405 1228.5 787.127 1229.75 Q788.869 1231.01 789.699 1233.4 Z" fill="#000000" fill-rule="evenodd" fill-opacity="1" /><path clip-path="url(#clip320)" d="M 0 0 M826.583 1233.4 Q827.98 1230.89 829.925 1229.69 Q831.869 1228.5 834.502 1228.5 Q838.047 1228.5 839.971 1230.99 Q841.895 1233.46 841.895 1238.04 L841.895 1251.73 L838.148 1251.73 L838.148 1238.16 Q838.148 1234.9 836.994 1233.32 Q835.839 1231.74 833.469 1231.74 Q830.573 1231.74 828.892 1233.66 Q827.211 1235.59 827.211 1238.91 L827.211 1251.73 L823.464 1251.73 L823.464 1238.16 Q823.464 1234.88 822.309 1233.32 Q821.155 1231.74 818.744 1231.74 Q815.888 1231.74 814.207 1233.68 Q812.526 1235.61 812.526 1238.91 L812.526 1251.73 L808.779 1251.73 L808.779 1229.04 L812.526 1229.04 L812.526 1232.57 Q813.802 1230.48 815.585 1229.49 Q817.367 1228.5 819.818 1228.5 Q822.289 1228.5 824.01 1229.75 Q825.752 1231.01 826.583 1233.4 Z" fill="#000000" fill-rule="evenodd" fill-opacity="1" /><path clip-path="url(#clip320)" d="M 0 0 M846.331 1246.58 L850.605 1246.58 L850.605 1251.73 L846.331 1251.73 L846.331 1246.58 Z" fill="#000000" fill-rule="evenodd" fill-opacity="1" /><path clip-path="url(#clip320)" d="M 0 0 M882.161 1229.71 L882.161 1233.24 Q880.581 1232.43 878.88 1232.02 Q877.179 1231.62 875.356 1231.62 Q872.581 1231.62 871.183 1232.47 Q869.806 1233.32 869.806 1235.02 Q869.806 1236.31 870.798 1237.06 Q871.791 1237.79 874.789 1238.46 L876.065 1238.74 Q880.034 1239.6 881.695 1241.16 Q883.376 1242.69 883.376 1245.47 Q883.376 1248.63 880.865 1250.47 Q878.374 1252.32 873.999 1252.32 Q872.176 1252.32 870.191 1251.95 Q868.226 1251.61 866.039 1250.9 L866.039 1247.05 Q868.105 1248.12 870.11 1248.67 Q872.115 1249.2 874.08 1249.2 Q876.713 1249.2 878.131 1248.3 Q879.548 1247.39 879.548 1245.75 Q879.548 1244.23 878.515 1243.42 Q877.503 1242.61 874.039 1241.86 L872.743 1241.56 Q869.279 1240.83 867.74 1239.33 Q866.201 1237.81 866.201 1235.18 Q866.201 1231.98 868.469 1230.24 Q870.738 1228.5 874.91 1228.5 Q876.976 1228.5 878.799 1228.8 Q880.622 1229.1 882.161 1229.71 Z" fill="#000000" fill-rule="evenodd" fill-opacity="1" /><path clip-path="url(#clip320)" d="M 0 0 M906.143 1238.04 L906.143 1251.73 L902.416 1251.73 L902.416 1238.16 Q902.416 1234.94 901.16 1233.34 Q899.904 1231.74 897.393 1231.74 Q894.375 1231.74 892.633 1233.66 Q890.891 1235.59 890.891 1238.91 L890.891 1251.73 L887.144 1251.73 L887.144 1220.21 L890.891 1220.21 L890.891 1232.57 Q892.228 1230.52 894.03 1229.51 Q895.853 1228.5 898.223 1228.5 Q902.132 1228.5 904.137 1230.93 Q906.143 1233.34 906.143 1238.04 Z" fill="#000000" fill-rule="evenodd" fill-opacity="1" /><path clip-path="url(#clip320)" d="M 0 0 M918.842 1231.66 Q915.844 1231.66 914.103 1234.01 Q912.361 1236.33 912.361 1240.41 Q912.361 1244.48 914.082 1246.83 Q915.824 1249.16 918.842 1249.16 Q921.82 1249.16 923.561 1246.81 Q925.303 1244.46 925.303 1240.41 Q925.303 1236.37 923.561 1234.03 Q921.82 1231.66 918.842 1231.66 M918.842 1228.5 Q923.703 1228.5 926.478 1231.66 Q929.253 1234.82 929.253 1240.41 Q929.253 1245.98 926.478 1249.16 Q923.703 1252.32 918.842 1252.32 Q913.961 1252.32 911.186 1249.16 Q908.431 1245.98 908.431 1240.41 Q908.431 1234.82 911.186 1231.66 Q913.961 1228.5 918.842 1228.5 Z" fill="#000000" fill-rule="evenodd" fill-opacity="1" /><path clip-path="url(#clip320)" d="M 0 0 M949.487 1229.91 L949.487 1233.4 Q947.907 1232.53 946.307 1232.1 Q944.727 1231.66 943.107 1231.66 Q939.481 1231.66 937.476 1233.96 Q935.471 1236.25 935.471 1240.41 Q935.471 1244.56 937.476 1246.87 Q939.481 1249.16 943.107 1249.16 Q944.727 1249.16 946.307 1248.73 Q947.907 1248.28 949.487 1247.41 L949.487 1250.86 Q947.928 1251.59 946.246 1251.95 Q944.586 1252.32 942.702 1252.32 Q937.578 1252.32 934.56 1249.09 Q931.542 1245.87 931.542 1240.41 Q931.542 1234.86 934.58 1231.68 Q937.638 1228.5 942.945 1228.5 Q944.667 1228.5 946.307 1228.86 Q947.948 1229.2 949.487 1229.91 Z" fill="#000000" fill-rule="evenodd" fill-opacity="1" /><path clip-path="url(#clip320)" d="M 0 0 M953.255 1220.21 L957.002 1220.21 L957.002 1238.83 L968.121 1229.04 L972.881 1229.04 L960.85 1239.66 L973.388 1251.73 L968.526 1251.73 L957.002 1240.65 L957.002 1251.73 L953.255 1251.73 L953.255 1220.21 Z" fill="#000000" fill-rule="evenodd" fill-opacity="1" /><path clip-path="url(#clip320)" d="M 0 0 M991.758 1229.71 L991.758 1233.24 Q990.179 1232.43 988.477 1232.02 Q986.776 1231.62 984.953 1231.62 Q982.178 1231.62 980.78 1232.47 Q979.403 1233.32 979.403 1235.02 Q979.403 1236.31 980.396 1237.06 Q981.388 1237.79 984.386 1238.46 L985.662 1238.74 Q989.632 1239.6 991.293 1241.16 Q992.974 1242.69 992.974 1245.47 Q992.974 1248.63 990.462 1250.47 Q987.971 1252.32 983.596 1252.32 Q981.773 1252.32 979.788 1251.95 Q977.823 1251.61 975.636 1250.9 L975.636 1247.05 Q977.702 1248.12 979.707 1248.67 Q981.712 1249.2 983.677 1249.2 Q986.31 1249.2 987.728 1248.3 Q989.146 1247.39 989.146 1245.75 Q989.146 1244.23 988.113 1243.42 Q987.1 1242.61 983.636 1241.86 L982.34 1241.56 Q978.876 1240.83 977.337 1239.33 Q975.798 1237.81 975.798 1235.18 Q975.798 1231.98 978.066 1230.24 Q980.335 1228.5 984.507 1228.5 Q986.573 1228.5 988.396 1228.8 Q990.219 1229.1 991.758 1229.71 Z" fill="#000000" fill-rule="evenodd" fill-opacity="1" /><polyline clip-path="url(#clip320)" style="stroke:#ff0000; stroke-width:3.5; stroke-opacity:0.85; fill:none" points="
  221.835,1289.53 365.835,1289.53 
  "/>
<path clip-path="url(#clip320)" d="M 0 0 M412.196 1300.33 L412.196 1292.21 L405.512 1292.21 L405.512 1288.85 L416.246 1288.85 L416.246 1301.83 Q413.877 1303.51 411.021 1304.38 Q408.165 1305.24 404.924 1305.24 Q397.835 1305.24 393.825 1301.1 Q389.835 1296.95 389.835 1289.56 Q389.835 1282.15 393.825 1278.01 Q397.835 1273.86 404.924 1273.86 Q407.881 1273.86 410.535 1274.59 Q413.208 1275.32 415.456 1276.74 L415.456 1281.09 Q413.188 1279.17 410.636 1278.2 Q408.084 1277.22 405.268 1277.22 Q399.719 1277.22 396.924 1280.32 Q394.149 1283.42 394.149 1289.56 Q394.149 1295.68 396.924 1298.77 Q399.719 1301.87 405.268 1301.87 Q407.436 1301.87 409.137 1301.51 Q410.838 1301.12 412.196 1300.33 Z" fill="#000000" fill-rule="evenodd" fill-opacity="1" /><path clip-path="url(#clip320)" d="M 0 0 M424.206 1301.2 L438.486 1301.2 L438.486 1304.65 L419.285 1304.65 L419.285 1301.2 Q421.614 1298.79 425.624 1294.74 Q429.655 1290.67 430.688 1289.5 Q432.653 1287.29 433.422 1285.77 Q434.212 1284.23 434.212 1282.75 Q434.212 1280.34 432.511 1278.82 Q430.83 1277.3 428.116 1277.3 Q426.191 1277.3 424.044 1277.97 Q421.918 1278.64 419.487 1280 L419.487 1275.87 Q421.958 1274.87 424.105 1274.37 Q426.252 1273.86 428.035 1273.86 Q432.734 1273.86 435.529 1276.21 Q438.324 1278.56 438.324 1282.49 Q438.324 1284.35 437.615 1286.03 Q436.926 1287.69 435.083 1289.96 Q434.577 1290.55 431.863 1293.37 Q429.149 1296.16 424.206 1301.2 Z" fill="#000000" fill-rule="evenodd" fill-opacity="1" /><path clip-path="url(#clip320)" d="M 0 0 M451.672 1277.1 Q448.512 1277.1 446.912 1280.22 Q445.332 1283.32 445.332 1289.56 Q445.332 1295.78 446.912 1298.9 Q448.512 1301.99 451.672 1301.99 Q454.852 1301.99 456.431 1298.9 Q458.031 1295.78 458.031 1289.56 Q458.031 1283.32 456.431 1280.22 Q454.852 1277.1 451.672 1277.1 M451.672 1273.86 Q456.755 1273.86 459.429 1277.89 Q462.123 1281.9 462.123 1289.56 Q462.123 1297.19 459.429 1301.22 Q456.755 1305.24 451.672 1305.24 Q446.588 1305.24 443.894 1301.22 Q441.22 1297.19 441.22 1289.56 Q441.22 1281.9 443.894 1277.89 Q446.588 1273.86 451.672 1273.86 Z" fill="#000000" fill-rule="evenodd" fill-opacity="1" /><path clip-path="url(#clip320)" d="M 0 0 M488.008 1284.58 Q485.011 1284.58 483.269 1286.93 Q481.527 1289.25 481.527 1293.33 Q481.527 1297.4 483.248 1299.75 Q484.99 1302.08 488.008 1302.08 Q490.986 1302.08 492.727 1299.73 Q494.469 1297.38 494.469 1293.33 Q494.469 1289.29 492.727 1286.95 Q490.986 1284.58 488.008 1284.58 M488.008 1281.42 Q492.869 1281.42 495.644 1284.58 Q498.419 1287.74 498.419 1293.33 Q498.419 1298.9 495.644 1302.08 Q492.869 1305.24 488.008 1305.24 Q483.127 1305.24 480.352 1302.08 Q477.597 1298.9 477.597 1293.33 Q477.597 1287.74 480.352 1284.58 Q483.127 1281.42 488.008 1281.42 Z" fill="#000000" fill-rule="evenodd" fill-opacity="1" /><path clip-path="url(#clip320)" d="M 0 0 M501.943 1295.7 L501.943 1281.96 L505.67 1281.96 L505.67 1295.55 Q505.67 1298.77 506.926 1300.39 Q508.182 1301.99 510.693 1301.99 Q513.711 1301.99 515.453 1300.07 Q517.215 1298.15 517.215 1294.82 L517.215 1281.96 L520.942 1281.96 L520.942 1304.65 L517.215 1304.65 L517.215 1301.16 Q515.858 1303.23 514.055 1304.24 Q512.273 1305.24 509.903 1305.24 Q505.994 1305.24 503.969 1302.8 Q501.943 1300.37 501.943 1295.7 M511.321 1281.42 L511.321 1281.42 Z" fill="#000000" fill-rule="evenodd" fill-opacity="1" /><path clip-path="url(#clip320)" d="M 0 0 M528.537 1275.52 L528.537 1281.96 L536.214 1281.96 L536.214 1284.86 L528.537 1284.86 L528.537 1297.17 Q528.537 1299.95 529.287 1300.74 Q530.057 1301.53 532.386 1301.53 L536.214 1301.53 L536.214 1304.65 L532.386 1304.65 Q528.072 1304.65 526.431 1303.05 Q524.79 1301.43 524.79 1297.17 L524.79 1284.86 L522.056 1284.86 L522.056 1281.96 L524.79 1281.96 L524.79 1275.52 L528.537 1275.52 Z" fill="#000000" fill-rule="evenodd" fill-opacity="1" /><path clip-path="url(#clip320)" d="M 0 0 M543.728 1301.25 L543.728 1313.28 L539.981 1313.28 L539.981 1281.96 L543.728 1281.96 L543.728 1285.41 Q544.903 1283.38 546.686 1282.41 Q548.488 1281.42 550.979 1281.42 Q555.111 1281.42 557.684 1284.7 Q560.276 1287.98 560.276 1293.33 Q560.276 1298.67 557.684 1301.95 Q555.111 1305.24 550.979 1305.24 Q548.488 1305.24 546.686 1304.26 Q544.903 1303.27 543.728 1301.25 M556.408 1293.33 Q556.408 1289.21 554.706 1286.88 Q553.025 1284.54 550.068 1284.54 Q547.111 1284.54 545.409 1286.88 Q543.728 1289.21 543.728 1293.33 Q543.728 1297.44 545.409 1299.79 Q547.111 1302.12 550.068 1302.12 Q553.025 1302.12 554.706 1299.79 Q556.408 1297.44 556.408 1293.33 Z" fill="#000000" fill-rule="evenodd" fill-opacity="1" /><path clip-path="url(#clip320)" d="M 0 0 M563.801 1295.7 L563.801 1281.96 L567.527 1281.96 L567.527 1295.55 Q567.527 1298.77 568.783 1300.39 Q570.039 1301.99 572.551 1301.99 Q575.568 1301.99 577.31 1300.07 Q579.073 1298.15 579.073 1294.82 L579.073 1281.96 L582.799 1281.96 L582.799 1304.65 L579.073 1304.65 L579.073 1301.16 Q577.715 1303.23 575.913 1304.24 Q574.13 1305.24 571.761 1305.24 Q567.851 1305.24 565.826 1302.8 Q563.801 1300.37 563.801 1295.7 M573.178 1281.42 L573.178 1281.42 Z" fill="#000000" fill-rule="evenodd" fill-opacity="1" /><path clip-path="url(#clip320)" d="M 0 0 M590.395 1275.52 L590.395 1281.96 L598.071 1281.96 L598.071 1284.86 L590.395 1284.86 L590.395 1297.17 Q590.395 1299.95 591.144 1300.74 Q591.914 1301.53 594.243 1301.53 L598.071 1301.53 L598.071 1304.65 L594.243 1304.65 Q589.929 1304.65 588.288 1303.05 Q586.648 1301.43 586.648 1297.17 L586.648 1284.86 L583.913 1284.86 L583.913 1281.96 L586.648 1281.96 L586.648 1275.52 L590.395 1275.52 Z" fill="#000000" fill-rule="evenodd" fill-opacity="1" /></svg>
