<?xml version="1.0" encoding="utf-8"?>
<svg xmlns="http://www.w3.org/2000/svg" xmlns:xlink="http://www.w3.org/1999/xlink" width="600" height="400" viewBox="0 0 2400 1600">
<defs>
  <clipPath id="clip680">
    <rect x="0" y="0" width="2400" height="1600"/>
  </clipPath>
</defs>
<path clip-path="url(#clip680)" d="
M0 1600 L2400 1600 L2400 0 L0 0  Z
  " fill="#ffffff" fill-rule="evenodd" fill-opacity="1"/>
<defs>
  <clipPath id="clip681">
    <rect x="480" y="0" width="1681" height="1600"/>
  </clipPath>
</defs>
<path clip-path="url(#clip680)" d="
M125.256 1486.45 L2248.5 1486.45 L2248.5 106.192 L125.256 106.192  Z
  " fill="#ffffff" fill-rule="evenodd" fill-opacity="1"/>
<defs>
  <clipPath id="clip682">
    <rect x="125" y="106" width="2124" height="1381"/>
  </clipPath>
</defs>
<polyline clip-path="url(#clip682)" style="stroke:#000000; stroke-width:2; stroke-opacity:0.1; fill:none" points="
  185.348,1486.45 185.348,106.192 
  "/>
<polyline clip-path="url(#clip682)" style="stroke:#000000; stroke-width:2; stroke-opacity:0.1; fill:none" points="
  478.479,1486.45 478.479,106.192 
  "/>
<polyline clip-path="url(#clip682)" style="stroke:#000000; stroke-width:2; stroke-opacity:0.1; fill:none" points="
  771.61,1486.45 771.61,106.192 
  "/>
<polyline clip-path="url(#clip682)" style="stroke:#000000; stroke-width:2; stroke-opacity:0.1; fill:none" points="
  1064.74,1486.45 1064.74,106.192 
  "/>
<polyline clip-path="url(#clip682)" style="stroke:#000000; stroke-width:2; stroke-opacity:0.1; fill:none" points="
  1357.87,1486.45 1357.87,106.192 
  "/>
<polyline clip-path="url(#clip682)" style="stroke:#000000; stroke-width:2; stroke-opacity:0.1; fill:none" points="
  1651,1486.45 1651,106.192 
  "/>
<polyline clip-path="url(#clip682)" style="stroke:#000000; stroke-width:2; stroke-opacity:0.1; fill:none" points="
  1944.14,1486.45 1944.14,106.192 
  "/>
<polyline clip-path="url(#clip680)" style="stroke:#000000; stroke-width:4; stroke-opacity:1; fill:none" points="
  125.256,1486.45 2248.5,1486.45 
  "/>
<polyline clip-path="url(#clip680)" style="stroke:#000000; stroke-width:4; stroke-opacity:1; fill:none" points="
  125.256,1486.45 125.256,106.192 
  "/>
<polyline clip-path="url(#clip680)" style="stroke:#000000; stroke-width:4; stroke-opacity:1; fill:none" points="
  185.348,1486.45 185.348,1469.88 
  "/>
<polyline clip-path="url(#clip680)" style="stroke:#000000; stroke-width:4; stroke-opacity:1; fill:none" points="
  478.479,1486.45 478.479,1469.88 
  "/>
<polyline clip-path="url(#clip680)" style="stroke:#000000; stroke-width:4; stroke-opacity:1; fill:none" points="
  771.61,1486.45 771.61,1469.88 
  "/>
<polyline clip-path="url(#clip680)" style="stroke:#000000; stroke-width:4; stroke-opacity:1; fill:none" points="
  1064.74,1486.45 1064.74,1469.88 
  "/>
<polyline clip-path="url(#clip680)" style="stroke:#000000; stroke-width:4; stroke-opacity:1; fill:none" points="
  1357.87,1486.45 1357.87,1469.88 
  "/>
<polyline clip-path="url(#clip680)" style="stroke:#000000; stroke-width:4; stroke-opacity:1; fill:none" points="
  1651,1486.45 1651,1469.88 
  "/>
<polyline clip-path="url(#clip680)" style="stroke:#000000; stroke-width:4; stroke-opacity:1; fill:none" points="
  1944.14,1486.45 1944.14,1469.88 
  "/>
<polyline clip-path="url(#clip680)" style="stroke:#000000; stroke-width:4; stroke-opacity:1; fill:none" points="
  125.256,1486.45 150.735,1486.45 
  "/>
<polyline clip-path="url(#clip680)" style="stroke:#000000; stroke-width:4; stroke-opacity:1; fill:none" points="
  125.256,1289.27 150.735,1289.27 
  "/>
<polyline clip-path="url(#clip680)" style="stroke:#000000; stroke-width:4; stroke-opacity:1; fill:none" points="
  125.256,1092.09 150.735,1092.09 
  "/>
<polyline clip-path="url(#clip680)" style="stroke:#000000; stroke-width:4; stroke-opacity:1; fill:none" points="
  125.256,894.91 150.735,894.91 
  "/>
<polyline clip-path="url(#clip680)" style="stroke:#000000; stroke-width:4; stroke-opacity:1; fill:none" points="
  125.256,697.73 150.735,697.73 
  "/>
<polyline clip-path="url(#clip680)" style="stroke:#000000; stroke-width:4; stroke-opacity:1; fill:none" points="
  125.256,500.551 150.735,500.551 
  "/>
<polyline clip-path="url(#clip680)" style="stroke:#000000; stroke-width:4; stroke-opacity:1; fill:none" points="
  125.256,303.372 150.735,303.372 
  "/>
<polyline clip-path="url(#clip680)" style="stroke:#000000; stroke-width:4; stroke-opacity:1; fill:none" points="
  125.256,106.192 150.735,106.192 
  "/>
<path clip-path="url(#clip680)" d="M 0 0 M105.406 1535.98 L113.045 1535.98 L113.045 1509.62 L104.735 1511.29 L104.735 1507.03 L112.999 1505.36 L117.674 1505.36 L117.674 1535.98 L125.313 1535.98 L125.313 1539.92 L105.406 1539.92 L105.406 1535.98 Z" fill="#000000" fill-rule="evenodd" fill-opacity="1" /><path clip-path="url(#clip680)" d="M 0 0 M130.522 1539.2 L130.522 1534.94 Q132.281 1535.78 134.086 1536.22 Q135.892 1536.66 137.628 1536.66 Q142.258 1536.66 144.688 1533.55 Q147.142 1530.43 147.489 1524.09 Q146.147 1526.08 144.086 1527.14 Q142.026 1528.21 139.526 1528.21 Q134.341 1528.21 131.309 1525.08 Q128.299 1521.93 128.299 1516.49 Q128.299 1511.17 131.448 1507.95 Q134.596 1504.73 139.827 1504.73 Q145.822 1504.73 148.971 1509.34 Q152.142 1513.92 152.142 1522.67 Q152.142 1530.85 148.253 1535.73 Q144.387 1540.59 137.836 1540.59 Q136.077 1540.59 134.272 1540.24 Q132.466 1539.9 130.522 1539.2 M139.827 1524.55 Q142.975 1524.55 144.804 1522.4 Q146.656 1520.24 146.656 1516.49 Q146.656 1512.77 144.804 1510.61 Q142.975 1508.44 139.827 1508.44 Q136.679 1508.44 134.827 1510.61 Q132.998 1512.77 132.998 1516.49 Q132.998 1520.24 134.827 1522.4 Q136.679 1524.55 139.827 1524.55 Z" fill="#000000" fill-rule="evenodd" fill-opacity="1" /><path clip-path="url(#clip680)" d="M 0 0 M157.35 1539.2 L157.35 1534.94 Q159.109 1535.78 160.915 1536.22 Q162.721 1536.66 164.457 1536.66 Q169.086 1536.66 171.517 1533.55 Q173.97 1530.43 174.318 1524.09 Q172.975 1526.08 170.915 1527.14 Q168.855 1528.21 166.355 1528.21 Q161.17 1528.21 158.137 1525.08 Q155.128 1521.93 155.128 1516.49 Q155.128 1511.17 158.276 1507.95 Q161.424 1504.73 166.656 1504.73 Q172.651 1504.73 175.799 1509.34 Q178.97 1513.92 178.97 1522.67 Q178.97 1530.85 175.082 1535.73 Q171.216 1540.59 164.665 1540.59 Q162.906 1540.59 161.1 1540.24 Q159.295 1539.9 157.35 1539.2 M166.656 1524.55 Q169.804 1524.55 171.633 1522.4 Q173.484 1520.24 173.484 1516.49 Q173.484 1512.77 171.633 1510.61 Q169.804 1508.44 166.656 1508.44 Q163.508 1508.44 161.656 1510.61 Q159.827 1512.77 159.827 1516.49 Q159.827 1520.24 161.656 1522.4 Q163.508 1524.55 166.656 1524.55 Z" fill="#000000" fill-rule="evenodd" fill-opacity="1" /><path clip-path="url(#clip680)" d="M 0 0 M194.04 1523.51 Q190.707 1523.51 188.785 1525.29 Q186.887 1527.07 186.887 1530.2 Q186.887 1533.32 188.785 1535.11 Q190.707 1536.89 194.04 1536.89 Q197.373 1536.89 199.294 1535.11 Q201.216 1533.3 201.216 1530.2 Q201.216 1527.07 199.294 1525.29 Q197.396 1523.51 194.04 1523.51 M189.364 1521.52 Q186.355 1520.78 184.665 1518.72 Q182.998 1516.66 182.998 1513.69 Q182.998 1509.55 185.938 1507.14 Q188.901 1504.73 194.04 1504.73 Q199.202 1504.73 202.142 1507.14 Q205.081 1509.55 205.081 1513.69 Q205.081 1516.66 203.392 1518.72 Q201.725 1520.78 198.739 1521.52 Q202.118 1522.3 203.993 1524.6 Q205.892 1526.89 205.892 1530.2 Q205.892 1535.22 202.813 1537.91 Q199.757 1540.59 194.04 1540.59 Q188.322 1540.59 185.244 1537.91 Q182.188 1535.22 182.188 1530.2 Q182.188 1526.89 184.086 1524.6 Q185.984 1522.3 189.364 1521.52 M187.651 1514.13 Q187.651 1516.82 189.318 1518.32 Q191.007 1519.83 194.04 1519.83 Q197.049 1519.83 198.739 1518.32 Q200.452 1516.82 200.452 1514.13 Q200.452 1511.45 198.739 1509.94 Q197.049 1508.44 194.04 1508.44 Q191.007 1508.44 189.318 1509.94 Q187.651 1511.45 187.651 1514.13 Z" fill="#000000" fill-rule="evenodd" fill-opacity="1" /><path clip-path="url(#clip680)" d="M 0 0 M224.572 1508.53 Q219.479 1508.53 216.47 1512.33 Q213.484 1516.12 213.484 1522.67 Q213.484 1529.2 216.47 1533 Q219.479 1536.79 224.572 1536.79 Q229.665 1536.79 232.628 1533 Q235.614 1529.2 235.614 1522.67 Q235.614 1516.12 232.628 1512.33 Q229.665 1508.53 224.572 1508.53 M231.123 1539.29 L237.28 1546.03 L231.632 1546.03 L226.516 1540.5 Q225.753 1540.54 225.336 1540.57 Q224.942 1540.59 224.572 1540.59 Q217.28 1540.59 212.905 1535.73 Q208.554 1530.85 208.554 1522.67 Q208.554 1514.48 212.905 1509.62 Q217.28 1504.73 224.572 1504.73 Q231.841 1504.73 236.192 1509.62 Q240.544 1514.48 240.544 1522.67 Q240.544 1528.69 238.114 1532.98 Q235.706 1537.26 231.123 1539.29 Z" fill="#000000" fill-rule="evenodd" fill-opacity="1" /><path clip-path="url(#clip680)" d="M 0 0 M249.641 1535.98 L265.961 1535.98 L265.961 1539.92 L244.016 1539.92 L244.016 1535.98 Q246.678 1533.23 251.262 1528.6 Q255.868 1523.95 257.049 1522.61 Q259.294 1520.08 260.174 1518.35 Q261.076 1516.59 261.076 1514.9 Q261.076 1512.14 259.132 1510.41 Q257.211 1508.67 254.109 1508.67 Q251.91 1508.67 249.456 1509.43 Q247.026 1510.2 244.248 1511.75 L244.248 1507.03 Q247.072 1505.89 249.526 1505.31 Q251.979 1504.73 254.016 1504.73 Q259.387 1504.73 262.581 1507.42 Q265.776 1510.11 265.776 1514.6 Q265.776 1516.73 264.965 1518.65 Q264.178 1520.54 262.072 1523.14 Q261.493 1523.81 258.391 1527.03 Q255.289 1530.22 249.641 1535.98 Z" fill="#000000" fill-rule="evenodd" fill-opacity="1" /><path clip-path="url(#clip680)" d="M 0 0 M403.19 1535.98 L419.51 1535.98 L419.51 1539.92 L397.565 1539.92 L397.565 1535.98 Q400.227 1533.23 404.811 1528.6 Q409.417 1523.95 410.598 1522.61 Q412.843 1520.08 413.722 1518.35 Q414.625 1516.59 414.625 1514.9 Q414.625 1512.14 412.681 1510.41 Q410.76 1508.67 407.658 1508.67 Q405.459 1508.67 403.005 1509.43 Q400.574 1510.2 397.797 1511.75 L397.797 1507.03 Q400.621 1505.89 403.074 1505.31 Q405.528 1504.73 407.565 1504.73 Q412.935 1504.73 416.13 1507.42 Q419.324 1510.11 419.324 1514.6 Q419.324 1516.73 418.514 1518.65 Q417.727 1520.54 415.621 1523.14 Q415.042 1523.81 411.94 1527.03 Q408.838 1530.22 403.19 1535.98 Z" fill="#000000" fill-rule="evenodd" fill-opacity="1" /><path clip-path="url(#clip680)" d="M 0 0 M434.579 1508.44 Q430.968 1508.44 429.139 1512 Q427.334 1515.55 427.334 1522.67 Q427.334 1529.78 429.139 1533.35 Q430.968 1536.89 434.579 1536.89 Q438.213 1536.89 440.019 1533.35 Q441.847 1529.78 441.847 1522.67 Q441.847 1515.55 440.019 1512 Q438.213 1508.44 434.579 1508.44 M434.579 1504.73 Q440.389 1504.73 443.445 1509.34 Q446.523 1513.92 446.523 1522.67 Q446.523 1531.4 443.445 1536.01 Q440.389 1540.59 434.579 1540.59 Q428.769 1540.59 425.69 1536.01 Q422.634 1531.4 422.634 1522.67 Q422.634 1513.92 425.69 1509.34 Q428.769 1504.73 434.579 1504.73 Z" fill="#000000" fill-rule="evenodd" fill-opacity="1" /><path clip-path="url(#clip680)" d="M 0 0 M461.593 1508.44 Q457.982 1508.44 456.153 1512 Q454.347 1515.55 454.347 1522.67 Q454.347 1529.78 456.153 1533.35 Q457.982 1536.89 461.593 1536.89 Q465.227 1536.89 467.032 1533.35 Q468.861 1529.78 468.861 1522.67 Q468.861 1515.55 467.032 1512 Q465.227 1508.44 461.593 1508.44 M461.593 1504.73 Q467.403 1504.73 470.458 1509.34 Q473.537 1513.92 473.537 1522.67 Q473.537 1531.4 470.458 1536.01 Q467.403 1540.59 461.593 1540.59 Q455.782 1540.59 452.704 1536.01 Q449.648 1531.4 449.648 1522.67 Q449.648 1513.92 452.704 1509.34 Q455.782 1504.73 461.593 1504.73 Z" fill="#000000" fill-rule="evenodd" fill-opacity="1" /><path clip-path="url(#clip680)" d="M 0 0 M479.417 1535.98 L487.055 1535.98 L487.055 1509.62 L478.745 1511.29 L478.745 1507.03 L487.009 1505.36 L491.685 1505.36 L491.685 1535.98 L499.324 1535.98 L499.324 1539.92 L479.417 1539.92 L479.417 1535.98 Z" fill="#000000" fill-rule="evenodd" fill-opacity="1" /><path clip-path="url(#clip680)" d="M 0 0 M518.004 1508.53 Q512.912 1508.53 509.903 1512.33 Q506.916 1516.12 506.916 1522.67 Q506.916 1529.2 509.903 1533 Q512.912 1536.79 518.004 1536.79 Q523.097 1536.79 526.06 1533 Q529.046 1529.2 529.046 1522.67 Q529.046 1516.12 526.06 1512.33 Q523.097 1508.53 518.004 1508.53 M524.555 1539.29 L530.713 1546.03 L525.064 1546.03 L519.949 1540.5 Q519.185 1540.54 518.768 1540.57 Q518.375 1540.59 518.004 1540.59 Q510.713 1540.59 506.338 1535.73 Q501.986 1530.85 501.986 1522.67 Q501.986 1514.48 506.338 1509.62 Q510.713 1504.73 518.004 1504.73 Q525.273 1504.73 529.625 1509.62 Q533.976 1514.48 533.976 1522.67 Q533.976 1528.69 531.546 1532.98 Q529.139 1537.26 524.555 1539.29 Z" fill="#000000" fill-rule="evenodd" fill-opacity="1" /><path clip-path="url(#clip680)" d="M 0 0 M543.074 1535.98 L559.393 1535.98 L559.393 1539.92 L537.449 1539.92 L537.449 1535.98 Q540.111 1533.23 544.694 1528.6 Q549.3 1523.95 550.481 1522.61 Q552.726 1520.08 553.606 1518.35 Q554.509 1516.59 554.509 1514.9 Q554.509 1512.14 552.564 1510.41 Q550.643 1508.67 547.541 1508.67 Q545.342 1508.67 542.888 1509.43 Q540.458 1510.2 537.68 1511.75 L537.68 1507.03 Q540.504 1505.89 542.958 1505.31 Q545.412 1504.73 547.449 1504.73 Q552.819 1504.73 556.013 1507.42 Q559.208 1510.11 559.208 1514.6 Q559.208 1516.73 558.398 1518.65 Q557.611 1520.54 555.504 1523.14 Q554.925 1523.81 551.824 1527.03 Q548.722 1530.22 543.074 1535.98 Z" fill="#000000" fill-rule="evenodd" fill-opacity="1" /><path clip-path="url(#clip680)" d="M 0 0 M695.465 1535.98 L711.784 1535.98 L711.784 1539.92 L689.84 1539.92 L689.84 1535.98 Q692.502 1533.23 697.085 1528.6 Q701.692 1523.95 702.872 1522.61 Q705.118 1520.08 705.997 1518.35 Q706.9 1516.59 706.9 1514.9 Q706.9 1512.14 704.956 1510.41 Q703.034 1508.67 699.933 1508.67 Q697.734 1508.67 695.28 1509.43 Q692.849 1510.2 690.072 1511.75 L690.072 1507.03 Q692.896 1505.89 695.349 1505.31 Q697.803 1504.73 699.84 1504.73 Q705.21 1504.73 708.405 1507.42 Q711.599 1510.11 711.599 1514.6 Q711.599 1516.73 710.789 1518.65 Q710.002 1520.54 707.896 1523.14 Q707.317 1523.81 704.215 1527.03 Q701.113 1530.22 695.465 1535.98 Z" fill="#000000" fill-rule="evenodd" fill-opacity="1" /><path clip-path="url(#clip680)" d="M 0 0 M726.854 1508.44 Q723.243 1508.44 721.414 1512 Q719.608 1515.55 719.608 1522.67 Q719.608 1529.78 721.414 1533.35 Q723.243 1536.89 726.854 1536.89 Q730.488 1536.89 732.294 1533.35 Q734.122 1529.78 734.122 1522.67 Q734.122 1515.55 732.294 1512 Q730.488 1508.44 726.854 1508.44 M726.854 1504.73 Q732.664 1504.73 735.719 1509.34 Q738.798 1513.92 738.798 1522.67 Q738.798 1531.4 735.719 1536.01 Q732.664 1540.59 726.854 1540.59 Q721.044 1540.59 717.965 1536.01 Q714.909 1531.4 714.909 1522.67 Q714.909 1513.92 717.965 1509.34 Q721.044 1504.73 726.854 1504.73 Z" fill="#000000" fill-rule="evenodd" fill-opacity="1" /><path clip-path="url(#clip680)" d="M 0 0 M753.867 1508.44 Q750.256 1508.44 748.428 1512 Q746.622 1515.55 746.622 1522.67 Q746.622 1529.78 748.428 1533.35 Q750.256 1536.89 753.867 1536.89 Q757.502 1536.89 759.307 1533.35 Q761.136 1529.78 761.136 1522.67 Q761.136 1515.55 759.307 1512 Q757.502 1508.44 753.867 1508.44 M753.867 1504.73 Q759.678 1504.73 762.733 1509.34 Q765.812 1513.92 765.812 1522.67 Q765.812 1531.4 762.733 1536.01 Q759.678 1540.59 753.867 1540.59 Q748.057 1540.59 744.979 1536.01 Q741.923 1531.4 741.923 1522.67 Q741.923 1513.92 744.979 1509.34 Q748.057 1504.73 753.867 1504.73 Z" fill="#000000" fill-rule="evenodd" fill-opacity="1" /><path clip-path="url(#clip680)" d="M 0 0 M783.728 1509.43 L771.923 1527.88 L783.728 1527.88 L783.728 1509.43 M782.502 1505.36 L788.381 1505.36 L788.381 1527.88 L793.312 1527.88 L793.312 1531.77 L788.381 1531.77 L788.381 1539.92 L783.728 1539.92 L783.728 1531.77 L768.127 1531.77 L768.127 1527.26 L782.502 1505.36 Z" fill="#000000" fill-rule="evenodd" fill-opacity="1" /><path clip-path="url(#clip680)" d="M 0 0 M811.992 1508.53 Q806.9 1508.53 803.89 1512.33 Q800.904 1516.12 800.904 1522.67 Q800.904 1529.2 803.89 1533 Q806.9 1536.79 811.992 1536.79 Q817.085 1536.79 820.048 1533 Q823.034 1529.2 823.034 1522.67 Q823.034 1516.12 820.048 1512.33 Q817.085 1508.53 811.992 1508.53 M818.543 1539.29 L824.7 1546.03 L819.052 1546.03 L813.937 1540.5 Q813.173 1540.54 812.756 1540.57 Q812.363 1540.59 811.992 1540.59 Q804.701 1540.59 800.326 1535.73 Q795.974 1530.85 795.974 1522.67 Q795.974 1514.48 800.326 1509.62 Q804.701 1504.73 811.992 1504.73 Q819.261 1504.73 823.612 1509.62 Q827.964 1514.48 827.964 1522.67 Q827.964 1528.69 825.534 1532.98 Q823.126 1537.26 818.543 1539.29 Z" fill="#000000" fill-rule="evenodd" fill-opacity="1" /><path clip-path="url(#clip680)" d="M 0 0 M837.061 1535.98 L853.381 1535.98 L853.381 1539.92 L831.437 1539.92 L831.437 1535.98 Q834.099 1533.23 838.682 1528.6 Q843.288 1523.95 844.469 1522.61 Q846.714 1520.08 847.594 1518.35 Q848.497 1516.59 848.497 1514.9 Q848.497 1512.14 846.552 1510.41 Q844.631 1508.67 841.529 1508.67 Q839.33 1508.67 836.876 1509.43 Q834.446 1510.2 831.668 1511.75 L831.668 1507.03 Q834.492 1505.89 836.946 1505.31 Q839.399 1504.73 841.436 1504.73 Q846.807 1504.73 850.001 1507.42 Q853.196 1510.11 853.196 1514.6 Q853.196 1516.73 852.385 1518.65 Q851.598 1520.54 849.492 1523.14 Q848.913 1523.81 845.811 1527.03 Q842.71 1530.22 837.061 1535.98 Z" fill="#000000" fill-rule="evenodd" fill-opacity="1" /><path clip-path="url(#clip680)" d="M 0 0 M989.291 1535.98 L1005.61 1535.98 L1005.61 1539.92 L983.666 1539.92 L983.666 1535.98 Q986.328 1533.23 990.911 1528.6 Q995.518 1523.95 996.698 1522.61 Q998.944 1520.08 999.823 1518.35 Q1000.73 1516.59 1000.73 1514.9 Q1000.73 1512.14 998.782 1510.41 Q996.86 1508.67 993.758 1508.67 Q991.559 1508.67 989.106 1509.43 Q986.675 1510.2 983.897 1511.75 L983.897 1507.03 Q986.721 1505.89 989.175 1505.31 Q991.629 1504.73 993.666 1504.73 Q999.036 1504.73 1002.23 1507.42 Q1005.42 1510.11 1005.42 1514.6 Q1005.42 1516.73 1004.61 1518.65 Q1003.83 1520.54 1001.72 1523.14 Q1001.14 1523.81 998.041 1527.03 Q994.939 1530.22 989.291 1535.98 Z" fill="#000000" fill-rule="evenodd" fill-opacity="1" /><path clip-path="url(#clip680)" d="M 0 0 M1020.68 1508.44 Q1017.07 1508.44 1015.24 1512 Q1013.43 1515.55 1013.43 1522.67 Q1013.43 1529.78 1015.24 1533.35 Q1017.07 1536.89 1020.68 1536.89 Q1024.31 1536.89 1026.12 1533.35 Q1027.95 1529.78 1027.95 1522.67 Q1027.95 1515.55 1026.12 1512 Q1024.31 1508.44 1020.68 1508.44 M1020.68 1504.73 Q1026.49 1504.73 1029.55 1509.34 Q1032.62 1513.92 1032.62 1522.67 Q1032.62 1531.4 1029.55 1536.01 Q1026.49 1540.59 1020.68 1540.59 Q1014.87 1540.59 1011.79 1536.01 Q1008.74 1531.4 1008.74 1522.67 Q1008.74 1513.92 1011.79 1509.34 Q1014.87 1504.73 1020.68 1504.73 Z" fill="#000000" fill-rule="evenodd" fill-opacity="1" /><path clip-path="url(#clip680)" d="M 0 0 M1047.69 1508.44 Q1044.08 1508.44 1042.25 1512 Q1040.45 1515.55 1040.45 1522.67 Q1040.45 1529.78 1042.25 1533.35 Q1044.08 1536.89 1047.69 1536.89 Q1051.33 1536.89 1053.13 1533.35 Q1054.96 1529.78 1054.96 1522.67 Q1054.96 1515.55 1053.13 1512 Q1051.33 1508.44 1047.69 1508.44 M1047.69 1504.73 Q1053.5 1504.73 1056.56 1509.34 Q1059.64 1513.92 1059.64 1522.67 Q1059.64 1531.4 1056.56 1536.01 Q1053.5 1540.59 1047.69 1540.59 Q1041.88 1540.59 1038.8 1536.01 Q1035.75 1531.4 1035.75 1522.67 Q1035.75 1513.92 1038.8 1509.34 Q1041.88 1504.73 1047.69 1504.73 Z" fill="#000000" fill-rule="evenodd" fill-opacity="1" /><path clip-path="url(#clip680)" d="M 0 0 M1063.53 1505.36 L1085.75 1505.36 L1085.75 1507.35 L1073.2 1539.92 L1068.32 1539.92 L1080.12 1509.3 L1063.53 1509.3 L1063.53 1505.36 Z" fill="#000000" fill-rule="evenodd" fill-opacity="1" /><path clip-path="url(#clip680)" d="M 0 0 M1104.43 1508.53 Q1099.34 1508.53 1096.33 1512.33 Q1093.34 1516.12 1093.34 1522.67 Q1093.34 1529.2 1096.33 1533 Q1099.34 1536.79 1104.43 1536.79 Q1109.52 1536.79 1112.48 1533 Q1115.47 1529.2 1115.47 1522.67 Q1115.47 1516.12 1112.48 1512.33 Q1109.52 1508.53 1104.43 1508.53 M1110.98 1539.29 L1117.14 1546.03 L1111.49 1546.03 L1106.37 1540.5 Q1105.61 1540.54 1105.19 1540.57 Q1104.8 1540.59 1104.43 1540.59 Q1097.14 1540.59 1092.76 1535.73 Q1088.41 1530.85 1088.41 1522.67 Q1088.41 1514.48 1092.76 1509.62 Q1097.14 1504.73 1104.43 1504.73 Q1111.7 1504.73 1116.05 1509.62 Q1120.4 1514.48 1120.4 1522.67 Q1120.4 1528.69 1117.97 1532.98 Q1115.56 1537.26 1110.98 1539.29 Z" fill="#000000" fill-rule="evenodd" fill-opacity="1" /><path clip-path="url(#clip680)" d="M 0 0 M1129.5 1535.98 L1145.82 1535.98 L1145.82 1539.92 L1123.87 1539.92 L1123.87 1535.98 Q1126.54 1533.23 1131.12 1528.6 Q1135.73 1523.95 1136.91 1522.61 Q1139.15 1520.08 1140.03 1518.35 Q1140.93 1516.59 1140.93 1514.9 Q1140.93 1512.14 1138.99 1510.41 Q1137.07 1508.67 1133.97 1508.67 Q1131.77 1508.67 1129.31 1509.43 Q1126.88 1510.2 1124.1 1511.75 L1124.1 1507.03 Q1126.93 1505.89 1129.38 1505.31 Q1131.84 1504.73 1133.87 1504.73 Q1139.24 1504.73 1142.44 1507.42 Q1145.63 1510.11 1145.63 1514.6 Q1145.63 1516.73 1144.82 1518.65 Q1144.04 1520.54 1141.93 1523.14 Q1141.35 1523.81 1138.25 1527.03 Q1135.15 1530.22 1129.5 1535.98 Z" fill="#000000" fill-rule="evenodd" fill-opacity="1" /><path clip-path="url(#clip680)" d="M 0 0 M1282.58 1535.98 L1298.9 1535.98 L1298.9 1539.92 L1276.96 1539.92 L1276.96 1535.98 Q1279.62 1533.23 1284.2 1528.6 Q1288.81 1523.95 1289.99 1522.61 Q1292.24 1520.08 1293.12 1518.35 Q1294.02 1516.59 1294.02 1514.9 Q1294.02 1512.14 1292.07 1510.41 Q1290.15 1508.67 1287.05 1508.67 Q1284.85 1508.67 1282.4 1509.43 Q1279.97 1510.2 1277.19 1511.75 L1277.19 1507.03 Q1280.01 1505.89 1282.47 1505.31 Q1284.92 1504.73 1286.96 1504.73 Q1292.33 1504.73 1295.52 1507.42 Q1298.72 1510.11 1298.72 1514.6 Q1298.72 1516.73 1297.91 1518.65 Q1297.12 1520.54 1295.01 1523.14 Q1294.44 1523.81 1291.33 1527.03 Q1288.23 1530.22 1282.58 1535.98 Z" fill="#000000" fill-rule="evenodd" fill-opacity="1" /><path clip-path="url(#clip680)" d="M 0 0 M1313.97 1508.44 Q1310.36 1508.44 1308.53 1512 Q1306.73 1515.55 1306.73 1522.67 Q1306.73 1529.78 1308.53 1533.35 Q1310.36 1536.89 1313.97 1536.89 Q1317.61 1536.89 1319.41 1533.35 Q1321.24 1529.78 1321.24 1522.67 Q1321.24 1515.55 1319.41 1512 Q1317.61 1508.44 1313.97 1508.44 M1313.97 1504.73 Q1319.78 1504.73 1322.84 1509.34 Q1325.92 1513.92 1325.92 1522.67 Q1325.92 1531.4 1322.84 1536.01 Q1319.78 1540.59 1313.97 1540.59 Q1308.16 1540.59 1305.08 1536.01 Q1302.03 1531.4 1302.03 1522.67 Q1302.03 1513.92 1305.08 1509.34 Q1308.16 1504.73 1313.97 1504.73 Z" fill="#000000" fill-rule="evenodd" fill-opacity="1" /><path clip-path="url(#clip680)" d="M 0 0 M1331.8 1535.98 L1339.44 1535.98 L1339.44 1509.62 L1331.13 1511.29 L1331.13 1507.03 L1339.39 1505.36 L1344.07 1505.36 L1344.07 1535.98 L1351.7 1535.98 L1351.7 1539.92 L1331.8 1539.92 L1331.8 1535.98 Z" fill="#000000" fill-rule="evenodd" fill-opacity="1" /><path clip-path="url(#clip680)" d="M 0 0 M1366.77 1508.44 Q1363.16 1508.44 1361.33 1512 Q1359.53 1515.55 1359.53 1522.67 Q1359.53 1529.78 1361.33 1533.35 Q1363.16 1536.89 1366.77 1536.89 Q1370.41 1536.89 1372.21 1533.35 Q1374.04 1529.78 1374.04 1522.67 Q1374.04 1515.55 1372.21 1512 Q1370.41 1508.44 1366.77 1508.44 M1366.77 1504.73 Q1372.58 1504.73 1375.64 1509.34 Q1378.72 1513.92 1378.72 1522.67 Q1378.72 1531.4 1375.64 1536.01 Q1372.58 1540.59 1366.77 1540.59 Q1360.96 1540.59 1357.88 1536.01 Q1354.83 1531.4 1354.83 1522.67 Q1354.83 1513.92 1357.88 1509.34 Q1360.96 1504.73 1366.77 1504.73 Z" fill="#000000" fill-rule="evenodd" fill-opacity="1" /><path clip-path="url(#clip680)" d="M 0 0 M1397.4 1508.53 Q1392.31 1508.53 1389.3 1512.33 Q1386.31 1516.12 1386.31 1522.67 Q1386.31 1529.2 1389.3 1533 Q1392.31 1536.79 1397.4 1536.79 Q1402.49 1536.79 1405.45 1533 Q1408.44 1529.2 1408.44 1522.67 Q1408.44 1516.12 1405.45 1512.33 Q1402.49 1508.53 1397.4 1508.53 M1403.95 1539.29 L1410.11 1546.03 L1404.46 1546.03 L1399.34 1540.5 Q1398.58 1540.54 1398.16 1540.57 Q1397.77 1540.59 1397.4 1540.59 Q1390.11 1540.59 1385.73 1535.73 Q1381.38 1530.85 1381.38 1522.67 Q1381.38 1514.48 1385.73 1509.62 Q1390.11 1504.73 1397.4 1504.73 Q1404.67 1504.73 1409.02 1509.62 Q1413.37 1514.48 1413.37 1522.67 Q1413.37 1528.69 1410.94 1532.98 Q1408.53 1537.26 1403.95 1539.29 Z" fill="#000000" fill-rule="evenodd" fill-opacity="1" /><path clip-path="url(#clip680)" d="M 0 0 M1422.47 1535.98 L1438.79 1535.98 L1438.79 1539.92 L1416.84 1539.92 L1416.84 1535.98 Q1419.5 1533.23 1424.09 1528.6 Q1428.69 1523.95 1429.88 1522.61 Q1432.12 1520.08 1433 1518.35 Q1433.9 1516.59 1433.9 1514.9 Q1433.9 1512.14 1431.96 1510.41 Q1430.04 1508.67 1426.94 1508.67 Q1424.74 1508.67 1422.28 1509.43 Q1419.85 1510.2 1417.07 1511.75 L1417.07 1507.03 Q1419.9 1505.89 1422.35 1505.31 Q1424.81 1504.73 1426.84 1504.73 Q1432.21 1504.73 1435.41 1507.42 Q1438.6 1510.11 1438.6 1514.6 Q1438.6 1516.73 1437.79 1518.65 Q1437 1520.54 1434.9 1523.14 Q1434.32 1523.81 1431.22 1527.03 Q1428.12 1530.22 1422.47 1535.98 Z" fill="#000000" fill-rule="evenodd" fill-opacity="1" /><path clip-path="url(#clip680)" d="M 0 0 M1576.04 1535.98 L1592.36 1535.98 L1592.36 1539.92 L1570.41 1539.92 L1570.41 1535.98 Q1573.08 1533.23 1577.66 1528.6 Q1582.27 1523.95 1583.45 1522.61 Q1585.69 1520.08 1586.57 1518.35 Q1587.47 1516.59 1587.47 1514.9 Q1587.47 1512.14 1585.53 1510.41 Q1583.61 1508.67 1580.51 1508.67 Q1578.31 1508.67 1575.85 1509.43 Q1573.42 1510.2 1570.65 1511.75 L1570.65 1507.03 Q1573.47 1505.89 1575.92 1505.31 Q1578.38 1504.73 1580.41 1504.73 Q1585.78 1504.73 1588.98 1507.42 Q1592.17 1510.11 1592.17 1514.6 Q1592.17 1516.73 1591.36 1518.65 Q1590.58 1520.54 1588.47 1523.14 Q1587.89 1523.81 1584.79 1527.03 Q1581.69 1530.22 1576.04 1535.98 Z" fill="#000000" fill-rule="evenodd" fill-opacity="1" /><path clip-path="url(#clip680)" d="M 0 0 M1607.43 1508.44 Q1603.82 1508.44 1601.99 1512 Q1600.18 1515.55 1600.18 1522.67 Q1600.18 1529.78 1601.99 1533.35 Q1603.82 1536.89 1607.43 1536.89 Q1611.06 1536.89 1612.87 1533.35 Q1614.7 1529.78 1614.7 1522.67 Q1614.7 1515.55 1612.87 1512 Q1611.06 1508.44 1607.43 1508.44 M1607.43 1504.73 Q1613.24 1504.73 1616.29 1509.34 Q1619.37 1513.92 1619.37 1522.67 Q1619.37 1531.4 1616.29 1536.01 Q1613.24 1540.59 1607.43 1540.59 Q1601.62 1540.59 1598.54 1536.01 Q1595.48 1531.4 1595.48 1522.67 Q1595.48 1513.92 1598.54 1509.34 Q1601.62 1504.73 1607.43 1504.73 Z" fill="#000000" fill-rule="evenodd" fill-opacity="1" /><path clip-path="url(#clip680)" d="M 0 0 M1625.25 1535.98 L1632.89 1535.98 L1632.89 1509.62 L1624.58 1511.29 L1624.58 1507.03 L1632.84 1505.36 L1637.52 1505.36 L1637.52 1535.98 L1645.16 1535.98 L1645.16 1539.92 L1625.25 1539.92 L1625.25 1535.98 Z" fill="#000000" fill-rule="evenodd" fill-opacity="1" /><path clip-path="url(#clip680)" d="M 0 0 M1664.4 1521.29 Q1667.75 1522 1669.63 1524.27 Q1671.53 1526.54 1671.53 1529.87 Q1671.53 1534.99 1668.01 1537.79 Q1664.49 1540.59 1658.01 1540.59 Q1655.83 1540.59 1653.52 1540.15 Q1651.22 1539.73 1648.77 1538.88 L1648.77 1534.36 Q1650.72 1535.5 1653.03 1536.08 Q1655.34 1536.66 1657.87 1536.66 Q1662.27 1536.66 1664.56 1534.92 Q1666.87 1533.18 1666.87 1529.87 Q1666.87 1526.82 1664.72 1525.11 Q1662.59 1523.37 1658.77 1523.37 L1654.74 1523.37 L1654.74 1519.53 L1658.96 1519.53 Q1662.4 1519.53 1664.23 1518.16 Q1666.06 1516.77 1666.06 1514.18 Q1666.06 1511.52 1664.16 1510.11 Q1662.29 1508.67 1658.77 1508.67 Q1656.85 1508.67 1654.65 1509.09 Q1652.45 1509.5 1649.81 1510.38 L1649.81 1506.22 Q1652.47 1505.48 1654.79 1505.11 Q1657.13 1504.73 1659.19 1504.73 Q1664.51 1504.73 1667.61 1507.17 Q1670.72 1509.57 1670.72 1513.69 Q1670.72 1516.56 1669.07 1518.55 Q1667.43 1520.52 1664.4 1521.29 Z" fill="#000000" fill-rule="evenodd" fill-opacity="1" /><path clip-path="url(#clip680)" d="M 0 0 M1690.21 1508.53 Q1685.11 1508.53 1682.1 1512.33 Q1679.12 1516.12 1679.12 1522.67 Q1679.12 1529.2 1682.1 1533 Q1685.11 1536.79 1690.21 1536.79 Q1695.3 1536.79 1698.26 1533 Q1701.25 1529.2 1701.25 1522.67 Q1701.25 1516.12 1698.26 1512.33 Q1695.3 1508.53 1690.21 1508.53 M1696.76 1539.29 L1702.91 1546.03 L1697.27 1546.03 L1692.15 1540.5 Q1691.39 1540.54 1690.97 1540.57 Q1690.58 1540.59 1690.21 1540.59 Q1682.91 1540.59 1678.54 1535.73 Q1674.19 1530.85 1674.19 1522.67 Q1674.19 1514.48 1678.54 1509.62 Q1682.91 1504.73 1690.21 1504.73 Q1697.47 1504.73 1701.83 1509.62 Q1706.18 1514.48 1706.18 1522.67 Q1706.18 1528.69 1703.75 1532.98 Q1701.34 1537.26 1696.76 1539.29 Z" fill="#000000" fill-rule="evenodd" fill-opacity="1" /><path clip-path="url(#clip680)" d="M 0 0 M1715.28 1535.98 L1731.59 1535.98 L1731.59 1539.92 L1709.65 1539.92 L1709.65 1535.98 Q1712.31 1533.23 1716.9 1528.6 Q1721.5 1523.95 1722.68 1522.61 Q1724.93 1520.08 1725.81 1518.35 Q1726.71 1516.59 1726.71 1514.9 Q1726.71 1512.14 1724.77 1510.41 Q1722.84 1508.67 1719.74 1508.67 Q1717.54 1508.67 1715.09 1509.43 Q1712.66 1510.2 1709.88 1511.75 L1709.88 1507.03 Q1712.71 1505.89 1715.16 1505.31 Q1717.61 1504.73 1719.65 1504.73 Q1725.02 1504.73 1728.21 1507.42 Q1731.41 1510.11 1731.41 1514.6 Q1731.41 1516.73 1730.6 1518.65 Q1729.81 1520.54 1727.71 1523.14 Q1727.13 1523.81 1724.02 1527.03 Q1720.92 1530.22 1715.28 1535.98 Z" fill="#000000" fill-rule="evenodd" fill-opacity="1" /><path clip-path="url(#clip680)" d="M 0 0 M1868.77 1535.98 L1885.09 1535.98 L1885.09 1539.92 L1863.14 1539.92 L1863.14 1535.98 Q1865.8 1533.23 1870.39 1528.6 Q1874.99 1523.95 1876.17 1522.61 Q1878.42 1520.08 1879.3 1518.35 Q1880.2 1516.59 1880.2 1514.9 Q1880.2 1512.14 1878.26 1510.41 Q1876.34 1508.67 1873.23 1508.67 Q1871.03 1508.67 1868.58 1509.43 Q1866.15 1510.2 1863.37 1511.75 L1863.37 1507.03 Q1866.2 1505.89 1868.65 1505.31 Q1871.1 1504.73 1873.14 1504.73 Q1878.51 1504.73 1881.71 1507.42 Q1884.9 1510.11 1884.9 1514.6 Q1884.9 1516.73 1884.09 1518.65 Q1883.3 1520.54 1881.2 1523.14 Q1880.62 1523.81 1877.52 1527.03 Q1874.41 1530.22 1868.77 1535.98 Z" fill="#000000" fill-rule="evenodd" fill-opacity="1" /><path clip-path="url(#clip680)" d="M 0 0 M1900.15 1508.44 Q1896.54 1508.44 1894.71 1512 Q1892.91 1515.55 1892.91 1522.67 Q1892.91 1529.78 1894.71 1533.35 Q1896.54 1536.89 1900.15 1536.89 Q1903.79 1536.89 1905.59 1533.35 Q1907.42 1529.78 1907.42 1522.67 Q1907.42 1515.55 1905.59 1512 Q1903.79 1508.44 1900.15 1508.44 M1900.15 1504.73 Q1905.96 1504.73 1909.02 1509.34 Q1912.1 1513.92 1912.1 1522.67 Q1912.1 1531.4 1909.02 1536.01 Q1905.96 1540.59 1900.15 1540.59 Q1894.34 1540.59 1891.27 1536.01 Q1888.21 1531.4 1888.21 1522.67 Q1888.21 1513.92 1891.27 1509.34 Q1894.34 1504.73 1900.15 1504.73 Z" fill="#000000" fill-rule="evenodd" fill-opacity="1" /><path clip-path="url(#clip680)" d="M 0 0 M1917.98 1535.98 L1925.62 1535.98 L1925.62 1509.62 L1917.31 1511.29 L1917.31 1507.03 L1925.57 1505.36 L1930.25 1505.36 L1930.25 1535.98 L1937.89 1535.98 L1937.89 1539.92 L1917.98 1539.92 L1917.98 1535.98 Z" fill="#000000" fill-rule="evenodd" fill-opacity="1" /><path clip-path="url(#clip680)" d="M 0 0 M1953.53 1520.78 Q1950.39 1520.78 1948.53 1522.93 Q1946.71 1525.08 1946.71 1528.83 Q1946.71 1532.56 1948.53 1534.73 Q1950.39 1536.89 1953.53 1536.89 Q1956.68 1536.89 1958.51 1534.73 Q1960.36 1532.56 1960.36 1528.83 Q1960.36 1525.08 1958.51 1522.93 Q1956.68 1520.78 1953.53 1520.78 M1962.82 1506.12 L1962.82 1510.38 Q1961.06 1509.55 1959.25 1509.11 Q1957.47 1508.67 1955.71 1508.67 Q1951.08 1508.67 1948.63 1511.8 Q1946.2 1514.92 1945.85 1521.24 Q1947.21 1519.23 1949.27 1518.16 Q1951.33 1517.07 1953.81 1517.07 Q1959.02 1517.07 1962.03 1520.24 Q1965.06 1523.39 1965.06 1528.83 Q1965.06 1534.16 1961.91 1537.37 Q1958.77 1540.59 1953.53 1540.59 Q1947.54 1540.59 1944.37 1536.01 Q1941.2 1531.4 1941.2 1522.67 Q1941.2 1514.48 1945.08 1509.62 Q1948.97 1504.73 1955.52 1504.73 Q1957.28 1504.73 1959.07 1505.08 Q1960.87 1505.43 1962.82 1506.12 Z" fill="#000000" fill-rule="evenodd" fill-opacity="1" /><path clip-path="url(#clip680)" d="M 0 0 M1983.74 1508.53 Q1978.65 1508.53 1975.64 1512.33 Q1972.65 1516.12 1972.65 1522.67 Q1972.65 1529.2 1975.64 1533 Q1978.65 1536.79 1983.74 1536.79 Q1988.83 1536.79 1991.8 1533 Q1994.78 1529.2 1994.78 1522.67 Q1994.78 1516.12 1991.8 1512.33 Q1988.83 1508.53 1983.74 1508.53 M1990.29 1539.29 L1996.45 1546.03 L1990.8 1546.03 L1985.69 1540.5 Q1984.92 1540.54 1984.51 1540.57 Q1984.11 1540.59 1983.74 1540.59 Q1976.45 1540.59 1972.08 1535.73 Q1967.72 1530.85 1967.72 1522.67 Q1967.72 1514.48 1972.08 1509.62 Q1976.45 1504.73 1983.74 1504.73 Q1991.01 1504.73 1995.36 1509.62 Q1999.71 1514.48 1999.71 1522.67 Q1999.71 1528.69 1997.28 1532.98 Q1994.88 1537.26 1990.29 1539.29 Z" fill="#000000" fill-rule="evenodd" fill-opacity="1" /><path clip-path="url(#clip680)" d="M 0 0 M2008.81 1535.98 L2025.13 1535.98 L2025.13 1539.92 L2003.19 1539.92 L2003.19 1535.98 Q2005.85 1533.23 2010.43 1528.6 Q2015.04 1523.95 2016.22 1522.61 Q2018.46 1520.08 2019.34 1518.35 Q2020.25 1516.59 2020.25 1514.9 Q2020.25 1512.14 2018.3 1510.41 Q2016.38 1508.67 2013.28 1508.67 Q2011.08 1508.67 2008.63 1509.43 Q2006.2 1510.2 2003.42 1511.75 L2003.42 1507.03 Q2006.24 1505.89 2008.7 1505.31 Q2011.15 1504.73 2013.19 1504.73 Q2018.56 1504.73 2021.75 1507.42 Q2024.95 1510.11 2024.95 1514.6 Q2024.95 1516.73 2024.14 1518.65 Q2023.35 1520.54 2021.24 1523.14 Q2020.66 1523.81 2017.56 1527.03 Q2014.46 1530.22 2008.81 1535.98 Z" fill="#000000" fill-rule="evenodd" fill-opacity="1" /><path clip-path="url(#clip680)" d="M 0 0 M63.3625 1488.84 L75.8393 1488.84 L75.8393 1492.64 L63.3625 1492.64 L63.3625 1488.84 Z" fill="#000000" fill-rule="evenodd" fill-opacity="1" /><path clip-path="url(#clip680)" d="M 0 0 M84.9365 1499.79 L101.256 1499.79 L101.256 1503.73 L79.3115 1503.73 L79.3115 1499.79 Q81.9735 1497.04 86.5568 1492.41 Q91.1633 1487.76 92.3438 1486.41 Q94.5892 1483.89 95.4688 1482.15 Q96.3716 1480.39 96.3716 1478.7 Q96.3716 1475.95 94.4271 1474.21 Q92.5059 1472.48 89.404 1472.48 Q87.205 1472.48 84.7513 1473.24 Q82.3207 1474.01 79.543 1475.56 L79.543 1470.83 Q82.367 1469.7 84.8207 1469.12 Q87.2744 1468.54 89.3114 1468.54 Q94.6818 1468.54 97.8762 1471.23 Q101.071 1473.91 101.071 1478.4 Q101.071 1480.53 100.26 1482.45 Q99.4734 1484.35 97.3669 1486.95 Q96.7882 1487.62 93.6864 1490.83 Q90.5846 1494.03 84.9365 1499.79 Z" fill="#000000" fill-rule="evenodd" fill-opacity="1" /><path clip-path="url(#clip680)" d="M 0 0 M62.9921 1291.66 L75.4689 1291.66 L75.4689 1295.46 L62.9921 1295.46 L62.9921 1291.66 Z" fill="#000000" fill-rule="evenodd" fill-opacity="1" /><path clip-path="url(#clip680)" d="M 0 0 M81.3485 1302.61 L88.9874 1302.61 L88.9874 1276.25 L80.6772 1277.91 L80.6772 1273.66 L88.9411 1271.99 L93.617 1271.99 L93.617 1302.61 L101.256 1302.61 L101.256 1306.55 L81.3485 1306.55 L81.3485 1302.61 Z" fill="#000000" fill-rule="evenodd" fill-opacity="1" /><path clip-path="url(#clip680)" d="M 0 0 M89.3114 1077.89 Q85.7003 1077.89 83.8716 1081.45 Q82.0661 1084.99 82.0661 1092.12 Q82.0661 1099.23 83.8716 1102.8 Q85.7003 1106.34 89.3114 1106.34 Q92.9457 1106.34 94.7512 1102.8 Q96.5799 1099.23 96.5799 1092.12 Q96.5799 1084.99 94.7512 1081.45 Q92.9457 1077.89 89.3114 1077.89 M89.3114 1074.18 Q95.1216 1074.18 98.1771 1078.79 Q101.256 1083.37 101.256 1092.12 Q101.256 1100.85 98.1771 1105.46 Q95.1216 1110.04 89.3114 1110.04 Q83.5013 1110.04 80.4226 1105.46 Q77.367 1100.85 77.367 1092.12 Q77.367 1083.37 80.4226 1078.79 Q83.5013 1074.18 89.3114 1074.18 Z" fill="#000000" fill-rule="evenodd" fill-opacity="1" /><path clip-path="url(#clip680)" d="M 0 0 M81.3485 908.255 L88.9874 908.255 L88.9874 881.889 L80.6772 883.556 L80.6772 879.296 L88.9411 877.63 L93.617 877.63 L93.617 908.255 L101.256 908.255 L101.256 912.19 L81.3485 912.19 L81.3485 908.255 Z" fill="#000000" fill-rule="evenodd" fill-opacity="1" /><path clip-path="url(#clip680)" d="M 0 0 M84.9365 711.075 L101.256 711.075 L101.256 715.01 L79.3115 715.01 L79.3115 711.075 Q81.9735 708.321 86.5568 703.691 Q91.1633 699.038 92.3438 697.696 Q94.5892 695.172 95.4688 693.436 Q96.3716 691.677 96.3716 689.987 Q96.3716 687.233 94.4271 685.497 Q92.5059 683.76 89.404 683.76 Q87.205 683.76 84.7513 684.524 Q82.3207 685.288 79.543 686.839 L79.543 682.117 Q82.367 680.983 84.8207 680.404 Q87.2744 679.825 89.3114 679.825 Q94.6818 679.825 97.8762 682.51 Q101.071 685.196 101.071 689.686 Q101.071 691.816 100.26 693.737 Q99.4734 695.635 97.3669 698.228 Q96.7882 698.899 93.6864 702.117 Q90.5846 705.311 84.9365 711.075 Z" fill="#000000" fill-rule="evenodd" fill-opacity="1" /><path clip-path="url(#clip680)" d="M 0 0 M94.1262 499.197 Q97.4827 499.914 99.3577 502.183 Q101.256 504.451 101.256 507.785 Q101.256 512.9 97.7373 515.701 Q94.2188 518.502 87.7374 518.502 Q85.5614 518.502 83.2466 518.062 Q80.955 517.646 78.5013 516.789 L78.5013 512.275 Q80.4457 513.41 82.7605 513.988 Q85.0753 514.567 87.5985 514.567 Q91.9966 514.567 94.2883 512.831 Q96.6031 511.095 96.6031 507.785 Q96.6031 504.729 94.4503 503.016 Q92.3207 501.28 88.5012 501.28 L84.4735 501.28 L84.4735 497.438 L88.6864 497.438 Q92.1355 497.438 93.9642 496.072 Q95.7929 494.683 95.7929 492.09 Q95.7929 489.428 93.8947 488.016 Q92.0197 486.581 88.5012 486.581 Q86.58 486.581 84.3809 486.998 Q82.1818 487.414 79.543 488.294 L79.543 484.127 Q82.205 483.387 84.5198 483.016 Q86.8577 482.646 88.9179 482.646 Q94.242 482.646 97.3438 485.076 Q100.446 487.484 100.446 491.604 Q100.446 494.475 98.8021 496.465 Q97.1586 498.433 94.1262 499.197 Z" fill="#000000" fill-rule="evenodd" fill-opacity="1" /><path clip-path="url(#clip680)" d="M 0 0 M91.6725 290.166 L79.867 308.615 L91.6725 308.615 L91.6725 290.166 M90.4457 286.092 L96.3253 286.092 L96.3253 308.615 L101.256 308.615 L101.256 312.503 L96.3253 312.503 L96.3253 320.652 L91.6725 320.652 L91.6725 312.503 L76.0708 312.503 L76.0708 307.99 L90.4457 286.092 Z" fill="#000000" fill-rule="evenodd" fill-opacity="1" /><path clip-path="url(#clip680)" d="M 0 0 M80.3531 88.9121 L98.7095 88.9121 L98.7095 92.8473 L84.6355 92.8473 L84.6355 101.319 Q85.654 100.972 86.6726 100.81 Q87.6911 100.625 88.7096 100.625 Q94.4966 100.625 97.8762 103.796 Q101.256 106.968 101.256 112.384 Q101.256 117.963 97.7836 121.065 Q94.3114 124.143 87.992 124.143 Q85.8161 124.143 83.5476 123.773 Q81.3022 123.403 78.8948 122.662 L78.8948 117.963 Q80.9781 119.097 83.2004 119.653 Q85.4226 120.208 87.8994 120.208 Q91.904 120.208 94.242 118.102 Q96.5799 115.995 96.5799 112.384 Q96.5799 108.773 94.242 106.667 Q91.904 104.56 87.8994 104.56 Q86.0244 104.56 84.1494 104.977 Q82.2976 105.394 80.3531 106.273 L80.3531 88.9121 Z" fill="#000000" fill-rule="evenodd" fill-opacity="1" /><path clip-path="url(#clip680)" d="M 0 0 M690.08 8.64 L714.906 8.64 L714.906 13.559 L695.925 13.559 L695.925 26.2904 L713.054 26.2904 L713.054 31.2093 L695.925 31.2093 L695.925 51.84 L690.08 51.84 L690.08 8.64 Z" fill="#000000" fill-rule="evenodd" fill-opacity="1" /><path clip-path="url(#clip680)" d="M 0 0 M716.179 19.4328 L721.503 19.4328 L721.503 51.84 L716.179 51.84 L716.179 19.4328 M716.179 6.81709 L721.503 6.81709 L721.503 13.559 L716.179 13.559 L716.179 6.81709 Z" fill="#000000" fill-rule="evenodd" fill-opacity="1" /><path clip-path="url(#clip680)" d="M 0 0 M748.413 35.2602 Q748.413 29.4732 746.011 26.2904 Q743.639 23.1075 739.327 23.1075 Q735.045 23.1075 732.643 26.2904 Q730.271 29.4732 730.271 35.2602 Q730.271 41.0183 732.643 44.2012 Q735.045 47.384 739.327 47.384 Q743.639 47.384 746.011 44.2012 Q748.413 41.0183 748.413 35.2602 M753.737 47.818 Q753.737 56.0934 750.062 60.1154 Q746.387 64.1663 738.806 64.1663 Q736 64.1663 733.511 63.7323 Q731.023 63.3272 728.679 62.4592 L728.679 57.2798 Q731.023 58.5529 733.309 59.1606 Q735.595 59.7682 737.967 59.7682 Q743.205 59.7682 745.809 57.0194 Q748.413 54.2995 748.413 48.7729 L748.413 46.1398 Q746.764 49.0044 744.188 50.4222 Q741.613 51.84 738.025 51.84 Q732.065 51.84 728.419 47.2972 Q724.773 42.7544 724.773 35.2602 Q724.773 27.7371 728.419 23.1943 Q732.065 18.6515 738.025 18.6515 Q741.613 18.6515 744.188 20.0693 Q746.764 21.4872 748.413 24.3517 L748.413 19.4328 L753.737 19.4328 L753.737 47.818 Z" fill="#000000" fill-rule="evenodd" fill-opacity="1" /><path clip-path="url(#clip680)" d="M 0 0 M758.772 39.0507 L758.772 19.4328 L764.096 19.4328 L764.096 38.8482 Q764.096 43.4488 765.89 45.7636 Q767.684 48.0495 771.272 48.0495 Q775.583 48.0495 778.071 45.3007 Q780.589 42.5519 780.589 37.8065 L780.589 19.4328 L785.913 19.4328 L785.913 51.84 L780.589 51.84 L780.589 46.8632 Q778.65 49.8145 776.075 51.2613 Q773.529 52.6791 770.143 52.6791 Q764.559 52.6791 761.665 49.2069 Q758.772 45.7347 758.772 39.0507 M772.169 18.6515 L772.169 18.6515 Z" fill="#000000" fill-rule="evenodd" fill-opacity="1" /><path clip-path="url(#clip680)" d="M 0 0 M810.276 24.4096 Q809.379 23.8888 808.308 23.6573 Q807.267 23.3969 805.994 23.3969 Q801.48 23.3969 799.049 26.3482 Q796.648 29.2707 796.648 34.7683 L796.648 51.84 L791.295 51.84 L791.295 19.4328 L796.648 19.4328 L796.648 24.4675 Q798.326 21.5161 801.017 20.0983 Q803.708 18.6515 807.556 18.6515 Q808.106 18.6515 808.771 18.7383 Q809.437 18.7962 810.247 18.9409 L810.276 24.4096 Z" fill="#000000" fill-rule="evenodd" fill-opacity="1" /><path clip-path="url(#clip680)" d="M 0 0 M842.278 34.3054 L842.278 36.9095 L817.799 36.9095 Q818.146 42.4072 821.098 45.3007 Q824.078 48.1653 829.373 48.1653 Q832.44 48.1653 835.305 47.4129 Q838.198 46.6606 841.034 45.156 L841.034 50.1907 Q838.169 51.406 835.16 52.0425 Q832.151 52.6791 829.055 52.6791 Q821.3 52.6791 816.757 48.1653 Q812.244 43.6514 812.244 35.9547 Q812.244 27.9975 816.526 23.339 Q820.837 18.6515 828.129 18.6515 Q834.668 18.6515 838.459 22.876 Q842.278 27.0716 842.278 34.3054 M836.954 32.7429 Q836.896 28.3737 834.495 25.7695 Q832.122 23.1654 828.187 23.1654 Q823.731 23.1654 821.04 25.6827 Q818.378 28.2001 817.973 32.7718 L836.954 32.7429 Z" fill="#000000" fill-rule="evenodd" fill-opacity="1" /><path clip-path="url(#clip680)" d="M 0 0 M868.464 46.921 L878.013 46.921 L878.013 13.964 L867.625 16.0474 L867.625 10.7233 L877.955 8.64 L883.8 8.64 L883.8 46.921 L893.348 46.921 L893.348 51.84 L868.464 51.84 L868.464 46.921 Z" fill="#000000" fill-rule="evenodd" fill-opacity="1" /><path clip-path="url(#clip680)" d="M 0 0 M900.293 44.4905 L906.398 44.4905 L906.398 51.84 L900.293 51.84 L900.293 44.4905 M900.293 21.1978 L906.398 21.1978 L906.398 28.5473 L900.293 28.5473 L900.293 21.1978 Z" fill="#000000" fill-rule="evenodd" fill-opacity="1" /><path clip-path="url(#clip680)" d="M 0 0 M931.051 8.64 L958.365 8.64 L958.365 13.559 L936.896 13.559 L936.896 26.3482 L957.468 26.3482 L957.468 31.2672 L936.896 31.2672 L936.896 46.921 L958.886 46.921 L958.886 51.84 L931.051 51.84 L931.051 8.64 Z" fill="#000000" fill-rule="evenodd" fill-opacity="1" /><path clip-path="url(#clip680)" d="M 0 0 M960.651 19.4328 L966.294 19.4328 L976.421 46.6317 L986.548 19.4328 L992.191 19.4328 L980.038 51.84 L972.804 51.84 L960.651 19.4328 Z" fill="#000000" fill-rule="evenodd" fill-opacity="1" /><path clip-path="url(#clip680)" d="M 0 0 M1010.33 23.1654 Q1006.05 23.1654 1003.56 26.5218 Q1001.07 29.8494 1001.07 35.6653 Q1001.07 41.4813 1003.53 44.8377 Q1006.02 48.1653 1010.33 48.1653 Q1014.59 48.1653 1017.07 44.8088 Q1019.56 41.4523 1019.56 35.6653 Q1019.56 29.9072 1017.07 26.5508 Q1014.59 23.1654 1010.33 23.1654 M1010.33 18.6515 Q1017.28 18.6515 1021.24 23.1654 Q1025.21 27.6792 1025.21 35.6653 Q1025.21 43.6225 1021.24 48.1653 Q1017.28 52.6791 1010.33 52.6791 Q1003.36 52.6791 999.395 48.1653 Q995.46 43.6225 995.46 35.6653 Q995.46 27.6792 999.395 23.1654 Q1003.36 18.6515 1010.33 18.6515 Z" fill="#000000" fill-rule="evenodd" fill-opacity="1" /><path clip-path="url(#clip680)" d="M 0 0 M1030.79 6.81709 L1036.11 6.81709 L1036.11 51.84 L1030.79 51.84 L1030.79 6.81709 Z" fill="#000000" fill-rule="evenodd" fill-opacity="1" /><path clip-path="url(#clip680)" d="M 0 0 M1041.15 39.0507 L1041.15 19.4328 L1046.47 19.4328 L1046.47 38.8482 Q1046.47 43.4488 1048.27 45.7636 Q1050.06 48.0495 1053.65 48.0495 Q1057.96 48.0495 1060.45 45.3007 Q1062.97 42.5519 1062.97 37.8065 L1062.97 19.4328 L1068.29 19.4328 L1068.29 51.84 L1062.97 51.84 L1062.97 46.8632 Q1061.03 49.8145 1058.45 51.2613 Q1055.91 52.6791 1052.52 52.6791 Q1046.94 52.6791 1044.04 49.2069 Q1041.15 45.7347 1041.15 39.0507 M1054.55 18.6515 L1054.55 18.6515 Z" fill="#000000" fill-rule="evenodd" fill-opacity="1" /><path clip-path="url(#clip680)" d="M 0 0 M1079.14 10.2314 L1079.14 19.4328 L1090.11 19.4328 L1090.11 23.5705 L1079.14 23.5705 L1079.14 41.163 Q1079.14 45.1271 1080.21 46.2555 Q1081.31 47.384 1084.64 47.384 L1090.11 47.384 L1090.11 51.84 L1084.64 51.84 Q1078.47 51.84 1076.13 49.5541 Q1073.79 47.2393 1073.79 41.163 L1073.79 23.5705 L1069.88 23.5705 L1069.88 19.4328 L1073.79 19.4328 L1073.79 10.2314 L1079.14 10.2314 Z" fill="#000000" fill-rule="evenodd" fill-opacity="1" /><path clip-path="url(#clip680)" d="M 0 0 M1095.69 19.4328 L1101.02 19.4328 L1101.02 51.84 L1095.69 51.84 L1095.69 19.4328 M1095.69 6.81709 L1101.02 6.81709 L1101.02 13.559 L1095.69 13.559 L1095.69 6.81709 Z" fill="#000000" fill-rule="evenodd" fill-opacity="1" /><path clip-path="url(#clip680)" d="M 0 0 M1119.16 23.1654 Q1114.88 23.1654 1112.39 26.5218 Q1109.9 29.8494 1109.9 35.6653 Q1109.9 41.4813 1112.36 44.8377 Q1114.85 48.1653 1119.16 48.1653 Q1123.41 48.1653 1125.9 44.8088 Q1128.39 41.4523 1128.39 35.6653 Q1128.39 29.9072 1125.9 26.5508 Q1123.41 23.1654 1119.16 23.1654 M1119.16 18.6515 Q1126.1 18.6515 1130.07 23.1654 Q1134.03 27.6792 1134.03 35.6653 Q1134.03 43.6225 1130.07 48.1653 Q1126.1 52.6791 1119.16 52.6791 Q1112.18 52.6791 1108.22 48.1653 Q1104.28 43.6225 1104.28 35.6653 Q1104.28 27.6792 1108.22 23.1654 Q1112.18 18.6515 1119.16 18.6515 Z" fill="#000000" fill-rule="evenodd" fill-opacity="1" /><path clip-path="url(#clip680)" d="M 0 0 M1166.55 32.2799 L1166.55 51.84 L1161.23 51.84 L1161.23 32.4535 Q1161.23 27.8529 1159.43 25.567 Q1157.64 23.2811 1154.05 23.2811 Q1149.74 23.2811 1147.25 26.03 Q1144.76 28.7788 1144.76 33.5241 L1144.76 51.84 L1139.41 51.84 L1139.41 19.4328 L1144.76 19.4328 L1144.76 24.4675 Q1146.67 21.545 1149.25 20.0983 Q1151.85 18.6515 1155.24 18.6515 Q1160.82 18.6515 1163.69 22.1237 Q1166.55 25.567 1166.55 32.2799 Z" fill="#000000" fill-rule="evenodd" fill-opacity="1" /><path clip-path="url(#clip680)" d="M 0 0 M1203.53 23.1654 Q1199.25 23.1654 1196.76 26.5218 Q1194.27 29.8494 1194.27 35.6653 Q1194.27 41.4813 1196.73 44.8377 Q1199.22 48.1653 1203.53 48.1653 Q1207.79 48.1653 1210.27 44.8088 Q1212.76 41.4523 1212.76 35.6653 Q1212.76 29.9072 1210.27 26.5508 Q1207.79 23.1654 1203.53 23.1654 M1203.53 18.6515 Q1210.48 18.6515 1214.44 23.1654 Q1218.4 27.6792 1218.4 35.6653 Q1218.4 43.6225 1214.44 48.1653 Q1210.48 52.6791 1203.53 52.6791 Q1196.56 52.6791 1192.59 48.1653 Q1188.66 43.6225 1188.66 35.6653 Q1188.66 27.6792 1192.59 23.1654 Q1196.56 18.6515 1203.53 18.6515 Z" fill="#000000" fill-rule="evenodd" fill-opacity="1" /><path clip-path="url(#clip680)" d="M 0 0 M1240.4 6.81709 L1240.4 11.2442 L1235.3 11.2442 Q1232.44 11.2442 1231.31 12.4016 Q1230.21 13.559 1230.21 16.5682 L1230.21 19.4328 L1238.98 19.4328 L1238.98 23.5705 L1230.21 23.5705 L1230.21 51.84 L1224.86 51.84 L1224.86 23.5705 L1219.76 23.5705 L1219.76 19.4328 L1224.86 19.4328 L1224.86 17.1758 Q1224.86 11.765 1227.37 9.30551 Q1229.89 6.81709 1235.36 6.81709 L1240.4 6.81709 Z" fill="#000000" fill-rule="evenodd" fill-opacity="1" /><path clip-path="url(#clip680)" d="M 0 0 M1290.05 25.6538 Q1292.04 22.0659 1294.82 20.3587 Q1297.6 18.6515 1301.36 18.6515 Q1306.42 18.6515 1309.17 22.2105 Q1311.92 25.7406 1311.92 32.2799 L1311.92 51.84 L1306.57 51.84 L1306.57 32.4535 Q1306.57 27.795 1304.92 25.5381 Q1303.27 23.2811 1299.89 23.2811 Q1295.75 23.2811 1293.35 26.03 Q1290.94 28.7788 1290.94 33.5241 L1290.94 51.84 L1285.59 51.84 L1285.59 32.4535 Q1285.59 27.7661 1283.94 25.5381 Q1282.29 23.2811 1278.85 23.2811 Q1274.77 23.2811 1272.37 26.0589 Q1269.97 28.8077 1269.97 33.5241 L1269.97 51.84 L1264.61 51.84 L1264.61 19.4328 L1269.97 19.4328 L1269.97 24.4675 Q1271.79 21.4872 1274.34 20.0693 Q1276.88 18.6515 1280.38 18.6515 Q1283.91 18.6515 1286.37 20.4455 Q1288.86 22.2395 1290.05 25.6538 Z" fill="#000000" fill-rule="evenodd" fill-opacity="1" /><path clip-path="url(#clip680)" d="M 0 0 M1332.23 35.5496 Q1325.78 35.5496 1323.29 37.0253 Q1320.81 38.501 1320.81 42.06 Q1320.81 44.8956 1322.66 46.5738 Q1324.54 48.2231 1327.75 48.2231 Q1332.18 48.2231 1334.84 45.0981 Q1337.53 41.9442 1337.53 36.7359 L1337.53 35.5496 L1332.23 35.5496 M1342.85 33.3505 L1342.85 51.84 L1337.53 51.84 L1337.53 46.921 Q1335.71 49.8724 1332.99 51.2902 Q1330.27 52.6791 1326.33 52.6791 Q1321.36 52.6791 1318.4 49.9014 Q1315.48 47.0947 1315.48 42.4072 Q1315.48 36.9385 1319.13 34.1607 Q1322.8 31.3829 1330.06 31.3829 L1337.53 31.3829 L1337.53 30.8621 Q1337.53 27.1874 1335.1 25.1908 Q1332.7 23.1654 1328.33 23.1654 Q1325.55 23.1654 1322.92 23.8309 Q1320.28 24.4964 1317.85 25.8274 L1317.85 20.9085 Q1320.78 19.78 1323.53 19.2302 Q1326.27 18.6515 1328.88 18.6515 Q1335.91 18.6515 1339.38 22.2973 Q1342.85 25.9431 1342.85 33.3505 Z" fill="#000000" fill-rule="evenodd" fill-opacity="1" /><path clip-path="url(#clip680)" d="M 0 0 M1371.76 20.677 L1371.76 25.6538 Q1369.5 24.4096 1367.22 23.802 Q1364.96 23.1654 1362.65 23.1654 Q1357.47 23.1654 1354.6 26.464 Q1351.74 29.7336 1351.74 35.6653 Q1351.74 41.597 1354.6 44.8956 Q1357.47 48.1653 1362.65 48.1653 Q1364.96 48.1653 1367.22 47.5576 Q1369.5 46.921 1371.76 45.6768 L1371.76 50.5958 Q1369.53 51.6375 1367.13 52.1583 Q1364.76 52.6791 1362.07 52.6791 Q1354.75 52.6791 1350.44 48.0784 Q1346.12 43.4778 1346.12 35.6653 Q1346.12 27.7371 1350.46 23.1943 Q1354.83 18.6515 1362.41 18.6515 Q1364.87 18.6515 1367.22 19.1724 Q1369.56 19.6642 1371.76 20.677 Z" fill="#000000" fill-rule="evenodd" fill-opacity="1" /><path clip-path="url(#clip680)" d="M 0 0 M1396.12 24.4096 Q1395.23 23.8888 1394.16 23.6573 Q1393.11 23.3969 1391.84 23.3969 Q1387.33 23.3969 1384.9 26.3482 Q1382.5 29.2707 1382.5 34.7683 L1382.5 51.84 L1377.14 51.84 L1377.14 19.4328 L1382.5 19.4328 L1382.5 24.4675 Q1384.17 21.5161 1386.86 20.0983 Q1389.56 18.6515 1393.4 18.6515 Q1393.95 18.6515 1394.62 18.7383 Q1395.28 18.7962 1396.09 18.9409 L1396.12 24.4096 Z" fill="#000000" fill-rule="evenodd" fill-opacity="1" /><path clip-path="url(#clip680)" d="M 0 0 M1412.96 23.1654 Q1408.68 23.1654 1406.19 26.5218 Q1403.7 29.8494 1403.7 35.6653 Q1403.7 41.4813 1406.16 44.8377 Q1408.65 48.1653 1412.96 48.1653 Q1417.22 48.1653 1419.71 44.8088 Q1422.19 41.4523 1422.19 35.6653 Q1422.19 29.9072 1419.71 26.5508 Q1417.22 23.1654 1412.96 23.1654 M1412.96 18.6515 Q1419.91 18.6515 1423.87 23.1654 Q1427.84 27.6792 1427.84 35.6653 Q1427.84 43.6225 1423.87 48.1653 Q1419.91 52.6791 1412.96 52.6791 Q1405.99 52.6791 1402.03 48.1653 Q1398.09 43.6225 1398.09 35.6653 Q1398.09 27.6792 1402.03 23.1654 Q1405.99 18.6515 1412.96 18.6515 Z" fill="#000000" fill-rule="evenodd" fill-opacity="1" /><path clip-path="url(#clip680)" d="M 0 0 M1448.44 19.4328 L1454.08 19.4328 L1464.21 46.6317 L1474.33 19.4328 L1479.98 19.4328 L1467.82 51.84 L1460.59 51.84 L1448.44 19.4328 Z" fill="#000000" fill-rule="evenodd" fill-opacity="1" /><path clip-path="url(#clip680)" d="M 0 0 M1500.29 35.5496 Q1493.84 35.5496 1491.35 37.0253 Q1488.86 38.501 1488.86 42.06 Q1488.86 44.8956 1490.71 46.5738 Q1492.59 48.2231 1495.8 48.2231 Q1500.23 48.2231 1502.89 45.0981 Q1505.58 41.9442 1505.58 36.7359 L1505.58 35.5496 L1500.29 35.5496 M1510.91 33.3505 L1510.91 51.84 L1505.58 51.84 L1505.58 46.921 Q1503.76 49.8724 1501.04 51.2902 Q1498.32 52.6791 1494.39 52.6791 Q1489.41 52.6791 1486.46 49.9014 Q1483.54 47.0947 1483.54 42.4072 Q1483.54 36.9385 1487.18 34.1607 Q1490.86 31.3829 1498.12 31.3829 L1505.58 31.3829 L1505.58 30.8621 Q1505.58 27.1874 1503.15 25.1908 Q1500.75 23.1654 1496.38 23.1654 Q1493.61 23.1654 1490.97 23.8309 Q1488.34 24.4964 1485.91 25.8274 L1485.91 20.9085 Q1488.83 19.78 1491.58 19.2302 Q1494.33 18.6515 1496.93 18.6515 Q1503.96 18.6515 1507.44 22.2973 Q1510.91 25.9431 1510.91 33.3505 Z" fill="#000000" fill-rule="evenodd" fill-opacity="1" /><path clip-path="url(#clip680)" d="M 0 0 M1535.27 24.4096 Q1534.38 23.8888 1533.3 23.6573 Q1532.26 23.3969 1530.99 23.3969 Q1526.48 23.3969 1524.05 26.3482 Q1521.64 29.2707 1521.64 34.7683 L1521.64 51.84 L1516.29 51.84 L1516.29 19.4328 L1521.64 19.4328 L1521.64 24.4675 Q1523.32 21.5161 1526.01 20.0983 Q1528.7 18.6515 1532.55 18.6515 Q1533.1 18.6515 1533.77 18.7383 Q1534.43 18.7962 1535.24 18.9409 L1535.27 24.4096 Z" fill="#000000" fill-rule="evenodd" fill-opacity="1" /><path clip-path="url(#clip680)" d="M 0 0 M1540.86 19.4328 L1546.18 19.4328 L1546.18 51.84 L1540.86 51.84 L1540.86 19.4328 M1540.86 6.81709 L1546.18 6.81709 L1546.18 13.559 L1540.86 13.559 L1540.86 6.81709 Z" fill="#000000" fill-rule="evenodd" fill-opacity="1" /><path clip-path="url(#clip680)" d="M 0 0 M1566.49 35.5496 Q1560.04 35.5496 1557.55 37.0253 Q1555.06 38.501 1555.06 42.06 Q1555.06 44.8956 1556.92 46.5738 Q1558.8 48.2231 1562.01 48.2231 Q1566.44 48.2231 1569.1 45.0981 Q1571.79 41.9442 1571.79 36.7359 L1571.79 35.5496 L1566.49 35.5496 M1577.11 33.3505 L1577.11 51.84 L1571.79 51.84 L1571.79 46.921 Q1569.97 49.8724 1567.25 51.2902 Q1564.53 52.6791 1560.59 52.6791 Q1555.61 52.6791 1552.66 49.9014 Q1549.74 47.0947 1549.74 42.4072 Q1549.74 36.9385 1553.39 34.1607 Q1557.06 31.3829 1564.32 31.3829 L1571.79 31.3829 L1571.79 30.8621 Q1571.79 27.1874 1569.36 25.1908 Q1566.96 23.1654 1562.59 23.1654 Q1559.81 23.1654 1557.18 23.8309 Q1554.54 24.4964 1552.11 25.8274 L1552.11 20.9085 Q1555.03 19.78 1557.78 19.2302 Q1560.53 18.6515 1563.14 18.6515 Q1570.17 18.6515 1573.64 22.2973 Q1577.11 25.9431 1577.11 33.3505 Z" fill="#000000" fill-rule="evenodd" fill-opacity="1" /><path clip-path="url(#clip680)" d="M 0 0 M1605.96 35.6653 Q1605.96 29.7915 1603.53 26.464 Q1601.13 23.1075 1596.9 23.1075 Q1592.68 23.1075 1590.25 26.464 Q1587.85 29.7915 1587.85 35.6653 Q1587.85 41.5391 1590.25 44.8956 Q1592.68 48.2231 1596.9 48.2231 Q1601.13 48.2231 1603.53 44.8956 Q1605.96 41.5391 1605.96 35.6653 M1587.85 24.3517 Q1589.53 21.4582 1592.07 20.0693 Q1594.65 18.6515 1598.21 18.6515 Q1604.11 18.6515 1607.78 23.339 Q1611.49 28.0265 1611.49 35.6653 Q1611.49 43.3042 1607.78 47.9916 Q1604.11 52.6791 1598.21 52.6791 Q1594.65 52.6791 1592.07 51.2902 Q1589.53 49.8724 1587.85 46.9789 L1587.85 51.84 L1582.49 51.84 L1582.49 6.81709 L1587.85 6.81709 L1587.85 24.3517 Z" fill="#000000" fill-rule="evenodd" fill-opacity="1" /><path clip-path="url(#clip680)" d="M 0 0 M1617.07 6.81709 L1622.4 6.81709 L1622.4 51.84 L1617.07 51.84 L1617.07 6.81709 Z" fill="#000000" fill-rule="evenodd" fill-opacity="1" /><path clip-path="url(#clip680)" d="M 0 0 M1655.7 34.3054 L1655.7 36.9095 L1631.22 36.9095 Q1631.57 42.4072 1634.52 45.3007 Q1637.5 48.1653 1642.79 48.1653 Q1645.86 48.1653 1648.73 47.4129 Q1651.62 46.6606 1654.46 45.156 L1654.46 50.1907 Q1651.59 51.406 1648.58 52.0425 Q1645.57 52.6791 1642.48 52.6791 Q1634.72 52.6791 1630.18 48.1653 Q1625.67 43.6514 1625.67 35.9547 Q1625.67 27.9975 1629.95 23.339 Q1634.26 18.6515 1641.55 18.6515 Q1648.09 18.6515 1651.88 22.876 Q1655.7 27.0716 1655.7 34.3054 M1650.38 32.7429 Q1650.32 28.3737 1647.92 25.7695 Q1645.54 23.1654 1641.61 23.1654 Q1637.15 23.1654 1634.46 25.6827 Q1631.8 28.2001 1631.39 32.7718 L1650.38 32.7429 Z" fill="#000000" fill-rule="evenodd" fill-opacity="1" /><path clip-path="url(#clip680)" d="M 0 0 M1681.94 20.3876 L1681.94 25.4223 Q1679.69 24.2649 1677.26 23.6862 Q1674.83 23.1075 1672.22 23.1075 Q1668.26 23.1075 1666.26 24.3228 Q1664.29 25.5381 1664.29 27.9686 Q1664.29 29.8204 1665.71 30.891 Q1667.13 31.9327 1671.41 32.8876 L1673.23 33.2926 Q1678.91 34.5079 1681.28 36.7359 Q1683.68 38.935 1683.68 42.8991 Q1683.68 47.4129 1680.09 50.046 Q1676.53 52.6791 1670.28 52.6791 Q1667.68 52.6791 1664.84 52.1583 Q1662.04 51.6664 1658.91 50.6537 L1658.91 45.156 Q1661.86 46.6896 1664.73 47.4708 Q1667.59 48.2231 1670.4 48.2231 Q1674.16 48.2231 1676.19 46.95 Q1678.21 45.6479 1678.21 43.3042 Q1678.21 41.134 1676.74 39.9766 Q1675.29 38.8192 1670.34 37.7486 L1668.49 37.3146 Q1663.54 36.273 1661.34 34.1318 Q1659.14 31.9616 1659.14 28.2001 Q1659.14 23.6283 1662.38 21.1399 Q1665.62 18.6515 1671.59 18.6515 Q1674.54 18.6515 1677.14 19.0855 Q1679.74 19.5196 1681.94 20.3876 Z" fill="#000000" fill-rule="evenodd" fill-opacity="1" /><polyline clip-path="url(#clip682)" style="stroke:#000000; stroke-width:4; stroke-opacity:1; fill:none" stroke-dasharray="16, 10" points="
  185.348,1014.61 209.775,953.308 234.203,944 258.631,917.247 283.058,909.13 307.486,855.966 331.913,822.544 356.341,832.918 380.769,861.127 405.196,941.905 
  429.624,948.634 454.051,999.504 478.479,1000.84 502.907,1051.21 527.334,1009.93 551.762,952.346 576.19,892.565 600.617,926.054 625.045,975.951 649.472,956.948 
  673.9,934.585 698.328,815.57 722.755,816.05 747.183,887.122 771.61,872.269 796.038,888.844 820.466,895.172 844.893,860.483 869.321,864.52 893.749,860.201 
  918.176,843.285 942.604,807.64 967.031,875.379 991.459,885.42 1015.89,815.022 1040.31,815.689 1064.74,843.157 1089.17,889.396 1113.6,812.356 1138.02,934.876 
  1162.45,995.837 1186.88,1096.68 1211.31,1349.67 1235.74,1398.54 1260.16,894.772 1284.59,847.41 1309.02,815.473 1333.45,853.024 1357.87,810.099 1382.3,845.164 
  1406.73,846.268 1431.16,921.966 1455.58,912.983 1480.01,920.104 1504.44,926.707 1528.87,926.779 1553.29,975.836 1577.72,949.67 1602.15,984.748 1626.58,911.489 
  1651,912.393 1675.43,890.871 1699.86,922.274 1724.29,948.507 1748.71,937.953 1773.14,899.254 1797.57,925.186 1822,904.633 1846.43,930.424 1870.85,946.053 
  1895.28,965.295 1919.71,923.918 1944.14,940.462 1968.56,948.921 1992.99,892.475 2017.42,907.92 2041.85,902.813 2066.27,890.282 2090.7,890.359 2115.13,924.211 
  2139.56,938.637 2163.98,954.896 2188.41,970.755 
  "/>
<polyline clip-path="url(#clip682)" style="stroke:#808080; stroke-width:10; stroke-opacity:1; fill:none" stroke-dasharray="5, 10" points="
  185.348,919.228 209.775,935.003 234.203,856.46 258.631,828.855 283.058,796.977 307.486,795.663 331.913,802.893 356.341,830.498 380.769,863.361 405.196,914.628 
  429.624,920.543 454.051,866.647 478.479,726.321 502.907,653.036 527.334,521.255 551.762,478.533 576.19,473.603 600.617,511.724 625.045,485.105 649.472,513.368 
  673.9,576.794 698.328,521.255 722.755,533.414 747.183,572.521 771.61,534.729 796.038,597.497 820.466,674.397 844.893,747.354 869.321,793.362 893.749,843.643 
  918.176,859.746 942.604,909.698 967.031,911.67 991.459,959.322 1015.89,990.213 1040.31,989.556 1064.74,969.509 1089.17,938.618 1113.6,893.595 1138.02,739.795 
  1162.45,608.671 1186.88,572.85 1211.31,270.508 1235.74,300.414 1260.16,322.761 1284.59,450.927 1309.02,480.176 1333.45,485.434 1357.87,502.194 1382.3,540.973 
  1406.73,527.499 1431.16,507.124 1455.58,524.541 1480.01,561.677 1504.44,581.394 1528.87,589.61 1553.29,605.056 1577.72,625.76 1602.15,656.98 1626.58,632.004 
  1651,626.746 1675.43,567.592 1699.86,572.521 1724.29,594.868 1748.71,626.088 1773.14,633.647 1797.57,634.633 1822,659.28 1846.43,627.732 1870.85,588.624 
  1895.28,573.507 1919.71,604.399 1944.14,668.811 1968.56,711.533 1992.99,678.998 2017.42,701.674 2041.85,742.424 2066.27,778.574 2090.7,789.747 2115.13,794.02 
  2139.56,792.376 2163.98,807.165 2188.41,804.207 
  "/>
<path clip-path="url(#clip680)" d="
M196.031 1440.44 L793.282 1440.44 L793.282 1259 L196.031 1259  Z
  " fill="#ffffff" fill-rule="evenodd" fill-opacity="1"/>
<polyline clip-path="url(#clip680)" style="stroke:#000000; stroke-width:4; stroke-opacity:0; fill:none" points="
  196.031,1440.44 793.282,1440.44 793.282,1259 196.031,1259 196.031,1440.44 
  "/>
<polyline clip-path="url(#clip680)" style="stroke:#000000; stroke-width:3; stroke-opacity:1; fill:none" stroke-dasharray="12, 8" points="
  219.622,1304.36 361.172,1304.36 
  "/>
<path clip-path="url(#clip680)" d="M 0 0 M403.93 1313.62 L403.93 1306.66 L398.201 1306.66 L398.201 1303.78 L407.403 1303.78 L407.403 1314.91 Q405.371 1316.35 402.924 1317.09 Q400.476 1317.82 397.698 1317.82 Q391.622 1317.82 388.184 1314.28 Q384.764 1310.72 384.764 1304.39 Q384.764 1298.03 388.184 1294.49 Q391.622 1290.93 397.698 1290.93 Q400.233 1290.93 402.507 1291.56 Q404.799 1292.18 406.726 1293.4 L406.726 1297.13 Q404.781 1295.48 402.594 1294.65 Q400.406 1293.81 397.993 1293.81 Q393.236 1293.81 390.84 1296.47 Q388.462 1299.13 388.462 1304.39 Q388.462 1309.63 390.84 1312.28 Q393.236 1314.94 397.993 1314.94 Q399.851 1314.94 401.309 1314.63 Q402.767 1314.3 403.93 1313.62 Z" fill="#000000" fill-rule="evenodd" fill-opacity="1" /><path clip-path="url(#clip680)" d="M 0 0 M414.226 1314.37 L426.465 1314.37 L426.465 1317.32 L410.007 1317.32 L410.007 1314.37 Q412.003 1312.3 415.441 1308.83 Q418.896 1305.34 419.781 1304.33 Q421.465 1302.44 422.125 1301.14 Q422.802 1299.82 422.802 1298.55 Q422.802 1296.49 421.344 1295.18 Q419.903 1293.88 417.576 1293.88 Q415.927 1293.88 414.087 1294.45 Q412.264 1295.03 410.18 1296.19 L410.18 1292.65 Q412.298 1291.8 414.139 1291.36 Q415.979 1290.93 417.507 1290.93 Q421.535 1290.93 423.93 1292.94 Q426.326 1294.96 426.326 1298.33 Q426.326 1299.92 425.719 1301.36 Q425.128 1302.79 423.548 1304.73 Q423.114 1305.24 420.788 1307.65 Q418.462 1310.05 414.226 1314.37 Z" fill="#000000" fill-rule="evenodd" fill-opacity="1" /><path clip-path="url(#clip680)" d="M 0 0 M437.767 1293.71 Q435.059 1293.71 433.687 1296.38 Q432.333 1299.04 432.333 1304.39 Q432.333 1309.72 433.687 1312.39 Q435.059 1315.05 437.767 1315.05 Q440.493 1315.05 441.847 1312.39 Q443.218 1309.72 443.218 1304.39 Q443.218 1299.04 441.847 1296.38 Q440.493 1293.71 437.767 1293.71 M437.767 1290.93 Q442.125 1290.93 444.416 1294.39 Q446.725 1297.82 446.725 1304.39 Q446.725 1310.93 444.416 1314.39 Q442.125 1317.82 437.767 1317.82 Q433.409 1317.82 431.1 1314.39 Q428.809 1310.93 428.809 1304.39 Q428.809 1297.82 431.1 1294.39 Q433.409 1290.93 437.767 1290.93 Z" fill="#000000" fill-rule="evenodd" fill-opacity="1" /><path clip-path="url(#clip680)" d="M 0 0 M468.913 1300.11 Q466.343 1300.11 464.85 1302.13 Q463.357 1304.12 463.357 1307.61 Q463.357 1311.1 464.833 1313.12 Q466.326 1315.11 468.913 1315.11 Q471.465 1315.11 472.958 1313.1 Q474.451 1311.09 474.451 1307.61 Q474.451 1304.16 472.958 1302.15 Q471.465 1300.11 468.913 1300.11 M468.913 1297.41 Q473.079 1297.41 475.458 1300.11 Q477.836 1302.82 477.836 1307.61 Q477.836 1312.39 475.458 1315.11 Q473.079 1317.82 468.913 1317.82 Q464.729 1317.82 462.35 1315.11 Q459.989 1312.39 459.989 1307.61 Q459.989 1302.82 462.35 1300.11 Q464.729 1297.41 468.913 1297.41 Z" fill="#000000" fill-rule="evenodd" fill-opacity="1" /><path clip-path="url(#clip680)" d="M 0 0 M480.857 1309.65 L480.857 1297.88 L484.052 1297.88 L484.052 1309.52 Q484.052 1312.28 485.128 1313.67 Q486.204 1315.05 488.357 1315.05 Q490.944 1315.05 492.437 1313.4 Q493.947 1311.75 493.947 1308.9 L493.947 1297.88 L497.142 1297.88 L497.142 1317.32 L493.947 1317.32 L493.947 1314.33 Q492.784 1316.1 491.239 1316.97 Q489.711 1317.82 487.68 1317.82 Q484.329 1317.82 482.593 1315.74 Q480.857 1313.66 480.857 1309.65 M488.895 1297.41 L488.895 1297.41 Z" fill="#000000" fill-rule="evenodd" fill-opacity="1" /><path clip-path="url(#clip680)" d="M 0 0 M503.652 1292.35 L503.652 1297.88 L510.232 1297.88 L510.232 1300.36 L503.652 1300.36 L503.652 1310.91 Q503.652 1313.29 504.295 1313.97 Q504.954 1314.65 506.951 1314.65 L510.232 1314.65 L510.232 1317.32 L506.951 1317.32 Q503.253 1317.32 501.847 1315.95 Q500.44 1314.56 500.44 1310.91 L500.44 1300.36 L498.097 1300.36 L498.097 1297.88 L500.44 1297.88 L500.44 1292.35 L503.652 1292.35 Z" fill="#000000" fill-rule="evenodd" fill-opacity="1" /><path clip-path="url(#clip680)" d="M 0 0 M516.673 1314.4 L516.673 1324.72 L513.461 1324.72 L513.461 1297.88 L516.673 1297.88 L516.673 1300.83 Q517.68 1299.09 519.208 1298.26 Q520.753 1297.41 522.888 1297.41 Q526.43 1297.41 528.635 1300.22 Q530.857 1303.03 530.857 1307.61 Q530.857 1312.2 528.635 1315.01 Q526.43 1317.82 522.888 1317.82 Q520.753 1317.82 519.208 1316.99 Q517.68 1316.14 516.673 1314.4 M527.541 1307.61 Q527.541 1304.09 526.083 1302.09 Q524.642 1300.08 522.107 1300.08 Q519.572 1300.08 518.114 1302.09 Q516.673 1304.09 516.673 1307.61 Q516.673 1311.14 518.114 1313.15 Q519.572 1315.15 522.107 1315.15 Q524.642 1315.15 526.083 1313.15 Q527.541 1311.14 527.541 1307.61 Z" fill="#000000" fill-rule="evenodd" fill-opacity="1" /><path clip-path="url(#clip680)" d="M 0 0 M533.878 1309.65 L533.878 1297.88 L537.072 1297.88 L537.072 1309.52 Q537.072 1312.28 538.149 1313.67 Q539.225 1315.05 541.378 1315.05 Q543.964 1315.05 545.457 1313.4 Q546.968 1311.75 546.968 1308.9 L546.968 1297.88 L550.162 1297.88 L550.162 1317.32 L546.968 1317.32 L546.968 1314.33 Q545.805 1316.1 544.26 1316.97 Q542.732 1317.82 540.701 1317.82 Q537.35 1317.82 535.614 1315.74 Q533.878 1313.66 533.878 1309.65 M541.916 1297.41 L541.916 1297.41 Z" fill="#000000" fill-rule="evenodd" fill-opacity="1" /><path clip-path="url(#clip680)" d="M 0 0 M556.673 1292.35 L556.673 1297.88 L563.253 1297.88 L563.253 1300.36 L556.673 1300.36 L556.673 1310.91 Q556.673 1313.29 557.315 1313.97 Q557.975 1314.65 559.971 1314.65 L563.253 1314.65 L563.253 1317.32 L559.971 1317.32 Q556.273 1317.32 554.867 1315.95 Q553.461 1314.56 553.461 1310.91 L553.461 1300.36 L551.117 1300.36 L551.117 1297.88 L553.461 1297.88 L553.461 1292.35 L556.673 1292.35 Z" fill="#000000" fill-rule="evenodd" fill-opacity="1" /><polyline clip-path="url(#clip680)" style="stroke:#808080; stroke-width:3; stroke-opacity:1; fill:none" stroke-dasharray="2, 3" points="
  219.622,1349.72 361.172,1349.72 
  "/>
<path clip-path="url(#clip680)" d="M 0 0 M388.271 1350.3 L388.271 1359.8 L393.896 1359.8 Q396.726 1359.8 398.08 1358.63 Q399.451 1357.45 399.451 1355.04 Q399.451 1352.61 398.08 1351.46 Q396.726 1350.3 393.896 1350.3 L388.271 1350.3 M388.271 1339.64 L388.271 1347.45 L393.462 1347.45 Q396.031 1347.45 397.281 1346.5 Q398.549 1345.53 398.549 1343.55 Q398.549 1341.59 397.281 1340.61 Q396.031 1339.64 393.462 1339.64 L388.271 1339.64 M384.764 1336.76 L393.722 1336.76 Q397.733 1336.76 399.903 1338.43 Q402.073 1340.09 402.073 1343.17 Q402.073 1345.54 400.962 1346.95 Q399.851 1348.36 397.698 1348.7 Q400.285 1349.26 401.708 1351.03 Q403.149 1352.78 403.149 1355.42 Q403.149 1358.89 400.788 1360.79 Q398.427 1362.68 394.069 1362.68 L384.764 1362.68 L384.764 1336.76 Z" fill="#000000" fill-rule="evenodd" fill-opacity="1" /><path clip-path="url(#clip680)" d="M 0 0 M415.302 1340.21 L410.545 1353.11 L420.076 1353.11 L415.302 1340.21 M413.323 1336.76 L417.298 1336.76 L427.177 1362.68 L423.531 1362.68 L421.17 1356.03 L409.486 1356.03 L407.125 1362.68 L403.427 1362.68 L413.323 1336.76 Z" fill="#000000" fill-rule="evenodd" fill-opacity="1" /><path clip-path="url(#clip680)" d="M 0 0 M440.319 1340.21 L435.562 1353.11 L445.093 1353.11 L440.319 1340.21 M438.34 1336.76 L442.316 1336.76 L452.194 1362.68 L448.548 1362.68 L446.187 1356.03 L434.503 1356.03 L432.142 1362.68 L428.444 1362.68 L438.34 1336.76 Z" fill="#000000" fill-rule="evenodd" fill-opacity="1" /><path clip-path="url(#clip680)" d="M 0 0 M479.243 1343.81 L479.243 1346.83 Q477.888 1346.13 476.43 1345.79 Q474.972 1345.44 473.409 1345.44 Q471.031 1345.44 469.833 1346.17 Q468.652 1346.9 468.652 1348.36 Q468.652 1349.47 469.503 1350.11 Q470.354 1350.73 472.923 1351.31 L474.017 1351.55 Q477.42 1352.28 478.843 1353.62 Q480.284 1354.94 480.284 1357.31 Q480.284 1360.02 478.131 1361.6 Q475.996 1363.18 472.246 1363.18 Q470.684 1363.18 468.982 1362.87 Q467.298 1362.58 465.423 1361.97 L465.423 1358.67 Q467.194 1359.59 468.913 1360.06 Q470.632 1360.51 472.316 1360.51 Q474.572 1360.51 475.788 1359.75 Q477.003 1358.96 477.003 1357.56 Q477.003 1356.26 476.118 1355.56 Q475.25 1354.87 472.281 1354.22 L471.17 1353.96 Q468.201 1353.34 466.882 1352.05 Q465.562 1350.75 465.562 1348.5 Q465.562 1345.75 467.507 1344.26 Q469.451 1342.77 473.027 1342.77 Q474.798 1342.77 476.361 1343.03 Q477.923 1343.29 479.243 1343.81 Z" fill="#000000" fill-rule="evenodd" fill-opacity="1" /><path clip-path="url(#clip680)" d="M 0 0 M486.725 1359.76 L486.725 1370.08 L483.513 1370.08 L483.513 1343.24 L486.725 1343.24 L486.725 1346.19 Q487.732 1344.45 489.26 1343.62 Q490.805 1342.77 492.94 1342.77 Q496.482 1342.77 498.687 1345.58 Q500.909 1348.39 500.909 1352.97 Q500.909 1357.56 498.687 1360.37 Q496.482 1363.18 492.94 1363.18 Q490.805 1363.18 489.26 1362.35 Q487.732 1361.5 486.725 1359.76 M497.593 1352.97 Q497.593 1349.45 496.135 1347.45 Q494.694 1345.44 492.159 1345.44 Q489.624 1345.44 488.166 1347.45 Q486.725 1349.45 486.725 1352.97 Q486.725 1356.5 488.166 1358.51 Q489.624 1360.51 492.159 1360.51 Q494.694 1360.51 496.135 1358.51 Q497.593 1356.5 497.593 1352.97 Z" fill="#000000" fill-rule="evenodd" fill-opacity="1" /><path clip-path="url(#clip680)" d="M 0 0 M515.527 1346.22 Q514.989 1345.91 514.347 1345.77 Q513.722 1345.61 512.958 1345.61 Q510.249 1345.61 508.791 1347.38 Q507.35 1349.14 507.35 1352.44 L507.35 1362.68 L504.138 1362.68 L504.138 1343.24 L507.35 1343.24 L507.35 1346.26 Q508.357 1344.49 509.972 1343.63 Q511.586 1342.77 513.895 1342.77 Q514.225 1342.77 514.624 1342.82 Q515.024 1342.85 515.51 1342.94 L515.527 1346.22 Z" fill="#000000" fill-rule="evenodd" fill-opacity="1" /><path clip-path="url(#clip680)" d="M 0 0 M534.728 1352.16 L534.728 1353.72 L520.041 1353.72 Q520.249 1357.02 522.02 1358.76 Q523.808 1360.47 526.985 1360.47 Q528.826 1360.47 530.544 1360.02 Q532.28 1359.57 533.982 1358.67 L533.982 1361.69 Q532.263 1362.42 530.458 1362.8 Q528.652 1363.18 526.794 1363.18 Q522.142 1363.18 519.416 1360.47 Q516.708 1357.77 516.708 1353.15 Q516.708 1348.37 519.277 1345.58 Q521.864 1342.77 526.239 1342.77 Q530.162 1342.77 532.437 1345.3 Q534.728 1347.82 534.728 1352.16 M531.534 1351.22 Q531.499 1348.6 530.058 1347.04 Q528.635 1345.47 526.274 1345.47 Q523.6 1345.47 521.985 1346.98 Q520.388 1348.5 520.145 1351.24 L531.534 1351.22 Z" fill="#000000" fill-rule="evenodd" fill-opacity="1" /><path clip-path="url(#clip680)" d="M 0 0 M546.916 1352.91 Q543.044 1352.91 541.551 1353.79 Q540.058 1354.68 540.058 1356.81 Q540.058 1358.51 541.169 1359.52 Q542.298 1360.51 544.225 1360.51 Q546.881 1360.51 548.478 1358.63 Q550.093 1356.74 550.093 1353.62 L550.093 1352.91 L546.916 1352.91 M553.287 1351.59 L553.287 1362.68 L550.093 1362.68 L550.093 1359.73 Q548.999 1361.5 547.367 1362.35 Q545.735 1363.18 543.374 1363.18 Q540.388 1363.18 538.617 1361.52 Q536.864 1359.83 536.864 1357.02 Q536.864 1353.74 539.051 1352.07 Q541.256 1350.41 545.614 1350.41 L550.093 1350.41 L550.093 1350.09 Q550.093 1347.89 548.635 1346.69 Q547.194 1345.47 544.572 1345.47 Q542.905 1345.47 541.326 1345.87 Q539.746 1346.27 538.287 1347.07 L538.287 1344.12 Q540.041 1343.44 541.69 1343.11 Q543.339 1342.77 544.902 1342.77 Q549.121 1342.77 551.204 1344.95 Q553.287 1347.14 553.287 1351.59 Z" fill="#000000" fill-rule="evenodd" fill-opacity="1" /><path clip-path="url(#clip680)" d="M 0 0 M569.433 1346.19 L569.433 1335.67 L572.627 1335.67 L572.627 1362.68 L569.433 1362.68 L569.433 1359.76 Q568.426 1361.5 566.881 1362.35 Q565.353 1363.18 563.2 1363.18 Q559.676 1363.18 557.454 1360.37 Q555.249 1357.56 555.249 1352.97 Q555.249 1348.39 557.454 1345.58 Q559.676 1342.77 563.2 1342.77 Q565.353 1342.77 566.881 1343.62 Q568.426 1344.45 569.433 1346.19 M558.548 1352.97 Q558.548 1356.5 559.989 1358.51 Q561.447 1360.51 563.982 1360.51 Q566.516 1360.51 567.975 1358.51 Q569.433 1356.5 569.433 1352.97 Q569.433 1349.45 567.975 1347.45 Q566.516 1345.44 563.982 1345.44 Q561.447 1345.44 559.989 1347.45 Q558.548 1349.45 558.548 1352.97 Z" fill="#000000" fill-rule="evenodd" fill-opacity="1" /><polyline clip-path="url(#clip680)" style="stroke:#ff0000; stroke-width:3; stroke-opacity:1; fill:none" points="
  219.622,1395.08 361.172,1395.08 
  "/>
<path clip-path="url(#clip680)" d="M 0 0 M397.056 1395.89 Q398.184 1396.27 399.243 1397.52 Q400.319 1398.77 401.396 1400.96 L404.955 1408.04 L401.187 1408.04 L397.871 1401.39 Q396.587 1398.79 395.371 1397.94 Q394.174 1397.08 392.09 1397.08 L388.271 1397.08 L388.271 1408.04 L384.764 1408.04 L384.764 1382.12 L392.681 1382.12 Q397.125 1382.12 399.312 1383.98 Q401.5 1385.83 401.5 1389.58 Q401.5 1392.03 400.354 1393.65 Q399.226 1395.26 397.056 1395.89 M388.271 1385 L388.271 1394.2 L392.681 1394.2 Q395.215 1394.2 396.5 1393.04 Q397.802 1391.86 397.802 1389.58 Q397.802 1387.31 396.5 1386.16 Q395.215 1385 392.681 1385 L388.271 1385 Z" fill="#000000" fill-rule="evenodd" fill-opacity="1" /><path clip-path="url(#clip680)" d="M 0 0 M423.34 1397.52 L423.34 1399.08 L408.653 1399.08 Q408.861 1402.38 410.632 1404.12 Q412.42 1405.83 415.597 1405.83 Q417.437 1405.83 419.156 1405.38 Q420.892 1404.93 422.594 1404.03 L422.594 1407.05 Q420.875 1407.78 419.069 1408.16 Q417.264 1408.54 415.406 1408.54 Q410.753 1408.54 408.028 1405.83 Q405.319 1403.13 405.319 1398.51 Q405.319 1393.73 407.889 1390.94 Q410.476 1388.13 414.851 1388.13 Q418.774 1388.13 421.048 1390.66 Q423.34 1393.18 423.34 1397.52 M420.146 1396.58 Q420.111 1393.96 418.67 1392.4 Q417.246 1390.83 414.885 1390.83 Q412.212 1390.83 410.597 1392.34 Q409 1393.86 408.757 1396.6 L420.146 1396.58 Z" fill="#000000" fill-rule="evenodd" fill-opacity="1" /><path clip-path="url(#clip680)" d="M 0 0 M435.528 1398.27 Q431.656 1398.27 430.163 1399.15 Q428.67 1400.04 428.67 1402.17 Q428.67 1403.87 429.781 1404.88 Q430.91 1405.87 432.837 1405.87 Q435.493 1405.87 437.09 1403.99 Q438.705 1402.1 438.705 1398.98 L438.705 1398.27 L435.528 1398.27 M441.899 1396.95 L441.899 1408.04 L438.705 1408.04 L438.705 1405.09 Q437.611 1406.86 435.979 1407.71 Q434.347 1408.54 431.986 1408.54 Q429 1408.54 427.229 1406.88 Q425.476 1405.19 425.476 1402.38 Q425.476 1399.1 427.663 1397.43 Q429.868 1395.77 434.225 1395.77 L438.705 1395.77 L438.705 1395.45 Q438.705 1393.25 437.246 1392.05 Q435.805 1390.83 433.184 1390.83 Q431.517 1390.83 429.937 1391.23 Q428.357 1391.63 426.899 1392.43 L426.899 1389.48 Q428.653 1388.8 430.302 1388.47 Q431.951 1388.13 433.514 1388.13 Q437.732 1388.13 439.816 1390.31 Q441.899 1392.5 441.899 1396.95 Z" fill="#000000" fill-rule="evenodd" fill-opacity="1" /><path clip-path="url(#clip680)" d="M 0 0 M445.25 1381.03 L448.444 1381.03 L448.444 1408.04 L445.25 1408.04 L445.25 1381.03 Z" fill="#000000" fill-rule="evenodd" fill-opacity="1" /><path clip-path="url(#clip680)" d="M 0 0 M477.09 1389.34 L477.09 1392.33 Q475.736 1391.58 474.364 1391.22 Q473.01 1390.83 471.621 1390.83 Q468.513 1390.83 466.795 1392.81 Q465.076 1394.78 465.076 1398.33 Q465.076 1401.89 466.795 1403.87 Q468.513 1405.83 471.621 1405.83 Q473.01 1405.83 474.364 1405.47 Q475.736 1405.09 477.09 1404.34 L477.09 1407.29 Q475.753 1407.92 474.312 1408.23 Q472.888 1408.54 471.274 1408.54 Q466.882 1408.54 464.295 1405.78 Q461.708 1403.02 461.708 1398.33 Q461.708 1393.58 464.312 1390.85 Q466.934 1388.13 471.482 1388.13 Q472.958 1388.13 474.364 1388.44 Q475.77 1388.73 477.09 1389.34 Z" fill="#000000" fill-rule="evenodd" fill-opacity="1" /><path clip-path="url(#clip680)" d="M 0 0 M487.975 1390.83 Q485.406 1390.83 483.913 1392.85 Q482.42 1394.84 482.42 1398.33 Q482.42 1401.82 483.895 1403.84 Q485.388 1405.83 487.975 1405.83 Q490.527 1405.83 492.02 1403.82 Q493.513 1401.81 493.513 1398.33 Q493.513 1394.88 492.02 1392.87 Q490.527 1390.83 487.975 1390.83 M487.975 1388.13 Q492.142 1388.13 494.52 1390.83 Q496.899 1393.54 496.899 1398.33 Q496.899 1403.11 494.52 1405.83 Q492.142 1408.54 487.975 1408.54 Q483.791 1408.54 481.413 1405.83 Q479.052 1403.11 479.052 1398.33 Q479.052 1393.54 481.413 1390.83 Q483.791 1388.13 487.975 1388.13 Z" fill="#000000" fill-rule="evenodd" fill-opacity="1" /><path clip-path="url(#clip680)" d="M 0 0 M515.388 1392.33 Q516.586 1390.17 518.253 1389.15 Q519.919 1388.13 522.176 1388.13 Q525.215 1388.13 526.864 1390.26 Q528.513 1392.38 528.513 1396.3 L528.513 1408.04 L525.301 1408.04 L525.301 1396.41 Q525.301 1393.61 524.312 1392.26 Q523.322 1390.9 521.291 1390.9 Q518.808 1390.9 517.367 1392.55 Q515.926 1394.2 515.926 1397.05 L515.926 1408.04 L512.715 1408.04 L512.715 1396.41 Q512.715 1393.59 511.725 1392.26 Q510.735 1390.9 508.67 1390.9 Q506.222 1390.9 504.781 1392.57 Q503.34 1394.22 503.34 1397.05 L503.34 1408.04 L500.128 1408.04 L500.128 1388.6 L503.34 1388.6 L503.34 1391.62 Q504.433 1389.83 505.961 1388.98 Q507.489 1388.13 509.59 1388.13 Q511.708 1388.13 513.183 1389.2 Q514.676 1390.28 515.388 1392.33 Z" fill="#000000" fill-rule="evenodd" fill-opacity="1" /><path clip-path="url(#clip680)" d="M 0 0 M547.003 1392.33 Q548.201 1390.17 549.867 1389.15 Q551.534 1388.13 553.791 1388.13 Q556.829 1388.13 558.478 1390.26 Q560.128 1392.38 560.128 1396.3 L560.128 1408.04 L556.916 1408.04 L556.916 1396.41 Q556.916 1393.61 555.926 1392.26 Q554.937 1390.9 552.905 1390.9 Q550.423 1390.9 548.982 1392.55 Q547.541 1394.2 547.541 1397.05 L547.541 1408.04 L544.329 1408.04 L544.329 1396.41 Q544.329 1393.59 543.339 1392.26 Q542.35 1390.9 540.284 1390.9 Q537.836 1390.9 536.395 1392.57 Q534.954 1394.22 534.954 1397.05 L534.954 1408.04 L531.742 1408.04 L531.742 1388.6 L534.954 1388.6 L534.954 1391.62 Q536.048 1389.83 537.576 1388.98 Q539.103 1388.13 541.204 1388.13 Q543.322 1388.13 544.798 1389.2 Q546.291 1390.28 547.003 1392.33 Z" fill="#000000" fill-rule="evenodd" fill-opacity="1" /><path clip-path="url(#clip680)" d="M 0 0 M571.013 1390.83 Q568.443 1390.83 566.95 1392.85 Q565.457 1394.84 565.457 1398.33 Q565.457 1401.82 566.933 1403.84 Q568.426 1405.83 571.013 1405.83 Q573.565 1405.83 575.058 1403.82 Q576.551 1401.81 576.551 1398.33 Q576.551 1394.88 575.058 1392.87 Q573.565 1390.83 571.013 1390.83 M571.013 1388.13 Q575.18 1388.13 577.558 1390.83 Q579.936 1393.54 579.936 1398.33 Q579.936 1403.11 577.558 1405.83 Q575.18 1408.54 571.013 1408.54 Q566.829 1408.54 564.45 1405.83 Q562.089 1403.11 562.089 1398.33 Q562.089 1393.54 564.45 1390.83 Q566.829 1388.13 571.013 1388.13 Z" fill="#000000" fill-rule="evenodd" fill-opacity="1" /><path clip-path="url(#clip680)" d="M 0 0 M596.082 1391.55 L596.082 1381.03 L599.277 1381.03 L599.277 1408.04 L596.082 1408.04 L596.082 1405.12 Q595.075 1406.86 593.53 1407.71 Q592.002 1408.54 589.85 1408.54 Q586.325 1408.54 584.103 1405.73 Q581.898 1402.92 581.898 1398.33 Q581.898 1393.75 584.103 1390.94 Q586.325 1388.13 589.85 1388.13 Q592.002 1388.13 593.53 1388.98 Q595.075 1389.81 596.082 1391.55 M585.197 1398.33 Q585.197 1401.86 586.638 1403.87 Q588.096 1405.87 590.631 1405.87 Q593.166 1405.87 594.624 1403.87 Q596.082 1401.86 596.082 1398.33 Q596.082 1394.81 594.624 1392.81 Q593.166 1390.8 590.631 1390.8 Q588.096 1390.8 586.638 1392.81 Q585.197 1394.81 585.197 1398.33 Z" fill="#000000" fill-rule="evenodd" fill-opacity="1" /><path clip-path="url(#clip680)" d="M 0 0 M602.627 1388.6 L605.822 1388.6 L605.822 1408.04 L602.627 1408.04 L602.627 1388.6 M602.627 1381.03 L605.822 1381.03 L605.822 1385.07 L602.627 1385.07 L602.627 1381.03 Z" fill="#000000" fill-rule="evenodd" fill-opacity="1" /><path clip-path="url(#clip680)" d="M 0 0 M612.332 1383.07 L612.332 1388.6 L618.912 1388.6 L618.912 1391.08 L612.332 1391.08 L612.332 1401.63 Q612.332 1404.01 612.974 1404.69 Q613.634 1405.37 615.631 1405.37 L618.912 1405.37 L618.912 1408.04 L615.631 1408.04 Q611.933 1408.04 610.527 1406.67 Q609.12 1405.28 609.12 1401.63 L609.12 1391.08 L606.777 1391.08 L606.777 1388.6 L609.12 1388.6 L609.12 1383.07 L612.332 1383.07 Z" fill="#000000" fill-rule="evenodd" fill-opacity="1" /><path clip-path="url(#clip680)" d="M 0 0 M630.353 1409.84 Q628.999 1413.32 627.714 1414.38 Q626.429 1415.44 624.277 1415.44 L621.724 1415.44 L621.724 1412.76 L623.599 1412.76 Q624.919 1412.76 625.648 1412.14 Q626.377 1411.51 627.263 1409.19 L627.836 1407.73 L619.971 1388.6 L623.356 1388.6 L629.433 1403.8 L635.509 1388.6 L638.894 1388.6 L630.353 1409.84 Z" fill="#000000" fill-rule="evenodd" fill-opacity="1" /><path clip-path="url(#clip680)" d="M 0 0 M656.637 1405.12 L656.637 1415.44 L653.426 1415.44 L653.426 1388.6 L656.637 1388.6 L656.637 1391.55 Q657.644 1389.81 659.172 1388.98 Q660.717 1388.13 662.853 1388.13 Q666.394 1388.13 668.599 1390.94 Q670.821 1393.75 670.821 1398.33 Q670.821 1402.92 668.599 1405.73 Q666.394 1408.54 662.853 1408.54 Q660.717 1408.54 659.172 1407.71 Q657.644 1406.86 656.637 1405.12 M667.505 1398.33 Q667.505 1394.81 666.047 1392.81 Q664.606 1390.8 662.071 1390.8 Q659.537 1390.8 658.078 1392.81 Q656.637 1394.81 656.637 1398.33 Q656.637 1401.86 658.078 1403.87 Q659.537 1405.87 662.071 1405.87 Q664.606 1405.87 666.047 1403.87 Q667.505 1401.86 667.505 1398.33 Z" fill="#000000" fill-rule="evenodd" fill-opacity="1" /><path clip-path="url(#clip680)" d="M 0 0 M685.439 1391.58 Q684.901 1391.27 684.259 1391.13 Q683.634 1390.97 682.87 1390.97 Q680.162 1390.97 678.703 1392.74 Q677.262 1394.5 677.262 1397.8 L677.262 1408.04 L674.051 1408.04 L674.051 1388.6 L677.262 1388.6 L677.262 1391.62 Q678.269 1389.85 679.884 1388.99 Q681.498 1388.13 683.807 1388.13 Q684.137 1388.13 684.537 1388.18 Q684.936 1388.21 685.422 1388.3 L685.439 1391.58 Z" fill="#000000" fill-rule="evenodd" fill-opacity="1" /><path clip-path="url(#clip680)" d="M 0 0 M688.79 1388.6 L691.984 1388.6 L691.984 1408.04 L688.79 1408.04 L688.79 1388.6 M688.79 1381.03 L691.984 1381.03 L691.984 1385.07 L688.79 1385.07 L688.79 1381.03 Z" fill="#000000" fill-rule="evenodd" fill-opacity="1" /><path clip-path="url(#clip680)" d="M 0 0 M709.328 1389.34 L709.328 1392.33 Q707.974 1391.58 706.602 1391.22 Q705.248 1390.83 703.859 1390.83 Q700.752 1390.83 699.033 1392.81 Q697.314 1394.78 697.314 1398.33 Q697.314 1401.89 699.033 1403.87 Q700.752 1405.83 703.859 1405.83 Q705.248 1405.83 706.602 1405.47 Q707.974 1405.09 709.328 1404.34 L709.328 1407.29 Q707.991 1407.92 706.55 1408.23 Q705.127 1408.54 703.512 1408.54 Q699.12 1408.54 696.533 1405.78 Q693.946 1403.02 693.946 1398.33 Q693.946 1393.58 696.55 1390.85 Q699.172 1388.13 703.721 1388.13 Q705.196 1388.13 706.602 1388.44 Q708.009 1388.73 709.328 1389.34 Z" fill="#000000" fill-rule="evenodd" fill-opacity="1" /><path clip-path="url(#clip680)" d="M 0 0 M729.311 1397.52 L729.311 1399.08 L714.623 1399.08 Q714.832 1402.38 716.602 1404.12 Q718.391 1405.83 721.568 1405.83 Q723.408 1405.83 725.127 1405.38 Q726.863 1404.93 728.564 1404.03 L728.564 1407.05 Q726.845 1407.78 725.04 1408.16 Q723.234 1408.54 721.377 1408.54 Q716.724 1408.54 713.998 1405.83 Q711.29 1403.13 711.29 1398.51 Q711.29 1393.73 713.859 1390.94 Q716.446 1388.13 720.821 1388.13 Q724.745 1388.13 727.019 1390.66 Q729.311 1393.18 729.311 1397.52 M726.116 1396.58 Q726.082 1393.96 724.641 1392.4 Q723.217 1390.83 720.856 1390.83 Q718.182 1390.83 716.568 1392.34 Q714.97 1393.86 714.727 1396.6 L726.116 1396.58 Z" fill="#000000" fill-rule="evenodd" fill-opacity="1" /><path clip-path="url(#clip680)" d="M 0 0 M745.057 1389.17 L745.057 1392.19 Q743.703 1391.49 742.245 1391.15 Q740.786 1390.8 739.224 1390.8 Q736.845 1390.8 735.647 1391.53 Q734.467 1392.26 734.467 1393.72 Q734.467 1394.83 735.318 1395.47 Q736.168 1396.09 738.738 1396.67 L739.831 1396.91 Q743.234 1397.64 744.658 1398.98 Q746.099 1400.3 746.099 1402.67 Q746.099 1405.38 743.946 1406.96 Q741.811 1408.54 738.061 1408.54 Q736.498 1408.54 734.797 1408.23 Q733.113 1407.94 731.238 1407.33 L731.238 1404.03 Q733.009 1404.95 734.727 1405.42 Q736.446 1405.87 738.13 1405.87 Q740.387 1405.87 741.602 1405.11 Q742.818 1404.32 742.818 1402.92 Q742.818 1401.62 741.932 1400.92 Q741.064 1400.23 738.095 1399.58 L736.984 1399.32 Q734.016 1398.7 732.696 1397.41 Q731.377 1396.11 731.377 1393.86 Q731.377 1391.11 733.321 1389.62 Q735.266 1388.13 738.842 1388.13 Q740.613 1388.13 742.175 1388.39 Q743.738 1388.65 745.057 1389.17 Z" fill="#000000" fill-rule="evenodd" fill-opacity="1" /><path clip-path="url(#clip680)" d="
M125.256 1486.45 L2248.5 1486.45 L2248.5 106.192 L125.256 106.192  Z
  " fill="#000000" fill-rule="evenodd" fill-opacity="0"/>
<polyline clip-path="url(#clip682)" style="stroke:#000000; stroke-width:2; stroke-opacity:0.1; fill:none" stroke-dasharray="8, 5" points="
  125.256,1405.26 2248.5,1405.26 
  "/>
<polyline clip-path="url(#clip682)" style="stroke:#000000; stroke-width:2; stroke-opacity:0.1; fill:none" stroke-dasharray="8, 5" points="
  125.256,1080.49 2248.5,1080.49 
  "/>
<polyline clip-path="url(#clip682)" style="stroke:#000000; stroke-width:2; stroke-opacity:0.1; fill:none" stroke-dasharray="8, 5" points="
  125.256,755.724 2248.5,755.724 
  "/>
<polyline clip-path="url(#clip682)" style="stroke:#000000; stroke-width:2; stroke-opacity:0.1; fill:none" stroke-dasharray="8, 5" points="
  125.256,430.958 2248.5,430.958 
  "/>
<polyline clip-path="url(#clip682)" style="stroke:#000000; stroke-width:2; stroke-opacity:0.1; fill:none" stroke-dasharray="8, 5" points="
  125.256,106.192 2248.5,106.192 
  "/>
<polyline clip-path="url(#clip680)" style="stroke:#000000; stroke-width:4; stroke-opacity:1; fill:none" points="
  125.256,1486.45 2248.5,1486.45 
  "/>
<polyline clip-path="url(#clip680)" style="stroke:#000000; stroke-width:4; stroke-opacity:1; fill:none" points="
  2248.5,1486.45 2248.5,106.192 
  "/>
<polyline clip-path="url(#clip680)" style="stroke:#000000; stroke-width:4; stroke-opacity:1; fill:none" points="
  2248.5,1405.26 2223.02,1405.26 
  "/>
<polyline clip-path="url(#clip680)" style="stroke:#000000; stroke-width:4; stroke-opacity:1; fill:none" points="
  2248.5,1080.49 2223.02,1080.49 
  "/>
<polyline clip-path="url(#clip680)" style="stroke:#000000; stroke-width:4; stroke-opacity:1; fill:none" points="
  2248.5,755.724 2223.02,755.724 
  "/>
<polyline clip-path="url(#clip680)" style="stroke:#000000; stroke-width:4; stroke-opacity:1; fill:none" points="
  2248.5,430.958 2223.02,430.958 
  "/>
<polyline clip-path="url(#clip680)" style="stroke:#000000; stroke-width:4; stroke-opacity:1; fill:none" points="
  2248.5,106.192 2223.02,106.192 
  "/>
<path clip-path="url(#clip680)" d="M 0 0 M2272.5 1407.65 L2284.98 1407.65 L2284.98 1411.45 L2272.5 1411.45 L2272.5 1407.65 Z" fill="#000000" fill-rule="evenodd" fill-opacity="1" /><path clip-path="url(#clip680)" d="M 0 0 M2302.9 1392.05 L2291.09 1410.5 L2302.9 1410.5 L2302.9 1392.05 M2301.67 1387.98 L2307.55 1387.98 L2307.55 1410.5 L2312.48 1410.5 L2312.48 1414.39 L2307.55 1414.39 L2307.55 1422.54 L2302.9 1422.54 L2302.9 1414.39 L2287.3 1414.39 L2287.3 1409.87 L2301.67 1387.98 Z" fill="#000000" fill-rule="evenodd" fill-opacity="1" /><path clip-path="url(#clip680)" d="M 0 0 M2327.55 1391.06 Q2323.94 1391.06 2322.11 1394.62 Q2320.3 1398.16 2320.3 1405.29 Q2320.3 1412.4 2322.11 1415.96 Q2323.94 1419.5 2327.55 1419.5 Q2331.18 1419.5 2332.99 1415.96 Q2334.82 1412.4 2334.82 1405.29 Q2334.82 1398.16 2332.99 1394.62 Q2331.18 1391.06 2327.55 1391.06 M2327.55 1387.35 Q2333.36 1387.35 2336.42 1391.96 Q2339.49 1396.54 2339.49 1405.29 Q2339.49 1414.02 2336.42 1418.62 Q2333.36 1423.21 2327.55 1423.21 Q2321.74 1423.21 2318.66 1418.62 Q2315.61 1414.02 2315.61 1405.29 Q2315.61 1396.54 2318.66 1391.96 Q2321.74 1387.35 2327.55 1387.35 Z" fill="#000000" fill-rule="evenodd" fill-opacity="1" /><path clip-path="url(#clip680)" d="M 0 0 M2272.5 1082.89 L2284.98 1082.89 L2284.98 1086.68 L2272.5 1086.68 L2272.5 1082.89 Z" fill="#000000" fill-rule="evenodd" fill-opacity="1" /><path clip-path="url(#clip680)" d="M 0 0 M2294.08 1093.84 L2310.4 1093.84 L2310.4 1097.77 L2288.45 1097.77 L2288.45 1093.84 Q2291.11 1091.08 2295.7 1086.45 Q2300.3 1081.8 2301.49 1080.46 Q2303.73 1077.93 2304.61 1076.2 Q2305.51 1074.44 2305.51 1072.75 Q2305.51 1069.99 2303.57 1068.26 Q2301.65 1066.52 2298.55 1066.52 Q2296.35 1066.52 2293.89 1067.28 Q2291.46 1068.05 2288.68 1069.6 L2288.68 1064.88 Q2291.51 1063.74 2293.96 1063.16 Q2296.42 1062.59 2298.45 1062.59 Q2303.82 1062.59 2307.02 1065.27 Q2310.21 1067.96 2310.21 1072.45 Q2310.21 1074.58 2309.4 1076.5 Q2308.61 1078.4 2306.51 1080.99 Q2305.93 1081.66 2302.83 1084.88 Q2299.73 1088.07 2294.08 1093.84 Z" fill="#000000" fill-rule="evenodd" fill-opacity="1" /><path clip-path="url(#clip680)" d="M 0 0 M2325.47 1066.29 Q2321.86 1066.29 2320.03 1069.85 Q2318.22 1073.4 2318.22 1080.53 Q2318.22 1087.63 2320.03 1091.2 Q2321.86 1094.74 2325.47 1094.74 Q2329.1 1094.74 2330.91 1091.2 Q2332.74 1087.63 2332.74 1080.53 Q2332.74 1073.4 2330.91 1069.85 Q2329.1 1066.29 2325.47 1066.29 M2325.47 1062.59 Q2331.28 1062.59 2334.33 1067.19 Q2337.41 1071.78 2337.41 1080.53 Q2337.41 1089.25 2334.33 1093.86 Q2331.28 1098.44 2325.47 1098.44 Q2319.66 1098.44 2316.58 1093.86 Q2313.52 1089.25 2313.52 1080.53 Q2313.52 1071.78 2316.58 1067.19 Q2319.66 1062.59 2325.47 1062.59 Z" fill="#000000" fill-rule="evenodd" fill-opacity="1" /><path clip-path="url(#clip680)" d="M 0 0 M2284.45 741.523 Q2280.84 741.523 2279.01 745.088 Q2277.2 748.629 2277.2 755.759 Q2277.2 762.865 2279.01 766.43 Q2280.84 769.972 2284.45 769.972 Q2288.08 769.972 2289.89 766.43 Q2291.72 762.865 2291.72 755.759 Q2291.72 748.629 2289.89 745.088 Q2288.08 741.523 2284.45 741.523 M2284.45 737.819 Q2290.26 737.819 2293.31 742.426 Q2296.39 747.009 2296.39 755.759 Q2296.39 764.486 2293.31 769.092 Q2290.26 773.676 2284.45 773.676 Q2278.64 773.676 2275.56 769.092 Q2272.5 764.486 2272.5 755.759 Q2272.5 747.009 2275.56 742.426 Q2278.64 737.819 2284.45 737.819 Z" fill="#000000" fill-rule="evenodd" fill-opacity="1" /><path clip-path="url(#clip680)" d="M 0 0 M2278.13 444.303 L2294.45 444.303 L2294.45 448.238 L2272.5 448.238 L2272.5 444.303 Q2275.17 441.548 2279.75 436.919 Q2284.36 432.266 2285.54 430.923 Q2287.78 428.4 2288.66 426.664 Q2289.56 424.905 2289.56 423.215 Q2289.56 420.461 2287.62 418.724 Q2285.7 416.988 2282.6 416.988 Q2280.4 416.988 2277.94 417.752 Q2275.51 418.516 2272.74 420.067 L2272.74 415.345 Q2275.56 414.211 2278.01 413.632 Q2280.47 413.053 2282.5 413.053 Q2287.87 413.053 2291.07 415.738 Q2294.26 418.424 2294.26 422.914 Q2294.26 425.044 2293.45 426.965 Q2292.67 428.863 2290.56 431.456 Q2289.98 432.127 2286.88 435.345 Q2283.78 438.539 2278.13 444.303 Z" fill="#000000" fill-rule="evenodd" fill-opacity="1" /><path clip-path="url(#clip680)" d="M 0 0 M2309.52 416.757 Q2305.91 416.757 2304.08 420.322 Q2302.27 423.863 2302.27 430.993 Q2302.27 438.099 2304.08 441.664 Q2305.91 445.206 2309.52 445.206 Q2313.15 445.206 2314.96 441.664 Q2316.79 438.099 2316.79 430.993 Q2316.79 423.863 2314.96 420.322 Q2313.15 416.757 2309.52 416.757 M2309.52 413.053 Q2315.33 413.053 2318.38 417.66 Q2321.46 422.243 2321.46 430.993 Q2321.46 439.72 2318.38 444.326 Q2315.33 448.909 2309.52 448.909 Q2303.71 448.909 2300.63 444.326 Q2297.57 439.72 2297.57 430.993 Q2297.57 422.243 2300.63 417.66 Q2303.71 413.053 2309.52 413.053 Z" fill="#000000" fill-rule="evenodd" fill-opacity="1" /><path clip-path="url(#clip680)" d="M 0 0 M2288.11 92.9862 L2276.3 111.435 L2288.11 111.435 L2288.11 92.9862 M2286.88 88.9121 L2292.76 88.9121 L2292.76 111.435 L2297.69 111.435 L2297.69 115.324 L2292.76 115.324 L2292.76 123.472 L2288.11 123.472 L2288.11 115.324 L2272.5 115.324 L2272.5 110.81 L2286.88 88.9121 Z" fill="#000000" fill-rule="evenodd" fill-opacity="1" /><path clip-path="url(#clip680)" d="M 0 0 M2312.76 91.9908 Q2309.15 91.9908 2307.32 95.5556 Q2305.51 99.0973 2305.51 106.227 Q2305.51 113.333 2307.32 116.898 Q2309.15 120.44 2312.76 120.44 Q2316.39 120.44 2318.2 116.898 Q2320.03 113.333 2320.03 106.227 Q2320.03 99.0973 2318.2 95.5556 Q2316.39 91.9908 2312.76 91.9908 M2312.76 88.2871 Q2318.57 88.2871 2321.62 92.8936 Q2324.7 97.4769 2324.7 106.227 Q2324.7 114.954 2321.62 119.56 Q2318.57 124.143 2312.76 124.143 Q2306.95 124.143 2303.87 119.56 Q2300.81 114.954 2300.81 106.227 Q2300.81 97.4769 2303.87 92.8936 Q2306.95 88.2871 2312.76 88.2871 Z" fill="#000000" fill-rule="evenodd" fill-opacity="1" /><polyline clip-path="url(#clip682)" style="stroke:#ff0000; stroke-width:4.6; stroke-opacity:0.75; fill:none" points="
  185.348,770.006 209.775,847.915 234.203,810.202 258.631,826.72 283.058,639.595 307.486,636.168 331.913,656.535 356.341,654.058 380.769,712.288 405.196,697.686 
  429.624,684.428 454.051,828.933 478.479,792.575 502.907,842.418 527.334,938.528 551.762,680.822 576.19,614.747 600.617,716.427 625.045,685.456 649.472,579.246 
  673.9,856.803 698.328,742.37 722.755,664.41 747.183,666.521 771.61,688.625 796.038,721.23 820.466,690.072 844.893,691.705 869.321,681.407 893.749,601.564 
  918.176,748.275 942.604,739.092 967.031,629.567 991.459,748.023 1015.89,830.848 1040.31,734.168 1064.74,619.129 1089.17,749.896 1113.6,587.464 1138.02,612.09 
  1162.45,566.706 1186.88,832.256 1211.31,1386.24 1235.74,927.955 1260.16,597.327 1284.59,664.956 1309.02,632.825 1333.45,675.425 1357.87,730.412 1382.3,765.085 
  1406.73,583.788 1431.16,574.66 1455.58,703.374 1480.01,808.35 1504.44,824.374 1528.87,694.72 1553.29,851.046 1577.72,762.282 1602.15,765.522 1626.58,736.274 
  1651,807.744 1675.43,730.733 1699.86,779.305 1724.29,735.288 1748.71,752.808 1773.14,847.926 1797.57,983.739 1822,1009.11 1846.43,724.925 1870.85,912.006 
  1895.28,869.343 1919.71,873.356 1944.14,571.463 1968.56,715.583 1992.99,685.364 2017.42,668.637 2041.85,848.599 2066.27,717.119 2090.7,650.583 2115.13,679.489 
  2139.56,727.998 2163.98,761.159 2188.41,827.421 
  "/>
</svg>
