<?xml version="1.0" encoding="utf-8"?>
<svg xmlns="http://www.w3.org/2000/svg" xmlns:xlink="http://www.w3.org/1999/xlink" width="600" height="400" viewBox="0 0 2400 1600">
<defs>
  <clipPath id="clip590">
    <rect x="0" y="0" width="2400" height="1600"/>
  </clipPath>
</defs>
<path clip-path="url(#clip590)" d="
M0 1600 L2400 1600 L2400 0 L0 0  Z
  " fill="#ffffff" fill-rule="evenodd" fill-opacity="1"/>
<defs>
  <clipPath id="clip591">
    <rect x="480" y="0" width="1681" height="1600"/>
  </clipPath>
</defs>
<path clip-path="url(#clip590)" d="
M125.256 1486.45 L2248.5 1486.45 L2248.5 106.192 L125.256 106.192  Z
  " fill="#ffffff" fill-rule="evenodd" fill-opacity="1"/>
<defs>
  <clipPath id="clip592">
    <rect x="125" y="106" width="2124" height="1381"/>
  </clipPath>
</defs>
<polyline clip-path="url(#clip592)" style="stroke:#000000; stroke-width:2; stroke-opacity:0.1; fill:none" points="
  185.348,1486.45 185.348,106.192 
  "/>
<polyline clip-path="url(#clip592)" style="stroke:#000000; stroke-width:2; stroke-opacity:0.1; fill:none" points="
  478.479,1486.45 478.479,106.192 
  "/>
<polyline clip-path="url(#clip592)" style="stroke:#000000; stroke-width:2; stroke-opacity:0.1; fill:none" points="
  771.61,1486.45 771.61,106.192 
  "/>
<polyline clip-path="url(#clip592)" style="stroke:#000000; stroke-width:2; stroke-opacity:0.1; fill:none" points="
  1064.74,1486.45 1064.74,106.192 
  "/>
<polyline clip-path="url(#clip592)" style="stroke:#000000; stroke-width:2; stroke-opacity:0.1; fill:none" points="
  1357.87,1486.45 1357.87,106.192 
  "/>
<polyline clip-path="url(#clip592)" style="stroke:#000000; stroke-width:2; stroke-opacity:0.1; fill:none" points="
  1651,1486.45 1651,106.192 
  "/>
<polyline clip-path="url(#clip592)" style="stroke:#000000; stroke-width:2; stroke-opacity:0.1; fill:none" points="
  1944.14,1486.45 1944.14,106.192 
  "/>
<polyline clip-path="url(#clip590)" style="stroke:#000000; stroke-width:4; stroke-opacity:1; fill:none" points="
  125.256,1486.45 2248.5,1486.45 
  "/>
<polyline clip-path="url(#clip590)" style="stroke:#000000; stroke-width:4; stroke-opacity:1; fill:none" points="
  125.256,1486.45 125.256,106.192 
  "/>
<polyline clip-path="url(#clip590)" style="stroke:#000000; stroke-width:4; stroke-opacity:1; fill:none" points="
  185.348,1486.45 185.348,1469.88 
  "/>
<polyline clip-path="url(#clip590)" style="stroke:#000000; stroke-width:4; stroke-opacity:1; fill:none" points="
  478.479,1486.45 478.479,1469.88 
  "/>
<polyline clip-path="url(#clip590)" style="stroke:#000000; stroke-width:4; stroke-opacity:1; fill:none" points="
  771.61,1486.45 771.61,1469.88 
  "/>
<polyline clip-path="url(#clip590)" style="stroke:#000000; stroke-width:4; stroke-opacity:1; fill:none" points="
  1064.74,1486.45 1064.74,1469.88 
  "/>
<polyline clip-path="url(#clip590)" style="stroke:#000000; stroke-width:4; stroke-opacity:1; fill:none" points="
  1357.87,1486.45 1357.87,1469.88 
  "/>
<polyline clip-path="url(#clip590)" style="stroke:#000000; stroke-width:4; stroke-opacity:1; fill:none" points="
  1651,1486.45 1651,1469.88 
  "/>
<polyline clip-path="url(#clip590)" style="stroke:#000000; stroke-width:4; stroke-opacity:1; fill:none" points="
  1944.14,1486.45 1944.14,1469.88 
  "/>
<polyline clip-path="url(#clip590)" style="stroke:#000000; stroke-width:4; stroke-opacity:1; fill:none" points="
  125.256,1486.45 150.735,1486.45 
  "/>
<polyline clip-path="url(#clip590)" style="stroke:#000000; stroke-width:4; stroke-opacity:1; fill:none" points="
  125.256,1289.27 150.735,1289.27 
  "/>
<polyline clip-path="url(#clip590)" style="stroke:#000000; stroke-width:4; stroke-opacity:1; fill:none" points="
  125.256,1092.09 150.735,1092.09 
  "/>
<polyline clip-path="url(#clip590)" style="stroke:#000000; stroke-width:4; stroke-opacity:1; fill:none" points="
  125.256,894.91 150.735,894.91 
  "/>
<polyline clip-path="url(#clip590)" style="stroke:#000000; stroke-width:4; stroke-opacity:1; fill:none" points="
  125.256,697.73 150.735,697.73 
  "/>
<polyline clip-path="url(#clip590)" style="stroke:#000000; stroke-width:4; stroke-opacity:1; fill:none" points="
  125.256,500.551 150.735,500.551 
  "/>
<polyline clip-path="url(#clip590)" style="stroke:#000000; stroke-width:4; stroke-opacity:1; fill:none" points="
  125.256,303.372 150.735,303.372 
  "/>
<polyline clip-path="url(#clip590)" style="stroke:#000000; stroke-width:4; stroke-opacity:1; fill:none" points="
  125.256,106.192 150.735,106.192 
  "/>
<path clip-path="url(#clip590)" d="M 0 0 M105.406 1535.98 L113.045 1535.98 L113.045 1509.62 L104.735 1511.29 L104.735 1507.03 L112.999 1505.36 L117.674 1505.36 L117.674 1535.98 L125.313 1535.98 L125.313 1539.92 L105.406 1539.92 L105.406 1535.98 Z" fill="#000000" fill-rule="evenodd" fill-opacity="1" /><path clip-path="url(#clip590)" d="M 0 0 M130.522 1539.2 L130.522 1534.94 Q132.281 1535.78 134.086 1536.22 Q135.892 1536.66 137.628 1536.66 Q142.258 1536.66 144.688 1533.55 Q147.142 1530.43 147.489 1524.09 Q146.147 1526.08 144.086 1527.14 Q142.026 1528.21 139.526 1528.21 Q134.341 1528.21 131.309 1525.08 Q128.299 1521.93 128.299 1516.49 Q128.299 1511.17 131.448 1507.95 Q134.596 1504.73 139.827 1504.73 Q145.822 1504.73 148.971 1509.34 Q152.142 1513.92 152.142 1522.67 Q152.142 1530.85 148.253 1535.73 Q144.387 1540.59 137.836 1540.59 Q136.077 1540.59 134.272 1540.24 Q132.466 1539.9 130.522 1539.2 M139.827 1524.55 Q142.975 1524.55 144.804 1522.4 Q146.656 1520.24 146.656 1516.49 Q146.656 1512.77 144.804 1510.61 Q142.975 1508.44 139.827 1508.44 Q136.679 1508.44 134.827 1510.61 Q132.998 1512.77 132.998 1516.49 Q132.998 1520.24 134.827 1522.4 Q136.679 1524.55 139.827 1524.55 Z" fill="#000000" fill-rule="evenodd" fill-opacity="1" /><path clip-path="url(#clip590)" d="M 0 0 M157.35 1539.2 L157.35 1534.94 Q159.109 1535.78 160.915 1536.22 Q162.721 1536.66 164.457 1536.66 Q169.086 1536.66 171.517 1533.55 Q173.97 1530.43 174.318 1524.09 Q172.975 1526.08 170.915 1527.14 Q168.855 1528.21 166.355 1528.21 Q161.17 1528.21 158.137 1525.08 Q155.128 1521.93 155.128 1516.49 Q155.128 1511.17 158.276 1507.95 Q161.424 1504.73 166.656 1504.73 Q172.651 1504.73 175.799 1509.34 Q178.97 1513.92 178.97 1522.67 Q178.97 1530.85 175.082 1535.73 Q171.216 1540.59 164.665 1540.59 Q162.906 1540.59 161.1 1540.24 Q159.295 1539.9 157.35 1539.2 M166.656 1524.55 Q169.804 1524.55 171.633 1522.4 Q173.484 1520.24 173.484 1516.49 Q173.484 1512.77 171.633 1510.61 Q169.804 1508.44 166.656 1508.44 Q163.508 1508.44 161.656 1510.61 Q159.827 1512.77 159.827 1516.49 Q159.827 1520.24 161.656 1522.4 Q163.508 1524.55 166.656 1524.55 Z" fill="#000000" fill-rule="evenodd" fill-opacity="1" /><path clip-path="url(#clip590)" d="M 0 0 M194.04 1523.51 Q190.707 1523.51 188.785 1525.29 Q186.887 1527.07 186.887 1530.2 Q186.887 1533.32 188.785 1535.11 Q190.707 1536.89 194.04 1536.89 Q197.373 1536.89 199.294 1535.11 Q201.216 1533.3 201.216 1530.2 Q201.216 1527.07 199.294 1525.29 Q197.396 1523.51 194.04 1523.51 M189.364 1521.52 Q186.355 1520.78 184.665 1518.72 Q182.998 1516.66 182.998 1513.69 Q182.998 1509.55 185.938 1507.14 Q188.901 1504.73 194.04 1504.73 Q199.202 1504.73 202.142 1507.14 Q205.081 1509.55 205.081 1513.69 Q205.081 1516.66 203.392 1518.72 Q201.725 1520.78 198.739 1521.52 Q202.118 1522.3 203.993 1524.6 Q205.892 1526.89 205.892 1530.2 Q205.892 1535.22 202.813 1537.91 Q199.757 1540.59 194.04 1540.59 Q188.322 1540.59 185.244 1537.91 Q182.188 1535.22 182.188 1530.2 Q182.188 1526.89 184.086 1524.6 Q185.984 1522.3 189.364 1521.52 M187.651 1514.13 Q187.651 1516.82 189.318 1518.32 Q191.007 1519.83 194.04 1519.83 Q197.049 1519.83 198.739 1518.32 Q200.452 1516.82 200.452 1514.13 Q200.452 1511.45 198.739 1509.94 Q197.049 1508.44 194.04 1508.44 Q191.007 1508.44 189.318 1509.94 Q187.651 1511.45 187.651 1514.13 Z" fill="#000000" fill-rule="evenodd" fill-opacity="1" /><path clip-path="url(#clip590)" d="M 0 0 M224.572 1508.53 Q219.479 1508.53 216.47 1512.33 Q213.484 1516.12 213.484 1522.67 Q213.484 1529.2 216.47 1533 Q219.479 1536.79 224.572 1536.79 Q229.665 1536.79 232.628 1533 Q235.614 1529.2 235.614 1522.67 Q235.614 1516.12 232.628 1512.33 Q229.665 1508.53 224.572 1508.53 M231.123 1539.29 L237.28 1546.03 L231.632 1546.03 L226.516 1540.5 Q225.753 1540.54 225.336 1540.57 Q224.942 1540.59 224.572 1540.59 Q217.28 1540.59 212.905 1535.73 Q208.554 1530.85 208.554 1522.67 Q208.554 1514.48 212.905 1509.62 Q217.28 1504.73 224.572 1504.73 Q231.841 1504.73 236.192 1509.62 Q240.544 1514.48 240.544 1522.67 Q240.544 1528.69 238.114 1532.98 Q235.706 1537.26 231.123 1539.29 Z" fill="#000000" fill-rule="evenodd" fill-opacity="1" /><path clip-path="url(#clip590)" d="M 0 0 M249.641 1535.98 L265.961 1535.98 L265.961 1539.92 L244.016 1539.92 L244.016 1535.98 Q246.678 1533.23 251.262 1528.6 Q255.868 1523.95 257.049 1522.61 Q259.294 1520.08 260.174 1518.35 Q261.076 1516.59 261.076 1514.9 Q261.076 1512.14 259.132 1510.41 Q257.211 1508.67 254.109 1508.67 Q251.91 1508.67 249.456 1509.43 Q247.026 1510.2 244.248 1511.75 L244.248 1507.03 Q247.072 1505.89 249.526 1505.31 Q251.979 1504.73 254.016 1504.73 Q259.387 1504.73 262.581 1507.42 Q265.776 1510.11 265.776 1514.6 Q265.776 1516.73 264.965 1518.65 Q264.178 1520.54 262.072 1523.14 Q261.493 1523.81 258.391 1527.03 Q255.289 1530.22 249.641 1535.98 Z" fill="#000000" fill-rule="evenodd" fill-opacity="1" /><path clip-path="url(#clip590)" d="M 0 0 M403.19 1535.98 L419.51 1535.98 L419.51 1539.92 L397.565 1539.92 L397.565 1535.98 Q400.227 1533.23 404.811 1528.6 Q409.417 1523.95 410.598 1522.61 Q412.843 1520.08 413.722 1518.35 Q414.625 1516.59 414.625 1514.9 Q414.625 1512.14 412.681 1510.41 Q410.76 1508.67 407.658 1508.67 Q405.459 1508.67 403.005 1509.43 Q400.574 1510.2 397.797 1511.75 L397.797 1507.03 Q400.621 1505.89 403.074 1505.31 Q405.528 1504.73 407.565 1504.73 Q412.935 1504.73 416.13 1507.42 Q419.324 1510.11 419.324 1514.6 Q419.324 1516.73 418.514 1518.65 Q417.727 1520.54 415.621 1523.14 Q415.042 1523.81 411.94 1527.03 Q408.838 1530.22 403.19 1535.98 Z" fill="#000000" fill-rule="evenodd" fill-opacity="1" /><path clip-path="url(#clip590)" d="M 0 0 M434.579 1508.44 Q430.968 1508.44 429.139 1512 Q427.334 1515.55 427.334 1522.67 Q427.334 1529.78 429.139 1533.35 Q430.968 1536.89 434.579 1536.89 Q438.213 1536.89 440.019 1533.35 Q441.847 1529.78 441.847 1522.67 Q441.847 1515.55 440.019 1512 Q438.213 1508.44 434.579 1508.44 M434.579 1504.73 Q440.389 1504.73 443.445 1509.34 Q446.523 1513.92 446.523 1522.67 Q446.523 1531.4 443.445 1536.01 Q440.389 1540.59 434.579 1540.59 Q428.769 1540.59 425.69 1536.01 Q422.634 1531.4 422.634 1522.67 Q422.634 1513.92 425.69 1509.34 Q428.769 1504.73 434.579 1504.73 Z" fill="#000000" fill-rule="evenodd" fill-opacity="1" /><path clip-path="url(#clip590)" d="M 0 0 M461.593 1508.44 Q457.982 1508.44 456.153 1512 Q454.347 1515.55 454.347 1522.67 Q454.347 1529.78 456.153 1533.35 Q457.982 1536.89 461.593 1536.89 Q465.227 1536.89 467.032 1533.35 Q468.861 1529.78 468.861 1522.67 Q468.861 1515.55 467.032 1512 Q465.227 1508.44 461.593 1508.44 M461.593 1504.73 Q467.403 1504.73 470.458 1509.34 Q473.537 1513.92 473.537 1522.67 Q473.537 1531.4 470.458 1536.01 Q467.403 1540.59 461.593 1540.59 Q455.782 1540.59 452.704 1536.01 Q449.648 1531.4 449.648 1522.67 Q449.648 1513.92 452.704 1509.34 Q455.782 1504.73 461.593 1504.73 Z" fill="#000000" fill-rule="evenodd" fill-opacity="1" /><path clip-path="url(#clip590)" d="M 0 0 M479.417 1535.98 L487.055 1535.98 L487.055 1509.62 L478.745 1511.29 L478.745 1507.03 L487.009 1505.36 L491.685 1505.36 L491.685 1535.98 L499.324 1535.98 L499.324 1539.92 L479.417 1539.92 L479.417 1535.98 Z" fill="#000000" fill-rule="evenodd" fill-opacity="1" /><path clip-path="url(#clip590)" d="M 0 0 M518.004 1508.53 Q512.912 1508.53 509.903 1512.33 Q506.916 1516.12 506.916 1522.67 Q506.916 1529.2 509.903 1533 Q512.912 1536.79 518.004 1536.79 Q523.097 1536.79 526.06 1533 Q529.046 1529.2 529.046 1522.67 Q529.046 1516.12 526.06 1512.33 Q523.097 1508.53 518.004 1508.53 M524.555 1539.29 L530.713 1546.03 L525.064 1546.03 L519.949 1540.5 Q519.185 1540.54 518.768 1540.57 Q518.375 1540.59 518.004 1540.59 Q510.713 1540.59 506.338 1535.73 Q501.986 1530.85 501.986 1522.67 Q501.986 1514.48 506.338 1509.62 Q510.713 1504.73 518.004 1504.73 Q525.273 1504.73 529.625 1509.62 Q533.976 1514.48 533.976 1522.67 Q533.976 1528.69 531.546 1532.98 Q529.139 1537.26 524.555 1539.29 Z" fill="#000000" fill-rule="evenodd" fill-opacity="1" /><path clip-path="url(#clip590)" d="M 0 0 M543.074 1535.98 L559.393 1535.98 L559.393 1539.92 L537.449 1539.92 L537.449 1535.98 Q540.111 1533.23 544.694 1528.6 Q549.3 1523.95 550.481 1522.61 Q552.726 1520.08 553.606 1518.35 Q554.509 1516.59 554.509 1514.9 Q554.509 1512.14 552.564 1510.41 Q550.643 1508.67 547.541 1508.67 Q545.342 1508.67 542.888 1509.43 Q540.458 1510.2 537.68 1511.75 L537.68 1507.03 Q540.504 1505.89 542.958 1505.31 Q545.412 1504.73 547.449 1504.73 Q552.819 1504.73 556.013 1507.42 Q559.208 1510.11 559.208 1514.6 Q559.208 1516.73 558.398 1518.65 Q557.611 1520.54 555.504 1523.14 Q554.925 1523.81 551.824 1527.03 Q548.722 1530.22 543.074 1535.98 Z" fill="#000000" fill-rule="evenodd" fill-opacity="1" /><path clip-path="url(#clip590)" d="M 0 0 M695.465 1535.98 L711.784 1535.98 L711.784 1539.92 L689.84 1539.92 L689.84 1535.98 Q692.502 1533.23 697.085 1528.6 Q701.692 1523.95 702.872 1522.61 Q705.118 1520.08 705.997 1518.35 Q706.9 1516.59 706.9 1514.9 Q706.9 1512.14 704.956 1510.41 Q703.034 1508.67 699.933 1508.67 Q697.734 1508.67 695.28 1509.43 Q692.849 1510.2 690.072 1511.75 L690.072 1507.03 Q692.896 1505.89 695.349 1505.31 Q697.803 1504.73 699.84 1504.73 Q705.21 1504.73 708.405 1507.42 Q711.599 1510.11 711.599 1514.6 Q711.599 1516.73 710.789 1518.65 Q710.002 1520.54 707.896 1523.14 Q707.317 1523.81 704.215 1527.03 Q701.113 1530.22 695.465 1535.98 Z" fill="#000000" fill-rule="evenodd" fill-opacity="1" /><path clip-path="url(#clip590)" d="M 0 0 M726.854 1508.44 Q723.243 1508.44 721.414 1512 Q719.608 1515.55 719.608 1522.67 Q719.608 1529.78 721.414 1533.35 Q723.243 1536.89 726.854 1536.89 Q730.488 1536.89 732.294 1533.35 Q734.122 1529.78 734.122 1522.67 Q734.122 1515.55 732.294 1512 Q730.488 1508.44 726.854 1508.44 M726.854 1504.73 Q732.664 1504.73 735.719 1509.34 Q738.798 1513.92 738.798 1522.67 Q738.798 1531.4 735.719 1536.01 Q732.664 1540.59 726.854 1540.59 Q721.044 1540.59 717.965 1536.01 Q714.909 1531.4 714.909 1522.67 Q714.909 1513.92 717.965 1509.34 Q721.044 1504.73 726.854 1504.73 Z" fill="#000000" fill-rule="evenodd" fill-opacity="1" /><path clip-path="url(#clip590)" d="M 0 0 M753.867 1508.44 Q750.256 1508.44 748.428 1512 Q746.622 1515.55 746.622 1522.67 Q746.622 1529.78 748.428 1533.35 Q750.256 1536.89 753.867 1536.89 Q757.502 1536.89 759.307 1533.35 Q761.136 1529.78 761.136 1522.67 Q761.136 1515.55 759.307 1512 Q757.502 1508.44 753.867 1508.44 M753.867 1504.73 Q759.678 1504.73 762.733 1509.34 Q765.812 1513.92 765.812 1522.67 Q765.812 1531.4 762.733 1536.01 Q759.678 1540.59 753.867 1540.59 Q748.057 1540.59 744.979 1536.01 Q741.923 1531.4 741.923 1522.67 Q741.923 1513.92 744.979 1509.34 Q748.057 1504.73 753.867 1504.73 Z" fill="#000000" fill-rule="evenodd" fill-opacity="1" /><path clip-path="url(#clip590)" d="M 0 0 M783.728 1509.43 L771.923 1527.88 L783.728 1527.88 L783.728 1509.43 M782.502 1505.36 L788.381 1505.36 L788.381 1527.88 L793.312 1527.88 L793.312 1531.77 L788.381 1531.77 L788.381 1539.92 L783.728 1539.92 L783.728 1531.77 L768.127 1531.77 L768.127 1527.26 L782.502 1505.36 Z" fill="#000000" fill-rule="evenodd" fill-opacity="1" /><path clip-path="url(#clip590)" d="M 0 0 M811.992 1508.53 Q806.9 1508.53 803.89 1512.33 Q800.904 1516.12 800.904 1522.67 Q800.904 1529.2 803.89 1533 Q806.9 1536.79 811.992 1536.79 Q817.085 1536.79 820.048 1533 Q823.034 1529.2 823.034 1522.67 Q823.034 1516.12 820.048 1512.33 Q817.085 1508.53 811.992 1508.53 M818.543 1539.29 L824.7 1546.03 L819.052 1546.03 L813.937 1540.5 Q813.173 1540.54 812.756 1540.57 Q812.363 1540.59 811.992 1540.59 Q804.701 1540.59 800.326 1535.73 Q795.974 1530.85 795.974 1522.67 Q795.974 1514.48 800.326 1509.62 Q804.701 1504.73 811.992 1504.73 Q819.261 1504.73 823.612 1509.62 Q827.964 1514.48 827.964 1522.67 Q827.964 1528.69 825.534 1532.98 Q823.126 1537.26 818.543 1539.29 Z" fill="#000000" fill-rule="evenodd" fill-opacity="1" /><path clip-path="url(#clip590)" d="M 0 0 M837.061 1535.98 L853.381 1535.98 L853.381 1539.92 L831.437 1539.92 L831.437 1535.98 Q834.099 1533.23 838.682 1528.6 Q843.288 1523.95 844.469 1522.61 Q846.714 1520.08 847.594 1518.35 Q848.497 1516.59 848.497 1514.9 Q848.497 1512.14 846.552 1510.41 Q844.631 1508.67 841.529 1508.67 Q839.33 1508.67 836.876 1509.43 Q834.446 1510.2 831.668 1511.75 L831.668 1507.03 Q834.492 1505.89 836.946 1505.31 Q839.399 1504.73 841.436 1504.73 Q846.807 1504.73 850.001 1507.42 Q853.196 1510.11 853.196 1514.6 Q853.196 1516.73 852.385 1518.65 Q851.598 1520.54 849.492 1523.14 Q848.913 1523.81 845.811 1527.03 Q842.71 1530.22 837.061 1535.98 Z" fill="#000000" fill-rule="evenodd" fill-opacity="1" /><path clip-path="url(#clip590)" d="M 0 0 M989.291 1535.98 L1005.61 1535.98 L1005.61 1539.92 L983.666 1539.92 L983.666 1535.98 Q986.328 1533.23 990.911 1528.6 Q995.518 1523.95 996.698 1522.61 Q998.944 1520.08 999.823 1518.35 Q1000.73 1516.59 1000.73 1514.9 Q1000.73 1512.14 998.782 1510.41 Q996.86 1508.67 993.758 1508.67 Q991.559 1508.67 989.106 1509.43 Q986.675 1510.2 983.897 1511.75 L983.897 1507.03 Q986.721 1505.89 989.175 1505.31 Q991.629 1504.73 993.666 1504.73 Q999.036 1504.73 1002.23 1507.42 Q1005.42 1510.11 1005.42 1514.6 Q1005.42 1516.73 1004.61 1518.65 Q1003.83 1520.54 1001.72 1523.14 Q1001.14 1523.81 998.041 1527.03 Q994.939 1530.22 989.291 1535.98 Z" fill="#000000" fill-rule="evenodd" fill-opacity="1" /><path clip-path="url(#clip590)" d="M 0 0 M1020.68 1508.44 Q1017.07 1508.44 1015.24 1512 Q1013.43 1515.55 1013.43 1522.67 Q1013.43 1529.78 1015.24 1533.35 Q1017.07 1536.89 1020.68 1536.89 Q1024.31 1536.89 1026.12 1533.35 Q1027.95 1529.78 1027.95 1522.67 Q1027.95 1515.55 1026.12 1512 Q1024.31 1508.44 1020.68 1508.44 M1020.68 1504.73 Q1026.49 1504.73 1029.55 1509.34 Q1032.62 1513.92 1032.62 1522.67 Q1032.62 1531.4 1029.55 1536.01 Q1026.49 1540.59 1020.68 1540.59 Q1014.87 1540.59 1011.79 1536.01 Q1008.74 1531.4 1008.74 1522.67 Q1008.74 1513.92 1011.79 1509.34 Q1014.87 1504.73 1020.68 1504.73 Z" fill="#000000" fill-rule="evenodd" fill-opacity="1" /><path clip-path="url(#clip590)" d="M 0 0 M1047.69 1508.44 Q1044.08 1508.44 1042.25 1512 Q1040.45 1515.55 1040.45 1522.67 Q1040.45 1529.78 1042.25 1533.35 Q1044.08 1536.89 1047.69 1536.89 Q1051.33 1536.89 1053.13 1533.35 Q1054.96 1529.78 1054.96 1522.67 Q1054.96 1515.55 1053.13 1512 Q1051.33 1508.44 1047.69 1508.44 M1047.69 1504.73 Q1053.5 1504.73 1056.56 1509.34 Q1059.64 1513.92 1059.64 1522.67 Q1059.64 1531.4 1056.56 1536.01 Q1053.5 1540.59 1047.69 1540.59 Q1041.88 1540.59 1038.8 1536.01 Q1035.75 1531.4 1035.75 1522.67 Q1035.75 1513.92 1038.8 1509.34 Q1041.88 1504.73 1047.69 1504.73 Z" fill="#000000" fill-rule="evenodd" fill-opacity="1" /><path clip-path="url(#clip590)" d="M 0 0 M1063.53 1505.36 L1085.75 1505.36 L1085.75 1507.35 L1073.2 1539.92 L1068.32 1539.92 L1080.12 1509.3 L1063.53 1509.3 L1063.53 1505.36 Z" fill="#000000" fill-rule="evenodd" fill-opacity="1" /><path clip-path="url(#clip590)" d="M 0 0 M1104.43 1508.53 Q1099.34 1508.53 1096.33 1512.33 Q1093.34 1516.12 1093.34 1522.67 Q1093.34 1529.2 1096.33 1533 Q1099.34 1536.79 1104.43 1536.79 Q1109.52 1536.79 1112.48 1533 Q1115.47 1529.2 1115.47 1522.67 Q1115.47 1516.12 1112.48 1512.33 Q1109.52 1508.53 1104.43 1508.53 M1110.98 1539.29 L1117.14 1546.03 L1111.49 1546.03 L1106.37 1540.5 Q1105.61 1540.54 1105.19 1540.57 Q1104.8 1540.59 1104.43 1540.59 Q1097.14 1540.59 1092.76 1535.73 Q1088.41 1530.85 1088.41 1522.67 Q1088.41 1514.48 1092.76 1509.62 Q1097.14 1504.73 1104.43 1504.73 Q1111.7 1504.73 1116.05 1509.62 Q1120.4 1514.48 1120.4 1522.67 Q1120.4 1528.69 1117.97 1532.98 Q1115.56 1537.26 1110.98 1539.29 Z" fill="#000000" fill-rule="evenodd" fill-opacity="1" /><path clip-path="url(#clip590)" d="M 0 0 M1129.5 1535.98 L1145.82 1535.98 L1145.82 1539.92 L1123.87 1539.92 L1123.87 1535.98 Q1126.54 1533.23 1131.12 1528.6 Q1135.73 1523.95 1136.91 1522.61 Q1139.15 1520.08 1140.03 1518.35 Q1140.93 1516.59 1140.93 1514.9 Q1140.93 1512.14 1138.99 1510.41 Q1137.07 1508.67 1133.97 1508.67 Q1131.77 1508.67 1129.31 1509.43 Q1126.88 1510.2 1124.1 1511.75 L1124.1 1507.03 Q1126.93 1505.89 1129.38 1505.31 Q1131.84 1504.73 1133.87 1504.73 Q1139.24 1504.73 1142.44 1507.42 Q1145.63 1510.11 1145.63 1514.6 Q1145.63 1516.73 1144.82 1518.65 Q1144.04 1520.54 1141.93 1523.14 Q1141.35 1523.81 1138.25 1527.03 Q1135.15 1530.22 1129.5 1535.98 Z" fill="#000000" fill-rule="evenodd" fill-opacity="1" /><path clip-path="url(#clip590)" d="M 0 0 M1282.58 1535.98 L1298.9 1535.98 L1298.9 1539.92 L1276.96 1539.92 L1276.96 1535.98 Q1279.62 1533.23 1284.2 1528.6 Q1288.81 1523.95 1289.99 1522.61 Q1292.24 1520.08 1293.12 1518.35 Q1294.02 1516.59 1294.02 1514.9 Q1294.02 1512.14 1292.07 1510.41 Q1290.15 1508.67 1287.05 1508.67 Q1284.85 1508.67 1282.4 1509.43 Q1279.97 1510.2 1277.19 1511.75 L1277.19 1507.03 Q1280.01 1505.89 1282.47 1505.31 Q1284.92 1504.73 1286.96 1504.73 Q1292.33 1504.73 1295.52 1507.42 Q1298.72 1510.11 1298.72 1514.6 Q1298.72 1516.73 1297.91 1518.65 Q1297.12 1520.54 1295.01 1523.14 Q1294.44 1523.81 1291.33 1527.03 Q1288.23 1530.22 1282.58 1535.98 Z" fill="#000000" fill-rule="evenodd" fill-opacity="1" /><path clip-path="url(#clip590)" d="M 0 0 M1313.97 1508.44 Q1310.36 1508.44 1308.53 1512 Q1306.73 1515.55 1306.73 1522.67 Q1306.73 1529.78 1308.53 1533.35 Q1310.36 1536.89 1313.97 1536.89 Q1317.61 1536.89 1319.41 1533.35 Q1321.24 1529.78 1321.24 1522.67 Q1321.24 1515.55 1319.41 1512 Q1317.61 1508.44 1313.97 1508.44 M1313.97 1504.73 Q1319.78 1504.73 1322.84 1509.34 Q1325.92 1513.92 1325.92 1522.67 Q1325.92 1531.4 1322.84 1536.01 Q1319.78 1540.59 1313.97 1540.59 Q1308.16 1540.59 1305.08 1536.01 Q1302.03 1531.4 1302.03 1522.67 Q1302.03 1513.92 1305.08 1509.34 Q1308.16 1504.73 1313.97 1504.73 Z" fill="#000000" fill-rule="evenodd" fill-opacity="1" /><path clip-path="url(#clip590)" d="M 0 0 M1331.8 1535.98 L1339.44 1535.98 L1339.44 1509.62 L1331.13 1511.29 L1331.13 1507.03 L1339.39 1505.36 L1344.07 1505.36 L1344.07 1535.98 L1351.7 1535.98 L1351.7 1539.92 L1331.8 1539.92 L1331.8 1535.98 Z" fill="#000000" fill-rule="evenodd" fill-opacity="1" /><path clip-path="url(#clip590)" d="M 0 0 M1366.77 1508.44 Q1363.16 1508.44 1361.33 1512 Q1359.53 1515.55 1359.53 1522.67 Q1359.53 1529.78 1361.33 1533.35 Q1363.16 1536.89 1366.77 1536.89 Q1370.41 1536.89 1372.21 1533.35 Q1374.04 1529.78 1374.04 1522.67 Q1374.04 1515.55 1372.21 1512 Q1370.41 1508.44 1366.77 1508.44 M1366.77 1504.73 Q1372.58 1504.73 1375.64 1509.34 Q1378.72 1513.92 1378.72 1522.67 Q1378.72 1531.4 1375.64 1536.01 Q1372.58 1540.59 1366.77 1540.59 Q1360.96 1540.59 1357.88 1536.01 Q1354.83 1531.4 1354.83 1522.67 Q1354.83 1513.92 1357.88 1509.34 Q1360.96 1504.73 1366.77 1504.73 Z" fill="#000000" fill-rule="evenodd" fill-opacity="1" /><path clip-path="url(#clip590)" d="M 0 0 M1397.4 1508.53 Q1392.31 1508.53 1389.3 1512.33 Q1386.31 1516.12 1386.31 1522.67 Q1386.31 1529.2 1389.3 1533 Q1392.31 1536.79 1397.4 1536.79 Q1402.49 1536.79 1405.45 1533 Q1408.44 1529.2 1408.44 1522.67 Q1408.44 1516.12 1405.45 1512.33 Q1402.49 1508.53 1397.4 1508.53 M1403.95 1539.29 L1410.11 1546.03 L1404.46 1546.03 L1399.34 1540.5 Q1398.58 1540.54 1398.16 1540.57 Q1397.77 1540.59 1397.4 1540.59 Q1390.11 1540.59 1385.73 1535.73 Q1381.38 1530.85 1381.38 1522.67 Q1381.38 1514.48 1385.73 1509.62 Q1390.11 1504.73 1397.4 1504.73 Q1404.67 1504.73 1409.02 1509.62 Q1413.37 1514.48 1413.37 1522.67 Q1413.37 1528.69 1410.94 1532.98 Q1408.53 1537.26 1403.95 1539.29 Z" fill="#000000" fill-rule="evenodd" fill-opacity="1" /><path clip-path="url(#clip590)" d="M 0 0 M1422.47 1535.98 L1438.79 1535.98 L1438.79 1539.92 L1416.84 1539.92 L1416.84 1535.98 Q1419.5 1533.23 1424.09 1528.6 Q1428.69 1523.95 1429.88 1522.61 Q1432.12 1520.08 1433 1518.35 Q1433.9 1516.59 1433.9 1514.9 Q1433.9 1512.14 1431.96 1510.41 Q1430.04 1508.67 1426.94 1508.67 Q1424.74 1508.67 1422.28 1509.43 Q1419.85 1510.2 1417.07 1511.75 L1417.07 1507.03 Q1419.9 1505.89 1422.35 1505.31 Q1424.81 1504.73 1426.84 1504.73 Q1432.21 1504.73 1435.41 1507.42 Q1438.6 1510.11 1438.6 1514.6 Q1438.6 1516.73 1437.79 1518.65 Q1437 1520.54 1434.9 1523.14 Q1434.32 1523.81 1431.22 1527.03 Q1428.12 1530.22 1422.47 1535.98 Z" fill="#000000" fill-rule="evenodd" fill-opacity="1" /><path clip-path="url(#clip590)" d="M 0 0 M1576.04 1535.98 L1592.36 1535.98 L1592.36 1539.92 L1570.41 1539.92 L1570.41 1535.98 Q1573.08 1533.23 1577.66 1528.6 Q1582.27 1523.95 1583.45 1522.61 Q1585.69 1520.08 1586.57 1518.35 Q1587.47 1516.59 1587.47 1514.9 Q1587.47 1512.14 1585.53 1510.41 Q1583.61 1508.67 1580.51 1508.67 Q1578.31 1508.67 1575.85 1509.43 Q1573.42 1510.2 1570.65 1511.75 L1570.65 1507.03 Q1573.47 1505.89 1575.92 1505.31 Q1578.38 1504.73 1580.41 1504.73 Q1585.78 1504.73 1588.98 1507.42 Q1592.17 1510.11 1592.17 1514.6 Q1592.17 1516.73 1591.36 1518.65 Q1590.58 1520.54 1588.47 1523.14 Q1587.89 1523.81 1584.79 1527.03 Q1581.69 1530.22 1576.04 1535.98 Z" fill="#000000" fill-rule="evenodd" fill-opacity="1" /><path clip-path="url(#clip590)" d="M 0 0 M1607.43 1508.44 Q1603.82 1508.44 1601.99 1512 Q1600.18 1515.55 1600.18 1522.67 Q1600.18 1529.78 1601.99 1533.35 Q1603.82 1536.89 1607.43 1536.89 Q1611.06 1536.89 1612.87 1533.35 Q1614.7 1529.78 1614.7 1522.67 Q1614.7 1515.55 1612.87 1512 Q1611.06 1508.44 1607.43 1508.44 M1607.43 1504.73 Q1613.24 1504.73 1616.29 1509.34 Q1619.37 1513.92 1619.37 1522.67 Q1619.37 1531.4 1616.29 1536.01 Q1613.24 1540.59 1607.43 1540.59 Q1601.62 1540.59 1598.54 1536.01 Q1595.48 1531.4 1595.48 1522.67 Q1595.48 1513.92 1598.54 1509.34 Q1601.62 1504.73 1607.43 1504.73 Z" fill="#000000" fill-rule="evenodd" fill-opacity="1" /><path clip-path="url(#clip590)" d="M 0 0 M1625.25 1535.98 L1632.89 1535.98 L1632.89 1509.62 L1624.58 1511.29 L1624.58 1507.03 L1632.84 1505.36 L1637.52 1505.36 L1637.52 1535.98 L1645.16 1535.98 L1645.16 1539.92 L1625.25 1539.92 L1625.25 1535.98 Z" fill="#000000" fill-rule="evenodd" fill-opacity="1" /><path clip-path="url(#clip590)" d="M 0 0 M1664.4 1521.29 Q1667.75 1522 1669.63 1524.27 Q1671.53 1526.54 1671.53 1529.87 Q1671.53 1534.99 1668.01 1537.79 Q1664.49 1540.59 1658.01 1540.59 Q1655.83 1540.59 1653.52 1540.15 Q1651.22 1539.73 1648.77 1538.88 L1648.77 1534.36 Q1650.72 1535.5 1653.03 1536.08 Q1655.34 1536.66 1657.87 1536.66 Q1662.27 1536.66 1664.56 1534.92 Q1666.87 1533.18 1666.87 1529.87 Q1666.87 1526.82 1664.72 1525.11 Q1662.59 1523.37 1658.77 1523.37 L1654.74 1523.37 L1654.74 1519.53 L1658.96 1519.53 Q1662.4 1519.53 1664.23 1518.16 Q1666.06 1516.77 1666.06 1514.18 Q1666.06 1511.52 1664.16 1510.11 Q1662.29 1508.67 1658.77 1508.67 Q1656.85 1508.67 1654.65 1509.09 Q1652.45 1509.5 1649.81 1510.38 L1649.81 1506.22 Q1652.47 1505.48 1654.79 1505.11 Q1657.13 1504.73 1659.19 1504.73 Q1664.51 1504.73 1667.61 1507.17 Q1670.72 1509.57 1670.72 1513.69 Q1670.72 1516.56 1669.07 1518.55 Q1667.43 1520.52 1664.4 1521.29 Z" fill="#000000" fill-rule="evenodd" fill-opacity="1" /><path clip-path="url(#clip590)" d="M 0 0 M1690.21 1508.53 Q1685.11 1508.53 1682.1 1512.33 Q1679.12 1516.12 1679.12 1522.67 Q1679.12 1529.2 1682.1 1533 Q1685.11 1536.79 1690.21 1536.79 Q1695.3 1536.79 1698.26 1533 Q1701.25 1529.2 1701.25 1522.67 Q1701.25 1516.12 1698.26 1512.33 Q1695.3 1508.53 1690.21 1508.53 M1696.76 1539.29 L1702.91 1546.03 L1697.27 1546.03 L1692.15 1540.5 Q1691.39 1540.54 1690.97 1540.57 Q1690.58 1540.59 1690.21 1540.59 Q1682.91 1540.59 1678.54 1535.73 Q1674.19 1530.85 1674.19 1522.67 Q1674.19 1514.48 1678.54 1509.62 Q1682.91 1504.73 1690.21 1504.73 Q1697.47 1504.73 1701.83 1509.62 Q1706.18 1514.48 1706.18 1522.67 Q1706.18 1528.69 1703.75 1532.98 Q1701.34 1537.26 1696.76 1539.29 Z" fill="#000000" fill-rule="evenodd" fill-opacity="1" /><path clip-path="url(#clip590)" d="M 0 0 M1715.28 1535.98 L1731.59 1535.98 L1731.59 1539.92 L1709.65 1539.92 L1709.65 1535.98 Q1712.31 1533.23 1716.9 1528.6 Q1721.5 1523.95 1722.68 1522.61 Q1724.93 1520.08 1725.81 1518.35 Q1726.71 1516.59 1726.71 1514.9 Q1726.71 1512.14 1724.77 1510.41 Q1722.84 1508.67 1719.74 1508.67 Q1717.54 1508.67 1715.09 1509.43 Q1712.66 1510.2 1709.88 1511.75 L1709.88 1507.03 Q1712.71 1505.89 1715.16 1505.31 Q1717.61 1504.73 1719.65 1504.73 Q1725.02 1504.73 1728.21 1507.42 Q1731.41 1510.11 1731.41 1514.6 Q1731.41 1516.73 1730.6 1518.65 Q1729.81 1520.54 1727.71 1523.14 Q1727.13 1523.81 1724.02 1527.03 Q1720.92 1530.22 1715.28 1535.98 Z" fill="#000000" fill-rule="evenodd" fill-opacity="1" /><path clip-path="url(#clip590)" d="M 0 0 M1868.77 1535.98 L1885.09 1535.98 L1885.09 1539.92 L1863.14 1539.92 L1863.14 1535.98 Q1865.8 1533.23 1870.39 1528.6 Q1874.99 1523.95 1876.17 1522.61 Q1878.42 1520.08 1879.3 1518.35 Q1880.2 1516.59 1880.2 1514.9 Q1880.2 1512.14 1878.26 1510.41 Q1876.34 1508.67 1873.23 1508.67 Q1871.03 1508.67 1868.58 1509.43 Q1866.15 1510.2 1863.37 1511.75 L1863.37 1507.03 Q1866.2 1505.89 1868.65 1505.31 Q1871.1 1504.73 1873.14 1504.73 Q1878.51 1504.73 1881.71 1507.42 Q1884.9 1510.11 1884.9 1514.6 Q1884.9 1516.73 1884.09 1518.65 Q1883.3 1520.54 1881.2 1523.14 Q1880.62 1523.81 1877.52 1527.03 Q1874.41 1530.22 1868.77 1535.98 Z" fill="#000000" fill-rule="evenodd" fill-opacity="1" /><path clip-path="url(#clip590)" d="M 0 0 M1900.15 1508.44 Q1896.54 1508.44 1894.71 1512 Q1892.91 1515.55 1892.91 1522.67 Q1892.91 1529.78 1894.71 1533.35 Q1896.54 1536.89 1900.15 1536.89 Q1903.79 1536.89 1905.59 1533.35 Q1907.42 1529.78 1907.42 1522.67 Q1907.42 1515.55 1905.59 1512 Q1903.79 1508.44 1900.15 1508.44 M1900.15 1504.73 Q1905.96 1504.73 1909.02 1509.34 Q1912.1 1513.92 1912.1 1522.67 Q1912.1 1531.4 1909.02 1536.01 Q1905.96 1540.59 1900.15 1540.59 Q1894.34 1540.59 1891.27 1536.01 Q1888.21 1531.4 1888.21 1522.67 Q1888.21 1513.92 1891.27 1509.34 Q1894.34 1504.73 1900.15 1504.73 Z" fill="#000000" fill-rule="evenodd" fill-opacity="1" /><path clip-path="url(#clip590)" d="M 0 0 M1917.98 1535.98 L1925.62 1535.98 L1925.62 1509.62 L1917.31 1511.29 L1917.31 1507.03 L1925.57 1505.36 L1930.25 1505.36 L1930.25 1535.98 L1937.89 1535.98 L1937.89 1539.92 L1917.98 1539.92 L1917.98 1535.98 Z" fill="#000000" fill-rule="evenodd" fill-opacity="1" /><path clip-path="url(#clip590)" d="M 0 0 M1953.53 1520.78 Q1950.39 1520.78 1948.53 1522.93 Q1946.71 1525.08 1946.71 1528.83 Q1946.71 1532.56 1948.53 1534.73 Q1950.39 1536.89 1953.53 1536.89 Q1956.68 1536.89 1958.51 1534.73 Q1960.36 1532.56 1960.36 1528.83 Q1960.36 1525.08 1958.51 1522.93 Q1956.68 1520.78 1953.53 1520.78 M1962.82 1506.12 L1962.82 1510.38 Q1961.06 1509.55 1959.25 1509.11 Q1957.47 1508.67 1955.71 1508.67 Q1951.08 1508.67 1948.63 1511.8 Q1946.2 1514.92 1945.85 1521.24 Q1947.21 1519.23 1949.27 1518.16 Q1951.33 1517.07 1953.81 1517.07 Q1959.02 1517.07 1962.03 1520.24 Q1965.06 1523.39 1965.06 1528.83 Q1965.06 1534.16 1961.91 1537.37 Q1958.77 1540.59 1953.53 1540.59 Q1947.54 1540.59 1944.37 1536.01 Q1941.2 1531.4 1941.2 1522.67 Q1941.2 1514.48 1945.08 1509.62 Q1948.97 1504.73 1955.52 1504.73 Q1957.28 1504.73 1959.07 1505.08 Q1960.87 1505.43 1962.82 1506.12 Z" fill="#000000" fill-rule="evenodd" fill-opacity="1" /><path clip-path="url(#clip590)" d="M 0 0 M1983.74 1508.53 Q1978.65 1508.53 1975.64 1512.33 Q1972.65 1516.12 1972.65 1522.67 Q1972.65 1529.2 1975.64 1533 Q1978.65 1536.79 1983.74 1536.79 Q1988.83 1536.79 1991.8 1533 Q1994.78 1529.2 1994.78 1522.67 Q1994.78 1516.12 1991.8 1512.33 Q1988.83 1508.53 1983.74 1508.53 M1990.29 1539.29 L1996.45 1546.03 L1990.8 1546.03 L1985.69 1540.5 Q1984.92 1540.54 1984.51 1540.57 Q1984.11 1540.59 1983.74 1540.59 Q1976.45 1540.59 1972.08 1535.73 Q1967.72 1530.85 1967.72 1522.67 Q1967.72 1514.48 1972.08 1509.62 Q1976.45 1504.73 1983.74 1504.73 Q1991.01 1504.73 1995.36 1509.62 Q1999.71 1514.48 1999.71 1522.67 Q1999.71 1528.69 1997.28 1532.98 Q1994.88 1537.26 1990.29 1539.29 Z" fill="#000000" fill-rule="evenodd" fill-opacity="1" /><path clip-path="url(#clip590)" d="M 0 0 M2008.81 1535.98 L2025.13 1535.98 L2025.13 1539.92 L2003.19 1539.92 L2003.19 1535.98 Q2005.85 1533.23 2010.43 1528.6 Q2015.04 1523.95 2016.22 1522.61 Q2018.46 1520.08 2019.34 1518.35 Q2020.25 1516.59 2020.25 1514.9 Q2020.25 1512.14 2018.3 1510.41 Q2016.38 1508.67 2013.28 1508.67 Q2011.08 1508.67 2008.63 1509.43 Q2006.2 1510.2 2003.42 1511.75 L2003.42 1507.03 Q2006.24 1505.89 2008.7 1505.31 Q2011.15 1504.73 2013.19 1504.73 Q2018.56 1504.73 2021.75 1507.42 Q2024.95 1510.11 2024.95 1514.6 Q2024.95 1516.73 2024.14 1518.65 Q2023.35 1520.54 2021.24 1523.14 Q2020.66 1523.81 2017.56 1527.03 Q2014.46 1530.22 2008.81 1535.98 Z" fill="#000000" fill-rule="evenodd" fill-opacity="1" /><path clip-path="url(#clip590)" d="M 0 0 M63.3625 1488.84 L75.8393 1488.84 L75.8393 1492.64 L63.3625 1492.64 L63.3625 1488.84 Z" fill="#000000" fill-rule="evenodd" fill-opacity="1" /><path clip-path="url(#clip590)" d="M 0 0 M84.9365 1499.79 L101.256 1499.79 L101.256 1503.73 L79.3115 1503.73 L79.3115 1499.79 Q81.9735 1497.04 86.5568 1492.41 Q91.1633 1487.76 92.3438 1486.41 Q94.5892 1483.89 95.4688 1482.15 Q96.3716 1480.39 96.3716 1478.7 Q96.3716 1475.95 94.4271 1474.21 Q92.5059 1472.48 89.404 1472.48 Q87.205 1472.48 84.7513 1473.24 Q82.3207 1474.01 79.543 1475.56 L79.543 1470.83 Q82.367 1469.7 84.8207 1469.12 Q87.2744 1468.54 89.3114 1468.54 Q94.6818 1468.54 97.8762 1471.23 Q101.071 1473.91 101.071 1478.4 Q101.071 1480.53 100.26 1482.45 Q99.4734 1484.35 97.3669 1486.95 Q96.7882 1487.62 93.6864 1490.83 Q90.5846 1494.03 84.9365 1499.79 Z" fill="#000000" fill-rule="evenodd" fill-opacity="1" /><path clip-path="url(#clip590)" d="M 0 0 M62.9921 1291.66 L75.4689 1291.66 L75.4689 1295.46 L62.9921 1295.46 L62.9921 1291.66 Z" fill="#000000" fill-rule="evenodd" fill-opacity="1" /><path clip-path="url(#clip590)" d="M 0 0 M81.3485 1302.61 L88.9874 1302.61 L88.9874 1276.25 L80.6772 1277.91 L80.6772 1273.66 L88.9411 1271.99 L93.617 1271.99 L93.617 1302.61 L101.256 1302.61 L101.256 1306.55 L81.3485 1306.55 L81.3485 1302.61 Z" fill="#000000" fill-rule="evenodd" fill-opacity="1" /><path clip-path="url(#clip590)" d="M 0 0 M89.3114 1077.89 Q85.7003 1077.89 83.8716 1081.45 Q82.0661 1084.99 82.0661 1092.12 Q82.0661 1099.23 83.8716 1102.8 Q85.7003 1106.34 89.3114 1106.34 Q92.9457 1106.34 94.7512 1102.8 Q96.5799 1099.23 96.5799 1092.12 Q96.5799 1084.99 94.7512 1081.45 Q92.9457 1077.89 89.3114 1077.89 M89.3114 1074.18 Q95.1216 1074.18 98.1771 1078.79 Q101.256 1083.37 101.256 1092.12 Q101.256 1100.85 98.1771 1105.46 Q95.1216 1110.04 89.3114 1110.04 Q83.5013 1110.04 80.4226 1105.46 Q77.367 1100.85 77.367 1092.12 Q77.367 1083.37 80.4226 1078.79 Q83.5013 1074.18 89.3114 1074.18 Z" fill="#000000" fill-rule="evenodd" fill-opacity="1" /><path clip-path="url(#clip590)" d="M 0 0 M81.3485 908.255 L88.9874 908.255 L88.9874 881.889 L80.6772 883.556 L80.6772 879.296 L88.9411 877.63 L93.617 877.63 L93.617 908.255 L101.256 908.255 L101.256 912.19 L81.3485 912.19 L81.3485 908.255 Z" fill="#000000" fill-rule="evenodd" fill-opacity="1" /><path clip-path="url(#clip590)" d="M 0 0 M84.9365 711.075 L101.256 711.075 L101.256 715.01 L79.3115 715.01 L79.3115 711.075 Q81.9735 708.321 86.5568 703.691 Q91.1633 699.038 92.3438 697.696 Q94.5892 695.172 95.4688 693.436 Q96.3716 691.677 96.3716 689.987 Q96.3716 687.233 94.4271 685.497 Q92.5059 683.76 89.404 683.76 Q87.205 683.76 84.7513 684.524 Q82.3207 685.288 79.543 686.839 L79.543 682.117 Q82.367 680.983 84.8207 680.404 Q87.2744 679.825 89.3114 679.825 Q94.6818 679.825 97.8762 682.51 Q101.071 685.196 101.071 689.686 Q101.071 691.816 100.26 693.737 Q99.4734 695.635 97.3669 698.228 Q96.7882 698.899 93.6864 702.117 Q90.5846 705.311 84.9365 711.075 Z" fill="#000000" fill-rule="evenodd" fill-opacity="1" /><path clip-path="url(#clip590)" d="M 0 0 M94.1262 499.197 Q97.4827 499.914 99.3577 502.183 Q101.256 504.451 101.256 507.785 Q101.256 512.9 97.7373 515.701 Q94.2188 518.502 87.7374 518.502 Q85.5614 518.502 83.2466 518.062 Q80.955 517.646 78.5013 516.789 L78.5013 512.275 Q80.4457 513.41 82.7605 513.988 Q85.0753 514.567 87.5985 514.567 Q91.9966 514.567 94.2883 512.831 Q96.6031 511.095 96.6031 507.785 Q96.6031 504.729 94.4503 503.016 Q92.3207 501.28 88.5012 501.28 L84.4735 501.28 L84.4735 497.438 L88.6864 497.438 Q92.1355 497.438 93.9642 496.072 Q95.7929 494.683 95.7929 492.09 Q95.7929 489.428 93.8947 488.016 Q92.0197 486.581 88.5012 486.581 Q86.58 486.581 84.3809 486.998 Q82.1818 487.414 79.543 488.294 L79.543 484.127 Q82.205 483.387 84.5198 483.016 Q86.8577 482.646 88.9179 482.646 Q94.242 482.646 97.3438 485.076 Q100.446 487.484 100.446 491.604 Q100.446 494.475 98.8021 496.465 Q97.1586 498.433 94.1262 499.197 Z" fill="#000000" fill-rule="evenodd" fill-opacity="1" /><path clip-path="url(#clip590)" d="M 0 0 M91.6725 290.166 L79.867 308.615 L91.6725 308.615 L91.6725 290.166 M90.4457 286.092 L96.3253 286.092 L96.3253 308.615 L101.256 308.615 L101.256 312.503 L96.3253 312.503 L96.3253 320.652 L91.6725 320.652 L91.6725 312.503 L76.0708 312.503 L76.0708 307.99 L90.4457 286.092 Z" fill="#000000" fill-rule="evenodd" fill-opacity="1" /><path clip-path="url(#clip590)" d="M 0 0 M80.3531 88.9121 L98.7095 88.9121 L98.7095 92.8473 L84.6355 92.8473 L84.6355 101.319 Q85.654 100.972 86.6726 100.81 Q87.6911 100.625 88.7096 100.625 Q94.4966 100.625 97.8762 103.796 Q101.256 106.968 101.256 112.384 Q101.256 117.963 97.7836 121.065 Q94.3114 124.143 87.992 124.143 Q85.8161 124.143 83.5476 123.773 Q81.3022 123.403 78.8948 122.662 L78.8948 117.963 Q80.9781 119.097 83.2004 119.653 Q85.4226 120.208 87.8994 120.208 Q91.904 120.208 94.242 118.102 Q96.5799 115.995 96.5799 112.384 Q96.5799 108.773 94.242 106.667 Q91.904 104.56 87.8994 104.56 Q86.0244 104.56 84.1494 104.977 Q82.2976 105.394 80.3531 106.273 L80.3531 88.9121 Z" fill="#000000" fill-rule="evenodd" fill-opacity="1" /><path clip-path="url(#clip590)" d="M 0 0 M690.08 8.64 L714.906 8.64 L714.906 13.559 L695.925 13.559 L695.925 26.2904 L713.054 26.2904 L713.054 31.2093 L695.925 31.2093 L695.925 51.84 L690.08 51.84 L690.08 8.64 Z" fill="#000000" fill-rule="evenodd" fill-opacity="1" /><path clip-path="url(#clip590)" d="M 0 0 M716.179 19.4328 L721.503 19.4328 L721.503 51.84 L716.179 51.84 L716.179 19.4328 M716.179 6.81709 L721.503 6.81709 L721.503 13.559 L716.179 13.559 L716.179 6.81709 Z" fill="#000000" fill-rule="evenodd" fill-opacity="1" /><path clip-path="url(#clip590)" d="M 0 0 M748.413 35.2602 Q748.413 29.4732 746.011 26.2904 Q743.639 23.1075 739.327 23.1075 Q735.045 23.1075 732.643 26.2904 Q730.271 29.4732 730.271 35.2602 Q730.271 41.0183 732.643 44.2012 Q735.045 47.384 739.327 47.384 Q743.639 47.384 746.011 44.2012 Q748.413 41.0183 748.413 35.2602 M753.737 47.818 Q753.737 56.0934 750.062 60.1154 Q746.387 64.1663 738.806 64.1663 Q736 64.1663 733.511 63.7323 Q731.023 63.3272 728.679 62.4592 L728.679 57.2798 Q731.023 58.5529 733.309 59.1606 Q735.595 59.7682 737.967 59.7682 Q743.205 59.7682 745.809 57.0194 Q748.413 54.2995 748.413 48.7729 L748.413 46.1398 Q746.764 49.0044 744.188 50.4222 Q741.613 51.84 738.025 51.84 Q732.065 51.84 728.419 47.2972 Q724.773 42.7544 724.773 35.2602 Q724.773 27.7371 728.419 23.1943 Q732.065 18.6515 738.025 18.6515 Q741.613 18.6515 744.188 20.0693 Q746.764 21.4872 748.413 24.3517 L748.413 19.4328 L753.737 19.4328 L753.737 47.818 Z" fill="#000000" fill-rule="evenodd" fill-opacity="1" /><path clip-path="url(#clip590)" d="M 0 0 M758.772 39.0507 L758.772 19.4328 L764.096 19.4328 L764.096 38.8482 Q764.096 43.4488 765.89 45.7636 Q767.684 48.0495 771.272 48.0495 Q775.583 48.0495 778.071 45.3007 Q780.589 42.5519 780.589 37.8065 L780.589 19.4328 L785.913 19.4328 L785.913 51.84 L780.589 51.84 L780.589 46.8632 Q778.65 49.8145 776.075 51.2613 Q773.529 52.6791 770.143 52.6791 Q764.559 52.6791 761.665 49.2069 Q758.772 45.7347 758.772 39.0507 M772.169 18.6515 L772.169 18.6515 Z" fill="#000000" fill-rule="evenodd" fill-opacity="1" /><path clip-path="url(#clip590)" d="M 0 0 M810.276 24.4096 Q809.379 23.8888 808.308 23.6573 Q807.267 23.3969 805.994 23.3969 Q801.48 23.3969 799.049 26.3482 Q796.648 29.2707 796.648 34.7683 L796.648 51.84 L791.295 51.84 L791.295 19.4328 L796.648 19.4328 L796.648 24.4675 Q798.326 21.5161 801.017 20.0983 Q803.708 18.6515 807.556 18.6515 Q808.106 18.6515 808.771 18.7383 Q809.437 18.7962 810.247 18.9409 L810.276 24.4096 Z" fill="#000000" fill-rule="evenodd" fill-opacity="1" /><path clip-path="url(#clip590)" d="M 0 0 M842.278 34.3054 L842.278 36.9095 L817.799 36.9095 Q818.146 42.4072 821.098 45.3007 Q824.078 48.1653 829.373 48.1653 Q832.44 48.1653 835.305 47.4129 Q838.198 46.6606 841.034 45.156 L841.034 50.1907 Q838.169 51.406 835.16 52.0425 Q832.151 52.6791 829.055 52.6791 Q821.3 52.6791 816.757 48.1653 Q812.244 43.6514 812.244 35.9547 Q812.244 27.9975 816.526 23.339 Q820.837 18.6515 828.129 18.6515 Q834.668 18.6515 838.459 22.876 Q842.278 27.0716 842.278 34.3054 M836.954 32.7429 Q836.896 28.3737 834.495 25.7695 Q832.122 23.1654 828.187 23.1654 Q823.731 23.1654 821.04 25.6827 Q818.378 28.2001 817.973 32.7718 L836.954 32.7429 Z" fill="#000000" fill-rule="evenodd" fill-opacity="1" /><path clip-path="url(#clip590)" d="M 0 0 M868.464 46.921 L878.013 46.921 L878.013 13.964 L867.625 16.0474 L867.625 10.7233 L877.955 8.64 L883.8 8.64 L883.8 46.921 L893.348 46.921 L893.348 51.84 L868.464 51.84 L868.464 46.921 Z" fill="#000000" fill-rule="evenodd" fill-opacity="1" /><path clip-path="url(#clip590)" d="M 0 0 M900.293 44.4905 L906.398 44.4905 L906.398 51.84 L900.293 51.84 L900.293 44.4905 M900.293 21.1978 L906.398 21.1978 L906.398 28.5473 L900.293 28.5473 L900.293 21.1978 Z" fill="#000000" fill-rule="evenodd" fill-opacity="1" /><path clip-path="url(#clip590)" d="M 0 0 M931.051 8.64 L958.365 8.64 L958.365 13.559 L936.896 13.559 L936.896 26.3482 L957.468 26.3482 L957.468 31.2672 L936.896 31.2672 L936.896 46.921 L958.886 46.921 L958.886 51.84 L931.051 51.84 L931.051 8.64 Z" fill="#000000" fill-rule="evenodd" fill-opacity="1" /><path clip-path="url(#clip590)" d="M 0 0 M960.651 19.4328 L966.294 19.4328 L976.421 46.6317 L986.548 19.4328 L992.191 19.4328 L980.038 51.84 L972.804 51.84 L960.651 19.4328 Z" fill="#000000" fill-rule="evenodd" fill-opacity="1" /><path clip-path="url(#clip590)" d="M 0 0 M1010.33 23.1654 Q1006.05 23.1654 1003.56 26.5218 Q1001.07 29.8494 1001.07 35.6653 Q1001.07 41.4813 1003.53 44.8377 Q1006.02 48.1653 1010.33 48.1653 Q1014.59 48.1653 1017.07 44.8088 Q1019.56 41.4523 1019.56 35.6653 Q1019.56 29.9072 1017.07 26.5508 Q1014.59 23.1654 1010.33 23.1654 M1010.33 18.6515 Q1017.28 18.6515 1021.24 23.1654 Q1025.21 27.6792 1025.21 35.6653 Q1025.21 43.6225 1021.24 48.1653 Q1017.28 52.6791 1010.33 52.6791 Q1003.36 52.6791 999.395 48.1653 Q995.46 43.6225 995.46 35.6653 Q995.46 27.6792 999.395 23.1654 Q1003.36 18.6515 1010.33 18.6515 Z" fill="#000000" fill-rule="evenodd" fill-opacity="1" /><path clip-path="url(#clip590)" d="M 0 0 M1030.79 6.81709 L1036.11 6.81709 L1036.11 51.84 L1030.79 51.84 L1030.79 6.81709 Z" fill="#000000" fill-rule="evenodd" fill-opacity="1" /><path clip-path="url(#clip590)" d="M 0 0 M1041.15 39.0507 L1041.15 19.4328 L1046.47 19.4328 L1046.47 38.8482 Q1046.47 43.4488 1048.27 45.7636 Q1050.06 48.0495 1053.65 48.0495 Q1057.96 48.0495 1060.45 45.3007 Q1062.97 42.5519 1062.97 37.8065 L1062.97 19.4328 L1068.29 19.4328 L1068.29 51.84 L1062.97 51.84 L1062.97 46.8632 Q1061.03 49.8145 1058.45 51.2613 Q1055.91 52.6791 1052.52 52.6791 Q1046.94 52.6791 1044.04 49.2069 Q1041.15 45.7347 1041.15 39.0507 M1054.55 18.6515 L1054.55 18.6515 Z" fill="#000000" fill-rule="evenodd" fill-opacity="1" /><path clip-path="url(#clip590)" d="M 0 0 M1079.14 10.2314 L1079.14 19.4328 L1090.11 19.4328 L1090.11 23.5705 L1079.14 23.5705 L1079.14 41.163 Q1079.14 45.1271 1080.21 46.2555 Q1081.31 47.384 1084.64 47.384 L1090.11 47.384 L1090.11 51.84 L1084.64 51.84 Q1078.47 51.84 1076.13 49.5541 Q1073.79 47.2393 1073.79 41.163 L1073.79 23.5705 L1069.88 23.5705 L1069.88 19.4328 L1073.79 19.4328 L1073.79 10.2314 L1079.14 10.2314 Z" fill="#000000" fill-rule="evenodd" fill-opacity="1" /><path clip-path="url(#clip590)" d="M 0 0 M1095.69 19.4328 L1101.02 19.4328 L1101.02 51.84 L1095.69 51.84 L1095.69 19.4328 M1095.69 6.81709 L1101.02 6.81709 L1101.02 13.559 L1095.69 13.559 L1095.69 6.81709 Z" fill="#000000" fill-rule="evenodd" fill-opacity="1" /><path clip-path="url(#clip590)" d="M 0 0 M1119.16 23.1654 Q1114.88 23.1654 1112.39 26.5218 Q1109.9 29.8494 1109.9 35.6653 Q1109.9 41.4813 1112.36 44.8377 Q1114.85 48.1653 1119.16 48.1653 Q1123.41 48.1653 1125.9 44.8088 Q1128.39 41.4523 1128.39 35.6653 Q1128.39 29.9072 1125.9 26.5508 Q1123.41 23.1654 1119.16 23.1654 M1119.16 18.6515 Q1126.1 18.6515 1130.07 23.1654 Q1134.03 27.6792 1134.03 35.6653 Q1134.03 43.6225 1130.07 48.1653 Q1126.1 52.6791 1119.16 52.6791 Q1112.18 52.6791 1108.22 48.1653 Q1104.28 43.6225 1104.28 35.6653 Q1104.28 27.6792 1108.22 23.1654 Q1112.18 18.6515 1119.16 18.6515 Z" fill="#000000" fill-rule="evenodd" fill-opacity="1" /><path clip-path="url(#clip590)" d="M 0 0 M1166.55 32.2799 L1166.55 51.84 L1161.23 51.84 L1161.23 32.4535 Q1161.23 27.8529 1159.43 25.567 Q1157.64 23.2811 1154.05 23.2811 Q1149.74 23.2811 1147.25 26.03 Q1144.76 28.7788 1144.76 33.5241 L1144.76 51.84 L1139.41 51.84 L1139.41 19.4328 L1144.76 19.4328 L1144.76 24.4675 Q1146.67 21.545 1149.25 20.0983 Q1151.85 18.6515 1155.24 18.6515 Q1160.82 18.6515 1163.69 22.1237 Q1166.55 25.567 1166.55 32.2799 Z" fill="#000000" fill-rule="evenodd" fill-opacity="1" /><path clip-path="url(#clip590)" d="M 0 0 M1203.53 23.1654 Q1199.25 23.1654 1196.76 26.5218 Q1194.27 29.8494 1194.27 35.6653 Q1194.27 41.4813 1196.73 44.8377 Q1199.22 48.1653 1203.53 48.1653 Q1207.79 48.1653 1210.27 44.8088 Q1212.76 41.4523 1212.76 35.6653 Q1212.76 29.9072 1210.27 26.5508 Q1207.79 23.1654 1203.53 23.1654 M1203.53 18.6515 Q1210.48 18.6515 1214.44 23.1654 Q1218.4 27.6792 1218.4 35.6653 Q1218.4 43.6225 1214.44 48.1653 Q1210.48 52.6791 1203.53 52.6791 Q1196.56 52.6791 1192.59 48.1653 Q1188.66 43.6225 1188.66 35.6653 Q1188.66 27.6792 1192.59 23.1654 Q1196.56 18.6515 1203.53 18.6515 Z" fill="#000000" fill-rule="evenodd" fill-opacity="1" /><path clip-path="url(#clip590)" d="M 0 0 M1240.4 6.81709 L1240.4 11.2442 L1235.3 11.2442 Q1232.44 11.2442 1231.31 12.4016 Q1230.21 13.559 1230.21 16.5682 L1230.21 19.4328 L1238.98 19.4328 L1238.98 23.5705 L1230.21 23.5705 L1230.21 51.84 L1224.86 51.84 L1224.86 23.5705 L1219.76 23.5705 L1219.76 19.4328 L1224.86 19.4328 L1224.86 17.1758 Q1224.86 11.765 1227.37 9.30551 Q1229.89 6.81709 1235.36 6.81709 L1240.4 6.81709 Z" fill="#000000" fill-rule="evenodd" fill-opacity="1" /><path clip-path="url(#clip590)" d="M 0 0 M1290.05 25.6538 Q1292.04 22.0659 1294.82 20.3587 Q1297.6 18.6515 1301.36 18.6515 Q1306.42 18.6515 1309.17 22.2105 Q1311.92 25.7406 1311.92 32.2799 L1311.92 51.84 L1306.57 51.84 L1306.57 32.4535 Q1306.57 27.795 1304.92 25.5381 Q1303.27 23.2811 1299.89 23.2811 Q1295.75 23.2811 1293.35 26.03 Q1290.94 28.7788 1290.94 33.5241 L1290.94 51.84 L1285.59 51.84 L1285.59 32.4535 Q1285.59 27.7661 1283.94 25.5381 Q1282.29 23.2811 1278.85 23.2811 Q1274.77 23.2811 1272.37 26.0589 Q1269.97 28.8077 1269.97 33.5241 L1269.97 51.84 L1264.61 51.84 L1264.61 19.4328 L1269.97 19.4328 L1269.97 24.4675 Q1271.79 21.4872 1274.34 20.0693 Q1276.88 18.6515 1280.38 18.6515 Q1283.91 18.6515 1286.37 20.4455 Q1288.86 22.2395 1290.05 25.6538 Z" fill="#000000" fill-rule="evenodd" fill-opacity="1" /><path clip-path="url(#clip590)" d="M 0 0 M1332.23 35.5496 Q1325.78 35.5496 1323.29 37.0253 Q1320.81 38.501 1320.81 42.06 Q1320.81 44.8956 1322.66 46.5738 Q1324.54 48.2231 1327.75 48.2231 Q1332.18 48.2231 1334.84 45.0981 Q1337.53 41.9442 1337.53 36.7359 L1337.53 35.5496 L1332.23 35.5496 M1342.85 33.3505 L1342.85 51.84 L1337.53 51.84 L1337.53 46.921 Q1335.71 49.8724 1332.99 51.2902 Q1330.27 52.6791 1326.33 52.6791 Q1321.36 52.6791 1318.4 49.9014 Q1315.48 47.0947 1315.48 42.4072 Q1315.48 36.9385 1319.13 34.1607 Q1322.8 31.3829 1330.06 31.3829 L1337.53 31.3829 L1337.53 30.8621 Q1337.53 27.1874 1335.1 25.1908 Q1332.7 23.1654 1328.33 23.1654 Q1325.55 23.1654 1322.92 23.8309 Q1320.28 24.4964 1317.85 25.8274 L1317.85 20.9085 Q1320.78 19.78 1323.53 19.2302 Q1326.27 18.6515 1328.88 18.6515 Q1335.91 18.6515 1339.38 22.2973 Q1342.85 25.9431 1342.85 33.3505 Z" fill="#000000" fill-rule="evenodd" fill-opacity="1" /><path clip-path="url(#clip590)" d="M 0 0 M1371.76 20.677 L1371.76 25.6538 Q1369.5 24.4096 1367.22 23.802 Q1364.96 23.1654 1362.65 23.1654 Q1357.47 23.1654 1354.6 26.464 Q1351.74 29.7336 1351.74 35.6653 Q1351.74 41.597 1354.6 44.8956 Q1357.47 48.1653 1362.65 48.1653 Q1364.96 48.1653 1367.22 47.5576 Q1369.5 46.921 1371.76 45.6768 L1371.76 50.5958 Q1369.53 51.6375 1367.13 52.1583 Q1364.76 52.6791 1362.07 52.6791 Q1354.75 52.6791 1350.44 48.0784 Q1346.12 43.4778 1346.12 35.6653 Q1346.12 27.7371 1350.46 23.1943 Q1354.83 18.6515 1362.41 18.6515 Q1364.87 18.6515 1367.22 19.1724 Q1369.56 19.6642 1371.76 20.677 Z" fill="#000000" fill-rule="evenodd" fill-opacity="1" /><path clip-path="url(#clip590)" d="M 0 0 M1396.12 24.4096 Q1395.23 23.8888 1394.16 23.6573 Q1393.11 23.3969 1391.84 23.3969 Q1387.33 23.3969 1384.9 26.3482 Q1382.5 29.2707 1382.5 34.7683 L1382.5 51.84 L1377.14 51.84 L1377.14 19.4328 L1382.5 19.4328 L1382.5 24.4675 Q1384.17 21.5161 1386.86 20.0983 Q1389.56 18.6515 1393.4 18.6515 Q1393.95 18.6515 1394.62 18.7383 Q1395.28 18.7962 1396.09 18.9409 L1396.12 24.4096 Z" fill="#000000" fill-rule="evenodd" fill-opacity="1" /><path clip-path="url(#clip590)" d="M 0 0 M1412.96 23.1654 Q1408.68 23.1654 1406.19 26.5218 Q1403.7 29.8494 1403.7 35.6653 Q1403.7 41.4813 1406.16 44.8377 Q1408.65 48.1653 1412.96 48.1653 Q1417.22 48.1653 1419.71 44.8088 Q1422.19 41.4523 1422.19 35.6653 Q1422.19 29.9072 1419.71 26.5508 Q1417.22 23.1654 1412.96 23.1654 M1412.96 18.6515 Q1419.91 18.6515 1423.87 23.1654 Q1427.84 27.6792 1427.84 35.6653 Q1427.84 43.6225 1423.87 48.1653 Q1419.91 52.6791 1412.96 52.6791 Q1405.99 52.6791 1402.03 48.1653 Q1398.09 43.6225 1398.09 35.6653 Q1398.09 27.6792 1402.03 23.1654 Q1405.99 18.6515 1412.96 18.6515 Z" fill="#000000" fill-rule="evenodd" fill-opacity="1" /><path clip-path="url(#clip590)" d="M 0 0 M1448.44 19.4328 L1454.08 19.4328 L1464.21 46.6317 L1474.33 19.4328 L1479.98 19.4328 L1467.82 51.84 L1460.59 51.84 L1448.44 19.4328 Z" fill="#000000" fill-rule="evenodd" fill-opacity="1" /><path clip-path="url(#clip590)" d="M 0 0 M1500.29 35.5496 Q1493.84 35.5496 1491.35 37.0253 Q1488.86 38.501 1488.86 42.06 Q1488.86 44.8956 1490.71 46.5738 Q1492.59 48.2231 1495.8 48.2231 Q1500.23 48.2231 1502.89 45.0981 Q1505.58 41.9442 1505.58 36.7359 L1505.58 35.5496 L1500.29 35.5496 M1510.91 33.3505 L1510.91 51.84 L1505.58 51.84 L1505.58 46.921 Q1503.76 49.8724 1501.04 51.2902 Q1498.32 52.6791 1494.39 52.6791 Q1489.41 52.6791 1486.46 49.9014 Q1483.54 47.0947 1483.54 42.4072 Q1483.54 36.9385 1487.18 34.1607 Q1490.86 31.3829 1498.12 31.3829 L1505.58 31.3829 L1505.58 30.8621 Q1505.58 27.1874 1503.15 25.1908 Q1500.75 23.1654 1496.38 23.1654 Q1493.61 23.1654 1490.97 23.8309 Q1488.34 24.4964 1485.91 25.8274 L1485.91 20.9085 Q1488.83 19.78 1491.58 19.2302 Q1494.33 18.6515 1496.93 18.6515 Q1503.96 18.6515 1507.44 22.2973 Q1510.91 25.9431 1510.91 33.3505 Z" fill="#000000" fill-rule="evenodd" fill-opacity="1" /><path clip-path="url(#clip590)" d="M 0 0 M1535.27 24.4096 Q1534.38 23.8888 1533.3 23.6573 Q1532.26 23.3969 1530.99 23.3969 Q1526.48 23.3969 1524.05 26.3482 Q1521.64 29.2707 1521.64 34.7683 L1521.64 51.84 L1516.29 51.84 L1516.29 19.4328 L1521.64 19.4328 L1521.64 24.4675 Q1523.32 21.5161 1526.01 20.0983 Q1528.7 18.6515 1532.55 18.6515 Q1533.1 18.6515 1533.77 18.7383 Q1534.43 18.7962 1535.24 18.9409 L1535.27 24.4096 Z" fill="#000000" fill-rule="evenodd" fill-opacity="1" /><path clip-path="url(#clip590)" d="M 0 0 M1540.86 19.4328 L1546.18 19.4328 L1546.18 51.84 L1540.86 51.84 L1540.86 19.4328 M1540.86 6.81709 L1546.18 6.81709 L1546.18 13.559 L1540.86 13.559 L1540.86 6.81709 Z" fill="#000000" fill-rule="evenodd" fill-opacity="1" /><path clip-path="url(#clip590)" d="M 0 0 M1566.49 35.5496 Q1560.04 35.5496 1557.55 37.0253 Q1555.06 38.501 1555.06 42.06 Q1555.06 44.8956 1556.92 46.5738 Q1558.8 48.2231 1562.01 48.2231 Q1566.44 48.2231 1569.1 45.0981 Q1571.79 41.9442 1571.79 36.7359 L1571.79 35.5496 L1566.49 35.5496 M1577.11 33.3505 L1577.11 51.84 L1571.79 51.84 L1571.79 46.921 Q1569.97 49.8724 1567.25 51.2902 Q1564.53 52.6791 1560.59 52.6791 Q1555.61 52.6791 1552.66 49.9014 Q1549.74 47.0947 1549.74 42.4072 Q1549.74 36.9385 1553.39 34.1607 Q1557.06 31.3829 1564.32 31.3829 L1571.79 31.3829 L1571.79 30.8621 Q1571.79 27.1874 1569.36 25.1908 Q1566.96 23.1654 1562.59 23.1654 Q1559.81 23.1654 1557.18 23.8309 Q1554.54 24.4964 1552.11 25.8274 L1552.11 20.9085 Q1555.03 19.78 1557.78 19.2302 Q1560.53 18.6515 1563.14 18.6515 Q1570.17 18.6515 1573.64 22.2973 Q1577.11 25.9431 1577.11 33.3505 Z" fill="#000000" fill-rule="evenodd" fill-opacity="1" /><path clip-path="url(#clip590)" d="M 0 0 M1605.96 35.6653 Q1605.96 29.7915 1603.53 26.464 Q1601.13 23.1075 1596.9 23.1075 Q1592.68 23.1075 1590.25 26.464 Q1587.85 29.7915 1587.85 35.6653 Q1587.85 41.5391 1590.25 44.8956 Q1592.68 48.2231 1596.9 48.2231 Q1601.13 48.2231 1603.53 44.8956 Q1605.96 41.5391 1605.96 35.6653 M1587.85 24.3517 Q1589.53 21.4582 1592.07 20.0693 Q1594.65 18.6515 1598.21 18.6515 Q1604.11 18.6515 1607.78 23.339 Q1611.49 28.0265 1611.49 35.6653 Q1611.49 43.3042 1607.78 47.9916 Q1604.11 52.6791 1598.21 52.6791 Q1594.65 52.6791 1592.07 51.2902 Q1589.53 49.8724 1587.85 46.9789 L1587.85 51.84 L1582.49 51.84 L1582.49 6.81709 L1587.85 6.81709 L1587.85 24.3517 Z" fill="#000000" fill-rule="evenodd" fill-opacity="1" /><path clip-path="url(#clip590)" d="M 0 0 M1617.07 6.81709 L1622.4 6.81709 L1622.4 51.84 L1617.07 51.84 L1617.07 6.81709 Z" fill="#000000" fill-rule="evenodd" fill-opacity="1" /><path clip-path="url(#clip590)" d="M 0 0 M1655.7 34.3054 L1655.7 36.9095 L1631.22 36.9095 Q1631.57 42.4072 1634.52 45.3007 Q1637.5 48.1653 1642.79 48.1653 Q1645.86 48.1653 1648.73 47.4129 Q1651.62 46.6606 1654.46 45.156 L1654.46 50.1907 Q1651.59 51.406 1648.58 52.0425 Q1645.57 52.6791 1642.48 52.6791 Q1634.72 52.6791 1630.18 48.1653 Q1625.67 43.6514 1625.67 35.9547 Q1625.67 27.9975 1629.95 23.339 Q1634.26 18.6515 1641.55 18.6515 Q1648.09 18.6515 1651.88 22.876 Q1655.7 27.0716 1655.7 34.3054 M1650.38 32.7429 Q1650.32 28.3737 1647.92 25.7695 Q1645.54 23.1654 1641.61 23.1654 Q1637.15 23.1654 1634.46 25.6827 Q1631.8 28.2001 1631.39 32.7718 L1650.38 32.7429 Z" fill="#000000" fill-rule="evenodd" fill-opacity="1" /><path clip-path="url(#clip590)" d="M 0 0 M1681.94 20.3876 L1681.94 25.4223 Q1679.69 24.2649 1677.26 23.6862 Q1674.83 23.1075 1672.22 23.1075 Q1668.26 23.1075 1666.26 24.3228 Q1664.29 25.5381 1664.29 27.9686 Q1664.29 29.8204 1665.71 30.891 Q1667.13 31.9327 1671.41 32.8876 L1673.23 33.2926 Q1678.91 34.5079 1681.28 36.7359 Q1683.68 38.935 1683.68 42.8991 Q1683.68 47.4129 1680.09 50.046 Q1676.53 52.6791 1670.28 52.6791 Q1667.68 52.6791 1664.84 52.1583 Q1662.04 51.6664 1658.91 50.6537 L1658.91 45.156 Q1661.86 46.6896 1664.73 47.4708 Q1667.59 48.2231 1670.4 48.2231 Q1674.16 48.2231 1676.19 46.95 Q1678.21 45.6479 1678.21 43.3042 Q1678.21 41.134 1676.74 39.9766 Q1675.29 38.8192 1670.34 37.7486 L1668.49 37.3146 Q1663.54 36.273 1661.34 34.1318 Q1659.14 31.9616 1659.14 28.2001 Q1659.14 23.6283 1662.38 21.1399 Q1665.62 18.6515 1671.59 18.6515 Q1674.54 18.6515 1677.14 19.0855 Q1679.74 19.5196 1681.94 20.3876 Z" fill="#000000" fill-rule="evenodd" fill-opacity="1" /><polyline clip-path="url(#clip592)" style="stroke:#000000; stroke-width:4; stroke-opacity:1; fill:none" stroke-dasharray="16, 10" points="
  185.348,1014.61 209.775,953.308 234.203,944 258.631,917.247 283.058,909.13 307.486,855.966 331.913,822.544 356.341,832.918 380.769,861.127 405.196,941.905 
  429.624,948.634 454.051,999.504 478.479,1000.84 502.907,1051.21 527.334,1009.93 551.762,952.346 576.19,892.565 600.617,926.054 625.045,975.951 649.472,956.948 
  673.9,934.585 698.328,815.57 722.755,816.05 747.183,887.122 771.61,872.269 796.038,888.844 820.466,895.172 844.893,860.483 869.321,864.52 893.749,860.201 
  918.176,843.285 942.604,807.64 967.031,875.379 991.459,885.42 1015.89,815.022 1040.31,815.689 1064.74,843.157 1089.17,889.396 1113.6,812.356 1138.02,934.876 
  1162.45,995.837 1186.88,1096.68 1211.31,1349.67 1235.74,1398.54 1260.16,894.772 1284.59,847.41 1309.02,815.473 1333.45,853.024 1357.87,810.099 1382.3,845.164 
  1406.73,846.268 1431.16,921.966 1455.58,912.983 1480.01,920.104 1504.44,926.707 1528.87,926.779 1553.29,975.836 1577.72,949.67 1602.15,984.748 1626.58,911.489 
  1651,912.393 1675.43,890.871 1699.86,922.274 1724.29,948.507 1748.71,937.953 1773.14,899.254 1797.57,925.186 1822,904.633 1846.43,930.424 1870.85,946.053 
  1895.28,965.295 1919.71,923.918 1944.14,940.462 1968.56,948.921 1992.99,892.475 2017.42,907.92 2041.85,902.813 2066.27,890.282 2090.7,890.359 2115.13,924.211 
  2139.56,938.637 2163.98,954.896 2188.41,970.755 
  "/>
<polyline clip-path="url(#clip592)" style="stroke:#808080; stroke-width:10; stroke-opacity:1; fill:none" stroke-dasharray="5, 10" points="
  185.348,919.228 209.775,935.003 234.203,856.46 258.631,828.855 283.058,796.977 307.486,795.663 331.913,802.893 356.341,830.498 380.769,863.361 405.196,914.628 
  429.624,920.543 454.051,866.647 478.479,726.321 502.907,653.036 527.334,521.255 551.762,478.533 576.19,473.603 600.617,511.724 625.045,485.105 649.472,513.368 
  673.9,576.794 698.328,521.255 722.755,533.414 747.183,572.521 771.61,534.729 796.038,597.497 820.466,674.397 844.893,747.354 869.321,793.362 893.749,843.643 
  918.176,859.746 942.604,909.698 967.031,911.67 991.459,959.322 1015.89,990.213 1040.31,989.556 1064.74,969.509 1089.17,938.618 1113.6,893.595 1138.02,739.795 
  1162.45,608.671 1186.88,572.85 1211.31,270.508 1235.74,300.414 1260.16,322.761 1284.59,450.927 1309.02,480.176 1333.45,485.434 1357.87,502.194 1382.3,540.973 
  1406.73,527.499 1431.16,507.124 1455.58,524.541 1480.01,561.677 1504.44,581.394 1528.87,589.61 1553.29,605.056 1577.72,625.76 1602.15,656.98 1626.58,632.004 
  1651,626.746 1675.43,567.592 1699.86,572.521 1724.29,594.868 1748.71,626.088 1773.14,633.647 1797.57,634.633 1822,659.28 1846.43,627.732 1870.85,588.624 
  1895.28,573.507 1919.71,604.399 1944.14,668.811 1968.56,711.533 1992.99,678.998 2017.42,701.674 2041.85,742.424 2066.27,778.574 2090.7,789.747 2115.13,794.02 
  2139.56,792.376 2163.98,807.165 2188.41,804.207 
  "/>
<path clip-path="url(#clip590)" d="
M197.256 1342.45 L727.167 1342.45 L727.167 1161.01 L197.256 1161.01  Z
  " fill="#ffffff" fill-rule="evenodd" fill-opacity="1"/>
<polyline clip-path="url(#clip590)" style="stroke:#000000; stroke-width:4; stroke-opacity:0; fill:none" points="
  197.256,1342.45 727.167,1342.45 727.167,1161.01 197.256,1161.01 197.256,1342.45 
  "/>
<polyline clip-path="url(#clip590)" style="stroke:#000000; stroke-width:3; stroke-opacity:1; fill:none" stroke-dasharray="12, 8" points="
  221.256,1206.37 365.256,1206.37 
  "/>
<path clip-path="url(#clip590)" d="M 0 0 M408.422 1215.63 L408.422 1208.67 L402.693 1208.67 L402.693 1205.79 L411.895 1205.79 L411.895 1216.91 Q409.863 1218.36 407.415 1219.1 Q404.968 1219.83 402.19 1219.83 Q396.113 1219.83 392.676 1216.29 Q389.256 1212.73 389.256 1206.39 Q389.256 1200.04 392.676 1196.5 Q396.113 1192.94 402.19 1192.94 Q404.724 1192.94 406.999 1193.56 Q409.29 1194.19 411.217 1195.4 L411.217 1199.14 Q409.273 1197.49 407.086 1196.65 Q404.898 1195.82 402.485 1195.82 Q397.728 1195.82 395.332 1198.48 Q392.954 1201.13 392.954 1206.39 Q392.954 1211.64 395.332 1214.29 Q397.728 1216.95 402.485 1216.95 Q404.343 1216.95 405.801 1216.64 Q407.259 1216.31 408.422 1215.63 Z" fill="#000000" fill-rule="evenodd" fill-opacity="1" /><path clip-path="url(#clip590)" d="M 0 0 M418.717 1216.38 L430.957 1216.38 L430.957 1219.33 L414.499 1219.33 L414.499 1216.38 Q416.495 1214.31 419.933 1210.84 Q423.388 1207.35 424.273 1206.34 Q425.957 1204.45 426.617 1203.15 Q427.294 1201.83 427.294 1200.56 Q427.294 1198.49 425.835 1197.19 Q424.395 1195.89 422.068 1195.89 Q420.419 1195.89 418.579 1196.46 Q416.756 1197.04 414.672 1198.2 L414.672 1194.66 Q416.79 1193.81 418.631 1193.37 Q420.471 1192.94 421.999 1192.94 Q426.026 1192.94 428.422 1194.95 Q430.818 1196.97 430.818 1200.33 Q430.818 1201.93 430.21 1203.37 Q429.62 1204.8 428.04 1206.74 Q427.606 1207.24 425.28 1209.66 Q422.954 1212.05 418.717 1216.38 Z" fill="#000000" fill-rule="evenodd" fill-opacity="1" /><path clip-path="url(#clip590)" d="M 0 0 M442.259 1195.72 Q439.551 1195.72 438.179 1198.39 Q436.825 1201.05 436.825 1206.39 Q436.825 1211.72 438.179 1214.4 Q439.551 1217.05 442.259 1217.05 Q444.985 1217.05 446.339 1214.4 Q447.71 1211.72 447.71 1206.39 Q447.71 1201.05 446.339 1198.39 Q444.985 1195.72 442.259 1195.72 M442.259 1192.94 Q446.617 1192.94 448.908 1196.39 Q451.217 1199.83 451.217 1206.39 Q451.217 1212.94 448.908 1216.39 Q446.617 1219.83 442.259 1219.83 Q437.901 1219.83 435.592 1216.39 Q433.301 1212.94 433.301 1206.39 Q433.301 1199.83 435.592 1196.39 Q437.901 1192.94 442.259 1192.94 Z" fill="#000000" fill-rule="evenodd" fill-opacity="1" /><path clip-path="url(#clip590)" d="M 0 0 M473.405 1202.12 Q470.835 1202.12 469.342 1204.14 Q467.849 1206.13 467.849 1209.62 Q467.849 1213.11 469.325 1215.13 Q470.818 1217.12 473.405 1217.12 Q475.957 1217.12 477.45 1215.11 Q478.943 1213.1 478.943 1209.62 Q478.943 1206.17 477.45 1204.15 Q475.957 1202.12 473.405 1202.12 M473.405 1199.41 Q477.571 1199.41 479.95 1202.12 Q482.328 1204.83 482.328 1209.62 Q482.328 1214.4 479.95 1217.12 Q477.571 1219.83 473.405 1219.83 Q469.221 1219.83 466.842 1217.12 Q464.481 1214.4 464.481 1209.62 Q464.481 1204.83 466.842 1202.12 Q469.221 1199.41 473.405 1199.41 Z" fill="#000000" fill-rule="evenodd" fill-opacity="1" /><path clip-path="url(#clip590)" d="M 0 0 M485.349 1211.65 L485.349 1199.88 L488.543 1199.88 L488.543 1211.53 Q488.543 1214.29 489.62 1215.68 Q490.696 1217.05 492.849 1217.05 Q495.436 1217.05 496.929 1215.4 Q498.439 1213.75 498.439 1210.91 L498.439 1199.88 L501.634 1199.88 L501.634 1219.33 L498.439 1219.33 L498.439 1216.34 Q497.276 1218.11 495.731 1218.98 Q494.203 1219.83 492.172 1219.83 Q488.821 1219.83 487.085 1217.75 Q485.349 1215.66 485.349 1211.65 M493.387 1199.41 L493.387 1199.41 Z" fill="#000000" fill-rule="evenodd" fill-opacity="1" /><path clip-path="url(#clip590)" d="M 0 0 M508.144 1194.36 L508.144 1199.88 L514.724 1199.88 L514.724 1202.37 L508.144 1202.37 L508.144 1212.92 Q508.144 1215.3 508.786 1215.98 Q509.446 1216.65 511.443 1216.65 L514.724 1216.65 L514.724 1219.33 L511.443 1219.33 Q507.745 1219.33 506.339 1217.96 Q504.932 1216.57 504.932 1212.92 L504.932 1202.37 L502.589 1202.37 L502.589 1199.88 L504.932 1199.88 L504.932 1194.36 L508.144 1194.36 Z" fill="#000000" fill-rule="evenodd" fill-opacity="1" /><path clip-path="url(#clip590)" d="M 0 0 M521.165 1216.41 L521.165 1226.72 L517.953 1226.72 L517.953 1199.88 L521.165 1199.88 L521.165 1202.83 Q522.172 1201.1 523.7 1200.27 Q525.245 1199.41 527.38 1199.41 Q530.922 1199.41 533.127 1202.23 Q535.349 1205.04 535.349 1209.62 Q535.349 1214.21 533.127 1217.02 Q530.922 1219.83 527.38 1219.83 Q525.245 1219.83 523.7 1219 Q522.172 1218.15 521.165 1216.41 M532.033 1209.62 Q532.033 1206.1 530.574 1204.1 Q529.134 1202.09 526.599 1202.09 Q524.064 1202.09 522.606 1204.1 Q521.165 1206.1 521.165 1209.62 Q521.165 1213.15 522.606 1215.16 Q524.064 1217.16 526.599 1217.16 Q529.134 1217.16 530.574 1215.16 Q532.033 1213.15 532.033 1209.62 Z" fill="#000000" fill-rule="evenodd" fill-opacity="1" /><path clip-path="url(#clip590)" d="M 0 0 M538.37 1211.65 L538.37 1199.88 L541.564 1199.88 L541.564 1211.53 Q541.564 1214.29 542.64 1215.68 Q543.717 1217.05 545.87 1217.05 Q548.456 1217.05 549.949 1215.4 Q551.46 1213.75 551.46 1210.91 L551.46 1199.88 L554.654 1199.88 L554.654 1219.33 L551.46 1219.33 L551.46 1216.34 Q550.297 1218.11 548.751 1218.98 Q547.224 1219.83 545.192 1219.83 Q541.842 1219.83 540.106 1217.75 Q538.37 1215.66 538.37 1211.65 M546.408 1199.41 L546.408 1199.41 Z" fill="#000000" fill-rule="evenodd" fill-opacity="1" /><path clip-path="url(#clip590)" d="M 0 0 M561.165 1194.36 L561.165 1199.88 L567.744 1199.88 L567.744 1202.37 L561.165 1202.37 L561.165 1212.92 Q561.165 1215.3 561.807 1215.98 Q562.467 1216.65 564.463 1216.65 L567.744 1216.65 L567.744 1219.33 L564.463 1219.33 Q560.765 1219.33 559.359 1217.96 Q557.953 1216.57 557.953 1212.92 L557.953 1202.37 L555.609 1202.37 L555.609 1199.88 L557.953 1199.88 L557.953 1194.36 L561.165 1194.36 Z" fill="#000000" fill-rule="evenodd" fill-opacity="1" /><polyline clip-path="url(#clip590)" style="stroke:#808080; stroke-width:3; stroke-opacity:1; fill:none" stroke-dasharray="2, 3" points="
  221.256,1251.73 365.256,1251.73 
  "/>
<path clip-path="url(#clip590)" d="M 0 0 M392.763 1252.31 L392.763 1261.81 L398.388 1261.81 Q401.218 1261.81 402.572 1260.64 Q403.943 1259.46 403.943 1257.05 Q403.943 1254.62 402.572 1253.47 Q401.218 1252.31 398.388 1252.31 L392.763 1252.31 M392.763 1241.65 L392.763 1249.46 L397.954 1249.46 Q400.523 1249.46 401.773 1248.51 Q403.04 1247.54 403.04 1245.56 Q403.04 1243.59 401.773 1242.62 Q400.523 1241.65 397.954 1241.65 L392.763 1241.65 M389.256 1238.77 L398.214 1238.77 Q402.224 1238.77 404.395 1240.43 Q406.565 1242.1 406.565 1245.17 Q406.565 1247.55 405.454 1248.96 Q404.343 1250.37 402.19 1250.71 Q404.777 1251.27 406.2 1253.04 Q407.641 1254.79 407.641 1257.43 Q407.641 1260.9 405.28 1262.8 Q402.919 1264.69 398.561 1264.69 L389.256 1264.69 L389.256 1238.77 Z" fill="#000000" fill-rule="evenodd" fill-opacity="1" /><path clip-path="url(#clip590)" d="M 0 0 M419.794 1242.22 L415.037 1255.12 L424.568 1255.12 L419.794 1242.22 M417.815 1238.77 L421.79 1238.77 L431.669 1264.69 L428.023 1264.69 L425.662 1258.04 L413.978 1258.04 L411.617 1264.69 L407.919 1264.69 L417.815 1238.77 Z" fill="#000000" fill-rule="evenodd" fill-opacity="1" /><path clip-path="url(#clip590)" d="M 0 0 M444.811 1242.22 L440.054 1255.12 L449.585 1255.12 L444.811 1242.22 M442.832 1238.77 L446.808 1238.77 L456.686 1264.69 L453.04 1264.69 L450.679 1258.04 L438.995 1258.04 L436.634 1264.69 L432.936 1264.69 L442.832 1238.77 Z" fill="#000000" fill-rule="evenodd" fill-opacity="1" /><path clip-path="url(#clip590)" d="M 0 0 M483.734 1245.82 L483.734 1248.84 Q482.38 1248.14 480.922 1247.8 Q479.464 1247.45 477.901 1247.45 Q475.523 1247.45 474.325 1248.18 Q473.144 1248.91 473.144 1250.37 Q473.144 1251.48 473.995 1252.12 Q474.846 1252.74 477.415 1253.32 L478.509 1253.56 Q481.912 1254.29 483.335 1255.63 Q484.776 1256.94 484.776 1259.32 Q484.776 1262.03 482.623 1263.61 Q480.488 1265.19 476.738 1265.19 Q475.175 1265.19 473.474 1264.88 Q471.79 1264.58 469.915 1263.98 L469.915 1260.68 Q471.686 1261.6 473.405 1262.07 Q475.123 1262.52 476.807 1262.52 Q479.064 1262.52 480.28 1261.75 Q481.495 1260.97 481.495 1259.57 Q481.495 1258.26 480.609 1257.57 Q479.741 1256.88 476.773 1256.23 L475.662 1255.97 Q472.693 1255.35 471.373 1254.06 Q470.054 1252.76 470.054 1250.5 Q470.054 1247.76 471.998 1246.27 Q473.943 1244.77 477.519 1244.77 Q479.29 1244.77 480.853 1245.04 Q482.415 1245.3 483.734 1245.82 Z" fill="#000000" fill-rule="evenodd" fill-opacity="1" /><path clip-path="url(#clip590)" d="M 0 0 M491.217 1261.77 L491.217 1272.08 L488.005 1272.08 L488.005 1245.24 L491.217 1245.24 L491.217 1248.19 Q492.224 1246.46 493.752 1245.63 Q495.297 1244.77 497.432 1244.77 Q500.974 1244.77 503.179 1247.59 Q505.401 1250.4 505.401 1254.98 Q505.401 1259.57 503.179 1262.38 Q500.974 1265.19 497.432 1265.19 Q495.297 1265.19 493.752 1264.36 Q492.224 1263.51 491.217 1261.77 M502.085 1254.98 Q502.085 1251.46 500.627 1249.46 Q499.186 1247.45 496.651 1247.45 Q494.116 1247.45 492.658 1249.46 Q491.217 1251.46 491.217 1254.98 Q491.217 1258.51 492.658 1260.52 Q494.116 1262.52 496.651 1262.52 Q499.186 1262.52 500.627 1260.52 Q502.085 1258.51 502.085 1254.98 Z" fill="#000000" fill-rule="evenodd" fill-opacity="1" /><path clip-path="url(#clip590)" d="M 0 0 M520.019 1248.23 Q519.481 1247.92 518.838 1247.78 Q518.213 1247.62 517.45 1247.62 Q514.741 1247.62 513.283 1249.39 Q511.842 1251.15 511.842 1254.44 L511.842 1264.69 L508.63 1264.69 L508.63 1245.24 L511.842 1245.24 L511.842 1248.26 Q512.849 1246.49 514.463 1245.64 Q516.078 1244.77 518.387 1244.77 Q518.717 1244.77 519.116 1244.83 Q519.516 1244.86 520.002 1244.95 L520.019 1248.23 Z" fill="#000000" fill-rule="evenodd" fill-opacity="1" /><path clip-path="url(#clip590)" d="M 0 0 M539.22 1254.17 L539.22 1255.73 L524.533 1255.73 Q524.741 1259.03 526.512 1260.76 Q528.3 1262.48 531.477 1262.48 Q533.318 1262.48 535.036 1262.03 Q536.772 1261.58 538.474 1260.68 L538.474 1263.7 Q536.755 1264.43 534.949 1264.81 Q533.144 1265.19 531.286 1265.19 Q526.634 1265.19 523.908 1262.48 Q521.2 1259.77 521.2 1255.16 Q521.2 1250.38 523.769 1247.59 Q526.356 1244.77 530.731 1244.77 Q534.654 1244.77 536.929 1247.31 Q539.22 1249.83 539.22 1254.17 M536.026 1253.23 Q535.991 1250.61 534.55 1249.05 Q533.127 1247.48 530.765 1247.48 Q528.092 1247.48 526.477 1248.99 Q524.88 1250.5 524.637 1253.25 L536.026 1253.23 Z" fill="#000000" fill-rule="evenodd" fill-opacity="1" /><path clip-path="url(#clip590)" d="M 0 0 M551.408 1254.91 Q547.536 1254.91 546.043 1255.8 Q544.55 1256.68 544.55 1258.82 Q544.55 1260.52 545.661 1261.53 Q546.79 1262.52 548.717 1262.52 Q551.373 1262.52 552.97 1260.64 Q554.585 1258.75 554.585 1255.63 L554.585 1254.91 L551.408 1254.91 M557.779 1253.59 L557.779 1264.69 L554.585 1264.69 L554.585 1261.74 Q553.491 1263.51 551.859 1264.36 Q550.227 1265.19 547.866 1265.19 Q544.88 1265.19 543.109 1263.52 Q541.356 1261.84 541.356 1259.03 Q541.356 1255.75 543.543 1254.08 Q545.748 1252.41 550.106 1252.41 L554.585 1252.41 L554.585 1252.1 Q554.585 1249.9 553.126 1248.7 Q551.685 1247.48 549.064 1247.48 Q547.397 1247.48 545.817 1247.88 Q544.238 1248.28 542.779 1249.08 L542.779 1246.13 Q544.533 1245.45 546.182 1245.12 Q547.831 1244.77 549.394 1244.77 Q553.613 1244.77 555.696 1246.96 Q557.779 1249.15 557.779 1253.59 Z" fill="#000000" fill-rule="evenodd" fill-opacity="1" /><path clip-path="url(#clip590)" d="M 0 0 M573.925 1248.19 L573.925 1237.67 L577.119 1237.67 L577.119 1264.69 L573.925 1264.69 L573.925 1261.77 Q572.918 1263.51 571.373 1264.36 Q569.845 1265.19 567.692 1265.19 Q564.168 1265.19 561.946 1262.38 Q559.741 1259.57 559.741 1254.98 Q559.741 1250.4 561.946 1247.59 Q564.168 1244.77 567.692 1244.77 Q569.845 1244.77 571.373 1245.63 Q572.918 1246.46 573.925 1248.19 M563.04 1254.98 Q563.04 1258.51 564.481 1260.52 Q565.939 1262.52 568.474 1262.52 Q571.008 1262.52 572.467 1260.52 Q573.925 1258.51 573.925 1254.98 Q573.925 1251.46 572.467 1249.46 Q571.008 1247.45 568.474 1247.45 Q565.939 1247.45 564.481 1249.46 Q563.04 1251.46 563.04 1254.98 Z" fill="#000000" fill-rule="evenodd" fill-opacity="1" /><polyline clip-path="url(#clip590)" style="stroke:#ff0000; stroke-width:3; stroke-opacity:1; fill:none" points="
  221.256,1297.09 365.256,1297.09 
  "/>
<path clip-path="url(#clip590)" d="M 0 0 M410.158 1286.12 L410.158 1289.82 Q408.388 1288.17 406.374 1287.36 Q404.377 1286.54 402.12 1286.54 Q397.676 1286.54 395.315 1289.27 Q392.954 1291.98 392.954 1297.11 Q392.954 1302.24 395.315 1304.96 Q397.676 1307.67 402.12 1307.67 Q404.377 1307.67 406.374 1306.85 Q408.388 1306.04 410.158 1304.39 L410.158 1308.05 Q408.318 1309.3 406.252 1309.93 Q404.204 1310.55 401.912 1310.55 Q396.027 1310.55 392.641 1306.96 Q389.256 1303.35 389.256 1297.11 Q389.256 1290.86 392.641 1287.27 Q396.027 1283.66 401.912 1283.66 Q404.238 1283.66 406.287 1284.28 Q408.353 1284.89 410.158 1286.12 Z" fill="#000000" fill-rule="evenodd" fill-opacity="1" /><path clip-path="url(#clip590)" d="M 0 0 M421.044 1292.84 Q418.474 1292.84 416.981 1294.86 Q415.488 1296.85 415.488 1300.34 Q415.488 1303.83 416.964 1305.85 Q418.457 1307.84 421.044 1307.84 Q423.596 1307.84 425.089 1305.83 Q426.582 1303.82 426.582 1300.34 Q426.582 1296.89 425.089 1294.87 Q423.596 1292.84 421.044 1292.84 M421.044 1290.13 Q425.21 1290.13 427.589 1292.84 Q429.967 1295.55 429.967 1300.34 Q429.967 1305.12 427.589 1307.84 Q425.21 1310.55 421.044 1310.55 Q416.86 1310.55 414.481 1307.84 Q412.12 1305.12 412.12 1300.34 Q412.12 1295.55 414.481 1292.84 Q416.86 1290.13 421.044 1290.13 Z" fill="#000000" fill-rule="evenodd" fill-opacity="1" /><path clip-path="url(#clip590)" d="M 0 0 M448.457 1294.34 Q449.655 1292.18 451.321 1291.16 Q452.988 1290.13 455.245 1290.13 Q458.283 1290.13 459.933 1292.27 Q461.582 1294.39 461.582 1298.31 L461.582 1310.05 L458.37 1310.05 L458.37 1298.42 Q458.37 1295.62 457.38 1294.27 Q456.391 1292.91 454.36 1292.91 Q451.877 1292.91 450.436 1294.56 Q448.995 1296.21 448.995 1299.06 L448.995 1310.05 L445.783 1310.05 L445.783 1298.42 Q445.783 1295.6 444.794 1294.27 Q443.804 1292.91 441.738 1292.91 Q439.29 1292.91 437.849 1294.58 Q436.408 1296.23 436.408 1299.06 L436.408 1310.05 L433.197 1310.05 L433.197 1290.6 L436.408 1290.6 L436.408 1293.62 Q437.502 1291.84 439.03 1290.99 Q440.558 1290.13 442.658 1290.13 Q444.776 1290.13 446.252 1291.21 Q447.745 1292.29 448.457 1294.34 Z" fill="#000000" fill-rule="evenodd" fill-opacity="1" /><path clip-path="url(#clip590)" d="M 0 0 M480.071 1294.34 Q481.269 1292.18 482.936 1291.16 Q484.603 1290.13 486.859 1290.13 Q489.898 1290.13 491.547 1292.27 Q493.196 1294.39 493.196 1298.31 L493.196 1310.05 L489.984 1310.05 L489.984 1298.42 Q489.984 1295.62 488.995 1294.27 Q488.005 1292.91 485.974 1292.91 Q483.491 1292.91 482.05 1294.56 Q480.609 1296.21 480.609 1299.06 L480.609 1310.05 L477.398 1310.05 L477.398 1298.42 Q477.398 1295.6 476.408 1294.27 Q475.419 1292.91 473.353 1292.91 Q470.905 1292.91 469.464 1294.58 Q468.023 1296.23 468.023 1299.06 L468.023 1310.05 L464.811 1310.05 L464.811 1290.6 L468.023 1290.6 L468.023 1293.62 Q469.116 1291.84 470.644 1290.99 Q472.172 1290.13 474.273 1290.13 Q476.391 1290.13 477.866 1291.21 Q479.359 1292.29 480.071 1294.34 Z" fill="#000000" fill-rule="evenodd" fill-opacity="1" /><path clip-path="url(#clip590)" d="M 0 0 M504.082 1292.84 Q501.512 1292.84 500.019 1294.86 Q498.526 1296.85 498.526 1300.34 Q498.526 1303.83 500.002 1305.85 Q501.495 1307.84 504.082 1307.84 Q506.634 1307.84 508.127 1305.83 Q509.62 1303.82 509.62 1300.34 Q509.62 1296.89 508.127 1294.87 Q506.634 1292.84 504.082 1292.84 M504.082 1290.13 Q508.248 1290.13 510.627 1292.84 Q513.005 1295.55 513.005 1300.34 Q513.005 1305.12 510.627 1307.84 Q508.248 1310.55 504.082 1310.55 Q499.898 1310.55 497.519 1307.84 Q495.158 1305.12 495.158 1300.34 Q495.158 1295.55 497.519 1292.84 Q499.898 1290.13 504.082 1290.13 Z" fill="#000000" fill-rule="evenodd" fill-opacity="1" /><path clip-path="url(#clip590)" d="M 0 0 M529.151 1293.55 L529.151 1283.03 L532.345 1283.03 L532.345 1310.05 L529.151 1310.05 L529.151 1307.13 Q528.144 1308.87 526.599 1309.72 Q525.071 1310.55 522.918 1310.55 Q519.394 1310.55 517.172 1307.74 Q514.967 1304.93 514.967 1300.34 Q514.967 1295.76 517.172 1292.95 Q519.394 1290.13 522.918 1290.13 Q525.071 1290.13 526.599 1290.99 Q528.144 1291.82 529.151 1293.55 M518.266 1300.34 Q518.266 1303.87 519.706 1305.88 Q521.165 1307.88 523.7 1307.88 Q526.234 1307.88 527.693 1305.88 Q529.151 1303.87 529.151 1300.34 Q529.151 1296.82 527.693 1294.82 Q526.234 1292.81 523.7 1292.81 Q521.165 1292.81 519.706 1294.82 Q518.266 1296.82 518.266 1300.34 Z" fill="#000000" fill-rule="evenodd" fill-opacity="1" /><path clip-path="url(#clip590)" d="M 0 0 M535.696 1290.6 L538.89 1290.6 L538.89 1310.05 L535.696 1310.05 L535.696 1290.6 M535.696 1283.03 L538.89 1283.03 L538.89 1287.08 L535.696 1287.08 L535.696 1283.03 Z" fill="#000000" fill-rule="evenodd" fill-opacity="1" /><path clip-path="url(#clip590)" d="M 0 0 M545.401 1285.08 L545.401 1290.6 L551.981 1290.6 L551.981 1293.09 L545.401 1293.09 L545.401 1303.64 Q545.401 1306.02 546.043 1306.7 Q546.703 1307.37 548.699 1307.37 L551.981 1307.37 L551.981 1310.05 L548.699 1310.05 Q545.002 1310.05 543.595 1308.68 Q542.189 1307.29 542.189 1303.64 L542.189 1293.09 L539.845 1293.09 L539.845 1290.6 L542.189 1290.6 L542.189 1285.08 L545.401 1285.08 Z" fill="#000000" fill-rule="evenodd" fill-opacity="1" /><path clip-path="url(#clip590)" d="M 0 0 M563.422 1311.85 Q562.067 1315.33 560.783 1316.38 Q559.498 1317.44 557.345 1317.44 L554.793 1317.44 L554.793 1314.77 L556.668 1314.77 Q557.988 1314.77 558.717 1314.15 Q559.446 1313.52 560.331 1311.19 L560.904 1309.74 L553.04 1290.6 L556.425 1290.6 L562.501 1305.81 L568.578 1290.6 L571.963 1290.6 L563.422 1311.85 Z" fill="#000000" fill-rule="evenodd" fill-opacity="1" /><path clip-path="url(#clip590)" d="M 0 0 M589.706 1307.13 L589.706 1317.44 L586.494 1317.44 L586.494 1290.6 L589.706 1290.6 L589.706 1293.55 Q590.713 1291.82 592.241 1290.99 Q593.786 1290.13 595.921 1290.13 Q599.463 1290.13 601.668 1292.95 Q603.89 1295.76 603.89 1300.34 Q603.89 1304.93 601.668 1307.74 Q599.463 1310.55 595.921 1310.55 Q593.786 1310.55 592.241 1309.72 Q590.713 1308.87 589.706 1307.13 M600.574 1300.34 Q600.574 1296.82 599.116 1294.82 Q597.675 1292.81 595.14 1292.81 Q592.605 1292.81 591.147 1294.82 Q589.706 1296.82 589.706 1300.34 Q589.706 1303.87 591.147 1305.88 Q592.605 1307.88 595.14 1307.88 Q597.675 1307.88 599.116 1305.88 Q600.574 1303.87 600.574 1300.34 Z" fill="#000000" fill-rule="evenodd" fill-opacity="1" /><path clip-path="url(#clip590)" d="M 0 0 M618.508 1293.59 Q617.97 1293.28 617.328 1293.14 Q616.703 1292.98 615.939 1292.98 Q613.23 1292.98 611.772 1294.75 Q610.331 1296.51 610.331 1299.8 L610.331 1310.05 L607.119 1310.05 L607.119 1290.6 L610.331 1290.6 L610.331 1293.62 Q611.338 1291.85 612.953 1291 Q614.567 1290.13 616.876 1290.13 Q617.206 1290.13 617.605 1290.19 Q618.005 1290.22 618.491 1290.31 L618.508 1293.59 Z" fill="#000000" fill-rule="evenodd" fill-opacity="1" /><path clip-path="url(#clip590)" d="M 0 0 M621.859 1290.6 L625.053 1290.6 L625.053 1310.05 L621.859 1310.05 L621.859 1290.6 M621.859 1283.03 L625.053 1283.03 L625.053 1287.08 L621.859 1287.08 L621.859 1283.03 Z" fill="#000000" fill-rule="evenodd" fill-opacity="1" /><path clip-path="url(#clip590)" d="M 0 0 M642.397 1291.35 L642.397 1294.34 Q641.043 1293.59 639.671 1293.23 Q638.317 1292.84 636.928 1292.84 Q633.82 1292.84 632.102 1294.82 Q630.383 1296.78 630.383 1300.34 Q630.383 1303.9 632.102 1305.88 Q633.82 1307.84 636.928 1307.84 Q638.317 1307.84 639.671 1307.48 Q641.043 1307.1 642.397 1306.35 L642.397 1309.3 Q641.06 1309.93 639.619 1310.24 Q638.195 1310.55 636.581 1310.55 Q632.189 1310.55 629.602 1307.79 Q627.015 1305.03 627.015 1300.34 Q627.015 1295.59 629.619 1292.86 Q632.241 1290.13 636.789 1290.13 Q638.265 1290.13 639.671 1290.45 Q641.077 1290.74 642.397 1291.35 Z" fill="#000000" fill-rule="evenodd" fill-opacity="1" /><path clip-path="url(#clip590)" d="M 0 0 M662.379 1299.53 L662.379 1301.09 L647.692 1301.09 Q647.9 1304.39 649.671 1306.12 Q651.459 1307.84 654.636 1307.84 Q656.477 1307.84 658.195 1307.39 Q659.931 1306.94 661.633 1306.04 L661.633 1309.06 Q659.914 1309.79 658.109 1310.17 Q656.303 1310.55 654.445 1310.55 Q649.793 1310.55 647.067 1307.84 Q644.359 1305.13 644.359 1300.52 Q644.359 1295.74 646.928 1292.95 Q649.515 1290.13 653.89 1290.13 Q657.813 1290.13 660.088 1292.67 Q662.379 1295.19 662.379 1299.53 M659.185 1298.59 Q659.15 1295.97 657.709 1294.41 Q656.286 1292.84 653.925 1292.84 Q651.251 1292.84 649.636 1294.35 Q648.039 1295.86 647.796 1298.61 L659.185 1298.59 Z" fill="#000000" fill-rule="evenodd" fill-opacity="1" /><path clip-path="url(#clip590)" d="M 0 0 M678.126 1291.18 L678.126 1294.2 Q676.772 1293.5 675.313 1293.16 Q673.855 1292.81 672.292 1292.81 Q669.914 1292.81 668.716 1293.54 Q667.536 1294.27 667.536 1295.73 Q667.536 1296.84 668.386 1297.48 Q669.237 1298.1 671.806 1298.68 L672.9 1298.92 Q676.303 1299.65 677.726 1300.99 Q679.167 1302.3 679.167 1304.68 Q679.167 1307.39 677.015 1308.97 Q674.879 1310.55 671.129 1310.55 Q669.567 1310.55 667.865 1310.24 Q666.181 1309.94 664.306 1309.34 L664.306 1306.04 Q666.077 1306.96 667.796 1307.43 Q669.515 1307.88 671.199 1307.88 Q673.456 1307.88 674.671 1307.11 Q675.886 1306.33 675.886 1304.93 Q675.886 1303.62 675.001 1302.93 Q674.133 1302.24 671.164 1301.59 L670.053 1301.33 Q667.084 1300.71 665.765 1299.42 Q664.445 1298.12 664.445 1295.86 Q664.445 1293.12 666.39 1291.63 Q668.334 1290.13 671.911 1290.13 Q673.681 1290.13 675.244 1290.4 Q676.806 1290.66 678.126 1291.18 Z" fill="#000000" fill-rule="evenodd" fill-opacity="1" /><path clip-path="url(#clip590)" d="
M125.256 1486.45 L2248.5 1486.45 L2248.5 106.192 L125.256 106.192  Z
  " fill="#000000" fill-rule="evenodd" fill-opacity="0"/>
<polyline clip-path="url(#clip592)" style="stroke:#000000; stroke-width:2; stroke-opacity:0.1; fill:none" stroke-dasharray="8, 5" points="
  125.256,1333.09 2248.5,1333.09 
  "/>
<polyline clip-path="url(#clip592)" style="stroke:#000000; stroke-width:2; stroke-opacity:0.1; fill:none" stroke-dasharray="8, 5" points="
  125.256,1026.36 2248.5,1026.36 
  "/>
<polyline clip-path="url(#clip592)" style="stroke:#000000; stroke-width:2; stroke-opacity:0.1; fill:none" stroke-dasharray="8, 5" points="
  125.256,719.639 2248.5,719.639 
  "/>
<polyline clip-path="url(#clip592)" style="stroke:#000000; stroke-width:2; stroke-opacity:0.1; fill:none" stroke-dasharray="8, 5" points="
  125.256,412.916 2248.5,412.916 
  "/>
<polyline clip-path="url(#clip592)" style="stroke:#000000; stroke-width:2; stroke-opacity:0.1; fill:none" stroke-dasharray="8, 5" points="
  125.256,106.192 2248.5,106.192 
  "/>
<polyline clip-path="url(#clip590)" style="stroke:#000000; stroke-width:4; stroke-opacity:1; fill:none" points="
  125.256,1486.45 2248.5,1486.45 
  "/>
<polyline clip-path="url(#clip590)" style="stroke:#000000; stroke-width:4; stroke-opacity:1; fill:none" points="
  2248.5,1486.45 2248.5,106.192 
  "/>
<polyline clip-path="url(#clip590)" style="stroke:#000000; stroke-width:4; stroke-opacity:1; fill:none" points="
  2248.5,1333.09 2223.02,1333.09 
  "/>
<polyline clip-path="url(#clip590)" style="stroke:#000000; stroke-width:4; stroke-opacity:1; fill:none" points="
  2248.5,1026.36 2223.02,1026.36 
  "/>
<polyline clip-path="url(#clip590)" style="stroke:#000000; stroke-width:4; stroke-opacity:1; fill:none" points="
  2248.5,719.639 2223.02,719.639 
  "/>
<polyline clip-path="url(#clip590)" style="stroke:#000000; stroke-width:4; stroke-opacity:1; fill:none" points="
  2248.5,412.916 2223.02,412.916 
  "/>
<polyline clip-path="url(#clip590)" style="stroke:#000000; stroke-width:4; stroke-opacity:1; fill:none" points="
  2248.5,106.192 2223.02,106.192 
  "/>
<path clip-path="url(#clip590)" d="M 0 0 M2272.5 1335.48 L2284.98 1335.48 L2284.98 1339.28 L2272.5 1339.28 L2272.5 1335.48 Z" fill="#000000" fill-rule="evenodd" fill-opacity="1" /><path clip-path="url(#clip590)" d="M 0 0 M2302.9 1319.88 L2291.09 1338.33 L2302.9 1338.33 L2302.9 1319.88 M2301.67 1315.81 L2307.55 1315.81 L2307.55 1338.33 L2312.48 1338.33 L2312.48 1342.22 L2307.55 1342.22 L2307.55 1350.37 L2302.9 1350.37 L2302.9 1342.22 L2287.3 1342.22 L2287.3 1337.7 L2301.67 1315.81 Z" fill="#000000" fill-rule="evenodd" fill-opacity="1" /><path clip-path="url(#clip590)" d="M 0 0 M2327.55 1318.88 Q2323.94 1318.88 2322.11 1322.45 Q2320.3 1325.99 2320.3 1333.12 Q2320.3 1340.23 2322.11 1343.79 Q2323.94 1347.33 2327.55 1347.33 Q2331.18 1347.33 2332.99 1343.79 Q2334.82 1340.23 2334.82 1333.12 Q2334.82 1325.99 2332.99 1322.45 Q2331.18 1318.88 2327.55 1318.88 M2327.55 1315.18 Q2333.36 1315.18 2336.42 1319.79 Q2339.49 1324.37 2339.49 1333.12 Q2339.49 1341.85 2336.42 1346.45 Q2333.36 1351.04 2327.55 1351.04 Q2321.74 1351.04 2318.66 1346.45 Q2315.61 1341.85 2315.61 1333.12 Q2315.61 1324.37 2318.66 1319.79 Q2321.74 1315.18 2327.55 1315.18 Z" fill="#000000" fill-rule="evenodd" fill-opacity="1" /><path clip-path="url(#clip590)" d="M 0 0 M2272.5 1028.76 L2284.98 1028.76 L2284.98 1032.55 L2272.5 1032.55 L2272.5 1028.76 Z" fill="#000000" fill-rule="evenodd" fill-opacity="1" /><path clip-path="url(#clip590)" d="M 0 0 M2294.08 1039.71 L2310.4 1039.71 L2310.4 1043.64 L2288.45 1043.64 L2288.45 1039.71 Q2291.11 1036.95 2295.7 1032.32 Q2300.3 1027.67 2301.49 1026.33 Q2303.73 1023.8 2304.61 1022.07 Q2305.51 1020.31 2305.51 1018.62 Q2305.51 1015.86 2303.57 1014.13 Q2301.65 1012.39 2298.55 1012.39 Q2296.35 1012.39 2293.89 1013.16 Q2291.46 1013.92 2288.68 1015.47 L2288.68 1010.75 Q2291.51 1009.62 2293.96 1009.04 Q2296.42 1008.46 2298.45 1008.46 Q2303.82 1008.46 2307.02 1011.14 Q2310.21 1013.83 2310.21 1018.32 Q2310.21 1020.45 2309.4 1022.37 Q2308.61 1024.27 2306.51 1026.86 Q2305.93 1027.53 2302.83 1030.75 Q2299.73 1033.94 2294.08 1039.71 Z" fill="#000000" fill-rule="evenodd" fill-opacity="1" /><path clip-path="url(#clip590)" d="M 0 0 M2325.47 1012.16 Q2321.86 1012.16 2320.03 1015.73 Q2318.22 1019.27 2318.22 1026.4 Q2318.22 1033.5 2320.03 1037.07 Q2321.86 1040.61 2325.47 1040.61 Q2329.1 1040.61 2330.91 1037.07 Q2332.74 1033.5 2332.74 1026.4 Q2332.74 1019.27 2330.91 1015.73 Q2329.1 1012.16 2325.47 1012.16 M2325.47 1008.46 Q2331.28 1008.46 2334.33 1013.06 Q2337.41 1017.65 2337.41 1026.4 Q2337.41 1035.12 2334.33 1039.73 Q2331.28 1044.31 2325.47 1044.31 Q2319.66 1044.31 2316.58 1039.73 Q2313.52 1035.12 2313.52 1026.4 Q2313.52 1017.65 2316.58 1013.06 Q2319.66 1008.46 2325.47 1008.46 Z" fill="#000000" fill-rule="evenodd" fill-opacity="1" /><path clip-path="url(#clip590)" d="M 0 0 M2284.45 705.438 Q2280.84 705.438 2279.01 709.003 Q2277.2 712.544 2277.2 719.674 Q2277.2 726.78 2279.01 730.345 Q2280.84 733.887 2284.45 733.887 Q2288.08 733.887 2289.89 730.345 Q2291.72 726.78 2291.72 719.674 Q2291.72 712.544 2289.89 709.003 Q2288.08 705.438 2284.45 705.438 M2284.45 701.734 Q2290.26 701.734 2293.31 706.341 Q2296.39 710.924 2296.39 719.674 Q2296.39 728.401 2293.31 733.007 Q2290.26 737.59 2284.45 737.59 Q2278.64 737.59 2275.56 733.007 Q2272.5 728.401 2272.5 719.674 Q2272.5 710.924 2275.56 706.341 Q2278.64 701.734 2284.45 701.734 Z" fill="#000000" fill-rule="evenodd" fill-opacity="1" /><path clip-path="url(#clip590)" d="M 0 0 M2278.13 426.26 L2294.45 426.26 L2294.45 430.196 L2272.5 430.196 L2272.5 426.26 Q2275.17 423.506 2279.75 418.876 Q2284.36 414.223 2285.54 412.881 Q2287.78 410.358 2288.66 408.622 Q2289.56 406.862 2289.56 405.173 Q2289.56 402.418 2287.62 400.682 Q2285.7 398.946 2282.6 398.946 Q2280.4 398.946 2277.94 399.71 Q2275.51 400.474 2272.74 402.024 L2272.74 397.302 Q2275.56 396.168 2278.01 395.589 Q2280.47 395.011 2282.5 395.011 Q2287.87 395.011 2291.07 397.696 Q2294.26 400.381 2294.26 404.872 Q2294.26 407.001 2293.45 408.923 Q2292.67 410.821 2290.56 413.413 Q2289.98 414.085 2286.88 417.302 Q2283.78 420.497 2278.13 426.26 Z" fill="#000000" fill-rule="evenodd" fill-opacity="1" /><path clip-path="url(#clip590)" d="M 0 0 M2309.52 398.714 Q2305.91 398.714 2304.08 402.279 Q2302.27 405.821 2302.27 412.95 Q2302.27 420.057 2304.08 423.622 Q2305.91 427.163 2309.52 427.163 Q2313.15 427.163 2314.96 423.622 Q2316.79 420.057 2316.79 412.95 Q2316.79 405.821 2314.96 402.279 Q2313.15 398.714 2309.52 398.714 M2309.52 395.011 Q2315.33 395.011 2318.38 399.617 Q2321.46 404.2 2321.46 412.95 Q2321.46 421.677 2318.38 426.284 Q2315.33 430.867 2309.52 430.867 Q2303.71 430.867 2300.63 426.284 Q2297.57 421.677 2297.57 412.95 Q2297.57 404.2 2300.63 399.617 Q2303.71 395.011 2309.52 395.011 Z" fill="#000000" fill-rule="evenodd" fill-opacity="1" /><path clip-path="url(#clip590)" d="M 0 0 M2288.11 92.9862 L2276.3 111.435 L2288.11 111.435 L2288.11 92.9862 M2286.88 88.9121 L2292.76 88.9121 L2292.76 111.435 L2297.69 111.435 L2297.69 115.324 L2292.76 115.324 L2292.76 123.472 L2288.11 123.472 L2288.11 115.324 L2272.5 115.324 L2272.5 110.81 L2286.88 88.9121 Z" fill="#000000" fill-rule="evenodd" fill-opacity="1" /><path clip-path="url(#clip590)" d="M 0 0 M2312.76 91.9908 Q2309.15 91.9908 2307.32 95.5556 Q2305.51 99.0973 2305.51 106.227 Q2305.51 113.333 2307.32 116.898 Q2309.15 120.44 2312.76 120.44 Q2316.39 120.44 2318.2 116.898 Q2320.03 113.333 2320.03 106.227 Q2320.03 99.0973 2318.2 95.5556 Q2316.39 91.9908 2312.76 91.9908 M2312.76 88.2871 Q2318.57 88.2871 2321.62 92.8936 Q2324.7 97.4769 2324.7 106.227 Q2324.7 114.954 2321.62 119.56 Q2318.57 124.143 2312.76 124.143 Q2306.95 124.143 2303.87 119.56 Q2300.81 114.954 2300.81 106.227 Q2300.81 97.4769 2303.87 92.8936 Q2306.95 88.2871 2312.76 88.2871 Z" fill="#000000" fill-rule="evenodd" fill-opacity="1" /><polyline clip-path="url(#clip592)" style="stroke:#ff0000; stroke-width:4.6; stroke-opacity:0.75; fill:none" points="
  185.348,734.173 209.775,819.84 234.203,765.298 258.631,779.35 283.058,611.531 307.486,603.586 331.913,612.434 356.341,606.112 380.769,675.036 405.196,660.234 
  429.624,662.012 454.051,779.072 478.479,771.859 502.907,824.353 527.334,912.287 551.762,662.199 576.19,579.031 600.617,670.87 625.045,654.859 649.472,541.911 
  673.9,815.627 698.328,696.048 722.755,618.364 747.183,603.233 771.61,631.713 796.038,676.657 820.466,648.773 844.893,632.894 869.321,642.709 893.749,573.083 
  918.176,693.991 942.604,689.296 967.031,573.94 991.459,702.699 1015.89,794.265 1040.31,686.455 1064.74,580.176 1089.17,692.988 1113.6,541.19 1138.02,544.782 
  1162.45,486.209 1186.88,767.631 1211.31,1398.2 1235.74,926.478 1260.16,581.176 1284.59,618.791 1309.02,580.287 1333.45,623.878 1357.87,687.151 1382.3,732.765 
  1406.73,544.862 1431.16,536.339 1455.58,634.72 1480.01,757.423 1504.44,793.92 1528.87,664.085 1553.29,801.027 1577.72,739.428 1602.15,721.462 1626.58,689.781 
  1651,786.446 1675.43,705.992 1699.86,739.415 1724.29,691.224 1748.71,715.646 1773.14,806.306 1797.57,955.756 1822,991.069 1846.43,699.117 1870.85,883.211 
  1895.28,848.359 1919.71,846.66 1944.14,534.097 1968.56,674.683 1992.99,650.993 2017.42,629.951 2041.85,800.819 2066.27,677.971 2090.7,608.686 2115.13,622.479 
  2139.56,678.72 2163.98,730.228 2188.41,797.899 
  "/>
</svg>
