<?xml version="1.0" encoding="utf-8"?>
<svg xmlns="http://www.w3.org/2000/svg" xmlns:xlink="http://www.w3.org/1999/xlink" width="600" height="400" viewBox="0 0 2400 1600">
<defs>
  <clipPath id="clip000">
    <rect x="0" y="0" width="2400" height="1600"/>
  </clipPath>
</defs>
<path clip-path="url(#clip000)" d="
M0 1600 L2400 1600 L2400 0 L0 0  Z
  " fill="#ffffff" fill-rule="evenodd" fill-opacity="1"/>
<defs>
  <clipPath id="clip001">
    <rect x="480" y="0" width="1681" height="1600"/>
  </clipPath>
</defs>
<path clip-path="url(#clip000)" d="
M126.969 1486.45 L2352.76 1486.45 L2352.76 106.192 L126.969 106.192  Z
  " fill="#ffffff" fill-rule="evenodd" fill-opacity="1"/>
<defs>
  <clipPath id="clip002">
    <rect x="126" y="106" width="2227" height="1381"/>
  </clipPath>
</defs>
<polyline clip-path="url(#clip002)" style="stroke:#000000; stroke-width:2; stroke-opacity:0.1; fill:none" points="
  189.963,1486.45 189.963,106.192 
  "/>
<polyline clip-path="url(#clip002)" style="stroke:#000000; stroke-width:2; stroke-opacity:0.1; fill:none" points="
  501.044,1486.45 501.044,106.192 
  "/>
<polyline clip-path="url(#clip002)" style="stroke:#000000; stroke-width:2; stroke-opacity:0.1; fill:none" points="
  812.125,1486.45 812.125,106.192 
  "/>
<polyline clip-path="url(#clip002)" style="stroke:#000000; stroke-width:2; stroke-opacity:0.1; fill:none" points="
  1123.21,1486.45 1123.21,106.192 
  "/>
<polyline clip-path="url(#clip002)" style="stroke:#000000; stroke-width:2; stroke-opacity:0.1; fill:none" points="
  1434.29,1486.45 1434.29,106.192 
  "/>
<polyline clip-path="url(#clip002)" style="stroke:#000000; stroke-width:2; stroke-opacity:0.1; fill:none" points="
  1745.37,1486.45 1745.37,106.192 
  "/>
<polyline clip-path="url(#clip002)" style="stroke:#000000; stroke-width:2; stroke-opacity:0.1; fill:none" points="
  2056.45,1486.45 2056.45,106.192 
  "/>
<polyline clip-path="url(#clip002)" style="stroke:#000000; stroke-width:2; stroke-opacity:0.1; fill:none" points="
  126.969,1448.54 2352.76,1448.54 
  "/>
<polyline clip-path="url(#clip002)" style="stroke:#000000; stroke-width:2; stroke-opacity:0.1; fill:none" points="
  126.969,1248.56 2352.76,1248.56 
  "/>
<polyline clip-path="url(#clip002)" style="stroke:#000000; stroke-width:2; stroke-opacity:0.1; fill:none" points="
  126.969,1048.58 2352.76,1048.58 
  "/>
<polyline clip-path="url(#clip002)" style="stroke:#000000; stroke-width:2; stroke-opacity:0.1; fill:none" points="
  126.969,848.597 2352.76,848.597 
  "/>
<polyline clip-path="url(#clip002)" style="stroke:#000000; stroke-width:2; stroke-opacity:0.1; fill:none" points="
  126.969,648.617 2352.76,648.617 
  "/>
<polyline clip-path="url(#clip002)" style="stroke:#000000; stroke-width:2; stroke-opacity:0.1; fill:none" points="
  126.969,448.637 2352.76,448.637 
  "/>
<polyline clip-path="url(#clip002)" style="stroke:#000000; stroke-width:2; stroke-opacity:0.1; fill:none" points="
  126.969,248.657 2352.76,248.657 
  "/>
<polyline clip-path="url(#clip000)" style="stroke:#000000; stroke-width:4; stroke-opacity:1; fill:none" points="
  126.969,1486.45 2352.76,1486.45 
  "/>
<polyline clip-path="url(#clip000)" style="stroke:#000000; stroke-width:4; stroke-opacity:1; fill:none" points="
  126.969,1486.45 126.969,106.192 
  "/>
<polyline clip-path="url(#clip000)" style="stroke:#000000; stroke-width:4; stroke-opacity:1; fill:none" points="
  189.963,1486.45 189.963,1469.88 
  "/>
<polyline clip-path="url(#clip000)" style="stroke:#000000; stroke-width:4; stroke-opacity:1; fill:none" points="
  501.044,1486.45 501.044,1469.88 
  "/>
<polyline clip-path="url(#clip000)" style="stroke:#000000; stroke-width:4; stroke-opacity:1; fill:none" points="
  812.125,1486.45 812.125,1469.88 
  "/>
<polyline clip-path="url(#clip000)" style="stroke:#000000; stroke-width:4; stroke-opacity:1; fill:none" points="
  1123.21,1486.45 1123.21,1469.88 
  "/>
<polyline clip-path="url(#clip000)" style="stroke:#000000; stroke-width:4; stroke-opacity:1; fill:none" points="
  1434.29,1486.45 1434.29,1469.88 
  "/>
<polyline clip-path="url(#clip000)" style="stroke:#000000; stroke-width:4; stroke-opacity:1; fill:none" points="
  1745.37,1486.45 1745.37,1469.88 
  "/>
<polyline clip-path="url(#clip000)" style="stroke:#000000; stroke-width:4; stroke-opacity:1; fill:none" points="
  2056.45,1486.45 2056.45,1469.88 
  "/>
<polyline clip-path="url(#clip000)" style="stroke:#000000; stroke-width:4; stroke-opacity:1; fill:none" points="
  126.969,1448.54 153.678,1448.54 
  "/>
<polyline clip-path="url(#clip000)" style="stroke:#000000; stroke-width:4; stroke-opacity:1; fill:none" points="
  126.969,1248.56 153.678,1248.56 
  "/>
<polyline clip-path="url(#clip000)" style="stroke:#000000; stroke-width:4; stroke-opacity:1; fill:none" points="
  126.969,1048.58 153.678,1048.58 
  "/>
<polyline clip-path="url(#clip000)" style="stroke:#000000; stroke-width:4; stroke-opacity:1; fill:none" points="
  126.969,848.597 153.678,848.597 
  "/>
<polyline clip-path="url(#clip000)" style="stroke:#000000; stroke-width:4; stroke-opacity:1; fill:none" points="
  126.969,648.617 153.678,648.617 
  "/>
<polyline clip-path="url(#clip000)" style="stroke:#000000; stroke-width:4; stroke-opacity:1; fill:none" points="
  126.969,448.637 153.678,448.637 
  "/>
<polyline clip-path="url(#clip000)" style="stroke:#000000; stroke-width:4; stroke-opacity:1; fill:none" points="
  126.969,248.657 153.678,248.657 
  "/>
<path clip-path="url(#clip000)" d="M 0 0 M109.547 1535.98 L117.185 1535.98 L117.185 1509.62 L108.875 1511.29 L108.875 1507.03 L117.139 1505.36 L121.815 1505.36 L121.815 1535.98 L129.454 1535.98 L129.454 1539.92 L109.547 1539.92 L109.547 1535.98 Z" fill="#000000" fill-rule="evenodd" fill-opacity="1" /><path clip-path="url(#clip000)" d="M 0 0 M134.662 1539.2 L134.662 1534.94 Q136.421 1535.78 138.227 1536.22 Q140.032 1536.66 141.769 1536.66 Q146.398 1536.66 148.829 1533.55 Q151.282 1530.43 151.63 1524.09 Q150.287 1526.08 148.227 1527.14 Q146.167 1528.21 143.667 1528.21 Q138.482 1528.21 135.449 1525.08 Q132.44 1521.93 132.44 1516.49 Q132.44 1511.17 135.588 1507.95 Q138.736 1504.73 143.968 1504.73 Q149.963 1504.73 153.111 1509.34 Q156.282 1513.92 156.282 1522.67 Q156.282 1530.85 152.393 1535.73 Q148.528 1540.59 141.977 1540.59 Q140.218 1540.59 138.412 1540.24 Q136.607 1539.9 134.662 1539.2 M143.968 1524.55 Q147.116 1524.55 148.944 1522.4 Q150.796 1520.24 150.796 1516.49 Q150.796 1512.77 148.944 1510.61 Q147.116 1508.44 143.968 1508.44 Q140.819 1508.44 138.968 1510.61 Q137.139 1512.77 137.139 1516.49 Q137.139 1520.24 138.968 1522.4 Q140.819 1524.55 143.968 1524.55 Z" fill="#000000" fill-rule="evenodd" fill-opacity="1" /><path clip-path="url(#clip000)" d="M 0 0 M161.491 1539.2 L161.491 1534.94 Q163.25 1535.78 165.055 1536.22 Q166.861 1536.66 168.597 1536.66 Q173.227 1536.66 175.657 1533.55 Q178.111 1530.43 178.458 1524.09 Q177.116 1526.08 175.055 1527.14 Q172.995 1528.21 170.495 1528.21 Q165.31 1528.21 162.278 1525.08 Q159.268 1521.93 159.268 1516.49 Q159.268 1511.17 162.417 1507.95 Q165.565 1504.73 170.796 1504.73 Q176.792 1504.73 179.94 1509.34 Q183.111 1513.92 183.111 1522.67 Q183.111 1530.85 179.222 1535.73 Q175.356 1540.59 168.805 1540.59 Q167.046 1540.59 165.241 1540.24 Q163.435 1539.9 161.491 1539.2 M170.796 1524.55 Q173.944 1524.55 175.773 1522.4 Q177.625 1520.24 177.625 1516.49 Q177.625 1512.77 175.773 1510.61 Q173.944 1508.44 170.796 1508.44 Q167.648 1508.44 165.796 1510.61 Q163.968 1512.77 163.968 1516.49 Q163.968 1520.24 165.796 1522.4 Q167.648 1524.55 170.796 1524.55 Z" fill="#000000" fill-rule="evenodd" fill-opacity="1" /><path clip-path="url(#clip000)" d="M 0 0 M198.18 1523.51 Q194.847 1523.51 192.926 1525.29 Q191.028 1527.07 191.028 1530.2 Q191.028 1533.32 192.926 1535.11 Q194.847 1536.89 198.18 1536.89 Q201.514 1536.89 203.435 1535.11 Q205.356 1533.3 205.356 1530.2 Q205.356 1527.07 203.435 1525.29 Q201.537 1523.51 198.18 1523.51 M193.504 1521.52 Q190.495 1520.78 188.805 1518.72 Q187.139 1516.66 187.139 1513.69 Q187.139 1509.55 190.078 1507.14 Q193.041 1504.73 198.18 1504.73 Q203.342 1504.73 206.282 1507.14 Q209.222 1509.55 209.222 1513.69 Q209.222 1516.66 207.532 1518.72 Q205.865 1520.78 202.879 1521.52 Q206.259 1522.3 208.134 1524.6 Q210.032 1526.89 210.032 1530.2 Q210.032 1535.22 206.953 1537.91 Q203.898 1540.59 198.18 1540.59 Q192.463 1540.59 189.384 1537.91 Q186.328 1535.22 186.328 1530.2 Q186.328 1526.89 188.227 1524.6 Q190.125 1522.3 193.504 1521.52 M191.791 1514.13 Q191.791 1516.82 193.458 1518.32 Q195.148 1519.83 198.18 1519.83 Q201.19 1519.83 202.879 1518.32 Q204.592 1516.82 204.592 1514.13 Q204.592 1511.45 202.879 1509.94 Q201.19 1508.44 198.18 1508.44 Q195.148 1508.44 193.458 1509.94 Q191.791 1511.45 191.791 1514.13 Z" fill="#000000" fill-rule="evenodd" fill-opacity="1" /><path clip-path="url(#clip000)" d="M 0 0 M228.713 1508.53 Q223.62 1508.53 220.611 1512.33 Q217.625 1516.12 217.625 1522.67 Q217.625 1529.2 220.611 1533 Q223.62 1536.79 228.713 1536.79 Q233.805 1536.79 236.768 1533 Q239.754 1529.2 239.754 1522.67 Q239.754 1516.12 236.768 1512.33 Q233.805 1508.53 228.713 1508.53 M235.263 1539.29 L241.421 1546.03 L235.773 1546.03 L230.657 1540.5 Q229.893 1540.54 229.476 1540.57 Q229.083 1540.59 228.713 1540.59 Q221.421 1540.59 217.046 1535.73 Q212.694 1530.85 212.694 1522.67 Q212.694 1514.48 217.046 1509.62 Q221.421 1504.73 228.713 1504.73 Q235.981 1504.73 240.333 1509.62 Q244.685 1514.48 244.685 1522.67 Q244.685 1528.69 242.254 1532.98 Q239.847 1537.26 235.263 1539.29 Z" fill="#000000" fill-rule="evenodd" fill-opacity="1" /><path clip-path="url(#clip000)" d="M 0 0 M263.921 1521.29 Q267.277 1522 269.152 1524.27 Q271.05 1526.54 271.05 1529.87 Q271.05 1534.99 267.532 1537.79 Q264.013 1540.59 257.532 1540.59 Q255.356 1540.59 253.041 1540.15 Q250.749 1539.73 248.296 1538.88 L248.296 1534.36 Q250.24 1535.5 252.555 1536.08 Q254.87 1536.66 257.393 1536.66 Q261.791 1536.66 264.083 1534.92 Q266.398 1533.18 266.398 1529.87 Q266.398 1526.82 264.245 1525.11 Q262.115 1523.37 258.296 1523.37 L254.268 1523.37 L254.268 1519.53 L258.481 1519.53 Q261.93 1519.53 263.759 1518.16 Q265.587 1516.77 265.587 1514.18 Q265.587 1511.52 263.689 1510.11 Q261.814 1508.67 258.296 1508.67 Q256.374 1508.67 254.175 1509.09 Q251.976 1509.5 249.337 1510.38 L249.337 1506.22 Q251.999 1505.48 254.314 1505.11 Q256.652 1504.73 258.712 1504.73 Q264.036 1504.73 267.138 1507.17 Q270.24 1509.57 270.24 1513.69 Q270.24 1516.56 268.597 1518.55 Q266.953 1520.52 263.921 1521.29 Z" fill="#000000" fill-rule="evenodd" fill-opacity="1" /><path clip-path="url(#clip000)" d="M 0 0 M425.281 1535.98 L441.6 1535.98 L441.6 1539.92 L419.656 1539.92 L419.656 1535.98 Q422.318 1533.23 426.901 1528.6 Q431.507 1523.95 432.688 1522.61 Q434.933 1520.08 435.813 1518.35 Q436.716 1516.59 436.716 1514.9 Q436.716 1512.14 434.771 1510.41 Q432.85 1508.67 429.748 1508.67 Q427.549 1508.67 425.095 1509.43 Q422.665 1510.2 419.887 1511.75 L419.887 1507.03 Q422.711 1505.89 425.165 1505.31 Q427.619 1504.73 429.656 1504.73 Q435.026 1504.73 438.22 1507.42 Q441.415 1510.11 441.415 1514.6 Q441.415 1516.73 440.605 1518.65 Q439.818 1520.54 437.711 1523.14 Q437.132 1523.81 434.031 1527.03 Q430.929 1530.22 425.281 1535.98 Z" fill="#000000" fill-rule="evenodd" fill-opacity="1" /><path clip-path="url(#clip000)" d="M 0 0 M456.669 1508.44 Q453.058 1508.44 451.23 1512 Q449.424 1515.55 449.424 1522.67 Q449.424 1529.78 451.23 1533.35 Q453.058 1536.89 456.669 1536.89 Q460.304 1536.89 462.109 1533.35 Q463.938 1529.78 463.938 1522.67 Q463.938 1515.55 462.109 1512 Q460.304 1508.44 456.669 1508.44 M456.669 1504.73 Q462.479 1504.73 465.535 1509.34 Q468.614 1513.92 468.614 1522.67 Q468.614 1531.4 465.535 1536.01 Q462.479 1540.59 456.669 1540.59 Q450.859 1540.59 447.78 1536.01 Q444.725 1531.4 444.725 1522.67 Q444.725 1513.92 447.78 1509.34 Q450.859 1504.73 456.669 1504.73 Z" fill="#000000" fill-rule="evenodd" fill-opacity="1" /><path clip-path="url(#clip000)" d="M 0 0 M483.683 1508.44 Q480.072 1508.44 478.243 1512 Q476.438 1515.55 476.438 1522.67 Q476.438 1529.78 478.243 1533.35 Q480.072 1536.89 483.683 1536.89 Q487.317 1536.89 489.123 1533.35 Q490.952 1529.78 490.952 1522.67 Q490.952 1515.55 489.123 1512 Q487.317 1508.44 483.683 1508.44 M483.683 1504.73 Q489.493 1504.73 492.549 1509.34 Q495.627 1513.92 495.627 1522.67 Q495.627 1531.4 492.549 1536.01 Q489.493 1540.59 483.683 1540.59 Q477.873 1540.59 474.794 1536.01 Q471.739 1531.4 471.739 1522.67 Q471.739 1513.92 474.794 1509.34 Q477.873 1504.73 483.683 1504.73 Z" fill="#000000" fill-rule="evenodd" fill-opacity="1" /><path clip-path="url(#clip000)" d="M 0 0 M501.507 1535.98 L509.146 1535.98 L509.146 1509.62 L500.836 1511.29 L500.836 1507.03 L509.1 1505.36 L513.776 1505.36 L513.776 1535.98 L521.414 1535.98 L521.414 1539.92 L501.507 1539.92 L501.507 1535.98 Z" fill="#000000" fill-rule="evenodd" fill-opacity="1" /><path clip-path="url(#clip000)" d="M 0 0 M540.095 1508.53 Q535.002 1508.53 531.993 1512.33 Q529.007 1516.12 529.007 1522.67 Q529.007 1529.2 531.993 1533 Q535.002 1536.79 540.095 1536.79 Q545.187 1536.79 548.15 1533 Q551.136 1529.2 551.136 1522.67 Q551.136 1516.12 548.15 1512.33 Q545.187 1508.53 540.095 1508.53 M546.646 1539.29 L552.803 1546.03 L547.155 1546.03 L542.039 1540.5 Q541.275 1540.54 540.859 1540.57 Q540.465 1540.59 540.095 1540.59 Q532.803 1540.59 528.428 1535.73 Q524.076 1530.85 524.076 1522.67 Q524.076 1514.48 528.428 1509.62 Q532.803 1504.73 540.095 1504.73 Q547.363 1504.73 551.715 1509.62 Q556.067 1514.48 556.067 1522.67 Q556.067 1528.69 553.636 1532.98 Q551.229 1537.26 546.646 1539.29 Z" fill="#000000" fill-rule="evenodd" fill-opacity="1" /><path clip-path="url(#clip000)" d="M 0 0 M575.303 1521.29 Q578.659 1522 580.534 1524.27 Q582.433 1526.54 582.433 1529.87 Q582.433 1534.99 578.914 1537.79 Q575.396 1540.59 568.914 1540.59 Q566.738 1540.59 564.423 1540.15 Q562.132 1539.73 559.678 1538.88 L559.678 1534.36 Q561.622 1535.5 563.937 1536.08 Q566.252 1536.66 568.775 1536.66 Q573.173 1536.66 575.465 1534.92 Q577.78 1533.18 577.78 1529.87 Q577.78 1526.82 575.627 1525.11 Q573.497 1523.37 569.678 1523.37 L565.65 1523.37 L565.65 1519.53 L569.863 1519.53 Q573.312 1519.53 575.141 1518.16 Q576.97 1516.77 576.97 1514.18 Q576.97 1511.52 575.071 1510.11 Q573.196 1508.67 569.678 1508.67 Q567.757 1508.67 565.558 1509.09 Q563.359 1509.5 560.72 1510.38 L560.72 1506.22 Q563.382 1505.48 565.697 1505.11 Q568.034 1504.73 570.095 1504.73 Q575.419 1504.73 578.521 1507.17 Q581.622 1509.57 581.622 1513.69 Q581.622 1516.56 579.979 1518.55 Q578.335 1520.52 575.303 1521.29 Z" fill="#000000" fill-rule="evenodd" fill-opacity="1" /><path clip-path="url(#clip000)" d="M 0 0 M735.506 1535.98 L751.825 1535.98 L751.825 1539.92 L729.881 1539.92 L729.881 1535.98 Q732.543 1533.23 737.126 1528.6 Q741.732 1523.95 742.913 1522.61 Q745.158 1520.08 746.038 1518.35 Q746.941 1516.59 746.941 1514.9 Q746.941 1512.14 744.996 1510.41 Q743.075 1508.67 739.973 1508.67 Q737.774 1508.67 735.32 1509.43 Q732.89 1510.2 730.112 1511.75 L730.112 1507.03 Q732.936 1505.89 735.39 1505.31 Q737.843 1504.73 739.88 1504.73 Q745.251 1504.73 748.445 1507.42 Q751.64 1510.11 751.64 1514.6 Q751.64 1516.73 750.829 1518.65 Q750.042 1520.54 747.936 1523.14 Q747.357 1523.81 744.255 1527.03 Q741.154 1530.22 735.506 1535.98 Z" fill="#000000" fill-rule="evenodd" fill-opacity="1" /><path clip-path="url(#clip000)" d="M 0 0 M766.894 1508.44 Q763.283 1508.44 761.454 1512 Q759.649 1515.55 759.649 1522.67 Q759.649 1529.78 761.454 1533.35 Q763.283 1536.89 766.894 1536.89 Q770.528 1536.89 772.334 1533.35 Q774.163 1529.78 774.163 1522.67 Q774.163 1515.55 772.334 1512 Q770.528 1508.44 766.894 1508.44 M766.894 1504.73 Q772.704 1504.73 775.76 1509.34 Q778.839 1513.92 778.839 1522.67 Q778.839 1531.4 775.76 1536.01 Q772.704 1540.59 766.894 1540.59 Q761.084 1540.59 758.005 1536.01 Q754.95 1531.4 754.95 1522.67 Q754.95 1513.92 758.005 1509.34 Q761.084 1504.73 766.894 1504.73 Z" fill="#000000" fill-rule="evenodd" fill-opacity="1" /><path clip-path="url(#clip000)" d="M 0 0 M793.908 1508.44 Q790.297 1508.44 788.468 1512 Q786.663 1515.55 786.663 1522.67 Q786.663 1529.78 788.468 1533.35 Q790.297 1536.89 793.908 1536.89 Q797.542 1536.89 799.348 1533.35 Q801.176 1529.78 801.176 1522.67 Q801.176 1515.55 799.348 1512 Q797.542 1508.44 793.908 1508.44 M793.908 1504.73 Q799.718 1504.73 802.774 1509.34 Q805.852 1513.92 805.852 1522.67 Q805.852 1531.4 802.774 1536.01 Q799.718 1540.59 793.908 1540.59 Q788.098 1540.59 785.019 1536.01 Q781.964 1531.4 781.964 1522.67 Q781.964 1513.92 785.019 1509.34 Q788.098 1504.73 793.908 1504.73 Z" fill="#000000" fill-rule="evenodd" fill-opacity="1" /><path clip-path="url(#clip000)" d="M 0 0 M823.769 1509.43 L811.963 1527.88 L823.769 1527.88 L823.769 1509.43 M822.542 1505.36 L828.422 1505.36 L828.422 1527.88 L833.352 1527.88 L833.352 1531.77 L828.422 1531.77 L828.422 1539.92 L823.769 1539.92 L823.769 1531.77 L808.167 1531.77 L808.167 1527.26 L822.542 1505.36 Z" fill="#000000" fill-rule="evenodd" fill-opacity="1" /><path clip-path="url(#clip000)" d="M 0 0 M852.033 1508.53 Q846.94 1508.53 843.931 1512.33 Q840.945 1516.12 840.945 1522.67 Q840.945 1529.2 843.931 1533 Q846.94 1536.79 852.033 1536.79 Q857.125 1536.79 860.088 1533 Q863.074 1529.2 863.074 1522.67 Q863.074 1516.12 860.088 1512.33 Q857.125 1508.53 852.033 1508.53 M858.584 1539.29 L864.741 1546.03 L859.093 1546.03 L853.977 1540.5 Q853.213 1540.54 852.797 1540.57 Q852.403 1540.59 852.033 1540.59 Q844.741 1540.59 840.366 1535.73 Q836.014 1530.85 836.014 1522.67 Q836.014 1514.48 840.366 1509.62 Q844.741 1504.73 852.033 1504.73 Q859.301 1504.73 863.653 1509.62 Q868.005 1514.48 868.005 1522.67 Q868.005 1528.69 865.574 1532.98 Q863.167 1537.26 858.584 1539.29 Z" fill="#000000" fill-rule="evenodd" fill-opacity="1" /><path clip-path="url(#clip000)" d="M 0 0 M887.241 1521.29 Q890.597 1522 892.472 1524.27 Q894.37 1526.54 894.37 1529.87 Q894.37 1534.99 890.852 1537.79 Q887.333 1540.59 880.852 1540.59 Q878.676 1540.59 876.361 1540.15 Q874.07 1539.73 871.616 1538.88 L871.616 1534.36 Q873.56 1535.5 875.875 1536.08 Q878.19 1536.66 880.713 1536.66 Q885.111 1536.66 887.403 1534.92 Q889.718 1533.18 889.718 1529.87 Q889.718 1526.82 887.565 1525.11 Q885.435 1523.37 881.616 1523.37 L877.588 1523.37 L877.588 1519.53 L881.801 1519.53 Q885.25 1519.53 887.079 1518.16 Q888.907 1516.77 888.907 1514.18 Q888.907 1511.52 887.009 1510.11 Q885.134 1508.67 881.616 1508.67 Q879.695 1508.67 877.495 1509.09 Q875.296 1509.5 872.658 1510.38 L872.658 1506.22 Q875.32 1505.48 877.634 1505.11 Q879.972 1504.73 882.032 1504.73 Q887.357 1504.73 890.458 1507.17 Q893.56 1509.57 893.56 1513.69 Q893.56 1516.56 891.917 1518.55 Q890.273 1520.52 887.241 1521.29 Z" fill="#000000" fill-rule="evenodd" fill-opacity="1" /><path clip-path="url(#clip000)" d="M 0 0 M1047.28 1535.98 L1063.6 1535.98 L1063.6 1539.92 L1041.66 1539.92 L1041.66 1535.98 Q1044.32 1533.23 1048.9 1528.6 Q1053.51 1523.95 1054.69 1522.61 Q1056.93 1520.08 1057.81 1518.35 Q1058.72 1516.59 1058.72 1514.9 Q1058.72 1512.14 1056.77 1510.41 Q1054.85 1508.67 1051.75 1508.67 Q1049.55 1508.67 1047.1 1509.43 Q1044.67 1510.2 1041.89 1511.75 L1041.89 1507.03 Q1044.71 1505.89 1047.17 1505.31 Q1049.62 1504.73 1051.66 1504.73 Q1057.03 1504.73 1060.22 1507.42 Q1063.42 1510.11 1063.42 1514.6 Q1063.42 1516.73 1062.61 1518.65 Q1061.82 1520.54 1059.71 1523.14 Q1059.13 1523.81 1056.03 1527.03 Q1052.93 1530.22 1047.28 1535.98 Z" fill="#000000" fill-rule="evenodd" fill-opacity="1" /><path clip-path="url(#clip000)" d="M 0 0 M1078.67 1508.44 Q1075.06 1508.44 1073.23 1512 Q1071.42 1515.55 1071.42 1522.67 Q1071.42 1529.78 1073.23 1533.35 Q1075.06 1536.89 1078.67 1536.89 Q1082.3 1536.89 1084.11 1533.35 Q1085.94 1529.78 1085.94 1522.67 Q1085.94 1515.55 1084.11 1512 Q1082.3 1508.44 1078.67 1508.44 M1078.67 1504.73 Q1084.48 1504.73 1087.54 1509.34 Q1090.61 1513.92 1090.61 1522.67 Q1090.61 1531.4 1087.54 1536.01 Q1084.48 1540.59 1078.67 1540.59 Q1072.86 1540.59 1069.78 1536.01 Q1066.73 1531.4 1066.73 1522.67 Q1066.73 1513.92 1069.78 1509.34 Q1072.86 1504.73 1078.67 1504.73 Z" fill="#000000" fill-rule="evenodd" fill-opacity="1" /><path clip-path="url(#clip000)" d="M 0 0 M1105.68 1508.44 Q1102.07 1508.44 1100.24 1512 Q1098.44 1515.55 1098.44 1522.67 Q1098.44 1529.78 1100.24 1533.35 Q1102.07 1536.89 1105.68 1536.89 Q1109.32 1536.89 1111.12 1533.35 Q1112.95 1529.78 1112.95 1522.67 Q1112.95 1515.55 1111.12 1512 Q1109.32 1508.44 1105.68 1508.44 M1105.68 1504.73 Q1111.49 1504.73 1114.55 1509.34 Q1117.63 1513.92 1117.63 1522.67 Q1117.63 1531.4 1114.55 1536.01 Q1111.49 1540.59 1105.68 1540.59 Q1099.87 1540.59 1096.79 1536.01 Q1093.74 1531.4 1093.74 1522.67 Q1093.74 1513.92 1096.79 1509.34 Q1099.87 1504.73 1105.68 1504.73 Z" fill="#000000" fill-rule="evenodd" fill-opacity="1" /><path clip-path="url(#clip000)" d="M 0 0 M1121.52 1505.36 L1143.74 1505.36 L1143.74 1507.35 L1131.19 1539.92 L1126.31 1539.92 L1138.11 1509.3 L1121.52 1509.3 L1121.52 1505.36 Z" fill="#000000" fill-rule="evenodd" fill-opacity="1" /><path clip-path="url(#clip000)" d="M 0 0 M1162.42 1508.53 Q1157.33 1508.53 1154.32 1512.33 Q1151.33 1516.12 1151.33 1522.67 Q1151.33 1529.2 1154.32 1533 Q1157.33 1536.79 1162.42 1536.79 Q1167.51 1536.79 1170.48 1533 Q1173.46 1529.2 1173.46 1522.67 Q1173.46 1516.12 1170.48 1512.33 Q1167.51 1508.53 1162.42 1508.53 M1168.97 1539.29 L1175.13 1546.03 L1169.48 1546.03 L1164.36 1540.5 Q1163.6 1540.54 1163.18 1540.57 Q1162.79 1540.59 1162.42 1540.59 Q1155.13 1540.59 1150.75 1535.73 Q1146.4 1530.85 1146.4 1522.67 Q1146.4 1514.48 1150.75 1509.62 Q1155.13 1504.73 1162.42 1504.73 Q1169.69 1504.73 1174.04 1509.62 Q1178.39 1514.48 1178.39 1522.67 Q1178.39 1528.69 1175.96 1532.98 Q1173.55 1537.26 1168.97 1539.29 Z" fill="#000000" fill-rule="evenodd" fill-opacity="1" /><path clip-path="url(#clip000)" d="M 0 0 M1197.63 1521.29 Q1200.98 1522 1202.86 1524.27 Q1204.76 1526.54 1204.76 1529.87 Q1204.76 1534.99 1201.24 1537.79 Q1197.72 1540.59 1191.24 1540.59 Q1189.06 1540.59 1186.75 1540.15 Q1184.46 1539.73 1182 1538.88 L1182 1534.36 Q1183.95 1535.5 1186.26 1536.08 Q1188.58 1536.66 1191.1 1536.66 Q1195.5 1536.66 1197.79 1534.92 Q1200.1 1533.18 1200.1 1529.87 Q1200.1 1526.82 1197.95 1525.11 Q1195.82 1523.37 1192 1523.37 L1187.97 1523.37 L1187.97 1519.53 L1192.19 1519.53 Q1195.64 1519.53 1197.47 1518.16 Q1199.29 1516.77 1199.29 1514.18 Q1199.29 1511.52 1197.4 1510.11 Q1195.52 1508.67 1192 1508.67 Q1190.08 1508.67 1187.88 1509.09 Q1185.68 1509.5 1183.04 1510.38 L1183.04 1506.22 Q1185.71 1505.48 1188.02 1505.11 Q1190.36 1504.73 1192.42 1504.73 Q1197.74 1504.73 1200.85 1507.17 Q1203.95 1509.57 1203.95 1513.69 Q1203.95 1516.56 1202.3 1518.55 Q1200.66 1520.52 1197.63 1521.29 Z" fill="#000000" fill-rule="evenodd" fill-opacity="1" /><path clip-path="url(#clip000)" d="M 0 0 M1358.52 1535.98 L1374.84 1535.98 L1374.84 1539.92 L1352.9 1539.92 L1352.9 1535.98 Q1355.56 1533.23 1360.15 1528.6 Q1364.75 1523.95 1365.93 1522.61 Q1368.18 1520.08 1369.06 1518.35 Q1369.96 1516.59 1369.96 1514.9 Q1369.96 1512.14 1368.02 1510.41 Q1366.09 1508.67 1362.99 1508.67 Q1360.79 1508.67 1358.34 1509.43 Q1355.91 1510.2 1353.13 1511.75 L1353.13 1507.03 Q1355.96 1505.89 1358.41 1505.31 Q1360.86 1504.73 1362.9 1504.73 Q1368.27 1504.73 1371.46 1507.42 Q1374.66 1510.11 1374.66 1514.6 Q1374.66 1516.73 1373.85 1518.65 Q1373.06 1520.54 1370.96 1523.14 Q1370.38 1523.81 1367.27 1527.03 Q1364.17 1530.22 1358.52 1535.98 Z" fill="#000000" fill-rule="evenodd" fill-opacity="1" /><path clip-path="url(#clip000)" d="M 0 0 M1389.91 1508.44 Q1386.3 1508.44 1384.47 1512 Q1382.67 1515.55 1382.67 1522.67 Q1382.67 1529.78 1384.47 1533.35 Q1386.3 1536.89 1389.91 1536.89 Q1393.55 1536.89 1395.35 1533.35 Q1397.18 1529.78 1397.18 1522.67 Q1397.18 1515.55 1395.35 1512 Q1393.55 1508.44 1389.91 1508.44 M1389.91 1504.73 Q1395.72 1504.73 1398.78 1509.34 Q1401.86 1513.92 1401.86 1522.67 Q1401.86 1531.4 1398.78 1536.01 Q1395.72 1540.59 1389.91 1540.59 Q1384.1 1540.59 1381.02 1536.01 Q1377.97 1531.4 1377.97 1522.67 Q1377.97 1513.92 1381.02 1509.34 Q1384.1 1504.73 1389.91 1504.73 Z" fill="#000000" fill-rule="evenodd" fill-opacity="1" /><path clip-path="url(#clip000)" d="M 0 0 M1407.74 1535.98 L1415.38 1535.98 L1415.38 1509.62 L1407.07 1511.29 L1407.07 1507.03 L1415.33 1505.36 L1420.01 1505.36 L1420.01 1535.98 L1427.64 1535.98 L1427.64 1539.92 L1407.74 1539.92 L1407.74 1535.98 Z" fill="#000000" fill-rule="evenodd" fill-opacity="1" /><path clip-path="url(#clip000)" d="M 0 0 M1442.71 1508.44 Q1439.1 1508.44 1437.27 1512 Q1435.47 1515.55 1435.47 1522.67 Q1435.47 1529.78 1437.27 1533.35 Q1439.1 1536.89 1442.71 1536.89 Q1446.35 1536.89 1448.15 1533.35 Q1449.98 1529.78 1449.98 1522.67 Q1449.98 1515.55 1448.15 1512 Q1446.35 1508.44 1442.71 1508.44 M1442.71 1504.73 Q1448.52 1504.73 1451.58 1509.34 Q1454.66 1513.92 1454.66 1522.67 Q1454.66 1531.4 1451.58 1536.01 Q1448.52 1540.59 1442.71 1540.59 Q1436.9 1540.59 1433.83 1536.01 Q1430.77 1531.4 1430.77 1522.67 Q1430.77 1513.92 1433.83 1509.34 Q1436.9 1504.73 1442.71 1504.73 Z" fill="#000000" fill-rule="evenodd" fill-opacity="1" /><path clip-path="url(#clip000)" d="M 0 0 M1473.34 1508.53 Q1468.25 1508.53 1465.24 1512.33 Q1462.25 1516.12 1462.25 1522.67 Q1462.25 1529.2 1465.24 1533 Q1468.25 1536.79 1473.34 1536.79 Q1478.43 1536.79 1481.39 1533 Q1484.38 1529.2 1484.38 1522.67 Q1484.38 1516.12 1481.39 1512.33 Q1478.43 1508.53 1473.34 1508.53 M1479.89 1539.29 L1486.05 1546.03 L1480.4 1546.03 L1475.28 1540.5 Q1474.52 1540.54 1474.1 1540.57 Q1473.71 1540.59 1473.34 1540.59 Q1466.05 1540.59 1461.67 1535.73 Q1457.32 1530.85 1457.32 1522.67 Q1457.32 1514.48 1461.67 1509.62 Q1466.05 1504.73 1473.34 1504.73 Q1480.61 1504.73 1484.96 1509.62 Q1489.31 1514.48 1489.31 1522.67 Q1489.31 1528.69 1486.88 1532.98 Q1484.47 1537.26 1479.89 1539.29 Z" fill="#000000" fill-rule="evenodd" fill-opacity="1" /><path clip-path="url(#clip000)" d="M 0 0 M1508.55 1521.29 Q1511.9 1522 1513.78 1524.27 Q1515.68 1526.54 1515.68 1529.87 Q1515.68 1534.99 1512.16 1537.79 Q1508.64 1540.59 1502.16 1540.59 Q1499.98 1540.59 1497.67 1540.15 Q1495.38 1539.73 1492.92 1538.88 L1492.92 1534.36 Q1494.87 1535.5 1497.18 1536.08 Q1499.5 1536.66 1502.02 1536.66 Q1506.42 1536.66 1508.71 1534.92 Q1511.02 1533.18 1511.02 1529.87 Q1511.02 1526.82 1508.87 1525.11 Q1506.74 1523.37 1502.92 1523.37 L1498.89 1523.37 L1498.89 1519.53 L1503.11 1519.53 Q1506.56 1519.53 1508.39 1518.16 Q1510.21 1516.77 1510.21 1514.18 Q1510.21 1511.52 1508.32 1510.11 Q1506.44 1508.67 1502.92 1508.67 Q1501 1508.67 1498.8 1509.09 Q1496.6 1509.5 1493.96 1510.38 L1493.96 1506.22 Q1496.63 1505.48 1498.94 1505.11 Q1501.28 1504.73 1503.34 1504.73 Q1508.66 1504.73 1511.76 1507.17 Q1514.87 1509.57 1514.87 1513.69 Q1514.87 1516.56 1513.22 1518.55 Q1511.58 1520.52 1508.55 1521.29 Z" fill="#000000" fill-rule="evenodd" fill-opacity="1" /><path clip-path="url(#clip000)" d="M 0 0 M1669.93 1535.98 L1686.25 1535.98 L1686.25 1539.92 L1664.31 1539.92 L1664.31 1535.98 Q1666.97 1533.23 1671.55 1528.6 Q1676.16 1523.95 1677.34 1522.61 Q1679.58 1520.08 1680.46 1518.35 Q1681.37 1516.59 1681.37 1514.9 Q1681.37 1512.14 1679.42 1510.41 Q1677.5 1508.67 1674.4 1508.67 Q1672.2 1508.67 1669.74 1509.43 Q1667.31 1510.2 1664.54 1511.75 L1664.54 1507.03 Q1667.36 1505.89 1669.81 1505.31 Q1672.27 1504.73 1674.31 1504.73 Q1679.68 1504.73 1682.87 1507.42 Q1686.06 1510.11 1686.06 1514.6 Q1686.06 1516.73 1685.25 1518.65 Q1684.47 1520.54 1682.36 1523.14 Q1681.78 1523.81 1678.68 1527.03 Q1675.58 1530.22 1669.93 1535.98 Z" fill="#000000" fill-rule="evenodd" fill-opacity="1" /><path clip-path="url(#clip000)" d="M 0 0 M1701.32 1508.44 Q1697.71 1508.44 1695.88 1512 Q1694.07 1515.55 1694.07 1522.67 Q1694.07 1529.78 1695.88 1533.35 Q1697.71 1536.89 1701.32 1536.89 Q1704.95 1536.89 1706.76 1533.35 Q1708.59 1529.78 1708.59 1522.67 Q1708.59 1515.55 1706.76 1512 Q1704.95 1508.44 1701.32 1508.44 M1701.32 1504.73 Q1707.13 1504.73 1710.18 1509.34 Q1713.26 1513.92 1713.26 1522.67 Q1713.26 1531.4 1710.18 1536.01 Q1707.13 1540.59 1701.32 1540.59 Q1695.51 1540.59 1692.43 1536.01 Q1689.37 1531.4 1689.37 1522.67 Q1689.37 1513.92 1692.43 1509.34 Q1695.51 1504.73 1701.32 1504.73 Z" fill="#000000" fill-rule="evenodd" fill-opacity="1" /><path clip-path="url(#clip000)" d="M 0 0 M1719.14 1535.98 L1726.78 1535.98 L1726.78 1509.62 L1718.47 1511.29 L1718.47 1507.03 L1726.74 1505.36 L1731.41 1505.36 L1731.41 1535.98 L1739.05 1535.98 L1739.05 1539.92 L1719.14 1539.92 L1719.14 1535.98 Z" fill="#000000" fill-rule="evenodd" fill-opacity="1" /><path clip-path="url(#clip000)" d="M 0 0 M1758.29 1521.29 Q1761.64 1522 1763.52 1524.27 Q1765.42 1526.54 1765.42 1529.87 Q1765.42 1534.99 1761.9 1537.79 Q1758.38 1540.59 1751.9 1540.59 Q1749.72 1540.59 1747.41 1540.15 Q1745.11 1539.73 1742.66 1538.88 L1742.66 1534.36 Q1744.61 1535.5 1746.92 1536.08 Q1749.24 1536.66 1751.76 1536.66 Q1756.16 1536.66 1758.45 1534.92 Q1760.76 1533.18 1760.76 1529.87 Q1760.76 1526.82 1758.61 1525.11 Q1756.48 1523.37 1752.66 1523.37 L1748.63 1523.37 L1748.63 1519.53 L1752.85 1519.53 Q1756.3 1519.53 1758.12 1518.16 Q1759.95 1516.77 1759.95 1514.18 Q1759.95 1511.52 1758.05 1510.11 Q1756.18 1508.67 1752.66 1508.67 Q1750.74 1508.67 1748.54 1509.09 Q1746.34 1509.5 1743.7 1510.38 L1743.7 1506.22 Q1746.36 1505.48 1748.68 1505.11 Q1751.02 1504.73 1753.08 1504.73 Q1758.4 1504.73 1761.5 1507.17 Q1764.61 1509.57 1764.61 1513.69 Q1764.61 1516.56 1762.96 1518.55 Q1761.32 1520.52 1758.29 1521.29 Z" fill="#000000" fill-rule="evenodd" fill-opacity="1" /><path clip-path="url(#clip000)" d="M 0 0 M1784.1 1508.53 Q1779 1508.53 1775.99 1512.33 Q1773.01 1516.12 1773.01 1522.67 Q1773.01 1529.2 1775.99 1533 Q1779 1536.79 1784.1 1536.79 Q1789.19 1536.79 1792.15 1533 Q1795.14 1529.2 1795.14 1522.67 Q1795.14 1516.12 1792.15 1512.33 Q1789.19 1508.53 1784.1 1508.53 M1790.65 1539.29 L1796.8 1546.03 L1791.16 1546.03 L1786.04 1540.5 Q1785.28 1540.54 1784.86 1540.57 Q1784.47 1540.59 1784.1 1540.59 Q1776.8 1540.59 1772.43 1535.73 Q1768.08 1530.85 1768.08 1522.67 Q1768.08 1514.48 1772.43 1509.62 Q1776.8 1504.73 1784.1 1504.73 Q1791.36 1504.73 1795.72 1509.62 Q1800.07 1514.48 1800.07 1522.67 Q1800.07 1528.69 1797.64 1532.98 Q1795.23 1537.26 1790.65 1539.29 Z" fill="#000000" fill-rule="evenodd" fill-opacity="1" /><path clip-path="url(#clip000)" d="M 0 0 M1819.3 1521.29 Q1822.66 1522 1824.54 1524.27 Q1826.43 1526.54 1826.43 1529.87 Q1826.43 1534.99 1822.92 1537.79 Q1819.4 1540.59 1812.92 1540.59 Q1810.74 1540.59 1808.42 1540.15 Q1806.13 1539.73 1803.68 1538.88 L1803.68 1534.36 Q1805.62 1535.5 1807.94 1536.08 Q1810.25 1536.66 1812.78 1536.66 Q1817.17 1536.66 1819.47 1534.92 Q1821.78 1533.18 1821.78 1529.87 Q1821.78 1526.82 1819.63 1525.11 Q1817.5 1523.37 1813.68 1523.37 L1809.65 1523.37 L1809.65 1519.53 L1813.86 1519.53 Q1817.31 1519.53 1819.14 1518.16 Q1820.97 1516.77 1820.97 1514.18 Q1820.97 1511.52 1819.07 1510.11 Q1817.2 1508.67 1813.68 1508.67 Q1811.76 1508.67 1809.56 1509.09 Q1807.36 1509.5 1804.72 1510.38 L1804.72 1506.22 Q1807.38 1505.48 1809.7 1505.11 Q1812.04 1504.73 1814.1 1504.73 Q1819.42 1504.73 1822.52 1507.17 Q1825.62 1509.57 1825.62 1513.69 Q1825.62 1516.56 1823.98 1518.55 Q1822.34 1520.52 1819.3 1521.29 Z" fill="#000000" fill-rule="evenodd" fill-opacity="1" /><path clip-path="url(#clip000)" d="M 0 0 M1980.61 1535.98 L1996.93 1535.98 L1996.93 1539.92 L1974.98 1539.92 L1974.98 1535.98 Q1977.64 1533.23 1982.23 1528.6 Q1986.83 1523.95 1988.01 1522.61 Q1990.26 1520.08 1991.14 1518.35 Q1992.04 1516.59 1992.04 1514.9 Q1992.04 1512.14 1990.1 1510.41 Q1988.18 1508.67 1985.07 1508.67 Q1982.87 1508.67 1980.42 1509.43 Q1977.99 1510.2 1975.21 1511.75 L1975.21 1507.03 Q1978.04 1505.89 1980.49 1505.31 Q1982.94 1504.73 1984.98 1504.73 Q1990.35 1504.73 1993.55 1507.42 Q1996.74 1510.11 1996.74 1514.6 Q1996.74 1516.73 1995.93 1518.65 Q1995.14 1520.54 1993.04 1523.14 Q1992.46 1523.81 1989.36 1527.03 Q1986.25 1530.22 1980.61 1535.98 Z" fill="#000000" fill-rule="evenodd" fill-opacity="1" /><path clip-path="url(#clip000)" d="M 0 0 M2012 1508.44 Q2008.38 1508.44 2006.56 1512 Q2004.75 1515.55 2004.75 1522.67 Q2004.75 1529.78 2006.56 1533.35 Q2008.38 1536.89 2012 1536.89 Q2015.63 1536.89 2017.43 1533.35 Q2019.26 1529.78 2019.26 1522.67 Q2019.26 1515.55 2017.43 1512 Q2015.63 1508.44 2012 1508.44 M2012 1504.73 Q2017.81 1504.73 2020.86 1509.34 Q2023.94 1513.92 2023.94 1522.67 Q2023.94 1531.4 2020.86 1536.01 Q2017.81 1540.59 2012 1540.59 Q2006.18 1540.59 2003.11 1536.01 Q2000.05 1531.4 2000.05 1522.67 Q2000.05 1513.92 2003.11 1509.34 Q2006.18 1504.73 2012 1504.73 Z" fill="#000000" fill-rule="evenodd" fill-opacity="1" /><path clip-path="url(#clip000)" d="M 0 0 M2029.82 1535.98 L2037.46 1535.98 L2037.46 1509.62 L2029.15 1511.29 L2029.15 1507.03 L2037.41 1505.36 L2042.09 1505.36 L2042.09 1535.98 L2049.73 1535.98 L2049.73 1539.92 L2029.82 1539.92 L2029.82 1535.98 Z" fill="#000000" fill-rule="evenodd" fill-opacity="1" /><path clip-path="url(#clip000)" d="M 0 0 M2065.37 1520.78 Q2062.23 1520.78 2060.37 1522.93 Q2058.55 1525.08 2058.55 1528.83 Q2058.55 1532.56 2060.37 1534.73 Q2062.23 1536.89 2065.37 1536.89 Q2068.52 1536.89 2070.35 1534.73 Q2072.2 1532.56 2072.2 1528.83 Q2072.2 1525.08 2070.35 1522.93 Q2068.52 1520.78 2065.37 1520.78 M2074.66 1506.12 L2074.66 1510.38 Q2072.9 1509.55 2071.09 1509.11 Q2069.31 1508.67 2067.55 1508.67 Q2062.92 1508.67 2060.47 1511.8 Q2058.04 1514.92 2057.69 1521.24 Q2059.06 1519.23 2061.12 1518.16 Q2063.18 1517.07 2065.65 1517.07 Q2070.86 1517.07 2073.87 1520.24 Q2076.9 1523.39 2076.9 1528.83 Q2076.9 1534.16 2073.75 1537.37 Q2070.61 1540.59 2065.37 1540.59 Q2059.38 1540.59 2056.21 1536.01 Q2053.04 1531.4 2053.04 1522.67 Q2053.04 1514.48 2056.93 1509.62 Q2060.81 1504.73 2067.37 1504.73 Q2069.12 1504.73 2070.91 1505.08 Q2072.71 1505.43 2074.66 1506.12 Z" fill="#000000" fill-rule="evenodd" fill-opacity="1" /><path clip-path="url(#clip000)" d="M 0 0 M2095.58 1508.53 Q2090.49 1508.53 2087.48 1512.33 Q2084.49 1516.12 2084.49 1522.67 Q2084.49 1529.2 2087.48 1533 Q2090.49 1536.79 2095.58 1536.79 Q2100.68 1536.79 2103.64 1533 Q2106.62 1529.2 2106.62 1522.67 Q2106.62 1516.12 2103.64 1512.33 Q2100.68 1508.53 2095.58 1508.53 M2102.13 1539.29 L2108.29 1546.03 L2102.64 1546.03 L2097.53 1540.5 Q2096.76 1540.54 2096.35 1540.57 Q2095.95 1540.59 2095.58 1540.59 Q2088.29 1540.59 2083.92 1535.73 Q2079.56 1530.85 2079.56 1522.67 Q2079.56 1514.48 2083.92 1509.62 Q2088.29 1504.73 2095.58 1504.73 Q2102.85 1504.73 2107.2 1509.62 Q2111.55 1514.48 2111.55 1522.67 Q2111.55 1528.69 2109.12 1532.98 Q2106.72 1537.26 2102.13 1539.29 Z" fill="#000000" fill-rule="evenodd" fill-opacity="1" /><path clip-path="url(#clip000)" d="M 0 0 M2130.79 1521.29 Q2134.15 1522 2136.02 1524.27 Q2137.92 1526.54 2137.92 1529.87 Q2137.92 1534.99 2134.4 1537.79 Q2130.88 1540.59 2124.4 1540.59 Q2122.23 1540.59 2119.91 1540.15 Q2117.62 1539.73 2115.17 1538.88 L2115.17 1534.36 Q2117.11 1535.5 2119.43 1536.08 Q2121.74 1536.66 2124.26 1536.66 Q2128.66 1536.66 2130.95 1534.92 Q2133.27 1533.18 2133.27 1529.87 Q2133.27 1526.82 2131.11 1525.11 Q2128.99 1523.37 2125.17 1523.37 L2121.14 1523.37 L2121.14 1519.53 L2125.35 1519.53 Q2128.8 1519.53 2130.63 1518.16 Q2132.46 1516.77 2132.46 1514.18 Q2132.46 1511.52 2130.56 1510.11 Q2128.68 1508.67 2125.17 1508.67 Q2123.24 1508.67 2121.05 1509.09 Q2118.85 1509.5 2116.21 1510.38 L2116.21 1506.22 Q2118.87 1505.48 2121.18 1505.11 Q2123.52 1504.73 2125.58 1504.73 Q2130.91 1504.73 2134.01 1507.17 Q2137.11 1509.57 2137.11 1513.69 Q2137.11 1516.56 2135.47 1518.55 Q2133.82 1520.52 2130.79 1521.29 Z" fill="#000000" fill-rule="evenodd" fill-opacity="1" /><path clip-path="url(#clip000)" d="M 0 0 M62.9921 1450.93 L75.4689 1450.93 L75.4689 1454.73 L62.9921 1454.73 L62.9921 1450.93 Z" fill="#000000" fill-rule="evenodd" fill-opacity="1" /><path clip-path="url(#clip000)" d="M 0 0 M93.3855 1435.33 L81.58 1453.78 L93.3855 1453.78 L93.3855 1435.33 M92.1586 1431.26 L98.0382 1431.26 L98.0382 1453.78 L102.969 1453.78 L102.969 1457.67 L98.0382 1457.67 L98.0382 1465.82 L93.3855 1465.82 L93.3855 1457.67 L77.7837 1457.67 L77.7837 1453.15 L92.1586 1431.26 Z" fill="#000000" fill-rule="evenodd" fill-opacity="1" /><path clip-path="url(#clip000)" d="M 0 0 M64.1264 1250.95 L76.6032 1250.95 L76.6032 1254.75 L64.1264 1254.75 L64.1264 1250.95 Z" fill="#000000" fill-rule="evenodd" fill-opacity="1" /><path clip-path="url(#clip000)" d="M 0 0 M95.8392 1247.2 Q99.1956 1247.92 101.071 1250.19 Q102.969 1252.46 102.969 1255.79 Q102.969 1260.91 99.4503 1263.71 Q95.9318 1266.51 89.4503 1266.51 Q87.2744 1266.51 84.9596 1266.07 Q82.6679 1265.65 80.2143 1264.8 L80.2143 1260.28 Q82.1587 1261.42 84.4735 1261.99 Q86.7883 1262.57 89.3114 1262.57 Q93.7096 1262.57 96.0012 1260.84 Q98.316 1259.1 98.316 1255.79 Q98.316 1252.74 96.1632 1251.02 Q94.0336 1249.29 90.2142 1249.29 L86.1864 1249.29 L86.1864 1245.44 L90.3994 1245.44 Q93.8484 1245.44 95.6771 1244.08 Q97.5058 1242.69 97.5058 1240.1 Q97.5058 1237.43 95.6077 1236.02 Q93.7327 1234.59 90.2142 1234.59 Q88.2929 1234.59 86.0939 1235 Q83.8948 1235.42 81.2559 1236.3 L81.2559 1232.13 Q83.9179 1231.39 86.2327 1231.02 Q88.5707 1230.65 90.6309 1230.65 Q95.9549 1230.65 99.0567 1233.08 Q102.159 1235.49 102.159 1239.61 Q102.159 1242.48 100.515 1244.47 Q98.8716 1246.44 95.8392 1247.2 Z" fill="#000000" fill-rule="evenodd" fill-opacity="1" /><path clip-path="url(#clip000)" d="M 0 0 M65.0754 1050.97 L77.5522 1050.97 L77.5522 1054.77 L65.0754 1054.77 L65.0754 1050.97 Z" fill="#000000" fill-rule="evenodd" fill-opacity="1" /><path clip-path="url(#clip000)" d="M 0 0 M86.6494 1061.92 L102.969 1061.92 L102.969 1065.86 L81.0244 1065.86 L81.0244 1061.92 Q83.6865 1059.17 88.2698 1054.54 Q92.8762 1049.88 94.0568 1048.54 Q96.3021 1046.02 97.1818 1044.28 Q98.0845 1042.52 98.0845 1040.83 Q98.0845 1038.08 96.1401 1036.34 Q94.2188 1034.61 91.117 1034.61 Q88.9179 1034.61 86.4642 1035.37 Q84.0337 1036.13 81.2559 1037.69 L81.2559 1032.96 Q84.08 1031.83 86.5337 1031.25 Q88.9874 1030.67 91.0244 1030.67 Q96.3947 1030.67 99.5892 1033.36 Q102.784 1036.04 102.784 1040.53 Q102.784 1042.66 101.973 1044.58 Q101.186 1046.48 99.0799 1049.07 Q98.5012 1049.75 95.3994 1052.96 Q92.2975 1056.16 86.6494 1061.92 Z" fill="#000000" fill-rule="evenodd" fill-opacity="1" /><path clip-path="url(#clip000)" d="M 0 0 M64.7051 850.993 L77.1819 850.993 L77.1819 854.789 L64.7051 854.789 L64.7051 850.993 Z" fill="#000000" fill-rule="evenodd" fill-opacity="1" /><path clip-path="url(#clip000)" d="M 0 0 M83.0615 861.942 L90.7003 861.942 L90.7003 835.576 L82.3902 837.243 L82.3902 832.983 L90.654 831.317 L95.3299 831.317 L95.3299 861.942 L102.969 861.942 L102.969 865.877 L83.0615 865.877 L83.0615 861.942 Z" fill="#000000" fill-rule="evenodd" fill-opacity="1" /><path clip-path="url(#clip000)" d="M 0 0 M91.0244 634.415 Q87.4133 634.415 85.5846 637.98 Q83.7791 641.522 83.7791 648.651 Q83.7791 655.758 85.5846 659.323 Q87.4133 662.864 91.0244 662.864 Q94.6586 662.864 96.4642 659.323 Q98.2929 655.758 98.2929 648.651 Q98.2929 641.522 96.4642 637.98 Q94.6586 634.415 91.0244 634.415 M91.0244 630.712 Q96.8345 630.712 99.8901 635.318 Q102.969 639.901 102.969 648.651 Q102.969 657.378 99.8901 661.985 Q96.8345 666.568 91.0244 666.568 Q85.2142 666.568 82.1355 661.985 Q79.08 657.378 79.08 648.651 Q79.08 639.901 82.1355 635.318 Q85.2142 630.712 91.0244 630.712 Z" fill="#000000" fill-rule="evenodd" fill-opacity="1" /><path clip-path="url(#clip000)" d="M 0 0 M83.0615 461.981 L90.7003 461.981 L90.7003 435.616 L82.3902 437.282 L82.3902 433.023 L90.654 431.357 L95.3299 431.357 L95.3299 461.981 L102.969 461.981 L102.969 465.917 L83.0615 465.917 L83.0615 461.981 Z" fill="#000000" fill-rule="evenodd" fill-opacity="1" /><path clip-path="url(#clip000)" d="M 0 0 M86.6494 262.001 L102.969 262.001 L102.969 265.937 L81.0244 265.937 L81.0244 262.001 Q83.6865 259.247 88.2698 254.617 Q92.8762 249.964 94.0568 248.622 Q96.3021 246.099 97.1818 244.363 Q98.0845 242.603 98.0845 240.914 Q98.0845 238.159 96.1401 236.423 Q94.2188 234.687 91.117 234.687 Q88.9179 234.687 86.4642 235.451 Q84.0337 236.214 81.2559 237.765 L81.2559 233.043 Q84.08 231.909 86.5337 231.33 Q88.9874 230.752 91.0244 230.752 Q96.3947 230.752 99.5892 233.437 Q102.784 236.122 102.784 240.613 Q102.784 242.742 101.973 244.664 Q101.186 246.562 99.0799 249.154 Q98.5012 249.826 95.3994 253.043 Q92.2975 256.238 86.6494 262.001 Z" fill="#000000" fill-rule="evenodd" fill-opacity="1" /><path clip-path="url(#clip000)" d="M 0 0 M422.867 8.64 L447.694 8.64 L447.694 13.559 L428.712 13.559 L428.712 26.2904 L445.842 26.2904 L445.842 31.2093 L428.712 31.2093 L428.712 51.84 L422.867 51.84 L422.867 8.64 Z" fill="#000000" fill-rule="evenodd" fill-opacity="1" /><path clip-path="url(#clip000)" d="M 0 0 M448.967 19.4328 L454.291 19.4328 L454.291 51.84 L448.967 51.84 L448.967 19.4328 M448.967 6.81709 L454.291 6.81709 L454.291 13.559 L448.967 13.559 L448.967 6.81709 Z" fill="#000000" fill-rule="evenodd" fill-opacity="1" /><path clip-path="url(#clip000)" d="M 0 0 M481.2 35.2602 Q481.2 29.4732 478.799 26.2904 Q476.426 23.1075 472.115 23.1075 Q467.832 23.1075 465.431 26.2904 Q463.058 29.4732 463.058 35.2602 Q463.058 41.0183 465.431 44.2012 Q467.832 47.384 472.115 47.384 Q476.426 47.384 478.799 44.2012 Q481.2 41.0183 481.2 35.2602 M486.524 47.818 Q486.524 56.0934 482.85 60.1154 Q479.175 64.1663 471.594 64.1663 Q468.787 64.1663 466.299 63.7323 Q463.81 63.3272 461.467 62.4592 L461.467 57.2798 Q463.81 58.5529 466.096 59.1606 Q468.382 59.7682 470.755 59.7682 Q475.992 59.7682 478.596 57.0194 Q481.2 54.2995 481.2 48.7729 L481.2 46.1398 Q479.551 49.0044 476.976 50.4222 Q474.401 51.84 470.813 51.84 Q464.852 51.84 461.206 47.2972 Q457.56 42.7544 457.56 35.2602 Q457.56 27.7371 461.206 23.1943 Q464.852 18.6515 470.813 18.6515 Q474.401 18.6515 476.976 20.0693 Q479.551 21.4872 481.2 24.3517 L481.2 19.4328 L486.524 19.4328 L486.524 47.818 Z" fill="#000000" fill-rule="evenodd" fill-opacity="1" /><path clip-path="url(#clip000)" d="M 0 0 M491.559 39.0507 L491.559 19.4328 L496.883 19.4328 L496.883 38.8482 Q496.883 43.4488 498.677 45.7636 Q500.471 48.0495 504.059 48.0495 Q508.37 48.0495 510.859 45.3007 Q513.376 42.5519 513.376 37.8065 L513.376 19.4328 L518.7 19.4328 L518.7 51.84 L513.376 51.84 L513.376 46.8632 Q511.437 49.8145 508.862 51.2613 Q506.316 52.6791 502.931 52.6791 Q497.346 52.6791 494.453 49.2069 Q491.559 45.7347 491.559 39.0507 M504.956 18.6515 L504.956 18.6515 Z" fill="#000000" fill-rule="evenodd" fill-opacity="1" /><path clip-path="url(#clip000)" d="M 0 0 M543.063 24.4096 Q542.166 23.8888 541.096 23.6573 Q540.054 23.3969 538.781 23.3969 Q534.267 23.3969 531.837 26.3482 Q529.435 29.2707 529.435 34.7683 L529.435 51.84 L524.082 51.84 L524.082 19.4328 L529.435 19.4328 L529.435 24.4675 Q531.113 21.5161 533.804 20.0983 Q536.495 18.6515 540.344 18.6515 Q540.893 18.6515 541.559 18.7383 Q542.224 18.7962 543.034 18.9409 L543.063 24.4096 Z" fill="#000000" fill-rule="evenodd" fill-opacity="1" /><path clip-path="url(#clip000)" d="M 0 0 M575.066 34.3054 L575.066 36.9095 L550.587 36.9095 Q550.934 42.4072 553.885 45.3007 Q556.865 48.1653 562.161 48.1653 Q565.228 48.1653 568.092 47.4129 Q570.986 46.6606 573.821 45.156 L573.821 50.1907 Q570.957 51.406 567.948 52.0425 Q564.938 52.6791 561.842 52.6791 Q554.088 52.6791 549.545 48.1653 Q545.031 43.6514 545.031 35.9547 Q545.031 27.9975 549.313 23.339 Q553.625 18.6515 560.916 18.6515 Q567.456 18.6515 571.246 22.876 Q575.066 27.0716 575.066 34.3054 M569.742 32.7429 Q569.684 28.3737 567.282 25.7695 Q564.909 23.1654 560.974 23.1654 Q556.518 23.1654 553.827 25.6827 Q551.165 28.2001 550.76 32.7718 L569.742 32.7429 Z" fill="#000000" fill-rule="evenodd" fill-opacity="1" /><path clip-path="url(#clip000)" d="M 0 0 M605.274 46.921 L625.673 46.921 L625.673 51.84 L598.243 51.84 L598.243 46.921 Q601.57 43.4778 607.299 37.6908 Q613.057 31.8748 614.533 30.1966 Q617.34 27.0427 618.439 24.8726 Q619.568 22.6735 619.568 20.5612 Q619.568 17.118 617.137 14.9478 Q614.735 12.7777 610.858 12.7777 Q608.109 12.7777 605.042 13.7326 Q602.004 14.6874 598.532 16.6261 L598.532 10.7233 Q602.062 9.30551 605.129 8.58213 Q608.196 7.85875 610.742 7.85875 Q617.455 7.85875 621.448 11.2152 Q625.441 14.5717 625.441 20.1851 Q625.441 22.8471 624.429 25.2487 Q623.445 27.6214 620.812 30.8621 Q620.088 31.7012 616.211 35.7232 Q612.334 39.7162 605.274 46.921 Z" fill="#000000" fill-rule="evenodd" fill-opacity="1" /><path clip-path="url(#clip000)" d="M 0 0 M632.617 44.4905 L638.723 44.4905 L638.723 51.84 L632.617 51.84 L632.617 44.4905 M632.617 21.1978 L638.723 21.1978 L638.723 28.5473 L632.617 28.5473 L632.617 21.1978 Z" fill="#000000" fill-rule="evenodd" fill-opacity="1" /><path clip-path="url(#clip000)" d="M 0 0 M663.375 8.64 L671.246 8.64 L690.401 44.7799 L690.401 8.64 L696.072 8.64 L696.072 51.84 L688.202 51.84 L669.047 15.7001 L669.047 51.84 L663.375 51.84 L663.375 8.64 Z" fill="#000000" fill-rule="evenodd" fill-opacity="1" /><path clip-path="url(#clip000)" d="M 0 0 M729.376 34.3054 L729.376 36.9095 L704.897 36.9095 Q705.244 42.4072 708.196 45.3007 Q711.176 48.1653 716.471 48.1653 Q719.538 48.1653 722.403 47.4129 Q725.296 46.6606 728.132 45.156 L728.132 50.1907 Q725.267 51.406 722.258 52.0425 Q719.249 52.6791 716.153 52.6791 Q708.398 52.6791 703.855 48.1653 Q699.342 43.6514 699.342 35.9547 Q699.342 27.9975 703.624 23.339 Q707.935 18.6515 715.227 18.6515 Q721.766 18.6515 725.557 22.876 Q729.376 27.0716 729.376 34.3054 M724.052 32.7429 Q723.994 28.3737 721.593 25.7695 Q719.22 23.1654 715.285 23.1654 Q710.829 23.1654 708.138 25.6827 Q705.476 28.2001 705.071 32.7718 L724.052 32.7429 Z" fill="#000000" fill-rule="evenodd" fill-opacity="1" /><path clip-path="url(#clip000)" d="M 0 0 M731.864 19.4328 L737.189 19.4328 L743.844 44.722 L750.47 19.4328 L756.749 19.4328 L763.404 44.722 L770.03 19.4328 L775.354 19.4328 L766.876 51.84 L760.597 51.84 L753.624 25.2776 L746.621 51.84 L740.342 51.84 L731.864 19.4328 Z" fill="#000000" fill-rule="evenodd" fill-opacity="1" /><path clip-path="url(#clip000)" d="M 0 0 M801.598 20.3876 L801.598 25.4223 Q799.341 24.2649 796.91 23.6862 Q794.48 23.1075 791.876 23.1075 Q787.912 23.1075 785.915 24.3228 Q783.948 25.5381 783.948 27.9686 Q783.948 29.8204 785.365 30.891 Q786.783 31.9327 791.066 32.8876 L792.888 33.2926 Q798.56 34.5079 800.932 36.7359 Q803.334 38.935 803.334 42.8991 Q803.334 47.4129 799.746 50.046 Q796.187 52.6791 789.937 52.6791 Q787.333 52.6791 784.497 52.1583 Q781.691 51.6664 778.566 50.6537 L778.566 45.156 Q781.517 46.6896 784.382 47.4708 Q787.246 48.2231 790.053 48.2231 Q793.814 48.2231 795.84 46.95 Q797.865 45.6479 797.865 43.3042 Q797.865 41.134 796.39 39.9766 Q794.943 38.8192 789.995 37.7486 L788.143 37.3146 Q783.195 36.273 780.996 34.1318 Q778.797 31.9616 778.797 28.2001 Q778.797 23.6283 782.038 21.1399 Q785.279 18.6515 791.239 18.6515 Q794.191 18.6515 796.795 19.0855 Q799.399 19.5196 801.598 20.3876 Z" fill="#000000" fill-rule="evenodd" fill-opacity="1" /><path clip-path="url(#clip000)" d="M 0 0 M806.228 33.2348 L821.823 33.2348 L821.823 37.9801 L806.228 37.9801 L806.228 33.2348 Z" fill="#000000" fill-rule="evenodd" fill-opacity="1" /><path clip-path="url(#clip000)" d="M 0 0 M842.136 35.5496 Q835.683 35.5496 833.195 37.0253 Q830.707 38.501 830.707 42.06 Q830.707 44.8956 832.558 46.5738 Q834.439 48.2231 837.651 48.2231 Q842.078 48.2231 844.74 45.0981 Q847.431 41.9442 847.431 36.7359 L847.431 35.5496 L842.136 35.5496 M852.755 33.3505 L852.755 51.84 L847.431 51.84 L847.431 46.921 Q845.608 49.8724 842.888 51.2902 Q840.168 52.6791 836.233 52.6791 Q831.256 52.6791 828.305 49.9014 Q825.382 47.0947 825.382 42.4072 Q825.382 36.9385 829.028 34.1607 Q832.703 31.3829 839.966 31.3829 L847.431 31.3829 L847.431 30.8621 Q847.431 27.1874 845 25.1908 Q842.599 23.1654 838.23 23.1654 Q835.452 23.1654 832.819 23.8309 Q830.186 24.4964 827.755 25.8274 L827.755 20.9085 Q830.678 19.78 833.426 19.2302 Q836.175 18.6515 838.779 18.6515 Q845.811 18.6515 849.283 22.2973 Q852.755 25.9431 852.755 33.3505 Z" fill="#000000" fill-rule="evenodd" fill-opacity="1" /><path clip-path="url(#clip000)" d="M 0 0 M857.79 39.0507 L857.79 19.4328 L863.114 19.4328 L863.114 38.8482 Q863.114 43.4488 864.908 45.7636 Q866.702 48.0495 870.29 48.0495 Q874.601 48.0495 877.089 45.3007 Q879.607 42.5519 879.607 37.8065 L879.607 19.4328 L884.931 19.4328 L884.931 51.84 L879.607 51.84 L879.607 46.8632 Q877.668 49.8145 875.093 51.2613 Q872.547 52.6791 869.161 52.6791 Q863.577 52.6791 860.683 49.2069 Q857.79 45.7347 857.79 39.0507 M871.187 18.6515 L871.187 18.6515 Z" fill="#000000" fill-rule="evenodd" fill-opacity="1" /><path clip-path="url(#clip000)" d="M 0 0 M911.84 35.2602 Q911.84 29.4732 909.439 26.2904 Q907.066 23.1075 902.755 23.1075 Q898.472 23.1075 896.071 26.2904 Q893.698 29.4732 893.698 35.2602 Q893.698 41.0183 896.071 44.2012 Q898.472 47.384 902.755 47.384 Q907.066 47.384 909.439 44.2012 Q911.84 41.0183 911.84 35.2602 M917.164 47.818 Q917.164 56.0934 913.49 60.1154 Q909.815 64.1663 902.234 64.1663 Q899.427 64.1663 896.939 63.7323 Q894.45 63.3272 892.107 62.4592 L892.107 57.2798 Q894.45 58.5529 896.736 59.1606 Q899.022 59.7682 901.395 59.7682 Q906.632 59.7682 909.236 57.0194 Q911.84 54.2995 911.84 48.7729 L911.84 46.1398 Q910.191 49.0044 907.616 50.4222 Q905.041 51.84 901.453 51.84 Q895.492 51.84 891.846 47.2972 Q888.2 42.7544 888.2 35.2602 Q888.2 27.7371 891.846 23.1943 Q895.492 18.6515 901.453 18.6515 Q905.041 18.6515 907.616 20.0693 Q910.191 21.4872 911.84 24.3517 L911.84 19.4328 L917.164 19.4328 L917.164 47.818 Z" fill="#000000" fill-rule="evenodd" fill-opacity="1" /><path clip-path="url(#clip000)" d="M 0 0 M947.98 25.6538 Q949.977 22.0659 952.754 20.3587 Q955.532 18.6515 959.294 18.6515 Q964.357 18.6515 967.106 22.2105 Q969.855 25.7406 969.855 32.2799 L969.855 51.84 L964.502 51.84 L964.502 32.4535 Q964.502 27.795 962.853 25.5381 Q961.204 23.2811 957.818 23.2811 Q953.68 23.2811 951.279 26.03 Q948.877 28.7788 948.877 33.5241 L948.877 51.84 L943.524 51.84 L943.524 32.4535 Q943.524 27.7661 941.875 25.5381 Q940.226 23.2811 936.782 23.2811 Q932.703 23.2811 930.301 26.0589 Q927.899 28.8077 927.899 33.5241 L927.899 51.84 L922.546 51.84 L922.546 19.4328 L927.899 19.4328 L927.899 24.4675 Q929.722 21.4872 932.268 20.0693 Q934.815 18.6515 938.316 18.6515 Q941.846 18.6515 944.305 20.4455 Q946.794 22.2395 947.98 25.6538 Z" fill="#000000" fill-rule="evenodd" fill-opacity="1" /><path clip-path="url(#clip000)" d="M 0 0 M1003.16 34.3054 L1003.16 36.9095 L978.68 36.9095 Q979.028 42.4072 981.979 45.3007 Q984.959 48.1653 990.254 48.1653 Q993.321 48.1653 996.186 47.4129 Q999.079 46.6606 1001.92 45.156 L1001.92 50.1907 Q999.051 51.406 996.041 52.0425 Q993.032 52.6791 989.936 52.6791 Q982.181 52.6791 977.639 48.1653 Q973.125 43.6514 973.125 35.9547 Q973.125 27.9975 977.407 23.339 Q981.718 18.6515 989.01 18.6515 Q995.549 18.6515 999.34 22.876 Q1003.16 27.0716 1003.16 34.3054 M997.835 32.7429 Q997.777 28.3737 995.376 25.7695 Q993.003 23.1654 989.068 23.1654 Q984.612 23.1654 981.921 25.6827 Q979.259 28.2001 978.854 32.7718 L997.835 32.7429 Z" fill="#000000" fill-rule="evenodd" fill-opacity="1" /><path clip-path="url(#clip000)" d="M 0 0 M1035.68 32.2799 L1035.68 51.84 L1030.36 51.84 L1030.36 32.4535 Q1030.36 27.8529 1028.56 25.567 Q1026.77 23.2811 1023.18 23.2811 Q1018.87 23.2811 1016.38 26.03 Q1013.89 28.7788 1013.89 33.5241 L1013.89 51.84 L1008.54 51.84 L1008.54 19.4328 L1013.89 19.4328 L1013.89 24.4675 Q1015.8 21.545 1018.38 20.0983 Q1020.98 18.6515 1024.37 18.6515 Q1029.95 18.6515 1032.82 22.1237 Q1035.68 25.567 1035.68 32.2799 Z" fill="#000000" fill-rule="evenodd" fill-opacity="1" /><path clip-path="url(#clip000)" d="M 0 0 M1046.53 10.2314 L1046.53 19.4328 L1057.5 19.4328 L1057.5 23.5705 L1046.53 23.5705 L1046.53 41.163 Q1046.53 45.1271 1047.6 46.2555 Q1048.7 47.384 1052.03 47.384 L1057.5 47.384 L1057.5 51.84 L1052.03 51.84 Q1045.87 51.84 1043.52 49.5541 Q1041.18 47.2393 1041.18 41.163 L1041.18 23.5705 L1037.27 23.5705 L1037.27 19.4328 L1041.18 19.4328 L1041.18 10.2314 L1046.53 10.2314 Z" fill="#000000" fill-rule="evenodd" fill-opacity="1" /><path clip-path="url(#clip000)" d="M 0 0 M1090.8 34.3054 L1090.8 36.9095 L1066.32 36.9095 Q1066.67 42.4072 1069.62 45.3007 Q1072.6 48.1653 1077.9 48.1653 Q1080.97 48.1653 1083.83 47.4129 Q1086.72 46.6606 1089.56 45.156 L1089.56 50.1907 Q1086.69 51.406 1083.69 52.0425 Q1080.68 52.6791 1077.58 52.6791 Q1069.83 52.6791 1065.28 48.1653 Q1060.77 43.6514 1060.77 35.9547 Q1060.77 27.9975 1065.05 23.339 Q1069.36 18.6515 1076.65 18.6515 Q1083.19 18.6515 1086.98 22.876 Q1090.8 27.0716 1090.8 34.3054 M1085.48 32.7429 Q1085.42 28.3737 1083.02 25.7695 Q1080.65 23.1654 1076.71 23.1654 Q1072.26 23.1654 1069.57 25.6827 Q1066.9 28.2001 1066.5 32.7718 L1085.48 32.7429 Z" fill="#000000" fill-rule="evenodd" fill-opacity="1" /><path clip-path="url(#clip000)" d="M 0 0 M1117.71 24.3517 L1117.71 6.81709 L1123.04 6.81709 L1123.04 51.84 L1117.71 51.84 L1117.71 46.9789 Q1116.03 49.8724 1113.46 51.2902 Q1110.91 52.6791 1107.33 52.6791 Q1101.45 52.6791 1097.75 47.9916 Q1094.07 43.3042 1094.07 35.6653 Q1094.07 28.0265 1097.75 23.339 Q1101.45 18.6515 1107.33 18.6515 Q1110.91 18.6515 1113.46 20.0693 Q1116.03 21.4582 1117.71 24.3517 M1099.57 35.6653 Q1099.57 41.5391 1101.97 44.8956 Q1104.4 48.2231 1108.63 48.2231 Q1112.85 48.2231 1115.28 44.8956 Q1117.71 41.5391 1117.71 35.6653 Q1117.71 29.7915 1115.28 26.464 Q1112.85 23.1075 1108.63 23.1075 Q1104.4 23.1075 1101.97 26.464 Q1099.57 29.7915 1099.57 35.6653 Z" fill="#000000" fill-rule="evenodd" fill-opacity="1" /><path clip-path="url(#clip000)" d="M 0 0 M1170.78 20.677 L1170.78 25.6538 Q1168.52 24.4096 1166.24 23.802 Q1163.98 23.1654 1161.67 23.1654 Q1156.49 23.1654 1153.62 26.464 Q1150.76 29.7336 1150.76 35.6653 Q1150.76 41.597 1153.62 44.8956 Q1156.49 48.1653 1161.67 48.1653 Q1163.98 48.1653 1166.24 47.5576 Q1168.52 46.921 1170.78 45.6768 L1170.78 50.5958 Q1168.55 51.6375 1166.15 52.1583 Q1163.78 52.6791 1161.09 52.6791 Q1153.77 52.6791 1149.45 48.0784 Q1145.14 43.4778 1145.14 35.6653 Q1145.14 27.7371 1149.48 23.1943 Q1153.85 18.6515 1161.43 18.6515 Q1163.89 18.6515 1166.24 19.1724 Q1168.58 19.6642 1170.78 20.677 Z" fill="#000000" fill-rule="evenodd" fill-opacity="1" /><path clip-path="url(#clip000)" d="M 0 0 M1188.92 23.1654 Q1184.64 23.1654 1182.15 26.5218 Q1179.66 29.8494 1179.66 35.6653 Q1179.66 41.4813 1182.12 44.8377 Q1184.61 48.1653 1188.92 48.1653 Q1193.18 48.1653 1195.66 44.8088 Q1198.15 41.4523 1198.15 35.6653 Q1198.15 29.9072 1195.66 26.5508 Q1193.18 23.1654 1188.92 23.1654 M1188.92 18.6515 Q1195.87 18.6515 1199.83 23.1654 Q1203.79 27.6792 1203.79 35.6653 Q1203.79 43.6225 1199.83 48.1653 Q1195.87 52.6791 1188.92 52.6791 Q1181.95 52.6791 1177.98 48.1653 Q1174.05 43.6225 1174.05 35.6653 Q1174.05 27.6792 1177.98 23.1654 Q1181.95 18.6515 1188.92 18.6515 Z" fill="#000000" fill-rule="evenodd" fill-opacity="1" /><path clip-path="url(#clip000)" d="M 0 0 M1234.61 25.6538 Q1236.61 22.0659 1239.38 20.3587 Q1242.16 18.6515 1245.92 18.6515 Q1250.99 18.6515 1253.74 22.2105 Q1256.49 25.7406 1256.49 32.2799 L1256.49 51.84 L1251.13 51.84 L1251.13 32.4535 Q1251.13 27.795 1249.48 25.5381 Q1247.83 23.2811 1244.45 23.2811 Q1240.31 23.2811 1237.91 26.03 Q1235.51 28.7788 1235.51 33.5241 L1235.51 51.84 L1230.15 51.84 L1230.15 32.4535 Q1230.15 27.7661 1228.51 25.5381 Q1226.86 23.2811 1223.41 23.2811 Q1219.33 23.2811 1216.93 26.0589 Q1214.53 28.8077 1214.53 33.5241 L1214.53 51.84 L1209.18 51.84 L1209.18 19.4328 L1214.53 19.4328 L1214.53 24.4675 Q1216.35 21.4872 1218.9 20.0693 Q1221.45 18.6515 1224.95 18.6515 Q1228.48 18.6515 1230.94 20.4455 Q1233.42 22.2395 1234.61 25.6538 Z" fill="#000000" fill-rule="evenodd" fill-opacity="1" /><path clip-path="url(#clip000)" d="M 0 0 M1287.3 25.6538 Q1289.3 22.0659 1292.08 20.3587 Q1294.85 18.6515 1298.61 18.6515 Q1303.68 18.6515 1306.43 22.2105 Q1309.18 25.7406 1309.18 32.2799 L1309.18 51.84 L1303.82 51.84 L1303.82 32.4535 Q1303.82 27.795 1302.17 25.5381 Q1300.52 23.2811 1297.14 23.2811 Q1293 23.2811 1290.6 26.03 Q1288.2 28.7788 1288.2 33.5241 L1288.2 51.84 L1282.85 51.84 L1282.85 32.4535 Q1282.85 27.7661 1281.2 25.5381 Q1279.55 23.2811 1276.1 23.2811 Q1272.02 23.2811 1269.62 26.0589 Q1267.22 28.8077 1267.22 33.5241 L1267.22 51.84 L1261.87 51.84 L1261.87 19.4328 L1267.22 19.4328 L1267.22 24.4675 Q1269.04 21.4872 1271.59 20.0693 Q1274.14 18.6515 1277.64 18.6515 Q1281.17 18.6515 1283.63 20.4455 Q1286.11 22.2395 1287.3 25.6538 Z" fill="#000000" fill-rule="evenodd" fill-opacity="1" /><path clip-path="url(#clip000)" d="M 0 0 M1327.32 23.1654 Q1323.04 23.1654 1320.55 26.5218 Q1318.06 29.8494 1318.06 35.6653 Q1318.06 41.4813 1320.52 44.8377 Q1323.01 48.1653 1327.32 48.1653 Q1331.57 48.1653 1334.06 44.8088 Q1336.55 41.4523 1336.55 35.6653 Q1336.55 29.9072 1334.06 26.5508 Q1331.57 23.1654 1327.32 23.1654 M1327.32 18.6515 Q1334.26 18.6515 1338.23 23.1654 Q1342.19 27.6792 1342.19 35.6653 Q1342.19 43.6225 1338.23 48.1653 Q1334.26 52.6791 1327.32 52.6791 Q1320.35 52.6791 1316.38 48.1653 Q1312.45 43.6225 1312.45 35.6653 Q1312.45 27.6792 1316.38 23.1654 Q1320.35 18.6515 1327.32 18.6515 Z" fill="#000000" fill-rule="evenodd" fill-opacity="1" /><path clip-path="url(#clip000)" d="M 0 0 M1369.1 24.3517 L1369.1 6.81709 L1374.42 6.81709 L1374.42 51.84 L1369.1 51.84 L1369.1 46.9789 Q1367.42 49.8724 1364.85 51.2902 Q1362.3 52.6791 1358.71 52.6791 Q1352.84 52.6791 1349.14 47.9916 Q1345.46 43.3042 1345.46 35.6653 Q1345.46 28.0265 1349.14 23.339 Q1352.84 18.6515 1358.71 18.6515 Q1362.3 18.6515 1364.85 20.0693 Q1367.42 21.4582 1369.1 24.3517 M1350.96 35.6653 Q1350.96 41.5391 1353.36 44.8956 Q1355.79 48.2231 1360.02 48.2231 Q1364.24 48.2231 1366.67 44.8956 Q1369.1 41.5391 1369.1 35.6653 Q1369.1 29.7915 1366.67 26.464 Q1364.24 23.1075 1360.02 23.1075 Q1355.79 23.1075 1353.36 26.464 Q1350.96 29.7915 1350.96 35.6653 Z" fill="#000000" fill-rule="evenodd" fill-opacity="1" /><path clip-path="url(#clip000)" d="M 0 0 M1380.01 19.4328 L1385.33 19.4328 L1385.33 51.84 L1380.01 51.84 L1380.01 19.4328 M1380.01 6.81709 L1385.33 6.81709 L1385.33 13.559 L1380.01 13.559 L1380.01 6.81709 Z" fill="#000000" fill-rule="evenodd" fill-opacity="1" /><path clip-path="url(#clip000)" d="M 0 0 M1396.18 10.2314 L1396.18 19.4328 L1407.15 19.4328 L1407.15 23.5705 L1396.18 23.5705 L1396.18 41.163 Q1396.18 45.1271 1397.25 46.2555 Q1398.35 47.384 1401.68 47.384 L1407.15 47.384 L1407.15 51.84 L1401.68 51.84 Q1395.52 51.84 1393.17 49.5541 Q1390.83 47.2393 1390.83 41.163 L1390.83 23.5705 L1386.92 23.5705 L1386.92 19.4328 L1390.83 19.4328 L1390.83 10.2314 L1396.18 10.2314 Z" fill="#000000" fill-rule="evenodd" fill-opacity="1" /><path clip-path="url(#clip000)" d="M 0 0 M1426.22 54.8492 Q1423.96 60.6362 1421.82 62.4013 Q1419.68 64.1663 1416.09 64.1663 L1411.84 64.1663 L1411.84 59.7103 L1414.96 59.7103 Q1417.16 59.7103 1418.38 58.6687 Q1419.59 57.627 1421.07 53.7497 L1422.02 51.3192 L1408.92 19.4328 L1414.56 19.4328 L1424.68 44.7799 L1434.81 19.4328 L1440.45 19.4328 L1426.22 54.8492 Z" fill="#000000" fill-rule="evenodd" fill-opacity="1" /><path clip-path="url(#clip000)" d="M 0 0 M1485.54 20.3876 L1485.54 25.4223 Q1483.28 24.2649 1480.85 23.6862 Q1478.42 23.1075 1475.81 23.1075 Q1471.85 23.1075 1469.85 24.3228 Q1467.88 25.5381 1467.88 27.9686 Q1467.88 29.8204 1469.3 30.891 Q1470.72 31.9327 1475 32.8876 L1476.83 33.2926 Q1482.5 34.5079 1484.87 36.7359 Q1487.27 38.935 1487.27 42.8991 Q1487.27 47.4129 1483.68 50.046 Q1480.12 52.6791 1473.87 52.6791 Q1471.27 52.6791 1468.43 52.1583 Q1465.63 51.6664 1462.5 50.6537 L1462.5 45.156 Q1465.45 46.6896 1468.32 47.4708 Q1471.18 48.2231 1473.99 48.2231 Q1477.75 48.2231 1479.78 46.95 Q1481.8 45.6479 1481.8 43.3042 Q1481.8 41.134 1480.33 39.9766 Q1478.88 38.8192 1473.93 37.7486 L1472.08 37.3146 Q1467.13 36.273 1464.93 34.1318 Q1462.73 31.9616 1462.73 28.2001 Q1462.73 23.6283 1465.98 21.1399 Q1469.22 18.6515 1475.18 18.6515 Q1478.13 18.6515 1480.73 19.0855 Q1483.34 19.5196 1485.54 20.3876 Z" fill="#000000" fill-rule="evenodd" fill-opacity="1" /><path clip-path="url(#clip000)" d="M 0 0 M1519.79 32.2799 L1519.79 51.84 L1514.47 51.84 L1514.47 32.4535 Q1514.47 27.8529 1512.68 25.567 Q1510.88 23.2811 1507.29 23.2811 Q1502.98 23.2811 1500.49 26.03 Q1498.01 28.7788 1498.01 33.5241 L1498.01 51.84 L1492.65 51.84 L1492.65 6.81709 L1498.01 6.81709 L1498.01 24.4675 Q1499.92 21.545 1502.49 20.0983 Q1505.1 18.6515 1508.48 18.6515 Q1514.07 18.6515 1516.93 22.1237 Q1519.79 25.567 1519.79 32.2799 Z" fill="#000000" fill-rule="evenodd" fill-opacity="1" /><path clip-path="url(#clip000)" d="M 0 0 M1537.94 23.1654 Q1533.65 23.1654 1531.17 26.5218 Q1528.68 29.8494 1528.68 35.6653 Q1528.68 41.4813 1531.14 44.8377 Q1533.63 48.1653 1537.94 48.1653 Q1542.19 48.1653 1544.68 44.8088 Q1547.17 41.4523 1547.17 35.6653 Q1547.17 29.9072 1544.68 26.5508 Q1542.19 23.1654 1537.94 23.1654 M1537.94 18.6515 Q1544.88 18.6515 1548.85 23.1654 Q1552.81 27.6792 1552.81 35.6653 Q1552.81 43.6225 1548.85 48.1653 Q1544.88 52.6791 1537.94 52.6791 Q1530.96 52.6791 1527 48.1653 Q1523.06 43.6225 1523.06 35.6653 Q1523.06 27.6792 1527 23.1654 Q1530.96 18.6515 1537.94 18.6515 Z" fill="#000000" fill-rule="evenodd" fill-opacity="1" /><path clip-path="url(#clip000)" d="M 0 0 M1581.72 20.677 L1581.72 25.6538 Q1579.46 24.4096 1577.17 23.802 Q1574.92 23.1654 1572.6 23.1654 Q1567.42 23.1654 1564.56 26.464 Q1561.69 29.7336 1561.69 35.6653 Q1561.69 41.597 1564.56 44.8956 Q1567.42 48.1653 1572.6 48.1653 Q1574.92 48.1653 1577.17 47.5576 Q1579.46 46.921 1581.72 45.6768 L1581.72 50.5958 Q1579.49 51.6375 1577.09 52.1583 Q1574.71 52.6791 1572.02 52.6791 Q1564.7 52.6791 1560.39 48.0784 Q1556.08 43.4778 1556.08 35.6653 Q1556.08 27.7371 1560.42 23.1943 Q1564.79 18.6515 1572.37 18.6515 Q1574.83 18.6515 1577.17 19.1724 Q1579.52 19.6642 1581.72 20.677 Z" fill="#000000" fill-rule="evenodd" fill-opacity="1" /><path clip-path="url(#clip000)" d="M 0 0 M1587.1 6.81709 L1592.45 6.81709 L1592.45 33.4084 L1608.34 19.4328 L1615.14 19.4328 L1597.95 34.5947 L1615.86 51.84 L1608.91 51.84 L1592.45 36.0125 L1592.45 51.84 L1587.1 51.84 L1587.1 6.81709 Z" fill="#000000" fill-rule="evenodd" fill-opacity="1" /><path clip-path="url(#clip000)" d="M 0 0 M1642.1 20.3876 L1642.1 25.4223 Q1639.85 24.2649 1637.42 23.6862 Q1634.98 23.1075 1632.38 23.1075 Q1628.42 23.1075 1626.42 24.3228 Q1624.45 25.5381 1624.45 27.9686 Q1624.45 29.8204 1625.87 30.891 Q1627.29 31.9327 1631.57 32.8876 L1633.39 33.2926 Q1639.06 34.5079 1641.44 36.7359 Q1643.84 38.935 1643.84 42.8991 Q1643.84 47.4129 1640.25 50.046 Q1636.69 52.6791 1630.44 52.6791 Q1627.84 52.6791 1625 52.1583 Q1622.2 51.6664 1619.07 50.6537 L1619.07 45.156 Q1622.02 46.6896 1624.89 47.4708 Q1627.75 48.2231 1630.56 48.2231 Q1634.32 48.2231 1636.34 46.95 Q1638.37 45.6479 1638.37 43.3042 Q1638.37 41.134 1636.89 39.9766 Q1635.45 38.8192 1630.5 37.7486 L1628.65 37.3146 Q1623.7 36.273 1621.5 34.1318 Q1619.3 31.9616 1619.3 28.2001 Q1619.3 23.6283 1622.54 21.1399 Q1625.78 18.6515 1631.74 18.6515 Q1634.7 18.6515 1637.3 19.0855 Q1639.9 19.5196 1642.1 20.3876 Z" fill="#000000" fill-rule="evenodd" fill-opacity="1" /><path clip-path="url(#clip000)" d="M 0 0 M1664.44 19.4328 L1670.08 19.4328 L1680.21 46.6317 L1690.34 19.4328 L1695.98 19.4328 L1683.83 51.84 L1676.59 51.84 L1664.44 19.4328 Z" fill="#000000" fill-rule="evenodd" fill-opacity="1" /><path clip-path="url(#clip000)" d="M 0 0 M1722.22 20.3876 L1722.22 25.4223 Q1719.97 24.2649 1717.54 23.6862 Q1715.11 23.1075 1712.5 23.1075 Q1708.54 23.1075 1706.54 24.3228 Q1704.57 25.5381 1704.57 27.9686 Q1704.57 29.8204 1705.99 30.891 Q1707.41 31.9327 1711.69 32.8876 L1713.51 33.2926 Q1719.19 34.5079 1721.56 36.7359 Q1723.96 38.935 1723.96 42.8991 Q1723.96 47.4129 1720.37 50.046 Q1716.81 52.6791 1710.56 52.6791 Q1707.96 52.6791 1705.12 52.1583 Q1702.32 51.6664 1699.19 50.6537 L1699.19 45.156 Q1702.14 46.6896 1705.01 47.4708 Q1707.87 48.2231 1710.68 48.2231 Q1714.44 48.2231 1716.47 46.95 Q1718.49 45.6479 1718.49 43.3042 Q1718.49 41.134 1717.02 39.9766 Q1715.57 38.8192 1710.62 37.7486 L1708.77 37.3146 Q1703.82 36.273 1701.62 34.1318 Q1699.42 31.9616 1699.42 28.2001 Q1699.42 23.6283 1702.66 21.1399 Q1705.9 18.6515 1711.87 18.6515 Q1714.82 18.6515 1717.42 19.0855 Q1720.02 19.5196 1722.22 20.3876 Z" fill="#000000" fill-rule="evenodd" fill-opacity="1" /><path clip-path="url(#clip000)" d="M 0 0 M1778.07 45.6768 L1778.07 34.0739 L1768.52 34.0739 L1768.52 29.2707 L1783.86 29.2707 L1783.86 47.818 Q1780.47 50.2196 1776.39 51.4638 Q1772.31 52.6791 1767.68 52.6791 Q1757.55 52.6791 1751.82 46.7764 Q1746.12 40.8447 1746.12 30.2834 Q1746.12 19.6932 1751.82 13.7904 Q1757.55 7.85875 1767.68 7.85875 Q1771.91 7.85875 1775.7 8.90042 Q1779.52 9.94208 1782.73 11.9675 L1782.73 18.1886 Q1779.49 15.4397 1775.84 14.0509 Q1772.19 12.662 1768.17 12.662 Q1760.24 12.662 1756.25 17.089 Q1752.29 21.5161 1752.29 30.2834 Q1752.29 39.0218 1756.25 43.4488 Q1760.24 47.8759 1768.17 47.8759 Q1771.27 47.8759 1773.7 47.3551 Q1776.13 46.8053 1778.07 45.6768 Z" fill="#000000" fill-rule="evenodd" fill-opacity="1" /><path clip-path="url(#clip000)" d="M 0 0 M1795.23 46.921 L1815.63 46.921 L1815.63 51.84 L1788.2 51.84 L1788.2 46.921 Q1791.52 43.4778 1797.25 37.6908 Q1803.01 31.8748 1804.49 30.1966 Q1807.29 27.0427 1808.39 24.8726 Q1809.52 22.6735 1809.52 20.5612 Q1809.52 17.118 1807.09 14.9478 Q1804.69 12.7777 1800.81 12.7777 Q1798.06 12.7777 1795 13.7326 Q1791.96 14.6874 1788.48 16.6261 L1788.48 10.7233 Q1792.02 9.30551 1795.08 8.58213 Q1798.15 7.85875 1800.7 7.85875 Q1807.41 7.85875 1811.4 11.2152 Q1815.39 14.5717 1815.39 20.1851 Q1815.39 22.8471 1814.38 25.2487 Q1813.4 27.6214 1810.76 30.8621 Q1810.04 31.7012 1806.16 35.7232 Q1802.29 39.7162 1795.23 46.921 Z" fill="#000000" fill-rule="evenodd" fill-opacity="1" /><path clip-path="url(#clip000)" d="M 0 0 M1834.46 12.4884 Q1829.95 12.4884 1827.66 16.9444 Q1825.41 21.3714 1825.41 30.2834 Q1825.41 39.1665 1827.66 43.6225 Q1829.95 48.0495 1834.46 48.0495 Q1839.01 48.0495 1841.26 43.6225 Q1843.55 39.1665 1843.55 30.2834 Q1843.55 21.3714 1841.26 16.9444 Q1839.01 12.4884 1834.46 12.4884 M1834.46 7.85875 Q1841.73 7.85875 1845.54 13.6168 Q1849.39 19.346 1849.39 30.2834 Q1849.39 41.1919 1845.54 46.95 Q1841.73 52.6791 1834.46 52.6791 Q1827.2 52.6791 1823.35 46.95 Q1819.53 41.1919 1819.53 30.2834 Q1819.53 19.346 1823.35 13.6168 Q1827.2 7.85875 1834.46 7.85875 Z" fill="#000000" fill-rule="evenodd" fill-opacity="1" /><path clip-path="url(#clip000)" d="M 0 0 M1895.14 35.2602 Q1895.14 29.4732 1892.74 26.2904 Q1890.37 23.1075 1886.05 23.1075 Q1881.77 23.1075 1879.37 26.2904 Q1877 29.4732 1877 35.2602 Q1877 41.0183 1879.37 44.2012 Q1881.77 47.384 1886.05 47.384 Q1890.37 47.384 1892.74 44.2012 Q1895.14 41.0183 1895.14 35.2602 M1900.46 47.818 Q1900.46 56.0934 1896.79 60.1154 Q1893.11 64.1663 1885.53 64.1663 Q1882.73 64.1663 1880.24 63.7323 Q1877.75 63.3272 1875.41 62.4592 L1875.41 57.2798 Q1877.75 58.5529 1880.04 59.1606 Q1882.32 59.7682 1884.69 59.7682 Q1889.93 59.7682 1892.54 57.0194 Q1895.14 54.2995 1895.14 48.7729 L1895.14 46.1398 Q1893.49 49.0044 1890.91 50.4222 Q1888.34 51.84 1884.75 51.84 Q1878.79 51.84 1875.15 47.2972 Q1871.5 42.7544 1871.5 35.2602 Q1871.5 27.7371 1875.15 23.1943 Q1878.79 18.6515 1884.75 18.6515 Q1888.34 18.6515 1890.91 20.0693 Q1893.49 21.4872 1895.14 24.3517 L1895.14 19.4328 L1900.46 19.4328 L1900.46 47.818 Z" fill="#000000" fill-rule="evenodd" fill-opacity="1" /><path clip-path="url(#clip000)" d="M 0 0 M1924.83 24.4096 Q1923.93 23.8888 1922.86 23.6573 Q1921.82 23.3969 1920.54 23.3969 Q1916.03 23.3969 1913.6 26.3482 Q1911.2 29.2707 1911.2 34.7683 L1911.2 51.84 L1905.85 51.84 L1905.85 19.4328 L1911.2 19.4328 L1911.2 24.4675 Q1912.88 21.5161 1915.57 20.0983 Q1918.26 18.6515 1922.11 18.6515 Q1922.66 18.6515 1923.32 18.7383 Q1923.99 18.7962 1924.8 18.9409 L1924.83 24.4096 Z" fill="#000000" fill-rule="evenodd" fill-opacity="1" /><path clip-path="url(#clip000)" d="M 0 0 M1941.67 23.1654 Q1937.38 23.1654 1934.9 26.5218 Q1932.41 29.8494 1932.41 35.6653 Q1932.41 41.4813 1934.87 44.8377 Q1937.36 48.1653 1941.67 48.1653 Q1945.92 48.1653 1948.41 44.8088 Q1950.9 41.4523 1950.9 35.6653 Q1950.9 29.9072 1948.41 26.5508 Q1945.92 23.1654 1941.67 23.1654 M1941.67 18.6515 Q1948.61 18.6515 1952.58 23.1654 Q1956.54 27.6792 1956.54 35.6653 Q1956.54 43.6225 1952.58 48.1653 Q1948.61 52.6791 1941.67 52.6791 Q1934.69 52.6791 1930.73 48.1653 Q1926.79 43.6225 1926.79 35.6653 Q1926.79 27.6792 1930.73 23.1654 Q1934.69 18.6515 1941.67 18.6515 Z" fill="#000000" fill-rule="evenodd" fill-opacity="1" /><path clip-path="url(#clip000)" d="M 0 0 M1959.03 19.4328 L1964.35 19.4328 L1971.01 44.722 L1977.63 19.4328 L1983.91 19.4328 L1990.57 44.722 L1997.19 19.4328 L2002.52 19.4328 L1994.04 51.84 L1987.76 51.84 L1980.79 25.2776 L1973.78 51.84 L1967.51 51.84 L1959.03 19.4328 Z" fill="#000000" fill-rule="evenodd" fill-opacity="1" /><path clip-path="url(#clip000)" d="M 0 0 M2013.37 10.2314 L2013.37 19.4328 L2024.33 19.4328 L2024.33 23.5705 L2013.37 23.5705 L2013.37 41.163 Q2013.37 45.1271 2014.44 46.2555 Q2015.54 47.384 2018.87 47.384 L2024.33 47.384 L2024.33 51.84 L2018.87 51.84 Q2012.7 51.84 2010.36 49.5541 Q2008.02 47.2393 2008.02 41.163 L2008.02 23.5705 L2004.11 23.5705 L2004.11 19.4328 L2008.02 19.4328 L2008.02 10.2314 L2013.37 10.2314 Z" fill="#000000" fill-rule="evenodd" fill-opacity="1" /><path clip-path="url(#clip000)" d="M 0 0 M2056.86 32.2799 L2056.86 51.84 L2051.53 51.84 L2051.53 32.4535 Q2051.53 27.8529 2049.74 25.567 Q2047.95 23.2811 2044.36 23.2811 Q2040.05 23.2811 2037.56 26.03 Q2035.07 28.7788 2035.07 33.5241 L2035.07 51.84 L2029.72 51.84 L2029.72 6.81709 L2035.07 6.81709 L2035.07 24.4675 Q2036.98 21.545 2039.55 20.0983 Q2042.16 18.6515 2045.54 18.6515 Q2051.13 18.6515 2053.99 22.1237 Q2056.86 25.567 2056.86 32.2799 Z" fill="#000000" fill-rule="evenodd" fill-opacity="1" /><path clip-path="url(#clip002)" d="
M189.963 790.843 L215.886 993.439 L241.81 985.394 L267.733 819.604 L293.657 761.592 L319.58 733.946 L345.503 883.236 L371.427 1021.28 L397.35 742.986 L423.274 764.804 
  L449.197 776.662 L475.121 750.147 L501.044 765.625 L526.968 875.095 L552.891 718.975 L578.814 698.921 L604.738 921.541 L630.661 826.319 L656.585 908.868 L682.508 943.137 
  L708.432 827.405 L734.355 794.053 L760.279 801.454 L786.202 804.156 L812.125 861.425 L838.049 875.948 L863.972 858.738 L889.896 878.485 L915.819 721.2 L941.743 780.424 
  L967.666 635.613 L993.59 794.789 L1019.51 784.131 L1045.44 711.393 L1071.36 813.782 L1097.28 764.503 L1123.21 836.597 L1149.13 721.007 L1175.05 888.392 L1200.98 878.462 
  L1226.9 893.176 L1252.82 1447.38 L1278.75 656.251 L1304.67 516.476 L1330.59 788.168 L1356.52 1013.41 L1382.44 999.146 L1408.36 683.913 L1434.29 864.407 L1460.21 777.939 
  L1486.14 630.466 L1512.06 728.503 L1537.98 803.508 L1563.91 850.034 L1589.83 760.755 L1615.75 971.568 L1641.68 769.403 L1667.6 777.396 L1693.52 791.236 L1719.45 851.177 
  L1745.37 679.109 L1771.29 792.953 L1797.22 873.788 L1823.14 751.914 L1849.06 792.203 L1874.99 860.071 L1900.91 1003.98 L1926.83 828.844 L1952.76 1019.13 L1978.68 897.659 
  L2004.6 917.479 L2030.53 791.649 L2056.45 750.852 L2082.37 775.247 L2108.3 789.051 L2134.22 894.616 L2160.14 600.504 L2186.07 778.307 L2211.99 778.6 L2237.92 782.054 
  L2263.84 997.34 L2289.76 855.945 L2289.76 312.292 L2263.84 596.668 L2237.92 515.978 L2211.99 481.549 L2186.07 501.013 L2160.14 460.36 L2134.22 411.045 L2108.3 473.712 
  L2082.37 308.624 L2056.45 517.529 L2030.53 455.081 L2004.6 420.944 L1978.68 563.918 L1952.76 721.969 L1926.83 432.418 L1900.91 499.468 L1874.99 561.953 L1849.06 542.177 
  L1823.14 440.133 L1797.22 506.344 L1771.29 257.78 L1745.37 518.325 L1719.45 467.398 L1693.52 407.447 L1667.6 343.659 L1641.68 263.708 L1615.75 545.703 L1589.83 439.771 
  L1563.91 559.799 L1537.98 563.837 L1512.06 420.482 L1486.14 449.198 L1460.21 262.084 L1434.29 276.116 L1408.36 463.492 L1382.44 523.174 L1356.52 584.223 L1330.59 350.943 
  L1304.67 263.735 L1278.75 344.035 L1252.82 993.248 L1226.9 485.441 L1200.98 490.791 L1175.05 363.506 L1149.13 285.723 L1123.21 451.655 L1097.28 409.415 L1071.36 448.774 
  L1045.44 436.85 L1019.51 445.397 L993.59 366.254 L967.666 365.898 L941.743 438.771 L915.819 494.131 L889.896 442.939 L863.972 459.001 L838.049 499.732 L812.125 482.836 
  L786.202 499.376 L760.279 483.808 L734.355 442.556 L708.432 528.362 L682.508 546.86 L656.585 529.304 L630.661 586.072 L604.738 429.861 L578.814 500.693 L552.891 428.74 
  L526.968 596.798 L501.044 476.883 L475.121 465.28 L449.197 581.062 L423.274 502.976 L397.35 532.154 L371.427 594.355 L345.503 439.155 L319.58 436.004 L293.657 412.222 
  L267.733 372.28 L241.81 145.256 L215.886 566.023 L189.963 468.58  Z
  " fill="#008080" fill-rule="evenodd" fill-opacity="0.1"/>
<polyline clip-path="url(#clip002)" style="stroke:#008080; stroke-width:6; stroke-opacity:1; fill:none" points="
  189.963,668.675 215.886,755.194 241.81,626.137 267.733,656.196 293.657,618.459 319.58,621.281 345.503,622.342 371.427,748.009 397.35,649.358 423.274,649.302 
  449.197,697.234 475.121,613.055 501.044,635.287 526.968,739.762 552.891,604.107 578.814,603.623 604.738,764.849 630.661,729.328 656.585,636.647 682.508,726.138 
  708.432,667.412 734.355,567.357 760.279,604.731 786.202,689.19 812.125,648.892 838.049,700.729 863.972,613.521 889.896,629.069 915.819,618.724 941.743,659.541 
  967.666,500.578 993.59,580.802 1019.51,604.445 1045.44,584.258 1071.36,643.619 1097.28,623.902 1123.21,612.044 1149.13,504.836 1175.05,606.635 1200.98,677.859 
  1226.9,750.542 1252.82,1228.68 1278.75,520.588 1304.67,379.055 1330.59,557.522 1356.52,690.735 1382.44,705.467 1408.36,611.41 1434.29,617.204 1460.21,529.142 
  1486.14,538.057 1512.06,552.621 1537.98,680.881 1563.91,704.85 1589.83,551.076 1615.75,782.334 1641.68,609.554 1667.6,624.422 1693.52,586.45 1719.45,667.629 
  1745.37,616.379 1771.29,573.802 1797.22,666.388 1823.14,614.217 1849.06,658.638 1874.99,742.569 1900.91,777.867 1926.83,669.555 1952.76,831.917 1978.68,746.562 
  2004.6,726.66 2030.53,577.802 2056.45,650.775 2082.37,572.439 2108.3,653.432 2134.22,686.701 2160.14,559.464 2186.07,679.587 2211.99,572.559 2237.92,672.705 
  2263.84,718.13 2289.76,627.065 
  "/>
<polyline clip-path="url(#clip002)" style="stroke:#ff0000; stroke-width:5; stroke-opacity:0.85; fill:none" points="
  189.963,682.635 215.886,673.194 241.81,646.061 267.733,637.829 293.657,583.91 319.58,550.012 345.503,560.534 371.427,589.144 397.35,671.069 423.274,677.894 
  449.197,729.487 475.121,730.84 501.044,781.932 526.968,740.058 552.891,681.659 578.814,621.029 604.738,654.993 630.661,705.599 656.585,686.326 682.508,663.646 
  708.432,542.94 734.355,543.427 760.279,615.508 786.202,600.444 812.125,617.254 838.049,623.672 863.972,588.491 889.896,592.585 915.819,588.204 941.743,571.049 
  967.666,534.897 993.59,603.598 1019.51,613.782 1045.44,542.384 1071.36,543.061 1097.28,570.919 1123.21,617.814 1149.13,539.68 1175.05,663.941 1200.98,725.767 
  1226.9,828.04 1252.82,1084.63 1278.75,1134.19 1304.67,623.267 1330.59,575.233 1356.52,542.841 1382.44,580.926 1408.36,537.391 1434.29,572.954 1460.21,574.074 
  1486.14,650.847 1512.06,641.737 1537.98,648.958 1563.91,655.656 1589.83,655.729 1615.75,705.482 1641.68,678.944 1667.6,714.521 1693.52,640.221 1719.45,641.138 
  1745.37,619.311 1771.29,651.159 1797.22,677.765 1823.14,667.061 1849.06,627.813 1874.99,654.113 1900.91,633.268 1926.83,659.426 1952.76,675.277 1978.68,694.791 
  2004.6,652.827 2030.53,669.606 2056.45,678.185 2082.37,620.937 2108.3,636.602 2134.22,631.422 2160.14,618.713 2186.07,618.791 2211.99,653.124 2237.92,667.755 
  2263.84,684.244 2289.76,700.329 
  "/>
<path clip-path="url(#clip000)" d="
M201.162 1440.44 L1051.61 1440.44 L1051.61 1281.68 L201.162 1281.68  Z
  " fill="#ffffff" fill-rule="evenodd" fill-opacity="1"/>
<polyline clip-path="url(#clip000)" style="stroke:#000000; stroke-width:4; stroke-opacity:0; fill:none" points="
  201.162,1440.44 1051.61,1440.44 1051.61,1281.68 201.162,1281.68 201.162,1440.44 
  "/>
<polyline clip-path="url(#clip000)" style="stroke:#008080; stroke-width:3.5; stroke-opacity:1; fill:none" points="
  225.893,1334.6 374.278,1334.6 
  "/>
<path clip-path="url(#clip000)" d="M 0 0 M399.009 1319.48 L404.519 1319.48 L417.927 1344.78 L417.927 1319.48 L421.897 1319.48 L421.897 1349.72 L416.388 1349.72 L402.979 1324.42 L402.979 1349.72 L399.009 1349.72 L399.009 1319.48 Z" fill="#000000" fill-rule="evenodd" fill-opacity="1" /><path clip-path="url(#clip000)" d="M 0 0 M445.21 1337.45 L445.21 1339.27 L428.075 1339.27 Q428.318 1343.12 430.384 1345.14 Q432.47 1347.15 436.176 1347.15 Q438.323 1347.15 440.329 1346.62 Q442.354 1346.09 444.339 1345.04 L444.339 1348.56 Q442.334 1349.42 440.227 1349.86 Q438.121 1350.31 435.954 1350.31 Q430.525 1350.31 427.345 1347.15 Q424.186 1343.99 424.186 1338.6 Q424.186 1333.03 427.183 1329.77 Q430.201 1326.49 435.306 1326.49 Q439.883 1326.49 442.536 1329.44 Q445.21 1332.38 445.21 1337.45 M441.483 1336.35 Q441.443 1333.29 439.762 1331.47 Q438.101 1329.65 435.346 1329.65 Q432.227 1329.65 430.343 1331.41 Q428.48 1333.17 428.196 1336.37 L441.483 1336.35 Z" fill="#000000" fill-rule="evenodd" fill-opacity="1" /><path clip-path="url(#clip000)" d="M 0 0 M446.952 1327.03 L450.679 1327.03 L455.337 1344.74 L459.976 1327.03 L464.371 1327.03 L469.029 1344.74 L473.668 1327.03 L477.394 1327.03 L471.46 1349.72 L467.065 1349.72 L462.183 1331.13 L457.282 1349.72 L452.886 1349.72 L446.952 1327.03 Z" fill="#000000" fill-rule="evenodd" fill-opacity="1" /><path clip-path="url(#clip000)" d="M 0 0 M495.765 1327.7 L495.765 1331.23 Q494.185 1330.42 492.484 1330.01 Q490.783 1329.61 488.96 1329.61 Q486.185 1329.61 484.787 1330.46 Q483.41 1331.31 483.41 1333.01 Q483.41 1334.31 484.402 1335.06 Q485.395 1335.78 488.393 1336.45 L489.669 1336.74 Q493.639 1337.59 495.299 1339.15 Q496.981 1340.69 496.981 1343.46 Q496.981 1346.62 494.469 1348.46 Q491.978 1350.31 487.603 1350.31 Q485.78 1350.31 483.795 1349.94 Q481.83 1349.6 479.643 1348.89 L479.643 1345.04 Q481.709 1346.11 483.714 1346.66 Q485.719 1347.19 487.684 1347.19 Q490.317 1347.19 491.735 1346.3 Q493.152 1345.38 493.152 1343.74 Q493.152 1342.23 492.119 1341.41 Q491.107 1340.6 487.643 1339.86 L486.347 1339.55 Q482.883 1338.82 481.344 1337.32 Q479.805 1335.8 479.805 1333.17 Q479.805 1329.97 482.073 1328.23 Q484.342 1326.49 488.514 1326.49 Q490.58 1326.49 492.403 1326.79 Q494.226 1327.1 495.765 1327.7 Z" fill="#000000" fill-rule="evenodd" fill-opacity="1" /><path clip-path="url(#clip000)" d="M 0 0 M499.006 1336.7 L509.923 1336.7 L509.923 1340.02 L499.006 1340.02 L499.006 1336.7 Z" fill="#000000" fill-rule="evenodd" fill-opacity="1" /><path clip-path="url(#clip000)" d="M 0 0 M524.142 1338.32 Q519.625 1338.32 517.883 1339.35 Q516.141 1340.38 516.141 1342.87 Q516.141 1344.86 517.438 1346.03 Q518.754 1347.19 521.002 1347.19 Q524.101 1347.19 525.965 1345 Q527.848 1342.79 527.848 1339.15 L527.848 1338.32 L524.142 1338.32 M531.575 1336.78 L531.575 1349.72 L527.848 1349.72 L527.848 1346.28 Q526.572 1348.34 524.668 1349.33 Q522.765 1350.31 520.01 1350.31 Q516.526 1350.31 514.46 1348.36 Q512.414 1346.4 512.414 1343.12 Q512.414 1339.29 514.967 1337.34 Q517.539 1335.4 522.623 1335.4 L527.848 1335.4 L527.848 1335.03 Q527.848 1332.46 526.147 1331.06 Q524.466 1329.65 521.407 1329.65 Q519.463 1329.65 517.62 1330.11 Q515.777 1330.58 514.075 1331.51 L514.075 1328.07 Q516.121 1327.28 518.045 1326.89 Q519.969 1326.49 521.792 1326.49 Q526.714 1326.49 529.145 1329.04 Q531.575 1331.59 531.575 1336.78 Z" fill="#000000" fill-rule="evenodd" fill-opacity="1" /><path clip-path="url(#clip000)" d="M 0 0 M535.1 1340.77 L535.1 1327.03 L538.826 1327.03 L538.826 1340.63 Q538.826 1343.85 540.082 1345.47 Q541.338 1347.07 543.849 1347.07 Q546.867 1347.07 548.609 1345.14 Q550.371 1343.22 550.371 1339.9 L550.371 1327.03 L554.098 1327.03 L554.098 1349.72 L550.371 1349.72 L550.371 1346.24 Q549.014 1348.3 547.212 1349.31 Q545.429 1350.31 543.06 1350.31 Q539.15 1350.31 537.125 1347.88 Q535.1 1345.45 535.1 1340.77 M544.477 1326.49 L544.477 1326.49 Z" fill="#000000" fill-rule="evenodd" fill-opacity="1" /><path clip-path="url(#clip000)" d="M 0 0 M572.935 1338.11 Q572.935 1334.06 571.254 1331.83 Q569.593 1329.61 566.575 1329.61 Q563.577 1329.61 561.896 1331.83 Q560.235 1334.06 560.235 1338.11 Q560.235 1342.14 561.896 1344.37 Q563.577 1346.6 566.575 1346.6 Q569.593 1346.6 571.254 1344.37 Q572.935 1342.14 572.935 1338.11 M576.662 1346.9 Q576.662 1352.7 574.089 1355.51 Q571.517 1358.35 566.21 1358.35 Q564.246 1358.35 562.504 1358.04 Q560.762 1357.76 559.121 1357.15 L559.121 1353.53 Q560.762 1354.42 562.362 1354.84 Q563.962 1355.27 565.623 1355.27 Q569.289 1355.27 571.112 1353.34 Q572.935 1351.44 572.935 1347.57 L572.935 1345.73 Q571.78 1347.73 569.978 1348.73 Q568.175 1349.72 565.664 1349.72 Q561.491 1349.72 558.939 1346.54 Q556.387 1343.36 556.387 1338.11 Q556.387 1332.85 558.939 1329.67 Q561.491 1326.49 565.664 1326.49 Q568.175 1326.49 569.978 1327.48 Q571.78 1328.47 572.935 1330.48 L572.935 1327.03 L576.662 1327.03 L576.662 1346.9 Z" fill="#000000" fill-rule="evenodd" fill-opacity="1" /><path clip-path="url(#clip000)" d="M 0 0 M598.233 1331.39 Q599.63 1328.88 601.575 1327.68 Q603.519 1326.49 606.152 1326.49 Q609.697 1326.49 611.621 1328.98 Q613.545 1331.45 613.545 1336.03 L613.545 1349.72 L609.798 1349.72 L609.798 1336.15 Q609.798 1332.89 608.644 1331.31 Q607.489 1329.73 605.119 1329.73 Q602.223 1329.73 600.542 1331.65 Q598.861 1333.58 598.861 1336.9 L598.861 1349.72 L595.114 1349.72 L595.114 1336.15 Q595.114 1332.87 593.959 1331.31 Q592.805 1329.73 590.394 1329.73 Q587.538 1329.73 585.857 1331.67 Q584.176 1333.6 584.176 1336.9 L584.176 1349.72 L580.429 1349.72 L580.429 1327.03 L584.176 1327.03 L584.176 1330.56 Q585.452 1328.47 587.235 1327.48 Q589.017 1326.49 591.468 1326.49 Q593.939 1326.49 595.661 1327.74 Q597.402 1329 598.233 1331.39 Z" fill="#000000" fill-rule="evenodd" fill-opacity="1" /><path clip-path="url(#clip000)" d="M 0 0 M636.858 1337.45 L636.858 1339.27 L619.723 1339.27 Q619.966 1343.12 622.032 1345.14 Q624.118 1347.15 627.825 1347.15 Q629.972 1347.15 631.977 1346.62 Q634.002 1346.09 635.987 1345.04 L635.987 1348.56 Q633.982 1349.42 631.876 1349.86 Q629.769 1350.31 627.602 1350.31 Q622.174 1350.31 618.994 1347.15 Q615.834 1343.99 615.834 1338.6 Q615.834 1333.03 618.832 1329.77 Q621.85 1326.49 626.954 1326.49 Q631.531 1326.49 634.185 1329.44 Q636.858 1332.38 636.858 1337.45 M633.131 1336.35 Q633.091 1333.29 631.41 1331.47 Q629.749 1329.65 626.994 1329.65 Q623.875 1329.65 621.991 1331.41 Q620.128 1333.17 619.844 1336.37 L633.131 1336.35 Z" fill="#000000" fill-rule="evenodd" fill-opacity="1" /><path clip-path="url(#clip000)" d="M 0 0 M659.624 1336.03 L659.624 1349.72 L655.898 1349.72 L655.898 1336.15 Q655.898 1332.93 654.642 1331.33 Q653.386 1329.73 650.874 1329.73 Q647.856 1329.73 646.115 1331.65 Q644.373 1333.58 644.373 1336.9 L644.373 1349.72 L640.626 1349.72 L640.626 1327.03 L644.373 1327.03 L644.373 1330.56 Q645.709 1328.51 647.512 1327.5 Q649.335 1326.49 651.705 1326.49 Q655.614 1326.49 657.619 1328.92 Q659.624 1331.33 659.624 1336.03 Z" fill="#000000" fill-rule="evenodd" fill-opacity="1" /><path clip-path="url(#clip000)" d="M 0 0 M667.22 1320.59 L667.22 1327.03 L674.896 1327.03 L674.896 1329.93 L667.22 1329.93 L667.22 1342.25 Q667.22 1345.02 667.969 1345.81 Q668.739 1346.6 671.068 1346.6 L674.896 1346.6 L674.896 1349.72 L671.068 1349.72 Q666.754 1349.72 665.113 1348.12 Q663.473 1346.5 663.473 1342.25 L663.473 1329.93 L660.738 1329.93 L660.738 1327.03 L663.473 1327.03 L663.473 1320.59 L667.22 1320.59 Z" fill="#000000" fill-rule="evenodd" fill-opacity="1" /><path clip-path="url(#clip000)" d="M 0 0 M698.209 1337.45 L698.209 1339.27 L681.074 1339.27 Q681.317 1343.12 683.383 1345.14 Q685.469 1347.15 689.176 1347.15 Q691.323 1347.15 693.328 1346.62 Q695.353 1346.09 697.338 1345.04 L697.338 1348.56 Q695.333 1349.42 693.227 1349.86 Q691.12 1350.31 688.953 1350.31 Q683.525 1350.31 680.345 1347.15 Q677.185 1343.99 677.185 1338.6 Q677.185 1333.03 680.183 1329.77 Q683.201 1326.49 688.305 1326.49 Q692.882 1326.49 695.536 1329.44 Q698.209 1332.38 698.209 1337.45 M694.482 1336.35 Q694.442 1333.29 692.761 1331.47 Q691.1 1329.65 688.345 1329.65 Q685.226 1329.65 683.342 1331.41 Q681.479 1333.17 681.195 1336.37 L694.482 1336.35 Z" fill="#000000" fill-rule="evenodd" fill-opacity="1" /><path clip-path="url(#clip000)" d="M 0 0 M717.046 1330.48 L717.046 1318.2 L720.773 1318.2 L720.773 1349.72 L717.046 1349.72 L717.046 1346.32 Q715.871 1348.34 714.068 1349.33 Q712.286 1350.31 709.775 1350.31 Q705.663 1350.31 703.07 1347.03 Q700.498 1343.74 700.498 1338.4 Q700.498 1333.05 703.07 1329.77 Q705.663 1326.49 709.775 1326.49 Q712.286 1326.49 714.068 1327.48 Q715.871 1328.45 717.046 1330.48 M704.346 1338.4 Q704.346 1342.51 706.027 1344.86 Q707.729 1347.19 710.686 1347.19 Q713.643 1347.19 715.345 1344.86 Q717.046 1342.51 717.046 1338.4 Q717.046 1334.29 715.345 1331.96 Q713.643 1329.61 710.686 1329.61 Q707.729 1329.61 706.027 1331.96 Q704.346 1334.29 704.346 1338.4 Z" fill="#000000" fill-rule="evenodd" fill-opacity="1" /><path clip-path="url(#clip000)" d="M 0 0 M754.193 1327.91 L754.193 1331.39 Q752.613 1330.52 751.013 1330.09 Q749.433 1329.65 747.813 1329.65 Q744.187 1329.65 742.182 1331.96 Q740.177 1334.24 740.177 1338.4 Q740.177 1342.55 742.182 1344.86 Q744.187 1347.15 747.813 1347.15 Q749.433 1347.15 751.013 1346.72 Q752.613 1346.28 754.193 1345.41 L754.193 1348.85 Q752.633 1349.58 750.952 1349.94 Q749.291 1350.31 747.407 1350.31 Q742.283 1350.31 739.265 1347.09 Q736.247 1343.87 736.247 1338.4 Q736.247 1332.85 739.285 1329.67 Q742.344 1326.49 747.65 1326.49 Q749.372 1326.49 751.013 1326.85 Q752.653 1327.2 754.193 1327.91 Z" fill="#000000" fill-rule="evenodd" fill-opacity="1" /><path clip-path="url(#clip000)" d="M 0 0 M766.892 1329.65 Q763.895 1329.65 762.153 1332 Q760.411 1334.33 760.411 1338.4 Q760.411 1342.47 762.132 1344.82 Q763.874 1347.15 766.892 1347.15 Q769.87 1347.15 771.612 1344.8 Q773.353 1342.45 773.353 1338.4 Q773.353 1334.37 771.612 1332.02 Q769.87 1329.65 766.892 1329.65 M766.892 1326.49 Q771.753 1326.49 774.528 1329.65 Q777.303 1332.81 777.303 1338.4 Q777.303 1343.97 774.528 1347.15 Q771.753 1350.31 766.892 1350.31 Q762.011 1350.31 759.236 1347.15 Q756.481 1343.97 756.481 1338.4 Q756.481 1332.81 759.236 1329.65 Q762.011 1326.49 766.892 1326.49 Z" fill="#000000" fill-rule="evenodd" fill-opacity="1" /><path clip-path="url(#clip000)" d="M 0 0 M798.874 1331.39 Q800.272 1328.88 802.216 1327.68 Q804.161 1326.49 806.794 1326.49 Q810.338 1326.49 812.262 1328.98 Q814.187 1331.45 814.187 1336.03 L814.187 1349.72 L810.44 1349.72 L810.44 1336.15 Q810.44 1332.89 809.285 1331.31 Q808.13 1329.73 805.761 1329.73 Q802.864 1329.73 801.183 1331.65 Q799.502 1333.58 799.502 1336.9 L799.502 1349.72 L795.755 1349.72 L795.755 1336.15 Q795.755 1332.87 794.6 1331.31 Q793.446 1329.73 791.036 1329.73 Q788.18 1329.73 786.499 1331.67 Q784.818 1333.6 784.818 1336.9 L784.818 1349.72 L781.07 1349.72 L781.07 1327.03 L784.818 1327.03 L784.818 1330.56 Q786.094 1328.47 787.876 1327.48 Q789.658 1326.49 792.109 1326.49 Q794.58 1326.49 796.302 1327.74 Q798.044 1329 798.874 1331.39 Z" fill="#000000" fill-rule="evenodd" fill-opacity="1" /><path clip-path="url(#clip000)" d="M 0 0 M835.758 1331.39 Q837.155 1328.88 839.1 1327.68 Q841.044 1326.49 843.677 1326.49 Q847.222 1326.49 849.146 1328.98 Q851.07 1331.45 851.07 1336.03 L851.07 1349.72 L847.323 1349.72 L847.323 1336.15 Q847.323 1332.89 846.168 1331.31 Q845.014 1329.73 842.644 1329.73 Q839.748 1329.73 838.067 1331.65 Q836.386 1333.58 836.386 1336.9 L836.386 1349.72 L832.638 1349.72 L832.638 1336.15 Q832.638 1332.87 831.484 1331.31 Q830.329 1329.73 827.919 1329.73 Q825.063 1329.73 823.382 1331.67 Q821.701 1333.6 821.701 1336.9 L821.701 1349.72 L817.954 1349.72 L817.954 1327.03 L821.701 1327.03 L821.701 1330.56 Q822.977 1328.47 824.759 1327.48 Q826.542 1326.49 828.993 1326.49 Q831.464 1326.49 833.185 1327.74 Q834.927 1329 835.758 1331.39 Z" fill="#000000" fill-rule="evenodd" fill-opacity="1" /><path clip-path="url(#clip000)" d="M 0 0 M855.506 1344.57 L859.78 1344.57 L859.78 1349.72 L855.506 1349.72 L855.506 1344.57 Z" fill="#000000" fill-rule="evenodd" fill-opacity="1" /><path clip-path="url(#clip000)" d="M 0 0 M891.336 1327.7 L891.336 1331.23 Q889.756 1330.42 888.055 1330.01 Q886.353 1329.61 884.531 1329.61 Q881.756 1329.61 880.358 1330.46 Q878.981 1331.31 878.981 1333.01 Q878.981 1334.31 879.973 1335.06 Q880.966 1335.78 883.963 1336.45 L885.239 1336.74 Q889.209 1337.59 890.87 1339.15 Q892.551 1340.69 892.551 1343.46 Q892.551 1346.62 890.04 1348.46 Q887.548 1350.31 883.173 1350.31 Q881.351 1350.31 879.366 1349.94 Q877.401 1349.6 875.213 1348.89 L875.213 1345.04 Q877.279 1346.11 879.285 1346.66 Q881.29 1347.19 883.255 1347.19 Q885.888 1347.19 887.305 1346.3 Q888.723 1345.38 888.723 1343.74 Q888.723 1342.23 887.69 1341.41 Q886.678 1340.6 883.214 1339.86 L881.918 1339.55 Q878.454 1338.82 876.915 1337.32 Q875.375 1335.8 875.375 1333.17 Q875.375 1329.97 877.644 1328.23 Q879.913 1326.49 884.085 1326.49 Q886.151 1326.49 887.974 1326.79 Q889.797 1327.1 891.336 1327.7 Z" fill="#000000" fill-rule="evenodd" fill-opacity="1" /><path clip-path="url(#clip000)" d="M 0 0 M915.317 1336.03 L915.317 1349.72 L911.591 1349.72 L911.591 1336.15 Q911.591 1332.93 910.335 1331.33 Q909.079 1329.73 906.567 1329.73 Q903.55 1329.73 901.808 1331.65 Q900.066 1333.58 900.066 1336.9 L900.066 1349.72 L896.319 1349.72 L896.319 1318.2 L900.066 1318.2 L900.066 1330.56 Q901.403 1328.51 903.205 1327.5 Q905.028 1326.49 907.398 1326.49 Q911.307 1326.49 913.312 1328.92 Q915.317 1331.33 915.317 1336.03 Z" fill="#000000" fill-rule="evenodd" fill-opacity="1" /><path clip-path="url(#clip000)" d="M 0 0 M928.017 1329.65 Q925.019 1329.65 923.277 1332 Q921.536 1334.33 921.536 1338.4 Q921.536 1342.47 923.257 1344.82 Q924.999 1347.15 928.017 1347.15 Q930.994 1347.15 932.736 1344.8 Q934.478 1342.45 934.478 1338.4 Q934.478 1334.37 932.736 1332.02 Q930.994 1329.65 928.017 1329.65 M928.017 1326.49 Q932.878 1326.49 935.653 1329.65 Q938.428 1332.81 938.428 1338.4 Q938.428 1343.97 935.653 1347.15 Q932.878 1350.31 928.017 1350.31 Q923.136 1350.31 920.361 1347.15 Q917.606 1343.97 917.606 1338.4 Q917.606 1332.81 920.361 1329.65 Q923.136 1326.49 928.017 1326.49 Z" fill="#000000" fill-rule="evenodd" fill-opacity="1" /><path clip-path="url(#clip000)" d="M 0 0 M958.662 1327.91 L958.662 1331.39 Q957.082 1330.52 955.482 1330.09 Q953.902 1329.65 952.282 1329.65 Q948.656 1329.65 946.651 1331.96 Q944.646 1334.24 944.646 1338.4 Q944.646 1342.55 946.651 1344.86 Q948.656 1347.15 952.282 1347.15 Q953.902 1347.15 955.482 1346.72 Q957.082 1346.28 958.662 1345.41 L958.662 1348.85 Q957.102 1349.58 955.421 1349.94 Q953.76 1350.31 951.877 1350.31 Q946.752 1350.31 943.735 1347.09 Q940.717 1343.87 940.717 1338.4 Q940.717 1332.85 943.755 1329.67 Q946.813 1326.49 952.12 1326.49 Q953.842 1326.49 955.482 1326.85 Q957.123 1327.2 958.662 1327.91 Z" fill="#000000" fill-rule="evenodd" fill-opacity="1" /><path clip-path="url(#clip000)" d="M 0 0 M962.429 1318.2 L966.177 1318.2 L966.177 1336.82 L977.296 1327.03 L982.056 1327.03 L970.025 1337.65 L982.562 1349.72 L977.701 1349.72 L966.177 1338.64 L966.177 1349.72 L962.429 1349.72 L962.429 1318.2 Z" fill="#000000" fill-rule="evenodd" fill-opacity="1" /><path clip-path="url(#clip000)" d="M 0 0 M1000.93 1327.7 L1000.93 1331.23 Q999.353 1330.42 997.652 1330.01 Q995.951 1329.61 994.128 1329.61 Q991.353 1329.61 989.955 1330.46 Q988.578 1331.31 988.578 1333.01 Q988.578 1334.31 989.57 1335.06 Q990.563 1335.78 993.561 1336.45 L994.837 1336.74 Q998.807 1337.59 1000.47 1339.15 Q1002.15 1340.69 1002.15 1343.46 Q1002.15 1346.62 999.637 1348.46 Q997.146 1350.31 992.771 1350.31 Q990.948 1350.31 988.963 1349.94 Q986.998 1349.6 984.811 1348.89 L984.811 1345.04 Q986.877 1346.11 988.882 1346.66 Q990.887 1347.19 992.852 1347.19 Q995.485 1347.19 996.903 1346.3 Q998.32 1345.38 998.32 1343.74 Q998.32 1342.23 997.287 1341.41 Q996.275 1340.6 992.811 1339.86 L991.515 1339.55 Q988.051 1338.82 986.512 1337.32 Q984.973 1335.8 984.973 1333.17 Q984.973 1329.97 987.241 1328.23 Q989.51 1326.49 993.682 1326.49 Q995.748 1326.49 997.571 1326.79 Q999.394 1327.1 1000.93 1327.7 Z" fill="#000000" fill-rule="evenodd" fill-opacity="1" /><polyline clip-path="url(#clip000)" style="stroke:#ff0000; stroke-width:3.5; stroke-opacity:0.85; fill:none" points="
  225.893,1387.52 374.278,1387.52 
  "/>
<path clip-path="url(#clip000)" d="M 0 0 M421.37 1398.33 L421.37 1390.2 L414.686 1390.2 L414.686 1386.84 L425.421 1386.84 L425.421 1399.82 Q423.052 1401.51 420.196 1402.38 Q417.34 1403.23 414.099 1403.23 Q407.01 1403.23 403 1399.09 Q399.009 1394.94 399.009 1387.55 Q399.009 1380.14 403 1376 Q407.01 1371.85 414.099 1371.85 Q417.056 1371.85 419.71 1372.58 Q422.383 1373.31 424.631 1374.73 L424.631 1379.08 Q422.363 1377.16 419.811 1376.19 Q417.259 1375.21 414.443 1375.21 Q408.894 1375.21 406.098 1378.31 Q403.324 1381.41 403.324 1387.55 Q403.324 1393.67 406.098 1396.77 Q408.894 1399.86 414.443 1399.86 Q416.611 1399.86 418.312 1399.5 Q420.013 1399.12 421.37 1398.33 Z" fill="#000000" fill-rule="evenodd" fill-opacity="1" /><path clip-path="url(#clip000)" d="M 0 0 M433.381 1399.2 L447.661 1399.2 L447.661 1402.64 L428.459 1402.64 L428.459 1399.2 Q430.789 1396.79 434.799 1392.73 Q438.83 1388.66 439.863 1387.49 Q441.827 1385.28 442.597 1383.76 Q443.387 1382.22 443.387 1380.74 Q443.387 1378.33 441.686 1376.81 Q440.005 1375.3 437.29 1375.3 Q435.366 1375.3 433.219 1375.96 Q431.093 1376.63 428.662 1377.99 L428.662 1373.86 Q431.133 1372.87 433.28 1372.36 Q435.427 1371.85 437.209 1371.85 Q441.908 1371.85 444.704 1374.2 Q447.499 1376.55 447.499 1380.48 Q447.499 1382.34 446.79 1384.03 Q446.101 1385.69 444.258 1387.95 Q443.752 1388.54 441.038 1391.36 Q438.323 1394.15 433.381 1399.2 Z" fill="#000000" fill-rule="evenodd" fill-opacity="1" /><path clip-path="url(#clip000)" d="M 0 0 M460.846 1375.09 Q457.687 1375.09 456.087 1378.21 Q454.507 1381.31 454.507 1387.55 Q454.507 1393.77 456.087 1396.89 Q457.687 1399.99 460.846 1399.99 Q464.026 1399.99 465.606 1396.89 Q467.206 1393.77 467.206 1387.55 Q467.206 1381.31 465.606 1378.21 Q464.026 1375.09 460.846 1375.09 M460.846 1371.85 Q465.93 1371.85 468.604 1375.88 Q471.298 1379.89 471.298 1387.55 Q471.298 1395.19 468.604 1399.22 Q465.93 1403.23 460.846 1403.23 Q455.763 1403.23 453.069 1399.22 Q450.395 1395.19 450.395 1387.55 Q450.395 1379.89 453.069 1375.88 Q455.763 1371.85 460.846 1371.85 Z" fill="#000000" fill-rule="evenodd" fill-opacity="1" /><path clip-path="url(#clip000)" d="M 0 0 M497.183 1382.57 Q494.185 1382.57 492.444 1384.92 Q490.702 1387.25 490.702 1391.32 Q490.702 1395.39 492.423 1397.74 Q494.165 1400.07 497.183 1400.07 Q500.16 1400.07 501.902 1397.72 Q503.644 1395.37 503.644 1391.32 Q503.644 1387.29 501.902 1384.94 Q500.16 1382.57 497.183 1382.57 M497.183 1379.41 Q502.044 1379.41 504.819 1382.57 Q507.594 1385.73 507.594 1391.32 Q507.594 1396.89 504.819 1400.07 Q502.044 1403.23 497.183 1403.23 Q492.302 1403.23 489.527 1400.07 Q486.772 1396.89 486.772 1391.32 Q486.772 1385.73 489.527 1382.57 Q492.302 1379.41 497.183 1379.41 Z" fill="#000000" fill-rule="evenodd" fill-opacity="1" /><path clip-path="url(#clip000)" d="M 0 0 M511.118 1393.69 L511.118 1379.95 L514.845 1379.95 L514.845 1393.55 Q514.845 1396.77 516.101 1398.39 Q517.357 1399.99 519.868 1399.99 Q522.886 1399.99 524.628 1398.06 Q526.39 1396.14 526.39 1392.82 L526.39 1379.95 L530.117 1379.95 L530.117 1402.64 L526.39 1402.64 L526.39 1399.16 Q525.033 1401.22 523.23 1402.23 Q521.448 1403.23 519.078 1403.23 Q515.169 1403.23 513.144 1400.8 Q511.118 1398.37 511.118 1393.69 M520.496 1379.41 L520.496 1379.41 Z" fill="#000000" fill-rule="evenodd" fill-opacity="1" /><path clip-path="url(#clip000)" d="M 0 0 M537.712 1373.51 L537.712 1379.95 L545.389 1379.95 L545.389 1382.85 L537.712 1382.85 L537.712 1395.17 Q537.712 1397.94 538.462 1398.73 Q539.231 1399.52 541.561 1399.52 L545.389 1399.52 L545.389 1402.64 L541.561 1402.64 Q537.247 1402.64 535.606 1401.04 Q533.965 1399.42 533.965 1395.17 L533.965 1382.85 L531.231 1382.85 L531.231 1379.95 L533.965 1379.95 L533.965 1373.51 L537.712 1373.51 Z" fill="#000000" fill-rule="evenodd" fill-opacity="1" /><path clip-path="url(#clip000)" d="M 0 0 M552.903 1399.24 L552.903 1411.27 L549.156 1411.27 L549.156 1379.95 L552.903 1379.95 L552.903 1383.4 Q554.078 1381.37 555.86 1380.4 Q557.663 1379.41 560.154 1379.41 Q564.286 1379.41 566.859 1382.69 Q569.451 1385.97 569.451 1391.32 Q569.451 1396.66 566.859 1399.95 Q564.286 1403.23 560.154 1403.23 Q557.663 1403.23 555.86 1402.25 Q554.078 1401.26 552.903 1399.24 M565.583 1391.32 Q565.583 1387.21 563.881 1384.88 Q562.2 1382.53 559.243 1382.53 Q556.286 1382.53 554.584 1384.88 Q552.903 1387.21 552.903 1391.32 Q552.903 1395.43 554.584 1397.78 Q556.286 1400.11 559.243 1400.11 Q562.2 1400.11 563.881 1397.78 Q565.583 1395.43 565.583 1391.32 Z" fill="#000000" fill-rule="evenodd" fill-opacity="1" /><path clip-path="url(#clip000)" d="M 0 0 M572.975 1393.69 L572.975 1379.95 L576.702 1379.95 L576.702 1393.55 Q576.702 1396.77 577.958 1398.39 Q579.214 1399.99 581.725 1399.99 Q584.743 1399.99 586.485 1398.06 Q588.247 1396.14 588.247 1392.82 L588.247 1379.95 L591.974 1379.95 L591.974 1402.64 L588.247 1402.64 L588.247 1399.16 Q586.89 1401.22 585.088 1402.23 Q583.305 1403.23 580.936 1403.23 Q577.026 1403.23 575.001 1400.8 Q572.975 1398.37 572.975 1393.69 M582.353 1379.41 L582.353 1379.41 Z" fill="#000000" fill-rule="evenodd" fill-opacity="1" /><path clip-path="url(#clip000)" d="M 0 0 M599.57 1373.51 L599.57 1379.95 L607.246 1379.95 L607.246 1382.85 L599.57 1382.85 L599.57 1395.17 Q599.57 1397.94 600.319 1398.73 Q601.089 1399.52 603.418 1399.52 L607.246 1399.52 L607.246 1402.64 L603.418 1402.64 Q599.104 1402.64 597.463 1401.04 Q595.823 1399.42 595.823 1395.17 L595.823 1382.85 L593.088 1382.85 L593.088 1379.95 L595.823 1379.95 L595.823 1373.51 L599.57 1373.51 Z" fill="#000000" fill-rule="evenodd" fill-opacity="1" /></svg>
